<svg xmlns="http://www.w3.org/2000/svg" width="65" height="65" viewBox="0 0 65 65"><g transform="translate(2 267)"><rect width="65" height="65" transform="translate(-2 -267)" fill="#fff" opacity="0"/><g transform="translate(11.094 -260.066)"><path d="M35.4,6a8.676,8.676,0,0,0-6.123,2.278H22.875a1.139,1.139,0,0,0-.961,1.744l6.034,9.469a22.758,22.758,0,0,0-6.229,5.589c-3.447,4.4-5.624,9.842-5.624,14.523,0,7.9,6.323,14.3,14.541,16.09a1.093,1.093,0,0,0,1.265-.962,1.215,1.215,0,0,0-.855-1.423c-7.489-1.632-12.779-7.278-12.779-13.7,0-3.811,1.923-8.9,5.073-12.922S30.77,19.74,35.4,19.74s8.918,2.925,12.067,6.941,5.073,9.11,5.073,12.922a12.952,12.952,0,0,1-4.895,9.914A19.03,19.03,0,0,1,35.4,53.771a1.241,1.241,0,0,0,0,2.421A20.99,20.99,0,0,0,48.95,51.439,15.519,15.519,0,0,0,54.716,39.6c0-4.682-2.177-10.127-5.624-14.523S40.836,17.32,35.4,17.32a13.954,13.954,0,0,0-5.411,1.139l-5.037-7.9h4.752a1.139,1.139,0,0,0,.872-.409A6.485,6.485,0,0,1,35.4,8.278a6.485,6.485,0,0,1,4.823,1.869,1.139,1.139,0,0,0,.872.409h4.752l-2.883,4.521a1.141,1.141,0,1,0,1.922,1.228l4-6.283a1.139,1.139,0,0,0-.961-1.744H41.528A8.676,8.676,0,0,0,35.4,6Z" transform="translate(-16.094 -6)" fill="#37236a"/><path d="M26.894,19.5a3.5,3.5,0,0,1,3.5,3.5.7.7,0,1,0,1.4,0,4.9,4.9,0,0,0-4.195-4.838V16.7a.7.7,0,0,0-1.4,0v1.454A4.9,4.9,0,0,0,22,22.991v.7a3.836,3.836,0,0,0,2.366,3.549l4.517,1.882a2.441,2.441,0,0,1,1.506,2.259,3.5,3.5,0,0,1-6.991,0,.7.7,0,1,0-1.4,0,4.9,4.9,0,0,0,4.195,4.838v1.454a.7.7,0,0,0,1.4,0V36.218a4.9,4.9,0,0,0,4.195-4.838,3.836,3.836,0,0,0-2.366-3.549L24.9,25.949A2.441,2.441,0,0,1,23.4,23.69v-.7a3.5,3.5,0,0,1,3.5-3.5Z" transform="translate(-7.47 3.127)" fill="#37236a"/></g></g></svg>