<svg xmlns="http://www.w3.org/2000/svg" width="65" height="65" viewBox="0 0 65 65"><g transform="translate(2 267)"><rect width="65" height="65" transform="translate(-2 -267)" fill="#fff" opacity="0"/><g transform="translate(4.611 -261.665)"><path d="M47.637,39.957A22.9,22.9,0,0,0,28.817,4a23.273,23.273,0,0,0-2.45.134,22.912,22.912,0,1,0,.111,45.542v.03a23.3,23.3,0,0,0,2.339.118A22.9,22.9,0,0,0,47.6,40h.034Zm.451-22.046H44.978a22.857,22.857,0,0,0-1.736-3.273h2.939a21.267,21.267,0,0,1,1.906,3.273Zm.688,1.637a21.069,21.069,0,0,1,.917,3.273H46.446a22.728,22.728,0,0,0-.848-3.273Zm1.316,7.365c0,.274-.011.547-.02.818H46.8c.009-.272.02-.544.02-.818a22.949,22.949,0,0,0-.133-2.455h3.261a21.522,21.522,0,0,1,.146,2.455Zm-3.407,2.455h3.261a21.133,21.133,0,0,1-.889,4.091h-3.2a22.713,22.713,0,0,0,.825-4.091ZM45.3,35.095h3.153a21.2,21.2,0,0,1-1.718,3.273h-3A22.773,22.773,0,0,0,45.3,35.095ZM44.893,13H42.1a23.048,23.048,0,0,0-2.176-2.455h2.474A21.458,21.458,0,0,1,44.893,13ZM40.134,8.909h-2.08a22.947,22.947,0,0,0-4.328-2.7,21.128,21.128,0,0,1,6.408,2.7Zm-37.5,18A21.275,21.275,0,1,1,23.907,48.187,21.275,21.275,0,0,1,2.631,26.912Zm35.423,18h2.08a21.128,21.128,0,0,1-6.408,2.7A22.947,22.947,0,0,0,38.054,44.914Zm4.337-1.637H39.92A23.044,23.044,0,0,0,42.693,40h2.875a21.439,21.439,0,0,1-3.173,3.273Z" fill="#37236a"/><path d="M25,10A18,18,0,1,0,43,28,18,18,0,0,0,25,10Zm0,34.368A16.366,16.366,0,1,1,41.368,28,16.366,16.366,0,0,1,25,44.368Z" transform="translate(-1.095 -1.091)" fill="#37236a"/><path d="M27.728,20.091a4.1,4.1,0,0,1,4.091,4.091.818.818,0,1,0,1.637,0,5.733,5.733,0,0,0-4.91-5.663v-1.7a.818.818,0,0,0-1.637,0v1.7A5.733,5.733,0,0,0,22,24.183V25a4.49,4.49,0,0,0,2.77,4.154l5.287,2.2A2.857,2.857,0,0,1,31.819,34a4.091,4.091,0,0,1-8.183,0A.818.818,0,0,0,22,34a5.733,5.733,0,0,0,4.91,5.663v1.7a.818.818,0,0,0,1.637,0v-1.7A5.733,5.733,0,0,0,33.456,34a4.49,4.49,0,0,0-2.77-4.154l-5.287-2.2A2.857,2.857,0,0,1,23.637,25v-.818a4.1,4.1,0,0,1,4.091-4.091Z" transform="translate(-3.821 -2.181)" fill="#37236a"/><path d="M14.455,29H12.818a.818.818,0,0,0,0,1.637h1.637a.818.818,0,0,0,0-1.637Z" transform="translate(-2.004 -4.543)" fill="#37236a"/><path d="M14.455,33H12.818a.818.818,0,0,0,0,1.637h1.637a.818.818,0,0,0,0-1.637Z" transform="translate(-2.004 -5.27)" fill="#37236a"/><path d="M42.818,30.637h1.637a.818.818,0,1,0,0-1.637H42.818a.818.818,0,0,0,0,1.637Z" transform="translate(-7.455 -4.543)" fill="#37236a"/><path d="M44.455,33H42.818a.818.818,0,0,0,0,1.637h1.637a.818.818,0,1,0,0-1.637Z" transform="translate(-7.455 -5.27)" fill="#37236a"/></g></g></svg>