<svg xmlns="http://www.w3.org/2000/svg" width="65" height="65" viewBox="0 0 65 65"><g transform="translate(2 267)"><rect width="65" height="65" transform="translate(-2 -267)" fill="#fff" opacity="0"/><g transform="translate(1013 5290.281)"><g transform="translate(-1007.6 -5550.7)"><path d="M1313.592,178.549a.624.624,0,1,0,0-1.249h-2.986a.906.906,0,0,0-.905.905v5.973a.906.906,0,0,0,.905.905h5.972a.906.906,0,0,0,.905-.905v-2.019a.624.624,0,0,0-1.249,0v1.686h-5.3v-5.286h2.653Z" transform="translate(-1303.53 -161.869)" fill="#3a226a"/><path d="M1339.339,172.658a.616.616,0,0,0-.874.083h0l-2.976,3.579-.957-.77a.621.621,0,1,0-.791.957l.01.01,1.145.926a.989.989,0,0,0,1.321-.062l.021-.021,3.184-3.829a.616.616,0,0,0-.083-.874Z" transform="translate(-1324.865 -157.581)" fill="#3a226a"/><path d="M1309.6,311.367a.906.906,0,0,0,.905.905h5.972a.906.906,0,0,0,.905-.905v-2.019a.624.624,0,1,0-1.249,0v1.686h-5.3v-5.286h2.653a.624.624,0,0,0,0-1.249h-2.986a.906.906,0,0,0-.905.905Z" transform="translate(-1303.44 -275.834)" fill="#3a226a"/><path d="M1339.339,299.858a.616.616,0,0,0-.874.083h0l-2.976,3.579-.957-.77a.621.621,0,1,0-.791.957l.01.01,1.145.926a.989.989,0,0,0,1.321-.062l.021-.021,3.184-3.829a.616.616,0,0,0-.083-.874Z" transform="translate(-1324.865 -271.545)" fill="#3a226a"/><path d="M1298.295,29h-45.023a2.871,2.871,0,0,0-2.872,2.872V69.184a2.878,2.878,0,0,0,2.872,2.872l24.3.177.01-1.249-24.3-.177a1.625,1.625,0,0,1-1.623-1.623V39.436h48.28V69.184a1.625,1.625,0,0,1-1.623,1.623h-.031l-3.153.177.073,1.249,3.132-.166a2.882,2.882,0,0,0,2.861-2.872V31.872a2.918,2.918,0,0,0-2.9-2.872Zm-46.656,9.188V31.872a1.625,1.625,0,0,1,1.623-1.623h45.023a1.625,1.625,0,0,1,1.623,1.623v6.316Z" transform="translate(-1250.4 -29)" fill="#3a226a"/><path d="M1279.893,55.4a2.393,2.393,0,1,0,2.393,2.393h0A2.394,2.394,0,0,0,1279.893,55.4Zm0,3.538a1.145,1.145,0,1,1,1.145-1.145h0A1.141,1.141,0,0,1,1279.893,58.938Z" transform="translate(-1274.68 -52.653)" fill="#3a226a"/><path d="M1340.493,55.4a2.393,2.393,0,1,0,2.393,2.393A2.393,2.393,0,0,0,1340.493,55.4Zm0,3.538a1.145,1.145,0,1,1,1.145-1.145A1.141,1.141,0,0,1,1340.493,58.938Z" transform="translate(-1328.975 -52.653)" fill="#3a226a"/><path d="M1401.193,55.4a2.393,2.393,0,1,0,2.393,2.393A2.393,2.393,0,0,0,1401.193,55.4Zm0,3.538a1.145,1.145,0,1,1,1.145-1.145A1.141,1.141,0,0,1,1401.193,58.938Z" transform="translate(-1383.359 -52.653)" fill="#3a226a"/><path d="M1526.2,71.3h-20.28a.624.624,0,0,0,0,1.249h20.28a.626.626,0,0,0,.624-.624.619.619,0,0,0-.624-.624Z" transform="translate(-1478.778 -66.899)" fill="#635688"/></g><path d="M1631.392,308.6h-5.067a.624.624,0,1,0,0,1.249h5.067a.624.624,0,0,0,0-1.249Z" transform="translate(-2594.25 -5830.208)" fill="#8d7eb7"/><path d="M1440.924,359.549h2.133a.624.624,0,1,0,0-1.249h-2.133a.624.624,0,1,0,0,1.249Z" transform="translate(-2428.141 -5874.737)" fill="#8d7eb7"/><path d="M1440.924,182.649h24.358a.624.624,0,0,0,0-1.249h-24.358a.624.624,0,1,0,0,1.249Z" transform="translate(-2428.141 -5716.243)" fill="#8d7eb7"/><path d="M1440.924,232.449h24.358a.624.624,0,0,0,0-1.249h-24.358a.624.624,0,1,0,0,1.249Z" transform="translate(-2428.141 -5760.861)" fill="#8d7eb7"/><path d="M1440.924,309.849h7.908a.624.624,0,1,0,0-1.249h-7.908a.624.624,0,1,0,0,1.249Z" transform="translate(-2428.141 -5830.208)" fill="#8d7eb7"/><path d="M1500.426,268.3a2.42,2.42,0,0,0-2.424,2.424v12.455l-.042-.062a5.367,5.367,0,0,0-4.412-2.31,1.245,1.245,0,0,0-1.248,1.249,1.217,1.217,0,0,0,.115.51l.1.239a21.19,21.19,0,0,1,1.176,3.371l1.321,5.2c0,.01,0,.021.01.021a4.451,4.451,0,0,0,4.3,3.194h8.709a4.485,4.485,0,0,0,4.485-4.485v-7.044a25.1,25.1,0,0,0-6.451-3.038c-.083.042-.167.083-.239.125a2.169,2.169,0,0,0-2.861-1.1.31.31,0,0,0-.083.042v-8.366a2.467,2.467,0,0,0-2.456-2.424Z" transform="translate(-2474.73 -5794.101)" fill="#3a226a"/><path d="M1513.813,291.8a.931.931,0,0,1,1.863-.01h0v.707a1.731,1.731,0,0,0-.021.333v2.456a.626.626,0,0,0,.624.624h.021a.626.626,0,0,0,.624-.624V292.62a1,1,0,0,1,1.2-.76,1.011,1.011,0,0,1,.791.978v3.1a.624.624,0,0,0,1.249,0v-2.123a1.02,1.02,0,0,1,2.039-.021v7.065a3.233,3.233,0,0,1-3.236,3.236h-8.709a3.2,3.2,0,0,1-3.09-2.3l-1.322-5.192a22.6,22.6,0,0,0-1.238-3.569l-.1-.239a4.109,4.109,0,0,1,3.382,1.779l1.072,1.55v2.32a.624.624,0,1,0,1.249,0V281.476a1.176,1.176,0,0,1,2.352,0h0v11.081a.487.487,0,0,0,.031.177v2.549a.624.624,0,1,0,1.249,0Z" transform="translate(-2485.661 -5804.853)" fill="#fff"/></g></g></svg>