<svg xmlns="http://www.w3.org/2000/svg" width="65" height="65" viewBox="0 0 65 65"><g transform="translate(2 267)"><rect width="65" height="65" transform="translate(-2 -267)" fill="#fff" opacity="0"/><g transform="translate(0.148 -228.307) rotate(-60)"><g transform="translate(1.395 1)"><path d="M24.531,25.969l1.833-1.817a.819.819,0,0,0,.182-.9l-1.261-3.094a10.715,10.715,0,0,0,.705-1.709l3.069-1.294a.819.819,0,0,0,.514-.763V13.8a.83.83,0,0,0-.514-.771l-3.069-1.286a11.3,11.3,0,0,0-.705-1.7l1.261-3.086a.819.819,0,0,0-.182-.9L24.531,4.219a.831.831,0,0,0-.9-.183L20.533,5.3a10.414,10.414,0,0,0-1.684-.7l-1.3-3.078a.854.854,0,0,0-.763-.514L14.2,1a.853.853,0,0,0-.771.506L12.121,4.6a11.073,11.073,0,0,0-1.684.7l-3.1-1.261a.818.818,0,0,0-.9.183L4.6,6.052a.832.832,0,0,0-.174.9l1.261,3.086a9.8,9.8,0,0,0-.705,1.7L1.9,13.028a.835.835,0,0,0-.506.771v2.588a.824.824,0,0,0,.506.763l3.078,1.294a10.315,10.315,0,0,0,.705,1.7l-1.269,3.1a.837.837,0,0,0,.191.9l1.833,1.817a.834.834,0,0,0,.9.183l3.078-1.261a10.728,10.728,0,0,0,1.7.713l1.3,3.078a.833.833,0,0,0,.763.506h2.588a.833.833,0,0,0,.763-.506L18.824,25.6a10.281,10.281,0,0,0,1.717-.713l3.086,1.261A.834.834,0,0,0,24.531,25.969ZM19.365,18.3a5.029,5.029,0,1,1,1.151-3.2A5.022,5.022,0,0,1,19.365,18.3Z" transform="translate(-1.395 -1)" fill="none" stroke="#37236a" stroke-width="2"/><path d="M46.294,35.515a.813.813,0,0,0,.224-.888l-.6-1.692a.813.813,0,0,0-.73-.547l-2.207-.133a8.682,8.682,0,0,0-.738-.813l.1-2.2a.834.834,0,0,0-.465-.788l-1.609-.788a.848.848,0,0,0-.921.124L37.7,29.268a9.687,9.687,0,0,0-1.1-.058l-1.477-1.626a.828.828,0,0,0-.888-.224l-1.7.6a.855.855,0,0,0-.556.738l-.124,2.2a8.393,8.393,0,0,0-.813.73l-2.207-.108a.807.807,0,0,0-.788.473l-.771,1.634a.825.825,0,0,0,.133.9l1.46,1.651a7.951,7.951,0,0,0-.05,1.087L27.2,38.75a.822.822,0,0,0-.232.879l.6,1.7a.822.822,0,0,0,.73.556l2.223.133a7.2,7.2,0,0,0,.713.8l-.108,2.215a.833.833,0,0,0,.473.788l1.634.78a.839.839,0,0,0,.913-.133L35.784,45a8.023,8.023,0,0,0,1.087.058l1.485,1.634a.83.83,0,0,0,.614.274.8.8,0,0,0,.274-.05l1.7-.6a.855.855,0,0,0,.556-.738l.124-2.2a7.582,7.582,0,0,0,.8-.738l2.215.108a.82.82,0,0,0,.788-.473L46.2,40.65a.825.825,0,0,0-.133-.9L44.6,38.095a6.766,6.766,0,0,0,.058-1.087ZM40.131,38.75a3.742,3.742,0,0,1-.416.67A3.7,3.7,0,0,1,38,40.668a3.754,3.754,0,0,1-4.644-5.153c.044-.09.1-.167.154-.252a3.73,3.73,0,0,1,3.239-1.883,3.758,3.758,0,0,1,3.385,5.37Z" transform="translate(-4.651 -3.589)" fill="none" stroke="#37236a" stroke-width="2"/></g></g></g></svg>