<svg xmlns="http://www.w3.org/2000/svg" width="65" height="65" viewBox="0 0 65 65"><g transform="translate(2 267)"><rect width="65" height="65" transform="translate(-2 -267)" fill="#fff" opacity="0"/><g transform="translate(-569 -575.489)"><g transform="translate(576.5 313.512)"><path d="M42.952,2H15.383A3.017,3.017,0,0,0,12.5,5.13V51.846a3.019,3.019,0,0,0,2.883,3.13h27.5a3.1,3.1,0,0,0,2.957-3.211V5.13A3.019,3.019,0,0,0,42.952,2ZM13.978,9.465h30.3V44.542h-30.3Zm30.378,42.3a1.469,1.469,0,0,1-1.4,1.525H15.383a1.466,1.466,0,0,1-1.4-1.525V46.147H44.356Zm0-43.907H13.978V5.13a1.469,1.469,0,0,1,1.4-1.525h27.57a1.466,1.466,0,0,1,1.4,1.525Z" transform="translate(-12.5 -2)" fill="#37236a"/><path d="M24.65,17.4H19.721a.776.776,0,0,0-.821.821V23.15a.776.776,0,0,0,.821.821H24.65a.883.883,0,0,0,.821-.821V18.221A.776.776,0,0,0,24.65,17.4Zm-.821,4.929H20.543V19.043h3.286Z" transform="translate(-13.958 -5.079)" fill="#37236a"/><path d="M36.75,17.4H31.821a.776.776,0,0,0-.821.821V23.15a.776.776,0,0,0,.821.821H36.75a.823.823,0,0,0,.821-.821V18.221A.776.776,0,0,0,36.75,17.4Zm-.821,4.929H32.643V19.043h3.286Z" transform="translate(-17.655 -5.079)" fill="#37236a"/><path d="M48.85,17.4H43.921a.776.776,0,0,0-.821.821V23.15a.776.776,0,0,0,.821.821H48.85a.823.823,0,0,0,.821-.821V18.221A.776.776,0,0,0,48.85,17.4Zm-.821,4.929H44.743V19.043h3.286Z" transform="translate(-21.357 -5.079)" fill="#37236a"/><path d="M24.65,29.1H19.721a.776.776,0,0,0-.821.821V34.85a.776.776,0,0,0,.821.821H24.65a.823.823,0,0,0,.821-.821V29.921A.776.776,0,0,0,24.65,29.1Zm-.821,4.929H20.543V30.743h3.286Z" transform="translate(-13.958 -7.418)" fill="#37236a"/><path d="M36.75,29.1H31.821a.776.776,0,0,0-.821.821V34.85a.776.776,0,0,0,.821.821H36.75a.776.776,0,0,0,.821-.821V29.921A.776.776,0,0,0,36.75,29.1Zm-.821,4.929H32.643V30.743h3.286Z" transform="translate(-17.655 -7.418)" fill="#37236a"/><path d="M48.85,29.1H43.921a.776.776,0,0,0-.821.821V34.85a.776.776,0,0,0,.821.821H48.85a.776.776,0,0,0,.821-.821V29.921A.776.776,0,0,0,48.85,29.1Zm-.821,4.929H44.743V30.743h3.286Z" transform="translate(-21.357 -7.418)" fill="#37236a"/><path d="M24.65,40.9H19.721a.776.776,0,0,0-.821.821V46.65a.776.776,0,0,0,.821.821H24.65a.883.883,0,0,0,.821-.821V41.721A.776.776,0,0,0,24.65,40.9Zm-.821,4.929H20.543V42.543h3.286Z" transform="translate(-13.958 -9.777)" fill="#37236a"/><path d="M36.75,40.9H31.821a.776.776,0,0,0-.821.821V46.65a.776.776,0,0,0,.821.821H36.75a.823.823,0,0,0,.821-.821V41.721A.776.776,0,0,0,36.75,40.9Zm-.821,4.929H32.643V42.543h3.286Z" transform="translate(-17.655 -9.777)" fill="#37236a"/><path d="M35.84,59H32.554a2.054,2.054,0,1,0,0,4.107H35.84a2.087,2.087,0,0,0,2.054-2.054A2.034,2.034,0,0,0,35.84,59Zm0,2.464H32.554c-.164,0-.411-.082-.411-.329a.388.388,0,0,1,.411-.411v-.082H35.84a.411.411,0,1,1,0,.821Z" transform="translate(-17.565 -13.417)" fill="#37236a"/><path d="M33.321,7.343h2.464a.776.776,0,0,0,.821-.821.776.776,0,0,0-.821-.821H33.321a.776.776,0,0,0-.821.821A.776.776,0,0,0,33.321,7.343Z" transform="translate(-17.923 -2.66)" fill="#37236a"/></g><g transform="translate(597.8 322.22)"><circle cx="15.304" cy="15.304" r="15.304" fill="#37236a"/><circle cx="13.503" cy="13.503" r="13.503" transform="translate(1.688 1.801)" fill="#fff"/></g><g transform="translate(608.045 331.333)"><path d="M14.6,22.5v2.244a1.122,1.122,0,0,1-1.122,1.122H5.622A1.122,1.122,0,0,1,4.5,24.744V22.5" transform="translate(-4.5 -15.767)" fill="none" stroke="#37236a" stroke-linecap="round" stroke-linejoin="round" stroke-width="1.5"/><path d="M10.5,15l2.806,2.806L16.111,15" transform="translate(-8.256 -11.072)" fill="none" stroke="#37236a" stroke-linecap="round" stroke-linejoin="round" stroke-width="1.5"/><path d="M18,11.233V4.5" transform="translate(-12.95 -4.5)" fill="none" stroke="#37236a" stroke-linecap="round" stroke-linejoin="round" stroke-width="1.5"/></g></g></g></svg>