<svg xmlns="http://www.w3.org/2000/svg" width="65" height="65" viewBox="0 0 65 65"><g transform="translate(2 267)"><rect width="65" height="65" transform="translate(-2 -267)" fill="#fff" opacity="0"/><g transform="translate(4 -262)"><g transform="translate(2.04 3)"><g transform="translate(7.308 30.178)"><path d="M22.419,57.943H11V45.709a5.709,5.709,0,1,1,11.419,0Zm-9.787-1.631h8.156v-10.6a4.078,4.078,0,1,0-8.156,0Z" transform="translate(-11 -40)" fill="#37236a"/></g><g transform="translate(20.358 30.178)"><path d="M40.05,49.787H27V40H40.05ZM28.631,48.156h9.787V41.631H28.631Z" transform="translate(-27 -40)" fill="#37236a"/></g><path d="M28.933,3.326,22.652,8.22A1.7,1.7,0,0,0,22,9.525v5.709a1.6,1.6,0,0,0,.734,1.387l6.2,4.16a1.644,1.644,0,0,0,.9.245H52.178a1.636,1.636,0,0,0,1.631-1.631V4.631A1.636,1.636,0,0,0,52.178,3H29.911A1.3,1.3,0,0,0,28.933,3.326Z" transform="translate(-5.721 -3)" fill="none" stroke="#37236a" stroke-miterlimit="10" stroke-width="2"/><circle cx="2" cy="2" r="2" transform="translate(19.96 7)" fill="none" stroke="#37236a" stroke-miterlimit="10" stroke-width="2"/><path d="M40.831,25.05l.163.489a2.429,2.429,0,0,1,.082,1.06,4.03,4.03,0,0,1-4,3.344c-1.957,0-4.078-.9-4.078-3.262H31.369c0,2.365-2.121,3.262-4.078,3.262s-4.078-.9-4.078-3.262H21.582c0,2.365-2.121,3.262-4.078,3.262s-4.078-.9-4.078-3.262H11.795c0,2.365-2.121,3.262-4.078,3.262a4.03,4.03,0,0,1-4-3.344A1.871,1.871,0,0,1,3.8,25.458L6.983,15.344a2.377,2.377,0,0,1,2.365-1.713h6.525V12H9.266a4.113,4.113,0,0,0-3.915,2.855l-3.1,10.2a3.391,3.391,0,0,0-.163,1.794,5.435,5.435,0,0,0,2.365,3.67V52.781H40.341V30.514a5.435,5.435,0,0,0,2.365-3.67,3.391,3.391,0,0,0-.163-1.794Zm-2.121,26.1H6.085V31.33a5.259,5.259,0,0,0,1.631.245,5.737,5.737,0,0,0,4.894-2.2,5.737,5.737,0,0,0,4.894,2.2,5.737,5.737,0,0,0,4.894-2.2,5.737,5.737,0,0,0,4.894,2.2,5.737,5.737,0,0,0,4.894-2.2,5.737,5.737,0,0,0,4.894,2.2,5.259,5.259,0,0,0,1.631-.245Z" transform="translate(-2.04 -4.659)" fill="#37236a"/><path d="M45.894,11.709V8.447a1.636,1.636,0,0,1,1.631,1.631h1.631a3.272,3.272,0,0,0-3.262-3.262V6H44.262v.816a3.262,3.262,0,1,0,0,6.525V16.6a1.636,1.636,0,0,1-1.631-1.631H41a3.272,3.272,0,0,0,3.262,3.262v.816h1.631v-.816a3.262,3.262,0,0,0,0-6.525Zm-3.262-1.631a1.636,1.636,0,0,1,1.631-1.631v3.262A1.636,1.636,0,0,1,42.631,10.078ZM45.894,16.6V13.341a1.631,1.631,0,0,1,0,3.262Z" transform="translate(-9.224 -3.553)" fill="#37236a"/></g></g></g></svg>