<svg xmlns="http://www.w3.org/2000/svg" width="65" height="65" viewBox="0 0 65 65"><g transform="translate(2 267)"><rect width="65" height="65" transform="translate(-2 -267)" fill="#fff" opacity="0"/><g transform="translate(5.964 -255.482)"><path d="M546.535,5142.759v-11.183q-1.3-2.2-2.6-4.387a1.3,1.3,0,0,0-1.119-.631h-5.2a1.255,1.255,0,0,1-.646-2.351l9.565-5.385v-9.972a3.879,3.879,0,0,0-5.817-3.275l-30.124,16.955a3.767,3.767,0,0,0,1.939,7.055h15.6a3.9,3.9,0,0,1,3.358,1.891q3.9,6.586,7.8,13.174A3.9,3.9,0,0,0,546.535,5142.759Z" transform="translate(-508.649 -5105.064)" fill="#fff" stroke="#37236a" stroke-width="1.5"/><path d="M1274.947,5356.839l-10.042,5.652a1.255,1.255,0,0,0,.646,2.351h5.2a1.3,1.3,0,0,1,1.119.629q1.3,2.2,2.6,4.392a1.3,1.3,0,0,0,2.412-.632v-11.3A1.293,1.293,0,0,0,1274.947,5356.839Z" transform="translate(-1226.948 -5344.244)" fill="#fff" stroke="#37236a" stroke-width="1.5"/></g></g></svg>