<svg xmlns="http://www.w3.org/2000/svg" width="13.472" height="13.472" viewBox="0 0 13.472 13.472"><defs><style>.a{fill:#ffaf51;stroke:#ffaf51;stroke-width:0.2px;}</style></defs><g transform="translate(13.372 13.372) rotate(180)"><path class="a" d="M6.636,0a6.636,6.636,0,1,0,6.636,6.636A6.636,6.636,0,0,0,6.636,0Zm0,12.324a5.688,5.688,0,1,1,5.688-5.688,5.688,5.688,0,0,1-5.688,5.688Z"/><path class="a" d="M.237,0h.948V5.214H.237ZM.711,6.636a.711.711,0,1,0,.711.711A.711.711,0,0,0,.711,6.636Z" transform="translate(5.925 2.844)"/></g></svg>