<svg xmlns="http://www.w3.org/2000/svg" width="26" height="25" viewBox="0 0 26 25"><defs><style>.a{fill:#fff;}.b{fill:none;}</style></defs><g transform="translate(0 -0.5)"><path class="a" d="M13.163,2A11.163,11.163,0,1,0,24.326,13.163,11.163,11.163,0,0,0,13.163,2Zm0,20.732a9.568,9.568,0,1,1,9.568-9.568,9.568,9.568,0,0,1-9.568,9.568Z" transform="translate(-0.405 -0.174)"/><rect class="a" width="2" height="9" transform="translate(12 6.5)"/><path class="a" d="M15.7,22a1.2,1.2,0,1,0,1.2,1.2A1.2,1.2,0,0,0,15.7,22Z" transform="translate(-2.938 -4.227)"/><rect class="b" width="26" height="25" transform="translate(0 0.5)"/></g></svg>