<svg id="chrome" xmlns="http://www.w3.org/2000/svg" width="19.992" height="19.999" viewBox="0 0 19.992 19.999">
  <path id="Path_9982" data-name="Path 9982" d="M11.819,6.9a23,23,0,0,1,8.63-.24A10,10,0,0,0,4.27,5.65,21.45,21.45,0,0,0,5.94,9.37a1,1,0,0,0,1.74-.02A5,5,0,0,1,11.819,6.9Z" transform="translate(-2.008 -2)" fill="#fff"/>
  <path id="Path_9983" data-name="Path 9983" d="M7.72,14.721a23.066,23.066,0,0,1-4.63-7.28,10,10,0,0,0,7.44,14.4,22.307,22.307,0,0,0,2.34-3.34,1.009,1.009,0,0,0-.92-1.49A4.975,4.975,0,0,1,7.72,14.721Z" transform="translate(-2.008 -2)" fill="#fff"/>
  <path id="Path_9984" data-name="Path 9984" d="M8.57,12a3.387,3.387,0,0,0,.46,1.72,3.417,3.417,0,0,0,5.92,0A3.421,3.421,0,1,0,8.57,12Z" transform="translate(-2.008 -2)" fill="#fff"/>
  <path id="Path_9985" data-name="Path 9985" d="M21.34,8.419a21.53,21.53,0,0,0-4.14-.47,1.009,1.009,0,0,0-.85,1.54,4.879,4.879,0,0,1,.63,2.4,4.981,4.981,0,0,1-.63,2.41A23.582,23.582,0,0,1,12.16,22,10,10,0,0,0,22,12,9.9,9.9,0,0,0,21.34,8.419Z" transform="translate(-2.008 -2)" fill="#fff"/>
</svg>
