<svg xmlns="http://www.w3.org/2000/svg" width="82" height="54" viewBox="0 0 82 54"><defs><style>.a{fill:#3d2f59;}.b{fill:#f21905;}.c{fill:none;}</style></defs><g transform="translate(19502 14402)"><g transform="translate(-19717.023 -14617.398)"><g transform="translate(224.023 250.931)"><g transform="translate(0)"><path class="a" d="M228.647,1246.76a3.97,3.97,0,0,1,3.213,1.541.412.412,0,0,1-.108.608l-1,.955c-.2.174-.391.065-.543-.065a2.044,2.044,0,0,0-1.5-.695,2.178,2.178,0,0,0-2.127,2.214,2.147,2.147,0,0,0,2.106,2.214,2.249,2.249,0,0,0,1.737-.825.406.406,0,0,1,.543-.065l.933.8c.217.173.3.391.152.608a3.868,3.868,0,0,1-3.43,1.824,4.581,4.581,0,0,1-4.6-4.559A4.642,4.642,0,0,1,228.647,1246.76Z" transform="translate(-224.023 -1240.465)"/><path class="a" d="M493.459,1076.2a.427.427,0,0,1,.412-.412h1.824a.427.427,0,0,1,.412.412v14.371a.427.427,0,0,1-.412.412h-1.824a.427.427,0,0,1-.412-.412Z" transform="translate(-483.538 -1075.784)"/><path class="a" d="M636.135,1253.072a.412.412,0,0,1,.412-.413h1.8a.412.412,0,0,1,.413.413v7.858a.427.427,0,0,1-.413.413h-1.8a.427.427,0,0,1-.412-.413Z" transform="translate(-620.961 -1246.146)"/><path class="a" d="M764.561,1246.76a3.971,3.971,0,0,1,3.213,1.541.412.412,0,0,1-.108.608l-1,.955c-.2.174-.391.065-.543-.065a2.044,2.044,0,0,0-1.5-.695,2.178,2.178,0,0,0-2.127,2.214,2.147,2.147,0,0,0,2.106,2.214,2.249,2.249,0,0,0,1.737-.825.405.405,0,0,1,.543-.065l.934.8c.217.173.3.391.152.608a3.868,3.868,0,0,1-3.43,1.824,4.581,4.581,0,0,1-4.6-4.559A4.642,4.642,0,0,1,764.561,1246.76Z" transform="translate(-740.205 -1240.465)"/><path class="a" d="M1029.373,1076.2a.427.427,0,0,1,.412-.412h1.845a.427.427,0,0,1,.413.412v9.4l3-3.039a.806.806,0,0,1,.543-.26h1.975a.369.369,0,0,1,.282.629l-3.235,3.3,3.864,4.146a.355.355,0,0,1-.282.608h-2.345a.539.539,0,0,1-.369-.174l-3.43-3.907v3.669a.427.427,0,0,1-.413.412h-1.845a.427.427,0,0,1-.412-.412Z" transform="translate(-999.72 -1075.784)"/><path class="a" d="M1301.689,1250.168a5.579,5.579,0,0,1,1.585.239c.022-1.107-.326-1.5-1.129-1.5a10.476,10.476,0,0,0-2.431.326c-.3.087-.456-.108-.5-.391l-.2-1.129a.427.427,0,0,1,.3-.542,11.621,11.621,0,0,1,2.952-.413c2.713,0,3.343,1.411,3.343,3.777v4.711a.427.427,0,0,1-.412.412h-.782c-.152,0-.26-.065-.369-.3l-.26-.586a3.731,3.731,0,0,1-2.648,1.107,2.77,2.77,0,0,1-2.931-2.974C1298.216,1251.362,1299.475,1250.168,1301.689,1250.168Zm.044,3.864a2.005,2.005,0,0,0,1.5-.847v-1.194a3.4,3.4,0,0,0-1.216-.261c-.846,0-1.411.478-1.411,1.172A1.083,1.083,0,0,0,1301.733,1254.032Z" transform="translate(-1258.664 -1240.465)"/><path class="a" d="M1567.067,1247.39a.412.412,0,0,1,.412-.412h.8a.37.37,0,0,1,.369.239l.3.825a3.953,3.953,0,0,1,2.908-1.281,3.421,3.421,0,0,1,2.822,1.346,4.421,4.421,0,0,1,3.061-1.346c2.779,0,3.8,2.063,3.8,4.342v4.146a.412.412,0,0,1-.412.412h-1.758a.412.412,0,0,1-.412-.412v-4.3c0-1.129-.543-1.845-1.628-1.845a2.184,2.184,0,0,0-1.823.912s.021.434.021.825v4.407a.427.427,0,0,1-.412.412h-1.628a.412.412,0,0,1-.412-.412v-4.3c0-1.129-.5-1.845-1.606-1.845a1.916,1.916,0,0,0-1.823,1.368v4.776a.427.427,0,0,1-.413.412h-1.759a.427.427,0,0,1-.412-.412Z" transform="translate(-1517.616 -1240.465)"/><path class="b" d="M626.419,1115.276l-2.586,1.493a.333.333,0,0,0,.166.621h1.34a.332.332,0,0,1,.288.167l.67,1.16a.333.333,0,0,0,.621-.167v-2.986A.333.333,0,0,0,626.419,1115.276Z" transform="translate(-608.951 -1113.778)"/></g></g><g transform="translate(239.633 219.399)"><path class="a" d="M672.877,244.439l-.075-7.422-1.73-2.928a.868.868,0,0,0-.737-.425l-3.4-.034a.841.841,0,0,1-.439-1.565l6.224-3.51-.067-6.618a2.583,2.583,0,0,0-3.829-2.211l-19.6,11.054a2.523,2.523,0,0,0,1.316,4.694l10.212.1a2.6,2.6,0,0,1,2.211,1.276l5.194,8.793A2.524,2.524,0,0,0,672.877,244.439Z" transform="translate(-647.968 -219.399)"/><path class="b" d="M1317.818,446.014l-6.534,3.685a.841.841,0,0,0,.439,1.565l3.4.034a.868.868,0,0,1,.737.425l1.732,2.931a.841.841,0,0,0,1.574-.4l-.076-7.5A.861.861,0,0,0,1317.818,446.014Z" transform="translate(-1286.459 -437.565)"/></g></g><rect class="c" width="82" height="54" transform="translate(-19502 -14402)"/></g></svg>