<svg xmlns="http://www.w3.org/2000/svg" width="141.822" height="36.181" viewBox="0 0 141.822 36.181"><defs><style>.a{fill:#3d2f59;}.b{fill:#f21905;}.c{fill:none;}</style></defs><g transform="translate(19663.734 17264.34)"><g transform="translate(-19617.865 -17258.725)"><g transform="translate(0 0)"><path class="a" d="M1698.094,5444.129a5.96,5.96,0,0,1,4.822,2.314.619.619,0,0,1-.163.913l-1.5,1.433c-.293.261-.587.1-.814-.1a3.066,3.066,0,0,0-2.248-1.043,3.269,3.269,0,0,0-3.193,3.323,3.221,3.221,0,0,0,3.16,3.321,3.371,3.371,0,0,0,2.607-1.238.608.608,0,0,1,.814-.1l1.4,1.206c.326.26.456.588.228.912a5.806,5.806,0,0,1-5.147,2.737,6.875,6.875,0,0,1-6.907-6.842A6.968,6.968,0,0,1,1698.094,5444.129Z" transform="translate(-1691.154 -5434.68)"/><path class="a" d="M2068.891,5205.047a.64.64,0,0,1,.618-.619h2.737a.64.64,0,0,1,.619.619v21.568a.639.639,0,0,1-.619.619h-2.737a.64.64,0,0,1-.618-.619Z" transform="translate(-2054.001 -5204.428)"/><path class="a" d="M2268.915,5453.018a.617.617,0,0,1,.619-.618h2.7a.618.618,0,0,1,.62.618v11.8a.641.641,0,0,1-.62.618h-2.7a.64.64,0,0,1-.619-.618Z" transform="translate(-2246.141 -5442.625)"/><path class="a" d="M2449.419,5444.129a5.958,5.958,0,0,1,4.821,2.314.62.62,0,0,1-.162.913l-1.5,1.433c-.293.261-.586.1-.815-.1a3.066,3.066,0,0,0-2.249-1.043,3.269,3.269,0,0,0-3.193,3.323,3.221,3.221,0,0,0,3.161,3.321,3.37,3.37,0,0,0,2.606-1.238.609.609,0,0,1,.814-.1l1.4,1.206c.325.26.456.588.227.912a5.806,5.806,0,0,1-5.147,2.737,6.875,6.875,0,0,1-6.907-6.842A6.969,6.969,0,0,1,2449.419,5444.129Z" transform="translate(-2412.863 -5434.68)"/><path class="a" d="M2820.217,5205.047a.64.64,0,0,1,.619-.619h2.77a.64.64,0,0,1,.619.619v14.108l4.5-4.562a1.209,1.209,0,0,1,.814-.391h2.964a.554.554,0,0,1,.424.943l-4.855,4.953,5.8,6.223a.533.533,0,0,1-.423.912h-3.52a.8.8,0,0,1-.553-.26l-5.148-5.864v5.506a.64.64,0,0,1-.619.619h-2.77a.64.64,0,0,1-.619-.619Z" transform="translate(-2775.711 -5204.428)"/><path class="a" d="M3202.333,5449.245a8.347,8.347,0,0,1,2.378.359c.034-1.662-.488-2.248-1.693-2.248a15.749,15.749,0,0,0-3.65.487c-.455.132-.683-.162-.749-.586l-.293-1.693a.641.641,0,0,1,.456-.815,17.41,17.41,0,0,1,4.432-.62c4.072,0,5.018,2.118,5.018,5.67v7.07a.641.641,0,0,1-.619.619h-1.173c-.227,0-.391-.1-.554-.457l-.39-.879a5.6,5.6,0,0,1-3.975,1.662,4.157,4.157,0,0,1-4.4-4.464C3197.121,5451.037,3199.011,5449.245,3202.333,5449.245Zm.066,5.8a3.009,3.009,0,0,0,2.247-1.271v-1.792a5.106,5.106,0,0,0-1.824-.391c-1.271,0-2.118.717-2.118,1.759A1.626,1.626,0,0,0,3202.4,5455.045Z" transform="translate(-3137.758 -5434.68)"/><path class="a" d="M3574.037,5445.075a.619.619,0,0,1,.62-.619h1.2a.553.553,0,0,1,.554.358l.456,1.238a5.935,5.935,0,0,1,4.366-1.924,5.136,5.136,0,0,1,4.235,2.021,6.645,6.645,0,0,1,4.595-2.021c4.17,0,5.7,3.1,5.7,6.518v6.223a.619.619,0,0,1-.619.619h-2.639a.619.619,0,0,1-.619-.619v-6.45c0-1.694-.814-2.77-2.443-2.77a3.28,3.28,0,0,0-2.737,1.368s.032.65.032,1.237v6.614a.641.641,0,0,1-.619.619h-2.443a.618.618,0,0,1-.619-.619v-6.45c0-1.694-.749-2.77-2.411-2.77a2.876,2.876,0,0,0-2.736,2.052v7.168a.641.641,0,0,1-.62.619h-2.639a.642.642,0,0,1-.62-.619Z" transform="translate(-3499.817 -5434.68)"/><path class="b" d="M2255.567,5259.8l-3.881,2.241a.5.5,0,0,0,.249.931h2.011a.5.5,0,0,1,.432.25l1.006,1.74a.5.5,0,0,0,.932-.248v-4.483A.5.5,0,0,0,2255.567,5259.8Z" transform="translate(-2229.35 -5257.552)"/></g></g><g transform="translate(-19663.734 -17264.34)"><g transform="translate(0 1.702)"><path class="a" d="M538.894,5135.157v-8.928q-1.037-1.753-2.074-3.5a1.036,1.036,0,0,0-.893-.5h-4.153a1,1,0,0,1-.516-1.876l7.636-4.3v-7.961a3.1,3.1,0,0,0-4.644-2.615L510.2,5119.008a3.007,3.007,0,0,0,1.548,5.632h12.457a3.109,3.109,0,0,1,2.681,1.51q3.115,5.257,6.229,10.517A3.11,3.11,0,0,0,538.894,5135.157Z" transform="translate(-508.649 -5105.064)"/><path class="b" d="M1272.791,5356.8l-8.016,4.512a1,1,0,0,0,.516,1.877h4.153a1.037,1.037,0,0,1,.894.5q1.038,1.754,2.076,3.506a1.036,1.036,0,0,0,1.926-.5v-9.022A1.032,1.032,0,0,0,1272.791,5356.8Z" transform="translate(-1234.472 -5346.75)"/></g><rect class="c" width="141.805" height="36.181" transform="translate(0 0)"/></g></g></svg>