<svg xmlns="http://www.w3.org/2000/svg" width="24" height="24" viewBox="0 0 24 24"><defs><style>.a{fill:rgba(255,175,81,0.3);}.b{fill:#ffaf51;}.c{fill:none;}</style></defs><g transform="translate(-0.184)"><circle class="a" cx="12" cy="12" r="12" transform="translate(0.184)"/><g transform="translate(5.712 5.712)"><path class="b" d="M10.771,9.512a2.092,2.092,0,0,0-1.627.791L6.085,8.391a1.866,1.866,0,0,0,0-1.1L9.143,5.374a2.092,2.092,0,1,0-.464-1.3,2,2,0,0,0,.084.552L5.7,6.537a2.092,2.092,0,1,0,0,2.6l3.058,1.912a2,2,0,0,0-.084.552,2.092,2.092,0,1,0,2.092-2.092Zm0-6.694A1.255,1.255,0,1,1,9.516,4.073a1.255,1.255,0,0,1,1.255-1.255ZM4.077,9.093A1.255,1.255,0,1,1,5.332,7.838,1.255,1.255,0,0,1,4.077,9.093Zm6.694,3.765A1.255,1.255,0,1,1,12.026,11.6a1.255,1.255,0,0,1-1.255,1.255Z" transform="translate(-1.503 -1.499)"/><rect class="c" width="13" height="13" transform="translate(0.472 13.288) rotate(-90)"/></g></g></svg>