<svg xmlns="http://www.w3.org/2000/svg" width="25" height="24" viewBox="0 0 25 24"><defs><style>.a{fill:#ffe5d4;}.b{fill:#ff6f11;}</style></defs><g transform="translate(-26 -545)"><ellipse class="a" cx="12.5" cy="12" rx="12.5" ry="12" transform="translate(26 545)"/><g transform="translate(26.801 544)"><g transform="translate(5.2 7)"><path class="b" d="M18.923,8.657l-.045-.045a.458.458,0,0,0-.331-.151H8.152l-.045-.256A1.427,1.427,0,0,0,6.691,7H5.637a.428.428,0,0,0-.437.437.437.437,0,0,0,.437.437h1.07a.551.551,0,0,1,.542.452l.9,5.438a.284.284,0,0,0,.03.121l.151.934a1.742,1.742,0,0,0,1.7,1.446h6.989a.428.428,0,0,0,.437-.437.437.437,0,0,0-.437-.437h-7a.83.83,0,0,1-.828-.693l-.09-.5h8.134a.33.33,0,0,0,.241-.03.478.478,0,0,0,.226-.286l1.265-4.835A.405.405,0,0,0,18.923,8.657ZM18,9.365l-1.054,3.977H8.966L8.318,9.365Z" transform="translate(-5.2 -7)"/><path class="b" d="M29.776,71.3a1.476,1.476,0,1,0,1.476,1.476A1.479,1.479,0,0,0,29.776,71.3Zm0,.889a.566.566,0,0,1,.572.587.6.6,0,0,1-.587.587.588.588,0,0,1,.015-1.175Z" transform="translate(-24.82 -61.614)"/><path class="b" d="M62.176,71.3a1.484,1.484,0,1,0,1.476,1.491A1.479,1.479,0,0,0,62.176,71.3Zm-.015.889a.579.579,0,0,1,.587.587.587.587,0,0,1-1.175,0A.579.579,0,0,1,62.161,72.189Z" transform="translate(-52.34 -61.614)"/></g></g></g></svg>