<svg xmlns="http://www.w3.org/2000/svg" width="20.444" height="26.185" viewBox="0 0 20.444 26.185"><defs><style>.a{fill:#00a9b3;}</style></defs><g transform="translate(-3.171 -0.721)"><path class="a" d="M17.39,39.725c-.483,0-.969,0-1.451-.008a1.153,1.153,0,0,1-1.2-1.168q-.053-.433-.1-.865c-.108-.909-.219-1.85-.357-2.765A7.187,7.187,0,0,0,12.718,31.6c-.791-1.031-1.673-2.033-2.526-3l-.357-.405a.618.618,0,1,1,.928-.815l.355.4c.867.984,1.763,2,2.58,3.066a8.473,8.473,0,0,1,1.8,3.889c.141.935.253,1.885.362,2.8q.051.431.1.861c0,.033.008.061.013.082.905.01,1.828.008,2.72,0h.38s0-.005,0-.008c.022-.193.045-.385.069-.577.061-.5.123-1.019.159-1.523a10.133,10.133,0,0,1,1.872-5.312c.071-.1.14-.2.21-.3a11.179,11.179,0,0,1,.675-.892c.957-1.106,1.923-2.2,2.87-3.246a4.386,4.386,0,0,0,1.287-2.411c.012-.092.017-.158.018-.206-.046,0-.111-.008-.2-.008H19.667l-7.495,0q-1.636,0-3.272,0l-.081,0c0,.014,0,.029.006.046a.618.618,0,1,1-1.222.178,1.325,1.325,0,0,1,.233-1.067A1.343,1.343,0,0,1,8.9,22.773q1.639-.006,3.276,0h3.893l3.6,0h6.372a1.23,1.23,0,0,1,1.4,1.608,5.709,5.709,0,0,1-1.6,3.08c-.941,1.041-1.9,2.126-2.852,3.226-.21.243-.4.511-.6.8-.072.1-.145.206-.218.308a8.8,8.8,0,0,0-1.641,4.675c-.038.535-.1,1.069-.165,1.585-.023.19-.046.379-.068.569a1.158,1.158,0,0,1-1.2,1.1H18.7Z" transform="translate(-4.406 -12.819)"/><path class="a" d="M14.409,8.289a2.78,2.78,0,1,1,2.78-2.78A2.783,2.783,0,0,1,14.409,8.289Zm0-4.325a1.545,1.545,0,1,0,1.545,1.545A1.547,1.547,0,0,0,14.409,3.964Z" transform="translate(-6.761 -1.167)"/><path class="a" d="M31.659,13.063a2.78,2.78,0,1,1,2.78-2.78A2.783,2.783,0,0,1,31.659,13.063Zm0-4.325A1.545,1.545,0,1,0,33.2,10.283,1.547,1.547,0,0,0,31.659,8.738Z" transform="translate(-16.791 -3.943)"/><path class="a" d="M45.918,6.281A2.78,2.78,0,1,1,48.7,3.5,2.783,2.783,0,0,1,45.918,6.281Zm0-4.324A1.545,1.545,0,1,0,47.463,3.5,1.547,1.547,0,0,0,45.918,1.956Z" transform="translate(-25.081)"/><circle class="a" cx="0.617" cy="0.617" r="0.617" transform="translate(4.03 12.373)"/></g></svg>