<svg xmlns="http://www.w3.org/2000/svg" xmlns:xlink="http://www.w3.org/1999/xlink" width="50" height="50" viewBox="0 0 50 50"><defs><style>.a{fill:#fff;}.b{fill:#b7add1;}.c{filter:url(#a);}</style><filter id="a" x="0" y="0" width="50" height="50" filterUnits="userSpaceOnUse"><feOffset dy="3" input="SourceAlpha"/><feGaussianBlur stdDeviation="3" result="b"/><feFlood flood-opacity="0.063"/><feComposite operator="in" in2="b"/><feComposite in="SourceGraphic"/></filter></defs><g transform="translate(-86 -1195.846)"><g class="c" transform="matrix(1, 0, 0, 1, 86, 1195.85)"><circle class="a" cx="16" cy="16" r="16" transform="translate(9 6)"/></g><g transform="translate(104.692 1210.308)"><path class="b" d="M16.962,9.125l-.773-.773-4.16,4.154V2h-1.1V12.507L6.773,8.352,6,9.125l5.481,5.481Z" transform="translate(-4.904 -2)"/><path class="b" d="M16.058,24v2.192H5.1V24H4v2.192H4a1.1,1.1,0,0,0,1.1,1.1H16.058a1.1,1.1,0,0,0,1.1-1.1h0V24Z" transform="translate(-4 -11.942)"/></g></g></svg>