<svg xmlns="http://www.w3.org/2000/svg" width="83.086" height="21.197" viewBox="0 0 83.086 21.197"><defs><style>.a{fill:#fff;}.b{fill:#f21905;}.c{fill:none;}</style></defs><g transform="translate(26.872 3.29)"><g transform="translate(0 0)"><path class="a" d="M1695.219,5444.13a3.492,3.492,0,0,1,2.825,1.355.363.363,0,0,1-.1.535l-.878.84c-.172.152-.344.057-.477-.057a1.8,1.8,0,0,0-1.317-.611,1.915,1.915,0,0,0-1.871,1.946,1.887,1.887,0,0,0,1.851,1.946,1.976,1.976,0,0,0,1.527-.726.357.357,0,0,1,.477-.057l.821.707c.191.152.267.344.134.535a3.4,3.4,0,0,1-3.016,1.6,4.028,4.028,0,0,1-4.047-4.009A4.082,4.082,0,0,1,1695.219,5444.13Z" transform="translate(-1691.154 -5438.595)"/><path class="a" d="M2068.891,5204.791a.375.375,0,0,1,.362-.362h1.6a.375.375,0,0,1,.362.362v12.636a.375.375,0,0,1-.362.363h-1.6a.375.375,0,0,1-.362-.363Z" transform="translate(-2060.168 -5204.429)"/><path class="a" d="M2268.915,5452.762a.362.362,0,0,1,.362-.362h1.584a.362.362,0,0,1,.363.362v6.91a.375.375,0,0,1-.363.362h-1.584a.375.375,0,0,1-.362-.362Z" transform="translate(-2255.573 -5446.673)"/><path class="a" d="M2446.545,5444.13a3.491,3.491,0,0,1,2.824,1.355.363.363,0,0,1-.095.535l-.878.84c-.172.152-.344.057-.477-.057a1.794,1.794,0,0,0-1.317-.611,1.915,1.915,0,0,0-1.87,1.946,1.887,1.887,0,0,0,1.851,1.946,1.975,1.975,0,0,0,1.527-.726.357.357,0,0,1,.477-.057l.821.707c.19.152.267.344.133.535a3.4,3.4,0,0,1-3.016,1.6,4.028,4.028,0,0,1-4.046-4.009A4.082,4.082,0,0,1,2446.545,5444.13Z" transform="translate(-2425.129 -5438.595)"/><path class="a" d="M2820.217,5204.791a.375.375,0,0,1,.362-.362h1.623a.375.375,0,0,1,.363.362v8.265l2.635-2.672a.709.709,0,0,1,.477-.229h1.737a.325.325,0,0,1,.248.553l-2.844,2.9,3.4,3.646a.312.312,0,0,1-.248.534H2825.9a.471.471,0,0,1-.324-.153l-3.016-3.435v3.225a.375.375,0,0,1-.363.363h-1.623a.375.375,0,0,1-.362-.363Z" transform="translate(-2794.143 -5204.429)"/><path class="a" d="M3200.175,5447.127a4.893,4.893,0,0,1,1.393.21c.02-.974-.286-1.317-.992-1.317a9.223,9.223,0,0,0-2.138.286c-.267.077-.4-.1-.438-.344l-.172-.992a.375.375,0,0,1,.267-.478,10.176,10.176,0,0,1,2.6-.363c2.386,0,2.939,1.241,2.939,3.322v4.142a.375.375,0,0,1-.363.362h-.687c-.133,0-.229-.058-.324-.268l-.229-.515a3.283,3.283,0,0,1-2.329.974,2.435,2.435,0,0,1-2.576-2.615C3197.121,5448.177,3198.228,5447.127,3200.175,5447.127Zm.039,3.4a1.763,1.763,0,0,0,1.316-.745v-1.05a2.993,2.993,0,0,0-1.069-.229c-.744,0-1.241.42-1.241,1.03A.953.953,0,0,0,3200.213,5450.525Z" transform="translate(-3162.344 -5438.595)"/><path class="a" d="M3574.037,5444.684a.363.363,0,0,1,.363-.363h.706a.324.324,0,0,1,.325.21l.268.726a3.474,3.474,0,0,1,2.558-1.127,3.01,3.01,0,0,1,2.481,1.184,3.891,3.891,0,0,1,2.692-1.184c2.442,0,3.34,1.814,3.34,3.818v3.646a.363.363,0,0,1-.363.362h-1.546a.362.362,0,0,1-.363-.362v-3.779c0-.992-.477-1.622-1.431-1.622a1.922,1.922,0,0,0-1.6.8s.019.381.019.725v3.875a.375.375,0,0,1-.363.362h-1.431a.362.362,0,0,1-.362-.362v-3.779c0-.992-.439-1.622-1.413-1.622a1.685,1.685,0,0,0-1.6,1.2v4.2a.375.375,0,0,1-.363.362H3574.4a.376.376,0,0,1-.363-.362Z" transform="translate(-3530.555 -5438.595)"/><path class="b" d="M2253.856,5259.771l-2.274,1.313a.292.292,0,0,0,.146.545h1.178a.292.292,0,0,1,.253.147l.589,1.02a.293.293,0,0,0,.546-.146v-2.627A.293.293,0,0,0,2253.856,5259.771Z" transform="translate(-2238.496 -5258.455)"/></g></g><g transform="translate(0 0)"><g transform="translate(0 0.997)"><path class="a" d="M526.368,5122.694v-5.23l-1.215-2.051a.606.606,0,0,0-.523-.3H522.2a.587.587,0,0,1-.3-1.1l4.474-2.518v-4.664a1.814,1.814,0,0,0-2.721-1.532l-14.089,7.93a1.762,1.762,0,0,0,.907,3.3h7.3a1.821,1.821,0,0,1,1.571.884l3.649,6.162A1.822,1.822,0,0,0,526.368,5122.694Z" transform="translate(-508.649 -5105.065)"/><path class="b" d="M1269.256,5356.749l-4.7,2.643a.587.587,0,0,0,.3,1.1h2.433a.608.608,0,0,1,.524.294l1.216,2.054a.607.607,0,0,0,1.128-.3v-5.286A.6.6,0,0,0,1269.256,5356.749Z" transform="translate(-1246.807 -5350.858)"/></g><rect class="c" width="83.076" height="21.197" transform="translate(0 0)"/></g></svg>