<svg xmlns="http://www.w3.org/2000/svg" width="36" height="36" viewBox="0 0 36 36"><defs><style>.a{fill:#ebebeb;}.b{fill:#3b5998;}</style></defs><g transform="translate(-144 -3793)"><rect class="a" width="36" height="36" rx="10" transform="translate(144 3793)"/><path class="b" d="M16.5,6h-3a1,1,0,0,0-1,1v3h4a.35.35,0,0,1,.34.46l-.74,2.2a.5.5,0,0,1-.47.34H12.5v7.5a.5.5,0,0,1-.5.5H9.5a.5.5,0,0,1-.5-.5V13H7.5a.5.5,0,0,1-.5-.5v-2a.5.5,0,0,1,.5-.5H9V7a4,4,0,0,1,4-4h3.5a.5.5,0,0,1,.5.5v2A.5.5,0,0,1,16.5,6Z" transform="translate(150 3799)"/></g></svg>