<svg xmlns="http://www.w3.org/2000/svg" width="74.693" height="43.469" viewBox="0 0 74.693 43.469"><defs><style>.a{fill:#ffe400;}.b{fill:#17100d;}.c{fill:#d81a0f;}.d{fill:#fff;}</style></defs><g transform="translate(-83.006 -27.992)"><path class="a" d="M222.35,49.727a21.735,21.735,0,1,0-21.734,21.735A21.733,21.733,0,0,0,222.35,49.727" transform="translate(-64.652 0)"/><path class="b" d="M197.51,83.925a4.878,4.878,0,0,0-.778-1.673,3.971,3.971,0,0,0-1.387-1.18,4.25,4.25,0,0,0-1.978-.439,4.642,4.642,0,0,0-1.837.357,4.3,4.3,0,0,0-2.358,2.476,5.118,5.118,0,0,0-.323,1.837,5.261,5.261,0,0,0,.317,1.869,4.221,4.221,0,0,0,.9,1.478,3.922,3.922,0,0,0,1.429.957,5.028,5.028,0,0,0,1.874.335,4.625,4.625,0,0,0,2.564-.688,3.343,3.343,0,0,0,.943-.926,5.06,5.06,0,0,0,.648-1.354l.058-.182s.033-.081-.063-.081h-2.276c-.117,0-.129.067-.129.067l-.02.076a.857.857,0,0,1-.174.308,1.67,1.67,0,0,1-.368.321,1.877,1.877,0,0,1-1.1.313,2.492,2.492,0,0,1-.8-.116,1.412,1.412,0,0,1-.558-.331,1.437,1.437,0,0,1-.357-.587,2.925,2.925,0,0,1-.143-.7h5.987c.094,0,.1-.109.1-.109l.007-.081c.01-.146.015-.295.015-.445a6.052,6.052,0,0,0-.183-1.5m-5.564-.56a1.586,1.586,0,0,1,.525-.413,1.828,1.828,0,0,1,.832-.164,2.029,2.029,0,0,1,.674.1,1.106,1.106,0,0,1,.445.291,2.3,2.3,0,0,1,.479,1h-3.3a2.735,2.735,0,0,1,.069-.3,1.52,1.52,0,0,1,.275-.516" transform="translate(-71.373 -35.498)"/><path class="b" d="M222.311,90.078,219.1,85.449l2.9-4.133s.037-.049-.064-.049H219a.122.122,0,0,0-.118.053l-1.319,1.975-1.326-1.969a.183.183,0,0,0-.142-.06h-3.016c-.088,0-.041.059-.041.059l.2.291,2.7,3.884-3.138,4.589s-.058.086.045.086h2.944a.185.185,0,0,0,.165-.1l1.583-2.385,1.578,2.383a.221.221,0,0,0,.167.1h2.987c.114,0,.048-.1.048-.1" transform="translate(-87.51 -35.924)"/><path class="b" d="M246.228,81.247h-3.39c-.119,0-.1.081-.1.081l.491,8.724s.006.109.1.109h2.4c.1,0,.1-.113.1-.113l.488-8.7s0-.1-.086-.1" transform="translate(-107.711 -35.912)"/><path class="b" d="M261.278,78a.1.1,0,0,0,.092-.107v-1.8a.083.083,0,0,0-.094-.087h-1.606V73.56a.1.1,0,0,0-.1-.1H256.99a.086.086,0,0,0-.091.1V76h-1.305c-.118,0-.1.075-.1.075V77.9a.085.085,0,0,0,.089.1H256.9v4.768a2.381,2.381,0,0,0,.238,1.137,1.747,1.747,0,0,0,.665.693,2.593,2.593,0,0,0,.93.314,7.192,7.192,0,0,0,1.056.075c.235,0,.469,0,.714-.014a5.977,5.977,0,0,0,.681-.069l.1-.013s.085,0,.085-.113V82.7c0-.111-.092-.076-.092-.076l-.174.038c-.1.021-.209.035-.32.046s-.235.015-.359.015a2.067,2.067,0,0,1-.435-.042.4.4,0,0,1-.188-.089.39.39,0,0,1-.091-.189,1.735,1.735,0,0,1-.042-.438V78Z" transform="translate(-116.311 -30.661)"/><path class="b" d="M283.013,83.393a4.055,4.055,0,0,0-2.38-2.427,5.118,5.118,0,0,0-1.882-.333,5.043,5.043,0,0,0-1.874.333,4.064,4.064,0,0,0-2.373,2.427,5.735,5.735,0,0,0,0,3.814,4.056,4.056,0,0,0,2.373,2.411,5.591,5.591,0,0,0,3.753,0,4.036,4.036,0,0,0,1.454-.941,4.108,4.108,0,0,0,.928-1.469,5.757,5.757,0,0,0,0-3.814m-3.386,4.172a1.74,1.74,0,0,1-.876.2,1.69,1.69,0,0,1-.867-.2,1.566,1.566,0,0,1-.551-.534,2.413,2.413,0,0,1-.305-.792,4.812,4.812,0,0,1-.092-.939,4.993,4.993,0,0,1,.092-.952,2.286,2.286,0,0,1,.305-.787,1.687,1.687,0,0,1,.555-.539,1.654,1.654,0,0,1,.863-.2,1.717,1.717,0,0,1,.873.2,1.629,1.629,0,0,1,.558.539,2.261,2.261,0,0,1,.3.787,4.725,4.725,0,0,1,.095.952,4.554,4.554,0,0,1-.095.939,2.385,2.385,0,0,1-.3.792,1.549,1.549,0,0,1-.555.532" transform="translate(-128.914 -35.498)"/><path class="c" d="M246.454,111.7a1.661,1.661,0,1,0-1.662,1.659,1.663,1.663,0,0,0,1.662-1.659" transform="translate(-107.978 -55.324)"/><path class="b" d="M201,73.515l-1.3,1.634s-.078.094.024.094h1.539a.283.283,0,0,0,.191-.065l2.188-1.663s.077-.067-.026-.067h-2.454a.186.186,0,0,0-.16.067" transform="translate(-78.672 -30.653)"/><path class="b" d="M304.178,82.439a1.1,1.1,0,0,1-1.551,0,1.074,1.074,0,0,1-.321-.781,1.1,1.1,0,1,1,1.872.781m-1.445-1.448a.913.913,0,0,0-.274.669.924.924,0,0,0,.272.672.911.911,0,0,0,.672.276.9.9,0,0,0,.667-.276.919.919,0,0,0,.274-.672.946.946,0,0,0-.941-.949.916.916,0,0,0-.67.28m.649.061a.914.914,0,0,1,.329.045.3.3,0,0,1,.186.3.258.258,0,0,1-.118.238.447.447,0,0,1-.172.06.284.284,0,0,1,.2.118.334.334,0,0,1,.067.188v.088c0,.027,0,.057,0,.087a.181.181,0,0,0,.013.063l.007.017h-.2a.054.054,0,0,0,0-.011c0-.005,0-.01,0-.014l0-.04V82.1a.292.292,0,0,0-.114-.275.5.5,0,0,0-.237-.039h-.167v.474h-.214V81.051Zm.23.19a.545.545,0,0,0-.257-.045h-.183v.436h.193a.6.6,0,0,0,.2-.026.188.188,0,0,0,.127-.189.181.181,0,0,0-.081-.177" transform="translate(-147.881 -35.45)"/><path class="d" d="M87.013,93.182a2.2,2.2,0,0,0,.684-.606,2.555,2.555,0,0,0,.412-.859,3.646,3.646,0,0,0,.138-1,4.172,4.172,0,0,0-.118-1,2.906,2.906,0,0,0-.38-.909,2.072,2.072,0,0,0-.679-.655,1.888,1.888,0,0,0-1-.249,1.964,1.964,0,0,0-1.011.243,2.16,2.16,0,0,0-.7.637,2.7,2.7,0,0,0-.4.9,4.4,4.4,0,0,0-.119,1.031,3.641,3.641,0,0,0,.129,1,2.518,2.518,0,0,0,.4.859,2.1,2.1,0,0,0,.7.606,2.07,2.07,0,0,0,1,.23,1.94,1.94,0,0,0,.944-.23m1.9,1.806a2.618,2.618,0,0,1-.52,1.026,2.25,2.25,0,0,1-.923.642,3.881,3.881,0,0,1-1.4.226,4.09,4.09,0,0,1-1-.121,2.7,2.7,0,0,1-.873-.368,2.017,2.017,0,0,1-.645-.637,1.9,1.9,0,0,1-.3-.924h.829a1.426,1.426,0,0,0,.257.637,1.463,1.463,0,0,0,.454.409,2,2,0,0,0,.6.232,2.969,2.969,0,0,0,.672.076,1.985,1.985,0,0,0,1.668-.66,3.028,3.028,0,0,0,.51-1.893v-.917h-.033a2.368,2.368,0,0,1-.838,1.01,2.259,2.259,0,0,1-1.307.381,3.329,3.329,0,0,1-1.395-.265,2.626,2.626,0,0,1-.955-.744,2.988,2.988,0,0,1-.539-1.113,5.21,5.21,0,0,1-.174-1.359,4.261,4.261,0,0,1,.2-1.321,3.407,3.407,0,0,1,.589-1.087,2.786,2.786,0,0,1,.962-.736,3.078,3.078,0,0,1,1.308-.266,2.2,2.2,0,0,1,.713.1,2.325,2.325,0,0,1,.614.3,2.755,2.755,0,0,1,.49.44,1.911,1.911,0,0,1,.329.526h.033V87.412h.826v6.222a5.146,5.146,0,0,1-.163,1.354" transform="translate(0 -39.936)"/><path class="d" d="M104.583,87.621v1.587h.027a2.6,2.6,0,0,1,.98-1.272,2.552,2.552,0,0,1,1.58-.407v.829a2.377,2.377,0,0,0-1.821.653,2.377,2.377,0,0,0-.517.785,2.607,2.607,0,0,0-.18.993V94.4h-.833V87.621Z" transform="translate(-14.034 -40.146)"/><path class="d" d="M120.135,94.6v-1.22h-.029a2.319,2.319,0,0,1-.948,1.042,2.725,2.725,0,0,1-1.387.361,3.032,3.032,0,0,1-1.1-.179,1.766,1.766,0,0,1-.733-.5,2.028,2.028,0,0,1-.411-.8,3.931,3.931,0,0,1-.138-1.077v-4.4h.834v4.41a2.159,2.159,0,0,0,.423,1.393,1.737,1.737,0,0,0,1.387.473,1.77,1.77,0,0,0,.918-.226,1.972,1.972,0,0,0,.631-.613,2.764,2.764,0,0,0,.366-.875,4.082,4.082,0,0,0,.115-1.008V87.819h.835V94.6Z" transform="translate(-21.838 -40.343)"/><path class="d" d="M139.819,89.754a2.93,2.93,0,0,0-.394-.927,2.1,2.1,0,0,0-.695-.658,1.89,1.89,0,0,0-1.006-.258,2.449,2.449,0,0,0-1.142.238,2.012,2.012,0,0,0-.742.626,2.691,2.691,0,0,0-.382.919,5.288,5.288,0,0,0-.11,1.107,4.329,4.329,0,0,0,.125,1.042,2.7,2.7,0,0,0,.406.925,2.132,2.132,0,0,0,.737.662,2.18,2.18,0,0,0,1.109.258,1.867,1.867,0,0,0,1.006-.258,2.1,2.1,0,0,0,.695-.662,2.892,2.892,0,0,0,.394-.925,4.467,4.467,0,0,0,0-2.088m-4.538-2.342V88.7h.027a2.189,2.189,0,0,1,.936-1.1,2.845,2.845,0,0,1,1.481-.386,2.985,2.985,0,0,1,1.349.285,2.866,2.866,0,0,1,.949.785,3.314,3.314,0,0,1,.565,1.141,5.219,5.219,0,0,1,0,2.745,3.318,3.318,0,0,1-.565,1.145,2.826,2.826,0,0,1-.949.774,3.055,3.055,0,0,1-1.349.28,3.211,3.211,0,0,1-.737-.09A2.509,2.509,0,0,1,136.3,94a2.294,2.294,0,0,1-.559-.459,2.015,2.015,0,0,1-.37-.643h-.025v3.785h-.83V87.412Z" transform="translate(-34.736 -39.936)"/><path class="d" d="M160.142,87.5a3.031,3.031,0,0,1,1.011.778,3.329,3.329,0,0,1,.613,1.135,4.676,4.676,0,0,1,0,2.771,3.313,3.313,0,0,1-.613,1.135,3.018,3.018,0,0,1-1.011.77,3.49,3.49,0,0,1-2.74,0,2.938,2.938,0,0,1-1.008-.77,3.323,3.323,0,0,1-.618-1.135,4.683,4.683,0,0,1,0-2.771,3.339,3.339,0,0,1,.618-1.135A2.95,2.95,0,0,1,157.4,87.5a3.435,3.435,0,0,1,2.74,0m-2.406.659a2.281,2.281,0,0,0-.744.653,3.127,3.127,0,0,0-.449.93,3.849,3.849,0,0,0,0,2.115,3.084,3.084,0,0,0,.449.925,2.242,2.242,0,0,0,.744.658,2.3,2.3,0,0,0,2.073,0,2.27,2.27,0,0,0,.743-.658,2.965,2.965,0,0,0,.445-.925,3.67,3.67,0,0,0,0-2.115,3.006,3.006,0,0,0-.445-.93,2.31,2.31,0,0,0-.743-.653,2.278,2.278,0,0,0-2.073,0" transform="translate(-48.93 -39.937)"/></g></svg>