<svg xmlns="http://www.w3.org/2000/svg" width="28.307" height="30.578" viewBox="0 0 28.307 30.578"><defs><style>.a{fill:#00a9b3;fill-rule:evenodd;}</style></defs><g transform="translate(0 -0.422)"><g transform="translate(0 0.422)"><g transform="translate(0 0)"><g transform="translate(0 0)"><g transform="translate(0 0)"><path class="a" d="M7.372,5.059,9.542,3.993,21.675,9.928,19.5,10.992Zm15.7,4.187-.011-.006L10.919,3.3l3.235-1.582L26.3,7.664ZM20.132,16.3V12.048l2.057-1.005V15.3ZM14.76,14.676l2.927-1.432a.619.619,0,0,0,.282-.821.606.606,0,0,0-.346-.313.6.6,0,0,0-.464.027l-3.006,1.47-1.139-.557a.6.6,0,0,0-.81.287.619.619,0,0,0,.282.82l1.059.518V29.405L1.213,23.372V8.643l9.407,4.6a.613.613,0,0,0,.527-1.108L2,7.664,5.954,5.731l12.965,6.343v5.211a.612.612,0,0,0,.284.52.606.606,0,0,0,.586.033l3.27-1.6a.617.617,0,0,0,.343-.553V10.448l3.692-1.805V23.372L14.76,29.405Zm13.2-7.566h0L14.417.483a.6.6,0,0,0-.528,0L.343,7.11A.617.617,0,0,0,0,7.664V23.758a.62.62,0,0,0,.342.554l13.546,6.627a.6.6,0,0,0,.528,0l13.547-6.627a.619.619,0,0,0,.342-.554V7.664a.617.617,0,0,0-.343-.553Z" transform="translate(0 -0.422)"/></g><path class="a" d="M4.906,26.146,2.885,25.068a.592.592,0,0,0-.823.318.745.745,0,0,0-.028.521.66.66,0,0,0,.314.389l2.021,1.077a.558.558,0,0,0,.268.069.618.618,0,0,0,.556-.385.716.716,0,0,0-.287-.909" transform="translate(-0.373 -5)"/><path class="a" d="M6.549,24.027l-3.7-1.962a.535.535,0,0,0-.45-.028.608.608,0,0,0-.336.329.676.676,0,0,0,.275.862l3.7,1.962a.551.551,0,0,0,.255.064.591.591,0,0,0,.531-.366.676.676,0,0,0-.275-.862" transform="translate(-0.373 -4.441)"/></g></g></g></g></svg>