<svg xmlns="http://www.w3.org/2000/svg" width="29.235" height="34.032" viewBox="0 0 29.235 34.032"><path d="M192.024,219.29h-1.946a1.281,1.281,0,0,1,0-2.561H193.5a.849.849,0,1,0,0-1.7H191.9v-1.182a.849.849,0,1,0-1.7,0v1.182h-.12a2.979,2.979,0,1,0,0,5.957h1.946a1.281,1.281,0,1,1,0,2.561h-3.488a.849.849,0,1,0,0,1.7h1.67v1.21a.849.849,0,1,0,1.7,0v-1.21h.163a2.979,2.979,0,0,0-.042-5.957Z" transform="translate(-176.261 -197.93)" fill="#fff"/><path d="M61.451,19.436a24.337,24.337,0,0,0-3.679-5.9A27.41,27.41,0,0,0,53.06,9.056l3.608-6.693a.838.838,0,0,0-.156-1A4.23,4.23,0,0,0,53.484,0a7.121,7.121,0,0,0-2.745.722,5.2,5.2,0,0,1-1.726.516,1.075,1.075,0,0,1-.4-.071,12.573,12.573,0,0,0-4.231-1,5.735,5.735,0,0,0-4.259,2,.854.854,0,0,0-.1,1.061l3.891,5.88a27.869,27.869,0,0,0-4.648,4.429,24.557,24.557,0,0,0-3.679,5.9A20.065,20.065,0,0,0,33.9,27.445a6.6,6.6,0,0,0,6.587,6.587H56.548a6.6,6.6,0,0,0,6.587-6.587A20.065,20.065,0,0,0,61.451,19.436ZM41.831,2.873a3.7,3.7,0,0,1,2.547-1.019,11.024,11.024,0,0,1,3.644.9,2.875,2.875,0,0,0,.983.17,6.267,6.267,0,0,0,2.377-.644,5.738,5.738,0,0,1,2.094-.594,2.246,2.246,0,0,1,1.366.467l-3.4,6.311H45.532ZM56.548,32.334H40.487A4.895,4.895,0,0,1,35.6,27.445,19.784,19.784,0,0,1,40.53,14.66a25.972,25.972,0,0,1,4.8-4.5h6.354a25.483,25.483,0,0,1,4.8,4.5,19.732,19.732,0,0,1,4.931,12.785A4.874,4.874,0,0,1,56.548,32.334Z" transform="translate(-33.9)" fill="#fff"/></svg>