<svg xmlns="http://www.w3.org/2000/svg" width="52" height="52" viewBox="0 0 52 52"><defs><style>.a{fill:#61b751;}.b,.c{fill:#fff;}.b{stroke:#fff;opacity:0;}.d{stroke:none;}.e{fill:none;}</style></defs><circle class="a" cx="26" cy="26" r="26"/><g transform="translate(11 11)"><g class="b"><rect class="d" width="30" height="30"/><rect class="e" x="0.5" y="0.5" width="29" height="29"/></g><g transform="translate(-914.548 -369.679)"><path class="c" d="M933.22,379.321l1.464-2.4a1.692,1.692,0,0,0-1.409-2.63h-7.447a1.693,1.693,0,0,0-1.418,2.615l1.467,2.418c-5.916,3.946-6.753,8.764-6.717,11.316l0,.12a4.537,4.537,0,0,0,4.508,4.315c.066,0,.134,0,.2,0h11.339a4.552,4.552,0,0,0,4.728-4.31v-.119C939.959,388.078,939.1,383.25,933.22,379.321Zm2.184,13.808H923.661a2.5,2.5,0,0,1-2.634-2.275v-.14c-.033-2.15.683-6.275,5.849-9.756a2.211,2.211,0,0,1,1.232-.383h2.872a2.194,2.194,0,0,1,1.237.386c5.153,3.475,5.876,7.613,5.848,9.776v.1A2.519,2.519,0,0,1,935.4,393.129Zm-4.07-14.347-3.507.043-1.556-2.542h6.551Z"/><path class="c" d="M930.158,386.416l-.8-.181c-.175-.039-.384-.11-.384-.228,0-.232.388-.238.439-.238a.984.984,0,0,1,.717.349,1.1,1.1,0,0,0,.886.424.83.83,0,0,0,.792-.873,1.455,1.455,0,0,0-.5-.971,2.609,2.609,0,0,0-1.053-.551l0-.041a.752.752,0,0,0-.271-.512.669.669,0,0,0-.475-.171l-.1,0-.039,0a.751.751,0,0,0-.68.676,2.057,2.057,0,0,0-1.656,1.979,1.906,1.906,0,0,0,1.7,1.9l.791.182c.469.111.469.213.469.246,0,.184-.175.277-.519.277h0a1.141,1.141,0,0,1-.878-.422.989.989,0,0,0-.849-.374.844.844,0,0,0-.794.9,1.369,1.369,0,0,0,.537.992,2.756,2.756,0,0,0,1.178.556.784.784,0,0,0,1.558.017,2.137,2.137,0,0,0,1.713-2.041C931.938,387.623,931.629,386.737,930.158,386.416Z"/></g></g></svg>