<svg xmlns="http://www.w3.org/2000/svg" width="18.825" height="16.936" viewBox="0 0 18.825 16.936"><defs><style>.a,.b{fill:#00a9b3;stroke:#00a9b3;stroke-width:0.5px;}.a{fill-rule:evenodd;}</style></defs><g transform="translate(-2.997 -3.484)"><path class="a" d="M16.179,3.874a.476.476,0,0,0-.673,0L4.738,14.642a.476.476,0,0,0-.121.206L3.27,19.559a.476.476,0,0,0,.588.588L8.57,18.8a.476.476,0,0,0,.206-.121L19.544,7.912a.476.476,0,0,0,0-.673Zm-9.422,10.1,9.086-9.086,2.692,2.692L9.449,16.661Zm-.673.673,2.692,2.692-.586.586L4.421,19,5.5,15.228Z"/><path class="b" d="M9.476,20a.476.476,0,0,0,0,.952h11.9a.476.476,0,1,0,0-.952Z" transform="translate(-0.277 -0.784)"/></g></svg>