<svg xmlns="http://www.w3.org/2000/svg" width="18" height="18" viewBox="0 0 18 18"><defs><style>.a{fill:none;}.b{fill:#fff;}</style></defs><rect class="a" width="18" height="18"/><path class="b" d="M14.75,8a6.75,6.75,0,1,0,6.75,6.75A6.751,6.751,0,0,0,14.75,8Zm0,2.994a1.143,1.143,0,1,1-1.143,1.143A1.143,1.143,0,0,1,14.75,10.994Zm1.524,6.913a.327.327,0,0,1-.327.327h-2.4a.327.327,0,0,1-.327-.327v-.653a.327.327,0,0,1,.327-.327h.327V15.185h-.327a.327.327,0,0,1-.327-.327v-.653a.327.327,0,0,1,.327-.327h1.742a.327.327,0,0,1,.327.327v2.722h.327a.327.327,0,0,1,.327.327Z" transform="translate(-5.75 -5.75)"/></svg>