<svg xmlns="http://www.w3.org/2000/svg" width="52" height="52" viewBox="0 0 52 52"><defs><style>.a{fill:#735cf2;}.b,.c{fill:#fff;}.b{stroke:#fff;opacity:0;}.d{stroke:none;}.e{fill:none;}</style></defs><circle class="a" cx="26" cy="26" r="26"/><g transform="translate(11 11)"><g class="b"><rect class="d" width="30" height="30"/><rect class="e" x="0.5" y="0.5" width="29" height="29"/></g><g transform="translate(-943.244 -378.745)"><path class="c" d="M948.522,399.279h.91c.42,0,.725-.457.725-1.087V391.6c0-.63-.3-1.088-.725-1.088h-.91c-.419,0-.724.458-.724,1.088v6.594C947.8,398.822,948.1,399.279,948.522,399.279Z"/><path class="c" d="M953.2,399.279h.914c.421,0,.728-.457.728-1.087V386.648c0-.629-.307-1.087-.728-1.087H953.2c-.421,0-.727.458-.727,1.087v11.544C952.469,398.822,952.775,399.279,953.2,399.279Z"/><path class="c" d="M957.833,399.278h.82c.409,0,.7-.447.7-1.087v-5.77c0-.64-.286-1.087-.7-1.087h-.82c-.414,0-.693.437-.693,1.087v5.77C957.14,398.841,957.419,399.278,957.833,399.278Z"/><path class="c" d="M962.54,399.278h.922c.423,0,.729-.457.729-1.087V388.85c0-.63-.306-1.088-.729-1.088h-.922c-.423,0-.729.458-.729,1.088v9.341C961.811,398.821,962.117,399.278,962.54,399.278Z"/><path class="c" d="M967.208,399.279h.91c.42,0,.725-.457.725-1.087V386.927c0-.641-.3-1.088-.725-1.088h-.91c-.427,0-.726.447-.726,1.088v11.265C966.482,398.822,966.788,399.279,967.208,399.279Z"/><path class="c" d="M969.1,400.3H947.388a.813.813,0,0,0,0,1.625H969.1a.814.814,0,0,0,.809-.816A.815.815,0,0,0,969.1,400.3Z"/></g></g></svg>