<svg xmlns="http://www.w3.org/2000/svg" width="52" height="52" viewBox="0 0 52 52"><defs><style>.a{fill:#ffaf51;}.b,.c{fill:#fff;}.b{stroke:#fff;opacity:0;}.d{stroke:none;}.e{fill:none;}</style></defs><circle class="a" cx="26" cy="26" r="26"/><g transform="translate(11 11)"><g class="b"><rect class="d" width="30" height="30"/><rect class="e" x="0.5" y="0.5" width="29" height="29"/></g><g transform="translate(3.092 3.945)"><path class="c" d="M22.707,20.747A10.664,10.664,0,0,0,13.941,4a10.84,10.84,0,0,0-1.141.063,10.672,10.672,0,1,0,.052,21.212v.014a10.852,10.852,0,0,0,1.089.055,10.665,10.665,0,0,0,8.75-4.574h.016Zm.21-10.269H21.469a10.646,10.646,0,0,0-.808-1.525h1.369a9.9,9.9,0,0,1,.888,1.525Zm.321.762a9.814,9.814,0,0,1,.427,1.525H22.152a10.587,10.587,0,0,0-.395-1.525Zm.613,3.43c0,.128,0,.255-.01.381H22.316c0-.127.01-.253.01-.381a10.69,10.69,0,0,0-.062-1.143h1.519A10.026,10.026,0,0,1,23.851,14.671Zm-1.587,1.143h1.519a9.843,9.843,0,0,1-.414,1.906H21.88a10.579,10.579,0,0,0,.384-1.906Zm-.644,2.668h1.469a9.876,9.876,0,0,1-.8,1.525h-1.4A10.607,10.607,0,0,0,21.62,18.482ZM21.429,8.192h-1.3a10.734,10.734,0,0,0-1.013-1.143h1.153a9.995,9.995,0,0,1,1.164,1.143ZM19.212,6.286h-.969A10.688,10.688,0,0,0,16.228,5.03a9.841,9.841,0,0,1,2.985,1.255ZM1.745,14.671a9.91,9.91,0,1,1,9.91,9.91,9.91,9.91,0,0,1-9.91-9.91Zm16.5,8.385h.969a9.841,9.841,0,0,1-2.985,1.255A10.688,10.688,0,0,0,18.244,23.056Zm2.02-.762H19.113A10.733,10.733,0,0,0,20.4,20.769h1.339a9.986,9.986,0,0,1-1.478,1.525Z" transform="translate(-0.972 -3.999)"/><path class="c" d="M15.385,10a8.385,8.385,0,1,0,8.385,8.385A8.385,8.385,0,0,0,15.385,10Zm0,16.008a7.623,7.623,0,1,1,7.623-7.623A7.623,7.623,0,0,1,15.385,26.008Z" transform="translate(-4.702 -7.713)"/><path class="c" d="M24.668,17.906a1.908,1.908,0,0,1,1.906,1.906.381.381,0,0,0,.762,0,2.67,2.67,0,0,0-2.287-2.637v-.793a.381.381,0,1,0-.762,0v.793A2.67,2.67,0,0,0,22,19.811v.381a2.091,2.091,0,0,0,1.29,1.935l2.463,1.026a1.331,1.331,0,0,1,.821,1.231,1.906,1.906,0,0,1-3.811,0,.381.381,0,0,0-.762,0,2.67,2.67,0,0,0,2.287,2.637v.793a.381.381,0,0,0,.762,0v-.793a2.67,2.67,0,0,0,2.287-2.637,2.091,2.091,0,0,0-1.29-1.935l-2.463-1.026a1.331,1.331,0,0,1-.821-1.231v-.381A1.908,1.908,0,0,1,24.668,17.906Z" transform="translate(-13.985 -11.426)"/><path class="c" d="M13.143,29h-.762a.381.381,0,1,0,0,.762h.762a.381.381,0,1,0,0-.762Z" transform="translate(-7.797 -19.471)"/><path class="c" d="M13.143,33h-.762a.381.381,0,0,0,0,.762h.762a.381.381,0,0,0,0-.762Z" transform="translate(-7.797 -21.947)"/><path class="c" d="M42.381,29.762h.762a.381.381,0,1,0,0-.762h-.762a.381.381,0,0,0,0,.762Z" transform="translate(-26.363 -19.471)"/><path class="c" d="M43.143,33h-.762a.381.381,0,0,0,0,.762h.762a.381.381,0,0,0,0-.762Z" transform="translate(-26.363 -21.947)"/></g></g></svg>