<svg xmlns="http://www.w3.org/2000/svg" width="52" height="52" viewBox="0 0 52 52"><defs><style>.a{fill:#735cf2;}.b,.c{fill:#fff;}.b{stroke:#fff;opacity:0;}.d{stroke:none;}.e{fill:none;}</style></defs><circle class="a" cx="26" cy="26" r="26"/><g transform="translate(11 11)"><g class="b"><rect class="d" width="30" height="30"/><rect class="e" x="0.5" y="0.5" width="29" height="29"/></g><g transform="translate(3.985 5)"><path class="c" d="M10.687,51.256a.688.688,0,0,0-.687.687v6.595a.688.688,0,0,0,.687.687H12.61a.688.688,0,0,0,.687-.687V51.943a.688.688,0,0,0-.687-.687ZM12.473,58.4H10.824V52.08h1.649Z" transform="translate(-9.725 -40.948)"/><path class="c" d="M27.687,33.244a.688.688,0,0,0-.687.687V45.475a.688.688,0,0,0,.687.687H29.61a.688.688,0,0,0,.687-.687V33.931a.688.688,0,0,0-.687-.687Zm1.786,12.094H27.824V34.068h1.649Z" transform="translate(-22.054 -27.885)"/><path class="c" d="M44.687,54.256a.688.688,0,0,0-.687.687v5.77a.688.688,0,0,0,.687.687H46.61a.688.688,0,0,0,.687-.687v-5.77a.688.688,0,0,0-.687-.687Zm1.786,6.32H44.824v-5.5h1.649Z" transform="translate(-34.383 -43.124)"/><path class="c" d="M61.687,41.256a.688.688,0,0,0-.687.687v9.342a.688.688,0,0,0,.687.687H63.61a.688.688,0,0,0,.687-.687V41.943a.688.688,0,0,0-.687-.687Zm1.786,9.892H61.824V42.08h1.649Z" transform="translate(-46.712 -33.696)"/><path class="c" d="M78.687,34.256a.688.688,0,0,0-.687.687V46.209a.688.688,0,0,0,.687.687H80.61a.688.688,0,0,0,.687-.687V34.943a.688.688,0,0,0-.687-.687Zm1.786,11.815H78.824V35.08h1.649Z" transform="translate(-59.04 -28.619)"/><path class="c" d="M31.12,83.256H9.412a.412.412,0,0,0,0,.824H31.12a.412.412,0,0,0,0-.824Z" transform="translate(-9 -64.155)"/><path class="c" d="M11.3,22.264A1.785,1.785,0,0,0,12.786,19.5l2.291-2.42a1.776,1.776,0,0,0,1.8-.012l2.39,3.1a1.788,1.788,0,1,0,3.053.543l1.9-1.562A1.784,1.784,0,0,0,27.1,17.73a1.848,1.848,0,0,0-.02-.257l1.444-.642a1.785,1.785,0,1,0-.324-1.025,1.848,1.848,0,0,0,.02.257l-1.444.642A1.784,1.784,0,0,0,23.7,18.5l-1.833,1.509a1.781,1.781,0,0,0-1.941-.343l-2.454-3.177a1.786,1.786,0,1,0-3,.024L12.185,18.93a1.786,1.786,0,1,0-.889,3.334ZM29.98,14.845a.962.962,0,1,1-.962.962A.963.963,0,0,1,29.98,14.845Zm-4.671,1.923a.962.962,0,1,1-.962.962A.963.963,0,0,1,25.309,16.768ZM21.6,21.3a.962.962,0,1,1-.962-.962A.963.963,0,0,1,21.6,21.3Zm-5.633-6.735a.962.962,0,1,1-.962.962A.963.963,0,0,1,15.967,14.567ZM11.3,19.516a.962.962,0,1,1-.962.962A.963.963,0,0,1,11.3,19.516Z" transform="translate(-9.369 -13.742)"/></g></g></svg>