<svg xmlns="http://www.w3.org/2000/svg" width="13.6" height="13.6" viewBox="0 0 13.6 13.6"><defs><style>.a{fill:#00a9b3;stroke:#00a9b3;stroke-width:0.2px;}</style></defs><g transform="translate(0.1 0.1)"><path class="a" d="M13.4,6.7a6.7,6.7,0,1,0-6.7,6.7A6.708,6.708,0,0,0,13.4,6.7ZM.669,6.7A6.031,6.031,0,1,1,6.7,12.731,6.037,6.037,0,0,1,.669,6.7Z"/><path class="a" d="M166.456,132.794l1.883-1.883a.334.334,0,0,0-.473-.473l-1.312,1.312v-5.014a.336.336,0,0,0-.672,0v5.011l-1.312-1.312a.334.334,0,0,0-.473.473l1.883,1.883a.34.34,0,0,0,.475,0Z" transform="translate(-159.519 -122.946)"/></g></svg>