<svg xmlns="http://www.w3.org/2000/svg" width="91.782" height="87.402" viewBox="0 0 91.782 87.402"><g transform="translate(-637.782 -206.828)"><path d="M-3099.323-6045.429v54.231l-3.4,3.381-22.771-10.955-20.765-2.987v-32.53l20.765-4.243,21.278-9.64,4.9,1.919Z" transform="matrix(0.995, -0.105, 0.105, 0.995, 4425.222, 5901.86)" fill="#f3f1f6"/><path d="M-3146.263-6035.172h-19l-4.87,5.349v22.5l5.463,6.125h18.4Z" transform="matrix(0.995, -0.105, 0.105, 0.995, 4425.222, 5901.86)" fill="#8d7eb7"/><path d="M-3145.823-6001.194h-15.108l7.053,26.716,10.678.888,4.9-1.89-1.3-6.012Z" transform="matrix(0.995, -0.105, 0.105, 0.995, 4425.222, 5901.86)" fill="#635688"/><path d="M91.979,80.372a10.411,10.411,0,0,0-9.331-10.334V53.522a5.6,5.6,0,0,0-8.584-4.759A70.062,70.062,0,0,1,34.71,61.64H17.331A9.328,9.328,0,0,0,8,70.971V89.633a9.328,9.328,0,0,0,9.331,9.331h.42L24.119,122.8a5.594,5.594,0,0,0,5.412,4.152h8.748a5.6,5.6,0,0,0,5.6-5.6,5.748,5.748,0,0,0-.28-1.773L36.739,99.057A71.91,71.91,0,0,1,74.063,111.77a5.6,5.6,0,0,0,8.584-4.712V90.682A10.355,10.355,0,0,0,91.979,80.372ZM11.732,89.7V71.041a5.585,5.585,0,0,1,5.6-5.6h14.93V95.3H17.331a5.585,5.585,0,0,1-5.6-5.6v0Zm26.547,33.591H29.531a1.878,1.878,0,0,1-1.866-1.376L21.623,99.01h11.2L40.075,120.8a1.851,1.851,0,0,1-1.166,2.356,1.965,1.965,0,0,1-.63.093ZM78.915,107.1a1.872,1.872,0,0,1-1.866,1.866,1.747,1.747,0,0,1-1-.3,73.07,73.07,0,0,0-40.053-13.39V65.419A74.437,74.437,0,0,0,76.046,51.936a1.881,1.881,0,0,1,2.589.56,1.941,1.941,0,0,1,.3,1V107.1Zm3.732-20.132V73.91a6.662,6.662,0,0,1,0,13.157Z" transform="matrix(0.995, -0.105, 0.105, 0.995, 624.819, 168.804)" fill="#37236a"/></g></svg>