<svg xmlns="http://www.w3.org/2000/svg" width="107.412" height="89.953" viewBox="0 0 107.412 89.953"><defs><style>.a{fill:rgba(255,255,255,0.15);}</style></defs><g transform="translate(0 0)"><path class="a" d="M590.139,5186.805v-24.25q-2.794-4.761-5.589-9.509a2.784,2.784,0,0,0-2.407-1.37H570.954a2.725,2.725,0,0,1-1.39-5.1l20.575-11.677v-21.625a8.343,8.343,0,0,0-12.512-7.1l-64.793,36.767c-7.39,4.194-4.363,15.3,4.171,15.3h33.564a8.365,8.365,0,0,1,7.224,4.1q8.392,14.287,16.782,28.57C578.841,5198.168,590.139,5195.193,590.139,5186.805Z" transform="translate(-508.649 -5105.065)"/><path class="a" d="M1287.25,5357.037l-21.6,12.155a2.7,2.7,0,0,0,1.39,5.059h11.188a2.8,2.8,0,0,1,2.408,1.354l5.594,9.449a2.793,2.793,0,0,0,5.188-1.36v-24.31A2.78,2.78,0,0,0,1287.25,5357.037Z" transform="translate(-1184.008 -5329.619)"/></g></svg>