<svg xmlns="http://www.w3.org/2000/svg" width="24" height="24" viewBox="0 0 24 24"><defs><style>.a{fill:none;}.b{fill:#ff6f11;}</style></defs><g transform="translate(-294 -398)"><rect class="a" width="24" height="24" transform="translate(294 398)"/><g transform="translate(298 400)"><path class="b" d="M180.333,292.761h-7.76a2.976,2.976,0,0,1-2.974-2.974V278.814a2.976,2.976,0,0,1,2.974-2.974h7.76a2.976,2.976,0,0,1,2.974,2.974v10.973A2.976,2.976,0,0,1,180.333,292.761Zm-7.76-15.211a1.262,1.262,0,0,0-1.265,1.265v10.973a1.262,1.262,0,0,0,1.265,1.265h7.76a1.262,1.262,0,0,0,1.265-1.265V278.814a1.262,1.262,0,0,0-1.265-1.265Z" transform="translate(-169.6 -272.456)"/><path class="b" d="M347.119,164.964a.846.846,0,0,1-.855-.855V154.042a3.209,3.209,0,0,0-3.213-3.213h-6.837a.855.855,0,1,1,0-1.709h6.837a4.924,4.924,0,0,1,4.922,4.922v10.067A.857.857,0,0,1,347.119,164.964Z" transform="translate(-331.189 -149.12)"/></g></g></svg>