<?xml version="1.0" encoding="utf-8"?>
<!-- Generator: Adobe Illustrator 24.0.0, SVG Export Plug-In . SVG Version: 6.00 Build 0)  -->
<svg version="1.1" id="Layer_1" xmlns="http://www.w3.org/2000/svg" xmlns:xlink="http://www.w3.org/1999/xlink" x="0px" y="0px"
	 viewBox="0 0 55.07 52.33" style="enable-background:new 0 0 55.07 52.33;" xml:space="preserve">
<style type="text/css">
	.st0{fill:none;stroke:#707070;stroke-width:2;stroke-linecap:round;stroke-linejoin:round;}
	.st1{fill-rule:evenodd;clip-rule:evenodd;fill:#FF3F11;}
</style>
<g id="Group_2092" transform="translate(-952.789 -1293.5)">
	<g id="image-file-upload.1" transform="translate(953.289 1294)">
		<path id="Path_628" class="st0" d="M18.57,47.2H4.56c-1.93,0-3.5-1.57-3.5-3.5l0,0V5.17l0,0c0-1.93,1.57-3.5,3.5-3.5l0,0h24.82
			c0.93,0,1.82,0.37,2.48,1.02l6.71,6.71l0,0c0.66,0.66,1.02,1.55,1.02,2.48v7.31"/>
		<path id="Path_629" class="st0" d="M11.56,13.05L11.56,13.05c0.48,0,0.88,0.39,0.88,0.88c0,0.48-0.39,0.88-0.88,0.88
			s-0.88-0.39-0.88-0.88l0,0C10.69,13.44,11.08,13.05,11.56,13.05L11.56,13.05"/>
		<path id="Path_630" class="st0" d="M27.53,22.29l-1.95-3.12l0,0c-0.54-0.8-1.62-1.02-2.43-0.48c-0.18,0.12-0.34,0.28-0.47,0.46
			l-4.67,6.66l-2.88-2.31l0,0c-0.75-0.6-1.86-0.48-2.46,0.27c0,0,0,0,0,0c-0.03,0.04-0.06,0.08-0.09,0.12l-4.51,9.3h10.49"/>
	</g>
	<g id="noun_Error_1582569" transform="translate(923 1358.866)">
		<g id="Group_2091" transform="translate(41 -54)">
			<path id="Path_730" class="st1" d="M41.71,31.63L31.65,15.17c-0.97-1.78-2.79-2.93-4.81-3.05c-2.02,0.12-3.84,1.27-4.81,3.05
				L11.92,31.72c-0.79,1.55-0.73,3.39,0.16,4.88c0.81,1.35,2.26,2.18,3.83,2.2h21.88c1.56-0.02,3.01-0.86,3.81-2.2
				C42.5,35.08,42.54,33.19,41.71,31.63z M31.53,24.5c0.43,0.43,0.43,1.12,0.01,1.55c0,0,0,0-0.01,0.01l-2.36,2.36l2.36,2.34
				c0.43,0.44,0.43,1.14,0,1.57l-0.79,0.79c-0.44,0.43-1.14,0.43-1.57,0l-2.34-2.36l-2.36,2.36c-0.43,0.43-1.12,0.43-1.55,0.01
				c0,0,0,0-0.01-0.01l-0.79-0.79c-0.43-0.44-0.43-1.14,0-1.57l2.35-2.33l-2.34-2.36c-0.43-0.43-0.43-1.12-0.01-1.55
				c0,0,0,0,0.01-0.01l0.79-0.79c0.43-0.43,1.12-0.43,1.55-0.01c0,0,0,0,0.01,0.01l2.36,2.34l2.34-2.34c0.44-0.43,1.14-0.43,1.57,0
				L31.53,24.5L31.53,24.5z"/>
		</g>
	</g>
</g>
</svg>
