<svg xmlns="http://www.w3.org/2000/svg" xmlns:xlink="http://www.w3.org/1999/xlink" width="28.211" height="28.052" viewBox="0 0 28.211 28.052"><defs><style>.a,.b{fill:none;}.b{stroke:#707070;stroke-linecap:round;stroke-linejoin:round;}.c{clip-path:url(#a);}.d{clip-path:url(#b);}.e{fill:#6dc441;}</style><clipPath id="a"><path class="a" d="M20.381-276a7.882,7.882,0,0,0-7.881,7.881,7.882,7.882,0,0,0,7.881,7.882,7.881,7.881,0,0,0,7.881-7.882A7.881,7.881,0,0,0,20.381-276Zm-1.446,11.93-3.47-3.47,1.157-1.157,2.314,2.314,5.205-5.205,1.157,1.157Z" transform="translate(-12.5 276)"/></clipPath><clipPath id="b"><path class="a" d="M-20-267.6H222.764V-859H-20Z" transform="translate(20 859)"/></clipPath></defs><g transform="translate(0.5 0.5)"><path class="b" d="M23.436,13.341a7.139,7.139,0,1,1-10.1,0,7.139,7.139,0,0,1,10.1,0" transform="translate(1.242 1.242)"/><path class="b" d="M9.673,23.95H2.535A1.785,1.785,0,0,1,.75,22.166h0V2.535h0A1.785,1.785,0,0,1,2.535.75H15.181a1.785,1.785,0,0,1,1.261.522l3.417,3.417h0a1.785,1.785,0,0,1,.522,1.261V9.673" transform="translate(-0.75 -0.75)"/><path class="b" d="M5.321,5.625h0a.446.446,0,1,1-.446.446h0a.446.446,0,0,1,.446-.446" transform="translate(0.033 0.175)"/><path class="b" d="M13.667,9.9l-.993-1.59h0A.891.891,0,0,0,11.2,8.3l-2.38,3.392L7.355,10.515h0a.892.892,0,0,0-1.254.138q-.024.03-.046.063l-2.3,4.736H9.1" transform="translate(-0.181 0.61)"/><g class="c" transform="translate(11.948 11.789)"><g class="d" transform="translate(-21.916 -393.143)"><path class="e" d="M7.5-258.494H30.006V-281H7.5Z" transform="translate(11.044 670.771)"/></g></g></g></svg>