<svg xmlns="http://www.w3.org/2000/svg" width="27.769" height="27.77" viewBox="0 0 27.769 27.77"><defs><style>.a{fill:none;stroke:#707070;stroke-linecap:round;stroke-linejoin:round;}</style></defs><g transform="translate(0.5 0.5)"><path class="a" d="M23.436,13.341a7.139,7.139,0,1,1-10.1,0,7.139,7.139,0,0,1,10.1,0" transform="translate(1.242 1.242)"/><path class="a" d="M17.25,21.389V14.25" transform="translate(2.381 1.812)"/><path class="a" d="M17.677,14.25,15,16.927" transform="translate(1.954 1.812)"/><path class="a" d="M17.25,14.25l2.677,2.677" transform="translate(2.381 1.812)"/><path class="a" d="M9.673,23.95H2.535A1.785,1.785,0,0,1,.75,22.166h0V2.535h0A1.785,1.785,0,0,1,2.535.75H15.181a1.785,1.785,0,0,1,1.261.522l3.417,3.417h0a1.785,1.785,0,0,1,.522,1.261V9.673" transform="translate(-0.75 -0.75)"/><path class="a" d="M5.321,5.625h0a.446.446,0,1,1-.446.446h0a.446.446,0,0,1,.446-.446" transform="translate(0.033 0.175)"/><path class="a" d="M13.667,9.9l-.993-1.59h0A.891.891,0,0,0,11.2,8.3l-2.38,3.392L7.355,10.515h0a.892.892,0,0,0-1.254.138q-.024.03-.046.063l-2.3,4.736H9.1" transform="translate(-0.181 0.61)"/></g></svg>