<svg xmlns="http://www.w3.org/2000/svg" xmlns:xlink="http://www.w3.org/1999/xlink" width="36" height="36" viewBox="0 0 36 36"><defs><style>.a{fill:#ebebeb;}.b{fill:url(#a);}.c{fill:url(#b);}.d{fill:#bc30a0;}.e{fill:url(#c);}</style><linearGradient id="a" x1="0.326" y1="-0.08" x2="0.654" y2="1.016" gradientUnits="objectBoundingBox"><stop offset="0" stop-color="#4367dc"/><stop offset="0.043" stop-color="#4c62d6"/><stop offset="0.114" stop-color="#6654c7"/><stop offset="0.205" stop-color="#8f3dae"/><stop offset="0.234" stop-color="#9e35a5"/><stop offset="0.451" stop-color="#d42f7f"/><stop offset="0.824" stop-color="#d73578"/></linearGradient><linearGradient id="b" x1="0.739" y1="0.099" x2="0.227" y2="0.959" gradientUnits="objectBoundingBox"><stop offset="0.33" stop-color="#d42f7f"/><stop offset="1" stop-color="#f7772e"/></linearGradient><linearGradient id="c" x1="0.624" y1="0.206" x2="0.301" y2="0.975" gradientUnits="objectBoundingBox"><stop offset="0" stop-color="#9e35a5" stop-opacity="0"/><stop offset="0.451" stop-color="#d42f7f" stop-opacity="0.502"/><stop offset="0.752" stop-color="#f7772e"/><stop offset="1" stop-color="#fef780"/></linearGradient></defs><g transform="translate(-192 -3793)"><rect class="a" width="36" height="36" rx="10" transform="translate(192 3793)"/><g transform="translate(200.935 3801.921)"><path class="b" d="M18.03,5.368a6.646,6.646,0,0,0-.419-2.186,4.437,4.437,0,0,0-1.036-1.594A4.37,4.37,0,0,0,14.982.552,6.638,6.638,0,0,0,12.8.133C11.835.089,11.53.079,9.088.079S6.336.089,5.379.133A6.638,6.638,0,0,0,3.194.552,4.435,4.435,0,0,0,1.6,1.589,4.373,4.373,0,0,0,.565,3.182,6.646,6.646,0,0,0,.146,5.368C.1,6.33.092,6.636.092,9.079s.01,2.753.054,3.711a6.646,6.646,0,0,0,.419,2.186A4.437,4.437,0,0,0,1.6,16.569a4.37,4.37,0,0,0,1.593,1.036,6.638,6.638,0,0,0,2.185.419c.962.044,1.268.054,3.709.054s2.752-.01,3.709-.054a6.638,6.638,0,0,0,2.185-.419,4.435,4.435,0,0,0,1.593-1.036,4.373,4.373,0,0,0,1.036-1.594,6.646,6.646,0,0,0,.419-2.186c.044-.962.054-1.268.054-3.711S18.074,6.325,18.03,5.368Zm-1.618,7.347a4.956,4.956,0,0,1-.311,1.673,2.8,2.8,0,0,1-.676,1.036,2.858,2.858,0,0,1-1.036.676,4.951,4.951,0,0,1-1.672.311c-.947.044-1.233.054-3.635.054s-2.688-.01-3.635-.054A4.951,4.951,0,0,1,3.776,16.1a2.8,2.8,0,0,1-1.036-.676,2.859,2.859,0,0,1-.676-1.036,4.956,4.956,0,0,1-.311-1.673C1.71,11.768,1.7,11.482,1.7,9.079s.01-2.689.054-3.637a4.956,4.956,0,0,1,.311-1.673A2.8,2.8,0,0,1,2.74,2.733a2.858,2.858,0,0,1,1.036-.676,4.951,4.951,0,0,1,1.672-.311C6.4,1.7,6.681,1.692,9.083,1.692s2.688.01,3.635.054a4.951,4.951,0,0,1,1.672.311,2.8,2.8,0,0,1,1.036.676A2.859,2.859,0,0,1,16.1,3.769a4.956,4.956,0,0,1,.311,1.673c.044.947.054,1.234.054,3.637S16.452,11.768,16.412,12.715Z" transform="translate(-0.019)"/><path class="c" d="M17.407,11.711a5.7,5.7,0,1,0,5.7,5.7A5.7,5.7,0,0,0,17.407,11.711Zm0,9.4a3.7,3.7,0,1,1,3.7-3.7A3.7,3.7,0,0,1,17.407,21.108Z" transform="translate(-8.341 -8.332)"/><circle class="d" cx="0.815" cy="0.815" r="0.815" transform="translate(13.215 3.297)"/><path class="e" d="M.066,9.079c0,2.447.01,2.753.054,3.711a6.646,6.646,0,0,0,.419,2.186,4.437,4.437,0,0,0,1.036,1.594,4.37,4.37,0,0,0,1.593,1.036,6.638,6.638,0,0,0,2.185.419c.962.044,1.268.054,3.709.054s2.752-.01,3.709-.054a6.638,6.638,0,0,0,2.185-.419,4.435,4.435,0,0,0,1.593-1.036,4.373,4.373,0,0,0,1.036-1.594A6.646,6.646,0,0,0,18,12.789c.044-.962.054-1.268.054-3.711S18.048,6.325,18,5.368a6.646,6.646,0,0,0-.419-2.186,4.437,4.437,0,0,0-1.036-1.594A4.37,4.37,0,0,0,14.956.552,6.638,6.638,0,0,0,12.771.133C11.809.089,11.5.079,9.062.079S6.31.089,5.353.133A6.638,6.638,0,0,0,3.168.552,4.435,4.435,0,0,0,1.575,1.589,4.373,4.373,0,0,0,.539,3.182,6.646,6.646,0,0,0,.12,5.368C.075,6.325.066,6.631.066,9.079Zm1.623,0c0-2.4.01-2.689.054-3.637a4.956,4.956,0,0,1,.311-1.673,2.8,2.8,0,0,1,.676-1.036,2.858,2.858,0,0,1,1.036-.676,4.951,4.951,0,0,1,1.672-.311c.947-.044,1.233-.054,3.635-.054s2.688.01,3.635.054a4.951,4.951,0,0,1,1.672.311,2.8,2.8,0,0,1,1.036.676,2.859,2.859,0,0,1,.676,1.036A4.956,4.956,0,0,1,16.4,5.442c.044.947.054,1.234.054,3.637s-.01,2.689-.054,3.637a4.956,4.956,0,0,1-.311,1.673,2.8,2.8,0,0,1-.676,1.036,2.858,2.858,0,0,1-1.036.676,4.951,4.951,0,0,1-1.672.311c-.947.044-1.233.054-3.635.054s-2.688-.01-3.635-.054A4.951,4.951,0,0,1,3.765,16.1a2.8,2.8,0,0,1-1.036-.676,2.859,2.859,0,0,1-.676-1.036,4.956,4.956,0,0,1-.311-1.673C1.7,11.768,1.688,11.482,1.688,9.079Z"/></g></g></svg>