<svg xmlns="http://www.w3.org/2000/svg" width="13.612" height="14.235" viewBox="0 0 13.612 14.235"><defs><style>.a{fill:#fff;stroke:#fff;stroke-width:0.5px;}</style></defs><g transform="translate(-0.22 0.303)"><g transform="translate(0 0)"><g transform="translate(0 1.741) rotate(-8)"><path class="a" d="M6.613.554a.36.36,0,0,0,0,.5,1.5,1.5,0,0,1,0,2.094L3.632,6.185a1.438,1.438,0,0,1-2.058,0l-.448-.456a1.5,1.5,0,0,1,0-2.094L4.107.6A.361.361,0,0,0,4.1.1.346.346,0,0,0,3.611.1L.631,3.131a2.221,2.221,0,0,0,0,3.1l.448.456a2.132,2.132,0,0,0,3.048,0l2.98-3.033a2.225,2.225,0,0,0,0-3.1.345.345,0,0,0-.5,0Z" transform="translate(0 4.676)"/><path class="a" d="M7.109,1.1,6.66.64a2.135,2.135,0,0,0-3.049,0L.63,3.67a2.22,2.22,0,0,0,0,3.1.346.346,0,0,0,.489-.007.36.36,0,0,0,.007-.5,1.5,1.5,0,0,1,0-2.092l2.981-3.03a1.44,1.44,0,0,1,2.058,0l.449.456a1.5,1.5,0,0,1,0,2.092L3.632,6.722a.362.362,0,0,0-.075.387.352.352,0,0,0,.322.221.339.339,0,0,0,.246-.105l2.981-3.03a2.217,2.217,0,0,0,0-3.1Z" transform="translate(4.77)"/></g></g></g></svg>