<svg xmlns="http://www.w3.org/2000/svg" width="24.35" height="25.924" viewBox="0 0 24.35 25.924"><defs><style>.a{fill:#00a9b3;stroke:#00a9b3;stroke-width:0.2px;}</style></defs><g transform="translate(1.571 0.353)"><g transform="translate(-2.638 -0.234)"><g transform="translate(0 0)"><g transform="translate(0 3.28) rotate(-8)"><path class="a" d="M12.462,1.044a.678.678,0,0,0,0,.95,2.828,2.828,0,0,1,0,3.947L6.846,11.657a2.71,2.71,0,0,1-3.878,0l-.845-.86a2.828,2.828,0,0,1,0-3.947L7.739,1.134A.68.68,0,0,0,7.727.2a.652.652,0,0,0-.92-.013L1.19,5.9a4.186,4.186,0,0,0,0,5.846l.845.86a4.018,4.018,0,0,0,5.744,0L13.4,6.89a4.193,4.193,0,0,0,0-5.846.65.65,0,0,0-.933,0Z" transform="translate(0 8.812)"/><path class="a" d="M13.4,2.066l-.845-.859a4.024,4.024,0,0,0-5.746,0L1.187,6.917a4.184,4.184,0,0,0,0,5.84.653.653,0,0,0,.921-.013.679.679,0,0,0,.013-.936,2.822,2.822,0,0,1,0-3.943l5.619-5.71a2.714,2.714,0,0,1,3.879,0l.845.859a2.822,2.822,0,0,1,0,3.943l-5.619,5.71a.681.681,0,0,0-.142.73.663.663,0,0,0,.606.417.638.638,0,0,0,.464-.2l5.619-5.71a4.177,4.177,0,0,0,0-5.84Z" transform="translate(8.989 0)"/></g></g></g></g></svg>