<svg xmlns="http://www.w3.org/2000/svg" width="180" height="48.548" viewBox="0 0 180 48.548"><defs><style>.a{isolation:isolate;}.b{fill:#fff;}.c{fill:#f21905;}</style></defs><g transform="translate(-593.281 -360.012)"><g class="a" transform="translate(651.977 398.044)"><g class="a"><path class="b" d="M656.65,402.473a2.808,2.808,0,0,1,.005,3.783,2.321,2.321,0,0,1-1.719.75,2.548,2.548,0,0,1-1.649-.541v.39h-1.319v-7.2h1.319v2.61a2.48,2.48,0,0,1,1.649-.549A2.316,2.316,0,0,1,656.65,402.473Zm-.94,2.978a1.481,1.481,0,0,0,.395-1.084,1.5,1.5,0,0,0-.395-1.09,1.333,1.333,0,0,0-1-.41,1.377,1.377,0,0,0-.989.42,1.44,1.44,0,0,0-.43,1.08,1.425,1.425,0,0,0,.43,1.074,1.383,1.383,0,0,0,.989.414A1.34,1.34,0,0,0,655.71,405.451Z" transform="translate(-651.968 -398.039)"/><path class="b" d="M660.187,408.555h-1.47l.8-1.86-2.069-4.838h1.469l1.319,3.19,1.38-3.19h1.469Z" transform="translate(-651.968 -398.039)"/><path class="b" d="M672.564,402.947c.02.233.03.426.03.58a3.435,3.435,0,0,1-.96,2.489,3.248,3.248,0,0,1-2.438.99,3.478,3.478,0,0,1-2.529-1.01,3.531,3.531,0,0,1-.01-4.973,3.41,3.41,0,0,1,2.5-1.015,3.835,3.835,0,0,1,1.989.521,2.768,2.768,0,0,1,1.229,1.5l-1.219.43a2.089,2.089,0,0,0-2-1.17,2.039,2.039,0,0,0-1.52.641,2.18,2.18,0,0,0-.619,1.578,2.185,2.185,0,0,0,2.219,2.23,2.061,2.061,0,0,0,1.3-.416,1.939,1.939,0,0,0,.71-1.134H668.9v-1.239Z" transform="translate(-651.968 -398.039)"/><path class="b" d="M676.966,401.838l-.07,1.269h-.29q-1.779,0-1.779,2.139v1.609h-1.319v-4.988h1.319v.91a2.086,2.086,0,0,1,1.789-.98A1.153,1.153,0,0,1,676.966,401.838Z" transform="translate(-651.968 -398.039)"/><path class="b" d="M682.365,406.855h-1.32V406.4a2.116,2.116,0,0,1-1.569.6,1.893,1.893,0,0,1-1.449-.586,2.122,2.122,0,0,1-.549-1.514v-3.039H678.8v2.76a1.261,1.261,0,0,0,.275.85.921.921,0,0,0,.734.318q1.239,0,1.239-1.719v-2.209h1.32Z" transform="translate(-651.968 -398.039)"/><path class="b" d="M688.26,402.473a2.813,2.813,0,0,1,.006,3.783,2.325,2.325,0,0,1-1.72.75,2.555,2.555,0,0,1-1.65-.541v2.09h-1.318v-6.688H684.9v.4a2.484,2.484,0,0,1,1.65-.549A2.316,2.316,0,0,1,688.26,402.473Zm-.94,2.978a1.481,1.481,0,0,0,.4-1.084,1.5,1.5,0,0,0-.4-1.09,1.333,1.333,0,0,0-1-.41,1.381,1.381,0,0,0-.99.42,1.443,1.443,0,0,0-.43,1.08,1.428,1.428,0,0,0,.43,1.074,1.387,1.387,0,0,0,.99.414A1.34,1.34,0,0,0,687.32,405.451Z" transform="translate(-651.968 -398.039)"/><path class="b" d="M694.03,402.482a2.656,2.656,0,0,1,0,3.768,2.679,2.679,0,0,1-1.9.734,2.729,2.729,0,0,1-1.93-.734,2.644,2.644,0,0,1,0-3.768,2.729,2.729,0,0,1,1.93-.734A2.679,2.679,0,0,1,694.03,402.482Zm-.925,2.959a1.559,1.559,0,0,0,0-2.15,1.376,1.376,0,0,0-.978-.414,1.489,1.489,0,0,0,0,2.978A1.372,1.372,0,0,0,693.1,405.441Z" transform="translate(-651.968 -398.039)"/><path class="b" d="M702.954,406.855h-5.087v-6.7h5.067v1.231h-3.707V402.9h3.418v1.211h-3.418v1.518h3.727Zm-2.908-7.376.659-1.44h1.55l-1.089,1.44Z" transform="translate(-651.968 -398.039)"/><path class="b" d="M708.924,406.855h-1.569l-1.089-1.58-1.079,1.58h-1.57l1.68-2.429-1.68-2.569h1.57l1.079,1.68,1.089-1.68h1.569l-1.679,2.569Z" transform="translate(-651.968 -398.039)"/><path class="b" d="M711.037,399.824a.772.772,0,0,1,.23.555.734.734,0,0,1-.23.549.8.8,0,0,1-.57.22.786.786,0,0,1-.574-.22.734.734,0,0,1-.225-.549.8.8,0,0,1,1.369-.555Zm-1.23,7.031v-4.988h1.32v4.988Z" transform="translate(-651.968 -398.039)"/><path class="b" d="M716.035,406.635a2.77,2.77,0,0,1-1.3.371,2,2,0,0,1-1.439-.5,1.97,1.97,0,0,1-.52-1.494v-2.069h-1.07v-1.08h1.07v-1.508H714.1v1.508h1.629v1.08H714.1v1.969q0,.858.73.859a1.782,1.782,0,0,0,.829-.24Z" transform="translate(-651.968 -398.039)"/><path class="b" d="M720.68,402.482a2.653,2.653,0,0,1,0,3.768,2.687,2.687,0,0,1-1.9.734,2.724,2.724,0,0,1-1.928-.734,2.642,2.642,0,0,1,0-3.768,2.724,2.724,0,0,1,1.928-.734A2.687,2.687,0,0,1,720.68,402.482Zm-.924,2.959a1.559,1.559,0,0,0,0-2.15,1.379,1.379,0,0,0-.981-.414,1.489,1.489,0,0,0,0,2.978A1.375,1.375,0,0,0,719.756,405.441Z" transform="translate(-651.968 -398.039)"/></g></g><g transform="translate(593.281 360.012)"><g transform="translate(58.224 4.982)"><path class="b" d="M660.293,377.008a7.562,7.562,0,0,1,6.12,2.942.788.788,0,0,1-.128,1.107q-.037.028-.078.054l-1.9,1.821c-.372.331-.745.124-1.034-.124a3.889,3.889,0,0,0-2.854-1.326,4.153,4.153,0,0,0-4.052,4.224,4.092,4.092,0,0,0,3.958,4.222l.053,0a4.278,4.278,0,0,0,3.309-1.575.771.771,0,0,1,1.033-.123l1.778,1.534c.414.331.579.748.289,1.161a7.369,7.369,0,0,1-6.533,3.479,8.734,8.734,0,0,1-8.767-8.7v0A8.849,8.849,0,0,1,660.293,377.008Z" transform="translate(-651.487 -364.994)"/><path class="b" d="M670.383,365.781a.813.813,0,0,1,.785-.787h3.474a.811.811,0,0,1,.785.787V393.2a.813.813,0,0,1-.785.788h-3.474a.814.814,0,0,1-.785-.788Z" transform="translate(-651.487 -364.994)"/><path class="b" d="M680.39,378.21a.784.784,0,0,1,.782-.786h3.435a.785.785,0,0,1,.787.784v15a.814.814,0,0,1-.787.785h-3.433a.811.811,0,0,1-.785-.785Z" transform="translate(-651.487 -364.994)"/><path class="b" d="M697.883,377.008A7.56,7.56,0,0,1,704,379.95a.788.788,0,0,1-.206,1.161l-1.9,1.821c-.372.331-.744.124-1.034-.124a3.888,3.888,0,0,0-2.854-1.326,4.153,4.153,0,0,0-4.052,4.224,4.093,4.093,0,0,0,3.958,4.222l.053,0a4.274,4.274,0,0,0,3.308-1.575.773.773,0,0,1,1.033-.123l1.78,1.534c.413.331.578.748.288,1.161a7.367,7.367,0,0,1-6.533,3.479,8.735,8.735,0,0,1-8.767-8.7A8.852,8.852,0,0,1,697.883,377.008Z" transform="translate(-651.487 -364.994)"/><path class="b" d="M707.972,365.781a.813.813,0,0,1,.785-.787h3.515a.813.813,0,0,1,.786.787v17.936l5.708-5.8a1.536,1.536,0,0,1,1.033-.5h3.763a.7.7,0,0,1,.538,1.2l-6.162,6.3,7.361,7.912a.678.678,0,0,1-.537,1.159h-4.467a1.015,1.015,0,0,1-.7-.332l-6.534-7.454v7a.813.813,0,0,1-.786.787h-3.52a.814.814,0,0,1-.785-.787Z" transform="translate(-651.487 -364.994)"/><path class="b" d="M733.444,383.513a10.572,10.572,0,0,1,3.018.456c.042-2.113-.619-2.858-2.149-2.858a19.9,19.9,0,0,0-4.632.62c-.579.167-.868-.207-.95-.747l-.373-2.152a.815.815,0,0,1,.531-1.023l.047-.013a22.007,22.007,0,0,1,5.625-.789c5.168,0,6.368,2.693,6.368,7.208V393.2a.814.814,0,0,1-.786.787h-1.489c-.289,0-.5-.125-.7-.58l-.5-1.118a7.11,7.11,0,0,1-5.046,2.112,5.28,5.28,0,0,1-5.588-4.953,5.441,5.441,0,0,1,.006-.722C726.828,385.791,729.227,383.513,733.444,383.513Zm.084,7.374a3.817,3.817,0,0,0,2.852-1.617v-2.278a6.465,6.465,0,0,0-2.315-.5c-1.613,0-2.688.912-2.688,2.235a2.066,2.066,0,0,0,1.969,2.159C733.407,390.889,733.467,390.889,733.528,390.887Z" transform="translate(-651.487 -364.994)"/><path class="b" d="M745.685,378.211a.786.786,0,0,1,.785-.787H748a.7.7,0,0,1,.7.456l.579,1.575a7.523,7.523,0,0,1,5.541-2.446,6.515,6.515,0,0,1,5.375,2.568,8.43,8.43,0,0,1,5.832-2.568c5.292,0,7.236,3.937,7.236,8.286v7.912a.787.787,0,0,1-.785.787h-3.35a.785.785,0,0,1-.785-.785v-8.2c0-2.153-1.034-3.52-3.1-3.52a4.16,4.16,0,0,0-3.474,1.739s.041.826.041,1.574v8.409a.813.813,0,0,1-.786.786h-3.1a.784.784,0,0,1-.785-.783v-8.2c0-2.153-.951-3.52-3.061-3.52A3.653,3.653,0,0,0,750.6,384.1v9.114a.813.813,0,0,1-.787.786h-3.349a.815.815,0,0,1-.786-.786Z" transform="translate(-651.487 -364.994)"/><path class="c" d="M684.759,367.853l-4.926,2.85a.634.634,0,0,0,.317,1.184H682.7a.633.633,0,0,1,.549.319l1.277,2.212a.634.634,0,0,0,1.184-.315v-5.7a.634.634,0,0,0-.632-.636A.623.623,0,0,0,684.759,367.853Z" transform="translate(-651.487 -364.994)"/></g><path class="b" d="M631.655,398.282V386.93q-1.316-2.228-2.633-4.451a1.314,1.314,0,0,0-1.134-.641h-5.269a1.274,1.274,0,0,1-.655-2.386l9.692-5.466V363.862a3.931,3.931,0,0,0-5.894-3.324l-30.522,17.21a3.825,3.825,0,0,0,1.965,7.162h15.814a3.942,3.942,0,0,1,3.4,1.918l7.9,13.373a3.946,3.946,0,0,0,7.331-1.919Z" transform="translate(-593.281 -360.012)"/><path class="c" d="M641.9,372.8l-10.174,5.735a1.275,1.275,0,0,0,.655,2.387h5.27a1.317,1.317,0,0,1,1.134.639l2.635,4.458a1.315,1.315,0,0,0,2.444-.642V373.907A1.308,1.308,0,0,0,641.9,372.8Z" transform="translate(-593.281 -360.01)"/></g></g></svg>