<svg xmlns="http://www.w3.org/2000/svg" width="180" height="51" viewBox="0 0 180 51"><defs><style>.a,.b{fill:#fff;}.a{font-size:10px;font-family:GalanoGrotesque-Medium;font-weight:500;letter-spacing:-0.02em;}.c{fill:#f21905;}.d{fill:none;}</style></defs><g transform="translate(-165 -2843)"><text class="a" transform="translate(223 2892)"><tspan x="0" y="0">by Grupo Éxito</tspan></text><g transform="translate(165 2843)"><g transform="translate(58.217 7.14)"><g transform="translate(0 0)"><path class="b" d="M1699.962,5444.13a7.56,7.56,0,0,1,6.12,2.942.788.788,0,0,1-.206,1.161l-1.9,1.822c-.372.33-.745.123-1.034-.124a3.885,3.885,0,0,0-2.854-1.326,4.152,4.152,0,0,0-4.052,4.224,4.092,4.092,0,0,0,4.011,4.223,4.278,4.278,0,0,0,3.309-1.574.771.771,0,0,1,1.033-.123l1.778,1.534c.414.33.579.747.289,1.16a7.367,7.367,0,0,1-6.533,3.479,8.733,8.733,0,0,1-8.767-8.7A8.851,8.851,0,0,1,1699.962,5444.13Z" transform="translate(-1691.154 -5432.117)"/><path class="b" d="M2068.891,5205.215a.813.813,0,0,1,.785-.787h3.474a.813.813,0,0,1,.785.787v27.422a.812.812,0,0,1-.785.787h-3.474a.813.813,0,0,1-.785-.787Z" transform="translate(-2049.993 -5204.429)"/><path class="b" d="M2268.916,5453.186a.784.784,0,0,1,.785-.786h3.432a.786.786,0,0,1,.787.786v15a.814.814,0,0,1-.787.785H2269.7a.812.812,0,0,1-.785-.785Z" transform="translate(-2240.011 -5439.971)"/><path class="b" d="M2451.288,5444.13a7.558,7.558,0,0,1,6.119,2.942.789.789,0,0,1-.206,1.161l-1.9,1.822c-.372.33-.744.123-1.034-.124a3.885,3.885,0,0,0-2.854-1.326,4.152,4.152,0,0,0-4.052,4.224,4.092,4.092,0,0,0,4.011,4.223,4.275,4.275,0,0,0,3.308-1.574.772.772,0,0,1,1.033-.123l1.78,1.534c.413.33.578.747.288,1.16a7.367,7.367,0,0,1-6.533,3.479,8.734,8.734,0,0,1-8.767-8.7A8.851,8.851,0,0,1,2451.288,5444.13Z" transform="translate(-2404.89 -5432.117)"/><path class="b" d="M2820.217,5205.215a.813.813,0,0,1,.785-.787h3.515a.814.814,0,0,1,.786.787v17.936l5.708-5.8a1.536,1.536,0,0,1,1.033-.5h3.763a.705.705,0,0,1,.538,1.2l-6.162,6.3,7.361,7.912a.678.678,0,0,1-.537,1.159h-4.467a1.016,1.016,0,0,1-.7-.332l-6.534-7.454v7a.813.813,0,0,1-.786.787H2821a.813.813,0,0,1-.785-.787Z" transform="translate(-2763.73 -5204.429)"/><path class="b" d="M3203.737,5450.635a10.6,10.6,0,0,1,3.018.456c.042-2.113-.619-2.858-2.149-2.858a19.929,19.929,0,0,0-4.632.62c-.579.167-.868-.207-.95-.747l-.373-2.152a.815.815,0,0,1,.578-1.036,22.023,22.023,0,0,1,5.625-.789c5.168,0,6.368,2.693,6.368,7.208v8.989a.813.813,0,0,1-.786.786h-1.489c-.289,0-.5-.125-.7-.58l-.5-1.117a7.11,7.11,0,0,1-5.046,2.112,5.28,5.28,0,0,1-5.582-5.675C3197.121,5452.913,3199.52,5450.635,3203.737,5450.635Zm.084,7.374a3.817,3.817,0,0,0,2.852-1.616v-2.279a6.468,6.468,0,0,0-2.315-.5c-1.613,0-2.688.912-2.688,2.236A2.066,2.066,0,0,0,3203.821,5458.009Z" transform="translate(-3121.778 -5432.117)"/><path class="b" d="M3574.037,5445.333a.786.786,0,0,1,.786-.787h1.529a.7.7,0,0,1,.7.456l.579,1.575a7.523,7.523,0,0,1,5.541-2.446,6.516,6.516,0,0,1,5.375,2.568,8.427,8.427,0,0,1,5.832-2.568c5.292,0,7.236,3.937,7.236,8.286v7.912a.786.786,0,0,1-.785.786h-3.35a.785.785,0,0,1-.786-.786v-8.2c0-2.153-1.034-3.52-3.1-3.52a4.16,4.16,0,0,0-3.474,1.739s.041.826.041,1.574v8.409a.814.814,0,0,1-.786.786h-3.1a.784.784,0,0,1-.785-.786v-8.2c0-2.153-.951-3.52-3.061-3.52a3.652,3.652,0,0,0-3.473,2.608v9.114a.814.814,0,0,1-.787.786h-3.349a.814.814,0,0,1-.786-.786Z" transform="translate(-3479.837 -5432.117)"/><path class="c" d="M2256.679,5259.818l-4.926,2.85a.634.634,0,0,0,.317,1.184h2.552a.633.633,0,0,1,.549.319l1.277,2.212a.634.634,0,0,0,1.184-.315v-5.7A.634.634,0,0,0,2256.679,5259.818Z" transform="translate(-2223.405 -5256.96)"/></g></g><g transform="translate(0 0)"><g transform="translate(0 2.164)"><path class="b" d="M547.036,5143.324v-11.351q-1.316-2.228-2.633-4.451a1.313,1.313,0,0,0-1.134-.641H538a1.274,1.274,0,0,1-.655-2.386l9.692-5.465v-10.122a3.931,3.931,0,0,0-5.894-3.324l-30.522,17.208a3.824,3.824,0,0,0,1.965,7.161H528.4a3.944,3.944,0,0,1,3.4,1.918q3.953,6.686,7.905,13.372A3.946,3.946,0,0,0,547.036,5143.324Z" transform="translate(-508.649 -5105.065)"/><path class="c" d="M1275.088,5356.842l-10.174,5.735a1.275,1.275,0,0,0,.655,2.387h5.27a1.317,1.317,0,0,1,1.134.639l2.635,4.458a1.315,1.315,0,0,0,2.444-.642v-11.471A1.309,1.309,0,0,0,1275.088,5356.842Z" transform="translate(-1226.454 -5344.06)"/></g><rect class="d" width="179.979" height="46" transform="translate(0)"/></g></g></g></svg>