<svg xmlns="http://www.w3.org/2000/svg" width="44.996" height="34.872" viewBox="0 0 44.996 34.872"><defs><style>.a{fill:#fff;}.b{fill:#e06f22;}</style></defs><g transform="translate(0 68)"><g transform="translate(0 -68)"><path class="a" d="M241.3,250.35a2.238,2.238,0,0,0-2.061-.709,8.785,8.785,0,0,1-1.657.151,7.458,7.458,0,0,1-5.7-2.293,9.259,9.259,0,0,1,0-11.9,7.412,7.412,0,0,1,5.7-2.327,8.038,8.038,0,0,1,1.516.138,2.238,2.238,0,0,0,2.024-.663l3.689-3.824a2.293,2.293,0,0,0-.887-3.746,18.3,18.3,0,0,0-6.344-1.082,17.888,17.888,0,0,0-12.749,4.916,17.684,17.684,0,0,0,0,25.072,17.943,17.943,0,0,0,12.749,4.883A18.465,18.465,0,0,0,243.9,257.9a2.293,2.293,0,0,0,.937-3.707Q243.066,252.28,241.3,250.35Z" transform="translate(-219.62 -224.097)"/><path class="b" d="M328.952,243.639h.213m10.221-10.592a1.93,1.93,0,0,1,1.419-.617h7.4a1.931,1.931,0,0,1,1.419,3.24l-10.23,11.115a1.931,1.931,0,0,0,0,2.62l11.724,12.688a1.931,1.931,0,0,1-1.419,3.242h-8.159a1.937,1.937,0,0,1-1.437-.639l-14.34-15.636a1.4,1.4,0,0,1,.025-1.917Z" transform="translate(-306.633 -231.55)"/></g></g></svg>