<svg xmlns="http://www.w3.org/2000/svg" width="123.94" height="24.298" viewBox="0 0 123.94 24.298"><defs><style>.a{fill:#fff;}.b{fill:#ff6f11;}</style></defs><g transform="translate(-244.27 -199.169)"><g transform="translate(244.27 199.169)"><path class="a" d="M234.726,242.39a1.56,1.56,0,0,0-1.436-.494,6.12,6.12,0,0,1-1.154.105,5.2,5.2,0,0,1-3.973-1.6,6.451,6.451,0,0,1,0-8.29,5.164,5.164,0,0,1,3.973-1.621,5.6,5.6,0,0,1,1.057.1,1.56,1.56,0,0,0,1.41-.462l2.571-2.664a1.6,1.6,0,0,0-.618-2.61,12.75,12.75,0,0,0-4.421-.754,12.464,12.464,0,0,0-8.883,3.426,12.322,12.322,0,0,0,0,17.469,12.5,12.5,0,0,0,8.883,3.4,12.866,12.866,0,0,0,4.4-.741,1.6,1.6,0,0,0,.653-2.583Q235.956,243.734,234.726,242.39Z" transform="translate(-219.62 -224.097)"/><path class="b" d="M327.873,240.24h.148m7.122-7.38a1.345,1.345,0,0,1,.989-.43h5.155a1.346,1.346,0,0,1,.989,2.258l-7.128,7.745a1.346,1.346,0,0,0,0,1.825l8.169,8.841a1.346,1.346,0,0,1-.989,2.259h-5.685a1.35,1.35,0,0,1-1-.445l-9.992-10.895a.974.974,0,0,1,.017-1.336Z" transform="translate(-312.321 -231.817)"/></g><g transform="translate(282.034 202.533)"><path class="a" d="M209.15,547.476V531.658a.3.3,0,0,1,.3-.3H212.5a.3.3,0,0,1,.3.3v15.818a.3.3,0,0,1-.3.3h-3.051A.3.3,0,0,1,209.15,547.476Z" transform="translate(-196.227 -530.888)"/><path class="a" d="M240.26,529.883a2.012,2.012,0,0,1,.6,1.459,1.926,1.926,0,0,1-.6,1.448,2.1,2.1,0,0,1-1.515.582,2.056,2.056,0,0,1-1.5-.582,1.94,1.94,0,0,1-.593-1.448,2.119,2.119,0,0,1,3.613-1.459Zm-3.34,15.979V535.006a.3.3,0,0,1,.3-.3h3.051a.3.3,0,0,1,.3.3v10.849a.3.3,0,0,1-.3.3h-3.051a.3.3,0,0,1-.3-.3Z" transform="translate(-217.523 -529.266)"/><path class="a" d="M272.522,559.765a.649.649,0,0,0-1.015.07,2.3,2.3,0,0,1-2.029.983,2.593,2.593,0,0,1-1.982-.8,3.216,3.216,0,0,1,0-4.136,2.57,2.57,0,0,1,1.982-.81,2.4,2.4,0,0,1,1.549.512,2.164,2.164,0,0,1,.3.293.652.652,0,0,0,.967.034l1.434-1.486a.652.652,0,0,0-.023-.929,6.019,6.019,0,0,0-4.226-1.614,6.215,6.215,0,0,0-4.433,1.709,6.168,6.168,0,0,0,0,8.718,6.244,6.244,0,0,0,4.433,1.7,6.07,6.07,0,0,0,3.784-1.229,5.648,5.648,0,0,0,.656-.584.656.656,0,0,0,0-.9Z" transform="translate(-238.119 -546.782)"/><path class="a" d="M161.122,559.765a.649.649,0,0,0-1.015.07,2.3,2.3,0,0,1-2.03.983,2.593,2.593,0,0,1-1.982-.8,3.215,3.215,0,0,1,0-4.136,2.571,2.571,0,0,1,1.982-.81,2.4,2.4,0,0,1,1.549.512,2.161,2.161,0,0,1,.3.293.652.652,0,0,0,.967.034l1.434-1.486a.652.652,0,0,0-.023-.929,6.019,6.019,0,0,0-4.226-1.614,6.214,6.214,0,0,0-4.433,1.709,6.168,6.168,0,0,0,0,8.718,6.244,6.244,0,0,0,4.433,1.7,6.07,6.07,0,0,0,3.784-1.229,5.651,5.651,0,0,0,.656-.584.656.656,0,0,0,0-.9Z" transform="translate(-151.84 -546.782)"/><path class="a" d="M392.88,563.672h-3.051a.3.3,0,0,1-.3-.3h0a.3.3,0,0,0-.465-.246,5.613,5.613,0,0,1-7.047-.814,6.642,6.642,0,0,1,0-8.718,5.6,5.6,0,0,1,7.047-.825.3.3,0,0,0,.465-.246h0a.3.3,0,0,1,.3-.3h3.051a.3.3,0,0,1,.3.3v10.849A.3.3,0,0,1,392.88,563.672Zm-4.181-3.59a3.132,3.132,0,0,0,0-4.253,2.676,2.676,0,0,0-1.971-.843,2.589,2.589,0,0,0-1.984.832,3.333,3.333,0,0,0,0,4.284,2.61,2.61,0,0,0,1.984.821A2.692,2.692,0,0,0,388.7,560.082Z" transform="translate(-328.852 -546.786)"/><path class="a" d="M468.036,556.506a4.585,4.585,0,0,0-1.254-3.34,4.182,4.182,0,0,0-3.123-1.287,4.833,4.833,0,0,0-3.813,1.639.3.3,0,0,1-.462-.02,4.11,4.11,0,0,0-3.52-1.619,4.455,4.455,0,0,0-2.9.927.3.3,0,0,1-.492-.226v-.061a.3.3,0,0,0-.3-.3h-3.051a.3.3,0,0,0-.3.3v10.849a.3.3,0,0,0,.3.3h3.051a.3.3,0,0,0,.3-.3v-5.313a3.426,3.426,0,0,1,.582-2.154,1.933,1.933,0,0,1,1.608-.742,1.822,1.822,0,0,1,1.389.582,2.151,2.151,0,0,1,.548,1.538v6.088a.3.3,0,0,0,.3.3h3.051a.3.3,0,0,0,.3-.3v-5.313a3.342,3.342,0,0,1,.6-2.154,2,2,0,0,1,1.63-.742,1.8,1.8,0,0,1,1.369.582,2.255,2.255,0,0,1,.546,1.538v2.846a.277.277,0,0,0,.277.275h3.071a.277.277,0,0,0,.277-.275Z" transform="translate(-381.859 -546.777)"/><rect class="b" width="3.624" height="2.722" rx="0.44" transform="translate(82.54 14.164)"/><path class="b" d="M338.41,557.26h.07m3.554-3.685a.676.676,0,0,1,.494-.225H345.1a.676.676,0,0,1,.494,1.127l-3.554,3.876a.677.677,0,0,0,0,.9l4.077,4.413a.677.677,0,0,1-.492,1.128H342.79a.677.677,0,0,1-.5-.225l-4.988-5.437a.487.487,0,0,1,0-.676Z" transform="translate(-295.374 -547.919)"/><path class="a" d="M326.663,542.114a.487.487,0,0,1,0-.677l2.174-2.255v-7.525a.3.3,0,0,0-.3-.3H325.5a.3.3,0,0,0-.3.3v15.818a.3.3,0,0,0,.3.3h3.051a.3.3,0,0,0,.3-.3v-2.983Q327.757,543.3,326.663,542.114Z" transform="translate(-286.107 -530.888)"/></g></g></svg>