<svg xmlns="http://www.w3.org/2000/svg" width="26.248" height="21.981" viewBox="0 0 26.248 21.981"><defs><style>.a{fill:#3d2f59;}.b{fill:#f21905;}</style></defs><g transform="translate(0 0)"><path class="a" d="M528.563,5125.039v-5.926q-.683-1.164-1.366-2.324a.68.68,0,0,0-.588-.334h-2.734a.666.666,0,0,1-.34-1.247l5.028-2.853v-5.284a2.039,2.039,0,0,0-3.057-1.736l-15.833,8.984a2,2,0,0,0,1.019,3.739h8.2a2.044,2.044,0,0,1,1.765,1l4.1,6.981A2.045,2.045,0,0,0,528.563,5125.039Z" transform="translate(-508.649 -5105.064)"/><path class="b" d="M1269.875,5356.759l-5.278,2.97a.66.66,0,0,0,.34,1.236h2.734a.684.684,0,0,1,.589.331l1.367,2.309a.682.682,0,0,0,1.268-.332v-5.94A.679.679,0,0,0,1269.875,5356.759Z" transform="translate(-1244.646 -5350.059)"/></g></svg>