<svg xmlns="http://www.w3.org/2000/svg" width="218.152" height="164.627" viewBox="0 0 218.152 164.627"><defs><style>.a,.b,.d,.f,.g{fill:#fff;}.a,.b,.c{stroke:#b5b8bc;}.a,.c,.d,.f,.g{stroke-linecap:round;}.a,.b,.c,.d,.e,.f,.g{stroke-linejoin:round;}.a,.b,.c,.d,.e{stroke-width:4px;}.c,.e{fill:none;}.d,.e,.g{stroke:#ff7010;}.f{stroke:#6d6e71;}.f,.g{stroke-width:3px;}.h{fill:#86888a;}.i{fill:#6d6e71;}</style></defs><g transform="translate(-584 -330.029)"><g transform="translate(586 332)"><g transform="translate(22.973 37.298)"><rect class="a" width="14.354" height="109.83"/><rect class="a" width="14.354" height="109.83" transform="translate(153.852)"/><path class="a" d="M9.047,0h13.7a9.047,9.047,0,0,1,9.047,9.047v7.11a0,0,0,0,1,0,0H0a0,0,0,0,1,0,0V9.047A9.047,9.047,0,0,1,9.047,0Z" transform="translate(145.135 101.752)"/></g><g transform="translate(0 0)"><line class="b" y1="37.298" x2="37.298"/><line class="b" y1="37.298" x2="37.298" transform="translate(44.206)"/><line class="b" y1="37.298" x2="37.298" transform="translate(88.413)"/><line class="b" y1="37.298" x2="37.298" transform="translate(132.619)"/><line class="b" y1="37.298" x2="37.298" transform="translate(176.825)"/></g><rect class="c" width="214.152" height="37.27" transform="translate(0 0.029)"/></g><g transform="translate(602.813 399.734)"><path class="d" d="M125.824,162.678H114.038a3.77,3.77,0,0,0-3.675,2.929L93.609,238.891a3.77,3.77,0,0,0,3.675,4.611h45.295a3.77,3.77,0,0,0,3.675-4.611L129.5,165.607A3.77,3.77,0,0,0,125.824,162.678Z" transform="translate(-79.19 -162.678)"/><path class="d" d="M149.956,262.755H80.029a5.13,5.13,0,0,0-5.13,5.13h0a5.129,5.129,0,0,0,5.13,5.129h69.927a5.129,5.129,0,0,0,5.13-5.129h0A5.13,5.13,0,0,0,149.956,262.755Z" transform="translate(-74.899 -185.751)"/><line class="e" x2="29.93" transform="translate(25.776 26.535)"/><line class="e" x2="43.489" transform="translate(18.666 54.645)"/></g><ellipse class="f" cx="3.083" cy="2.817" rx="3.083" ry="2.817" transform="translate(721.913 483.819)"/><path class="g" d="M259.192,290.035a5.632,5.632,0,0,1,7.488,0,4.591,4.591,0,0,1,0,6.88,5.633,5.633,0,0,1-7.488,0A4.591,4.591,0,0,1,259.192,290.035Z" transform="translate(470.438 192.293)"/><ellipse class="h" cx="3.195" cy="2.919" rx="3.195" ry="2.919" transform="translate(720.505 472.048)"/><ellipse class="i" cx="2.423" cy="2.214" rx="2.423" ry="2.214" transform="translate(746.801 490.227)"/></g></svg>