<svg xmlns="http://www.w3.org/2000/svg" width="24" height="24" viewBox="0 0 24 24"><defs><style>.a{fill:#fff;}.b{fill:#37236a;}</style></defs><g transform="translate(-111 -70)"><rect class="a" width="24" height="24" transform="translate(111 70)"/><path class="b" d="M20.5,7H3.5A.5.5,0,0,1,3,6.5v-1A.5.5,0,0,1,3.5,5h17a.5.5,0,0,1,.5.5v1A.5.5,0,0,1,20.5,7Zm.5,5.5v-1a.5.5,0,0,0-.5-.5H3.5a.5.5,0,0,0-.5.5v1a.5.5,0,0,0,.5.5h17A.5.5,0,0,0,21,12.5Zm0,6v-1a.5.5,0,0,0-.5-.5H3.5a.5.5,0,0,0-.5.5v1a.5.5,0,0,0,.5.5h17A.5.5,0,0,0,21,18.5Z" transform="translate(111 70)"/></g></svg>