<svg xmlns="http://www.w3.org/2000/svg" width="22.363" height="26.032" viewBox="0 0 22.363 26.032"><defs><style>.a{fill:#ffaf51;}</style></defs><g transform="translate(-33.9)"><g transform="translate(33.9)"><path class="a" d="M190.867,217.811h-1.488a.98.98,0,0,1,0-1.959H192a.649.649,0,1,0,0-1.3h-1.229v-.9a.649.649,0,1,0-1.3,0v.9h-.092a2.279,2.279,0,1,0,0,4.557h1.488a.98.98,0,0,1,0,1.959H188.2a.649.649,0,0,0,0,1.3h1.277v.925a.649.649,0,1,0,1.3,0v-.925h.124a2.279,2.279,0,0,0-.032-4.557Z" transform="translate(-178.809 -201.472)"/><path class="a" d="M54.975,14.867a18.616,18.616,0,0,0-2.814-4.514,20.967,20.967,0,0,0-3.6-3.426l2.76-5.12a.641.641,0,0,0-.119-.769A3.235,3.235,0,0,0,48.881,0a5.447,5.447,0,0,0-2.1.552,3.974,3.974,0,0,1-1.321.4.822.822,0,0,1-.308-.054A9.618,9.618,0,0,0,41.915.13a4.387,4.387,0,0,0-3.258,1.526.653.653,0,0,0-.076.812l2.977,4.5A21.318,21.318,0,0,0,38,10.353a18.784,18.784,0,0,0-2.814,4.514A15.348,15.348,0,0,0,33.9,20.994a5.047,5.047,0,0,0,5.039,5.039H51.224a5.047,5.047,0,0,0,5.039-5.039A15.348,15.348,0,0,0,54.975,14.867ZM39.967,2.2a2.831,2.831,0,0,1,1.948-.779,8.433,8.433,0,0,1,2.787.687,2.2,2.2,0,0,0,.752.13,4.794,4.794,0,0,0,1.818-.493,4.389,4.389,0,0,1,1.6-.455,1.718,1.718,0,0,1,1.045.357l-2.6,4.828H42.8ZM51.224,24.733H38.939a3.744,3.744,0,0,1-3.74-3.74,15.133,15.133,0,0,1,3.772-9.78,19.867,19.867,0,0,1,3.675-3.442h4.86a19.492,19.492,0,0,1,3.675,3.442,15.094,15.094,0,0,1,3.772,9.78A3.728,3.728,0,0,1,51.224,24.733Z" transform="translate(-33.9)"/></g></g></svg>