<svg xmlns="http://www.w3.org/2000/svg" width="234" height="234" viewBox="0 0 234 234">
  <g id="Na" transform="translate(-33 -33)">
    <g id="Rectángulo_454" data-name="Rectángulo 454" transform="translate(33 33)" fill="none" stroke="#717171" stroke-width="3" stroke-dasharray="12 8" opacity="0.439">
      <rect width="234" height="234" rx="8" stroke="none"/>
      <rect x="1.5" y="1.5" width="231" height="231" rx="6.5" fill="none"/>
    </g>
    <g id="no-stopping" transform="translate(123.2 92.2)" opacity="0.405">
      <g id="Grupo_2261" data-name="Grupo 2261">
        <g id="Trazado_757" data-name="Trazado 757" fill="#717171">
          <path d="M 26.73124885559082 52.96249771118164 C 12.26728916168213 52.96249771118164 0.4999988675117493 41.19520950317383 0.4999988675117493 26.73124885559082 C 0.4999988675117493 12.26728916168213 12.26728916168213 0.4999988675117493 26.73124885559082 0.4999988675117493 C 41.19520950317383 0.4999988675117493 52.96249771118164 12.26728916168213 52.96249771118164 26.73124885559082 C 52.96249771118164 41.19520950317383 41.19520950317383 52.96249771118164 26.73124885559082 52.96249771118164 Z M 10.33035850524902 14.3492488861084 L 9.987268447875977 14.82935905456543 C 7.498368740081787 18.3122386932373 6.182808876037598 22.42784881591797 6.182808876037598 26.73124885559082 C 6.182808876037598 38.06169891357422 15.40079879760742 47.27968978881836 26.73124885559082 47.27968978881836 C 31.03465843200684 47.27968978881836 35.1502685546875 45.96413040161133 38.63314056396484 43.47522735595703 L 39.11325073242188 43.13213729858398 L 38.69598007202148 42.71487808227539 L 10.74761867523193 14.76651859283447 L 10.33035850524902 14.3492488861084 Z M 26.73124885559082 6.182808876037598 C 22.42784881591797 6.182808876037598 18.3122386932373 7.498368740081787 14.82935905456543 9.987268447875977 L 14.3492488861084 10.33035850524902 L 14.76651859283447 10.74761867523193 L 42.71487808227539 38.69598007202148 L 43.13213729858398 39.11325073242188 L 43.47522735595703 38.63314056396484 C 45.96413040161133 35.1502685546875 47.27968978881836 31.03465843200684 47.27968978881836 26.73124885559082 C 47.27968978881836 15.40079879760742 38.06169891357422 6.182808876037598 26.73124885559082 6.182808876037598 Z" stroke="none"/>
          <path d="M 26.73124885559082 1 C 12.54298782348633 1 1 12.54298782348633 1 26.73124885559082 C 1 40.91950988769531 12.54298782348633 52.46249771118164 26.73124885559082 52.46249771118164 C 40.91950988769531 52.46249771118164 52.46249771118164 40.91950988769531 52.46249771118164 26.73124885559082 C 52.46249771118164 12.54298782348633 40.91950988769531 1 26.73124885559082 1 M 43.19584655761719 39.88406753540039 L 42.36132049560547 39.04953765869141 L 14.41296005249023 11.10117721557617 L 13.57843017578125 10.26664733886719 L 14.53865814208984 9.580459594726562 C 18.10685729980469 7.030597686767578 22.32298851013184 5.682807922363281 26.73124885559082 5.682807922363281 C 38.33739852905273 5.682807922363281 47.77968978881836 15.12509918212891 47.77968978881836 26.73124885559082 C 47.77968978881836 31.13952827453613 46.43190002441406 35.35565948486328 43.88203811645508 38.9238395690918 L 43.19584655761719 39.88406753540039 M 26.73124885559082 47.77968978881836 C 15.12509918212891 47.77968978881836 5.682807922363281 38.33739852905273 5.682807922363281 26.73124885559082 C 5.682807922363281 22.32298851013184 7.030597686767578 18.10685729980469 9.580459594726562 14.53865814208984 L 10.26664733886719 13.57843017578125 L 11.10117721557617 14.41296005249023 L 39.04953765869141 42.36132049560547 L 39.88406753540039 43.19584655761719 L 38.9238395690918 43.88203811645508 C 35.35565948486328 46.43190002441406 31.13952827453613 47.77968978881836 26.73124885559082 47.77968978881836 M 26.73124885559082 0 C 41.47061920166016 0 53.46249771118164 11.99188995361328 53.46249771118164 26.73124885559082 C 53.46249771118164 41.47061920166016 41.47061920166016 53.46249771118164 26.73124885559082 53.46249771118164 C 11.99188995361328 53.46249771118164 0 41.47061920166016 0 26.73124885559082 C 0 11.99188995361328 11.99188995361328 0 26.73124885559082 0 Z M 43.06842803955078 38.34243011474609 C 45.50055694580078 34.93899917602539 46.77968978881836 30.95039939880371 46.77968978881836 26.73124885559082 C 46.77968978881836 15.67693710327148 37.78556060791016 6.682807922363281 26.73124885559082 6.682807922363281 C 22.51209831237793 6.682807922363281 18.52349853515625 7.961948394775391 15.12006759643555 10.39406967163086 L 43.06842803955078 38.34243011474609 Z M 26.73124885559082 46.77968978881836 C 30.95039939880371 46.77968978881836 34.93899917602539 45.50055694580078 38.34243011474609 43.06842803955078 L 10.39406967163086 15.12006759643555 C 7.961948394775391 18.52349853515625 6.682807922363281 22.51209831237793 6.682807922363281 26.73124885559082 C 6.682807922363281 37.78556060791016 15.67693710327148 46.77968978881836 26.73124885559082 46.77968978881836 Z" stroke="none" fill="#fff"/>
        </g>
      </g>
    </g>
    <text id="No_hay_imagen_disponible" data-name="No hay imagen disponible" transform="translate(80 156)" fill="#717171" font-size="16" font-family="GalanoGrotesque-SemiBold" font-weight="600" letter-spacing="0.04em" opacity="0.405"><tspan x="7.104" y="13">No hay imagen </tspan><tspan x="26.632" y="31">disponible</tspan></text>
  </g>
</svg>
