<svg xmlns="http://www.w3.org/2000/svg" width="61.841" height="51.693" viewBox="0 0 61.841 51.693"><defs><style>.a{fill:#86888a;}</style></defs><g transform="translate(58.623 -104)"><g transform="translate(-58.623 104)"><path class="a" d="M87.292,75.049H41.92l-.946-5.941A5.936,5.936,0,0,0,35.161,64H27.607a1.078,1.078,0,0,0,0,2.156h7.554a3.813,3.813,0,0,1,3.685,3.315l6.329,39.767a2.681,2.681,0,0,0,2.631,2.328h1.633a5.055,5.055,0,0,0,9.938,0H72.3a5.073,5.073,0,0,0,4.969,4.127,5.266,5.266,0,1,0-4.993-6.283H59.4a5.059,5.059,0,0,0-9.987,0H47.834a.538.538,0,0,1-.527-.471c0-.006,0,.006,0,0l-1.151-7.21H78.3A5.293,5.293,0,0,0,83.466,97.6l4.876-21.174a1.14,1.14,0,0,0-.207-.942,1.106,1.106,0,0,0-.843-.435ZM77.267,107.324a3.112,3.112,0,1,1-2.934,3.107,3.028,3.028,0,0,1,2.934-3.107Zm-22.861,0a3.112,3.112,0,1,1-2.934,3.107,3.028,3.028,0,0,1,2.934-3.107ZM81.366,97.092A3.168,3.168,0,0,1,78.3,99.573H45.811L42.264,77.205H85.938Z" transform="translate(-26.529 -64)"/><path class="a" d="M272.131,218.287a1.078,1.078,0,0,0,1.525,0l2.946-2.946,2.946,2.946a1.078,1.078,0,0,0,1.525-1.524l-2.946-2.946,2.946-2.946a1.078,1.078,0,0,0-1.525-1.525l-2.946,2.946-2.946-2.946a1.078,1.078,0,0,0-1.525,1.525l2.946,2.946-2.946,2.946A1.078,1.078,0,0,0,272.131,218.287Z" transform="translate(-238.763 -189.488)"/><path class="a" d="M233.958,187.94a10.084,10.084,0,1,0-2.975-7.152,10.115,10.115,0,0,0,2.975,7.152Zm1.525-12.78a7.907,7.907,0,1,1-2.353,5.628A7.959,7.959,0,0,1,235.483,175.16Z" transform="translate(-203.433 -156.299)"/></g></g></svg>