<svg xmlns="http://www.w3.org/2000/svg" width="25" height="24" viewBox="0 0 25 24"><defs><style>.a{fill:#ffe5d4;}.b{fill:#ff6f11;}</style></defs><g transform="translate(-26 -545)"><ellipse class="a" cx="12.5" cy="12" rx="12.5" ry="12" transform="translate(26 545)"/><g transform="translate(14.239 538.002)"><path class="b" d="M22.484,28.026a8.27,8.27,0,0,1,2.065.127,3.173,3.173,0,0,1,2.31,3.024c.019.681-.006,1.363.011,2.044.006.234-.088.258-.284.258-.63,0-.619.008-.633-.626a12.39,12.39,0,0,0-.062-2.114,2.179,2.179,0,0,0-2.059-1.793c-1.009-.031-2.02-.035-3.028,0a2.219,2.219,0,0,0-2.117,2.235c0,.668-.012,1.337,0,2.006.006.231-.05.3-.289.294-.625-.01-.637,0-.623-.633a13.571,13.571,0,0,1,.061-2.265,3.154,3.154,0,0,1,3.013-2.555C21.345,28.013,21.838,28.026,22.484,28.026Z" transform="translate(0 -7.756)"/><path class="b" d="M39.294,21.445c0,.876,0,.876.865.876h.3c.681,0,.668,0,.657.676,0,.223-.095.238-.268.236-.429-.008-.857.008-1.285-.007-.206-.007-.286.042-.277.265.018.428,0,.857.01,1.285.007.206-.042.278-.265.278-.649,0-.641.013-.652-.645-.006-.386.166-.9-.073-1.119-.208-.19-.716-.052-1.092-.059h-.151c-.5,0-.477,0-.506-.486-.02-.333.063-.464.42-.43.375.035.756,0,1.133.012.206.009.286-.042.277-.265-.018-.428,0-.857-.01-1.285-.007-.206.042-.278.264-.279.649,0,.649-.012.649.645Z" transform="translate(-9.704 -3.872)"/><path class="b" d="M23.827,13a3.18,3.18,0,1,0,3.142,3.252A3.185,3.185,0,0,0,23.827,13Zm-.029,5.45a2.27,2.27,0,1,1,2.262-2.262A2.253,2.253,0,0,1,23.8,18.448Z" transform="translate(-1.47 0)"/></g></g></svg>