<svg xmlns="http://www.w3.org/2000/svg" width="30" height="29" viewBox="0 0 30 29"><defs><style>.a{fill:rgba(154,170,207,0.3);}.b{fill:none;}.c{fill:#fff;}</style></defs><g transform="translate(-0.22)"><ellipse class="a" cx="15" cy="14.5" rx="15" ry="14.5" transform="translate(0.22)"/><g transform="translate(6.22 6)"><rect class="b" width="18" height="18"/><path class="c" d="M7.237,11.2,11.2,7.237a.375.375,0,0,1,.533,0l.525.525a.375.375,0,0,1,0,.532L8.295,12.262a.375.375,0,0,1-.532,0l-.525-.525a.375.375,0,0,1,0-.532ZM16.5,6.495V6.75a3,3,0,0,1-.885,2.13L13.5,11a1.013,1.013,0,0,1-1.425,0L12,10.92a.375.375,0,0,1,0-.525l2.58-2.58A1.5,1.5,0,0,0,15,6.75V6.495a1.5,1.5,0,0,0-.443-1.065l-.488-.488A1.5,1.5,0,0,0,13.005,4.5H12.75a1.5,1.5,0,0,0-1.065.443L9.105,7.5a.375.375,0,0,1-.525,0L8.5,7.417a1.013,1.013,0,0,1,0-1.425l2.123-2.13A3,3,0,0,1,12.75,3h.255a3,3,0,0,1,2.123.877l.495.5A3,3,0,0,1,16.5,6.495ZM10.395,12a.375.375,0,0,1,.525,0l.082.082a1.012,1.012,0,0,1,0,1.425L8.865,15.645A3,3,0,0,1,6.75,16.5H6.495a3,3,0,0,1-2.122-.878l-.495-.495A3,3,0,0,1,3,13.012V12.75a3,3,0,0,1,.885-2.13L6,8.5a1.013,1.013,0,0,1,1.425,0l.082.083a.375.375,0,0,1,0,.525l-2.565,2.58A1.5,1.5,0,0,0,4.5,12.75V13a1.5,1.5,0,0,0,.443,1.065l.487.488A1.5,1.5,0,0,0,6.495,15H6.75a1.5,1.5,0,0,0,1.073-.443Z" transform="translate(-0.75 -0.75)"/></g></g></svg>