<svg xmlns="http://www.w3.org/2000/svg" width="24" height="24" viewBox="0 0 24 24"><defs><style>.a{fill:rgba(154,170,207,0.3);}.b{fill:none;}.c{fill:#fff;}</style></defs><g transform="translate(-761 -163)"><circle class="a" cx="12" cy="12" r="12" transform="translate(761 163)"/><g transform="translate(763 165)"><rect class="b" width="20" height="20"/><path class="c" d="M5.727,5.718a.639.639,0,0,1-.452.188H4.951A.656.656,0,0,1,4.5,5.718L.126,1.337a.426.426,0,0,1,0-.605L.731.126a.418.418,0,0,1,.6,0L5.113,3.92,8.9.126a.426.426,0,0,1,.605,0l.6.605a.426.426,0,0,1,0,.605Z" transform="translate(8.329 15.343) rotate(-90)"/></g></g></svg>