<svg xmlns="http://www.w3.org/2000/svg" width="24" height="24" viewBox="0 0 24 24"><defs><style>.a{fill:rgba(154,170,207,0.3);}.b{fill:none;}.c{fill:#fff;}</style></defs><g transform="translate(-761 -163)"><circle class="a" cx="12" cy="12" r="12" transform="translate(761 163)"/><g transform="translate(763 165)"><rect class="b" width="20" height="20"/><path class="c" d="M5.6,5.59a.625.625,0,0,1-.442.183H4.84A.642.642,0,0,1,4.4,5.59L.123,1.307a.417.417,0,0,1,0-.592L.715.123a.408.408,0,0,1,.583,0L5,3.832,8.7.123a.417.417,0,0,1,.592,0l.583.592a.417.417,0,0,1,0,.592Z" transform="translate(11.886 5.002) rotate(90)"/></g></g></svg>