<svg xmlns="http://www.w3.org/2000/svg" width="212.148" height="33.125" viewBox="0 0 212.148 33.125">
  <g id="Group_4049" data-name="Group 4049" transform="translate(-72 -236.389)">
    <g id="Group_4044" data-name="Group 4044" transform="translate(116.205 236.389)">
      <g id="Group_4042" data-name="Group 4042">
        <path id="Path_9971" data-name="Path 9971" d="M22.858,5.445l3.963,8.876a2.073,2.073,0,0,0,1.713,1.211l9.653.85a1.3,1.3,0,0,1,.736,2.229l-7.272,6a2.013,2.013,0,0,0-.695,1.986l2.114,9.717a1.325,1.325,0,0,1-1.931,1.376l-8.426-4.846a2.1,2.1,0,0,0-2.1,0l-8.426,4.843a1.326,1.326,0,0,1-1.931-1.376l2.114-9.717a2.019,2.019,0,0,0-.695-1.986L4.4,18.614a1.3,1.3,0,0,1,.736-2.229l9.653-.85a2.073,2.073,0,0,0,1.713-1.211L20.47,5.448A1.343,1.343,0,0,1,22.858,5.445Z" transform="translate(-4.002 -4.719)" fill="#fdd835"/>
        <g id="Group_4040" data-name="Group 4040" transform="translate(17.321 3.361)">
          <path id="Path_9972" data-name="Path 9972" d="M65.6,23.443l-.85-8.437c-.034-.47-.131-1.276.623-1.276.6,0,.921,1.242.921,1.242l2.551,6.774c.962,2.577.567,3.461-.362,3.984C67.418,26.326,65.844,25.86,65.6,23.443Z" transform="translate(-64.728 -13.73)" fill="#ffff8d"/>
        </g>
        <g id="Group_4041" data-name="Group 4041" transform="translate(21.189 12.842)">
          <path id="Path_9973" data-name="Path 9973" d="M89.52,59.415,96.838,53.7c.362-.3,1.015-.783.492-1.332-.414-.433-1.533.19-1.533.19l-6.4,2.5c-1.91.66-3.178,1.637-3.29,2.868C85.958,59.576,87.431,60.84,89.52,59.415Z" transform="translate(-86.093 -52.22)" fill="#f4b400"/>
        </g>
      </g>
    </g>
    <g id="Group_4048" data-name="Group 4048" transform="translate(72 236.389)">
      <g id="Group_4042-2" data-name="Group 4042">
        <path id="Path_9971-2" data-name="Path 9971" d="M22.858,5.445l3.963,8.876a2.073,2.073,0,0,0,1.713,1.211l9.653.85a1.3,1.3,0,0,1,.736,2.229l-7.272,6a2.013,2.013,0,0,0-.695,1.986l2.114,9.717a1.325,1.325,0,0,1-1.931,1.376l-8.426-4.846a2.1,2.1,0,0,0-2.1,0l-8.426,4.843a1.326,1.326,0,0,1-1.931-1.376l2.114-9.717a2.019,2.019,0,0,0-.695-1.986L4.4,18.614a1.3,1.3,0,0,1,.736-2.229l9.653-.85a2.073,2.073,0,0,0,1.713-1.211L20.47,5.448A1.343,1.343,0,0,1,22.858,5.445Z" transform="translate(-4.002 -4.719)" fill="#fdd835"/>
        <g id="Group_4040-2" data-name="Group 4040" transform="translate(17.321 3.361)">
          <path id="Path_9972-2" data-name="Path 9972" d="M65.6,23.443l-.85-8.437c-.034-.47-.131-1.276.623-1.276.6,0,.921,1.242.921,1.242l2.551,6.774c.962,2.577.567,3.461-.362,3.984C67.418,26.326,65.844,25.86,65.6,23.443Z" transform="translate(-64.728 -13.73)" fill="#ffff8d"/>
        </g>
        <g id="Group_4041-2" data-name="Group 4041" transform="translate(21.189 12.842)">
          <path id="Path_9973-2" data-name="Path 9973" d="M89.52,59.415,96.838,53.7c.362-.3,1.015-.783.492-1.332-.414-.433-1.533.19-1.533.19l-6.4,2.5c-1.91.66-3.178,1.637-3.29,2.868C85.958,59.576,87.431,60.84,89.52,59.415Z" transform="translate(-86.093 -52.22)" fill="#f4b400"/>
        </g>
      </g>
    </g>
    <g id="Group_4045" data-name="Group 4045" transform="translate(160.411 236.389)">
      <g id="Group_4042-3" data-name="Group 4042">
        <path id="Path_9971-3" data-name="Path 9971" d="M22.858,5.445l3.963,8.876a2.073,2.073,0,0,0,1.713,1.211l9.653.85a1.3,1.3,0,0,1,.736,2.229l-7.272,6a2.013,2.013,0,0,0-.695,1.986l2.114,9.717a1.325,1.325,0,0,1-1.931,1.376l-8.426-4.846a2.1,2.1,0,0,0-2.1,0l-8.426,4.843a1.326,1.326,0,0,1-1.931-1.376l2.114-9.717a2.019,2.019,0,0,0-.695-1.986L4.4,18.614a1.3,1.3,0,0,1,.736-2.229l9.653-.85a2.073,2.073,0,0,0,1.713-1.211L20.47,5.448A1.343,1.343,0,0,1,22.858,5.445Z" transform="translate(-4.002 -4.719)" fill="#fdd835"/>
        <g id="Group_4040-3" data-name="Group 4040" transform="translate(17.321 3.361)">
          <path id="Path_9972-3" data-name="Path 9972" d="M65.6,23.443l-.85-8.437c-.034-.47-.131-1.276.623-1.276.6,0,.921,1.242.921,1.242l2.551,6.774c.962,2.577.567,3.461-.362,3.984C67.418,26.326,65.844,25.86,65.6,23.443Z" transform="translate(-64.728 -13.73)" fill="#ffff8d"/>
        </g>
        <g id="Group_4041-3" data-name="Group 4041" transform="translate(21.189 12.842)">
          <path id="Path_9973-3" data-name="Path 9973" d="M89.52,59.415,96.838,53.7c.362-.3,1.015-.783.492-1.332-.414-.433-1.533.19-1.533.19l-6.4,2.5c-1.91.66-3.178,1.637-3.29,2.868C85.958,59.576,87.431,60.84,89.52,59.415Z" transform="translate(-86.093 -52.22)" fill="#f4b400"/>
        </g>
      </g>
    </g>
    <g id="Group_4046" data-name="Group 4046" transform="translate(204.616 236.389)">
      <g id="Group_4042-4" data-name="Group 4042">
        <path id="Path_9971-4" data-name="Path 9971" d="M22.858,5.445l3.963,8.876a2.073,2.073,0,0,0,1.713,1.211l9.653.85a1.3,1.3,0,0,1,.736,2.229l-7.272,6a2.013,2.013,0,0,0-.695,1.986l2.114,9.717a1.325,1.325,0,0,1-1.931,1.376l-8.426-4.846a2.1,2.1,0,0,0-2.1,0l-8.426,4.843a1.326,1.326,0,0,1-1.931-1.376l2.114-9.717a2.019,2.019,0,0,0-.695-1.986L4.4,18.614a1.3,1.3,0,0,1,.736-2.229l9.653-.85a2.073,2.073,0,0,0,1.713-1.211L20.47,5.448A1.343,1.343,0,0,1,22.858,5.445Z" transform="translate(-4.002 -4.719)" fill="#fdd835"/>
        <g id="Group_4040-4" data-name="Group 4040" transform="translate(17.321 3.361)">
          <path id="Path_9972-4" data-name="Path 9972" d="M65.6,23.443l-.85-8.437c-.034-.47-.131-1.276.623-1.276.6,0,.921,1.242.921,1.242l2.551,6.774c.962,2.577.567,3.461-.362,3.984C67.418,26.326,65.844,25.86,65.6,23.443Z" transform="translate(-64.728 -13.73)" fill="#ffff8d"/>
        </g>
        <g id="Group_4041-4" data-name="Group 4041" transform="translate(21.189 12.842)">
          <path id="Path_9973-4" data-name="Path 9973" d="M89.52,59.415,96.838,53.7c.362-.3,1.015-.783.492-1.332-.414-.433-1.533.19-1.533.19l-6.4,2.5c-1.91.66-3.178,1.637-3.29,2.868C85.958,59.576,87.431,60.84,89.52,59.415Z" transform="translate(-86.093 -52.22)" fill="#f4b400"/>
        </g>
      </g>
    </g>
    <g id="Group_4047" data-name="Group 4047" transform="translate(248.822 236.389)">
      <g id="Group_4042-5" data-name="Group 4042">
        <path id="Path_9971-5" data-name="Path 9971" d="M22.858,5.445l3.963,8.876a2.073,2.073,0,0,0,1.713,1.211l9.653.85a1.3,1.3,0,0,1,.736,2.229l-7.272,6a2.013,2.013,0,0,0-.695,1.986l2.114,9.717a1.325,1.325,0,0,1-1.931,1.376l-8.426-4.846a2.1,2.1,0,0,0-2.1,0l-8.426,4.843a1.326,1.326,0,0,1-1.931-1.376l2.114-9.717a2.019,2.019,0,0,0-.695-1.986L4.4,18.614a1.3,1.3,0,0,1,.736-2.229l9.653-.85a2.073,2.073,0,0,0,1.713-1.211L20.47,5.448A1.343,1.343,0,0,1,22.858,5.445Z" transform="translate(-4.002 -4.719)" fill="#fdd835"/>
        <g id="Group_4040-5" data-name="Group 4040" transform="translate(17.321 3.361)">
          <path id="Path_9972-5" data-name="Path 9972" d="M65.6,23.443l-.85-8.437c-.034-.47-.131-1.276.623-1.276.6,0,.921,1.242.921,1.242l2.551,6.774c.962,2.577.567,3.461-.362,3.984C67.418,26.326,65.844,25.86,65.6,23.443Z" transform="translate(-64.728 -13.73)" fill="#ffff8d"/>
        </g>
        <g id="Group_4041-5" data-name="Group 4041" transform="translate(21.189 12.842)">
          <path id="Path_9973-5" data-name="Path 9973" d="M89.52,59.415,96.838,53.7c.362-.3,1.015-.783.492-1.332-.414-.433-1.533.19-1.533.19l-6.4,2.5c-1.91.66-3.178,1.637-3.29,2.868C85.958,59.576,87.431,60.84,89.52,59.415Z" transform="translate(-86.093 -52.22)" fill="#f4b400"/>
        </g>
      </g>
    </g>
  </g>
</svg>
