<svg xmlns="http://www.w3.org/2000/svg" width="61" height="41" viewBox="0 0 61 41"><defs><style>.a{fill:#fff;}.b{fill:#00a9b3;}</style></defs><g transform="translate(-43 -291)"><rect class="a" width="61" height="41" transform="translate(43 291)"/><path class="b" d="M34.144,40.893a.655.655,0,0,0-.476-.192.706.706,0,0,0-.476.192l-8.959,8.968-4.046-4.054a.655.655,0,0,0-.475-.192.706.706,0,0,0-.476.192l-.943.943a.67.67,0,0,0,0,.943l5.464,5.464a.655.655,0,0,0,.476.192.69.69,0,0,0,.476-.192L35.1,42.77a.67.67,0,0,0,0-.943ZM50.72,53.356H45.381V34.544A2.61,2.61,0,0,0,42.712,32H10.678a2.61,2.61,0,0,0-2.669,2.544V53.356H2.669A2.667,2.667,0,0,0,0,56.025V66.7a2.667,2.667,0,0,0,2.669,2.669H50.72A2.667,2.667,0,0,0,53.39,66.7V56.025A2.667,2.667,0,0,0,50.72,53.356ZM10.678,34.669H42.712V60.03H10.678ZM50.72,66.7H2.669V56.025H8.008v4H6.14a.744.744,0,0,0-.8.667v1.335a.744.744,0,0,0,.8.667H47.25a.744.744,0,0,0,.8-.667V60.7a.744.744,0,0,0-.8-.667H45.381v-4H50.72Z" transform="translate(47.001 261)"/></g></svg>