<svg xmlns="http://www.w3.org/2000/svg" xmlns:xlink="http://www.w3.org/1999/xlink" width="36" height="36" viewBox="0 0 36 36">
  <defs>
    <style>
      .cls-1 {
        clip-path: url(#clip-Logo_tiktok);
      }

      .cls-2 {
        fill: #ebebeb;
      }

      .cls-3 {
        fill: #f00044;
      }

      .cls-4 {
        fill: #08fff9;
      }
    </style>
    <clipPath id="clip-Logo_tiktok">
      <rect width="36" height="36"/>
    </clipPath>
  </defs>
  <g id="Logo_tiktok" class="cls-1">
    <g id="Grupo_4402" data-name="Grupo 4402" transform="translate(43)">
      <rect id="Rectángulo_962" data-name="Rectángulo 962" class="cls-2" width="36" height="36" rx="10" transform="translate(-43 0)"/>
    </g>
    <g id="tik-tok" transform="translate(-21.824 5.646)">
      <g id="Grupo_4401" data-name="Grupo 4401" transform="translate(32.427 2.024)">
        <path id="Trazado_9999" data-name="Trazado 9999" class="cls-3" d="M112.534,212.276a3.2,3.2,0,0,0-1.661,5.954,3.147,3.147,0,0,1-.512-1.679A3.222,3.222,0,0,1,113.6,213.3a3.348,3.348,0,0,1,1.02.16v-3.585a7.055,7.055,0,0,0-1.02-.076h-.049v2.637A3.349,3.349,0,0,0,112.534,212.276Z" transform="translate(-108.379 -201.525)"/>
        <path id="Trazado_10000" data-name="Trazado 10000" class="cls-3" d="M337.153,24H336.2a5.476,5.476,0,0,0,2.071,3.3A5.516,5.516,0,0,1,337.153,24Z" transform="translate(-325.182 -24)"/>
        <path id="Trazado_10001" data-name="Trazado 10001" class="cls-3" d="M106.222,144.4a5.548,5.548,0,0,1-1.024-.1v2.57a8.834,8.834,0,0,1-3.492-.708A9.123,9.123,0,0,1,99.72,145l.018,7.923a6.628,6.628,0,0,1-1.986,4.712,6.756,6.756,0,0,1-3.777,1.888,7.049,7.049,0,0,1-1.02.076A6.764,6.764,0,0,1,88.8,158.2a6.04,6.04,0,0,0,.432.468,6.787,6.787,0,0,0,4.8,1.964,7.053,7.053,0,0,0,1.02-.076,6.756,6.756,0,0,0,3.777-1.888,6.628,6.628,0,0,0,1.986-4.712l-.067-7.923a8.75,8.75,0,0,0,1.986,1.158,8.945,8.945,0,0,0,3.492.708" transform="translate(-88.8 -138.942)"/>
      </g>
      <path id="Trazado_10002" data-name="Trazado 10002" class="cls-4" d="M32.846,189.8a6.777,6.777,0,0,1,4.756-1.973v-.949a7.047,7.047,0,0,0-1.02-.076,6.771,6.771,0,0,0-4.805,1.973,6.656,6.656,0,0,0,.009,9.477,6.786,6.786,0,0,0,.637.557,6.634,6.634,0,0,1-1.559-4.271A6.715,6.715,0,0,1,32.846,189.8Z" transform="translate(0 -177.525)"/>
      <path id="Trazado_10003" data-name="Trazado 10003" class="cls-4" d="M386.1,100.158V99.2H386.1a5.435,5.435,0,0,1-3.3-1.1A5.441,5.441,0,0,0,386.1,100.158Z" transform="translate(-337.279 -92.776)"/>
      <path id="Trazado_10004" data-name="Trazado 10004" class="cls-4" d="M147.347,20.2a3.346,3.346,0,0,0,1.2-.156,3.21,3.21,0,0,0,2.222-3.042l0-5.3V2.024h2.547A5.549,5.549,0,0,1,153.217,1h-3.509v9.678l0,5.3a3.21,3.21,0,0,1-2.222,3.042,3.16,3.16,0,0,1-1.2.156,3.268,3.268,0,0,1-1.479-.45,3.249,3.249,0,0,0,2.547,1.479Z" transform="translate(-109.879)"/>
      <path id="Trazado_10005" data-name="Trazado 10005" d="M60.533,44.584A6.756,6.756,0,0,0,64.31,42.7,6.628,6.628,0,0,0,66.3,37.984l-.018-7.923a8.749,8.749,0,0,0,1.986,1.158,8.945,8.945,0,0,0,3.492.708v-2.57a5.441,5.441,0,0,1-3.3-2.058A5.456,5.456,0,0,1,66.381,24H63.829v9.678l0,5.3A3.21,3.21,0,0,1,61.6,42.019a3.16,3.16,0,0,1-1.2.156A3.249,3.249,0,0,1,57.852,40.7a3.2,3.2,0,0,1,1.661-5.954,3.348,3.348,0,0,1,1.02.16V32.27a6.777,6.777,0,0,0-4.756,1.973A6.671,6.671,0,0,0,53.8,38.977a6.585,6.585,0,0,0,1.559,4.271,6.774,6.774,0,0,0,4.155,1.407A6.47,6.47,0,0,0,60.533,44.584Z" transform="translate(-22.931 -21.976)"/>
    </g>
  </g>
</svg>
