<svg xmlns="http://www.w3.org/2000/svg" width="16.2" height="16.2" viewBox="0 0 16.2 16.2">
  <g id="Alerta_confirmar_correo" data-name="Alerta confirmar correo" transform="translate(16.1 16.1) rotate(180)">
    <path id="Trazado_786" data-name="Trazado 786" d="M8,0a8,8,0,1,0,8,8A8,8,0,0,0,8,0ZM8,14.857A6.857,6.857,0,1,1,14.857,8,6.857,6.857,0,0,1,8,14.857Z" fill="#3a226a" stroke="#3a226a" stroke-width="0.2"/>
    <path id="Trazado_787" data-name="Trazado 787" d="M.3,0H1.52V6.025H.3ZM.912,7.668A.87.87,0,0,0,0,8.489a.87.87,0,0,0,.912.822.87.87,0,0,0,.912-.822A.87.87,0,0,0,.912,7.668Z" transform="translate(7.088 3.649)" fill="#3a226a" stroke="#3a226a" stroke-width="0.2"/>
  </g>
</svg>
