<svg xmlns="http://www.w3.org/2000/svg" width="17" height="17" viewBox="0 0 17 17"><defs><style>.a{fill:#00a9b3;}</style></defs><g transform="translate(-19.5 -24)"><path class="a" d="M10.5,2A8.5,8.5,0,1,0,19,10.5,8.5,8.5,0,0,0,10.5,2ZM6.857,16.8V15.588a1.955,1.955,0,0,1,1.821-2.052h3.643a1.955,1.955,0,0,1,1.821,2.058v1.214a7.237,7.237,0,0,1-7.286,0Zm8.5-.886v-.37a3.163,3.163,0,0,0-3.036-3.224H8.679a3.157,3.157,0,0,0-3.036,3.224h0V15.9a7.286,7.286,0,1,1,9.714,0Z" transform="translate(17.5 22)"/><path class="a" d="M14.036,7a3.036,3.036,0,1,0,3.036,3.036A3.036,3.036,0,0,0,14.036,7Zm0,4.857a1.821,1.821,0,1,1,1.821-1.821A1.821,1.821,0,0,1,14.036,11.857Z" transform="translate(13.964 20.238)"/></g></svg>