<svg xmlns="http://www.w3.org/2000/svg" width="22.053" height="22.053" viewBox="0 0 22.053 22.053"><defs><style>.a{fill:#37236a;}</style></defs><g transform="translate(-19.5 -24)"><path class="a" d="M13.027,2A11.027,11.027,0,1,0,24.053,13.027,11.027,11.027,0,0,0,13.027,2ZM8.3,21.2V19.627a2.536,2.536,0,0,1,2.363-2.662H15.39a2.536,2.536,0,0,1,2.363,2.67V21.21a9.388,9.388,0,0,1-9.451,0Zm11.027-1.15v-.48A4.1,4.1,0,0,0,15.39,15.39H10.664a4.1,4.1,0,0,0-3.938,4.182h0v.465a9.451,9.451,0,1,1,12.6,0Z" transform="translate(17.5 22)"/><path class="a" d="M14.938,7a3.938,3.938,0,1,0,3.938,3.938A3.938,3.938,0,0,0,14.938,7Zm0,6.3A2.363,2.363,0,1,1,17.3,10.938,2.363,2.363,0,0,1,14.938,13.3Z" transform="translate(15.589 21.201)"/></g></svg>