<svg xmlns="http://www.w3.org/2000/svg" xmlns:xlink="http://www.w3.org/1999/xlink" width="135.358" height="94.027" viewBox="0 0 135.358 94.027">
  <defs>
    <clipPath id="clip-path">
      <rect id="Rectángulo_3619" data-name="Rectángulo 3619" width="135.358" height="94.027" fill="#f3f1f6"/>
    </clipPath>
  </defs>
  <g id="Grupo_13222" data-name="Grupo 13222" transform="translate(0 0.004)">
    <g id="Grupo_13221" data-name="Grupo 13221" transform="translate(0 -0.004)" clip-path="url(#clip-path)">
      <path id="Trazado_37584" data-name="Trazado 37584" d="M71.88,139.461H177.634a8.007,8.007,0,0,0,0-16.014H143.149a8.007,8.007,0,0,0-8.007-8.007H79.762a8.007,8.007,0,0,0-8.007,8.007v0a8.006,8.006,0,0,0,.125,16.012" transform="translate(-58.437 -105.616)" fill="#f3f1f6"/>
      <path id="Trazado_37585" data-name="Trazado 37585" d="M135.358,497.5h0a17.144,17.144,0,0,0-17.144-17.144H17.144a17.144,17.144,0,0,0-.836,34.268c0,.007,0,.014,0,.021A18.856,18.856,0,0,0,35.164,533.5H111.61A18.868,18.868,0,0,0,129.9,510.045a17.1,17.1,0,0,0,5.459-12.544M34.663,525.3a1.587,1.587,0,1,1,1.588-1.588,1.587,1.587,0,0,1-1.588,1.588" transform="translate(0 -439.475)" fill="#f3f1f6"/>
      <path id="Trazado_37586" data-name="Trazado 37586" d="M1090.959,94.764a2.121,2.121,0,1,0-2.121-2.121,2.123,2.123,0,0,0,2.121,2.121m0-3.309a1.189,1.189,0,1,1-1.188,1.189,1.19,1.19,0,0,1,1.188-1.189" transform="translate(-996.17 -82.818)" fill="#f7f7f7"/>
      <path id="Trazado_37587" data-name="Trazado 37587" d="M554.105,392.03q-.047,0-.095,0c-.158-.015-3.931-.381-9.623-1.552a119.444,119.444,0,0,1-12.515-3.275,87.044,87.044,0,0,1-16.824-7.3,50.2,50.2,0,0,1-14.522-12.141c-3.5-4.453-5.307-9.07-5.366-13.722a17.811,17.811,0,0,1,.265-3.3,79.577,79.577,0,0,1-11.754-14.731.988.988,0,1,1,1.675-1.047,79.174,79.174,0,0,0,10.626,13.521,19.246,19.246,0,0,1,3.282-6.161,24.884,24.884,0,0,1,13.887-8.562,27.606,27.606,0,0,1,8.852-.629,27.939,27.939,0,0,1,9.134,2.436,21.958,21.958,0,0,1,9.5,7.626,11.873,11.873,0,0,1,1.844,9.093,13.011,13.011,0,0,1-6.079,8.108,24.771,24.771,0,0,1-13.131,3.287c-8.2,0-16.272-3.2-23.988-9.506q-1.082-.884-2.1-1.806c-.413,4.616,1.231,9.491,4.909,14.167,6.284,7.99,16.512,14.31,30.4,18.784a117.5,117.5,0,0,0,12.307,3.22c5.579,1.147,9.375,1.517,9.413,1.521a.988.988,0,0,1-.093,1.971m-56.543-42c6.66,6.258,15.4,11.676,25.7,11.676a22.824,22.824,0,0,0,12.083-2.986,11.063,11.063,0,0,0,5.2-6.854c1.2-5.506-2.722-11.063-10.236-14.5-11.763-5.384-23.978-.834-29.5,6.18a17.125,17.125,0,0,0-3.246,6.486" transform="translate(-442.37 -304.672)" fill="#8c80b4"/>
      <path id="Trazado_37588" data-name="Trazado 37588" d="M1050.295,833.749a.542.542,0,0,1-.112-.012c-5.446-1.138-13.332-3.347-19.969-7.407a.543.543,0,1,1,.567-.927c6.5,3.979,14.261,6.15,19.624,7.27a.543.543,0,0,1-.111,1.075" transform="translate(-942.298 -755.082)" fill="#8c80b4"/>
      <path id="Trazado_37589" data-name="Trazado 37589" d="M380.019,326.056a.541.541,0,0,1-.362-.138c-6.248-5.592-10.941-16.565-11.138-17.029a.543.543,0,0,1,1-.424c.047.112,4.8,11.215,10.862,16.644a.543.543,0,0,1-.362.948" transform="translate(-337.116 -281.908)" fill="#8c80b4"/>
      <path id="Trazado_37590" data-name="Trazado 37590" d="M327.142,32.459s3.139-4.848.7-9.9C324.5,15.62,316.3,16.155,314.1,11.6c0,0-2.474,11.153,3.62,16.81,5.159,4.788,9.422,4.045,9.422,4.045" transform="translate(-286.913 -10.615)" fill="#f3f1f6"/>
      <path id="Trazado_37591" data-name="Trazado 37591" d="M315.852,22.868c-1.6,0-5.266-.49-9.425-4.35-2.687-2.494-4.212-6.371-4.411-11.21a27.9,27.9,0,0,1,.5-6.538.988.988,0,0,1,1.853-.217c.833,1.72,2.816,2.644,5.111,3.714,3.108,1.449,6.631,3.092,8.635,7.246,2.647,5.486-.623,10.646-.764,10.863a.988.988,0,0,1-.66.436,5.24,5.24,0,0,1-.839.056m.67-1.029h0Zm0,0h0ZM304.12,3.416c-.344,3.4-.375,9.917,3.652,13.655a14.24,14.24,0,0,0,6.085,3.552,8.108,8.108,0,0,0,2.066.27c.625-1.2,2.186-4.844.413-8.52-1.7-3.52-4.745-4.94-7.691-6.314a18.174,18.174,0,0,1-4.525-2.642" transform="translate(-276.292 0.004)" fill="#8c80b4"/>
      <path id="Trazado_37592" data-name="Trazado 37592" d="M368.8,110.11s5.658,10.672,12.424,15.142" transform="translate(-337.412 -100.739)" fill="#fff"/>
      <path id="Trazado_37593" data-name="Trazado 37593" d="M370.6,115.62a.984.984,0,0,1-.544-.164c-6.9-4.557-12.516-15.059-12.752-15.5a.988.988,0,1,1,1.745-.925c.061.114,5.626,10.506,12.1,14.78a.988.988,0,0,1-.545,1.812" transform="translate(-326.791 -90.118)" fill="#8c80b4"/>
      <path id="Trazado_37594" data-name="Trazado 37594" d="M261.1,663.7s1.433-5.6-2.483-9.606c-5.385-5.515-12.98-2.4-16.519-6.015,0,0,1.2,11.361,8.781,14.785,6.414,2.9,10.22.837,10.22.837" transform="translate(-221.492 -592.919)" fill="#f3f1f6"/>
      <path id="Trazado_37595" data-name="Trazado 37595" d="M246.78,654.776a16.807,16.807,0,0,1-6.929-1.635c-3.341-1.51-6.02-4.7-7.748-9.224a27.9,27.9,0,0,1-1.608-6.357.988.988,0,0,1,1.688-.8c1.337,1.365,3.511,1.611,6.027,1.895,3.408.385,7.27.821,10.492,4.122,4.255,4.358,2.8,10.291,2.733,10.541a.987.987,0,0,1-.486.623,9.264,9.264,0,0,1-4.168.83m3.7-1.7h0Zm0,0h0Zm-17.62-13.52c.757,3.338,2.8,9.521,7.807,11.783a14.24,14.24,0,0,0,6.9,1.431,8.067,8.067,0,0,0,2.045-.4c.211-1.338.531-5.288-2.32-8.208-2.73-2.8-6.07-3.174-9.3-3.539a18.175,18.175,0,0,1-5.13-1.065" transform="translate(-210.873 -582.301)" fill="#8c80b4"/>
      <path id="Trazado_37596" data-name="Trazado 37596" d="M326.214,726.527a.989.989,0,0,1-.255-.033c-7.988-2.125-16.657-10.293-17.022-10.64a.988.988,0,0,1,1.36-1.433c.086.081,8.673,8.169,16.17,10.164a.988.988,0,0,1-.253,1.943" transform="translate(-282.362 -653.37)" fill="#8c80b4"/>
      <path id="Trazado_37597" data-name="Trazado 37597" d="M1301.371,612.759h-3.665v-3.665a.916.916,0,0,0-1.833,0v3.665h-3.665a.916.916,0,1,0,0,1.833h3.665v3.665a.916.916,0,0,0,1.833,0v-3.665h3.665a.916.916,0,1,0,0-1.833" transform="translate(-1181.394 -556.416)" fill="#fff"/>
      <path id="Trazado_37598" data-name="Trazado 37598" d="M708.1,198.353a1.039,1.039,0,1,1-1.039-1.039,1.039,1.039,0,0,1,1.039,1.039" transform="translate(-645.935 -180.521)" fill="#8c80b4"/>
    </g>
  </g>
</svg>
