<svg xmlns="http://www.w3.org/2000/svg" width="36" height="36" viewBox="0 0 36 36"><defs><style>.a{fill:#ebebeb;}.b{fill:red;}</style></defs><g transform="translate(-240 -3793)"><rect class="a" width="36" height="36" rx="10" transform="translate(240 3793)"/><path class="b" d="M20,4.49l-1.46-.15a64.12,64.12,0,0,0-13.14,0L4,4.49A3.38,3.38,0,0,0,1,7.9v8.2a3.38,3.38,0,0,0,3,3.41l1.46.15a64.119,64.119,0,0,0,13.14,0l1.4-.15a3.38,3.38,0,0,0,3-3.41V7.9a3.38,3.38,0,0,0-3-3.41Zm-5,8.13-3.89,2.6A.75.75,0,0,1,10,14.6V9.4a.75.75,0,0,1,1.17-.62l3.89,2.6a.74.74,0,0,1,0,1.24Z" transform="translate(246 3799)"/></g></svg>