<svg xmlns="http://www.w3.org/2000/svg" width="65" height="65" viewBox="0 0 65 65"><g transform="translate(2 267)"><rect width="65" height="65" transform="translate(-2 -267)" fill="#fff" opacity="0"/><g transform="translate(-4.042 -273.134)"><g transform="translate(12.092 15)"><path d="M34.936,30.852l.414,18.2H55.119l-.833-22.9H48.939v2.4a.881.881,0,0,1-.294,1.711H47.472a.881.881,0,0,1-.294-1.711v-2.4H36.61v2.4a.881.881,0,0,1-.294,1.711H35.142a.881.881,0,0,1-.294-1.711v-2.4H29.5l-.171,4.7ZM33.627,50.815H13.933l-.08,3.523a.587.587,0,0,0,.519.583l.068,0H33.134a.587.587,0,0,0,.571-.532l0-.069Zm1.841,3.469a2.35,2.35,0,0,1-.073.641h19.35a.587.587,0,0,0,.564-.54v-.069l-.128-3.5H35.39Zm-2.255-21.67H14.347l-.373,16.44H33.587Zm-13.25,3.523a.881.881,0,0,1,.294,1.711v2.4a3.523,3.523,0,0,0,7.043.132l0-.132v-2.4a.881.881,0,0,1,.293-1.711h1.174a.881.881,0,0,1,.294,1.711v2.4A5.284,5.284,0,0,1,18.5,40.4l0-.156v-2.4a.881.881,0,0,1,.293-1.711Zm21.93-19.375a5.284,5.284,0,0,0-5.282,5.128l0,.156v2.349H47.178V22.046A5.284,5.284,0,0,0,41.894,16.761ZM14.44,56.686a2.349,2.349,0,0,1-2.349-2.349l.533-23.485H27.568l.235-6.458h7.045V22.046a7.046,7.046,0,0,1,14.089-.179l0,.179v2.349h7.046l1.086,29.858a2.349,2.349,0,0,1-2.262,2.432l-.085,0Z" transform="translate(-12.092 -15)" fill="#37236a"/></g></g></g></svg>