<svg xmlns="http://www.w3.org/2000/svg" width="65" height="65" viewBox="0 0 65 65"><g transform="translate(2 267)"><rect width="65" height="65" transform="translate(-2 -267)" fill="#fff" opacity="0"/><g transform="translate(46.69 -269.69) rotate(90)"><path d="M27.643,28.823a.571.571,0,1,1,0-1.141.571.571,0,0,0,.571-.571V15.7a1.714,1.714,0,0,1,1.712-1.712h2.191a.57.57,0,0,0,.446-.927l-9.039-11.3a.589.589,0,0,0-.891,0l-9.039,11.3a.571.571,0,0,0,.445.927h2.191A1.714,1.714,0,0,1,17.941,15.7V27.111a.571.571,0,0,0,.571.571H25.36a.571.571,0,0,1,0,1.141H18.511A1.714,1.714,0,0,1,16.8,27.111V15.7a.571.571,0,0,0-.571-.571H14.038A1.712,1.712,0,0,1,12.7,12.344l9.039-11.3a1.712,1.712,0,0,1,2.674,0l9.039,11.3a1.712,1.712,0,0,1-1.337,2.782H29.925a.571.571,0,0,0-.571.571V27.111A1.714,1.714,0,0,1,27.643,28.823Z" transform="translate(0 0)" fill="#37236a" stroke="#37236a" stroke-width="0.5"/></g><g transform="translate(13.464 -201.536) rotate(-90)"><path d="M27.643,28.823a.571.571,0,1,1,0-1.141.571.571,0,0,0,.571-.571V15.7a1.714,1.714,0,0,1,1.712-1.712h2.191a.57.57,0,0,0,.446-.927l-9.039-11.3a.589.589,0,0,0-.891,0l-9.039,11.3a.571.571,0,0,0,.445.927h2.191A1.714,1.714,0,0,1,17.941,15.7V27.111a.571.571,0,0,0,.571.571H25.36a.571.571,0,0,1,0,1.141H18.511A1.714,1.714,0,0,1,16.8,27.111V15.7a.571.571,0,0,0-.571-.571H14.038A1.712,1.712,0,0,1,12.7,12.344l9.039-11.3a1.712,1.712,0,0,1,2.674,0l9.039,11.3a1.712,1.712,0,0,1-1.337,2.782H29.925a.571.571,0,0,0-.571.571V27.111A1.714,1.714,0,0,1,27.643,28.823Z" transform="translate(0 0)" fill="#37236a" stroke="#37236a" stroke-width="0.5"/></g></g></svg>