<svg xmlns="http://www.w3.org/2000/svg" width="65" height="65" viewBox="0 0 65 65"><g transform="translate(2 267)"><rect width="65" height="65" transform="translate(-2 -267)" fill="#fff" opacity="0"/><g transform="translate(10 -261.075)"><path d="M39.184,26.72a3.293,3.293,0,0,0-1.207-2.531,3.234,3.234,0,0,0,1.207-2.531,3.29,3.29,0,0,0-3.27-3.27H30.969A10.815,10.815,0,0,0,34.356,7.876a2.859,2.859,0,0,0-2.57-1.986A2.7,2.7,0,0,0,29.139,7.6c-1.791,4.088-8.76,7.4-8.838,7.436-.039.039-.117.078-.156.117l-8.41,7.008H5.9c-.039,0-.117-.039-.156-.039H5.545A.532.532,0,0,0,5,22.671V38.478a.557.557,0,0,0,.545.545h6.7l4.244,1.129c.078,0,.117.039.195.039H33.694a3.29,3.29,0,0,0,3.27-3.27,3.1,3.1,0,0,0-.662-1.947,3.259,3.259,0,0,0,1.479-5.529A3.445,3.445,0,0,0,39.184,26.72Zm-7.475-1.791h4.2a1.791,1.791,0,0,1,0,3.582h-4.2a.74.74,0,1,0,0,1.479h3.815a1.791,1.791,0,1,1,0,3.582H31.708a.739.739,0,0,0-.74.74v.078a.739.739,0,0,0,.74.74h1.986a1.791,1.791,0,1,1,0,3.582H16.8l-4.244-1.129c-.078,0-.117-.039-.195-.039l-6.074.039V23.644h5.723a.954.954,0,0,0,.467-.156L21.041,16.4c.857-.428,7.514-3.777,9.461-8.137a1.249,1.249,0,0,1,1.207-.857,1.357,1.357,0,0,1,1.246.934c.156.584,1.479,5.684-4.2,10.084H27.7a.74.74,0,0,0,0,1.479h8.254a1.791,1.791,0,0,1,0,3.582h-4.2a.739.739,0,0,0-.74.74A.675.675,0,0,0,31.708,24.929Z" fill="#37236a"/></g></g></svg>