<svg xmlns="http://www.w3.org/2000/svg" width="65" height="65" viewBox="0 0 65 65"><g transform="translate(2 267)"><rect width="65" height="65" transform="translate(-2 -267)" fill="#fff" opacity="0"/><g transform="translate(11 -252)"><path d="M45.742,19a.871.871,0,0,1,.871.871V21.9H53a2.323,2.323,0,0,1,2.323,2.323V52.677A2.323,2.323,0,0,1,53,55H19.323A2.323,2.323,0,0,1,17,52.677V24.226A2.323,2.323,0,0,1,19.323,21.9H25.71V19.871a.871.871,0,0,1,1.742,0V21.9H44.871V19.871A.871.871,0,0,1,45.742,19Zm7.839,12.194H18.742V52.677a.581.581,0,0,0,.513.577l.068,0H53a.581.581,0,0,0,.577-.513l0-.068ZM53,23.645H46.613V25.1a.871.871,0,1,1-1.742,0V23.645H27.452V25.1a.871.871,0,0,1-1.742,0V23.645H19.323a.581.581,0,0,0-.577.513l0,.068v5.226H53.581V24.226A.581.581,0,0,0,53,23.645ZM26.29,43.968a.581.581,0,0,1,.581.581v4.645a.581.581,0,0,1-.581.581H21.645a.581.581,0,0,1-.581-.581V44.548a.581.581,0,0,1,.581-.581Zm8.129,0a.581.581,0,0,1,.581.581v4.645a.581.581,0,0,1-.581.581H29.774a.581.581,0,0,1-.581-.581V44.548a.581.581,0,0,1,.581-.581Zm8.129,0a.581.581,0,0,1,.581.581v4.645a.581.581,0,0,1-.581.581H37.9a.581.581,0,0,1-.581-.581V44.548a.581.581,0,0,1,.581-.581ZM51,44.223a.871.871,0,0,1,.06,1.166l-.06.066-1.417,1.416L51,48.287a.871.871,0,0,1-1.166,1.292l-.066-.06L48.355,48.1l-1.416,1.417-.066.06a.871.871,0,0,1-1.225-1.225l.06-.066,1.417-1.416-1.417-1.416a.871.871,0,0,1,1.166-1.292l.066.06,1.416,1.417,1.416-1.417.066-.06A.871.871,0,0,1,51,44.223ZM25.129,45.71H22.806v2.323h2.323Zm8.129,0H30.935v2.323h2.323Zm8.129,0H39.065v2.323h2.323ZM26.29,34.677a.581.581,0,0,1,.581.581V39.9a.581.581,0,0,1-.581.581H21.645a.581.581,0,0,1-.581-.581V35.258a.581.581,0,0,1,.581-.581Zm8.129,0a.581.581,0,0,1,.581.581V39.9a.581.581,0,0,1-.581.581H29.774a.581.581,0,0,1-.581-.581V35.258a.581.581,0,0,1,.581-.581Zm8.129,0a.581.581,0,0,1,.581.581V39.9a.581.581,0,0,1-.581.581H37.9a.581.581,0,0,1-.581-.581V35.258a.581.581,0,0,1,.581-.581Zm8.129,0a.581.581,0,0,1,.581.581V39.9a.581.581,0,0,1-.581.581H46.032a.581.581,0,0,1-.581-.581V35.258a.581.581,0,0,1,.581-.581ZM25.129,36.419H22.806v2.323h2.323Zm8.129,0H30.935v2.323h2.323Zm8.129,0H39.065v2.323h2.323Zm8.129,0H47.194v2.323h2.323Z" transform="translate(-17 -19)" fill="#37236a" fill-rule="evenodd"/></g></g></svg>