<svg xmlns="http://www.w3.org/2000/svg" width="65" height="65" viewBox="0 0 65 65"><g transform="translate(2 267)"><rect width="65" height="65" transform="translate(-2 -267)" fill="#fff" opacity="0"/><g transform="translate(7 -261.608)"><g transform="translate(2 5)"><path d="M44.829,20.97H33.616l-1.463-2.337a9.467,9.467,0,0,0-6.024-4.224l-6.258-1.344L14.953,5.336A.727.727,0,0,0,14.34,5H2.726a.725.725,0,0,0-.591,1.148L9.388,16.3l3.193,4.668h-2.6a.726.726,0,0,0-.726.726v2.178H7.081a.726.726,0,0,0-.726.726V43.473a.726.726,0,0,0,.726.726H41.925a.726.726,0,0,0,.726-.726V41.3h2.178a.726.726,0,0,0,.726-.726V21.7A.726.726,0,0,0,44.829,20.97ZM30.922,19.4,31.9,20.97H21.773a2.163,2.163,0,0,0-1.5.6c-.026.025-.044.059-.069.085A2.183,2.183,0,0,0,19.92,22v0h0a2.193,2.193,0,0,0-.21.463c0,.014-.015.027-.019.042a2.159,2.159,0,0,0,.137,1.613l1.132,2.258a1.174,1.174,0,0,1,.127.532,1.225,1.225,0,0,1-.488.973,1.211,1.211,0,0,1-1.558-.094,1.224,1.224,0,0,1-.157-.186l-7.7-11.252,8.243-1.9,6.4,1.374A8.009,8.009,0,0,1,30.922,19.4ZM8.71,12.855l8.477-1.3,1.072,1.684-7.964,1.838Zm5.232-6.4,2.393,3.761L7.765,11.531,4.137,6.452ZM41.2,42.747H7.807V25.326H9.259V40.57a.726.726,0,0,0,.726.726H41.2Zm2.9-2.9H10.711V22.422h2.862l4.111,6.008a2.637,2.637,0,0,0,1.763,1.118,2.719,2.719,0,0,0,.434.035c.022,0,.043,0,.065-.005.041,0,.082-.007.123-.01a2.6,2.6,0,0,0,.369-.052c.047-.01.092-.022.138-.034a2.609,2.609,0,0,0,.345-.123c.041-.018.082-.033.122-.052a2.639,2.639,0,0,0,1.493-2.392,2.62,2.62,0,0,0-.28-1.182l-1.132-2.261a.715.715,0,0,1,.031-.706c.009-.014.025-.034.038-.052s.018-.028.033-.045a.707.707,0,0,1,.548-.248H44.1Z" transform="translate(-2 -5)" fill="#37236a"/><path d="M35.355,35a4.355,4.355,0,1,0,4.355,4.355A4.36,4.36,0,0,0,35.355,35Zm0,7.259a2.9,2.9,0,1,1,2.9-2.9A2.907,2.907,0,0,1,35.355,42.259Z" transform="translate(-9.949 -13.223)" fill="#37236a"/><path d="M44,32.726a.726.726,0,0,0,.726.726h4.7l1.837,2.723v4.718l-1.837,2.723h-4.7a.726.726,0,1,0,0,1.452h5.081a.727.727,0,0,0,.6-.32l2.178-3.226a.728.728,0,0,0,.124-.406V35.952a.728.728,0,0,0-.124-.406L50.409,32.32a.727.727,0,0,0-.6-.32H44.726A.726.726,0,0,0,44,32.726Z" transform="translate(-13.512 -12.4)" fill="#37236a"/><path d="M25.985,44.163h-4.7L19.452,41.44V36.722l1.074-1.59a.726.726,0,0,0-1.2-.812l-1.2,1.774A.727.727,0,0,0,18,36.5v5.162a.728.728,0,0,0,.124.406L20.3,45.295a.727.727,0,0,0,.6.32h5.081a.726.726,0,1,0,0-1.452Z" transform="translate(-6.385 -12.948)" fill="#37236a"/></g></g></g></svg>