<svg xmlns="http://www.w3.org/2000/svg" width="64" height="64" viewBox="0 0 64 64"><defs><style>.a{fill:none;}.b{fill:rgba(141,126,183,0.3);}.c{fill:#37236a;}</style></defs><rect class="a" width="64" height="64"/><circle class="b" cx="10.5" cy="10.5" r="10.5" transform="translate(18 5)"/><circle class="b" cx="12" cy="12" r="12" transform="translate(27 35)"/><g transform="translate(-571.374 -376.549)"><path class="c" d="M598.1,429.549a6.834,6.834,0,0,1-6.555-4.927c-.016,0-.016-.016-.016-.032l-2.027-8.023a32.928,32.928,0,0,0-1.8-5.2l-.163-.371a1.9,1.9,0,0,1-.176-.784,1.923,1.923,0,0,1,1.915-1.926,8.209,8.209,0,0,1,6.768,3.562l.063.1V392.735a3.722,3.722,0,0,1,6.354-2.646,3.838,3.838,0,0,1,1.129,2.646v12.9a.445.445,0,0,1,.127-.064,3.235,3.235,0,0,1,1.345-.29,3.338,3.338,0,0,1,3.044,1.991c.111-.065.241-.129.366-.192a3.438,3.438,0,0,1,4.554,1.7l.012.028a3.464,3.464,0,0,1,5.331,2.953v10.868a6.906,6.906,0,0,1-6.879,6.916H598.1ZM589.309,410.2h0l.159.369a35.016,35.016,0,0,1,1.9,5.5l2.027,8.007a4.926,4.926,0,0,0,1.766,2.568,4.841,4.841,0,0,0,2.934.983h13.4a4.983,4.983,0,0,0,4.963-4.99v-10.9a1.574,1.574,0,0,0-1.551-1.556h-.029a1.574,1.574,0,0,0-1.1.475,1.537,1.537,0,0,0-.445,1.113v3.274a.958.958,0,0,1-1.915.062v-4.842a1.563,1.563,0,0,0-1.213-1.508,1.521,1.521,0,0,0-1.828,1.138l-.008.033v4.109a.961.961,0,0,1-.957.962h-.032a.962.962,0,0,1-.958-.962v-3.788a2.684,2.684,0,0,1,.032-.514v-1.091a1.429,1.429,0,1,0-2.857.016l.031,5.376a.958.958,0,0,1-1.915.062v-4a.772.772,0,0,1-.047-.273V392.735a1.789,1.789,0,0,0-1.765-1.813h-.035a1.811,1.811,0,0,0-1.8,1.813v26.174a.958.958,0,0,1-1.915.062v-3.64L594.5,412.94A6.3,6.3,0,0,0,589.309,410.2Z"/><path class="c" d="M593.325,390.547a.987.987,0,0,1-.448-.107l-7.952-4a1,1,0,1,1,.9-1.787l7.952,4a1,1,0,0,1-.45,1.894Z"/><path class="c" d="M605.769,390.547a1,1,0,0,1-.45-1.894l7.952-4a1,1,0,1,1,.9,1.787l-7.952,4A.987.987,0,0,1,605.769,390.547Z"/><path class="c" d="M585.375,398.991a1,1,0,0,1-.45-1.893l7.952-4a1,1,0,1,1,.9,1.787l-7.952,4A1,1,0,0,1,585.375,398.991Z"/><path class="c" d="M613.719,398.991a1,1,0,0,1-.448-.106l-7.952-4a1,1,0,0,1,.9-1.787l7.952,4a1,1,0,0,1-.45,1.893Z"/></g></svg>