<svg xmlns="http://www.w3.org/2000/svg" width="75" height="75" viewBox="0 0 75 75"><g transform="translate(-2985 247)"><rect width="75" height="75" transform="translate(2985 -247)" fill="#fff" opacity="0"/><g transform="translate(2143 -812)"><path d="M-2383.2,851.576a6.828,6.828,0,0,1-4.118-1.367,6.826,6.826,0,0,1-2.477-3.562c-.016,0-.016-.016-.016-.032l-2.04-8.028a32.779,32.779,0,0,0-1.814-5.2l-.16-.369a1.877,1.877,0,0,1-.176-.787,1.929,1.929,0,0,1,1.927-1.927,8.268,8.268,0,0,1,6.808,3.565l.065.1v-19.22a3.745,3.745,0,0,1,3.741-3.741,3.746,3.746,0,0,1,2.653,1.094,3.832,3.832,0,0,1,1.136,2.647v12.91a.507.507,0,0,1,.129-.064,3.288,3.288,0,0,1,1.352-.29,3.363,3.363,0,0,1,3.063,1.992c.115-.065.246-.131.37-.193a3.464,3.464,0,0,1,1.43-.308,3.47,3.47,0,0,1,3.162,2.042,3.528,3.528,0,0,1,1.879-.546,3.5,3.5,0,0,1,3.484,3.5v10.871a6.928,6.928,0,0,1-6.921,6.92H-2383.2Zm-8.843-19.365h0l.16.369a35.127,35.127,0,0,1,1.911,5.508l2.04,8.012a4.927,4.927,0,0,0,1.78,2.565,4.886,4.886,0,0,0,2.952.984h13.476a5,5,0,0,0,4.994-4.993v-10.9a1.582,1.582,0,0,0-1.56-1.558h-.029a1.591,1.591,0,0,0-1.113.478,1.536,1.536,0,0,0-.445,1.111v3.276a.964.964,0,0,1-.963.963.965.965,0,0,1-.964-.963v-4.785a1.568,1.568,0,0,0-1.22-1.509,1.54,1.54,0,0,0-.346-.04,1.538,1.538,0,0,0-1.5,1.212v4.11a.965.965,0,0,1-.964.963h-.031a.965.965,0,0,1-.964-.963V832.26a2.661,2.661,0,0,1,.032-.514v-1.093a1.439,1.439,0,0,0-1.445-1.428,1.439,1.439,0,0,0-1.429,1.445l.032,5.379a.965.965,0,0,1-.964.963.964.964,0,0,1-.963-.963v-3.934a.748.748,0,0,1-.049-.273v-17.1a1.8,1.8,0,0,0-1.813-1.814,1.817,1.817,0,0,0-1.815,1.814V840.93a.964.964,0,0,1-.963.963.965.965,0,0,1-.964-.963v-3.581l-1.653-2.392a6.35,6.35,0,0,0-5.218-2.746Z" transform="translate(3258.242 -228.276)" fill="#f55"/><line x1="8" y1="4" transform="translate(862.242 579.275)" fill="none" stroke="#f55" stroke-linecap="round" stroke-width="2"/><line y1="4" x2="8" transform="translate(882.758 579.275)" fill="none" stroke="#f55" stroke-linecap="round" stroke-width="2"/><line x1="8" y2="4" transform="translate(862.242 587.725)" fill="none" stroke="#f55" stroke-linecap="round" stroke-width="2"/><line x2="8" y2="4" transform="translate(882.758 587.725)" fill="none" stroke="#f55" stroke-linecap="round" stroke-width="2"/></g></g></svg>