<svg xmlns="http://www.w3.org/2000/svg" width="75" height="75" viewBox="0 0 75 75"><g transform="translate(-2985 247)"><rect width="75" height="75" transform="translate(2985 -247)" fill="#fff" opacity="0"/><g transform="translate(2054 -806)"><path d="M188.391,124.751H178.083l-5.1-4.589a.522.522,0,0,0-.742.039.541.541,0,0,0-.138.348v4.2h-2.626a1.572,1.572,0,0,0-1.576,1.576v14.707a1.572,1.572,0,0,0,1.576,1.576h18.908a1.572,1.572,0,0,0,1.576-1.576h0V126.327A1.562,1.562,0,0,0,188.391,124.751Zm-17.333,4.2h5.778a.525.525,0,0,1,0,1.05h-5.778a.525.525,0,1,1,0-1.05Zm15.757,9.454H171.058a.525.525,0,1,1,0-1.05h15.757a.525.525,0,1,1,0,1.05Zm0-4.2H171.058a.525.525,0,1,1,0-1.05h15.757a.525.525,0,1,1,0,1.05Z" transform="translate(813.649 472.875)" fill="none" stroke="#f55" stroke-width="1.5"/><path d="M52.154,64.973a5.474,5.474,0,0,0-4.906-5.433V50.856a2.943,2.943,0,0,0-4.514-2.5,36.837,36.837,0,0,1-20.691,6.77H12.906A4.9,4.9,0,0,0,8,60.03v9.812a4.9,4.9,0,0,0,4.906,4.906h.221l3.348,12.535a2.941,2.941,0,0,0,2.845,2.183h4.6a2.944,2.944,0,0,0,2.944-2.944,3.022,3.022,0,0,0-.147-.932L23.111,74.8a37.809,37.809,0,0,1,19.624,6.684A2.944,2.944,0,0,0,47.248,79v-8.61A5.445,5.445,0,0,0,52.154,64.973ZM9.962,69.879V60.067a2.937,2.937,0,0,1,2.944-2.944h7.85v15.7h-7.85a2.937,2.937,0,0,1-2.944-2.944v0ZM23.92,87.541h-4.6a.987.987,0,0,1-.981-.724L15.163,74.773H21.05l3.814,11.456a.973.973,0,0,1-.613,1.239,1.033,1.033,0,0,1-.331.049Zm21.366-8.512a.984.984,0,0,1-.981.981.918.918,0,0,1-.527-.159,38.419,38.419,0,0,0-21.059-7.04v-15.7a39.137,39.137,0,0,0,21.059-7.089.989.989,0,0,1,1.361.294,1.021,1.021,0,0,1,.159.527V79.029Zm1.962-10.585V61.576a3.5,3.5,0,0,1,0,6.918Z" transform="translate(923.684 527.59)" fill="#f55"/></g></g></svg>