<svg xmlns="http://www.w3.org/2000/svg" xmlns:xlink="http://www.w3.org/1999/xlink" width="348" height="311" viewBox="0 0 348 311"><defs><filter id="a" x="0" y="0" width="269" height="98" filterUnits="userSpaceOnUse"><feOffset dy="8" input="SourceAlpha"/><feGaussianBlur stdDeviation="4" result="b"/><feFlood flood-color="#8d7eb7" flood-opacity="0.251"/><feComposite operator="in" in2="b"/><feComposite in="SourceGraphic"/></filter><filter id="c" x="121" y="107" width="227" height="98" filterUnits="userSpaceOnUse"><feOffset dy="8" input="SourceAlpha"/><feGaussianBlur stdDeviation="4" result="d"/><feFlood flood-color="#8d7eb7" flood-opacity="0.251"/><feComposite operator="in" in2="d"/><feComposite in="SourceGraphic"/></filter><filter id="e" x="7" y="213" width="233" height="98" filterUnits="userSpaceOnUse"><feOffset dy="8" input="SourceAlpha"/><feGaussianBlur stdDeviation="4" result="f"/><feFlood flood-color="#8d7eb7" flood-opacity="0.251"/><feComposite operator="in" in2="f"/><feComposite in="SourceGraphic"/></filter></defs><g transform="translate(-6 -512)"><path d="M119.5,0h2.892l.076,0h.869l.058,0,.057,0h.132l.115,0,.059,0h.014l.117,0h.007l.053,0h.009l.056,0h0l.122,0h0l.059,0h0l.124,0h0l.061,0h0q1.559.052,3.108.137l-.164,3C124.743,3.072,122.108,3,119.5,3V0Zm15.97.876q.875.1,1.746.2h0l.122.015h0l.055.007h.007l.119.015h.008l.051.006h.01l.116.015h.012l.048.006h.011l.058.007h0l.053.007.016,0,.041.005.017,0,.055.007h.009l.047.006.018,0,.04.005.017,0,.054.007.014,0,.043.006.019,0,.039.005.018,0,.053.007.017,0,.04.005.021,0,.039.005.017,0,.054.007.015,0,.042.006.019,0,.04.005.017,0,.054.007.016,0,.04.005.02,0,.041.006.015,0,.053.007.019,0,.038.005.02,0,.04.005.016,0,.054.007.017,0,.04.005.02,0,.043.006.012,0,.054.007.018,0,.039.005.019,0,.043.006.012,0,.054.008.017,0,.04.006.018,0,.05.007h0l.055.008.018,0,.041.006.016,0,.054.008h0l.056.008.015,0,.043.006.016,0,.112.016.014,0,.045.006.013,0,.114.016.012,0,.047.007.011,0,.057.008h0l.054.008.015,0,.046.007.012,0,.057.008h0l.053.008.012,0,.049.007h.009l.058.009h0l.053.008.014,0,.047.007h.01l.057.008h.009l.048.007.014,0,.047.007.01,0,.056.009h.01l.046.007.016,0,.045.007.011,0,.055.008.013,0,.044.007.016,0,.043.007.014,0,.053.008.018,0,.038.006.02,0,.041.006.014,0,.052.008.022,0,.034.005.021,0,.037.006.02,0,.049.008.025,0,.028,0,.027,0,.029,0,.042.007.031,0,.029,0,.025,0,.029,0,.023,0,.058.009.017,0,.035.006.015,0,.037.006h.007l.129.021h.006q.475.076.947.156l-.5,2.958c-2.556-.43-5.165-.793-7.754-1.079ZM151.238,3.53l.036.008.01,0,.035.008.019,0,.033.008.034.008.038.009.028.006.026.006.033.008.021,0,.05.011.021,0,.035.008.02,0,.051.012.013,0,.044.01.017,0,.044.01.011,0,.056.013.008,0,.048.011.013,0,.113.026.01,0,.051.012.007,0,.117.028.006,0,.119.028h0l.057.014h.005l.119.028h0l.18.043h0l.181.043h0l.12.029h0l.179.044h0l.121.029h0l.061.015h0l.121.03h0l.181.045h0l.119.03h0l.056.014h0l.117.029.007,0,.115.029.008,0,.051.013.007,0,.116.029.007,0,.052.013.006,0,.057.014.006,0,.049.013.012,0,.111.028.013,0,.046.012.011,0,.055.014.006,0,.049.012.015,0,.044.011.013,0,.053.014.013,0,.042.011.016,0,.049.013.007,0,.051.013.02.005.036.009.018,0,.051.013.018,0,.036.009.022.006.036.009.018,0,.05.013.021.005.033.009.023.006.039.01.029.007.033.009.026.007.028.007.025.006.047.012.023.006.029.008.026.007.026.007.043.011.03.008.027.007.025.007L156,4.7l.029.008.042.011.026.007.028.008.024.006.028.007.045.012.027.007.026.007.028.007.024.006.046.012.028.007.026.007.028.008.025.007.039.011.033.009.025.007.028.008.025.007.04.011.032.009.028.008.024.007.028.008.027.007.044.012.027.007.027.007.027.007.026.007.046.013.025.007.028.008.025.007.033.009.018.005.049.014.021.006.034.009.021.006.05.014.015,0,.039.011.02.006.037.01.016,0,.052.014.013,0,.04.011.017,0,.051.014h0l.055.015.011,0,.048.013.007,0,.115.032h.005l.175.049h0q.478.135.954.273l-.835,2.881c-2.486-.721-5.035-1.38-7.576-1.958ZM166.6,7.986l.8.286h0l.12.044.008,0,.112.041.014.005.031.011.02.007.051.018.022.008.028.01.025.009.024.009.046.017.021.008.033.012.02.007.043.016.013,0,.046.017.017.006.04.015.014.005.051.019.012,0,.044.016.011,0,.054.02h0l.053.02.009,0,.11.041.007,0,.054.02h0q1.233.46,2.452.943h0l.115.046h0l.056.022,0,0,.11.044.008,0,.109.043.009,0,.048.019.007,0,.053.021.01,0,.043.017.013.005.1.041.016.006.038.015.016.006.047.019.019.008.032.013.02.008.046.019.018.007.032.013.023.009.029.012.035.014.029.012.027.011.022.009.1.041.016.006.032.013.012,0,.062.026.012,0,.034.014.011,0,.111.045.008,0,.118.048h0c.469.193.933.388,1.4.586l-1.175,2.76c-2.377-1.012-4.827-1.968-7.282-2.841Zm14.711,6.268q1.378.691,2.731,1.412h0l.108.057,0,0,.053.028h0l.053.029.005,0,.048.026.006,0,.052.028.005,0,.045.024.011.006.05.027,0,0,.046.025.011.006.05.027h0l.046.025.015.008.042.023.008,0,.045.024.017.009.037.02.011.006.045.024.019.01.032.017.017.009.044.024.018.01.031.017.018.01.043.024.018.01.03.017.02.011.039.021.024.013.027.015.023.012.027.014.037.02.024.013.024.013.025.013.036.02.026.014.025.014.021.011.041.023.023.013.026.014.019.01.093.051.017.009.029.016h0l.065.036.014.008.03.017.011.006.056.031.013.007.032.017.009,0,.062.034.008,0,.033.018.009.005.1.058.006,0,.1.058.008,0,.106.06h0q.963.54,1.913,1.1l-1.515,2.59c-2.225-1.3-4.534-2.553-6.862-3.721Zm13.8,8.077q1.21.82,2.392,1.665l0,0,.1.071,0,0,.1.069.009.006.094.068.005,0,.1.069.007,0,.1.069,0,0,.1.07.006,0,.1.069.005,0,.1.07,0,0,.1.072h0l.1.072,0,0,.1.071h0l.1.072,0,0,.1.073h0l.1.073h0c.9.662,1.78,1.332,2.654,2.017l-1.85,2.362c-2.024-1.585-4.142-3.128-6.3-4.589l1.683-2.484Zm12.582,9.862.009.008.03.027.013.012.037.034.013.012.029.026.013.011.037.033.015.014.028.026.012.011.038.034.014.012.03.028.014.012.033.03.017.015.029.027.018.017.028.026.016.015.036.033.013.012.027.025.017.015.035.032.016.014.025.023.016.015.035.032.016.015.025.023.016.014.035.032.016.015.026.024.016.015.034.031.016.015.027.025.02.019.028.026.016.015.032.03.016.015.028.026.015.014.036.033.014.013.027.025.014.013.036.034.013.012.029.027.013.012.036.034.015.014.028.027.011.011.036.034.015.014.03.028.012.011.035.033.014.013.033.031.012.011.032.03.013.012.038.036.008.008.033.031.012.011.039.037.007.007.034.033.009.009.039.037.009.008.034.032.008.007.04.037.009.008.038.036,0,0,.041.039.008.007.083.079.007.006.084.08.005.005.042.041,0,0,.042.04,0,0,.043.042,0,0,.043.041h0l.043.042,0,0,.087.083,0,0,.086.083,0,0,.088.085h0l.089.087h0q.942.914,1.857,1.847v0l.085.086,0,0,.083.085,0,0,.082.084,0,.005.041.042,0,0,.038.039.005.006.039.04.007.008.033.034.008.008.036.038.011.011.031.032.008.008.036.037.013.013.028.029.017.018.026.027.016.016.025.026.023.024.02.021.019.019.022.023.029.03.014.014.074.077.009.009.078.082,0,0,.151.159-2.174,2.068c-1.766-1.856-3.638-3.683-5.566-5.428ZM218.7,43.781q2.536,3.12,4.789,6.406l-2.475,1.7c-1.444-2.107-3.006-4.2-4.642-6.21l2.328-1.892Zm9.027,13.188.123.218h0l.015.027h0l.06.107,0,0,.013.024,0,.006.013.023,0,0,.041.073,0,.008.012.021.005.009.011.02.006.01.025.044v0l.011.019.006.011.01.017.008.014.01.017.007.012.022.039,0,.007.009.017.008.015.009.016.008.015.009.016.011.019.006.011.017.03.006.01.012.021.007.012.011.019.007.013.011.02.006.01.016.03.007.012.011.019.007.013.01.019.007.012.013.023,0,.008.017.031.005.009.013.023.006.01.012.022.006.011.013.023,0,.008.017.031,0,.009.013.024.005.009.012.022.006.01.013.024,0,.008.017.032,0,0,.015.027,0,.008.013.024,0,.009.015.029v0l.018.033,0,0,.016.029,0,.006.014.027,0,.006.017.031h0l.036.067,0,0,.016.03,0,0,.017.031v0l.036.067,0,0,.015.028,0,.006.016.03v0l.035.066,0,.006.014.027,0,.007.016.029v0l.035.067,0,0,.015.028,0,.005.016.03v0l.035.066,0,.006.014.026,0,.009.013.025,0,.007.017.032h0l.017.032,0,.008.012.024.006.011.012.023,0,.009.034.065,0,.006.014.027,0,.008.014.027,0,.005.034.066,0,.007.013.025,0,.009.013.025,0,.007.016.031v0l.017.032,0,.008.013.024.005.01.011.022.005.01.012.023.006.012.014.028.006.012.01.02.007.013.011.021.006.011.013.025,0,.007.016.031.005.01.011.021.007.013.009.018.007.014.009.018.011.022.011.022.007.014.009.017.008.015.008.016.008.016.007.013.015.03.008.016.008.016.008.015.009.017.007.014.009.018.006.012.023.046h0l.01.019.006.012.009.019.006.012.01.019.006.011.034.067.006.011.01.019.006.011.01.019,0,.009.036.072,0,.006.011.022,0,.008.011.023,0,0,.039.078,0,0,.013.026v0l.069.138h0q.741,1.48,1.425,2.984l-2.731,1.242c-1.056-2.322-2.238-4.639-3.512-6.887Zm6.608,14.548q1.314,3.774,2.271,7.668l-2.914.715c-.608-2.479-1.345-4.967-2.19-7.4Zm3.8,15.517q.248,1.706.426,3.429h0l0,.03v0l.012.12v0l.012.12v0l0,.029v0l.012.118V90.9l0,.026v.007l0,.026v0l.006.059h0l0,.026v.008l0,.025v.008l0,.026h0l.006.059v0l0,.026v.008l0,.025v.009l.008.084v0l0,.026v.008l0,.026V91.4l.007.082v.01l0,.024v.01l0,.025v.007l.007.081v.01l0,.024v.01l0,.025v.005l0,.055v0l0,.024v.01l0,.024v.009l0,.025v0l0,.056v0l0,.024v.011l0,.023v.01l.007.085v0l0,.026v.008l0,.025v.007l.007.084v.006l0,.026v.008l0,.026v0l.007.087v.005l0,.026v.008l0,.027v0l.007.09v0l0,.028v0l.009.121v0l0,.029v0l.009.121v0q.078,1.062.13,2.13l-3,.144c-.123-2.559-.372-5.14-.74-7.671Zm-2.228,15.816,3,.143c-.038.79-.087,1.58-.147,2.365h0l-.012.156v0l-.009.115v.006l0,.031v.009l0,.032v0l0,.038v0l0,.032v.011l0,.025v.012l0,.029v.007l0,.035v.012l0,.025v.013l0,.023v.014l0,.026v.01l0,.034v.015l0,.021v.016l0,.019v.017l0,.019,0,.029,0,.019,0,.018v.017l0,.02v.013l0,.022v.006l0,.048v.01l0,.023v.012l0,.023v.009l-.008.084v0l0,.027v.006l-.014.152h0l-.015.154h0q-.155,1.633-.373,3.25h0l0,.029v0l-.016.116v.008l0,.024v.01l0,.023v.009l-.006.044,0,.012,0,.02,0,.016,0,.018,0,.019,0,.016,0,.033,0,.012,0,.024,0,.012,0,.025,0,.012,0,.028v.007l-.005.036v.005l0,.033v.006l0,.033v0l-.028.194-2.969-.431C235.537,107.989,235.786,105.408,235.908,102.849ZM233.7,118.087l2.914.714q-.372,1.52-.8,3.022v0l-.033.117v0l-.008.027v.005l-.007.026,0,.007-.022.077,0,.01-.006.021,0,.014-.005.019,0,.017,0,.016-.007.024-.007.024,0,.017-.005.018,0,.017,0,.016-.006.021,0,.013-.01.033,0,.007-.008.027,0,.012-.007.024,0,.011-.007.025,0,.009-.02.07,0,.008-.008.027,0,.008-.009.031v0l-.022.073h0l-.01.035v0l-.01.035h0q-.338,1.135-.707,2.259h0l-.012.037h0l-.024.073v0l-.01.031,0,.007-.009.027,0,.008-.023.069,0,.009-.008.024,0,.013-.007.02,0,.015-.007.02-.005.016-.009.028-.006.018,0,.015-.007.02,0,.012-.007.021,0,.009-.027.081h0l-.009.028v0q-.139.414-.283.826l-2.833-.986C232.352,123.055,233.088,120.566,233.7,118.087Zm-5.06,14.564,2.731,1.242q-.8,1.769-1.686,3.5h0l-.053.1h0l-.016.031,0,0-.052.1,0,0-.015.029,0,.006-.016.032h0l-.035.068,0,0-.014.028,0,.007-.014.028,0,0-.034.067,0,0-.015.028,0,.007-.014.028,0,0-.034.066,0,.008-.012.024-.005.01-.013.025,0,.007-.034.065,0,.006-.014.026,0,.008-.014.028,0,0-.035.066,0,.006-.013.025,0,.009-.013.026,0,.007-.034.065,0,.007-.013.025-.006.01-.012.023,0,.009-.016.031h0l-.017.032,0,.008-.012.023-.006.012-.012.022,0,.009-.016.031h0l-.017.032,0,.008-.013.025,0,.009-.014.027,0,0-.035.066,0,.005-.014.027,0,.009-.014.026,0,.005-.035.066v0l-.016.03,0,.006-.015.028,0,0-.053.1,0,.006-.016.029v0l-.055.1v0l-.073.136h0c-.282.52-.567,1.035-.859,1.55l-2.61-1.479C226.4,137.291,227.579,134.973,228.635,132.652Zm-7.613,13.454,2.475,1.7q-1.16,1.692-2.4,3.343l0,0-.072.1,0,0-.017.023v0l-.074.1h0l-.017.023,0,0-.051.068,0,.005-.015.02-.006.008-.015.019,0,.006-.049.064-.006.008-.014.019-.007.009-.013.017-.009.012-.022.029-.009.012-.012.015-.009.012-.011.015-.012.015-.01.013-.015.02-.011.015-.015.02-.008.011-.014.018-.01.013-.013.017-.008.011-.021.028-.006.007-.017.022-.007.01-.015.019-.008.01-.018.024,0,0-.023.03,0,0-.019.024-.007.009-.016.02-.008.01-.045.058,0,0-.02.026,0,.006-.02.026,0,0-.047.061,0,0-.02.025,0,.005-.02.026,0,0-.047.06,0,0-.021.027,0,0-.071.091,0,0-.022.029h0l-.072.093v0l-.1.124h0l-.073.093h0l-.024.03h0l-.147.186v0l-.022.028,0,0-.022.028,0,0-.048.06,0,0-.02.025,0,.006-.02.026,0,0-.046.058-.007.009-.017.021-.006.007-.047.059,0,0-.019.024-.007.009-.017.021-.006.008-.02.025,0,.005-.022.027-.007.009-.015.019-.009.011-.015.019-.008.009-.022.027-.006.007-.016.021-.009.012-.013.016-.011.013-.012.015-.01.013-.019.023-.013.016-.011.013-.013.016-.007.009-.015.019,0,.005-.054.067,0,0-.017.021,0,0-.2.242-2.328-1.892C218.016,150.3,219.578,148.213,221.022,146.105Zm-9.77,12.04,2.174,2.067q-2.739,2.881-5.725,5.585l-2.014-2.224C207.613,161.829,209.486,160,211.251,158.146Zm-11.519,10.443,1.85,2.362,0,0-.045.035,0,0-.048.037,0,0-.1.075h0l-.048.037h0l-.049.038h0l-.048.038h0l-.048.038h0q-.392.3-.788.606h0l-.1.075h0l-.1.075h0l-.2.15h0l-.1.074h0l-.2.15h0l-.1.074h0l-.1.074h0l-.1.073,0,0-.1.073h0l-.049.036h0l-.048.036,0,0-.046.034h0l-.048.036,0,0-.1.071,0,0-.047.034h0l-.049.036,0,0-.047.035h0l-.048.036,0,0-.047.034h0l-.048.036,0,0-.047.034h0l-.048.035-.006,0-.045.033,0,0-.048.035-.005,0-.044.032,0,0-.046.033-.008.006-.042.03-.005,0-.046.034-.007,0-.046.033h0l-.048.035-.006,0-.045.032,0,0-.047.034-.007,0-.044.032,0,0-.047.034-.007,0-.045.032,0,0-.048.035,0,0-.047.034h0l-.049.035,0,0-.1.07,0,0-.049.035h0l-.049.035-.005,0-.047.034h0l-.05.035,0,0-.1.07,0,0-.048.034h0l-.05.035,0,0-.1.07,0,0-.1.07,0,0-.1.071h0l-.2.143h0q-.821.577-1.654,1.142l-1.683-2.483C195.591,171.717,197.709,170.173,199.733,168.589Zm-12.9,8.748,1.515,2.589-.556.323,0,0-.1.061-.01.005-.067.038h0l-.029.017-.017.01-.042.024-.023.013-.026.015-.021.012-.024.014-.037.021-.023.013-.028.016-.02.011-.039.022-.018.01-.034.02-.016.009-.041.023-.01.006-.044.025-.014.008-.041.023-.007,0-.048.027-.01.006-.045.026,0,0-.051.029,0,0-.049.028,0,0-.106.06h0l-.107.06h0q-2.6,1.468-5.3,2.823l-1.345-2.681C182.3,179.89,184.612,178.638,186.837,177.336Zm-13.95,7,1.176,2.76-.2.084,0,0-.112.048-.01,0-.034.014-.01,0-.064.027-.011,0-.03.013-.02.009-.028.012-.042.018-.024.01-.027.011-.022.009-.041.017-.018.008-.038.016-.016.007-.044.018-.007,0-.052.022-.01,0-.046.019-.009,0-.054.023h0l-.055.023,0,0q-3.157,1.313-6.419,2.474l-1.005-2.826C168.06,186.31,170.51,185.354,172.887,184.341Zm-14.725,5.242.836,2.881q-3.815,1.107-7.745,2l-.666-2.925C153.127,190.963,155.676,190.3,158.162,189.583Zm-15.253,3.477.5,2.958-.122.02h0l-.183.03h0l-.181.03h0l-.12.02h0l-.057.009h0l-.119.019h0l-.055.009h-.006l-.117.019h-.009l-.052.008h-.007l-.116.019h-.009l-.05.008h-.009l-.114.018-.013,0-.046.007-.012,0-.056.009h-.005l-.05.008-.016,0-.042.007-.015,0-.055.009h-.009l-.045.007-.02,0-.039.006-.017,0-.053.008-.018,0-.036.006-.024,0-.032,0-.023,0-.051.008-.02,0-.034.005-.025,0-.03,0-.025,0-.049.007-.027,0-.027,0-.029,0-.026,0-.034.005-.042.006-.029,0-.023,0-.032,0-.022,0-.06.009-.017,0-.032,0-.021,0-.033,0-.019,0-.064.01-.015,0-.034.005-.018,0-.036.005-.012,0-.122.018-.011,0-.04.006h-.006l-.128.019h-.009l-.178.026h0l-.182.026h0c-1.452.207-2.917.392-4.386.555l-.33-2.982C137.744,193.853,140.353,193.49,142.909,193.06Zm-15.561,1.725.164,3-.146.008h-.007l-.126.007-.049,0h-.024l-.03,0-.069,0-.036,0H127l-.056,0-.055,0-.069,0-.046,0h-.014l-.052,0h0l-.121.006h-.005l-.058,0h0q-1.489.071-2.989.113h0l-.061,0h0l-.183,0h-.067l-.13,0h-.06l-.128,0h-.119l-.072,0h-1.323l-.139,0h-.053l-.14,0h-1.538v-3C122.122,195,124.758,194.928,127.349,194.785Zm-23.474-.642c2.577.285,5.2.5,7.806.644l-.164,3-.051,0h-.016l-.054,0h-.019l-.061,0-.057,0-.038,0-.04,0-.027,0-.031,0-.055,0h-.019l-.066,0-.053,0-.054,0h-.008l-.084,0-.046,0-.052,0h0l-.137-.008h-.005l-.184-.011-.05,0h0l-.141-.009h0c-.332-.021-.661-.043-.992-.067h0l-.184-.013h-.005l-.18-.013h-.012l-.176-.013-.053,0h-.006l-.089-.007-.039,0-.053,0h-.015l-.076-.006-.042,0-.053,0-.021,0-.056,0-.024,0-.029,0-.026,0-.03,0-.026,0-.028,0-.049,0-.056,0-.056,0-.026,0-.05,0-.057,0-.058,0-.021,0-.053,0H107.5l-.041,0-.019,0-.041,0h-.015l-.057,0h-.006l-.052,0h-.015l-.046,0H107.2l-.058,0h0l-.057,0h-.012l-.047,0h-.011l-.118-.01h-.008l-.053,0h-.007l-.121-.011h0l-.056,0h-.006l-.121-.011h0l-.059-.005h0l-.184-.017h0q-.868-.079-1.732-.169h0l-.121-.013h0l-.058-.006h-.005l-.12-.013h0l-.054-.006h-.01l-.053-.006h0l-.057-.006h-.012l-.045,0-.017,0-.042,0-.014,0-.054-.006-.017,0-.037,0-.025,0-.031,0-.024,0-.045,0-.032,0-.026,0-.031,0-.044,0Zm-15.432-2.595c2.526.575,5.109,1.085,7.678,1.516l-.5,2.959q-1.8-.3-3.578-.649h0l-.177-.035-.009,0-.055-.011h0l-.058-.011-.009,0-.046-.009-.017,0-.049-.01h-.005l-.055-.011-.016,0-.04-.008-.017,0-.052-.01-.009,0-.047-.009-.02,0-.036-.007-.02,0-.051-.01-.018,0-.036-.007-.024,0-.032-.006-.023,0-.049-.01-.022,0-.031-.006-.025-.005-.028-.006-.043-.009-.029-.006-.03-.006-.022,0-.031-.006-.019,0-.062-.013-.015,0-.035-.007-.015,0-.036-.007h-.006l-.076-.016-.012,0-.038-.008-.011,0-.122-.025-.009,0-.04-.008H90.3L90.175,195h0l-.177-.037h0c-.743-.156-1.479-.318-2.216-.485Zm-15.02-4.356c2.437.866,4.942,1.673,7.444,2.4l-.835,2.881q-.453-.131-.9-.266h0l-.058-.017h0l-.058-.017h0l-.051-.015-.012,0-.055-.016h0l-.053-.016-.017,0-.041-.012-.013,0-.052-.016-.016,0-.038-.011-.02-.006-.039-.012-.024-.007-.039-.012-.023-.007-.03-.009-.024-.007-.046-.014-.024-.007-.026-.008-.028-.008-.026-.008-.045-.014-.025-.008-.03-.009-.021-.006-.105-.032-.018-.006-.032-.01-.015,0-.064-.02-.012,0-.034-.01-.016,0-.11-.034-.015,0-.034-.011-.013,0-.072-.022h0l-.038-.012-.01,0-.116-.036-.01,0-.037-.012-.007,0-.075-.023-.006,0-.036-.011-.013,0-.111-.035-.014,0-.034-.011-.013,0-.059-.019-.02-.006-.03-.009-.022-.007-.029-.009-.033-.01-.039-.012-.023-.007-.028-.009-.025-.008-.044-.014-.027-.008-.026-.008-.027-.008-.026-.008-.045-.014-.024-.008-.028-.009-.024-.008L76.5,191.4l-.028-.009-.037-.012-.022-.007-.033-.011-.018-.006-.049-.016-.018-.006-.036-.011-.019-.006L76.2,191.3l-.01,0-.049-.016-.016-.005-.041-.013-.013,0-.054-.017-.007,0-.047-.015-.012,0-.111-.036-.007,0-.055-.018h0l-.117-.038h0q-1.632-.533-3.24-1.105ZM59.05,181.072c2.307,1.157,4.692,2.261,7.089,3.281l-1.175,2.76q-2.635-1.121-5.192-2.347h0l-.053-.025,0,0-.054-.026,0,0-.047-.022-.011-.006-.05-.024,0,0-.043-.021-.018-.008-.039-.019-.011-.005-.047-.023-.018-.009-.032-.016-.018-.009-.043-.021-.023-.011-.025-.012-.025-.012-.027-.013-.042-.02-.018-.009-.03-.014-.013-.006-.063-.031-.006,0-.036-.018,0,0-.113-.055h0c-.382-.187-.764-.376-1.143-.566Zm-13.462-7.877c2.131,1.444,4.352,2.842,6.6,4.157l-1.514,2.59-.129-.075-.006,0-.067-.039h0l-.031-.018-.015-.009-.041-.024-.026-.015-.023-.014-.026-.016-.02-.012-.041-.024-.02-.012-.029-.017-.017-.01-.044-.026-.013-.008-.038-.022-.011-.007-.048-.029-.007,0-.045-.027-.007,0-.051-.03h0l-.051-.03,0,0-.106-.063h0q-2.022-1.206-3.98-2.48l0,0-.1-.065-.006,0-.1-.063-.01-.007-.094-.061-.011-.007-.045-.029h0l-.044-.029-.016-.011-.034-.023-.013-.008-.04-.026-.019-.012-.029-.019-.018-.012-.038-.025-.021-.014-.025-.017-.023-.015-.034-.023-.024-.016-.02-.013-.051-.034-.008-.005-.029-.019-.013-.009-.093-.062-.009-.006-.1-.066,0,0-.1-.068,0,0c-.233-.155-.461-.309-.692-.465Zm-12.253-9.6c1.9,1.722,3.906,3.408,5.955,5.012l-1.849,2.362-.01-.008-.03-.024-.017-.013-.036-.028-.015-.012-.031-.024-.016-.012-.039-.03-.015-.012-.029-.022-.016-.013-.039-.03-.015-.012-.028-.022-.017-.013-.038-.03-.016-.013-.026-.021-.018-.014-.037-.029-.018-.014-.025-.02-.018-.014-.037-.029-.019-.015-.025-.02-.017-.014-.037-.029-.019-.015-.024-.019-.022-.018-.032-.025-.022-.017-.021-.017-.027-.022-.028-.022-.02-.016-.024-.019-.028-.023-.024-.019-.022-.017-.022-.017-.032-.025-.022-.017-.022-.018-.021-.017-.035-.028-.019-.015-.023-.019-.018-.015-.038-.03-.017-.014-.024-.019-.017-.014-.039-.032-.017-.013-.024-.019-.022-.018L36,169.821l-.017-.014-.024-.02-.015-.012-.042-.034-.014-.012-.083-.067-.013-.011-.083-.067-.014-.011-.051-.041-.006-.005-.026-.021-.012-.01-.051-.041-.007-.006-.026-.021-.012-.01-.052-.043,0,0-.028-.023-.009-.008-.053-.043-.006,0-.028-.023-.008-.007-.05-.041-.01-.008-.027-.022-.008-.007-.052-.043-.008-.006-.028-.023-.006,0-.055-.045-.006-.005-.029-.024h0l-.057-.048-.008-.006-.088-.073-.008-.006-.088-.073-.006-.005-.089-.075,0,0-.09-.076,0,0-.09-.076-.005,0L34.4,168.5h0c-.3-.255-.6-.511-.905-.769l0,0-.185-.159h0c-.269-.232-.535-.463-.8-.7l0,0-.181-.16,0,0-.09-.08h0l-.09-.08,0,0-.182-.161h0l-.059-.052h0l-.089-.08,0,0-.089-.08,0,0-.087-.078-.005,0-.085-.077L31.525,166l-.085-.076-.006-.006-.085-.076-.007-.006-.02-.018Zm-10.7-11.256c1.614,1.985,3.34,3.946,5.131,5.828L25.6,160.235l0,0-.036-.038-.006-.007-.04-.042,0,0-.04-.043h0l-.041-.043,0,0-.083-.087,0,0-.084-.089h0q-2.585-2.744-4.939-5.638Zm-8.748-12.774c1.259,2.22,2.64,4.428,4.1,6.564l-2.474,1.7q-2.27-3.311-4.239-6.781ZM7.5,125.511c.839,2.409,1.806,4.82,2.874,7.167l-2.731,1.243-.158-.349h0l-.014-.032,0-.007-.013-.029,0,0-.03-.066,0-.011-.009-.021-.007-.015L7.4,133.37l-.007-.016-.006-.013-.031-.07,0-.008-.01-.022,0-.008q-.615-1.383-1.182-2.785v0l-.011-.026,0,0-.032-.08,0,0-.009-.022,0-.011-.008-.02-.005-.013-.007-.018-.007-.018-.011-.028-.006-.016-.007-.017-.006-.016-.006-.015-.008-.02-.005-.013L6,130.072v0l-.013-.033,0-.009L5.976,130l0-.009-.011-.027,0-.007-.027-.069v0l-.013-.032,0,0-.013-.034h0q-.651-1.647-1.232-3.317ZM3.835,110.549c.368,2.529.865,5.075,1.477,7.566l-2.914.715q-.95-3.872-1.532-7.849ZM.095,95.022l3,.143C3.031,96.435,3,97.725,3,99s.031,2.594.093,3.878l-3,.145c-.013-.264-.024-.525-.034-.79v-.224l0-.077v-.04q-.028-.813-.04-1.63h0q0-.061,0-.122V100.1q0-.044,0-.088v-.235q0-.024,0-.048v0c0-.007,0-.014,0-.021v-.071s0-.014,0-.018,0-.019,0-.029v-.181c0-.005,0-.01,0-.015v-.022s0-.01,0-.015,0-.017,0-.024,0-.008,0-.012v-.035s0-.006,0-.009,0-.018,0-.028v-.037S0,99.2,0,99.2s0-.017,0-.027,0-.007,0-.01,0-.022,0-.035,0-.007,0-.011,0-.018,0-.025,0-.009,0-.013,0-.018,0-.025v-.012c0-.013,0-.023,0-.036H0c0-.013,0-.023,0-.036v-.012c0-.007,0-.018,0-.025s0-.009,0-.014,0-.019,0-.026,0-.007,0-.01,0-.022,0-.036,0-.006,0-.01V98.8s0-.008,0-.012v-.027s0-.007,0-.01v-.036H0v-.073s0-.008,0-.013,0-.019,0-.026S0,98.6,0,98.6v-.044c0-.007,0-.021,0-.028s0-.009,0-.013v-.161c0-.007,0-.015,0-.021s0-.009,0-.014,0-.021,0-.034,0-.008,0-.012,0-.018,0-.024v-.052c0-.007,0-.015,0-.022s0-.012,0-.018V97.5q0-.06,0-.119v0Q.039,96.2.095,95.022ZM2.387,79.213l2.914.713c-.61,2.492-1.105,5.038-1.472,7.567L.86,87.063c.158-1.089.338-2.177.538-3.255h0l.007-.037v0l.021-.112v-.005l.006-.031v-.008l.006-.032v0l.007-.037v0l.006-.031,0-.012,0-.023,0-.014,0-.021,0-.014,0-.025,0-.024,0-.019,0-.018,0-.016,0-.02,0-.012.015-.077,0-.008,0-.024,0-.009,0-.025v-.007l.023-.118h0Q1.924,81.1,2.387,79.213ZM7.628,64.12l2.731,1.241c-1.067,2.348-2.033,4.759-2.87,7.168l-2.834-.985q.1-.295.207-.589h0l.009-.027,0-.005.009-.025,0-.007.027-.075,0-.01.007-.02,0-.013.007-.019,0-.014.007-.019.007-.02.008-.022.008-.023,0-.012.008-.023,0-.011.009-.025,0-.01.025-.068,0-.007.01-.028,0-.008.01-.027,0-.007.039-.107h0l.013-.035v0Q6.246,67.158,7.628,64.12ZM15.5,50.211l2.475,1.7c-1.464,2.137-2.843,4.346-4.1,6.566l-2.61-1.479q.915-1.615,1.9-3.2v0l.019-.031,0,0,.019-.031v0l.04-.064,0-.008.014-.023.006-.009.015-.023,0-.007.038-.06.008-.013.011-.017.009-.014.01-.016.009-.015.009-.015.021-.033,0-.008.013-.021,0-.008.013-.02.006-.009.061-.1,0,0Q14.467,51.712,15.5,50.211ZM25.564,37.8l2.174,2.067c-1.79,1.883-3.515,3.845-5.128,5.83L20.282,43.8l.023-.028,0-.006.023-.029,0,0,.044-.054.006-.008.07-.086.006-.007.072-.087,0,0,.073-.089,0,0,.048-.059h0l.074-.09,0,0,.073-.088,0-.005.074-.089h0l.125-.151,0,0,.074-.089,0,0,.073-.087.005-.006.073-.087,0,0,.047-.056,0,0,.025-.029,0,0,.047-.055.005-.006.071-.085.008-.009.07-.083.009-.01.04-.048.007-.009.022-.026.01-.011.036-.043.011-.013.021-.025.011-.013.035-.041.013-.016.02-.023.027-.031.019-.022.015-.018.024-.028.021-.025.019-.022.017-.02.024-.029.021-.024.016-.019.025-.029.018-.021.022-.026.014-.017.031-.036.013-.016.022-.026.014-.016.031-.036.014-.016.022-.026.013-.015.031-.036.013-.015.028-.032.012-.014.028-.033.012-.014.033-.038.008-.01.029-.033.009-.011.035-.04.007-.009.032-.037.006-.007.035-.04.009-.011.034-.039,0,0,.037-.043.007-.008.076-.087.005-.006.039-.044h0l.039-.044,0,0,.039-.045,0,0,.08-.091v0l.082-.093h0q1.138-1.288,2.324-2.545h0l.084-.089,0,0,.082-.087,0,0,.04-.043,0,0,.035-.037ZM37.406,27.059l1.85,2.362c-2.048,1.6-4.051,3.292-5.953,5.015l-2.014-2.223.046-.041h0l.322-.29h0l.091-.082h0l.091-.081,0,0,.09-.08,0,0,.089-.08,0,0,.088-.079,0,0,.088-.078.006,0L32.3,31.3l.006-.005.044-.039h0l.042-.037.008-.007.043-.038,0,0,.041-.036.006-.005.043-.038.005,0,.038-.033.009-.008.041-.036.008-.007.035-.031.009-.008.04-.035.01-.009.033-.029.01-.009.039-.034.011-.01.033-.029.009-.008.04-.035.012-.01.034-.029.008-.007.04-.035.012-.01.034-.029.008-.007.039-.033.014-.012.031-.027.017-.015.031-.027.016-.014.032-.028.016-.014.029-.025.017-.015.029-.025.023-.02.025-.022.018-.016.03-.026.022-.019.023-.019.019-.016.028-.024.027-.023.019-.016.021-.018.033-.028.022-.019.018-.016.022-.019.025-.022.029-.025.018-.015.033-.028L33.806,30l.024-.021.015-.012.053-.046h0l.026-.022.014-.012.041-.035.015-.013.024-.021.013-.011.051-.043,0,0,.027-.023.01-.009.051-.043.006-.005.028-.024.007-.006.056-.047,0,0,.03-.025,0,0,.055-.047.006-.005.03-.025h0l.058-.049.005,0,.03-.025h0l.058-.049.006,0,.091-.076,0,0,.091-.076.005,0,.091-.076,0,0,.093-.077,0,0,.093-.077,0,0,.093-.077,0,0,.094-.077h0l.445-.365h0l.094-.076,0,0,.094-.076h0l.093-.075.005,0,.091-.073.007-.005.089-.072.007-.006.089-.072.007-.006.059-.047h0l.029-.023.009-.008.052-.042.007-.006.028-.022.011-.009.047-.038.012-.01.026-.021.015-.012.042-.034.015-.012.026-.02.015-.012.04-.032.019-.015.022-.018.028-.022.026-.02.024-.019.02-.016.036-.029.017-.013.026-.021.018-.014.038-.03.016-.012L37,27.378l.016-.013.04-.032.011-.009L37.1,27.3l.011-.009.043-.034.009-.007.038-.03.008-.007.044-.035.008-.006.042-.033,0,0,.046-.036.006,0,.045-.035Zm13.229-8.977,1.515,2.589c-2.248,1.315-4.468,2.715-6.6,4.159l-1.684-2.483q3.081-2.089,6.33-4.008l0,0,.1-.061,0,0,.1-.06.008,0,.1-.058.011-.007.049-.029h0l.046-.027ZM64.923,10.9l1.176,2.76c-2.4,1.021-4.781,2.126-7.088,3.284l-1.346-2.681.275-.137.005,0,.1-.052.01,0,.046-.023.006,0,.051-.025.01,0,.042-.021.011-.006.048-.024.013-.006.037-.018.016-.008.046-.023L58.4,13.9l.034-.017.02-.01.035-.017.025-.012.032-.016.023-.012L58.6,13.8l.021-.01.042-.021.024-.012.025-.012.024-.012.041-.02.026-.013.02-.01.028-.014.016-.008.054-.026.015-.007.032-.015.01,0,.068-.033,0,0,.033-.016.013-.006.1-.051.008,0,.109-.053.006,0,.387-.187h0q2.571-1.233,5.217-2.361ZM79.988,5.54l.836,2.881c-2.5.726-5.006,1.534-7.443,2.4L72.375,8q1.168-.416,2.35-.812l0,0,.055-.018h0l.057-.019.005,0,.049-.016.011,0,.108-.036.014,0,.039-.013.016-.005.049-.016.019-.006.032-.011.024-.008.032-.011L75.278,7l.029-.009.027-.009.025-.008.027-.009.029-.009.044-.015.02-.007.031-.01.017-.005.063-.021.011,0,.035-.012.012,0,.115-.037.009,0c1.089-.355,2.179-.695,3.283-1.024h0L79.1,5.8h0l.077-.023.009,0,.036-.011.013,0,.11-.033.02-.006.031-.009.023-.007.047-.014.025-.007.028-.008.028-.008.023-.007.049-.014.019-.005.036-.01.019-.006.052-.015h0l.052-.015.012,0,.05-.014.005,0,.057-.017.005,0,.053-.015ZM95.578,1.984l.5,2.958c-2.569.432-5.152.943-7.677,1.519l-.667-2.925c1.967-.448,3.947-.855,5.954-1.22h.006l.126-.023.01,0,.037-.007.018,0,.034-.006.046-.008.027,0,.027,0,.027,0,.029-.005.029-.005.046-.008.021,0,.035-.006.021,0,.047-.008h.007l.055-.01.014,0,.045-.008.012,0,.116-.021h.007l.057-.01h0Q95.082,2.068,95.578,1.984ZM111.472.22l.165,3c-2.6.143-5.229.36-7.806.646L103.5.88q.677-.075,1.356-.144h.008l.052-.005h.008l.116-.012h.014l.043,0,.017,0,.05,0h.012l.048,0,.022,0,.033,0,.024,0,.035,0,.033,0,.037,0,.027,0,.026,0,.031,0,.023,0,.057-.006.021,0,.033,0,.02,0,.033,0,.019,0,.069-.007h.012l.035,0,.018,0,.035,0h.016L106,.624h.012l.038,0h.013l.127-.012h.008l.042,0h.008l.135-.012h0l.044,0h.005l.138-.012h0l.044,0h.006l.182-.016h.006L107,.535H107l.18-.015h.009L107.37.5h.01l.042,0h0l.133-.011h.011l.04,0h.008l.127-.01h.013l.038,0h.013l.121-.01.053,0H108l.113-.009.023,0,.031,0,.055,0,.024,0,.054,0,.025,0,.03,0,.026,0,.028,0,.04,0,.066,0,.057,0,.024,0,.051,0h.018l.061,0,.038,0h.018l.056,0h0l.054,0h.014l.043,0h.016l.115-.008h.011l.049,0h.011l.119-.008h.006l.054,0h.008l.122-.008h0l.062,0h0Q110.5.273,111.472.22ZM119.5,0V3h-.029V0Z" transform="translate(61 568)" fill="#8d7eb7"/><g transform="translate(-867 -282)"><g transform="matrix(1, 0, 0, 1, 873, 794)" filter="url(#a)"><rect width="245" height="74" rx="20" transform="translate(12 4)" fill="#8d7eb7"/></g><g transform="translate(899.326 806.178)"><path d="M12.552-5.712V-8.856h-4.1v-4.176H5.3v4.176H1.2v3.144H5.3v4.176H8.448V-5.712ZM20.9-16.08h-2.5L13.224-13.1v3.552l3.84-1.968V0H20.9Zm9.1-.36a6.374,6.374,0,0,0-5.136,2.316A9.147,9.147,0,0,0,22.92-8.04a9.147,9.147,0,0,0,1.944,6.084A6.374,6.374,0,0,0,30,.36a6.409,6.409,0,0,0,5.148-2.316A9.11,9.11,0,0,0,37.1-8.04a9.11,9.11,0,0,0-1.956-6.084A6.409,6.409,0,0,0,30-16.44ZM30-3.12a2.561,2.561,0,0,1-2.256-1.332A6.671,6.671,0,0,1,26.9-8.04a6.671,6.671,0,0,1,.84-3.588A2.561,2.561,0,0,1,30-12.96a2.588,2.588,0,0,1,2.268,1.332A6.6,6.6,0,0,1,33.12-8.04a6.6,6.6,0,0,1-.852,3.588A2.588,2.588,0,0,1,30-3.12ZM45.456-16.44a6.374,6.374,0,0,0-5.136,2.316A9.147,9.147,0,0,0,38.376-8.04,9.147,9.147,0,0,0,40.32-1.956,6.374,6.374,0,0,0,45.456.36,6.409,6.409,0,0,0,50.6-1.956,9.11,9.11,0,0,0,52.56-8.04,9.11,9.11,0,0,0,50.6-14.124,6.409,6.409,0,0,0,45.456-16.44Zm0,13.32A2.561,2.561,0,0,1,43.2-4.452a6.671,6.671,0,0,1-.84-3.588,6.671,6.671,0,0,1,.84-3.588,2.561,2.561,0,0,1,2.256-1.332,2.588,2.588,0,0,1,2.268,1.332,6.6,6.6,0,0,1,.852,3.588,6.6,6.6,0,0,1-.852,3.588A2.588,2.588,0,0,1,45.456-3.12ZM55.9-4.2a2.1,2.1,0,0,0-1.56.636,2.1,2.1,0,0,0-.624,1.524,2.077,2.077,0,0,0,.624,1.548A2.138,2.138,0,0,0,55.9.12,2.146,2.146,0,0,0,57.48-.5,2.088,2.088,0,0,0,58.1-2.04a2.079,2.079,0,0,0-.636-1.524A2.135,2.135,0,0,0,55.9-4.2Zm9.96-12.24a6.374,6.374,0,0,0-5.136,2.316A9.147,9.147,0,0,0,58.776-8.04,9.147,9.147,0,0,0,60.72-1.956,6.374,6.374,0,0,0,65.856.36,6.409,6.409,0,0,0,71-1.956,9.11,9.11,0,0,0,72.96-8.04,9.11,9.11,0,0,0,71-14.124,6.409,6.409,0,0,0,65.856-16.44Zm0,13.32A2.561,2.561,0,0,1,63.6-4.452a6.671,6.671,0,0,1-.84-3.588,6.671,6.671,0,0,1,.84-3.588,2.561,2.561,0,0,1,2.256-1.332,2.588,2.588,0,0,1,2.268,1.332,6.6,6.6,0,0,1,.852,3.588,6.6,6.6,0,0,1-.852,3.588A2.588,2.588,0,0,1,65.856-3.12ZM81.312-16.44a6.374,6.374,0,0,0-5.136,2.316A9.147,9.147,0,0,0,74.232-8.04a9.147,9.147,0,0,0,1.944,6.084A6.374,6.374,0,0,0,81.312.36,6.409,6.409,0,0,0,86.46-1.956,9.11,9.11,0,0,0,88.416-8.04a9.11,9.11,0,0,0-1.956-6.084A6.409,6.409,0,0,0,81.312-16.44Zm0,13.32a2.561,2.561,0,0,1-2.256-1.332,6.671,6.671,0,0,1-.84-3.588,6.671,6.671,0,0,1,.84-3.588,2.561,2.561,0,0,1,2.256-1.332,2.588,2.588,0,0,1,2.268,1.332,6.6,6.6,0,0,1,.852,3.588,6.6,6.6,0,0,1-.852,3.588A2.588,2.588,0,0,1,81.312-3.12ZM96.768-16.44a6.374,6.374,0,0,0-5.136,2.316A9.147,9.147,0,0,0,89.688-8.04a9.147,9.147,0,0,0,1.944,6.084A6.374,6.374,0,0,0,96.768.36a6.409,6.409,0,0,0,5.148-2.316,9.11,9.11,0,0,0,1.956-6.084,9.11,9.11,0,0,0-1.956-6.084A6.409,6.409,0,0,0,96.768-16.44Zm0,13.32a2.561,2.561,0,0,1-2.256-1.332,6.671,6.671,0,0,1-.84-3.588,6.671,6.671,0,0,1,.84-3.588,2.561,2.561,0,0,1,2.256-1.332,2.588,2.588,0,0,1,2.268,1.332,6.6,6.6,0,0,1,.852,3.588,6.6,6.6,0,0,1-.852,3.588A2.588,2.588,0,0,1,96.768-3.12Z" transform="translate(3.674 22.822)" fill="#fff"/><path d="M4.356,3.88a2.853,2.853,0,0,0-2.16.852V4.048H.948V12.04H2.2V9.316a2.853,2.853,0,0,0,2.16.852,2.822,2.822,0,0,0,2.082-.882,3.085,3.085,0,0,0,.87-2.262,3.079,3.079,0,0,0-.876-2.256A2.818,2.818,0,0,0,4.356,3.88Zm-.2,5.184a1.9,1.9,0,0,1-1.368-.57A1.957,1.957,0,0,1,2.2,7.024a1.957,1.957,0,0,1,.588-1.47,1.9,1.9,0,0,1,1.368-.57,1.876,1.876,0,0,1,1.392.558A2.015,2.015,0,0,1,6.1,7.024a2.015,2.015,0,0,1-.552,1.482A1.876,1.876,0,0,1,4.152,9.064Zm7.812-5.088A2.531,2.531,0,0,0,9.7,5.32V4.048H8.448V10H9.7V7.9a3.061,3.061,0,0,1,.576-1.974,2.032,2.032,0,0,1,1.68-.714,3.319,3.319,0,0,1,.348.012l.084-1.2A1.476,1.476,0,0,0,11.964,3.976Zm3.864-.06a3.205,3.205,0,0,0-2.274.87,2.927,2.927,0,0,0-.93,2.238,2.946,2.946,0,0,0,.93,2.244,3.193,3.193,0,0,0,2.274.876,3.157,3.157,0,0,0,2.256-.876,2.956,2.956,0,0,0,.924-2.244,2.946,2.946,0,0,0-.918-2.238A3.163,3.163,0,0,0,15.828,3.916Zm0,5.148a1.927,1.927,0,0,1-1.4-.57,1.968,1.968,0,0,1-.582-1.47,1.968,1.968,0,0,1,.582-1.47,1.977,1.977,0,0,1,2.778,0,1.957,1.957,0,0,1,.588,1.47,1.957,1.957,0,0,1-.588,1.47A1.919,1.919,0,0,1,15.828,9.064Zm10.188-7.7h-1.26V4.732A2.877,2.877,0,0,0,22.6,3.88a2.818,2.818,0,0,0-2.076.888,3.079,3.079,0,0,0-.876,2.256A3.079,3.079,0,0,0,20.52,9.28a2.818,2.818,0,0,0,2.076.888,2.924,2.924,0,0,0,2.16-.84V10h1.26ZM22.8,9.064a1.862,1.862,0,0,1-1.38-.558,2.015,2.015,0,0,1-.552-1.482,2.02,2.02,0,0,1,.552-1.476,1.852,1.852,0,0,1,1.38-.564,1.9,1.9,0,0,1,1.368.57,1.957,1.957,0,0,1,.588,1.47A1.952,1.952,0,0,1,24.168,8.5,1.915,1.915,0,0,1,22.8,9.064ZM33.2,4.048H31.956V6.8a2.538,2.538,0,0,1-.468,1.656,1.592,1.592,0,0,1-1.3.564,1.305,1.305,0,0,1-1.038-.45,1.741,1.741,0,0,1-.39-1.182V4.048H27.516V7.636a2.577,2.577,0,0,0,.654,1.83,2.258,2.258,0,0,0,1.734.7,2.539,2.539,0,0,0,2.052-.9V10H33.2Zm4.284,4.968a1.858,1.858,0,0,1-1.38-.546,1.967,1.967,0,0,1-.54-1.446,1.964,1.964,0,0,1,.546-1.434,1.842,1.842,0,0,1,1.374-.558,1.816,1.816,0,0,1,1.08.324,1.641,1.641,0,0,1,.624.96l1.2-.348a2.754,2.754,0,0,0-1.08-1.518,3.221,3.221,0,0,0-4.05.318,3,3,0,0,0-.918,2.256,3,3,0,0,0,.918,2.262,3.26,3.26,0,0,0,4.08.306,2.6,2.6,0,0,0,1.05-1.524l-1.152-.3A1.69,1.69,0,0,1,37.488,9.016Zm7.632-.348a1.812,1.812,0,0,1-1.008.324.938.938,0,0,1-.72-.282,1.16,1.16,0,0,1-.264-.822V5.08h2.04V4.048h-2.04V2.2H41.88V4.048H40.6V5.08H41.88V7.972a2.179,2.179,0,0,0,.576,1.638,2.164,2.164,0,0,0,1.572.558A2.9,2.9,0,0,0,45.5,9.712ZM48.8,3.916a3.205,3.205,0,0,0-2.274.87,2.927,2.927,0,0,0-.93,2.238,2.946,2.946,0,0,0,.93,2.244,3.193,3.193,0,0,0,2.274.876,3.157,3.157,0,0,0,2.256-.876,2.956,2.956,0,0,0,.924-2.244,2.946,2.946,0,0,0-.918-2.238A3.163,3.163,0,0,0,48.8,3.916Zm0,5.148a1.927,1.927,0,0,1-1.4-.57,1.968,1.968,0,0,1-.582-1.47,1.968,1.968,0,0,1,.582-1.47,1.977,1.977,0,0,1,2.778,0,1.957,1.957,0,0,1,.588,1.47,1.957,1.957,0,0,1-.588,1.47A1.919,1.919,0,0,1,48.8,9.064Zm3.828-.66a1.718,1.718,0,0,0,.84,1.314,3.352,3.352,0,0,0,1.788.45,3.006,3.006,0,0,0,1.824-.5,1.657,1.657,0,0,0,.684-1.416A1.419,1.419,0,0,0,57.36,7.21a2.2,2.2,0,0,0-1.14-.57L54.8,6.328q-.72-.168-.72-.672a.693.693,0,0,1,.27-.558,1.211,1.211,0,0,1,.786-.222,1.523,1.523,0,0,1,.924.264,1.055,1.055,0,0,1,.432.708L57.684,5.6a2.01,2.01,0,0,0-.834-1.242,2.816,2.816,0,0,0-1.674-.474,2.629,2.629,0,0,0-1.71.522,1.672,1.672,0,0,0-.642,1.362q0,1.26,1.62,1.62l1.3.264q.8.18.8.708a.665.665,0,0,1-.318.576,1.505,1.505,0,0,1-.858.216A1.9,1.9,0,0,1,54.342,8.9a.98.98,0,0,1-.462-.756ZM67.524,4.048h-1.26v.684A2.877,2.877,0,0,0,64.1,3.88a2.818,2.818,0,0,0-2.076.888,3.079,3.079,0,0,0-.876,2.256,3.079,3.079,0,0,0,.876,2.256,2.818,2.818,0,0,0,2.076.888,2.924,2.924,0,0,0,2.16-.84V12.04h1.26ZM64.308,9.064a1.862,1.862,0,0,1-1.38-.558,2.015,2.015,0,0,1-.552-1.482,2.02,2.02,0,0,1,.552-1.476,1.852,1.852,0,0,1,1.38-.564,1.9,1.9,0,0,1,1.368.57,1.957,1.957,0,0,1,.588,1.47A1.952,1.952,0,0,1,65.676,8.5,1.915,1.915,0,0,1,64.308,9.064Zm10.32-5.016H73.38V6.8a2.538,2.538,0,0,1-.468,1.656,1.592,1.592,0,0,1-1.3.564,1.305,1.305,0,0,1-1.038-.45,1.741,1.741,0,0,1-.39-1.182V4.048H68.94V7.636a2.577,2.577,0,0,0,.654,1.83,2.258,2.258,0,0,0,1.734.7,2.539,2.539,0,0,0,2.052-.9V10h1.248Zm7.2,2.844a3.077,3.077,0,0,0-.906-2.166,2.841,2.841,0,0,0-2.07-.846,3,3,0,0,0-2.19.882,3.056,3.056,0,0,0-.894,2.274,3.021,3.021,0,0,0,.894,2.256,2.952,2.952,0,0,0,2.142.876,3.22,3.22,0,0,0,1.758-.474,2.793,2.793,0,0,0,1.11-1.4l-1.116-.24A1.8,1.8,0,0,1,78.8,9.088a1.707,1.707,0,0,1-1.2-.48A1.964,1.964,0,0,1,77,7.324h4.824ZM78.852,4.984a1.673,1.673,0,0,1,1.092.372,1.8,1.8,0,0,1,.6,1.08h-3.5a1.655,1.655,0,0,1,.66-1.068A1.917,1.917,0,0,1,78.852,4.984ZM89.1,3.88a2.853,2.853,0,0,0-2.16.852V4.048H85.692V12.04H86.94V9.316a2.853,2.853,0,0,0,2.16.852,2.822,2.822,0,0,0,2.082-.882,3.085,3.085,0,0,0,.87-2.262,3.079,3.079,0,0,0-.876-2.256A2.818,2.818,0,0,0,89.1,3.88Zm-.2,5.184a1.9,1.9,0,0,1-1.368-.57,1.957,1.957,0,0,1-.588-1.47,1.957,1.957,0,0,1,.588-1.47,1.9,1.9,0,0,1,1.368-.57,1.876,1.876,0,0,1,1.392.558,2.015,2.015,0,0,1,.552,1.482,2.015,2.015,0,0,1-.552,1.482A1.876,1.876,0,0,1,88.9,9.064ZM95.88,3.916a3.205,3.205,0,0,0-2.274.87,2.927,2.927,0,0,0-.93,2.238,2.946,2.946,0,0,0,.93,2.244,3.193,3.193,0,0,0,2.274.876,3.157,3.157,0,0,0,2.256-.876,2.956,2.956,0,0,0,.924-2.244,2.946,2.946,0,0,0-.918-2.238A3.163,3.163,0,0,0,95.88,3.916Zm0,5.148a1.927,1.927,0,0,1-1.4-.57,1.968,1.968,0,0,1-.582-1.47,1.968,1.968,0,0,1,.582-1.47,1.977,1.977,0,0,1,2.778,0,1.957,1.957,0,0,1,.588,1.47,1.957,1.957,0,0,1-.588,1.47A1.919,1.919,0,0,1,95.88,9.064Zm10.188-7.7h-1.26V4.732a2.877,2.877,0,0,0-2.16-.852,2.818,2.818,0,0,0-2.076.888A3.079,3.079,0,0,0,99.7,7.024a3.079,3.079,0,0,0,.876,2.256,2.818,2.818,0,0,0,2.076.888,2.924,2.924,0,0,0,2.16-.84V10h1.26Zm-3.216,7.7a1.862,1.862,0,0,1-1.38-.558,2.015,2.015,0,0,1-.552-1.482,2.02,2.02,0,0,1,.552-1.476,1.852,1.852,0,0,1,1.38-.564,1.9,1.9,0,0,1,1.368.57,1.957,1.957,0,0,1,.588,1.47A1.952,1.952,0,0,1,104.22,8.5,1.915,1.915,0,0,1,102.852,9.064Zm8.376-5.088A2.531,2.531,0,0,0,108.96,5.32V4.048h-1.248V10h1.248V7.9a3.061,3.061,0,0,1,.576-1.974,2.032,2.032,0,0,1,1.68-.714,3.319,3.319,0,0,1,.348.012l.084-1.2A1.476,1.476,0,0,0,111.228,3.976Zm4.536-.78,1.272-1.7h-1.464L114.7,3.2Zm2.46.852h-1.248v.684a2.853,2.853,0,0,0-2.16-.852,2.818,2.818,0,0,0-2.076.888,3.079,3.079,0,0,0-.876,2.256,3.085,3.085,0,0,0,.87,2.262,2.822,2.822,0,0,0,2.082.882,2.853,2.853,0,0,0,2.16-.852V10h1.248Zm-3.2,5.016a1.876,1.876,0,0,1-1.392-.558,2.015,2.015,0,0,1-.552-1.482,2.015,2.015,0,0,1,.552-1.482,1.876,1.876,0,0,1,1.392-.558,1.9,1.9,0,0,1,1.368.57,1.957,1.957,0,0,1,.588,1.47,1.957,1.957,0,0,1-.588,1.47A1.9,1.9,0,0,1,115.02,9.064Zm4.356-.66a1.718,1.718,0,0,0,.84,1.314,3.352,3.352,0,0,0,1.788.45,3.006,3.006,0,0,0,1.824-.5,1.657,1.657,0,0,0,.684-1.416A1.419,1.419,0,0,0,124.1,7.21a2.2,2.2,0,0,0-1.14-.57l-1.416-.312q-.72-.168-.72-.672a.693.693,0,0,1,.27-.558,1.211,1.211,0,0,1,.786-.222,1.523,1.523,0,0,1,.924.264,1.055,1.055,0,0,1,.432.708l1.188-.252a2.01,2.01,0,0,0-.834-1.242,2.816,2.816,0,0,0-1.674-.474,2.629,2.629,0,0,0-1.71.522,1.672,1.672,0,0,0-.642,1.362q0,1.26,1.62,1.62l1.3.264q.8.18.8.708a.665.665,0,0,1-.318.576,1.506,1.506,0,0,1-.858.216,1.9,1.9,0,0,1-1.026-.252.98.98,0,0,1-.462-.756Zm11.664.612a1.858,1.858,0,0,1-1.38-.546,1.967,1.967,0,0,1-.54-1.446,1.964,1.964,0,0,1,.546-1.434,1.842,1.842,0,0,1,1.374-.558,1.816,1.816,0,0,1,1.08.324,1.641,1.641,0,0,1,.624.96l1.2-.348a2.754,2.754,0,0,0-1.08-1.518,3.221,3.221,0,0,0-4.05.318,3,3,0,0,0-.918,2.256,3,3,0,0,0,.918,2.262,3.26,3.26,0,0,0,4.08.306,2.6,2.6,0,0,0,1.05-1.524l-1.152-.3A1.69,1.69,0,0,1,131.04,9.016Zm6.744-5.1a3.205,3.205,0,0,0-2.274.87,2.927,2.927,0,0,0-.93,2.238,2.946,2.946,0,0,0,.93,2.244,3.193,3.193,0,0,0,2.274.876,3.157,3.157,0,0,0,2.256-.876,2.956,2.956,0,0,0,.924-2.244,2.946,2.946,0,0,0-.918-2.238A3.163,3.163,0,0,0,137.784,3.916Zm0,5.148a1.927,1.927,0,0,1-1.4-.57,1.968,1.968,0,0,1-.582-1.47,1.968,1.968,0,0,1,.582-1.47,1.977,1.977,0,0,1,2.778,0,1.957,1.957,0,0,1,.588,1.47,1.957,1.957,0,0,1-.588,1.47A1.919,1.919,0,0,1,137.784,9.064ZM149.472,3.88a2.565,2.565,0,0,0-2.22,1.092,2.035,2.035,0,0,0-.81-.8,2.381,2.381,0,0,0-1.17-.288,2.324,2.324,0,0,0-1.908.84V4.048h-1.248V10h1.248V7.048a2.3,2.3,0,0,1,.426-1.5,1.422,1.422,0,0,1,1.158-.516,1.287,1.287,0,0,1,.966.39,1.428,1.428,0,0,1,.378,1.038V10h1.248V7.048a2.281,2.281,0,0,1,.432-1.5,1.453,1.453,0,0,1,1.176-.516,1.287,1.287,0,0,1,.966.39,1.428,1.428,0,0,1,.378,1.038V10h1.236V6.208a2.262,2.262,0,0,0-.654-1.68A2.189,2.189,0,0,0,149.472,3.88Zm7.188,0a2.853,2.853,0,0,0-2.16.852V4.048h-1.248V12.04H154.5V9.316a2.853,2.853,0,0,0,2.16.852,2.822,2.822,0,0,0,2.082-.882,3.085,3.085,0,0,0,.87-2.262,3.079,3.079,0,0,0-.876-2.256A2.818,2.818,0,0,0,156.66,3.88Zm-.2,5.184a1.9,1.9,0,0,1-1.368-.57,1.957,1.957,0,0,1-.588-1.47,1.957,1.957,0,0,1,.588-1.47,1.9,1.9,0,0,1,1.368-.57,1.876,1.876,0,0,1,1.392.558,2.015,2.015,0,0,1,.552,1.482,2.015,2.015,0,0,1-.552,1.482A1.876,1.876,0,0,1,156.456,9.064Zm7.812-5.088A2.531,2.531,0,0,0,162,5.32V4.048h-1.248V10H162V7.9a3.061,3.061,0,0,1,.576-1.974,2.032,2.032,0,0,1,1.68-.714,3.319,3.319,0,0,1,.348.012l.084-1.2A1.476,1.476,0,0,0,164.268,3.976Zm7,.072h-1.248v.684a2.853,2.853,0,0,0-2.16-.852,2.818,2.818,0,0,0-2.076.888,3.079,3.079,0,0,0-.876,2.256,3.085,3.085,0,0,0,.87,2.262,2.822,2.822,0,0,0,2.082.882,2.853,2.853,0,0,0,2.16-.852V10h1.248Zm-3.2,5.016a1.876,1.876,0,0,1-1.392-.558,2.015,2.015,0,0,1-.552-1.482,2.015,2.015,0,0,1,.552-1.482,1.876,1.876,0,0,1,1.392-.558,1.9,1.9,0,0,1,1.368.57,1.957,1.957,0,0,1,.588,1.47,1.957,1.957,0,0,1-.588,1.47A1.9,1.9,0,0,1,168.06,9.064Zm8.376-5.088a2.531,2.531,0,0,0-2.268,1.344V4.048H172.92V10h1.248V7.9a3.061,3.061,0,0,1,.576-1.974,2.032,2.032,0,0,1,1.68-.714,3.319,3.319,0,0,1,.348.012l.084-1.2A1.476,1.476,0,0,0,176.436,3.976Zm9.78.06h-1.392l-1.908,4.3-1.86-4.3h-1.392l2.568,5.82-.972,2.184h1.392ZM4.464,17.976A2.531,2.531,0,0,0,2.2,19.32V18.048H.948V24H2.2V21.9a3.061,3.061,0,0,1,.576-1.974,2.032,2.032,0,0,1,1.68-.714,3.319,3.319,0,0,1,.348.012l.084-1.2A1.476,1.476,0,0,0,4.464,17.976Zm6.72,2.916a3.077,3.077,0,0,0-.906-2.166,2.841,2.841,0,0,0-2.07-.846,3,3,0,0,0-2.19.882,3.055,3.055,0,0,0-.894,2.274,3.021,3.021,0,0,0,.894,2.256,2.952,2.952,0,0,0,2.142.876,3.22,3.22,0,0,0,1.758-.474,2.793,2.793,0,0,0,1.11-1.4l-1.116-.24A1.8,1.8,0,0,1,8.16,23.088a1.707,1.707,0,0,1-1.2-.48,1.964,1.964,0,0,1-.6-1.284h4.824ZM8.208,18.984a1.673,1.673,0,0,1,1.092.372,1.8,1.8,0,0,1,.6,1.08H6.4a1.655,1.655,0,0,1,.66-1.068A1.917,1.917,0,0,1,8.208,18.984Zm7.512.1V18.048H13.74V17.34A.963.963,0,0,1,14.772,16.3a1.758,1.758,0,0,1,.636.12l.3-1.02a2.512,2.512,0,0,0-1.02-.216,2.195,2.195,0,0,0-1.6.582,2.1,2.1,0,0,0-.6,1.578v.708H11.52V19.08h.972V24H13.74V19.08Zm6.132,1.812a3.077,3.077,0,0,0-.906-2.166,2.841,2.841,0,0,0-2.07-.846,3,3,0,0,0-2.19.882,3.055,3.055,0,0,0-.894,2.274,3.021,3.021,0,0,0,.894,2.256,2.952,2.952,0,0,0,2.142.876,3.22,3.22,0,0,0,1.758-.474,2.793,2.793,0,0,0,1.11-1.4l-1.116-.24a1.8,1.8,0,0,1-1.752,1.032,1.707,1.707,0,0,1-1.2-.48,1.964,1.964,0,0,1-.6-1.284h4.824Zm-2.976-1.908a1.673,1.673,0,0,1,1.092.372,1.8,1.8,0,0,1,.6,1.08h-3.5a1.655,1.655,0,0,1,.66-1.068A1.917,1.917,0,0,1,18.876,18.984Zm7.632-1.008A2.531,2.531,0,0,0,24.24,19.32V18.048H22.992V24H24.24V21.9a3.061,3.061,0,0,1,.576-1.974,2.032,2.032,0,0,1,1.68-.714,3.319,3.319,0,0,1,.348.012l.084-1.2A1.476,1.476,0,0,0,26.508,17.976Zm2-2.5a.781.781,0,0,0-.576.228.752.752,0,0,0-.228.552.727.727,0,0,0,.228.552.8.8,0,0,0,.576.216.783.783,0,0,0,.57-.216.737.737,0,0,0,.222-.552.752.752,0,0,0-.228-.552A.766.766,0,0,0,28.512,15.48ZM29.136,24V18.048H27.888V24Zm5.256-6.024a2.531,2.531,0,0,0-2.268,1.344V18.048H30.876V24h1.248V21.9a3.061,3.061,0,0,1,.576-1.974,2.032,2.032,0,0,1,1.68-.714,3.319,3.319,0,0,1,.348.012l.084-1.2A1.476,1.476,0,0,0,34.392,17.976Zm7.416-.1a2.853,2.853,0,0,0-2.16.852v-.684H38.4V26.04h1.248V23.316a2.853,2.853,0,0,0,2.16.852,2.822,2.822,0,0,0,2.082-.882,3.085,3.085,0,0,0,.87-2.262,3.079,3.079,0,0,0-.876-2.256A2.818,2.818,0,0,0,41.808,17.88Zm-.2,5.184a1.9,1.9,0,0,1-1.368-.57,2.131,2.131,0,0,1,0-2.94,1.9,1.9,0,0,1,1.368-.57A1.876,1.876,0,0,1,43,19.542a2.265,2.265,0,0,1,0,2.964A1.876,1.876,0,0,1,41.6,23.064ZM51.72,18.048H50.472v.684a2.853,2.853,0,0,0-2.16-.852,2.818,2.818,0,0,0-2.076.888,3.079,3.079,0,0,0-.876,2.256,3.085,3.085,0,0,0,.87,2.262,2.822,2.822,0,0,0,2.082.882,2.853,2.853,0,0,0,2.16-.852V24H51.72Zm-3.2,5.016a1.876,1.876,0,0,1-1.392-.558,2.265,2.265,0,0,1,0-2.964,1.876,1.876,0,0,1,1.392-.558,1.9,1.9,0,0,1,1.368.57,2.131,2.131,0,0,1,0,2.94A1.9,1.9,0,0,1,48.516,23.064Zm8.376-5.088a2.531,2.531,0,0,0-2.268,1.344V18.048H53.376V24h1.248V21.9a3.061,3.061,0,0,1,.576-1.974,2.032,2.032,0,0,1,1.68-.714,3.319,3.319,0,0,1,.348.012l.084-1.2A1.476,1.476,0,0,0,56.892,17.976Zm7,.072H62.64v.684a2.853,2.853,0,0,0-2.16-.852,2.818,2.818,0,0,0-2.076.888,3.079,3.079,0,0,0-.876,2.256,3.085,3.085,0,0,0,.87,2.262,2.822,2.822,0,0,0,2.082.882,2.853,2.853,0,0,0,2.16-.852V24h1.248Zm-3.2,5.016a1.876,1.876,0,0,1-1.392-.558,2.265,2.265,0,0,1,0-2.964,1.876,1.876,0,0,1,1.392-.558,1.9,1.9,0,0,1,1.368.57,2.131,2.131,0,0,1,0,2.94A1.9,1.9,0,0,1,60.684,23.064Zm13.248-5.016H72.72v.588a2.7,2.7,0,0,0-2.052-.744,2.871,2.871,0,0,0-2.046.828,2.705,2.705,0,0,0-.87,2.04,2.734,2.734,0,0,0,.876,2.052,2.856,2.856,0,0,0,2.04.84,2.7,2.7,0,0,0,2.052-.744v.384a1.816,1.816,0,0,1-.51,1.362,1.866,1.866,0,0,1-1.362.5,2.161,2.161,0,0,1-1.11-.252,2.378,2.378,0,0,1-.774-.8l-1.02.756a2.993,2.993,0,0,0,2.9,1.428,3.256,3.256,0,0,0,2.25-.744,2.623,2.623,0,0,0,.834-2.064Zm-3.06,4.524a1.931,1.931,0,0,1-1.362-.5,1.847,1.847,0,0,1,0-2.622,1.945,1.945,0,0,1,1.362-.5,1.854,1.854,0,0,1,1.3.5,1.833,1.833,0,0,1,0,2.61A1.842,1.842,0,0,1,70.872,22.572Zm10.536-4.524H80.16v.684A2.853,2.853,0,0,0,78,17.88a2.818,2.818,0,0,0-2.076.888,3.079,3.079,0,0,0-.876,2.256,3.085,3.085,0,0,0,.87,2.262A2.822,2.822,0,0,0,78,24.168a2.853,2.853,0,0,0,2.16-.852V24h1.248Zm-3.2,5.016a1.876,1.876,0,0,1-1.392-.558,2.265,2.265,0,0,1,0-2.964,1.876,1.876,0,0,1,1.392-.558,1.9,1.9,0,0,1,1.368.57,2.132,2.132,0,0,1,0,2.94A1.9,1.9,0,0,1,78.2,23.064Zm8.172-5.184a2.553,2.553,0,0,0-2.064.9v-.732H83.064V24h1.248V21.252a2.516,2.516,0,0,1,.474-1.656,1.61,1.61,0,0,1,1.3-.564,1.3,1.3,0,0,1,1.026.444,1.717,1.717,0,0,1,.39,1.176V24h1.26V20.4a2.547,2.547,0,0,0-.66-1.818A2.262,2.262,0,0,0,86.376,17.88Zm9.708.168H94.836v.684a2.853,2.853,0,0,0-2.16-.852,2.818,2.818,0,0,0-2.076.888,3.079,3.079,0,0,0-.876,2.256,3.085,3.085,0,0,0,.87,2.262,2.822,2.822,0,0,0,2.082.882,2.853,2.853,0,0,0,2.16-.852V24h1.248Zm-3.2,5.016a1.876,1.876,0,0,1-1.392-.558,2.265,2.265,0,0,1,0-2.964,1.876,1.876,0,0,1,1.392-.558,1.9,1.9,0,0,1,1.368.57,2.132,2.132,0,0,1,0,2.94A1.9,1.9,0,0,1,92.88,23.064Zm8.376-5.088a2.531,2.531,0,0,0-2.268,1.344V18.048H97.74V24h1.248V21.9a3.061,3.061,0,0,1,.576-1.974,2.032,2.032,0,0,1,1.68-.714,3.319,3.319,0,0,1,.348.012l.084-1.2A1.477,1.477,0,0,0,101.256,17.976Z" transform="translate(17.674 27.822)" fill="#fff"/></g></g><g transform="translate(-860 -175)"><g transform="translate(114)"><g transform="matrix(1, 0, 0, 1, 752, 687)" filter="url(#c)"><rect width="203" height="74" rx="20" transform="translate(133 111)" fill="#8d7eb7"/></g><g transform="translate(903 810)"><path d="M12.552-5.712V-8.856h-4.1v-4.176H5.3v4.176H1.2v3.144H5.3v4.176H8.448V-5.712ZM27.72-2.952V-6.12H25.776v-9.96h-4.9L13.7-6.5v3.552h8.352V0h3.72V-2.952ZM22.056-6.12H17.712l4.344-6.144ZM35.784-16.44a6.374,6.374,0,0,0-5.136,2.316A9.147,9.147,0,0,0,28.7-8.04a9.147,9.147,0,0,0,1.944,6.084A6.374,6.374,0,0,0,35.784.36a6.409,6.409,0,0,0,5.148-2.316A9.11,9.11,0,0,0,42.888-8.04a9.11,9.11,0,0,0-1.956-6.084A6.409,6.409,0,0,0,35.784-16.44Zm0,13.32a2.561,2.561,0,0,1-2.256-1.332,6.671,6.671,0,0,1-.84-3.588,6.671,6.671,0,0,1,.84-3.588,2.561,2.561,0,0,1,2.256-1.332,2.588,2.588,0,0,1,2.268,1.332A6.6,6.6,0,0,1,38.9-8.04a6.6,6.6,0,0,1-.852,3.588A2.588,2.588,0,0,1,35.784-3.12ZM46.224-4.2a2.1,2.1,0,0,0-1.56.636A2.1,2.1,0,0,0,44.04-2.04a2.077,2.077,0,0,0,.624,1.548,2.138,2.138,0,0,0,1.56.612A2.146,2.146,0,0,0,47.808-.5a2.088,2.088,0,0,0,.624-1.536A2.079,2.079,0,0,0,47.8-3.564,2.135,2.135,0,0,0,46.224-4.2Zm9.96-12.24a6.374,6.374,0,0,0-5.136,2.316A9.147,9.147,0,0,0,49.1-8.04a9.147,9.147,0,0,0,1.944,6.084A6.374,6.374,0,0,0,56.184.36a6.409,6.409,0,0,0,5.148-2.316A9.11,9.11,0,0,0,63.288-8.04a9.11,9.11,0,0,0-1.956-6.084A6.409,6.409,0,0,0,56.184-16.44Zm0,13.32a2.561,2.561,0,0,1-2.256-1.332,6.671,6.671,0,0,1-.84-3.588,6.671,6.671,0,0,1,.84-3.588,2.561,2.561,0,0,1,2.256-1.332,2.588,2.588,0,0,1,2.268,1.332A6.6,6.6,0,0,1,59.3-8.04a6.6,6.6,0,0,1-.852,3.588A2.588,2.588,0,0,1,56.184-3.12ZM71.64-16.44A6.374,6.374,0,0,0,66.5-14.124,9.147,9.147,0,0,0,64.56-8.04,9.147,9.147,0,0,0,66.5-1.956,6.374,6.374,0,0,0,71.64.36a6.409,6.409,0,0,0,5.148-2.316A9.11,9.11,0,0,0,78.744-8.04a9.11,9.11,0,0,0-1.956-6.084A6.409,6.409,0,0,0,71.64-16.44Zm0,13.32a2.561,2.561,0,0,1-2.256-1.332,6.671,6.671,0,0,1-.84-3.588,6.671,6.671,0,0,1,.84-3.588A2.561,2.561,0,0,1,71.64-12.96a2.588,2.588,0,0,1,2.268,1.332A6.6,6.6,0,0,1,74.76-8.04a6.6,6.6,0,0,1-.852,3.588A2.588,2.588,0,0,1,71.64-3.12ZM87.1-16.44a6.374,6.374,0,0,0-5.136,2.316A9.147,9.147,0,0,0,80.016-8.04,9.147,9.147,0,0,0,81.96-1.956,6.374,6.374,0,0,0,87.1.36a6.409,6.409,0,0,0,5.148-2.316A9.11,9.11,0,0,0,94.2-8.04a9.11,9.11,0,0,0-1.956-6.084A6.409,6.409,0,0,0,87.1-16.44Zm0,13.32A2.561,2.561,0,0,1,84.84-4.452,6.671,6.671,0,0,1,84-8.04a6.671,6.671,0,0,1,.84-3.588A2.561,2.561,0,0,1,87.1-12.96a2.588,2.588,0,0,1,2.268,1.332,6.6,6.6,0,0,1,.852,3.588,6.6,6.6,0,0,1-.852,3.588A2.588,2.588,0,0,1,87.1-3.12Z" transform="translate(0 19)" fill="#fff"/><path d="M6.492,4.048H5.244V6.8a2.538,2.538,0,0,1-.468,1.656,1.592,1.592,0,0,1-1.3.564,1.305,1.305,0,0,1-1.038-.45,1.741,1.741,0,0,1-.39-1.182V4.048H.8V7.636a2.577,2.577,0,0,0,.654,1.83,2.258,2.258,0,0,0,1.734.7,2.539,2.539,0,0,0,2.052-.9V10H6.492ZM7.56,8.4A1.718,1.718,0,0,0,8.4,9.718a3.352,3.352,0,0,0,1.788.45,3.006,3.006,0,0,0,1.824-.5A1.657,1.657,0,0,0,12.7,8.248a1.419,1.419,0,0,0-.408-1.038,2.2,2.2,0,0,0-1.14-.57L9.732,6.328q-.72-.168-.72-.672a.693.693,0,0,1,.27-.558,1.211,1.211,0,0,1,.786-.222,1.523,1.523,0,0,1,.924.264,1.055,1.055,0,0,1,.432.708L12.612,5.6a2.01,2.01,0,0,0-.834-1.242A2.816,2.816,0,0,0,10.1,3.88a2.629,2.629,0,0,0-1.71.522,1.672,1.672,0,0,0-.642,1.362q0,1.26,1.62,1.62l1.3.264q.8.18.8.708a.665.665,0,0,1-.318.576,1.505,1.505,0,0,1-.858.216A1.9,1.9,0,0,1,9.27,8.9a.98.98,0,0,1-.462-.756ZM19.38,4.048H18.132V6.8a2.538,2.538,0,0,1-.468,1.656,1.592,1.592,0,0,1-1.3.564,1.305,1.305,0,0,1-1.038-.45,1.741,1.741,0,0,1-.39-1.182V4.048H13.692V7.636a2.577,2.577,0,0,0,.654,1.83,2.258,2.258,0,0,0,1.734.7,2.539,2.539,0,0,0,2.052-.9V10H19.38Zm7.476,0H25.608v.684a2.853,2.853,0,0,0-2.16-.852,2.818,2.818,0,0,0-2.076.888A3.079,3.079,0,0,0,20.5,7.024a3.085,3.085,0,0,0,.87,2.262,2.822,2.822,0,0,0,2.082.882,2.853,2.853,0,0,0,2.16-.852V10h1.248Zm-3.2,5.016a1.876,1.876,0,0,1-1.392-.558,2.015,2.015,0,0,1-.552-1.482,2.015,2.015,0,0,1,.552-1.482,1.876,1.876,0,0,1,1.392-.558,1.9,1.9,0,0,1,1.368.57,1.957,1.957,0,0,1,.588,1.47,1.957,1.957,0,0,1-.588,1.47A1.9,1.9,0,0,1,23.652,9.064Zm8.376-5.088A2.531,2.531,0,0,0,29.76,5.32V4.048H28.512V10H29.76V7.9a3.061,3.061,0,0,1,.576-1.974,2.032,2.032,0,0,1,1.68-.714,3.319,3.319,0,0,1,.348.012l.084-1.2A1.476,1.476,0,0,0,32.028,3.976Zm2-2.5a.781.781,0,0,0-.576.228.752.752,0,0,0-.228.552.727.727,0,0,0,.228.552.8.8,0,0,0,.576.216.783.783,0,0,0,.57-.216.737.737,0,0,0,.222-.552.752.752,0,0,0-.228-.552A.766.766,0,0,0,34.032,1.48ZM34.656,10V4.048H33.408V10Zm4.428-6.084a3.205,3.205,0,0,0-2.274.87,2.927,2.927,0,0,0-.93,2.238,2.946,2.946,0,0,0,.93,2.244,3.193,3.193,0,0,0,2.274.876,3.157,3.157,0,0,0,2.256-.876,2.956,2.956,0,0,0,.924-2.244,2.946,2.946,0,0,0-.918-2.238A3.163,3.163,0,0,0,39.084,3.916Zm0,5.148a1.927,1.927,0,0,1-1.4-.57,1.968,1.968,0,0,1-.582-1.47,1.968,1.968,0,0,1,.582-1.47,1.977,1.977,0,0,1,2.778,0,1.957,1.957,0,0,1,.588,1.47,1.957,1.957,0,0,1-.588,1.47A1.919,1.919,0,0,1,39.084,9.064Zm3.828-.66a1.718,1.718,0,0,0,.84,1.314,3.352,3.352,0,0,0,1.788.45,3.006,3.006,0,0,0,1.824-.5,1.657,1.657,0,0,0,.684-1.416A1.419,1.419,0,0,0,47.64,7.21a2.2,2.2,0,0,0-1.14-.57l-1.416-.312q-.72-.168-.72-.672a.693.693,0,0,1,.27-.558,1.211,1.211,0,0,1,.786-.222,1.523,1.523,0,0,1,.924.264,1.055,1.055,0,0,1,.432.708L47.964,5.6a2.01,2.01,0,0,0-.834-1.242,2.816,2.816,0,0,0-1.674-.474,2.629,2.629,0,0,0-1.71.522A1.672,1.672,0,0,0,43.1,5.764q0,1.26,1.62,1.62l1.3.264q.8.18.8.708a.665.665,0,0,1-.318.576,1.505,1.505,0,0,1-.858.216A1.9,1.9,0,0,1,44.622,8.9a.98.98,0,0,1-.462-.756Zm14.7-4.356H56.4v.588a2.7,2.7,0,0,0-2.052-.744A2.871,2.871,0,0,0,52.3,4.72a2.705,2.705,0,0,0-.87,2.04,2.734,2.734,0,0,0,.876,2.052,2.856,2.856,0,0,0,2.04.84A2.7,2.7,0,0,0,56.4,8.908v.384a1.816,1.816,0,0,1-.51,1.362,1.866,1.866,0,0,1-1.362.5,2.161,2.161,0,0,1-1.11-.252,2.378,2.378,0,0,1-.774-.8l-1.02.756a2.993,2.993,0,0,0,2.9,1.428,3.256,3.256,0,0,0,2.25-.744,2.623,2.623,0,0,0,.834-2.064Zm-3.06,4.524a1.931,1.931,0,0,1-1.362-.5,1.7,1.7,0,0,1-.546-1.308,1.694,1.694,0,0,1,.546-1.314,1.945,1.945,0,0,1,1.362-.5,1.854,1.854,0,0,1,1.3.5A1.7,1.7,0,0,1,56.4,6.76a1.7,1.7,0,0,1-.546,1.3A1.842,1.842,0,0,1,54.552,8.572Zm10.26-1.68a3.077,3.077,0,0,0-.906-2.166,2.841,2.841,0,0,0-2.07-.846,3,3,0,0,0-2.19.882,3.055,3.055,0,0,0-.894,2.274,3.021,3.021,0,0,0,.894,2.256,2.952,2.952,0,0,0,2.142.876,3.22,3.22,0,0,0,1.758-.474,2.793,2.793,0,0,0,1.11-1.4l-1.116-.24a1.8,1.8,0,0,1-1.752,1.032,1.707,1.707,0,0,1-1.2-.48,1.964,1.964,0,0,1-.6-1.284h4.824ZM61.836,4.984a1.673,1.673,0,0,1,1.092.372,1.8,1.8,0,0,1,.6,1.08h-3.5a1.655,1.655,0,0,1,.66-1.068A1.917,1.917,0,0,1,61.836,4.984Zm7.428-1.1a2.553,2.553,0,0,0-2.064.9V4.048H65.952V10H67.2V7.252A2.516,2.516,0,0,1,67.674,5.6a1.61,1.61,0,0,1,1.3-.564A1.3,1.3,0,0,1,70,5.476a1.717,1.717,0,0,1,.39,1.176V10h1.26V6.4a2.547,2.547,0,0,0-.66-1.818A2.262,2.262,0,0,0,69.264,3.88ZM78.7,6.892a3.077,3.077,0,0,0-.906-2.166,2.841,2.841,0,0,0-2.07-.846,3,3,0,0,0-2.19.882,3.056,3.056,0,0,0-.894,2.274,3.021,3.021,0,0,0,.894,2.256,2.952,2.952,0,0,0,2.142.876,3.22,3.22,0,0,0,1.758-.474,2.793,2.793,0,0,0,1.11-1.4l-1.116-.24a1.8,1.8,0,0,1-1.752,1.032,1.707,1.707,0,0,1-1.2-.48,1.964,1.964,0,0,1-.6-1.284H78.7ZM75.72,4.984a1.673,1.673,0,0,1,1.092.372,1.8,1.8,0,0,1,.6,1.08h-3.5a1.655,1.655,0,0,1,.66-1.068A1.917,1.917,0,0,1,75.72,4.984Zm7.632-1.008A2.531,2.531,0,0,0,81.084,5.32V4.048H79.836V10h1.248V7.9a3.061,3.061,0,0,1,.576-1.974,2.032,2.032,0,0,1,1.68-.714,3.319,3.319,0,0,1,.348.012l.084-1.2A1.476,1.476,0,0,0,83.352,3.976Zm7,.072H89.1v.684a2.853,2.853,0,0,0-2.16-.852,2.818,2.818,0,0,0-2.076.888,3.079,3.079,0,0,0-.876,2.256,3.085,3.085,0,0,0,.87,2.262,2.822,2.822,0,0,0,2.082.882,2.853,2.853,0,0,0,2.16-.852V10h1.248Zm-3.2,5.016a1.876,1.876,0,0,1-1.392-.558A2.015,2.015,0,0,1,85.2,7.024a2.015,2.015,0,0,1,.552-1.482,1.876,1.876,0,0,1,1.392-.558,1.9,1.9,0,0,1,1.368.57,1.957,1.957,0,0,1,.588,1.47,1.957,1.957,0,0,1-.588,1.47A1.9,1.9,0,0,1,87.144,9.064ZM95.316,3.88a2.553,2.553,0,0,0-2.064.9V4.048H92V10h1.248V7.252A2.516,2.516,0,0,1,93.726,5.6a1.61,1.61,0,0,1,1.3-.564,1.3,1.3,0,0,1,1.026.444,1.717,1.717,0,0,1,.39,1.176V10H97.7V6.4a2.547,2.547,0,0,0-.66-1.818A2.262,2.262,0,0,0,95.316,3.88Zm9.744-2.52H103.8V4.732a2.877,2.877,0,0,0-2.16-.852,2.818,2.818,0,0,0-2.076.888,3.079,3.079,0,0,0-.876,2.256,3.079,3.079,0,0,0,.876,2.256,2.818,2.818,0,0,0,2.076.888,2.924,2.924,0,0,0,2.16-.84V10h1.26Zm-3.216,7.7a1.862,1.862,0,0,1-1.38-.558,2.015,2.015,0,0,1-.552-1.482,2.02,2.02,0,0,1,.552-1.476,1.852,1.852,0,0,1,1.38-.564,1.9,1.9,0,0,1,1.368.57,1.957,1.957,0,0,1,.588,1.47,1.952,1.952,0,0,1-.588,1.476A1.915,1.915,0,0,1,101.844,9.064Zm7.548-5.148a3.205,3.205,0,0,0-2.274.87,2.927,2.927,0,0,0-.93,2.238,2.946,2.946,0,0,0,.93,2.244,3.193,3.193,0,0,0,2.274.876,3.157,3.157,0,0,0,2.256-.876,2.956,2.956,0,0,0,.924-2.244,2.946,2.946,0,0,0-.918-2.238A3.163,3.163,0,0,0,109.392,3.916Zm0,5.148a1.927,1.927,0,0,1-1.4-.57,1.968,1.968,0,0,1-.582-1.47,1.968,1.968,0,0,1,.582-1.47,1.977,1.977,0,0,1,2.778,0,1.957,1.957,0,0,1,.588,1.47,1.957,1.957,0,0,1-.588,1.47A1.919,1.919,0,0,1,109.392,9.064ZM6.612,18.048H5.4v.588a2.7,2.7,0,0,0-2.052-.744A2.871,2.871,0,0,0,1.3,18.72a2.705,2.705,0,0,0-.87,2.04,2.734,2.734,0,0,0,.876,2.052,2.856,2.856,0,0,0,2.04.84A2.7,2.7,0,0,0,5.4,22.908v.384a1.816,1.816,0,0,1-.51,1.362,1.866,1.866,0,0,1-1.362.5,2.161,2.161,0,0,1-1.11-.252,2.378,2.378,0,0,1-.774-.8l-1.02.756a2.993,2.993,0,0,0,2.9,1.428,3.256,3.256,0,0,0,2.25-.744,2.623,2.623,0,0,0,.834-2.064Zm-3.06,4.524a1.931,1.931,0,0,1-1.362-.5,1.847,1.847,0,0,1,0-2.622,1.945,1.945,0,0,1,1.362-.5,1.854,1.854,0,0,1,1.3.5,1.833,1.833,0,0,1,0,2.61A1.842,1.842,0,0,1,3.552,22.572Zm10.536-4.524H12.84v.684a2.853,2.853,0,0,0-2.16-.852,2.818,2.818,0,0,0-2.076.888,3.079,3.079,0,0,0-.876,2.256,3.085,3.085,0,0,0,.87,2.262,2.822,2.822,0,0,0,2.082.882,2.853,2.853,0,0,0,2.16-.852V24h1.248Zm-3.2,5.016a1.876,1.876,0,0,1-1.392-.558,2.265,2.265,0,0,1,0-2.964,1.876,1.876,0,0,1,1.392-.558,1.9,1.9,0,0,1,1.368.57,2.132,2.132,0,0,1,0,2.94A1.9,1.9,0,0,1,10.884,23.064Zm8.172-5.184a2.553,2.553,0,0,0-2.064.9v-.732H15.744V24h1.248V21.252a2.516,2.516,0,0,1,.474-1.656,1.61,1.61,0,0,1,1.3-.564,1.3,1.3,0,0,1,1.026.444,1.717,1.717,0,0,1,.39,1.176V24h1.26V20.4a2.547,2.547,0,0,0-.66-1.818A2.262,2.262,0,0,0,19.056,17.88Zm9.708.168H27.516v.684a2.853,2.853,0,0,0-2.16-.852,2.818,2.818,0,0,0-2.076.888,3.079,3.079,0,0,0-.876,2.256,3.085,3.085,0,0,0,.87,2.262,2.822,2.822,0,0,0,2.082.882,2.853,2.853,0,0,0,2.16-.852V24h1.248Zm-3.2,5.016a1.876,1.876,0,0,1-1.392-.558,2.265,2.265,0,0,1,0-2.964,1.876,1.876,0,0,1,1.392-.558,1.9,1.9,0,0,1,1.368.57,2.132,2.132,0,0,1,0,2.94A1.9,1.9,0,0,1,25.56,23.064Zm8.172-5.184a2.553,2.553,0,0,0-2.064.9v-.732H30.42V24h1.248V21.252a2.516,2.516,0,0,1,.474-1.656,1.61,1.61,0,0,1,1.3-.564,1.3,1.3,0,0,1,1.026.444,1.717,1.717,0,0,1,.39,1.176V24h1.26V20.4a2.547,2.547,0,0,0-.66-1.818A2.262,2.262,0,0,0,33.732,17.88Zm6.516,5.136a1.858,1.858,0,0,1-1.38-.546,2.181,2.181,0,0,1,.006-2.88,1.842,1.842,0,0,1,1.374-.558,1.816,1.816,0,0,1,1.08.324,1.641,1.641,0,0,1,.624.96l1.2-.348a2.754,2.754,0,0,0-1.08-1.518,3.221,3.221,0,0,0-4.05.318,3.238,3.238,0,0,0,0,4.518,3.26,3.26,0,0,0,4.08.306,2.6,2.6,0,0,0,1.05-1.524L42,21.768A1.69,1.69,0,0,1,40.248,23.016Zm4.776-7.536a.781.781,0,0,0-.576.228.752.752,0,0,0-.228.552.727.727,0,0,0,.228.552.8.8,0,0,0,.576.216.783.783,0,0,0,.57-.216.737.737,0,0,0,.222-.552.752.752,0,0,0-.228-.552A.766.766,0,0,0,45.024,15.48ZM45.648,24V18.048H44.4V24Zm7.56-5.952H51.96v.684a2.853,2.853,0,0,0-2.16-.852,2.818,2.818,0,0,0-2.076.888,3.079,3.079,0,0,0-.876,2.256,3.085,3.085,0,0,0,.87,2.262,2.822,2.822,0,0,0,2.082.882,2.853,2.853,0,0,0,2.16-.852V24h1.248ZM50,23.064a1.876,1.876,0,0,1-1.392-.558,2.265,2.265,0,0,1,0-2.964A1.876,1.876,0,0,1,50,18.984a1.9,1.9,0,0,1,1.368.57,2.131,2.131,0,0,1,0,2.94A1.9,1.9,0,0,1,50,23.064Zm4.356-.66a1.718,1.718,0,0,0,.84,1.314,3.352,3.352,0,0,0,1.788.45,3.006,3.006,0,0,0,1.824-.5,1.657,1.657,0,0,0,.684-1.416,1.419,1.419,0,0,0-.408-1.038,2.2,2.2,0,0,0-1.14-.57l-1.416-.312q-.72-.168-.72-.672a.693.693,0,0,1,.27-.558,1.211,1.211,0,0,1,.786-.222,1.523,1.523,0,0,1,.924.264,1.055,1.055,0,0,1,.432.708l1.188-.252a2.01,2.01,0,0,0-.834-1.242A2.816,2.816,0,0,0,56.9,17.88a2.629,2.629,0,0,0-1.71.522,1.672,1.672,0,0,0-.642,1.362q0,1.26,1.62,1.62l1.3.264q.8.18.8.708a.665.665,0,0,1-.318.576,1.505,1.505,0,0,1-.858.216A1.9,1.9,0,0,1,56.07,22.9a.98.98,0,0,1-.462-.756Zm11.664.612a1.858,1.858,0,0,1-1.38-.546,2.181,2.181,0,0,1,.006-2.88,1.842,1.842,0,0,1,1.374-.558,1.816,1.816,0,0,1,1.08.324,1.641,1.641,0,0,1,.624.96l1.2-.348a2.754,2.754,0,0,0-1.08-1.518,3.221,3.221,0,0,0-4.05.318,3.238,3.238,0,0,0,0,4.518,3.26,3.26,0,0,0,4.08.306,2.6,2.6,0,0,0,1.05-1.524l-1.152-.3A1.69,1.69,0,0,1,66.024,23.016Zm6.744-5.1a3.205,3.205,0,0,0-2.274.87,3.165,3.165,0,0,0,0,4.482,3.193,3.193,0,0,0,2.274.876,3.157,3.157,0,0,0,2.256-.876,3.187,3.187,0,0,0,.006-4.482A3.163,3.163,0,0,0,72.768,17.916Zm0,5.148a1.927,1.927,0,0,1-1.4-.57,2.147,2.147,0,0,1,0-2.94,1.977,1.977,0,0,1,2.778,0,2.131,2.131,0,0,1,0,2.94A1.919,1.919,0,0,1,72.768,23.064Zm7.644-5.184a2.553,2.553,0,0,0-2.064.9v-.732H77.1V24h1.248V21.252a2.516,2.516,0,0,1,.474-1.656,1.61,1.61,0,0,1,1.3-.564,1.3,1.3,0,0,1,1.026.444,1.717,1.717,0,0,1,.39,1.176V24H82.8V20.4a2.547,2.547,0,0,0-.66-1.818A2.262,2.262,0,0,0,80.412,17.88ZM90.84,22.956a2.756,2.756,0,0,1-2.058-.858,3.106,3.106,0,0,1,0-4.236,2.938,2.938,0,0,1,3.738-.342,2.626,2.626,0,0,1,.972,1.512l1.248-.36a3.625,3.625,0,0,0-1.4-2.1,4.119,4.119,0,0,0-2.5-.78,4.159,4.159,0,0,0-4.188,4.188,4.149,4.149,0,0,0,4.188,4.188,4.1,4.1,0,0,0,2.508-.792,3.648,3.648,0,0,0,1.392-2.184l-1.248-.264a2.626,2.626,0,0,1-.972,1.512A2.775,2.775,0,0,1,90.84,22.956ZM97.272,24V15.36H96.024V24Zm2.376-8.52a.781.781,0,0,0-.576.228.752.752,0,0,0-.228.552.727.727,0,0,0,.228.552.8.8,0,0,0,.576.216.783.783,0,0,0,.57-.216.737.737,0,0,0,.222-.552.752.752,0,0,0-.228-.552A.766.766,0,0,0,99.648,15.48Zm.624,8.52V18.048H99.024V24Zm4.368-.984a1.858,1.858,0,0,1-1.38-.546,2.181,2.181,0,0,1,.006-2.88,1.842,1.842,0,0,1,1.374-.558,1.816,1.816,0,0,1,1.08.324,1.641,1.641,0,0,1,.624.96l1.2-.348a2.754,2.754,0,0,0-1.08-1.518,3.221,3.221,0,0,0-4.05.318,3.238,3.238,0,0,0,0,4.518,3.26,3.26,0,0,0,4.08.306,2.6,2.6,0,0,0,1.05-1.524l-1.152-.3A1.69,1.69,0,0,1,104.64,23.016Zm10.1.984-3.468-3.072,3.12-2.88h-1.6l-2.484,2.244h-.372V15.36H108.7V24h1.248V21.528h.36L113.052,24Zm6.228-5.952h-1.248v.684a2.853,2.853,0,0,0-2.16-.852,2.818,2.818,0,0,0-2.076.888,3.079,3.079,0,0,0-.876,2.256,3.085,3.085,0,0,0,.87,2.262,2.822,2.822,0,0,0,2.082.882,2.853,2.853,0,0,0,2.16-.852V24h1.248Zm-3.2,5.016a1.876,1.876,0,0,1-1.392-.558,2.265,2.265,0,0,1,0-2.964,1.876,1.876,0,0,1,1.392-.558,1.9,1.9,0,0,1,1.368.57,2.132,2.132,0,0,1,0,2.94A1.9,1.9,0,0,1,117.768,23.064Zm12.216-5.184a2.565,2.565,0,0,0-2.22,1.092,2.034,2.034,0,0,0-.81-.8,2.381,2.381,0,0,0-1.17-.288,2.324,2.324,0,0,0-1.908.84v-.672h-1.248V24h1.248V21.048a2.3,2.3,0,0,1,.426-1.5,1.422,1.422,0,0,1,1.158-.516,1.287,1.287,0,0,1,.966.39,1.428,1.428,0,0,1,.378,1.038V24h1.248V21.048a2.281,2.281,0,0,1,.432-1.5,1.453,1.453,0,0,1,1.176-.516,1.287,1.287,0,0,1,.966.39A1.428,1.428,0,0,1,131,20.46V24h1.236V20.208a2.262,2.262,0,0,0-.654-1.68A2.189,2.189,0,0,0,129.984,17.88Z" transform="translate(14 24)" fill="#fff"/></g></g></g><g transform="translate(-860 -69)"><g transform="matrix(1, 0, 0, 1, 866, 581)" filter="url(#e)"><rect width="209" height="74" rx="20" transform="translate(19 217)" fill="#8d7eb7"/></g><g transform="translate(899.326 806.178)"><path d="M12.552-5.712V-8.856h-4.1v-4.176H5.3v4.176H1.2v3.144H5.3v4.176H8.448V-5.712ZM20.9-16.08h-2.5L13.224-13.1v3.552l3.84-1.968V0H20.9ZM24.984-4.2a2.1,2.1,0,0,0-1.56.636A2.1,2.1,0,0,0,22.8-2.04a2.077,2.077,0,0,0,.624,1.548,2.138,2.138,0,0,0,1.56.612A2.146,2.146,0,0,0,26.568-.5a2.088,2.088,0,0,0,.624-1.536,2.079,2.079,0,0,0-.636-1.524A2.135,2.135,0,0,0,24.984-4.2Zm7.608-6.24.1-2.208h7.1V-16.08H29.232L28.944-7.2h5.52a2.489,2.489,0,0,1,1.668.54,1.807,1.807,0,0,1,.636,1.452,2.115,2.115,0,0,1-.636,1.6A2.3,2.3,0,0,1,34.464-3a2.442,2.442,0,0,1-1.8-.72A3.044,3.044,0,0,1,31.92-5.9l-3.744.744a5.173,5.173,0,0,0,1.836,4.068A6.664,6.664,0,0,0,34.392.36,6.221,6.221,0,0,0,38.82-1.2a5.3,5.3,0,0,0,1.668-4.056,4.909,4.909,0,0,0-1.512-3.78,5.864,5.864,0,0,0-4.152-1.4Zm16.176-6a6.374,6.374,0,0,0-5.136,2.316A9.147,9.147,0,0,0,41.688-8.04a9.147,9.147,0,0,0,1.944,6.084A6.374,6.374,0,0,0,48.768.36a6.409,6.409,0,0,0,5.148-2.316A9.11,9.11,0,0,0,55.872-8.04a9.11,9.11,0,0,0-1.956-6.084A6.409,6.409,0,0,0,48.768-16.44Zm0,13.32a2.561,2.561,0,0,1-2.256-1.332,6.671,6.671,0,0,1-.84-3.588,6.671,6.671,0,0,1,.84-3.588,2.561,2.561,0,0,1,2.256-1.332,2.588,2.588,0,0,1,2.268,1.332,6.6,6.6,0,0,1,.852,3.588,6.6,6.6,0,0,1-.852,3.588A2.588,2.588,0,0,1,48.768-3.12ZM64.224-16.44a6.374,6.374,0,0,0-5.136,2.316A9.147,9.147,0,0,0,57.144-8.04a9.147,9.147,0,0,0,1.944,6.084A6.374,6.374,0,0,0,64.224.36a6.409,6.409,0,0,0,5.148-2.316A9.11,9.11,0,0,0,71.328-8.04a9.11,9.11,0,0,0-1.956-6.084A6.409,6.409,0,0,0,64.224-16.44Zm0,13.32a2.561,2.561,0,0,1-2.256-1.332,6.671,6.671,0,0,1-.84-3.588,6.671,6.671,0,0,1,.84-3.588,2.561,2.561,0,0,1,2.256-1.332,2.588,2.588,0,0,1,2.268,1.332,6.6,6.6,0,0,1,.852,3.588,6.6,6.6,0,0,1-.852,3.588A2.588,2.588,0,0,1,64.224-3.12Zm32.52-12.96H92.88l-5.4,9.96-5.4-9.96H78.192V0h3.84V-8.064L86.256,0H88.7l4.2-8.016V0h3.84Zm4.416-1.7a2.125,2.125,0,0,0-1.584.636,2.128,2.128,0,0,0-.624,1.548,2.048,2.048,0,0,0,.624,1.524,2.169,2.169,0,0,0,1.584.612,2.21,2.21,0,0,0,1.6-.612,2.029,2.029,0,0,0,.636-1.524,2.119,2.119,0,0,0-.636-1.536A2.144,2.144,0,0,0,101.16-17.784ZM103.08,0V-12.048H99.24V0Zm6.336,0V-17.28h-3.84V0Zm6.144,0V-17.28h-3.84V0Zm8.184-12.36A6.746,6.746,0,0,0,119-10.584a5.916,5.916,0,0,0-1.932,4.56A5.943,5.943,0,0,0,119-1.44a6.746,6.746,0,0,0,4.74,1.776,6.64,6.64,0,0,0,4.68-1.776,5.961,5.961,0,0,0,1.92-4.584,5.933,5.933,0,0,0-1.92-4.56A6.64,6.64,0,0,0,123.744-12.36Zm0,9.456a2.865,2.865,0,0,1-2.1-.876,3.038,3.038,0,0,1-.876-2.244,3.016,3.016,0,0,1,.888-2.244,2.877,2.877,0,0,1,2.088-.876,2.784,2.784,0,0,1,2.028.876,3.038,3.038,0,0,1,.876,2.244,3.061,3.061,0,0,1-.864,2.244A2.771,2.771,0,0,1,123.744-2.9Zm15.648-9.5a4.878,4.878,0,0,0-3.7,1.512v-1.152h-3.84V0h3.84V-5.592a4.026,4.026,0,0,1,.66-2.532,2.217,2.217,0,0,1,1.836-.828,1.884,1.884,0,0,1,1.488.66,2.515,2.515,0,0,1,.576,1.716V0h3.816V-7.392a5.124,5.124,0,0,0-1.284-3.636A4.419,4.419,0,0,0,139.392-12.408Zm18.624,6.384a6.374,6.374,0,0,0-1.824-4.632,6.008,6.008,0,0,0-4.392-1.752,6.252,6.252,0,0,0-4.536,1.8,6.124,6.124,0,0,0-1.848,4.584,6.114,6.114,0,0,0,1.848,4.6A6.245,6.245,0,0,0,151.776.36a6.87,6.87,0,0,0,3.66-.948,5.743,5.743,0,0,0,2.316-2.82l-3.408-.7a2.7,2.7,0,0,1-2.568,1.392,2.4,2.4,0,0,1-1.656-.624,3.123,3.123,0,0,1-.936-1.7h8.832ZM151.8-9.288a2.471,2.471,0,0,1,1.512.48,2.554,2.554,0,0,1,.912,1.416h-4.968a2.52,2.52,0,0,1,.984-1.392A2.666,2.666,0,0,1,151.8-9.288Zm6.912,6.144a3.54,3.54,0,0,0,1.836,2.628,7.675,7.675,0,0,0,3.828.876A6.777,6.777,0,0,0,168.336-.7a3.443,3.443,0,0,0,1.512-3,3.368,3.368,0,0,0-.84-2.316,4.5,4.5,0,0,0-2.5-1.308L163.68-7.9q-.912-.192-.912-.84a.84.84,0,0,1,.324-.66,1.6,1.6,0,0,1,1.044-.276,2.226,2.226,0,0,1,1.38.408,1.545,1.545,0,0,1,.636,1.008l3.5-.7a3.965,3.965,0,0,0-1.812-2.52,6.631,6.631,0,0,0-3.66-.936,5.939,5.939,0,0,0-3.744,1.116A3.563,3.563,0,0,0,159-8.328q0,2.856,3.5,3.5l2.448.48q1.2.216,1.2.888a.8.8,0,0,1-.42.684,2.054,2.054,0,0,1-1.14.276q-1.9,0-2.136-1.416Z" transform="translate(3.674 22.822)" fill="#fff"/><path d="M4.26,3.88a2.553,2.553,0,0,0-2.064.9V1.36H.948V10H2.2V7.252A2.516,2.516,0,0,1,2.67,5.6a1.61,1.61,0,0,1,1.3-.564A1.3,1.3,0,0,1,5,5.476a1.717,1.717,0,0,1,.39,1.176V10h1.26V6.4a2.547,2.547,0,0,0-.66-1.818A2.262,2.262,0,0,0,4.26,3.88ZM13.7,6.892A3.077,3.077,0,0,0,12.8,4.726a2.841,2.841,0,0,0-2.07-.846,3,3,0,0,0-2.19.882,3.055,3.055,0,0,0-.894,2.274,3.021,3.021,0,0,0,.894,2.256,2.952,2.952,0,0,0,2.142.876,3.22,3.22,0,0,0,1.758-.474,2.793,2.793,0,0,0,1.11-1.4l-1.116-.24A1.8,1.8,0,0,1,10.68,9.088a1.707,1.707,0,0,1-1.2-.48,1.964,1.964,0,0,1-.6-1.284H13.7ZM10.728,4.984a1.673,1.673,0,0,1,1.092.372,1.8,1.8,0,0,1,.6,1.08h-3.5a1.655,1.655,0,0,1,.66-1.068A1.917,1.917,0,0,1,10.728,4.984ZM22.2,3.88a2.565,2.565,0,0,0-2.22,1.092,2.034,2.034,0,0,0-.81-.8A2.381,2.381,0,0,0,18,3.88a2.324,2.324,0,0,0-1.908.84V4.048H14.844V10h1.248V7.048a2.3,2.3,0,0,1,.426-1.5,1.422,1.422,0,0,1,1.158-.516,1.287,1.287,0,0,1,.966.39A1.428,1.428,0,0,1,19.02,6.46V10h1.248V7.048a2.281,2.281,0,0,1,.432-1.5,1.453,1.453,0,0,1,1.176-.516,1.287,1.287,0,0,1,.966.39A1.428,1.428,0,0,1,23.22,6.46V10h1.236V6.208a2.262,2.262,0,0,0-.654-1.68A2.189,2.189,0,0,0,22.2,3.88Zm6.468.036a3.205,3.205,0,0,0-2.274.87,2.927,2.927,0,0,0-.93,2.238,2.946,2.946,0,0,0,.93,2.244,3.193,3.193,0,0,0,2.274.876,3.157,3.157,0,0,0,2.256-.876,2.956,2.956,0,0,0,.924-2.244,2.946,2.946,0,0,0-.918-2.238A3.163,3.163,0,0,0,28.668,3.916Zm0,5.148a1.927,1.927,0,0,1-1.4-.57,1.968,1.968,0,0,1-.582-1.47,1.968,1.968,0,0,1,.582-1.47,1.977,1.977,0,0,1,2.778,0,1.957,1.957,0,0,1,.588,1.47,1.957,1.957,0,0,1-.588,1.47A1.919,1.919,0,0,1,28.668,9.064ZM32.5,8.4a1.718,1.718,0,0,0,.84,1.314,3.352,3.352,0,0,0,1.788.45,3.006,3.006,0,0,0,1.824-.5,1.657,1.657,0,0,0,.684-1.416,1.419,1.419,0,0,0-.408-1.038,2.2,2.2,0,0,0-1.14-.57l-1.416-.312q-.72-.168-.72-.672a.693.693,0,0,1,.27-.558A1.211,1.211,0,0,1,35,4.876a1.523,1.523,0,0,1,.924.264,1.055,1.055,0,0,1,.432.708L37.548,5.6a2.01,2.01,0,0,0-.834-1.242A2.816,2.816,0,0,0,35.04,3.88a2.629,2.629,0,0,0-1.71.522,1.672,1.672,0,0,0-.642,1.362q0,1.26,1.62,1.62l1.3.264q.8.18.8.708a.665.665,0,0,1-.318.576,1.505,1.505,0,0,1-.858.216A1.9,1.9,0,0,1,34.206,8.9a.98.98,0,0,1-.462-.756Zm14.58-1.512a3.077,3.077,0,0,0-.906-2.166A2.841,2.841,0,0,0,44.1,3.88a3,3,0,0,0-2.19.882,3.055,3.055,0,0,0-.894,2.274,3.021,3.021,0,0,0,.894,2.256,2.952,2.952,0,0,0,2.142.876,3.22,3.22,0,0,0,1.758-.474,2.793,2.793,0,0,0,1.11-1.4L45.8,8.056a1.8,1.8,0,0,1-1.752,1.032,1.707,1.707,0,0,1-1.2-.48,1.964,1.964,0,0,1-.6-1.284h4.824ZM44.1,4.984a1.673,1.673,0,0,1,1.092.372,1.8,1.8,0,0,1,.6,1.08h-3.5a1.655,1.655,0,0,1,.66-1.068A1.917,1.917,0,0,1,44.1,4.984Zm7.428-1.1a2.553,2.553,0,0,0-2.064.9V4.048H48.216V10h1.248V7.252A2.516,2.516,0,0,1,49.938,5.6a1.61,1.61,0,0,1,1.3-.564,1.3,1.3,0,0,1,1.026.444,1.717,1.717,0,0,1,.39,1.176V10h1.26V6.4a2.547,2.547,0,0,0-.66-1.818A2.262,2.262,0,0,0,51.528,3.88Zm7.464,4.788a1.812,1.812,0,0,1-1.008.324.938.938,0,0,1-.72-.282A1.16,1.16,0,0,1,57,7.888V5.08h2.04V4.048H57V2.2H55.752V4.048H54.468V5.08h1.284V7.972a2.179,2.179,0,0,0,.576,1.638,2.164,2.164,0,0,0,1.572.558,2.9,2.9,0,0,0,1.476-.456ZM63.66,3.976A2.531,2.531,0,0,0,61.392,5.32V4.048H60.144V10h1.248V7.9a3.061,3.061,0,0,1,.576-1.974,2.032,2.032,0,0,1,1.68-.714A3.319,3.319,0,0,1,64,5.224l.084-1.2A1.476,1.476,0,0,0,63.66,3.976Zm6.72,2.916a3.077,3.077,0,0,0-.906-2.166A2.841,2.841,0,0,0,67.4,3.88a3,3,0,0,0-2.19.882,3.056,3.056,0,0,0-.894,2.274,3.021,3.021,0,0,0,.894,2.256,2.952,2.952,0,0,0,2.142.876,3.22,3.22,0,0,0,1.758-.474,2.793,2.793,0,0,0,1.11-1.4l-1.116-.24a1.8,1.8,0,0,1-1.752,1.032,1.707,1.707,0,0,1-1.2-.48,1.964,1.964,0,0,1-.6-1.284H70.38ZM67.4,4.984a1.673,1.673,0,0,1,1.092.372,1.8,1.8,0,0,1,.6,1.08h-3.5a1.655,1.655,0,0,1,.66-1.068A1.917,1.917,0,0,1,67.4,4.984Zm9.78-.936H75.972v.588a2.7,2.7,0,0,0-2.052-.744,2.871,2.871,0,0,0-2.046.828A2.705,2.705,0,0,0,71,6.76a2.734,2.734,0,0,0,.876,2.052,2.856,2.856,0,0,0,2.04.84,2.7,2.7,0,0,0,2.052-.744v.384a1.816,1.816,0,0,1-.51,1.362,1.866,1.866,0,0,1-1.362.5,2.162,2.162,0,0,1-1.11-.252,2.378,2.378,0,0,1-.774-.8l-1.02.756a2.993,2.993,0,0,0,2.9,1.428,3.256,3.256,0,0,0,2.25-.744,2.623,2.623,0,0,0,.834-2.064Zm-3.06,4.524a1.931,1.931,0,0,1-1.362-.5,1.7,1.7,0,0,1-.546-1.308,1.694,1.694,0,0,1,.546-1.314,1.945,1.945,0,0,1,1.362-.5,1.854,1.854,0,0,1,1.3.5,1.7,1.7,0,0,1,.546,1.308,1.7,1.7,0,0,1-.546,1.3A1.842,1.842,0,0,1,74.124,8.572ZM84.66,4.048H83.412v.684a2.853,2.853,0,0,0-2.16-.852,2.818,2.818,0,0,0-2.076.888A3.079,3.079,0,0,0,78.3,7.024a3.085,3.085,0,0,0,.87,2.262,2.822,2.822,0,0,0,2.082.882,2.853,2.853,0,0,0,2.16-.852V10H84.66Zm-3.2,5.016a1.876,1.876,0,0,1-1.392-.558,2.015,2.015,0,0,1-.552-1.482,2.015,2.015,0,0,1,.552-1.482,1.876,1.876,0,0,1,1.392-.558,1.9,1.9,0,0,1,1.368.57,1.957,1.957,0,0,1,.588,1.47,1.957,1.957,0,0,1-.588,1.47A1.9,1.9,0,0,1,81.456,9.064Zm10.716-7.7h-1.26V4.732a2.877,2.877,0,0,0-2.16-.852,2.818,2.818,0,0,0-2.076.888A3.079,3.079,0,0,0,85.8,7.024a3.079,3.079,0,0,0,.876,2.256,2.818,2.818,0,0,0,2.076.888,2.924,2.924,0,0,0,2.16-.84V10h1.26Zm-3.216,7.7a1.862,1.862,0,0,1-1.38-.558,2.015,2.015,0,0,1-.552-1.482,2.02,2.02,0,0,1,.552-1.476,1.852,1.852,0,0,1,1.38-.564,1.9,1.9,0,0,1,1.368.57,1.957,1.957,0,0,1,.588,1.47A1.952,1.952,0,0,1,90.324,8.5,1.915,1.915,0,0,1,88.956,9.064ZM96.5,3.916a3.205,3.205,0,0,0-2.274.87,2.927,2.927,0,0,0-.93,2.238,2.946,2.946,0,0,0,.93,2.244,3.193,3.193,0,0,0,2.274.876,3.157,3.157,0,0,0,2.256-.876,2.956,2.956,0,0,0,.924-2.244,2.946,2.946,0,0,0-.918-2.238A3.163,3.163,0,0,0,96.5,3.916Zm0,5.148a1.927,1.927,0,0,1-1.4-.57,1.968,1.968,0,0,1-.582-1.47,1.968,1.968,0,0,1,.582-1.47,1.977,1.977,0,0,1,2.778,0,1.957,1.957,0,0,1,.588,1.47,1.957,1.957,0,0,1-.588,1.47A1.919,1.919,0,0,1,96.5,9.064ZM109.38,4.048h-1.248v.684a2.853,2.853,0,0,0-2.16-.852,2.818,2.818,0,0,0-2.076.888,3.079,3.079,0,0,0-.876,2.256,3.085,3.085,0,0,0,.87,2.262,2.822,2.822,0,0,0,2.082.882,2.853,2.853,0,0,0,2.16-.852V10h1.248Zm-3.2,5.016a1.876,1.876,0,0,1-1.392-.558,2.015,2.015,0,0,1-.552-1.482,2.015,2.015,0,0,1,.552-1.482,1.876,1.876,0,0,1,1.392-.558,1.9,1.9,0,0,1,1.368.57,1.957,1.957,0,0,1,.588,1.47,1.957,1.957,0,0,1-.588,1.47A1.9,1.9,0,0,1,106.176,9.064Zm8.832.936V1.36H113.76V10Zm4.344-6.084a3.205,3.205,0,0,0-2.274.87,2.927,2.927,0,0,0-.93,2.238,2.946,2.946,0,0,0,.93,2.244,3.193,3.193,0,0,0,2.274.876,3.157,3.157,0,0,0,2.256-.876,2.956,2.956,0,0,0,.924-2.244,2.946,2.946,0,0,0-.918-2.238A3.163,3.163,0,0,0,119.352,3.916Zm0,5.148a1.927,1.927,0,0,1-1.4-.57,1.968,1.968,0,0,1-.582-1.47,1.968,1.968,0,0,1,.582-1.47,1.977,1.977,0,0,1,2.778,0,1.957,1.957,0,0,1,.588,1.47,1.957,1.957,0,0,1-.588,1.47A1.919,1.919,0,0,1,119.352,9.064Zm3.828-.66a1.718,1.718,0,0,0,.84,1.314,3.352,3.352,0,0,0,1.788.45,3.006,3.006,0,0,0,1.824-.5,1.657,1.657,0,0,0,.684-1.416,1.419,1.419,0,0,0-.408-1.038,2.2,2.2,0,0,0-1.14-.57l-1.416-.312q-.72-.168-.72-.672a.693.693,0,0,1,.27-.558,1.211,1.211,0,0,1,.786-.222,1.523,1.523,0,0,1,.924.264,1.055,1.055,0,0,1,.432.708l1.188-.252a2.01,2.01,0,0,0-.834-1.242,2.816,2.816,0,0,0-1.674-.474,2.629,2.629,0,0,0-1.71.522,1.672,1.672,0,0,0-.642,1.362q0,1.26,1.62,1.62l1.3.264q.8.18.8.708a.665.665,0,0,1-.318.576,1.506,1.506,0,0,1-.858.216A1.9,1.9,0,0,1,124.89,8.9a.98.98,0,0,1-.462-.756ZM4.764,22.956A2.756,2.756,0,0,1,2.706,22.1a3.106,3.106,0,0,1,0-4.236A2.756,2.756,0,0,1,4.764,17a2.775,2.775,0,0,1,1.68.516,2.626,2.626,0,0,1,.972,1.512l1.248-.36a3.625,3.625,0,0,0-1.4-2.1,4.119,4.119,0,0,0-2.5-.78,4.041,4.041,0,0,0-2.97,1.218,4.237,4.237,0,0,0,0,5.946,4.051,4.051,0,0,0,2.97,1.212,4.1,4.1,0,0,0,2.508-.792,3.648,3.648,0,0,0,1.392-2.184l-1.248-.264a2.626,2.626,0,0,1-.972,1.512A2.775,2.775,0,0,1,4.764,22.956ZM11.2,24V15.36H9.948V24Zm2.376-8.52a.781.781,0,0,0-.576.228.752.752,0,0,0-.228.552.727.727,0,0,0,.228.552.8.8,0,0,0,.576.216.783.783,0,0,0,.57-.216.737.737,0,0,0,.222-.552.752.752,0,0,0-.228-.552A.766.766,0,0,0,13.572,15.48ZM14.2,24V18.048H12.948V24Zm4.368-.984a1.858,1.858,0,0,1-1.38-.546,2.181,2.181,0,0,1,.006-2.88,1.842,1.842,0,0,1,1.374-.558,1.816,1.816,0,0,1,1.08.324,1.641,1.641,0,0,1,.624.96l1.2-.348a2.754,2.754,0,0,0-1.08-1.518,3.221,3.221,0,0,0-4.05.318,3.238,3.238,0,0,0,0,4.518,3.26,3.26,0,0,0,4.08.306,2.6,2.6,0,0,0,1.05-1.524l-1.152-.3A1.69,1.69,0,0,1,18.564,23.016Zm10.1.984L25.2,20.928l3.12-2.88h-1.6L24.24,20.292h-.372V15.36H22.62V24h1.248V21.528h.36L26.976,24Zm5.952-3.108a3.077,3.077,0,0,0-.906-2.166,2.841,2.841,0,0,0-2.07-.846,3,3,0,0,0-2.19.882,3.055,3.055,0,0,0-.894,2.274,3.021,3.021,0,0,0,.894,2.256,2.952,2.952,0,0,0,2.142.876,3.22,3.22,0,0,0,1.758-.474,2.793,2.793,0,0,0,1.11-1.4l-1.116-.24A1.8,1.8,0,0,1,31.6,23.088a1.707,1.707,0,0,1-1.2-.48,1.964,1.964,0,0,1-.6-1.284H34.62Zm-2.976-1.908a1.673,1.673,0,0,1,1.092.372,1.8,1.8,0,0,1,.6,1.08h-3.5a1.655,1.655,0,0,1,.66-1.068A1.917,1.917,0,0,1,31.644,18.984Zm7.632-1.008a2.531,2.531,0,0,0-2.268,1.344V18.048H35.76V24h1.248V21.9a3.061,3.061,0,0,1,.576-1.974,2.032,2.032,0,0,1,1.68-.714,3.319,3.319,0,0,1,.348.012l.084-1.2A1.476,1.476,0,0,0,39.276,17.976Zm.7,4.428a1.718,1.718,0,0,0,.84,1.314,3.352,3.352,0,0,0,1.788.45,3.006,3.006,0,0,0,1.824-.5,1.657,1.657,0,0,0,.684-1.416A1.419,1.419,0,0,0,44.7,21.21a2.2,2.2,0,0,0-1.14-.57l-1.416-.312q-.72-.168-.72-.672a.693.693,0,0,1,.27-.558,1.211,1.211,0,0,1,.786-.222,1.523,1.523,0,0,1,.924.264,1.055,1.055,0,0,1,.432.708l1.188-.252a2.01,2.01,0,0,0-.834-1.242,2.816,2.816,0,0,0-1.674-.474,2.629,2.629,0,0,0-1.71.522,1.672,1.672,0,0,0-.642,1.362q0,1.26,1.62,1.62l1.3.264q.8.18.8.708a.665.665,0,0,1-.318.576,1.505,1.505,0,0,1-.858.216,1.9,1.9,0,0,1-1.026-.252.98.98,0,0,1-.462-.756Zm14.58-1.512a3.077,3.077,0,0,0-.906-2.166,2.841,2.841,0,0,0-2.07-.846,3,3,0,0,0-2.19.882,3.055,3.055,0,0,0-.894,2.274,3.021,3.021,0,0,0,.894,2.256,2.952,2.952,0,0,0,2.142.876,3.22,3.22,0,0,0,1.758-.474,2.793,2.793,0,0,0,1.11-1.4l-1.116-.24a1.8,1.8,0,0,1-1.752,1.032,1.707,1.707,0,0,1-1.2-.48,1.964,1.964,0,0,1-.6-1.284h4.824Zm-2.976-1.908a1.673,1.673,0,0,1,1.092.372,1.8,1.8,0,0,1,.6,1.08h-3.5a1.655,1.655,0,0,1,.66-1.068A1.917,1.917,0,0,1,51.576,18.984ZM59,17.88a2.553,2.553,0,0,0-2.064.9v-.732H55.692V24H56.94V21.252a2.516,2.516,0,0,1,.474-1.656,1.61,1.61,0,0,1,1.3-.564,1.3,1.3,0,0,1,1.026.444,1.717,1.717,0,0,1,.39,1.176V24h1.26V20.4a2.547,2.547,0,0,0-.66-1.818A2.262,2.262,0,0,0,59,17.88Zm12.276.168H70.068v.588a2.7,2.7,0,0,0-2.052-.744,2.871,2.871,0,0,0-2.046.828,2.705,2.705,0,0,0-.87,2.04,2.734,2.734,0,0,0,.876,2.052,2.856,2.856,0,0,0,2.04.84,2.7,2.7,0,0,0,2.052-.744v.384a1.816,1.816,0,0,1-.51,1.362,1.866,1.866,0,0,1-1.362.5,2.161,2.161,0,0,1-1.11-.252,2.378,2.378,0,0,1-.774-.8l-1.02.756a2.993,2.993,0,0,0,2.9,1.428,3.256,3.256,0,0,0,2.25-.744,2.623,2.623,0,0,0,.834-2.064Zm-3.06,4.524a1.931,1.931,0,0,1-1.362-.5,1.847,1.847,0,0,1,0-2.622,1.945,1.945,0,0,1,1.362-.5,1.854,1.854,0,0,1,1.3.5,1.833,1.833,0,0,1,0,2.61A1.842,1.842,0,0,1,68.22,22.572Zm10.536-4.524H77.508v.684a2.853,2.853,0,0,0-2.16-.852,2.818,2.818,0,0,0-2.076.888,3.079,3.079,0,0,0-.876,2.256,3.085,3.085,0,0,0,.87,2.262,2.822,2.822,0,0,0,2.082.882,2.853,2.853,0,0,0,2.16-.852V24h1.248Zm-3.2,5.016a1.876,1.876,0,0,1-1.392-.558,2.265,2.265,0,0,1,0-2.964,1.876,1.876,0,0,1,1.392-.558,1.9,1.9,0,0,1,1.368.57,2.132,2.132,0,0,1,0,2.94A1.9,1.9,0,0,1,75.552,23.064Zm8.172-5.184a2.553,2.553,0,0,0-2.064.9v-.732H80.412V24H81.66V21.252a2.516,2.516,0,0,1,.474-1.656,1.61,1.61,0,0,1,1.3-.564,1.3,1.3,0,0,1,1.026.444,1.717,1.717,0,0,1,.39,1.176V24h1.26V20.4a2.547,2.547,0,0,0-.66-1.818A2.262,2.262,0,0,0,83.724,17.88Zm9.708.168H92.184v.684a2.853,2.853,0,0,0-2.16-.852,2.818,2.818,0,0,0-2.076.888,3.079,3.079,0,0,0-.876,2.256,3.085,3.085,0,0,0,.87,2.262,2.822,2.822,0,0,0,2.082.882,2.853,2.853,0,0,0,2.16-.852V24h1.248Zm-3.2,5.016a1.876,1.876,0,0,1-1.392-.558,2.265,2.265,0,0,1,0-2.964,1.876,1.876,0,0,1,1.392-.558,1.9,1.9,0,0,1,1.368.57,2.132,2.132,0,0,1,0,2.94A1.9,1.9,0,0,1,90.228,23.064ZM98.4,17.88a2.553,2.553,0,0,0-2.064.9v-.732H95.088V24h1.248V21.252A2.516,2.516,0,0,1,96.81,19.6a1.61,1.61,0,0,1,1.3-.564,1.3,1.3,0,0,1,1.026.444,1.717,1.717,0,0,1,.39,1.176V24h1.26V20.4a2.547,2.547,0,0,0-.66-1.818A2.262,2.262,0,0,0,98.4,17.88Zm6.516,5.136a1.858,1.858,0,0,1-1.38-.546,2.181,2.181,0,0,1,.006-2.88,1.842,1.842,0,0,1,1.374-.558,1.816,1.816,0,0,1,1.08.324,1.641,1.641,0,0,1,.624.96l1.2-.348a2.754,2.754,0,0,0-1.08-1.518,3.221,3.221,0,0,0-4.05.318,3.238,3.238,0,0,0,0,4.518,3.26,3.26,0,0,0,4.08.306,2.6,2.6,0,0,0,1.05-1.524l-1.152-.3A1.69,1.69,0,0,1,104.916,23.016Zm4.776-7.536a.781.781,0,0,0-.576.228.752.752,0,0,0-.228.552.727.727,0,0,0,.228.552.8.8,0,0,0,.576.216.783.783,0,0,0,.57-.216.737.737,0,0,0,.222-.552.752.752,0,0,0-.228-.552A.766.766,0,0,0,109.692,15.48Zm.624,8.52V18.048h-1.248V24Zm7.56-5.952h-1.248v.684a2.853,2.853,0,0,0-2.16-.852,2.818,2.818,0,0,0-2.076.888,3.079,3.079,0,0,0-.876,2.256,3.085,3.085,0,0,0,.87,2.262,2.822,2.822,0,0,0,2.082.882,2.853,2.853,0,0,0,2.16-.852V24h1.248Zm-3.2,5.016a1.876,1.876,0,0,1-1.392-.558,2.265,2.265,0,0,1,0-2.964,1.876,1.876,0,0,1,1.392-.558,1.9,1.9,0,0,1,1.368.57,2.132,2.132,0,0,1,0,2.94A1.9,1.9,0,0,1,114.672,23.064Zm4.356-.66a1.718,1.718,0,0,0,.84,1.314,3.352,3.352,0,0,0,1.788.45,3.006,3.006,0,0,0,1.824-.5,1.657,1.657,0,0,0,.684-1.416,1.419,1.419,0,0,0-.408-1.038,2.2,2.2,0,0,0-1.14-.57l-1.416-.312q-.72-.168-.72-.672a.693.693,0,0,1,.27-.558,1.211,1.211,0,0,1,.786-.222,1.523,1.523,0,0,1,.924.264,1.055,1.055,0,0,1,.432.708l1.188-.252a2.01,2.01,0,0,0-.834-1.242,2.816,2.816,0,0,0-1.674-.474,2.629,2.629,0,0,0-1.71.522,1.672,1.672,0,0,0-.642,1.362q0,1.26,1.62,1.62l1.3.264q.8.18.8.708a.665.665,0,0,1-.318.576,1.505,1.505,0,0,1-.858.216,1.9,1.9,0,0,1-1.026-.252.98.98,0,0,1-.462-.756Z" transform="translate(17.674 27.822)" fill="#fff"/></g></g></g></svg>