<svg xmlns="http://www.w3.org/2000/svg" width="64" height="64" viewBox="0 0 64 64"><defs><style>.a{fill:none;}.b{fill:rgba(141,126,183,0.3);}.c{fill:#37236a;}</style></defs><rect class="a" width="64" height="64"/><g transform="translate(-232 -1078)"><circle class="b" cx="15.5" cy="15.5" r="15.5" transform="translate(258 1103)"/><circle class="b" cx="11" cy="11" r="11" transform="translate(240 1086)"/><g transform="translate(243.581 1086)"><path class="c" d="M18.048,36H6.709A.709.709,0,0,0,6,36.709V48.048a.709.709,0,0,0,.709.709H18.048a.709.709,0,0,0,.709-.709V36.709A.709.709,0,0,0,18.048,36Zm-.709,11.339H7.417V37.417h9.921Z" transform="translate(-3.165 -11.457)"/><path class="c" d="M39.146,2H11.31a.716.716,0,0,0-.716.716V16.323H5.581a.716.716,0,0,0-.716.716V19.9A2.514,2.514,0,0,1,3.69,21.952C2.587,22.668,2,24.1,2,26.105V44.252a.716.716,0,0,0,.716.716H44.252a.716.716,0,0,0,.716-.716V7.822A5.829,5.829,0,0,0,39.146,2ZM6.3,17.755H16.323V19.9H6.3Zm12.89,15.039V43.536H3.432V26.112c0-1.475.365-2.521,1.031-2.95A4.046,4.046,0,0,0,6,21.336H16.616a4.046,4.046,0,0,0,1.54,1.826c.666.43,1.031,1.475,1.031,2.95Zm-.258-10.835A2.514,2.514,0,0,1,17.755,19.9h0V17.039a.716.716,0,0,0-.716-.716h-.716V14.89H39.239V32.078H20.62V26.112c0-2.012-.587-3.445-1.69-4.154Zm24.606-12.8V43.536H20.62V33.51H39.955a.716.716,0,0,0,.716-.716V14.174a.716.716,0,0,0-.716-.716H15.607a.716.716,0,0,0-.716.716v2.148H12.026V9.161H36.375V7.729H12.026v-4.3h27.12a4.39,4.39,0,0,1,4.39,4.3H40.671V9.161Z" transform="translate(-2 -2)"/><path class="c" d="M31.786,31.184l-.609,3.749a.709.709,0,0,0,1.042.709l3.161-1.722,3.161,1.75a.712.712,0,0,0,1.042-.751l-.609-3.749,2.587-2.65a.7.7,0,0,0-.4-1.183L37.611,26.8l-1.587-3.387a.709.709,0,0,0-1.29,0L33.146,26.8l-3.543.539a.7.7,0,0,0-.4,1.183Zm1.949-3.04a.709.709,0,0,0,.532-.4l1.113-2.367,1.113,2.367a.709.709,0,0,0,.532.4l2.551.39L37.7,30.447a.709.709,0,0,0-.191.609l.439,2.665-2.232-1.233a.709.709,0,0,0-.709,0l-2.232,1.233.475-2.665a.709.709,0,0,0-.191-.609L31.19,28.533Z" transform="translate(-9.578 -7.892)"/><path class="c" d="M11.377,44.551l-.276,1.7a.709.709,0,0,0,1.042.709l1.417-.78,1.417.78a.714.714,0,0,0,1.049-.737l-.276-1.7,1.169-1.2a.709.709,0,0,0-.4-1.191l-1.587-.241-.709-1.524a.709.709,0,0,0-1.29,0l-.709,1.524-1.587.241a.709.709,0,0,0-.4,1.191Zm1.417-1.29a.709.709,0,0,0,.532-.4l.234-.5.234.5a.709.709,0,0,0,.532.4l.6.092-.461.468a.709.709,0,0,0-.191.609l.1.609-.475-.262a.709.709,0,0,0-.709,0l-.475.262.1-.609a.709.709,0,0,0-.191-.609l-.461-.468Z" transform="translate(-4.34 -12.717)"/><rect class="c" width="0.895" height="0.895" transform="translate(36.254 5.819)"/></g></g></svg>