<svg xmlns="http://www.w3.org/2000/svg" width="75" height="75" viewBox="0 0 75 75"><g transform="translate(-2985 247)"><rect width="75" height="75" transform="translate(2985 -247)" fill="#fff" opacity="0"/><g transform="translate(2997 -235.5)"><path d="M19.458,36H6.792A.792.792,0,0,0,6,36.792V49.458a.792.792,0,0,0,.792.792H19.458a.792.792,0,0,0,.792-.792V36.792A.792.792,0,0,0,19.458,36Zm-.792,12.667H7.583V37.583H18.667Z" transform="translate(-0.833 -7.083)" fill="#f55"/><path d="M43.064,2H12.292a.792.792,0,0,0-.792.792V17.833H5.958a.792.792,0,0,0-.792.792v3.167a2.779,2.779,0,0,1-1.3,2.264C2.649,24.847,2,26.431,2,28.647V48.708a.792.792,0,0,0,.792.792H48.708a.792.792,0,0,0,.792-.792V8.436A6.444,6.444,0,0,0,43.064,2ZM6.75,19.417H17.833v2.375H6.75ZM21,36.042V47.917H3.583V28.655c0-1.631.4-2.787,1.14-3.262a4.473,4.473,0,0,0,1.7-2.019H18.158a4.473,4.473,0,0,0,1.7,2.019c.736.475,1.14,1.631,1.14,3.262Zm-.285-11.978a2.779,2.779,0,0,1-1.3-2.272h0V18.625a.792.792,0,0,0-.792-.792h-.792V16.25H43.167v19H22.583V28.655c0-2.225-.649-3.808-1.868-4.592Zm27.2-14.147v38H22.583V36.833H43.958a.792.792,0,0,0,.792-.792V15.458a.792.792,0,0,0-.792-.792H17.042a.792.792,0,0,0-.792.792v2.375H13.083V9.917H40V8.333H13.083V3.583h29.98a4.853,4.853,0,0,1,4.853,4.751H44.75V9.917Z" fill="#f55"/><path d="M32.112,32.143l-.681,4.188a.792.792,0,0,0,1.164.792L36.125,35.2l3.531,1.955a.8.8,0,0,0,1.164-.839l-.681-4.188,2.89-2.961a.784.784,0,0,0-.451-1.322l-3.958-.6-1.773-3.784a.792.792,0,0,0-1.441,0l-1.773,3.784-3.958.6a.784.784,0,0,0-.451,1.322Zm2.177-3.4a.792.792,0,0,0,.594-.451l1.243-2.644L37.368,28.3a.792.792,0,0,0,.594.451l2.85.435-2.09,2.137a.792.792,0,0,0-.214.681L39,34.977,36.505,33.6a.792.792,0,0,0-.792,0L33.22,34.977,33.75,32a.792.792,0,0,0-.214-.681l-2.09-2.138Z" transform="translate(-5.625 -4.374)" fill="#f55"/><path d="M11.535,45.089l-.309,1.9a.792.792,0,0,0,1.164.792l1.583-.871,1.583.871a.8.8,0,0,0,1.172-.823l-.309-1.9,1.306-1.338a.792.792,0,0,0-.451-1.33L15.5,42.12l-.792-1.7a.792.792,0,0,0-1.441,0l-.792,1.7-1.773.269a.792.792,0,0,0-.451,1.33Zm1.583-1.441a.792.792,0,0,0,.594-.443l.261-.562.261.562a.792.792,0,0,0,.594.443l.673.1-.515.522a.792.792,0,0,0-.214.681l.111.681-.53-.293a.792.792,0,0,0-.792,0l-.53.293.111-.681a.792.792,0,0,0-.214-.681l-.515-.522Z" transform="translate(-1.673 -7.907)" fill="#f55"/><rect width="1" height="1" transform="translate(42 8.5)" fill="#f55"/></g></g></svg>