<svg xmlns="http://www.w3.org/2000/svg" width="75" height="75" viewBox="0 0 75 75"><g transform="translate(-2985 247)"><rect width="75" height="75" transform="translate(2985 -247)" fill="#fff" opacity="0"/><g transform="translate(2999 -234.508)"><path d="M43.244,36.572A20.74,20.74,0,0,0,26.2,4a21.082,21.082,0,0,0-2.219.122,20.755,20.755,0,1,0,.1,41.254V45.4a21.106,21.106,0,0,0,2.118.107,20.741,20.741,0,0,0,17.018-8.9h.031ZM43.652,16.6H40.836a20.705,20.705,0,0,0-1.572-2.965h2.663A19.265,19.265,0,0,1,43.652,16.6Zm.623,1.483a19.086,19.086,0,0,1,.831,2.965H42.165a20.589,20.589,0,0,0-.768-2.965Zm1.192,6.671c0,.248-.01.5-.019.741H42.484c.008-.247.019-.493.019-.741a20.788,20.788,0,0,0-.121-2.224h2.954a19.5,19.5,0,0,1,.132,2.224Zm-3.086,2.224h2.954a19.143,19.143,0,0,1-.806,3.706h-2.9a20.575,20.575,0,0,0,.747-3.706Zm-1.253,5.189h2.856a19.207,19.207,0,0,1-1.557,2.965H39.71A20.629,20.629,0,0,0,41.129,32.167Zm-.371-20.014H38.224A20.878,20.878,0,0,0,36.253,9.93h2.242a19.438,19.438,0,0,1,2.264,2.224ZM36.447,8.447H34.563a20.787,20.787,0,0,0-3.92-2.442,19.139,19.139,0,0,1,5.8,2.442ZM2.475,24.755A19.273,19.273,0,1,1,21.748,44.027,19.273,19.273,0,0,1,2.475,24.755ZM34.563,41.062h1.884a19.139,19.139,0,0,1-5.8,2.442A20.787,20.787,0,0,0,34.563,41.062Zm3.929-1.483H36.253a20.875,20.875,0,0,0,2.512-2.965h2.6a19.421,19.421,0,0,1-2.875,2.965Z" transform="translate(0)" fill="#f55"/><path d="M23.308,10A16.308,16.308,0,1,0,39.615,26.308,16.308,16.308,0,0,0,23.308,10Zm0,31.133A14.825,14.825,0,1,1,38.133,26.308,14.825,14.825,0,0,1,23.308,41.133Z" transform="translate(-1.56 -1.553)" fill="#f55"/><path d="M27.189,19.706A3.711,3.711,0,0,1,30.9,23.413a.741.741,0,1,0,1.483,0,5.193,5.193,0,0,0-4.448-5.129V16.741a.741.741,0,1,0-1.483,0v1.542A5.193,5.193,0,0,0,22,23.413v.741a4.067,4.067,0,0,0,2.509,3.763l4.789,2a2.588,2.588,0,0,1,1.6,2.395,3.706,3.706,0,0,1-7.413,0,.741.741,0,0,0-1.483,0,5.193,5.193,0,0,0,4.448,5.129v1.542a.741.741,0,0,0,1.483,0V37.437a5.193,5.193,0,0,0,4.448-5.129,4.067,4.067,0,0,0-2.509-3.763l-4.789-2a2.588,2.588,0,0,1-1.6-2.395v-.741a3.711,3.711,0,0,1,3.706-3.706Z" transform="translate(-5.441 -3.105)" fill="#f55"/><path d="M14.224,29H12.741a.741.741,0,0,0,0,1.483h1.483a.741.741,0,0,0,0-1.483Z" transform="translate(-2.854 -6.469)" fill="#f55"/><path d="M14.224,33H12.741a.741.741,0,1,0,0,1.483h1.483a.741.741,0,1,0,0-1.483Z" transform="translate(-2.854 -7.504)" fill="#f55"/><path d="M42.741,30.483h1.483a.741.741,0,0,0,0-1.483H42.741a.741.741,0,0,0,0,1.483Z" transform="translate(-10.616 -6.469)" fill="#f55"/><path d="M44.224,33H42.741a.741.741,0,0,0,0,1.483h1.483a.741.741,0,0,0,0-1.483Z" transform="translate(-10.616 -7.504)" fill="#f55"/></g></g></svg>