<svg xmlns="http://www.w3.org/2000/svg" xmlns:xlink="http://www.w3.org/1999/xlink" width="70.392" height="57.301" viewBox="0 0 70.392 57.301"><defs><filter id="a" x="0" y="0" width="70.392" height="57.301" filterUnits="userSpaceOnUse"><feOffset dy="3" input="SourceAlpha"/><feGaussianBlur stdDeviation="3" result="b"/><feFlood flood-opacity="0.161"/><feComposite operator="in" in2="b"/><feComposite in="SourceGraphic"/></filter></defs><g transform="matrix(1, 0, 0, 1, 0, 0)" filter="url(#a)"><path d="M52.051,13.179c0-4.605-3.388-8.31-7.573-8.31C38.808,4.6,33.026,4.5,27.121,4.5H25.279c-5.895,0-11.687.1-17.357.368C3.746,4.868.358,8.594.358,13.2.1,16.842-.01,20.486,0,24.129q-.015,5.465.348,10.94c0,4.605,3.387,8.341,7.563,8.341,5.956.276,12.066.4,18.278.389q9.334.031,18.278-.389c4.186,0,7.573-3.735,7.573-8.341.246-3.654.358-7.3.348-10.951Q52.419,18.654,52.051,13.179ZM21.185,34.169V14.059l14.839,10.05Z" transform="translate(9 1.5)" fill="#fff"/></g></svg>