<svg xmlns="http://www.w3.org/2000/svg" width="64.469" height="64" viewBox="0 0 64.469 64">
  <g id="Grupo_6055" data-name="Grupo 6055" transform="translate(6943.999 -5724.228)">
    <g id="Grupo_4955" data-name="Grupo 4955" transform="translate(-6943.999 5724.228)">
      <g id="icon_comision">
        <rect id="Rectángulo_817" data-name="Rectángulo 817" width="64" height="64" fill="none"/>
        <g id="Grupo_3422" data-name="Grupo 3422" transform="translate(10.07 9.247)">
          <ellipse id="Elipse_66" data-name="Elipse 66" cx="9.609" cy="9.609" rx="9.609" ry="9.609" transform="translate(22.1 0.347)" fill="rgba(141,126,183,0.3)"/>
          <ellipse id="Elipse_67" data-name="Elipse 67" cx="12.011" cy="12.971" rx="12.011" ry="12.971" transform="translate(0 19.564)" fill="rgba(141,126,183,0.3)"/>
          <g id="Grupo_3422-2" data-name="Grupo 3422" transform="translate(4.53)">
            <path id="sack-dollar" d="M602.1,398.106l3.359-5.522a2.458,2.458,0,0,0-2.044-3.821H588.682a2.46,2.46,0,0,0-2.043,3.822l3.347,5.521c-14.321,9.138-13.6,20.8-13.6,22.305,0,4.243,3.773,7.682,8.425,7.682h22.47c4.653,0,8.425-3.441,8.425-7.682C615.7,418.931,616.338,407.2,602.1,398.106Zm-12.844-7.174H602.83a.716.716,0,0,1,.611,1.09l-3.248,5.293a.717.717,0,0,1-.611.342H592.5a.717.717,0,0,1-.611-.343l-3.238-5.293A.716.716,0,0,1,589.257,390.932Zm24.53,29.719c0,2.97-2.761,5.387-6.154,5.387H584.456c-3.393,0-6.154-2.417-6.154-5.387v-.266c-.07-4.546,1.45-12.967,11.961-20.048a5.27,5.27,0,0,1,2.937-.914h5.687a5.268,5.268,0,0,1,2.939.915c10.485,7.073,12.019,15.519,11.961,20.079Zm-18.6-1.206v-.61a4.624,4.624,0,0,1-2.658-1.012,1.848,1.848,0,0,1-.734-1.338.777.777,0,0,1,.731-.819.939.939,0,0,1,.1,0c.294,0,.51.084.9.479a3.1,3.1,0,0,0,2.381,1.1c1.229,0,1.917-.556,1.917-1.437,0-.681-.472-1.082-1.613-1.353l-1.569-.364c-1.763-.394-2.683-1.391-2.683-2.891,0-1.721,1.277-2.914,3.278-3.1v-.618a.6.6,0,0,1,.552-.646.574.574,0,0,1,.105,0,.607.607,0,0,1,.662.546.616.616,0,0,1,0,.1v.645a4.289,4.289,0,0,1,2.4,1.019,1.99,1.99,0,0,1,.688,1.33.731.731,0,0,1-.709.753.493.493,0,0,1-.057,0,1.237,1.237,0,0,1-.958-.487,2.626,2.626,0,0,0-2.141-1.043c-1.067,0-1.746.571-1.746,1.36,0,.657.48,1.1,1.46,1.321l1.569.356c1.909.417,2.829,1.345,2.829,2.876,0,1.777-1.3,3-3.378,3.226v.617a.661.661,0,0,1-1.322,0Z" transform="translate(-576.377 -388.763)" fill="#37236a"/>
          </g>
        </g>
      </g>
      <g id="Grupo_4919" data-name="Grupo 4919" transform="translate(46.162 38)">
        <path id="Trazado_10116" data-name="Trazado 10116" d="M9.154,0A9.154,9.154,0,1,1,0,9.154,9.154,9.154,0,0,1,9.154,0Z" fill="#f21910"/>
        <text id="_3" data-name="3" transform="translate(5.654 13.154)" fill="#fff" font-size="12" font-family="GalanoGrotesque-Medium" font-weight="500"><tspan x="0" y="0">3</tspan></text>
      </g>
    </g>
  </g>
</svg>
