<svg xmlns="http://www.w3.org/2000/svg" width="64" height="64" viewBox="0 0 64 64">
  <g id="Grupo_6053" data-name="Grupo 6053" transform="translate(7762 -5725)">
    <g id="icon_compartir" transform="translate(-7762 5725)">
      <rect id="Rectángulo_813" data-name="Rectángulo 813" width="64" height="64" fill="none"/>
      <g id="Grupo_3419" data-name="Grupo 3419" transform="translate(6 12)">
        <circle id="Elipse_62" data-name="Elipse 62" cx="10.5" cy="10.5" r="10.5" transform="translate(0 20)" fill="rgba(141,126,183,0.3)"/>
        <circle id="Elipse_63" data-name="Elipse 63" cx="14.5" cy="14.5" r="14.5" transform="translate(24)" fill="rgba(141,126,183,0.3)"/>
        <g id="Grupo_3419-2" data-name="Grupo 3419" transform="translate(4.958 0.282)">
          <path id="Trazado_1184" data-name="Trazado 1184" d="M49.722,64.032A5.173,5.173,0,0,0,45.086,58.9V50.693a2.781,2.781,0,0,0-4.265-2.364,34.808,34.808,0,0,1-19.551,6.4H12.636A4.634,4.634,0,0,0,8,59.362v9.271a4.634,4.634,0,0,0,4.636,4.636h.209l3.164,11.844A2.779,2.779,0,0,0,18.7,87.176h4.346a2.782,2.782,0,0,0,2.781-2.781,2.856,2.856,0,0,0-.139-.881l-3.407-10.2a35.726,35.726,0,0,1,18.543,6.316,2.782,2.782,0,0,0,4.265-2.341V69.155A5.145,5.145,0,0,0,49.722,64.032ZM9.854,68.668V59.4a2.775,2.775,0,0,1,2.781-2.781h7.417V71.45H12.636a2.775,2.775,0,0,1-2.781-2.781v0ZM23.043,85.357H18.7a.933.933,0,0,1-.927-.684l-3-11.381h5.563l3.6,10.824a.92.92,0,0,1-.579,1.171.977.977,0,0,1-.313.046Zm20.189-8.043a.93.93,0,0,1-.927.927.868.868,0,0,1-.5-.151,36.3,36.3,0,0,0-19.9-6.652V56.6a36.981,36.981,0,0,0,19.9-6.7.934.934,0,0,1,1.286.278.964.964,0,0,1,.151.5V77.314Zm1.854-10v-6.49a3.31,3.31,0,0,1,0,6.536Z" transform="translate(-8 -47.9)" fill="#37236a"/>
        </g>
      </g>
    </g>
    <g id="Grupo_4922" data-name="Grupo 4922" transform="translate(-7722.641 5764.68)">
      <circle id="Elipse_148" data-name="Elipse 148" cx="9.154" cy="9.154" r="9.154" fill="#f21910"/>
      <text id="_1" data-name="1" transform="translate(6.731 13.154)" fill="#fff" font-size="12" font-family="GalanoGrotesque-Medium" font-weight="500"><tspan x="0" y="0">1</tspan></text>
    </g>
  </g>
</svg>
