<svg xmlns="http://www.w3.org/2000/svg" width="59.514" height="61.329" viewBox="0 0 59.514 61.329">
  <g id="Grupo_6054" data-name="Grupo 6054" transform="translate(7346.002 -5727.488)">
    <g id="Grupo_4954" data-name="Grupo 4954" transform="translate(-7346.002 5727.488)">
      <g id="icon_click">
        <rect id="Rectángulo_811" data-name="Rectángulo 811" width="37.125" height="37.125" fill="none"/>
        <g id="Grupo_3420" data-name="Grupo 3420" transform="translate(13.789 4.243)">
          <circle id="Elipse_60" data-name="Elipse 60" cx="11.571" cy="11.571" r="11.571" transform="translate(4.725 0)" fill="rgba(141,126,183,0.3)"/>
          <circle id="Elipse_61" data-name="Elipse 61" cx="12.343" cy="12.343" r="12.343" transform="translate(15.525 32.4)" fill="rgba(141,126,183,0.3)"/>
          <g id="Group_3419" data-name="Group 3419" transform="translate(0 3.423)">
            <g id="Subtraction_1" data-name="Subtraction 1" transform="translate(3.169 4.719)">
              <path id="Trazado_9580" data-name="Trazado 9580" d="M598.75,432.011a7.249,7.249,0,0,1-6.953-5.226c-.017,0-.017-.017-.017-.034l-2.15-8.51a34.923,34.923,0,0,0-1.909-5.516l-.173-.393a2.012,2.012,0,0,1-.187-.832,2.04,2.04,0,0,1,2.031-2.043,8.708,8.708,0,0,1,7.179,3.778l.067.106v-20.38a3.947,3.947,0,0,1,6.74-2.807,4.071,4.071,0,0,1,1.2,2.807v13.683a.475.475,0,0,1,.135-.068,3.434,3.434,0,0,1,1.427-.308,3.541,3.541,0,0,1,3.229,2.112c.118-.069.256-.137.388-.2a3.647,3.647,0,0,1,4.831,1.807l.013.03a3.675,3.675,0,0,1,5.655,3.132v11.528a7.325,7.325,0,0,1-7.3,7.336H598.75Zm-9.323-20.528h0l.169.391a37.134,37.134,0,0,1,2.015,5.834l2.15,8.493a5.225,5.225,0,0,0,1.873,2.724,5.135,5.135,0,0,0,3.112,1.043H612.96a5.286,5.286,0,0,0,5.264-5.293V413.113a1.67,1.67,0,0,0-1.645-1.651h-.031a1.67,1.67,0,0,0-1.167.5,1.631,1.631,0,0,0-.472,1.181v3.473a1.016,1.016,0,0,1-2.031.066V411.55a1.658,1.658,0,0,0-1.287-1.6,1.613,1.613,0,0,0-1.939,1.207l-.009.035v4.358a1.02,1.02,0,0,1-1.015,1.021H608.6a1.02,1.02,0,0,1-1.016-1.021v-4.018a2.846,2.846,0,0,1,.034-.545V409.83a1.515,1.515,0,1,0-3.03.017l.033,5.7a1.016,1.016,0,0,1-2.031.066v-4.239a.823.823,0,0,1-.05-.29V392.962a1.9,1.9,0,0,0-1.872-1.923h-.037a1.921,1.921,0,0,0-1.909,1.923v27.763a1.016,1.016,0,0,1-2.031.066V416.93l-1.756-2.536A6.677,6.677,0,0,0,589.427,411.483Z" transform="translate(-587.361 -388.998)" fill="#37236a"/>
            </g>
            <g id="Line_1" data-name="Line 1">
              <path id="Trazado_9581" data-name="Trazado 9581" d="M593.869,390.911a1.046,1.046,0,0,1-.475-.114l-8.435-4.241a1.061,1.061,0,1,1,.952-1.9l8.435,4.241a1.061,1.061,0,0,1-.477,2.009Z" transform="translate(-584.374 -384.549)" fill="#37236a"/>
            </g>
            <g id="Line_3" data-name="Line 3" transform="translate(21.633)">
              <path id="Trazado_9582" data-name="Trazado 9582" d="M605.83,390.911a1.061,1.061,0,0,1-.477-2.009l8.435-4.241a1.061,1.061,0,1,1,.952,1.9L606.3,390.8A1.046,1.046,0,0,1,605.83,390.911Z" transform="translate(-604.768 -384.549)" fill="#37236a"/>
            </g>
            <g id="Line_2" data-name="Line 2" transform="translate(0 8.957)">
              <path id="Trazado_9583" data-name="Trazado 9583" d="M585.436,399.355a1.06,1.06,0,0,1-.477-2.008l8.435-4.241a1.061,1.061,0,1,1,.952,1.9l-8.435,4.241A1.059,1.059,0,0,1,585.436,399.355Z" transform="translate(-584.374 -392.993)" fill="#37236a"/>
            </g>
            <g id="Line_4" data-name="Line 4" transform="translate(21.633 8.957)">
              <path id="Trazado_9584" data-name="Trazado 9584" d="M614.262,399.355a1.06,1.06,0,0,1-.475-.112L605.352,395a1.061,1.061,0,0,1,.953-1.9l8.435,4.241a1.06,1.06,0,0,1-.477,2.008Z" transform="translate(-604.768 -392.993)" fill="#37236a"/>
            </g>
          </g>
        </g>
      </g>
      <g id="Grupo_4742" data-name="Grupo 4742" transform="translate(41.207 36.664)">
        <circle id="Elipse_148" data-name="Elipse 148" cx="9.154" cy="9.154" r="9.154" fill="#f21910"/>
        <text id="_2" data-name="2" transform="translate(6.731 13.154)" fill="#fff" font-size="12" font-family="GalanoGrotesque-Medium" font-weight="500"><tspan x="0" y="0">2</tspan></text>
      </g>
    </g>
  </g>
</svg>
