<svg xmlns="http://www.w3.org/2000/svg" width="75" height="75" viewBox="0 0 75 75"><g transform="translate(-2985 247)"><rect width="75" height="75" transform="translate(2985 -247)" fill="#fff" opacity="0"/><g transform="translate(2988 -234.59)"><path d="M53.172,46.5,50.412,15.1A3.243,3.243,0,0,0,46.961,12.4h-5V8.523c0-4.7-3.3-8.523-7.361-8.523s-7.361,3.824-7.361,8.523V12.4h-5A3.243,3.243,0,0,0,18.78,15.1L16.021,46.5a2.7,2.7,0,0,0,2.732,3.094H50.44A2.7,2.7,0,0,0,53.172,46.5ZM28.785,8.523c0-3.845,2.607-6.974,5.811-6.974s5.811,3.128,5.811,6.974V12.4H28.785Zm22.57,39.139a1.185,1.185,0,0,1-.916.379H18.753a1.185,1.185,0,0,1-.916-.379,1.241,1.241,0,0,1-.277-.986l0-.022,0-.022,2.757-31.367a1.745,1.745,0,0,1,1.909-1.318h5v2.325h-.387a.775.775,0,0,0,0,1.55h2.325a.775.775,0,0,0,0-1.55h-.387V13.947H40.408v2.325H40.02a.775.775,0,0,0,0,1.55h2.325a.775.775,0,1,0,0-1.55h-.387V13.947h5a1.744,1.744,0,0,1,1.909,1.318l2.757,31.367,0,.022,0,.021A1.243,1.243,0,0,1,51.356,47.662Z" fill="#f55"/><path d="M61.419,76.871l2.459-1.157a.775.775,0,0,0-.172-1.46L52.932,72.016a.775.775,0,0,0-.892,1.006l3.332,9.87a.775.775,0,0,0,1.448.053l1.042-2.478,4.359,3.743a.775.775,0,0,0,1.06-.047l2.445-2.508a.775.775,0,0,0-.05-1.129Zm1.261,5.69L58.066,78.6a.775.775,0,0,0-1.219.288l-.66,1.571-2.245-6.649L61.118,75.3l-1.442.678a.775.775,0,0,0-.175,1.289l4.54,3.9Z" transform="translate(-22.053 -44.106)" fill="#f55"/><path d="M42.323,60.227a.775.775,0,0,0-1.1,1.1l2.325,2.325a.775.775,0,1,0,1.1-1.1Z" transform="translate(-15.314 -36.755)" fill="#f55"/><path d="M58.775,62.874a.775.775,0,0,0,.775-.775V59.775a.775.775,0,0,0-1.55,0V62.1A.775.775,0,0,0,58.775,62.874Z" transform="translate(-25.728 -36.142)" fill="#f55"/><path d="M41.972,75.011l-2.325.387a.775.775,0,1,0,.255,1.529l2.325-.387a.775.775,0,0,0-.255-1.529Z" transform="translate(-14.089 -45.943)" fill="#f55"/></g></g></svg>