<svg xmlns="http://www.w3.org/2000/svg" width="64" height="64" viewBox="0 0 64 64"><defs><style>.a{fill:none;}.b{fill:rgba(141,126,183,0.3);}.c{fill:#37236a;}</style></defs><rect class="a" width="64" height="64"/><g transform="translate(-586 -1082)"><circle class="b" cx="14.5" cy="14.5" r="14.5" transform="translate(596 1094)"/><circle class="b" cx="9.5" cy="9.5" r="9.5" transform="translate(621 1119)"/><g transform="translate(24.544 705.612)"><path class="c" d="M611.427,426.733l-2.472-28.505a3.078,3.078,0,0,0-3.24-2.584H601.38v-3.368c0-4.349-3.025-7.888-6.744-7.888s-6.743,3.539-6.743,7.888v3.367h-4.322a3.065,3.065,0,0,0-3.251,2.593l-2.47,28.491a2.592,2.592,0,0,0,2.164,2.952,2.658,2.658,0,0,0,.382.029H608.87a2.587,2.587,0,0,0,2.557-2.976Zm-21.846-34.457c0-3.408,2.268-6.18,5.056-6.18s5.056,2.772,5.056,6.18v3.367H589.581Zm19.955,35.434a.878.878,0,0,1-.706.293H580.438a.928.928,0,0,1-.7-.291.988.988,0,0,1-.216-.78l2.467-28.507a1.413,1.413,0,0,1,1.387-1.094,1.326,1.326,0,0,1,.177.011h4.334v1.808h-.2a.854.854,0,0,0,0,1.708h2.088a.854.854,0,1,0,0-1.708h-.2v-1.808h10.111v1.808h-.2a.854.854,0,0,0,0,1.708h2.083a.854.854,0,1,0,0-1.708h-.2v-1.808l4.35,0a1.416,1.416,0,0,1,1.543,1.063l2.47,28.485,0,.043A.992.992,0,0,1,609.536,427.71Z"/><path class="c" d="M602.84,417.5l-3.652-3.148,2.011-.943a.85.85,0,0,0-.19-1.6l-9.7-2.016a.851.851,0,0,0-.972,1.1l3,8.892a.851.851,0,0,0,1.086.515.859.859,0,0,0,.494-.46l.858-2.042,3.761,3.241a.854.854,0,0,0,1.159-.052l2.2-2.258a.851.851,0,0,0-.016-1.2A.3.3,0,0,0,602.84,417.5Zm-2.8,1.732-4.048-3.475a.851.851,0,0,0-1.336.314l-.441,1.05L592.4,411.76l5.765,1.2-.894.419a.851.851,0,0,0-.189,1.411l3.967,3.4Z"/><path class="c" d="M587.95,405.755a.85.85,0,0,0-1.287,1.11.679.679,0,0,0,.085.085l2.1,2.106a.85.85,0,0,0,1.19-1.208Z"/><path class="c" d="M593.251,408.944a.851.851,0,0,0,.85-.85v-2.089a.85.85,0,1,0-1.7,0V408.1A.853.853,0,0,0,593.251,408.944Z"/><path class="c" d="M588.62,410.787l-2.093.35a.849.849,0,0,0-.78.914.852.852,0,0,0,.847.783c.022,0,.045,0,.067,0a.844.844,0,0,0,.131-.02l2.1-.352a.851.851,0,0,0-.277-1.672Z"/></g></g></svg>