<svg xmlns="http://www.w3.org/2000/svg" width="64" height="64" viewBox="0 0 64 64"><defs><style>.a{fill:none;}.b{fill:rgba(141,126,183,0.3);}.c{fill:#37236a;}</style></defs><rect class="a" width="64" height="64"/><g transform="translate(-810.427 -1210)"><circle class="b" cx="17.5" cy="17.5" r="17.5" transform="translate(831 1212)"/><circle class="b" cx="12.5" cy="12.5" r="12.5" transform="translate(814 1247)"/><g transform="translate(239.475 832.422)"><path class="c" d="M600.244,434.5H588.818V422.268a5.713,5.713,0,0,1,11.426,0Zm-9.794-1.631h8.162v-10.6a4.081,4.081,0,0,0-8.162,0Z"/><path class="c" d="M614.889,426.371H601.83v-9.787h13.059Zm-11.427-1.631h9.794v-6.525h-9.794Z"/><path class="c" d="M620.346,406.771l.163.489a2.427,2.427,0,0,1,.08,1.061,4.032,4.032,0,0,1-4,3.344c-1.959,0-4.081-.9-4.081-3.262h-1.63c0,2.365-2.122,3.262-4.081,3.262s-4.081-.9-4.081-3.262h-1.627c0,2.365-2.122,3.262-4.081,3.262s-4.081-.9-4.081-3.262h-1.638c0,2.365-2.122,3.262-4.081,3.262a4.03,4.03,0,0,1-4-3.344,1.869,1.869,0,0,1,.081-1.142l3.186-10.114a2.379,2.379,0,0,1,2.367-1.713h6.529v-1.631H588.76a4.115,4.115,0,0,0-3.918,2.855l-3.1,10.2a3.387,3.387,0,0,0-.163,1.794,5.43,5.43,0,0,0,2.367,3.67V434.5h35.91V412.235a5.433,5.433,0,0,0,2.367-3.67,3.4,3.4,0,0,0-.163-1.794Zm-2.122,26.1H585.577v-19.82a5.247,5.247,0,0,0,1.632.245,5.742,5.742,0,0,0,4.9-2.2,6.557,6.557,0,0,0,9.8,0,6.557,6.557,0,0,0,9.8,0,5.741,5.741,0,0,0,4.9,2.2,5.256,5.256,0,0,0,1.632-.245Z"/><path class="c" d="M607.906,404.588a5.212,5.212,0,0,1-2.87-.858l-4.829-3.169a5.215,5.215,0,0,1-2.36-4.373v-2.722a5.241,5.241,0,0,1,2.165-4.237l4.956-3.584a5.194,5.194,0,0,1,3.064-.992h18.119a5.235,5.235,0,0,1,5.229,5.229v9.307a5.243,5.243,0,0,1-5.181,5.229l-18.245.169Zm.126-18.235a3.51,3.51,0,0,0-2.068.668l-4.956,3.584a3.541,3.541,0,0,0-1.461,2.861v2.722a3.52,3.52,0,0,0,1.593,2.951l4.828,3.17a3.449,3.449,0,0,0,1.97.579l18.246-.169a3.54,3.54,0,0,0,3.5-3.53v-9.307a3.533,3.533,0,0,0-3.529-3.529Z"/><path class="c" d="M604.449,397.253a2.75,2.75,0,1,1,2.751-2.75A2.753,2.753,0,0,1,604.449,397.253Zm0-4a1.25,1.25,0,1,0,1.251,1.25A1.251,1.251,0,0,0,604.449,393.253Z"/><path class="c" d="M615.713,399.9v-.567a4.3,4.3,0,0,1-2.472-.941,1.719,1.719,0,0,1-.683-1.244.722.722,0,0,1,.769-.761c.273,0,.474.078.84.445a2.883,2.883,0,0,0,2.214,1.02c1.143,0,1.783-.517,1.783-1.336,0-.633-.439-1.006-1.5-1.258l-1.459-.338c-1.639-.366-2.495-1.293-2.495-2.688,0-1.6,1.187-2.71,3.048-2.882v-.575a.559.559,0,0,1,.611-.6.565.565,0,0,1,.618.6v.6a3.988,3.988,0,0,1,2.228.948,1.847,1.847,0,0,1,.64,1.237.68.68,0,0,1-.712.7,1.151,1.151,0,0,1-.891-.453,2.442,2.442,0,0,0-1.991-.97c-.992,0-1.624.531-1.624,1.265,0,.611.446,1.027,1.358,1.228l1.459.331c1.775.388,2.631,1.251,2.631,2.674,0,1.652-1.208,2.788-3.141,3v.574a.615.615,0,0,1-1.229,0Z"/></g></g></svg>