<svg xmlns="http://www.w3.org/2000/svg" width="100" height="23.613" viewBox="0 0 100 23.613"><defs><style>.a{fill:#c8102e;}.b{fill:#fff;}</style></defs><g transform="translate(7200.3 -4421.3)"><path class="a" d="M71.492,46.4H61.884c-4.52,0-6.184,1.651-6.184,6.184v9.608c0,4.52,1.651,6.184,6.184,6.184h9.608c4.52,0,6.184-1.651,6.184-6.184V52.584C77.662,48.051,76.011,46.4,71.492,46.4Z" transform="translate(-7256 4376.537)"/><path class="b" d="M75.794,46.925h.582v2.869h-.582V48.63H74.482v1.164H73.9V46.925h.582v1.164h1.313Zm3.275,1.637c0,.46-.23.717-.65.717s-.663-.257-.663-.731V46.925h-.582v1.637a1.137,1.137,0,0,0,1.231,1.272,1.161,1.161,0,0,0,1.245-1.3V46.912h-.582v1.651Zm6.739.338-.65-1.976h-.474l-.65,1.976L83.4,46.925h-.622l1,2.869h.487l.65-1.881.65,1.881h.487l1-2.869h-.609Zm2.273-.338h1.055v-.528H88.081v-.582h1.543v-.528H87.513v2.869h2.165v-.528h-1.6v-.7Zm2.3,1.231h.568V46.925h-.568ZM80.8,49.2l-.257.6h-.6l1.258-2.869h.514l1.258,2.869h-.609l-.257-.6Zm.217-.528h.88l-.447-1.028Zm1.407-5.4a3.656,3.656,0,0,1-3.654-3.654h.514a3.139,3.139,0,0,0,6.279,0h.514A3.664,3.664,0,0,1,82.425,43.272Zm24.154,9.012h-3.992l-.974,2.6H99.854l3.911-9.7h1.664l4.005,9.7h-1.84l-1.015-2.6Zm-3.491-1.313h2.977L105,48.2c-.149-.379-.3-.812-.433-1.272-.135.406-.271.825-.419,1.258Zm7.131-1.543c0-.541-.014-1.123-.054-1.773h1.6c.054.3.095.609.122.92a3.047,3.047,0,0,1,2.273-1.055,2.587,2.587,0,0,1,2.409,1.516,4.549,4.549,0,0,1,.392,2,4.827,4.827,0,0,1-.447,2.165,3.029,3.029,0,0,1-1.245,1.353,3.575,3.575,0,0,1-1.84.46,4.7,4.7,0,0,1-1.488-.244v2.991l-1.705.135-.014-8.471Zm4.465,3.694a3.175,3.175,0,0,0,.514-1.989,2.868,2.868,0,0,0-.433-1.759,1.37,1.37,0,0,0-1.15-.541,1.973,1.973,0,0,0-.92.23,3.3,3.3,0,0,0-.8.609v3.87a2.367,2.367,0,0,0,.6.189,3.8,3.8,0,0,0,.663.068A1.806,1.806,0,0,0,114.685,53.123Zm3.342-3.694c0-.541-.014-1.123-.054-1.773h1.6c.054.3.095.609.122.92a3.047,3.047,0,0,1,2.273-1.055,2.587,2.587,0,0,1,2.409,1.516,4.549,4.549,0,0,1,.392,2,4.827,4.827,0,0,1-.447,2.165,3.029,3.029,0,0,1-1.245,1.353,3.575,3.575,0,0,1-1.84.46,4.7,4.7,0,0,1-1.489-.244v2.991l-1.705.135-.014-8.471Zm4.479,3.694a3.175,3.175,0,0,0,.514-1.989,2.868,2.868,0,0,0-.433-1.759,1.37,1.37,0,0,0-1.15-.541,1.973,1.973,0,0,0-.92.23,3.3,3.3,0,0,0-.8.609v3.87a2.367,2.367,0,0,0,.6.189,3.8,3.8,0,0,0,.663.068A1.824,1.824,0,0,0,122.506,53.123Zm5.453,1.3a4.076,4.076,0,0,1-1.691-1.691,5.472,5.472,0,0,1-.6-2.612,5.4,5.4,0,0,1,.677-2.774,4.45,4.45,0,0,1,1.854-1.719,5.991,5.991,0,0,1,2.639-.568,7.141,7.141,0,0,1,1.637.189,8.072,8.072,0,0,1,1.461.5l-.433,1.272a6.164,6.164,0,0,0-2.585-.622,3.8,3.8,0,0,0-1.827.433,2.991,2.991,0,0,0-1.218,1.272,4.392,4.392,0,0,0-.433,2.016,4.649,4.649,0,0,0,.338,1.84,2.631,2.631,0,0,0,1.055,1.272,3.252,3.252,0,0,0,1.813.474,6.08,6.08,0,0,0,.988-.081,6.724,6.724,0,0,0,.934-.23V51.431h-2.3V50.146h3.965v4.087a8.951,8.951,0,0,1-3.667.8,5.678,5.678,0,0,1-2.612-.609Zm12.4.46a8.415,8.415,0,0,1-.122-.961,3.416,3.416,0,0,1-1.028.771,3.052,3.052,0,0,1-1.421.325,2.714,2.714,0,0,1-1.164-.244,1.915,1.915,0,0,1-.839-.731,2.244,2.244,0,0,1-.311-1.2,2.023,2.023,0,0,1,.785-1.678,4.161,4.161,0,0,1,2.6-.622,8.974,8.974,0,0,1,1.353.095V50.5a1.8,1.8,0,0,0-.419-1.353,1.719,1.719,0,0,0-1.2-.392,5.276,5.276,0,0,0-1.164.149,7.2,7.2,0,0,0-1.083.365l-.271-1.2a6.163,6.163,0,0,1,1.2-.365,7.348,7.348,0,0,1,1.57-.162,4.223,4.223,0,0,1,1.637.284,2.161,2.161,0,0,1,1.055.974,3.842,3.842,0,0,1,.379,1.867v2.869c0,.3.014.758.054,1.353h-1.61Zm-1.015-1.34a2.458,2.458,0,0,0,.866-.622V51.58a9.63,9.63,0,0,0-1.137-.068,2.422,2.422,0,0,0-1.461.325,1.081,1.081,0,0,0-.406.893,1,1,0,0,0,.3.8,1.134,1.134,0,0,0,.8.257A2.488,2.488,0,0,0,139.34,53.542Zm4.046-.392V44.611l1.691-.135v8.376a.989.989,0,0,0,.162.65.664.664,0,0,0,.514.189,2.386,2.386,0,0,0,.447-.068l.2,1.191a2.72,2.72,0,0,1-.6.149,3.754,3.754,0,0,1-.663.054C143.981,55.017,143.386,54.395,143.386,53.15Zm4.235,0V44.611l1.691-.135v8.376a.989.989,0,0,0,.162.65.664.664,0,0,0,.514.189,2.386,2.386,0,0,0,.447-.068l.2,1.191a2.72,2.72,0,0,1-.6.149,3.754,3.754,0,0,1-.663.054c-1.164,0-1.759-.622-1.759-1.867Zm10.068-1.664h-4.858c.081,1.516.825,2.273,2.219,2.273a4.89,4.89,0,0,0,1.069-.122,6.822,6.822,0,0,0,1.055-.325l.365,1.137a6.447,6.447,0,0,1-2.8.6,4.3,4.3,0,0,1-2-.433,2.743,2.743,0,0,1-1.218-1.258,4.376,4.376,0,0,1-.406-1.962,4.57,4.57,0,0,1,.433-2.057,2.991,2.991,0,0,1,1.2-1.313,3.507,3.507,0,0,1,1.786-.46,3.128,3.128,0,0,1,1.759.474,2.813,2.813,0,0,1,1.042,1.272,4.385,4.385,0,0,1,.338,1.759l.014.419Zm-1.664-1.055a1.99,1.99,0,0,0-.447-1.3,1.406,1.406,0,0,0-1.069-.433,1.5,1.5,0,0,0-1.083.433,2.222,2.222,0,0,0-.555,1.286h3.153Zm3.031-.961c0-.392-.014-1-.054-1.813h1.6c.027.2.054.447.081.717s.041.5.054.677a7.234,7.234,0,0,1,.582-.8,2.48,2.48,0,0,1,.663-.528,1.818,1.818,0,0,1,.866-.2,2.505,2.505,0,0,1,.677.081l-.217,1.434a2.073,2.073,0,0,0-1.6.23,4.364,4.364,0,0,0-.961.974v4.641h-1.691V49.469Zm5.48,8.363a4.011,4.011,0,0,1-.609-.149l.311-1.2c.108.027.257.068.433.095a3.253,3.253,0,0,0,.5.041c.758,0,1.313-.474,1.691-1.407l.108-.271-2.733-7.28h1.827l1.38,4.073a12.4,12.4,0,0,1,.433,1.6c.135-.528.284-1.042.46-1.57l1.38-4.1h1.719L168.7,54.977a7.728,7.728,0,0,1-.839,1.678,2.913,2.913,0,0,1-1.055.947,3.255,3.255,0,0,1-1.475.311,7.236,7.236,0,0,1-.8-.081ZM100.517,35.748h3.072l-.081.717h-2.084v1.394h1.962v.677h-1.962v1.543h2.192l-.081.731h-3.018V35.748Zm5.183,2.476-1.61-2.476H105.1l1.1,1.827,1.15-1.827h.988l-1.61,2.449,1.732,2.612h-1.042l-1.245-1.989-1.258,1.989h-.961Zm3.451-2.476h1.407a2.53,2.53,0,0,1,1.516.392,1.318,1.318,0,0,1,.528,1.137,1.7,1.7,0,0,1-.23.88,1.542,1.542,0,0,1-.663.582,2.24,2.24,0,0,1-.974.2,4.553,4.553,0,0,1-.69-.068v1.949h-.893Zm2.246,2.26a.9.9,0,0,0,.284-.717.754.754,0,0,0-.3-.677,1.516,1.516,0,0,0-.866-.2h-.474v1.8a2.994,2.994,0,0,0,.514.054A1.318,1.318,0,0,0,111.4,38.008Zm2.084-2.26h.893v4.317h2.165l-.081.744h-2.977Zm4.425,4.817a2.234,2.234,0,0,1-.88-.893,2.8,2.8,0,0,1-.3-1.34,2.958,2.958,0,0,1,.325-1.407,2.188,2.188,0,0,1,.934-.92,2.993,2.993,0,0,1,1.434-.325,2.815,2.815,0,0,1,1.353.311,2.2,2.2,0,0,1,.866.893,2.778,2.778,0,0,1,.3,1.326,2.975,2.975,0,0,1-.325,1.421,2.188,2.188,0,0,1-.934.92,2.975,2.975,0,0,1-1.421.325A2.815,2.815,0,0,1,117.905,40.565Zm2.327-.622a1.465,1.465,0,0,0,.568-.677,2.521,2.521,0,0,0,.189-.988,2.724,2.724,0,0,0-.162-.974,1.385,1.385,0,0,0-.528-.677,1.653,1.653,0,0,0-.934-.257,1.61,1.61,0,0,0-.934.257,1.57,1.57,0,0,0-.568.69,2.415,2.415,0,0,0-.189.947,2.569,2.569,0,0,0,.176.988,1.541,1.541,0,0,0,.555.69,1.639,1.639,0,0,0,.92.257A1.78,1.78,0,0,0,120.233,39.943Zm2.693-4.195h1.624a2.242,2.242,0,0,1,1.353.352,1.144,1.144,0,0,1,.46.988,1.46,1.46,0,0,1-.162.7,1.651,1.651,0,0,1-.406.5,1.442,1.442,0,0,1-.5.284l1.6,2.233h-1.042l-1.353-2h-.663v2h-.893l-.014-5.061Zm1.407,2.4a1.357,1.357,0,0,0,.582-.122.9.9,0,0,0,.392-.352.959.959,0,0,0,.135-.528.622.622,0,0,0-.244-.555,1.2,1.2,0,0,0-.717-.176h-.65v1.732Zm6.1,1.313h-2.084l-.514,1.353h-.92l2.043-5.074h.866l2.084,5.074h-.961Zm-1.827-.69h1.556l-.555-1.448c-.081-.2-.149-.419-.23-.663-.068.217-.135.433-.217.663Zm9.12.69h-2.084l-.514,1.353h-.92l2.043-5.074h.866l2.084,5.074h-.961Zm-1.827-.69h1.556l-.555-1.448c-.081-.2-.149-.419-.23-.663-.068.217-.135.433-.216.663Zm7.226,2.733a7.4,7.4,0,0,1-1.069-.636.9.9,0,0,1-.2.014,2.452,2.452,0,0,1-1.286-.325,2.206,2.206,0,0,1-.853-.907,2.871,2.871,0,0,1-.3-1.34,2.9,2.9,0,0,1,.325-1.394,2.316,2.316,0,0,1,.92-.92,2.975,2.975,0,0,1,1.421-.325,2.723,2.723,0,0,1,1.367.325,2.118,2.118,0,0,1,.866.893,2.8,2.8,0,0,1,.3,1.34,3.1,3.1,0,0,1-.189,1.1,2.361,2.361,0,0,1-.541.839,2.331,2.331,0,0,1-.839.528,10.32,10.32,0,0,0,1.922.636l-.528.717A8.453,8.453,0,0,1,143.129,41.5Zm-.189-1.556a1.487,1.487,0,0,0,.555-.69,2.589,2.589,0,0,0,.189-1,2.625,2.625,0,0,0-.162-.947,1.385,1.385,0,0,0-.528-.677,1.538,1.538,0,0,0-.92-.257,1.655,1.655,0,0,0-.947.257,1.434,1.434,0,0,0-.568.69,2.521,2.521,0,0,0-.189.988,2.432,2.432,0,0,0,.176.961,1.636,1.636,0,0,0,.555.69,1.538,1.538,0,0,0,.92.257,1.758,1.758,0,0,0,.92-.271Zm3.627.717a1.537,1.537,0,0,1-.731-.636,1.792,1.792,0,0,1-.257-.988V35.748h.893v3.166a1.26,1.26,0,0,0,.311.92,1.205,1.205,0,0,0,.92.311,1.171,1.171,0,0,0,.92-.325,1.39,1.39,0,0,0,.284-.947V35.748h.893v3.3a1.761,1.761,0,0,1-.257.988,1.612,1.612,0,0,1-.731.636,2.6,2.6,0,0,1-1.123.217,2.81,2.81,0,0,1-1.123-.23Zm4.29-5.291.934-1.069.947.081L151.41,35.45l-.555-.081Zm.2.379h.893v5.061h-.893Z" transform="translate(-7271.737 4387)"/></g></svg>