<svg xmlns="http://www.w3.org/2000/svg" width="100" height="25.613" viewBox="0 0 100 25.613"><defs><style>.a{fill:#fff;}</style></defs><g transform="translate(-9.552 -7.9)"><g transform="translate(9.552 7.9)"><path class="a" d="M25.008,19.9a4.839,4.839,0,0,1,2.5-4.3,5.084,5.084,0,0,0-4.2-2.2c-1.7-.2-3.4,1-4.3,1s-2.3-1-3.8-1a5.783,5.783,0,0,0-4.7,2.8c-2,3.5-.5,8.6,1.4,11.406,1,1.4,2.1,2.9,3.6,2.9,1.4-.1,2-.9,3.7-.9s2.2.9,3.7.9,2.5-1.4,3.5-2.8a13.694,13.694,0,0,0,1.6-3.2A5.056,5.056,0,0,1,25.008,19.9Z" transform="translate(-9.552 -7.897)"/><path class="a" d="M22.2,11.5a5.24,5.24,0,0,0,1.2-3.6A4.688,4.688,0,0,0,20,9.6a4.991,4.991,0,0,0-1.2,3.5A4.581,4.581,0,0,0,22.2,11.5Z" transform="translate(-9.547 -7.9)"/><g transform="translate(24.961 10.005)"><path class="a" d="M42.3,27.1H37.6l-1.1,3.4h-2L39,18.1h2l4.5,12.406h-2Zm-4.2-1.5h3.8L40,20.1h-.1Z" transform="translate(-34.5 -17.9)"/><path class="a" d="M55.2,26c0,2.8-1.5,4.6-3.8,4.6A2.907,2.907,0,0,1,48.6,29h0v4.5H46.7V21.5h1.8V23h0a3.358,3.358,0,0,1,2.9-1.6C53.6,21.3,55.2,23.2,55.2,26Zm-2,0c0-1.8-.9-3-2.4-3-1.4,0-2.4,1.2-2.4,3s1,3,2.4,3c1.5,0,2.4-1.2,2.4-3Z" transform="translate(-34.494 -17.898)"/><path class="a" d="M65.1,26c0,2.8-1.5,4.6-3.8,4.6A2.907,2.907,0,0,1,58.5,29h0v4.5H56.6V21.5h1.8V23h0a3.358,3.358,0,0,1,2.9-1.6C63.6,21.3,65.1,23.2,65.1,26Zm-1.9,0c0-1.8-.9-3-2.4-3-1.4,0-2.4,1.2-2.4,3s1,3,2.4,3C62.3,29,63.2,27.8,63.2,26Z" transform="translate(-34.489 -17.898)"/><path class="a" d="M71.7,27c.1,1.2,1.3,2,3,2,1.6,0,2.7-.8,2.7-1.9,0-1-.7-1.5-2.3-1.9l-1.6-.4c-2.3-.6-3.3-1.6-3.3-3.3,0-2.1,1.9-3.6,4.5-3.6s4.4,1.5,4.5,3.6H77.3a2.316,2.316,0,0,0-2.6-2c-1.5,0-2.5.8-2.5,1.9,0,.9.7,1.4,2.3,1.8l1.4.3c2.5.6,3.6,1.6,3.6,3.4,0,2.3-1.8,3.8-4.8,3.8-2.8,0-4.6-1.4-4.7-3.7Z" transform="translate(-34.482 -17.9)"/><path class="a" d="M83.3,19.3v2.1H85v1.5H83.3v5c0,.8.3,1.1,1.1,1.1H85v1.5a3.4,3.4,0,0,1-1,.1c-1.8,0-2.5-.7-2.5-2.4V23H80.2V21.5h1.3V19.4h1.8Z" transform="translate(-34.476 -17.899)"/><path class="a" d="M86.1,26c0-2.8,1.7-4.6,4.3-4.6s4.3,1.8,4.3,4.6c0,2.9-1.7,4.6-4.3,4.6C87.7,30.6,86.1,28.8,86.1,26Zm6.7,0c0-2-.9-3.1-2.4-3.1S88,24,88,26s.9,3.1,2.4,3.1,2.4-1.2,2.4-3.1Z" transform="translate(-34.473 -17.898)"/><path class="a" d="M96.2,21.4H98V23h0a2.07,2.07,0,0,1,2.2-1.6,1.269,1.269,0,0,1,.6.1v1.7a2.486,2.486,0,0,0-.8-.1,1.881,1.881,0,0,0-1.9,1.8v5.7H96.2Z" transform="translate(-34.468 -17.898)"/><path class="a" d="M109.4,27.8c-.2,1.6-1.9,2.8-3.9,2.8-2.6,0-4.3-1.8-4.3-4.6s1.6-4.7,4.2-4.7c2.5,0,4.1,1.7,4.1,4.5v.6h-6.4v.1a2.426,2.426,0,0,0,2.1,2.6h.3a1.963,1.963,0,0,0,2.1-1.3Zm-6.3-2.7h4.5a2.22,2.22,0,0,0-2.1-2.3h-.2a2.244,2.244,0,0,0-2.2,2.3Z" transform="translate(-34.465 -17.898)"/></g></g><g transform="translate(35.614 8)"><g transform="translate(0 0)"><path class="a" d="M37.8,8.7a2.6,2.6,0,0,1,2.8,2.4v.5c0,1.9-1,3-2.8,3H35.6v-6h2.2Zm-1.2,5.2h1.1a1.9,1.9,0,0,0,2-1.8v-.4a1.9,1.9,0,0,0-1.6-2.1H36.6Z" transform="translate(-35.6 -8)"/><path class="a" d="M45.7,13.5a1.882,1.882,0,0,1-2,1.3,2.1,2.1,0,0,1-2.1-2v-.3a1.977,1.977,0,0,1,1.8-2.3h.3c1.3,0,2,.9,2,2.3v.3H42.5A1.217,1.217,0,0,0,43.7,14h.1a1.173,1.173,0,0,0,1.1-.5ZM42.6,12h2.3a1.188,1.188,0,0,0-1-1.2h-.1A1.288,1.288,0,0,0,42.6,12Z" transform="translate(-35.597 -7.999)"/><path class="a" d="M48.6,10.1a1.611,1.611,0,0,1,1.8,1.3h-.9c-.1-.3-.4-.5-.9-.5s-.9.2-.9.6c0,.3.2.4.7.6l.7.2c.9.2,1.3.6,1.3,1.2,0,.8-.8,1.4-1.9,1.4s-1.8-.5-1.8-1.3h.9a1.1,1.1,0,0,0,1,.6q.9,0,.9-.6c0-.3-.2-.4-.7-.5l-.8-.2c-.9-.2-1.3-.6-1.3-1.3A1.851,1.851,0,0,1,48.6,10.1Z" transform="translate(-35.594 -7.999)"/><path class="a" d="M54.6,11.7a1.084,1.084,0,0,0-1.1-.8c-.7,0-1.2.6-1.2,1.5,0,1,.5,1.6,1.2,1.6a1.082,1.082,0,0,0,1.1-.7h.9a1.766,1.766,0,0,1-1.9,1.5,2.1,2.1,0,0,1-2.1-2v-.4a1.977,1.977,0,0,1,1.8-2.3h.3a1.715,1.715,0,0,1,1.9,1.6Z" transform="translate(-35.592 -7.999)"/><path class="a" d="M56.3,13.4c0-.8.6-1.3,1.7-1.3l1.2-.1v-.4c0-.5-.3-.7-.9-.7-.5,0-.8.2-.9.5h-.9a1.611,1.611,0,0,1,1.8-1.3c1.1,0,1.8.6,1.8,1.5v3.1h-.9v-.6h-.1a1.514,1.514,0,0,1-1.4.7,1.419,1.419,0,0,1-1.5-1.2C56.3,13.5,56.3,13.5,56.3,13.4Zm2.9-.4v-.4l-1.1.1c-.6,0-.9.3-.9.6,0,.4.4.6.8.6a.872.872,0,0,0,1.2-.9ZM57.8,9.4l1-1.4h1L58.6,9.4Z" transform="translate(-35.589 -8)"/><path class="a" d="M61.5,10.2h.9v.7h.1a1.3,1.3,0,0,1,1.2-.8h.4V11c-.2,0-.3-.1-.5-.1a.973.973,0,0,0-1.1,1v2.8h-.9Z" transform="translate(-35.587 -7.999)"/><path class="a" d="M64.9,15.1h.9c.1.3.5.5,1.1.5.7,0,1.2-.4,1.2-.9v-.9H68a1.6,1.6,0,0,1-1.4.8,1.985,1.985,0,0,1-1.9-2.2c0-1.4.7-2.3,1.9-2.3a1.6,1.6,0,0,1,1.4.8h0v-.7h.9v4.5c0,1-.8,1.7-2.1,1.7C65.7,16.4,65,15.9,64.9,15.1ZM68,12.4c0-.9-.5-1.5-1.2-1.5-.8,0-1.2.6-1.2,1.5s.4,1.5,1.2,1.5,1.2-.6,1.2-1.5Z" transform="translate(-35.585 -7.999)"/><path class="a" d="M70.1,13.4c0-.8.6-1.3,1.7-1.3L73,12v-.4c0-.5-.3-.7-.9-.7-.5,0-.8.2-.9.5h-.9a1.611,1.611,0,0,1,1.8-1.3c1.1,0,1.8.6,1.8,1.5v3.1H73v-.6h-.1a1.514,1.514,0,0,1-1.4.7A1.419,1.419,0,0,1,70,13.6C70.1,13.5,70.1,13.5,70.1,13.4Zm2.8-.4v-.4l-1.1.1c-.6,0-.9.3-.9.6,0,.4.4.6.8.6a.872.872,0,0,0,1.2-.9Z" transform="translate(-35.582 -7.999)"/><path class="a" d="M75.3,8.4h.9v6.3h-.9Z" transform="translate(-35.579 -8)"/><path class="a" d="M77.4,12.4a2.111,2.111,0,0,1,4.2-.4v.4a2.111,2.111,0,1,1-4.2.4Zm3.3,0q0-1.5-1.2-1.5c-.8,0-1.2.6-1.2,1.5,0,1,.4,1.6,1.2,1.6S80.7,13.4,80.7,12.4Z" transform="translate(-35.578 -7.999)"/><path class="a" d="M89.1,13.5a1.882,1.882,0,0,1-2,1.3,2.1,2.1,0,0,1-2.1-2v-.3a1.977,1.977,0,0,1,1.8-2.3h.3c1.3,0,2,.9,2,2.3v.3H86A1.056,1.056,0,0,0,87,14h.1a1.173,1.173,0,0,0,1.1-.5ZM86,12h2.3a1.188,1.188,0,0,0-1-1.2h-.1A1.288,1.288,0,0,0,86,12Z" transform="translate(-35.574 -7.999)"/><path class="a" d="M90.3,10.2h.9v.7h.1a1.442,1.442,0,0,1,1.3-.8,1.468,1.468,0,0,1,1.6,1.4v3.2h-.9V12c0-.7-.3-1.1-1-1.1a1.028,1.028,0,0,0-1.1,1v2.8h-.9Z" transform="translate(-35.572 -7.999)"/><path class="a" d="M101.8,13.5a1.882,1.882,0,0,1-2,1.3,2.1,2.1,0,0,1-2.1-2v-.3a1.977,1.977,0,0,1,1.8-2.3h.3c1.3,0,2,.9,2,2.3v.3H98.6a1.156,1.156,0,0,0,1.1,1.3h.1a1.173,1.173,0,0,0,1.1-.5ZM98.6,12h2.3a1.188,1.188,0,0,0-1-1.2h-.1A1.491,1.491,0,0,0,98.6,12Z" transform="translate(-35.568 -7.999)"/><path class="a" d="M103.1,8.4h.9v6.3h-.9Z" transform="translate(-35.565 -8)"/></g></g></g></svg>