<svg xmlns="http://www.w3.org/2000/svg" xmlns:xlink="http://www.w3.org/1999/xlink" width="100" height="23.517" viewBox="0 0 100 23.517"><defs><style>.a,.f{fill:#fff;}.b{fill:url(#a);}.c{fill:url(#b);}.d{fill:url(#c);}.e{fill:url(#d);}.f{stroke:#fff;stroke-miterlimit:10;stroke-width:0.2px;}</style><linearGradient id="a" x1="0.908" y1="35.168" x2="-0.38" y2="35.84" gradientUnits="objectBoundingBox"><stop offset="0" stop-color="#00a0ff"/><stop offset="0.01" stop-color="#00a1ff"/><stop offset="0.26" stop-color="#00beff"/><stop offset="0.51" stop-color="#00d2ff"/><stop offset="0.76" stop-color="#00dfff"/><stop offset="1" stop-color="#00e3ff"/></linearGradient><linearGradient id="b" x1="1.077" y1="102.581" x2="-1.306" y2="102.581" gradientUnits="objectBoundingBox"><stop offset="0" stop-color="#ffe000"/><stop offset="0.41" stop-color="#ffbd00"/><stop offset="0.78" stop-color="orange"/><stop offset="1" stop-color="#ff9c00"/></linearGradient><linearGradient id="c" x1="0.864" y1="68.301" x2="-0.499" y2="70.066" gradientUnits="objectBoundingBox"><stop offset="0" stop-color="#ff3a44"/><stop offset="1" stop-color="#c31162"/></linearGradient><linearGradient id="d" x1="-0.186" y1="67.655" x2="0.423" y2="68.444" gradientUnits="objectBoundingBox"><stop offset="0" stop-color="#32a071"/><stop offset="0.07" stop-color="#2da771"/><stop offset="0.48" stop-color="#15cf74"/><stop offset="0.8" stop-color="#06e775"/><stop offset="1" stop-color="#00f076"/></linearGradient></defs><g transform="translate(-299.974 -3934.8)"><path class="a" d="M64.391,21.159a3.563,3.563,0,0,0-3.627,3.714A3.613,3.613,0,0,0,64.478,28.5a3.563,3.563,0,0,0,3.627-3.714,3.708,3.708,0,0,0-3.541-3.714C64.478,21.072,64.478,21.072,64.391,21.159Zm0,5.873a2.252,2.252,0,1,1,2.073-2.418v.173a2.084,2.084,0,0,1-2.073,2.246Zm-8.032-5.873a3.671,3.671,0,1,0,3.714,3.627,3.708,3.708,0,0,0-3.541-3.714C56.446,21.072,56.446,21.072,56.359,21.159Zm0,5.873a2.252,2.252,0,1,1,2.073-2.418v.173a2.138,2.138,0,0,1-2.073,2.246Zm-9.587-4.75v1.555h3.714a3.71,3.71,0,0,1-.864,1.986,3.648,3.648,0,0,1-2.85,1.123,4.146,4.146,0,0,1,0-8.291,3.976,3.976,0,0,1,2.85,1.123l1.123-1.123A5.413,5.413,0,0,0,46.859,17.1a5.706,5.706,0,0,0-.518,11.4h.432a5.031,5.031,0,0,0,5.355-5.182,3.238,3.238,0,0,0-.086-.95H46.773Zm39.21,1.209a3.363,3.363,0,0,0-6.564,1.123v.259a3.676,3.676,0,0,0,6.737,2.073l-1.209-.864a2.105,2.105,0,0,1-1.814,1.036A2.014,2.014,0,0,1,81.319,26l4.923-1.986Zm-5.1,1.209a2.03,2.03,0,0,1,1.9-2.159h0a1.465,1.465,0,0,1,1.382.777Zm-3.973,3.541h1.641v-10.8H76.914Zm-2.591-6.3h0a2.976,2.976,0,0,0-1.986-.864,3.677,3.677,0,0,0,0,7.341,2.223,2.223,0,0,0,1.9-.864h.086v.518a1.912,1.912,0,0,1-1.986,2.159,2.062,2.062,0,0,1-1.9-1.3l-1.382.6A3.507,3.507,0,0,0,72.337,31.7c1.9,0,3.455-1.123,3.455-3.8V21.332H74.323Zm-1.9,5.1a2.206,2.206,0,0,1,0-4.4,2.164,2.164,0,0,1,1.986,2.159v.086a2.11,2.11,0,0,1-1.9,2.246C72.51,27.032,72.51,27.032,72.423,27.032ZM93.5,17.445H89.61v10.8h1.641V24.182H93.5a3.378,3.378,0,1,0,.518-6.737Zm0,5.182H91.251V18.913h2.332A1.824,1.824,0,0,1,95.4,20.727a1.862,1.862,0,0,1-1.9,1.9Zm9.932-1.555a2.983,2.983,0,0,0-2.85,1.641l1.468.6a1.452,1.452,0,0,1,1.468-.777,1.559,1.559,0,0,1,1.727,1.382h0v.086a3.874,3.874,0,0,0-1.641-.432c-1.555,0-3.109.864-3.109,2.418a2.566,2.566,0,0,0,2.591,2.418h.086a2.181,2.181,0,0,0,2.073-1.036h.086v.864h1.555V24.1a3.168,3.168,0,0,0-3.455-3.023Zm-.173,5.959c-.518,0-1.3-.259-1.3-.95,0-.864.95-1.123,1.727-1.123a2.839,2.839,0,0,1,1.468.345,1.889,1.889,0,0,1-1.9,1.727Zm9.155-5.7L110.6,26h-.086l-1.9-4.664h-1.727l2.85,6.564-1.641,3.627h1.641l4.4-10.191ZM97.9,28.241h1.641v-10.8H97.9Z" transform="translate(285.836 3926.621)"/><path class="b" d="M10.342,7.5A1.549,1.549,0,0,0,10,8.71v19.1a1.618,1.618,0,0,0,.432,1.21l.086.086L21.224,18.388v-.259L10.342,7.5Z" transform="translate(290 3927.918)"/><path class="c" d="M26.441,23.141,22.9,19.6v-.259L26.441,15.8l.086.086L30.759,18.3a1.318,1.318,0,0,1,0,2.5l-4.232,2.418Z" transform="translate(288.238 3926.792)"/><path class="d" d="M24.823,23.627,21.2,20,10.4,30.8a1.561,1.561,0,0,0,1.814.086l12.609-7.255" transform="translate(289.942 3926.226)"/><path class="e" d="M24.823,14.617,12.214,7.449a1.432,1.432,0,0,0-1.814,0l10.8,10.8Z" transform="translate(289.942 3927.969)"/><path class="f" d="M41.3,12.182V7h1.555a3.018,3.018,0,0,1,1.9.691,2.29,2.29,0,0,1,.691,1.9,3.018,3.018,0,0,1-.691,1.9,2.29,2.29,0,0,1-1.9.691Zm.6-.6h.95a1.961,1.961,0,0,0,1.382-.518,2.179,2.179,0,0,0,.518-1.468A1.839,1.839,0,0,0,43.114,7.6H41.9Z" transform="translate(285.744 3927.986)"/><path class="f" d="M47.2,12.182V7h.691v5.182Z" transform="translate(284.941 3927.986)"/><path class="f" d="M50.814,12.255a2.449,2.449,0,0,1-1.123-.345A1.719,1.719,0,0,1,49,10.873l.6-.259a1.88,1.88,0,0,0,.432.691,1.206,1.206,0,0,0,.777.259,1.393,1.393,0,0,0,.777-.259c.173-.173.345-.345.259-.6a.981.981,0,0,0-.259-.691,3.193,3.193,0,0,0-.95-.432A2.354,2.354,0,0,1,49.6,9.059a1.109,1.109,0,0,1-.345-.864,1.336,1.336,0,0,1,1.468-1.3,1.508,1.508,0,0,1,1.036.345,1.343,1.343,0,0,1,.518.691l-.6.259a.475.475,0,0,0-.259-.432.672.672,0,0,0-.691-.173,2.033,2.033,0,0,0-.691.173.488.488,0,0,0-.173.518.746.746,0,0,0,.259.518,2.586,2.586,0,0,0,.691.345,4.21,4.21,0,0,1,.6.259,1.807,1.807,0,0,1,.518.345,1.041,1.041,0,0,1,.432.432,1.627,1.627,0,0,1,.173.691,2.033,2.033,0,0,1-.173.691,1.041,1.041,0,0,1-.432.432,1.228,1.228,0,0,1-.518.173A1.686,1.686,0,0,1,50.814,12.255Z" transform="translate(284.697 3928)"/><path class="f" d="M54.891,12.182H54.2V7h1.727a1.642,1.642,0,0,1,1.123.432A1.411,1.411,0,0,1,57.136,9.5l-.086.086a1.819,1.819,0,0,1-1.123.432H54.891Zm0-2.764h1.123a.981.981,0,0,0,.691-.259.938.938,0,0,0,0-1.3.981.981,0,0,0-.691-.259H54.891Z" transform="translate(283.991 3927.986)"/><path class="f" d="M63.277,11.477a2.711,2.711,0,0,1-3.8,0,2.687,2.687,0,1,1,3.8-3.8h0a2.711,2.711,0,0,1,0,3.8ZM60,11.046a1.929,1.929,0,0,0,2.764,0h0a2.14,2.14,0,0,0,0-2.936,1.929,1.929,0,0,0-2.764,0h0A2.14,2.14,0,0,0,60,11.046Z" transform="translate(283.38 3928)"/><path class="f" d="M66,12.182V7h.777l2.5,4.059h0V7h.691v5.182h-.691L66.691,7.95h0v4.232Z" transform="translate(282.388 3927.986)"/><path class="f" d="M72,12.182V7h.691v5.182Z" transform="translate(281.571 3927.986)"/><path class="f" d="M74.1,12.182V7H76a1.593,1.593,0,0,1,1.036.432,1.387,1.387,0,0,1,.432.95,2.033,2.033,0,0,1-.173.691,1.269,1.269,0,0,1-.518.432h0a1.549,1.549,0,0,1,.6.432,1.056,1.056,0,0,1,.259.777,1.43,1.43,0,0,1-.432,1.036,1.642,1.642,0,0,1-1.123.432Zm.691-2.936H76a.784.784,0,0,0,.6-.259.808.808,0,0,0,0-1.123h0A.784.784,0,0,0,76,7.6H74.7Zm0,2.332h1.382a.855.855,0,0,0,.6-1.468.981.981,0,0,0-.691-.259h-1.3Z" transform="translate(281.287 3927.986)"/><path class="f" d="M79.2,12.182V7h.691v4.577h2.246v.6Z" transform="translate(280.594 3927.986)"/><path class="f" d="M86.623,7.6H84.291V9.246H86.45v.6H84.291v1.641h2.332v.691H83.6V7h3.023Z" transform="translate(279.996 3927.986)"/><path class="f" d="M93.323,7.6H90.991V9.246H93.15v.6H90.991v1.641h2.332v.691H90.3V7h3.023Z" transform="translate(279.086 3927.986)"/><path class="f" d="M95,12.182V7h.864l2.5,4.059h0V7h.691v5.182h-.691L95.777,7.95h0v4.232Z" transform="translate(278.447 3927.986)"/></g></svg>