<svg xmlns="http://www.w3.org/2000/svg" width="65" height="65" viewBox="0 0 65 65"><g transform="translate(2 267)"><rect width="65" height="65" transform="translate(-2 -267)" fill="#fff" opacity="0"/><g transform="translate(14.5 -255.264)"><path d="M36.524,12.017H31.914A2.017,2.017,0,0,1,29.79,9.9V5.256Zm1.417,15.32,1.371,1.371V12.874L29.79,3.313V3.268h-.044L28.98,2.5H13A3.374,3.374,0,0,0,9.5,6.006V36.323A3.376,3.376,0,0,0,13,39.829H35.818a3.374,3.374,0,0,0,3.495-3.506V34.265l-1.371-1.371v3.43a2.024,2.024,0,0,1-2.126,2.135H13a2.024,2.024,0,0,1-2.123-2.135V6.006A2.023,2.023,0,0,1,13,3.871H28.411l.008.008V9.895a3.6,3.6,0,0,0,.066.632H15.628a.685.685,0,1,0,0,1.371H29.013a3.2,3.2,0,0,0,2.9,1.49H37.89l.051.051ZM21.19,21.715a8.275,8.275,0,0,1,.1-1.236H15.628a.685.685,0,1,0,0,1.371H21.2c0-.045-.007-.089-.007-.135m-5.562-4.841H22.75A8.4,8.4,0,0,1,23.981,15.5H15.628a.686.686,0,1,0,0,1.371m6.458,8.581H15.628a.685.685,0,1,0,0,1.371h7.324a8.347,8.347,0,0,1-.867-1.371m11.1,4.977H15.628a.685.685,0,1,0,0,1.371H33.185a.685.685,0,1,0,0-1.371M29.54,27.805a6.091,6.091,0,1,1,6.091-6.091,6.1,6.1,0,0,1-6.091,6.091M43.792,34.3l-8.174-8.173c-.013-.013-.029-.023-.044-.035a7.49,7.49,0,1,0-1.658,1.659c.013.014.022.03.035.043l8.174,8.174A1.178,1.178,0,1,0,43.792,34.3" transform="translate(-9.5 -2.5)" fill="#37236a"/></g></g></svg>