<svg xmlns="http://www.w3.org/2000/svg" width="65" height="65" viewBox="0 0 65 65"><g transform="translate(2 267)"><rect width="65" height="65" transform="translate(-2 -267)" fill="#fff" opacity="0"/><g transform="translate(7 -258.633)"><path d="M17.8,36H6.694A.694.694,0,0,0,6,36.694V47.8a.694.694,0,0,0,.694.694H17.8a.694.694,0,0,0,.694-.694v-11.1A.694.694,0,0,0,17.8,36ZM17.1,47.1H7.388V37.388H17.1Z" transform="translate(-1.224 -10.408)" fill="#37236a"/><path d="M37.992,2H11.02a.694.694,0,0,0-.694.694V15.878H5.469a.694.694,0,0,0-.694.694v2.776a2.436,2.436,0,0,1-1.138,1.984C2.569,22.025,2,23.413,2,25.356V42.939a.694.694,0,0,0,.694.694H42.939a.694.694,0,0,0,.694-.694V7.641A5.648,5.648,0,0,0,37.992,2ZM6.163,17.265h9.714v2.082H6.163Zm12.49,14.571V42.245H3.388V25.363c0-1.429.354-2.442,1-2.859a3.92,3.92,0,0,0,1.492-1.769H16.162A3.92,3.92,0,0,0,17.654,22.5c.645.416,1,1.429,1,2.859Zm-.25-10.5a2.436,2.436,0,0,1-1.138-1.991h0V16.571a.694.694,0,0,0-.694-.694h-.694V14.49h22.2V31.143H20.041v-5.78c0-1.95-.569-3.338-1.638-4.025Zm23.842-12.4V42.245h-22.2V32.531H38.776a.694.694,0,0,0,.694-.694V13.8a.694.694,0,0,0-.694-.694H15.184a.694.694,0,0,0-.694.694v2.082H11.714V8.939H35.306V7.551H11.714V3.388H37.992a4.254,4.254,0,0,1,4.254,4.164H39.47V8.939Z" fill="#37236a"/><path d="M31.727,31.013l-.6,3.671a.694.694,0,0,0,1.02.694l3.095-1.686L38.34,35.4a.7.7,0,0,0,1.02-.736L38.763,31,41.3,28.4a.687.687,0,0,0-.4-1.159l-3.469-.527L35.877,23.4a.694.694,0,0,0-1.263,0L33.06,26.718l-3.469.527a.687.687,0,0,0-.4,1.159Zm1.908-2.977a.694.694,0,0,0,.52-.4l1.089-2.318,1.089,2.318a.694.694,0,0,0,.52.4l2.5.382-1.832,1.873a.694.694,0,0,0-.187.6l.43,2.609-2.186-1.207a.694.694,0,0,0-.694,0L32.7,33.5l.465-2.609a.694.694,0,0,0-.187-.6l-1.832-1.873Z" transform="translate(-8.266 -6.427)" fill="#37236a"/><path d="M11.349,44.455l-.271,1.665a.694.694,0,0,0,1.02.694l1.388-.763,1.388.763a.7.7,0,0,0,1.027-.722l-.271-1.665,1.145-1.173a.694.694,0,0,0-.4-1.166l-1.554-.236-.694-1.492a.694.694,0,0,0-1.263,0l-.694,1.492-1.554.236a.694.694,0,0,0-.4,1.166Zm1.388-1.263a.694.694,0,0,0,.52-.389l.229-.493.229.493a.694.694,0,0,0,.52.389l.59.09-.451.458a.694.694,0,0,0-.187.6l.1.6-.465-.257a.694.694,0,0,0-.694,0l-.465.257.1-.6a.694.694,0,0,0-.187-.6l-.451-.458Z" transform="translate(-2.459 -11.619)" fill="#37236a"/><rect width="1" height="1" transform="translate(37 7.633)" fill="#37236a"/></g></g></svg>