<svg xmlns="http://www.w3.org/2000/svg" width="65" height="65" viewBox="0 0 65 65"><g transform="translate(2 267)"><rect width="65" height="65" transform="translate(-2 -267)" fill="#fff" opacity="0"/><g transform="translate(1821 5583.847)"><g transform="translate(-1812.7 -5838.7)"><path d="M765.709,147a1.409,1.409,0,1,1-1,2.4,1.413,1.413,0,0,1,1-2.4Z" transform="translate(-753.03 -135.73)" fill="#3a226a"/><path d="M885.3,364.409a.7.7,0,0,1,0-1.409h.009a.707.707,0,0,1,.7.7A.714.714,0,0,1,885.3,364.409Z" transform="translate(-862.738 -332.713)" fill="#f3f1f6"/><path d="M681.039,348.409H637.4a.7.7,0,0,1,0-1.409h43.635a.7.7,0,1,1,0,1.409Z" transform="translate(-636.665 -318.121)" fill="#3a226a"/><path d="M679.266,52.1H638.413a2.119,2.119,0,0,1-2.113-2.113V21.113A2.119,2.119,0,0,1,638.413,19h40.853a2.119,2.119,0,0,1,2.113,2.113V49.992A2.114,2.114,0,0,1,679.266,52.1Zm-40.853-31.7a.706.706,0,0,0-.7.7V49.992a.706.706,0,0,0,.7.7h40.853a.706.706,0,0,0,.7-.7V21.113a.706.706,0,0,0-.7-.7Z" transform="translate(-636.3 -19)" fill="#3a226a"/><path d="M813.048,386.087a1.083,1.083,0,0,1-.167-.018.7.7,0,0,1-.511-.854l1.409-5.635a.7.7,0,0,1,1.365.343l-1.409,5.635A.716.716,0,0,1,813.048,386.087Z" transform="translate(-796.848 -347.347)" fill="#3a226a"/><path d="M942.365,386a.712.712,0,0,1-.687-.537l-1.409-5.635a.7.7,0,1,1,1.365-.343l1.409,5.635a.7.7,0,0,1-.511.854A.511.511,0,0,1,942.365,386Z" transform="translate(-913.487 -347.256)" fill="#3a226a"/><path d="M781,445.817a.706.706,0,0,1-.7-.7A2.119,2.119,0,0,1,782.413,443a.7.7,0,1,1,0,1.409.707.707,0,0,0-.7.7A.706.706,0,0,1,781,445.817Z" transform="translate(-767.622 -405.669)" fill="#3a226a"/><path d="M974.413,445.817a.706.706,0,0,1-.7-.7.706.706,0,0,0-.7-.7A.7.7,0,0,1,973,443a2.119,2.119,0,0,1,2.113,2.113A.706.706,0,0,1,974.413,445.817Z" transform="translate(-942.717 -405.669)" fill="#3a226a"/><path d="M812.5,444.409H797A.7.7,0,0,1,797,443h15.5a.7.7,0,0,1,0,1.409Z" transform="translate(-782.213 -405.669)" fill="#3a226a"/><path d="M781,461.113a.706.706,0,0,1-.7-.7v-.7a.7.7,0,1,1,1.409,0v.7A.706.706,0,0,1,781,461.113Z" transform="translate(-767.622 -420.26)" fill="#3a226a"/><path d="M799.318,468.409H781A.7.7,0,0,1,781,467h18.313a.7.7,0,1,1,0,1.409Z" transform="translate(-767.622 -427.556)" fill="#3a226a"/><path d="M989,461.113a.707.707,0,0,1-.7-.7v-.7a.7.7,0,1,1,1.409,0v.7A.706.706,0,0,1,989,461.113Z" transform="translate(-957.308 -420.26)" fill="#3a226a"/><path d="M931.092,236.409H917A.7.7,0,0,1,917,235h14.087a.7.7,0,0,1,0,1.409Z" transform="translate(-891.648 -215.982)" fill="#3a226a"/><path d="M917,90.5a.706.706,0,0,1-.7-.7V75.7a.7.7,0,1,1,1.409,0V89.791A.7.7,0,0,1,917,90.5Z" transform="translate(-891.647 -70.069)" fill="#3a226a"/><path d="M949,185.339a.706.706,0,0,1-.7-.7V179.7a.7.7,0,0,1,1.409,0v4.93A.707.707,0,0,1,949,185.339Z" transform="translate(-920.83 -164.913)" fill="#3a226a"/><path d="M981,141.565a.706.706,0,0,1-.7-.7V131.7a.7.7,0,1,1,1.409,0v9.157A.7.7,0,0,1,981,141.565Z" transform="translate(-950.013 -121.139)" fill="#3a226a"/><path d="M1045,163.452a.706.706,0,0,1-.7-.7V155.7a.7.7,0,1,1,1.409,0v7.044A.706.706,0,0,1,1045,163.452Z" transform="translate(-1008.378 -143.026)" fill="#3a226a"/><path d="M1013,199.93a.706.706,0,0,1-.7-.7V195.7a.7.7,0,1,1,1.409,0v3.522A.706.706,0,0,1,1013,199.93Z" transform="translate(-979.195 -179.504)" fill="#3a226a"/><path d="M700.048,90.5a7.748,7.748,0,1,1,7.748-7.748A7.759,7.759,0,0,1,700.048,90.5Zm0-14.087a6.339,6.339,0,1,0,6.339,6.339A6.346,6.346,0,0,0,700.048,76.409Z" transform="translate(-687.369 -70.069)" fill="#3a226a"/><path d="M758.413,143.226a2.113,2.113,0,1,1,2.113-2.113A2.119,2.119,0,0,1,758.413,143.226Zm0-2.817a.7.7,0,1,0,.7.7A.706.706,0,0,0,758.413,140.409Z" transform="translate(-745.735 -128.435)" fill="#3a226a"/><path d="M773,82.044a.706.706,0,0,1-.7-.7V75.7a.7.7,0,1,1,1.409,0v5.635A.706.706,0,0,1,773,82.044Z" transform="translate(-760.326 -70.069)" fill="#3a226a"/><path d="M716.382,171.757a.729.729,0,0,1-.5-.2.707.707,0,0,1,0-.995l3.98-3.98a.7.7,0,1,1,.995.995l-3.98,3.98A.693.693,0,0,1,716.382,171.757Z" transform="translate(-708.686 -153.399)" fill="#3a226a"/><path d="M931.092,268.409H917A.7.7,0,0,1,917,267h14.087a.7.7,0,0,1,0,1.409Z" transform="translate(-891.648 -245.165)" fill="#3a226a"/><path d="M970.639,292.409H965A.7.7,0,0,1,965,291h5.635a.7.7,0,0,1,0,1.409Z" transform="translate(-935.421 -267.052)" fill="#3a226a"/><path d="M714.387,268.409H701A.7.7,0,0,1,701,267h13.383a.7.7,0,0,1,0,1.409Z" transform="translate(-694.665 -245.165)" fill="#3a226a"/><path d="M754.639,292.409H749A.7.7,0,0,1,749,291h5.635a.7.7,0,0,1,0,1.409Z" transform="translate(-738.439 -267.052)" fill="#3a226a"/></g></g></g></svg>