<svg xmlns="http://www.w3.org/2000/svg" width="65" height="65" viewBox="0 0 65 65"><g transform="translate(2 267)"><rect width="65" height="65" transform="translate(-2 -267)" fill="#fff" opacity="0"/><g transform="translate(-8 -272.869)"><g transform="translate(16.302 16.302)"><path d="M40.129,17.066l2.2,2.2,2.9-1.113a2.609,2.609,0,0,1,3.371,1.5l.892,2.325h2.491a2.609,2.609,0,0,1,2.609,2.609v3.107l2.84,1.265A2.609,2.609,0,0,1,58.754,32.4L57.74,34.677,59.5,36.439a2.609,2.609,0,0,1,0,3.69l-2.2,2.2,1.115,2.9a2.609,2.609,0,0,1-1.5,3.371l-2.325.892v2.491a2.609,2.609,0,0,1-2.609,2.609H48.874l-1.264,2.84a2.609,2.609,0,0,1-3.445,1.322L41.89,57.74,40.129,59.5a2.609,2.609,0,0,1-3.69,0l-2.2-2.2-2.9,1.115a2.609,2.609,0,0,1-3.371-1.5l-.893-2.325h-2.49a2.609,2.609,0,0,1-2.609-2.609V48.874L19.136,47.61a2.609,2.609,0,0,1-1.322-3.445l1.013-2.276-1.761-1.761a2.609,2.609,0,0,1,0-3.69l2.2-2.2-1.113-2.9a2.609,2.609,0,0,1,1.5-3.371l2.325-.893v-2.49a2.609,2.609,0,0,1,2.609-2.609h3.108l1.264-2.839A2.609,2.609,0,0,1,32.4,17.814l2.275,1.013,1.761-1.761A2.609,2.609,0,0,1,40.129,17.066ZM38.745,18.45a.652.652,0,0,0-.861-.054l-.061.054-1.761,1.761a1.957,1.957,0,0,1-2.055.454l-.124-.05L31.606,19.6a.652.652,0,0,0-.826.263l-.035.068-1.264,2.839a1.957,1.957,0,0,1-1.659,1.157l-.128,0H24.585a.652.652,0,0,0-.648.576l0,.076v2.49a1.957,1.957,0,0,1-1.138,1.777l-.117.049-2.325.893a.652.652,0,0,0-.4.77l.023.073,1.113,2.9a1.957,1.957,0,0,1-.351,1.986l-.093.1-2.2,2.2a.652.652,0,0,0-.054.861l.054.061,1.761,1.761a1.957,1.957,0,0,1,.455,2.055l-.05.124L19.6,44.961a.652.652,0,0,0,.263.826l.068.035,2.839,1.264a1.957,1.957,0,0,1,1.157,1.66l0,.128v3.109a.652.652,0,0,0,.576.648l.076,0h2.49a1.957,1.957,0,0,1,1.778,1.138l.049.117.893,2.326a.652.652,0,0,0,.77.4l.072-.023,2.9-1.115a1.957,1.957,0,0,1,1.986.35l.1.093,2.2,2.2a.652.652,0,0,0,.861.055l.061-.054,1.761-1.762a1.957,1.957,0,0,1,2.056-.455l.124.05,2.275,1.013a.652.652,0,0,0,.826-.263l.035-.068,1.264-2.84a1.957,1.957,0,0,1,1.66-1.157l.128,0h3.108a.652.652,0,0,0,.648-.576l0-.076V49.492a1.957,1.957,0,0,1,1.139-1.778l.117-.049,2.325-.892a.652.652,0,0,0,.4-.77l-.023-.073-1.115-2.9a1.957,1.957,0,0,1,.351-1.987l.093-.1,2.2-2.2a.652.652,0,0,0,.054-.861l-.054-.061-1.762-1.761a1.957,1.957,0,0,1-.454-2.056l.05-.124,1.013-2.275a.652.652,0,0,0-.263-.826l-.068-.035L53.8,29.48a1.957,1.957,0,0,1-1.156-1.66l0-.128V24.585a.652.652,0,0,0-.576-.648l-.076,0H49.492a1.957,1.957,0,0,1-1.777-1.139l-.049-.117-.892-2.325a.652.652,0,0,0-.771-.4l-.073.023-2.9,1.113a1.957,1.957,0,0,1-1.986-.351l-.1-.093Zm4.757,10.8a.978.978,0,0,1,.358,1.337L34.4,46.965a.978.978,0,0,1-1.695-.978L42.166,29.6A.978.978,0,0,1,43.5,29.245Zm.652,10.344a3.588,3.588,0,1,1-3.588,3.588A3.588,3.588,0,0,1,44.155,39.588Zm0,1.957a1.631,1.631,0,1,0,1.631,1.631A1.631,1.631,0,0,0,44.155,41.545ZM32.413,29.8a3.588,3.588,0,1,1-3.588,3.588A3.588,3.588,0,0,1,32.413,29.8Zm0,1.957a1.631,1.631,0,1,0,1.631,1.631A1.631,1.631,0,0,0,32.413,31.761Z" transform="translate(-16.302 -16.302)" fill="#37236a"/></g></g></g></svg>