<svg xmlns="http://www.w3.org/2000/svg" width="65" height="65" viewBox="0 0 65 65"><g transform="translate(2 267)"><rect width="65" height="65" transform="translate(-2 -267)" fill="#fff" opacity="0"/><g transform="translate(6 -262.745)"><g transform="translate(5 6)"><path d="M25.353,6.132l4.274,3.193H40.7V17.6l3.946,2.948a.663.663,0,0,1,.259.634,1,1,0,0,1,.008.121V44.358a.887.887,0,0,1-.887.887H5.887A.887.887,0,0,1,5,44.358V21.3a.9.9,0,0,1,.008-.121.661.661,0,0,1,.259-.634L9.213,17.6V9.326h11.07l4.274-3.193A.665.665,0,0,1,25.353,6.132Zm4.011,27.1-3.995,3-.415.317-.4-.305-4.01-3.006L7.925,43.914H41.985ZM43.58,22.4l-5.589,4.175-7.581,5.8L43.58,43.521ZM6.33,22.4V43.52L19.5,32.377,11.947,26.6ZM39.367,10.656H10.543v13.2L24.955,34.873,39.367,23.852Zm-30.154,8.6-2.436,1.82L9.213,22.9Zm31.485,0V22.9l2.436-1.819Zm-6.43,2.264v1.33H15.643v-1.33Zm0-3.548V19.3H15.643v-1.33Zm0-3.548v1.33H15.643v-1.33ZM24.955,7.5l-2.45,1.83h4.9Z" transform="translate(-5 -6)" fill="#37236a"/></g></g></g></svg>