<svg xmlns="http://www.w3.org/2000/svg" width="1446.64" height="420.562" viewBox="0 0 1446.64 420.562"><path d="M-567.833,152.282s-3.411-105.121,0-142.772c14.324-10.963,28.666-11.166,72.391,14.476,159,93.242,350.688,72.66,438.016,64.152S143.258,40.723,143.258,40.723v.636c66.227-25.072,125.823-7.688,176.084,9.7,44.327,15.332,81.392,30.663,109.341,16.871C464.064,50.481,467.875-.452,480.28-33.2c7.794-20.542,18.7-40.631,36.611-54.056,21.17-15.883,48.056-18.981,73.1-24.845,35.959-8.421,68.845-29.137,91.465-58.4,48.917-63.264,117.578-113.336,194.832-91.564V147.922H143.258v4.36Z" transform="translate(569.854 267.78)" fill="#b0affd" stroke="rgba(0,0,0,0)" stroke-miterlimit="10" stroke-width="1" opacity="0.2"/></svg>