<svg xmlns="http://www.w3.org/2000/svg" xmlns:xlink="http://www.w3.org/1999/xlink" width="411.498" height="361.926" viewBox="0 0 411.498 361.926"><defs><clipPath id="a"><path d="M638.258,264.71l-.061,2.773c-.022.961-5.173,1.626-11.507,1.485s-11.449-1.035-11.428-2l.063-2.773Z" transform="translate(-615.261 -264.197)" fill="none"/></clipPath><clipPath id="b"><path d="M636.515,262.1l-.061,2.773c-.022.961-5.173,1.626-11.506,1.484s-11.451-1.035-11.428-2l.061-2.773Z" transform="translate(-613.519 -261.592)" fill="none"/></clipPath><clipPath id="c"><path d="M638.188,259.574l-.061,2.775c-.022.961-5.173,1.625-11.506,1.484s-11.45-1.035-11.428-2l.061-2.773Z" transform="translate(-615.192 -259.063)" fill="none"/></clipPath></defs><path d="M449.863,356.792a1.259,1.259,0,0,0,.014.588,3.982,3.982,0,0,1-.281-1.279,92.4,92.4,0,0,0-4.361-9.745c-.336-.639-.687-1.27-1.039-1.9-1.628-.452-5.418-.525-6.438-.778-2.106-.521-4.8-1.081-6.608-2.326-.751-.516-2.625-2.335-1.812-3.4.92-1.207,4.693.815,5.616,1.327a63.565,63.565,0,0,0,6.076,3.479,20.349,20.349,0,0,1,2.939,1.281,80.735,80.735,0,0,0-5.221-8.081c-1.574-.476-5.487-.546-6.528-.8-2.106-.521-4.8-1.081-6.607-2.325-.752-.518-2.625-2.336-1.813-3.4.92-1.207,4.694.815,5.616,1.327a63.845,63.845,0,0,0,6.077,3.48A20.684,20.684,0,0,1,438.4,335.5a71.305,71.305,0,0,0-6.618-7.7,66.86,66.86,0,0,0-5.174-4.7c-1.834.24-4.293.815-5.122.834-2.17.048-4.915.214-6.987-.515-.861-.3-3.144-1.566-2.639-2.807.573-1.405,4.744-.441,5.768-.189a63.68,63.68,0,0,0,6.775,1.768c.412.054.832.091,1.252.134a67.888,67.888,0,0,0-7.77-5.306c-.747.227-1.553.329-2.325.487a54.132,54.132,0,0,0-5.665,1.914c-.858.275-4.353,1.347-4.925.184-.5-1.025,1.365-2.24,2.08-2.55,1.72-.745,4.069-.77,5.919-.859.666-.032,2.6.272,4.141.385-1.286-.731-2.589-1.433-3.92-2.08a67.122,67.122,0,0,0-6.51-2.7,14.458,14.458,0,0,1-2.858.675,54.126,54.126,0,0,0-5.665,1.914c-.857.275-4.352,1.349-4.925.186-.5-1.027,1.365-2.241,2.08-2.551,1.72-.745,4.069-.77,5.919-.859.775-.037,3.252.377,4.844.422A62.475,62.475,0,0,0,397,309.172a21.075,21.075,0,0,1-2.487.484,54.526,54.526,0,0,0-5.7,1.806c-.863.259-4.378,1.266-4.927.092-.484-1.035,1.406-2.214,2.128-2.51,1.735-.712,4.083-.692,5.934-.746a9.01,9.01,0,0,1,1.158.1c1.617.034,3.232.151,4.843.339a.61.61,0,0,0,.139-.061c-.038.027-.084.038-.123.064a54.465,54.465,0,0,1,6.528,1.175c-.642-.461-1.207-1.061-1.8-1.585a54.411,54.411,0,0,0-4.953-3.353c-.738-.515-3.707-2.649-3.128-3.809.511-1.022,2.61-.269,3.289.113,1.635.918,3.076,2.773,4.266,4.193.572.679,2.022,3.5,2.981,4.605a55.178,55.178,0,0,1,5.944,1.877A15.517,15.517,0,0,1,409.2,309.8a54.118,54.118,0,0,0-4.378-4.074c-.65-.623-3.255-3.188-2.505-4.244.664-.932,2.62.135,3.233.617,1.473,1.159,2.611,3.214,3.57,4.8.488.805,1.585,4.148,2.378,5.221.788.306,1.574.622,2.347.963a61.189,61.189,0,0,1,9.24,5.047c-.175-.546-.312-1.111-.481-1.654a54.339,54.339,0,0,0-2.474-5.445c-.36-.825-1.778-4.2-.677-4.881.97-.6,2.365,1.132,2.745,1.813.913,1.636,1.174,3.971,1.448,5.8.113.751-.042,3.178.061,4.769a64.33,64.33,0,0,1,7.958,6.38c-.245-.632-.474-1.27-.738-1.837-.664-1.427-1.377-2.835-2.18-4.191a26.79,26.79,0,0,0-4.519-5.814,1.27,1.27,0,0,1,1.089-2.171c.048.009.1.018.143.03,1.989.476,3.177,2.464,4.107,4.286.708,1.386,4.6,8.884,3.7,11.238a68.767,68.767,0,0,1,7.46,9.009c-.6-1.832-1.629-3.5-2.4-5.265-.36-.826-1.775-4.2-.675-4.882.971-.6,2.365,1.135,2.744,1.816.913,1.638,1.172,3.972,1.445,5.805.1.674-.016,2.692.031,4.25a71.837,71.837,0,0,1,4.576,8.115c-.009-.387-.01-.776-.028-1.157a54.327,54.327,0,0,0-1.031-5.89c-.143-.89-.671-4.507.564-4.9,1.092-.343,2.008,1.688,2.206,2.442.475,1.815.143,4.139-.05,5.982-.079.757-.838,3.072-1.136,4.638q1.5,3.229,2.68,6.585c-.042-1.768-.406-3.521-.548-5.288-.071-.9-.315-4.546.948-4.836,1.115-.256,1.869,1.842,2.006,2.609.331,1.845-.183,4.137-.52,5.959-.112.6-.745,2.186-1.207,3.582,1.362,4.248,6.033,7.952,6.639,12.345C456.044,363.561,451.227,360.455,449.863,356.792Z" transform="translate(-316.075 -59.969)" fill="#b0affd"/><path d="M671.117,363.573c-.033,4.136-67.232,6.953-150.1,6.288-35.97-.288-68.98-1.185-94.817-2.446-21.019-1.711-28.933-1.711-39.28-2.761-2.486-.218,2.112.227,0,0-10.164-1.092-15.882-2.278-15.872-3.487.033-4.137,67.232-6.955,150.09-6.291S671.15,359.435,671.117,363.573Z" transform="translate(-319.001 -47.554)" fill="#b0affd" opacity="0.4" style="mix-blend-mode:multiply;isolation:isolate"/><g transform="translate(104.309 190.948)"><path d="M477.091,358.132c-.054.075-.28-6.251-9.794-11.859-9.694-5.982-29.769-3.876-32.678-10.086-3.05-6.653,9.665-5.831,14.842-11.173,5.222-5.458,6.929-7.934-.747-9-7.634-.947-12.235-1.308-12.584-7.574-.357-6.341-12.61-2.537-19.118-6.8-6.7-4.249-3.555-10.672,8.63-11.047,11.991-.074,12.309-2.07,8.748-3.709-3.5-1.625-14.151-4.16-9.911-7.671,4.359-3.555,11.177-1.041,7.4-4.894-3.732-3.889-12.268-6.347-8.467-11.048,3.788-4.756,14.3-4.959,20.956,6.4,6.524,11.33,8.665,14.47,14.5,15.4,5.693.992,10.661-5.406,17.73-3.31,7.02,2.18,6.1,8.836,2.263,13.447-3.944,4.627-10.435,13.73-5.954,17.358,4.319,3.668,8.946-2.4,14.869-3.8,6.573-1.551,14.461,3.681,8.758,13.148-5.954,9.352-15.523,17.013-14.507,37.752Q479.575,358.85,477.091,358.132Z" transform="translate(-413.559 -260.197)" fill="#b0affd"/><g transform="translate(6.755 2.655)"><g transform="translate(8.422)" opacity="0.7"><path d="M477.078,358.817a.356.356,0,0,1-.407-.251c-20.414-70.754-50.334-95.335-50.633-95.574a.356.356,0,0,1,.445-.557c.3.242,30.4,24.964,50.873,95.933a.356.356,0,0,1-.242.441Z" transform="translate(-425.904 -262.357)" fill="#9797ef"/></g><g transform="translate(6.304 17.174)" opacity="0.7"><path d="M444.87,281.644a.348.348,0,0,1-.238-.039c-9.423-5.3-19.96-4.53-20.066-4.522a.357.357,0,0,1-.384-.327.348.348,0,0,1,.327-.385c.107-.007,10.854-.8,20.472,4.611a.357.357,0,0,1-.111.661Z" transform="translate(-424.181 -276.327)" fill="#9797ef"/></g><g transform="translate(38.29 21.932)" opacity="0.7"><path d="M450.619,300.849a.356.356,0,0,1-.353-.558,140.992,140.992,0,0,1,18.152-20,.357.357,0,1,1,.476.531,140.417,140.417,0,0,0-18.05,19.888A.361.361,0,0,1,450.619,300.849Z" transform="translate(-450.199 -280.197)" fill="#9797ef"/></g><g transform="translate(0 33.795)" opacity="0.7"><path d="M455.4,294.157a.348.348,0,0,1-.162-.007c-17.147-4.927-35.616-3.359-35.8-3.341a.357.357,0,0,1-.386-.323.34.34,0,0,1,.322-.387c.187-.017,18.786-1.6,36.06,3.367a.355.355,0,0,1-.033.692Z" transform="translate(-419.053 -289.846)" fill="#9797ef"/></g><g transform="translate(20.694 70.311)" opacity="0.7"><path d="M467.572,323.455a.36.36,0,0,1-.183-.014c-11.823-4.147-30.932-3.054-31.124-3.043a.356.356,0,0,1-.377-.333.352.352,0,0,1,.334-.377c.192-.011,19.445-1.114,31.4,3.081a.356.356,0,0,1-.053.686Z" transform="translate(-435.886 -319.549)" fill="#9797ef"/></g><g transform="translate(53.69 51.441)" opacity="0.7"><path d="M463.146,331.864a.332.332,0,0,1-.155-.006.354.354,0,0,1-.253-.434c3.86-14.614,16.459-27,16.586-27.124a.357.357,0,1,1,.5.511c-.125.122-12.585,12.375-16.4,26.793A.352.352,0,0,1,463.146,331.864Z" transform="translate(-462.726 -304.2)" fill="#9797ef"/></g></g></g><path d="M463.545,335.436s.639-25.72-19.621-28.088-12.95,26.889-4.263,36.468c0,0-11.259-13.248-18.757-4.3s13.55,19.208,13.55,19.208-16.846-5.709-21.51-1.842c-6.019,4.991,2.84,11.008,2.84,11.008s-15.667-6.017-11.851,6.91l86.631-.242Z" transform="translate(-311.595 -58.464)" fill="#7777db"/><path d="M539.264,336.489a.924.924,0,0,1,.152.4,2.912,2.912,0,0,0-.16-.944,67.114,67.114,0,0,1,.283-7.788c.052-.524.117-1.047.182-1.57.981-.741,3.532-1.8,4.155-2.246A15.182,15.182,0,0,0,547.721,321c.368-.553,1.14-2.288.3-2.8-.955-.575-2.96,1.806-3.446,2.4a45.918,45.918,0,0,1-3.167,3.987,14.584,14.584,0,0,0-1.642,1.654,58.466,58.466,0,0,1,1.323-6.886c.937-.744,3.574-1.835,4.208-2.288a15.161,15.161,0,0,0,3.844-3.343c.369-.552,1.14-2.288.3-2.8-.955-.575-2.96,1.806-3.446,2.4a45.722,45.722,0,0,1-3.167,3.987,14.934,14.934,0,0,0-1.629,1.636,51.558,51.558,0,0,1,2.375-7,47.761,47.761,0,0,1,2.221-4.572c1.309-.327,3.136-.591,3.7-.8a15.244,15.244,0,0,0,4.6-2.214c.5-.435,1.7-1.9,1.02-2.612-.774-.8-3.34.965-3.966,1.41a45.739,45.739,0,0,1-4.111,3.008c-.264.148-.54.285-.813.425a48.9,48.9,0,0,1,3.815-5.68c.57-.046,1.145-.191,1.711-.289a39.444,39.444,0,0,1,4.369-.21c.658-.041,3.323-.243,3.392-1.186.06-.832-1.54-1.161-2.111-1.18a13.122,13.122,0,0,0-4.253.995c-.461.156-1.689.879-2.7,1.366.671-.84,1.362-1.665,2.089-2.46a48.241,48.241,0,0,1,3.673-3.574,10.538,10.538,0,0,0,2.124-.3,39.763,39.763,0,0,1,4.37-.209c.657-.042,3.323-.245,3.392-1.188.06-.832-1.542-1.159-2.112-1.179a13.1,13.1,0,0,0-4.252.995c-.535.181-2.1,1.124-3.171,1.577a45.1,45.1,0,0,1,5.5-4.062,15.659,15.659,0,0,0,1.821-.333,39.324,39.324,0,0,1,4.363-.293c.656-.054,3.318-.307,3.368-1.251.045-.834-1.563-1.131-2.133-1.14a13.1,13.1,0,0,0-4.231,1.076,6.477,6.477,0,0,0-.759.374q-1.632.684-3.193,1.523a.468.468,0,0,1-.112,0c.034.007.068,0,.1.01a39.631,39.631,0,0,0-4.106,2.54c.309-.483.527-1.043.789-1.559a39.3,39.3,0,0,1,2.439-3.6c.359-.547,1.788-2.789,1.076-3.423-.627-.559-1.844.513-2.2.953a12.953,12.953,0,0,0-1.743,3.989c-.2.613-.412,2.916-.757,3.925a39.816,39.816,0,0,0-3.518,2.862,11.15,11.15,0,0,0,.687-1.965,38.864,38.864,0,0,1,1.851-3.938c.269-.6,1.333-3.035.534-3.553-.706-.457-1.741.79-2.024,1.281a13.028,13.028,0,0,0-1.105,4.216c-.109.677.064,3.243-.178,4.184-.451.419-.9.842-1.328,1.281a43.982,43.982,0,0,0-4.884,5.895c-.031-.417-.092-.838-.128-1.253a39.51,39.51,0,0,1,.183-4.361c.017-.658.054-3.327-.88-3.5-.825-.152-1.294,1.4-1.365,1.966a13.153,13.153,0,0,0,.611,4.332c.129.541.9,2.15,1.269,3.259a46.015,46.015,0,0,0-3.648,6.46c-.009-.5-.027-.991,0-1.446a34.089,34.089,0,0,1,.328-3.431,19.318,19.318,0,0,1,1.469-5.159.936.936,0,0,0-1.335-1.185c-.031.018-.06.038-.09.058-1.218.854-1.478,2.523-1.609,4.01-.1,1.131-.683,7.267.578,8.627a49.716,49.716,0,0,0-2.588,8.114c-.095-1.406.146-2.812.183-4.22.017-.658.052-3.327-.884-3.5-.824-.151-1.292,1.4-1.362,1.966a13.155,13.155,0,0,0,.615,4.332c.117.484.75,1.827,1.146,2.9a52.064,52.064,0,0,0-.875,6.737c-.1-.266-.206-.53-.3-.794a39.8,39.8,0,0,1-.917-4.279c-.148-.643-.782-3.243-1.727-3.178-.835.058-.9,1.683-.825,2.249a13.3,13.3,0,0,0,1.676,4.053c.262.494,1.413,1.865,2.044,2.851q-.129,2.6-.009,5.192c-.457-1.213-.692-2.5-1.081-3.741-.2-.629-1.035-3.175-1.972-3.035-.826.123-.762,1.751-.644,2.309a13.326,13.326,0,0,0,1.989,3.913c.242.38,1.107,1.287,1.8,2.113.242,3.251-1.908,7.015-1.114,10.163C536.929,342.739,539.345,339.343,539.264,336.489Z" transform="translate(-281.484 -63.841)" fill="#b0affd"/><g transform="translate(194.082 180.364)"><path d="M522.691,360.58c.078.05-2.06-5.907,4.691-14.647,6.779-9.153,26.2-14.652,26.6-21.5.363-7.31-11.139-1.826-17.929-4.862-6.876-3.13-9.379-4.8-2.648-8.638,6.737-3.713,10.874-5.756,8.872-11.7-2.024-6.02,10.767-7.038,15.227-13.409,4.645-6.432-.66-11.229-12.114-7.054-11.162,4.384-12.2,2.648-9.5-.2,2.647-2.808,11.6-9.117,6.356-10.8-5.367-1.683-10.766,3.183-8.69-1.8,2.022-5,9.035-10.448,3.759-13.4-5.284-3.01-15.121.7-17.083,13.722-1.85,12.942-2.671,16.653-7.746,19.687-4.919,3.035-11.907-1.061-17.692,3.51-5.708,4.63-2.386,10.469,2.891,13.325,5.38,2.834,14.786,8.875,11.973,13.907-2.649,5.011-9.2,1.09-15.217,1.992-6.68,1-12.061,8.786-3.252,15.461,9,6.473,20.731,10.033,27.485,29.666Q520.652,362.17,522.691,360.58Z" transform="translate(-486.582 -251.587)" fill="#b0affd"/><g transform="translate(6.832 2.677)"><g transform="translate(24.972)" opacity="0.7"><path d="M514.576,362.223a.354.354,0,0,0,.285-.384C507.548,288.563,526.2,254.632,526.393,254.3a.356.356,0,0,0-.62-.352c-.192.337-18.957,34.466-11.621,107.964a.356.356,0,0,0,.39.32Z" transform="translate(-512.452 -253.765)" fill="#9797ef"/></g><g transform="translate(29.482 15.201)" opacity="0.7"><path d="M516.547,278.6a.344.344,0,0,0,.208-.124c6.78-8.422,16.851-11.618,16.952-11.648a.357.357,0,0,0,.236-.446.348.348,0,0,0-.446-.236c-.1.033-10.376,3.287-17.3,11.883a.355.355,0,0,0,.347.572Z" transform="translate(-516.12 -266.129)" fill="#9797ef"/></g><g transform="translate(1.849 38.174)" opacity="0.7"><path d="M518.282,297.322a.357.357,0,0,0,.122-.649,141.093,141.093,0,0,0-24.281-11.835.357.357,0,1,0-.245.67,140.469,140.469,0,0,1,24.144,11.765A.353.353,0,0,0,518.282,297.322Z" transform="translate(-493.643 -284.816)" fill="#9797ef"/></g><g transform="translate(26.589 28.482)" opacity="0.7"><path d="M514.194,294.1a.345.345,0,0,0,.149-.066c14.094-10.943,31.824-16.342,32-16.395a.356.356,0,0,0,.24-.444.341.341,0,0,0-.444-.24c-.18.054-18.036,5.493-32.233,16.514a.356.356,0,0,0,.288.631Z" transform="translate(-513.767 -276.933)" fill="#9797ef"/></g><g transform="translate(25.114 69.969)" opacity="0.7"><path d="M512.993,325.836a.358.358,0,0,0,.165-.081c9.438-8.239,27.589-14.319,27.771-14.38a.356.356,0,1,0-.224-.676c-.183.061-18.469,6.185-28.015,14.52a.356.356,0,0,0,.3.617Z" transform="translate(-512.568 -310.679)" fill="#9797ef"/></g><g transform="translate(0 70.694)" opacity="0.7"><path d="M517.886,330.883a.339.339,0,0,0,.143-.064.353.353,0,0,0,.074-.5c-9.01-12.135-25.307-18.961-25.47-19.027a.357.357,0,1,0-.273.659c.162.066,16.281,6.819,25.172,18.791A.354.354,0,0,0,517.886,330.883Z" transform="translate(-492.139 -311.269)" fill="#9797ef"/></g></g></g><path d="M522.609,330.318s-.639-25.72,19.621-28.088,12.95,26.889,4.263,36.468c0,0,11.259-13.248,18.757-4.3S551.7,353.6,551.7,353.6s16.846-5.709,21.51-1.842c6.019,4.991-5.393,12.253-5.393,12.253s18.221-7.262,14.4,5.665l-86.631-.242Z" transform="translate(-290.434 -59.638)" fill="#8888e9"/><g transform="translate(255.788 151.751)"><path d="M633.948,295.314c.386-.159.042-.617-.327-.653a2.356,2.356,0,0,0-.3.011c.671-.146,1.216-.273,1.344-.326.366-.152.086-.586-.258-.661.267-.068.467-.122.551-.155.472-.186.119-.644-.321-.659a6,6,0,0,0-.707.08,3.789,3.789,0,0,0,.37-.1c.386-.16.149-.589-.219-.626a5.543,5.543,0,0,0-.815.089c-.418.057-.881.069-1.3.133-.38.059-2.231.123-2.659-.682-.656-1.234,1.867-1.054,2.117-2.126.078-.337-1.784-.14-2.792.124a11.529,11.529,0,0,0-2.076.664,14.654,14.654,0,0,1-1.681.872,8.985,8.985,0,0,1-1.438-.064l-.345,3.4a11.115,11.115,0,0,1,2.605.365,7.969,7.969,0,0,0,4.115,1.133,15.321,15.321,0,0,0,2.8-.387S633.821,295.367,633.948,295.314Z" transform="translate(-516.977 -214.288)" fill="#ffe1bd"/><g transform="translate(61.518 148.988)"><path d="M588.74,353.677a38.475,38.475,0,0,0,3.012,3.778c.945.875,4.005-1.847,3.9-2.659s-3.959-5.293-3.959-5.293" transform="translate(-586.373 -349.503)" fill="#ed9c80"/><path d="M597.657,354.011c.915.98,2.475,2.962,2.475,2.962l-2.561,3.285-.846-.24a6.957,6.957,0,0,1-1.041,2.514,15.318,15.318,0,0,1-2.767,2.651c-2.775,1.88-5.258,2.459-5.661,2.134-1.688-1.358,1.974-3.891,2.637-4.508a5.841,5.841,0,0,0,1.636-5.747c-.328-1.006-.638-1.049-.122-1.285a1.353,1.353,0,0,1,1.068-.042,2.391,2.391,0,0,0,2.714-.7,2.838,2.838,0,0,0,.642-1.65A1.72,1.72,0,0,1,597.657,354.011Z" transform="translate(-586.815 -348.626)" fill="#3a3a3a"/></g><g transform="translate(0 155.503)"><path d="M547.083,355.167a38.347,38.347,0,0,0-1.008,4.726c-.076,1.286,3.968,1.924,4.529,1.326s1.58-6.417,1.58-6.417" transform="translate(-534.642 -354.802)" fill="#ed9c80"/><path d="M553.659,361.762c-.178,1.328-.719,3.791-.719,3.791l-4.163.106-.352-.806a6.986,6.986,0,0,1-2.605.792,15.384,15.384,0,0,1-3.8-.457c-3.214-.952-5.236-2.5-5.241-3.022-.021-2.166,4.259-.943,5.157-.822a5.839,5.839,0,0,0,5.481-2.383c.569-.891.406-1.158.916-.909a1.347,1.347,0,0,1,.709.8,2.39,2.39,0,0,0,2.261,1.656,2.842,2.842,0,0,0,1.682-.551A1.72,1.72,0,0,1,553.659,361.762Z" transform="translate(-536.775 -354.077)" fill="#3a3a3a"/></g><path d="M565.6,295.469s-11.743,29.918-13.192,36.352-6.956,38.827-6.956,38.827,5.152,1.462,7.046.811c1.3-5.327,14.583-46.432,23.255-57.476S565.6,295.469,565.6,295.469Z" transform="translate(-534.784 -212.909)" fill="#3d38a0"/><path d="M568.616,311.335a45.655,45.655,0,0,0,6.29,29.286,235.762,235.762,0,0,0,18.135,25.811s3.866-1.893,5.312-3.967c-2.726-3.729-14.932-24.851-14.927-33.1s3.179-27.833,3.179-27.833l-13.587-3.244Z" transform="translate(-529.555 -212.263)" fill="#3d38a0"/><path d="M637.156,306.558s-15.478.733-23.42-1.485-21.545-11.932-21.545-11.932l-16.027-12.268c-4.109-5.144-9.308-19.711-10.128-22.354-.814-2.659-3.74-20.8-3.74-20.8l3.4-.332s3.943,12.854,5.956,20.12c1.9,6.808,12.339,16.116,14.871,18.448l-.006.016c.184.148.321.277.42.353,1.581,1.339.318,3.925.318,3.925l2.725,1.024s2.937-1.51,4.777.118a6.668,6.668,0,0,1,.6.611c2.51,2.716,8.628,12.4,21.062,17.337,9.049,2.209,19.025,3.848,21.46,3.88C637.359,305.574,637.156,306.558,637.156,306.558Z" transform="translate(-530.921 -226.231)" fill="#ed9c80"/><path d="M591.047,275.092c-.508.9-3.779,3.116-6.653,1.977-5.6-2.56-2.408-7.685-2.187-8.008.184.148.321.277.42.353,1.581,1.339,2.743-1.887,2.743-1.887l5.654,3.12s-2.416,2.207-.575,3.834A6.668,6.668,0,0,1,591.047,275.092Z" transform="translate(-526.608 -219.319)" fill="#ed9c80"/><path d="M596.523,294.377s-5,11.566-6.952,19.446c-13.934,3.367-23.052-3.092-27.212-7.21a21,21,0,0,1-2.621-3s3.766-6.8,6-11.862c2.255-5.068,5.672-11.656,8.158-16.127.133-.713-2.148-4.2-4.448-9.186,3.142-1.276,8.155-6.371,8.155-6.371l9.507,10.708s-2.878,4.707.822,7.2c3.694,2.513,6.119.316,8.018-1.173,1.5,2.054,9.454,9.191,14.312,12.54L604,299.832S598.49,296.672,596.523,294.377Z" transform="translate(-531.508 -221.03)" fill="#7762ef"/><g transform="translate(56.686 29.367)"><path d="M588.489,255.729a2.443,2.443,0,0,0-2.77,3.093,1.343,1.343,0,0,0-1.755.724,3.409,3.409,0,0,0-.075,2.1A3.131,3.131,0,0,0,585,263.76a2.35,2.35,0,0,0,1.71.258,2.927,2.927,0,0,0,1.167-.475,4.75,4.75,0,0,0,.975-1.056l3.044-4.05a1.219,1.219,0,0,0,.35-.934" transform="translate(-582.683 -251.399)" fill="#2c1e56"/><path d="M596.262,271.6a24.46,24.46,0,0,1-2.564,2.218,3.773,3.773,0,0,1-4.283.446,24.722,24.722,0,0,1-5.031-3.04c-1.647-1.431-1.875-2.754-.988-4.738.55-1.228,1.081-2.465,1.655-3.683a61.38,61.38,0,0,1,4.123-7.509c.364-.556.793-1.372,1.591-1.031a44.31,44.31,0,0,1,7.193,3.893,9.281,9.281,0,0,1,3.881,4.156c.671,1.823.263,3.844-.151,5.741-.066.3-.208.677-.52.695" transform="translate(-582.884 -251.745)" fill="#ed9c80"/><path d="M595.287,267.995c.477-.467,1.358.027,1.488.682a2.836,2.836,0,0,1-.547,1.881,4.432,4.432,0,0,1-1.951,1.577c-.744.365-1.51.363-1.71-.441a2.169,2.169,0,0,0,.307,2.84,1.962,1.962,0,0,0,2.353-.107c2.385,3.082,6.176-.789,7.771-2.914a10.876,10.876,0,0,0,1.974-6.248,4.492,4.492,0,0,0-1.183-3.1,4.262,4.262,0,0,0-.24-3.882,10.947,10.947,0,0,0-2.347-2.935c-.6-.573-2.8-1.248-3.6-.762-.842-1.582-2.47-1.587-3.592-2.119s-2.891-.3-3.041.938a2.967,2.967,0,0,0-4.815,1.175,3.225,3.225,0,0,0,3.44,3.8,3.72,3.72,0,0,0,1.822,3.489,7.23,7.23,0,0,0,4,.927,2.917,2.917,0,0,0-1.461,2.072c-.124.906-.187,1.6.993,2.036,0,0-1.114,1.571-.649,1.649S595.287,267.995,595.287,267.995Z" transform="translate(-582.155 -252.2)" fill="#2c1e56"/></g><path d="M560.666,229.82c.1-.4.6-.129.693.231a2.577,2.577,0,0,1,.032.3c.049-.685.1-1.243.132-1.376.1-.385.568-.168.692.161.028-.274.054-.481.075-.567.117-.494.621-.209.7.224a6.063,6.063,0,0,1,.021.711,3.433,3.433,0,0,1,.05-.38c.1-.406.563-.231.65.128a5.331,5.331,0,0,1,.027.819c0,.422.058.883.053,1.307,0,.385.194,2.225,1.052,2.535,1.314.476.778-2,1.806-2.4.322-.124.391,1.746.272,2.782a11.586,11.586,0,0,1-.364,2.149,14.6,14.6,0,0,0-.625,1.786,8.945,8.945,0,0,0,.267,1.415l-3.313.824a11.171,11.171,0,0,0-.73-2.528,7.96,7.96,0,0,1-1.705-3.913,15.353,15.353,0,0,1-.012-2.823S560.631,229.953,560.666,229.82Z" transform="translate(-531.361 -228.313)" fill="#ed9c80"/><path d="M589.082,307.686c-13.934,3.367-23.052-3.092-27.212-7.21,14.525,11.11,24.173,6.039,25.7,5.712.429-3.413,7.1-19.366,7.1-19.366a9.817,9.817,0,0,0,1.362,1.419S591.032,299.806,589.082,307.686Z" transform="translate(-531.019 -214.893)" fill="#5f52dd"/></g><g transform="translate(338.351 187.999)"><path d="M677.08,393.016c.009,1.212-16.359,2.306-36.559,2.445s-36.579-.731-36.588-1.942,16.359-2.308,36.557-2.445S677.071,391.805,677.08,393.016Z" transform="translate(-603.933 -227.23)" fill="#b0affd" opacity="0.4" style="mix-blend-mode:multiply;isolation:isolate"/><g transform="translate(1.68)"><path d="M622.09,381.261a31.063,31.063,0,0,0,.229,6.077c.615,1.787.358,2.38.358,2.38l-7.064.461s2.853-1.981,1.548-9.14S622.09,381.261,622.09,381.261Z" transform="translate(-602.935 -230.246)" fill="#ed9c80"/><path d="M624.3,386.028a11.029,11.029,0,0,1-5.986,1.189,28.751,28.751,0,0,1-8.8,4.068c-3.143.89-2.176,3.44,3.244,2.247a68.839,68.839,0,0,1,10.514-1.583c1.234-.063,3.206-.2,3.158-1.06S625.245,385.6,624.3,386.028Z" transform="translate(-604.744 -228.391)" fill="#2c1e56"/><g transform="translate(46.121 144.507)"><path d="M651.19,376.665a31.04,31.04,0,0,0,2.81,5.395c1.322,1.352,1.342,2,1.342,2l-6.185,3.442s1.73-3.012-2.518-8.923S651.19,376.665,651.19,376.665Z" transform="translate(-642.204 -375.342)" fill="#ed9c80"/><path d="M655,381.168a11.03,11.03,0,0,1-4.9,3.639,28.729,28.729,0,0,1-6.213,7.448c-2.458,2.15-.492,4.041,3.895.641a69.184,69.184,0,0,1,8.822-5.935c1.089-.585,2.813-1.55,2.4-2.31S655.669,380.372,655,381.168Z" transform="translate(-642.815 -374.033)" fill="#2c1e56"/></g><path d="M612.055,269.907s2.039-3.672,2.989-5.194,5.086,2.226,5.086,2.226a2.554,2.554,0,0,1-1.62,2.706c-2,1.072-3.214,1.045-3.629,2.407s-2.862-.521-2.862-.521Z" transform="translate(-603.759 -256.295)" fill="#ed9c80"/><path d="M636.5,270.7s-1.869-4.008-2.749-5.57-5.179,2-5.179,2a2.553,2.553,0,0,0,1.5,2.776c1.955,1.161,3.164,1.188,3.518,2.566s2.882-.392,2.882-.392Z" transform="translate(-599.973 -256.207)" fill="#ed9c80"/><g transform="translate(10.104)"><g transform="translate(2.142 6.313)"><path d="M638.258,264.71l-.061,2.773c-.022.961-5.173,1.626-11.507,1.485s-11.449-1.035-11.428-2l.063-2.773Z" transform="translate(-615.261 -262.642)" fill="#fd9f00"/><g transform="translate(0 1.555)"><g clip-path="url(#a)"><g transform="translate(0.197 -1.146)"><rect width="6.36" height="0.543" transform="translate(21.889 6.847) rotate(-88.716)" fill="#e38601"/><rect width="6.36" height="0.543" transform="translate(20.481 6.815) rotate(-88.716)" fill="#e38601"/><rect width="6.36" height="0.543" transform="translate(18.875 6.78) rotate(-88.716)" fill="#e38601"/><rect width="6.36" height="0.543" transform="translate(16.87 6.735) rotate(-88.729)" fill="#e38601"/><rect width="6.36" height="0.543" transform="translate(14.665 6.686) rotate(-88.716)" fill="#e38601"/><rect width="6.36" height="0.543" transform="translate(12.261 6.632) rotate(-88.716)" fill="#e38601"/><rect width="6.36" height="0.543" transform="translate(0 6.358) rotate(-88.72)" fill="#e38601"/><rect width="6.36" height="0.543" transform="translate(1.408 6.389) rotate(-88.716)" fill="#e38601"/><rect width="6.36" height="0.543" transform="translate(3.015 6.425) rotate(-88.716)" fill="#e38601"/><rect width="6.36" height="0.543" transform="translate(5.02 6.47) rotate(-88.716)" fill="#e38601"/><rect width="6.36" height="0.543" transform="translate(7.224 6.519) rotate(-88.716)" fill="#e38601"/><rect width="6.36" height="0.543" transform="translate(9.628 6.573) rotate(-88.729)" fill="#e38601"/></g></g></g><path d="M615.313,264.435c-.022.961,5.095,1.856,11.428,2s11.485-.524,11.506-1.485-5.095-1.855-11.428-2S615.334,263.474,615.313,264.435Z" transform="translate(-615.249 -262.932)" fill="#fac61b"/><path d="M617.229,264.167c-.011.446,4.063.9,9.1,1.012s9.124-.159,9.134-.6-4.063-.9-9.1-1.012S617.239,263.72,617.229,264.167Z" transform="translate(-614.81 -262.794)" fill="#fd9f00"/><path d="M635.062,264.8a66.783,66.783,0,0,0-17.446-.39c-.253-.08-.39-.162-.387-.243.01-.446,4.1-.717,9.133-.6s9.108.565,9.1,1.012C635.458,264.656,635.319,264.731,635.062,264.8Z" transform="translate(-614.81 -262.794)" fill="#e38601"/></g><g transform="translate(0 3.109)"><path d="M636.515,262.1l-.061,2.773c-.022.961-5.173,1.626-11.506,1.484s-11.451-1.035-11.428-2l.061-2.773Z" transform="translate(-613.519 -260.036)" fill="#fd9f00"/><g transform="translate(0 1.556)"><g clip-path="url(#b)"><g transform="translate(0.196 -1.146)"><rect width="6.36" height="0.543" transform="translate(21.889 6.847) rotate(-88.716)" fill="#e38601"/><rect width="6.36" height="0.543" transform="translate(20.482 6.816) rotate(-88.729)" fill="#e38601"/><rect width="6.36" height="0.543" transform="translate(18.875 6.78) rotate(-88.729)" fill="#e38601"/><rect width="6.36" height="0.543" transform="matrix(0.022, -1, 1, 0.022, 16.869, 6.735)" fill="#e38601"/><rect width="6.36" height="0.543" transform="translate(14.666 6.686) rotate(-88.729)" fill="#e38601"/><rect width="6.36" height="0.543" transform="matrix(0.022, -1, 1, 0.022, 12.262, 6.632)" fill="#e38601"/><rect width="6.36" height="0.543" transform="translate(0 6.358) rotate(-88.719)" fill="#e38601"/><rect width="6.36" height="0.543" transform="translate(1.407 6.389) rotate(-88.716)" fill="#e38601"/><rect width="6.36" height="0.543" transform="translate(3.015 6.425) rotate(-88.729)" fill="#e38601"/><rect width="6.36" height="0.543" transform="translate(5.02 6.47) rotate(-88.716)" fill="#e38601"/><rect width="6.36" height="0.543" transform="translate(7.224 6.519) rotate(-88.716)" fill="#e38601"/><rect width="6.36" height="0.543" transform="translate(9.628 6.573) rotate(-88.716)" fill="#e38601"/></g></g></g><path d="M613.57,261.831c-.021.961,5.1,1.855,11.428,2s11.485-.523,11.506-1.484-5.095-1.856-11.428-2S613.592,260.869,613.57,261.831Z" transform="translate(-613.507 -260.327)" fill="#fac61b"/><path d="M615.486,261.56c-.01.448,4.063.9,9.1,1.012s9.124-.157,9.134-.6-4.063-.9-9.1-1.012S615.5,261.115,615.486,261.56Z" transform="translate(-613.068 -260.188)" fill="#fd9f00"/><path d="M633.319,262.195a66.643,66.643,0,0,0-17.446-.39c-.253-.08-.39-.162-.387-.245.01-.445,4.1-.717,9.134-.6s9.107.565,9.1,1.012C633.716,262.05,633.576,262.126,633.319,262.195Z" transform="translate(-613.068 -260.188)" fill="#e38601"/></g><g transform="translate(2.057)"><path d="M638.188,259.574l-.061,2.775c-.022.961-5.173,1.625-11.506,1.484s-11.45-1.035-11.428-2l.061-2.773Z" transform="translate(-615.192 -257.507)" fill="#fd9f00"/><g transform="translate(0 1.556)"><g clip-path="url(#c)"><g transform="translate(0.196 -1.147)"><rect width="6.36" height="0.543" transform="translate(21.889 6.847) rotate(-88.716)" fill="#e38601"/><rect width="6.36" height="0.543" transform="matrix(0.022, -1, 1, 0.022, 20.481, 6.815)" fill="#e38601"/><rect width="6.36" height="0.543" transform="translate(18.875 6.78) rotate(-88.716)" fill="#e38601"/><rect width="6.36" height="0.543" transform="translate(16.87 6.735) rotate(-88.729)" fill="#e38601"/><rect width="6.36" height="0.543" transform="translate(14.665 6.686) rotate(-88.716)" fill="#e38601"/><rect width="6.36" height="0.543" transform="translate(12.261 6.632) rotate(-88.716)" fill="#e38601"/><rect width="6.36" height="0.543" transform="translate(0 6.358) rotate(-88.72)" fill="#e38601"/><rect width="6.36" height="0.543" transform="translate(1.407 6.389) rotate(-88.716)" fill="#e38601"/><rect width="6.36" height="0.543" transform="translate(3.014 6.425) rotate(-88.716)" fill="#e38601"/><rect width="6.36" height="0.543" transform="translate(5.02 6.47) rotate(-88.729)" fill="#e38601"/><rect width="6.36" height="0.543" transform="translate(7.224 6.519) rotate(-88.716)" fill="#e38601"/><rect width="6.36" height="0.543" transform="translate(9.628 6.573) rotate(-88.716)" fill="#e38601"/></g></g></g><path d="M615.243,259.3c-.021.961,5.1,1.855,11.428,2s11.485-.524,11.506-1.485-5.095-1.855-11.428-2S615.264,258.339,615.243,259.3Z" transform="translate(-615.18 -257.798)" fill="#fac61b"/><path d="M617.159,259.031c-.01.446,4.063.9,9.1,1.012s9.124-.157,9.134-.6-4.063-.9-9.1-1.012S617.169,258.585,617.159,259.031Z" transform="translate(-614.741 -257.659)" fill="#fd9f00"/><path d="M634.992,259.666a66.641,66.641,0,0,0-17.446-.39c-.253-.08-.39-.162-.387-.245.01-.446,4.1-.717,9.134-.6s9.107.565,9.1,1.012C635.389,259.521,635.249,259.6,634.992,259.666Z" transform="translate(-614.741 -257.659)" fill="#e38601"/></g></g><path d="M616.215,268s1.344-.325,1.61-.9.617-1.49,1.249-1.37c.821.159.114,2.04-.273,2.507" transform="translate(-602.796 -255.98)" fill="#ed9c80"/><path d="M631.49,268.357s-1.328-.386-1.567-.975-.551-1.516-1.188-1.422c-.827.12-.055,2.257.311,2.741" transform="translate(-600.009 -255.927)" fill="#ed9c80"/><path d="M623.725,334.829s6.2,22.479,9.926,28.453,20.105,31.931,20.105,31.931,2.946-1.622,4.624-2.435c-8.173-20.944-10.571-26.843-15.67-34.979-2.985-11.848-1.055-27.8-8.445-37.967-2.251-3.1-12.487,2.767-12.487,2.767Z" transform="translate(-601.52 -243.776)" fill="#3d38a0"/><path d="M615.07,321.659s-.912,32.172-.915,38.266,3.064,38.779,3.064,38.779,2.214,1.045,5.872-.9c.127-7.513,1.421-18.653.345-36.268,3.913-16.749,6.283-33.25,6.283-33.25l-.369-8.742Z" transform="translate(-603.269 -243.635)" fill="#3d38a0"/><path d="M619.018,285.052s-3.511,3.077-2.135,9.708c.465,1.94-2.139,4.827-3.9,6.31a6.537,6.537,0,0,0-1.6,7.864c1.66,3,2.062,3.216,1.285,6.143s-.81,9.02,7.443,7.783,8.169-21.449,8.169-21.449l-1.1-8.781Z" transform="translate(-604.069 -251.546)" fill="#2c1e56"/><path d="M629.87,296.974s-.348.2-.939.462c0,.3.015.585.009.856.027,1.71,0,2.815,0,2.815a3.966,3.966,0,0,1-4.888,1.693,1.516,1.516,0,0,1-.3-.183,1.437,1.437,0,0,1-.545-1.4,11.185,11.185,0,0,0,.155-2.385,7.942,7.942,0,0,1-3.415-.578c-4.373-1.835-1.877-13.757-1.877-13.757s7.449-3.169,9.779-.1S629.87,296.974,629.87,296.974Z" transform="translate(-602.534 -252.002)" fill="#ed9c80"/><path d="M621.469,285.221a3.868,3.868,0,0,0,1.665,3.522c1.945,1.292,5.186,1.829,5.367,3.634a3.43,3.43,0,0,1-.752,2.128,12.529,12.529,0,0,0,2.175-.326c.09-.143.851-4.308.851-4.308s-4.52-4.34-5.067-4.556A29.286,29.286,0,0,0,621.469,285.221Z" transform="translate(-601.594 -251.515)" fill="#d8836c"/><path d="M627.7,298.337a3.966,3.966,0,0,1-4.888,1.693l-.037-.028c2.66.747,2.6-2.553,2.191-3.185s-1.719-.856-1.719-.856a23.941,23.941,0,0,0,2.639-.443,10.3,10.3,0,0,1,2.149-.381A14.232,14.232,0,0,1,627.7,298.337Z" transform="translate(-601.292 -249.233)" fill="#d8836c"/><path d="M625.026,279.911a8.055,8.055,0,0,0-5.334,3.595c-.574,1.033,2.824,1.951,2.862,3.464.073,2.938,3.423,4.106,6.061,5.187.7.285,1.622,1.547.017,3.091,0,0-2.343,2.165-2.062,4.835.236,2.237,4.382,1.858,4.382,1.858s-5.894,17.792-5.155,20.3c.393,1.331,11.851,8.268,19.723,1.688a7.866,7.866,0,0,0,.9-10.975c-2.088-2.424-2.079-4.079-1.909-4.69,2.121-7.631-1.759-12.859-6.119-14.98a5.346,5.346,0,0,1-3.091-4.507c-.109-2.087-.66-4.649-2.462-6.336A8.912,8.912,0,0,0,625.026,279.911Z" transform="translate(-602.014 -252.755)" fill="#2c1e56"/><path d="M616.009,281.65a3.2,3.2,0,0,0,.18,5.141c1.786,1.2,4.694,1.91,9.07-.311,5.22-2.649,3.613-6.769.138-6.452C618.791,282.276,618,280.052,616.009,281.65Z" transform="translate(-603.121 -252.702)" fill="#2c1e56"/><path d="M625.924,304.625s.189,2.111,3.072,1.641a2.911,2.911,0,0,0,2.056-2.224,6.956,6.956,0,0,0,6.457-3.22c1.856-2.583,4.6-7.039,5.894-9.378a4.224,4.224,0,0,0,.395-3.129c-1.286-4.92-6.084-17.08-6.084-17.08l4.756-1.721s4.845,11.993,7.306,18.087a7.417,7.417,0,0,1-.241,6.108c-2.594,5.172-7.586,14-9.925,18.549-.741,2.723,3.093,22,3.093,22s-10.5,6.468-25.63,1.713c-.022-5.789.652-16.413.5-22.382-.155-6.116-3.333-5.532-11.479-22.3a7.975,7.975,0,0,1-.617-5.146c.829-3.881,3.578-10.4,8.119-17.274a16.662,16.662,0,0,1,3.736,1.962s-4.266,10.675-5.747,15.1a3.479,3.479,0,0,0,.23,2.761C614.242,293.215,621.656,304.586,625.924,304.625Z" transform="translate(-605.3 -255.258)" fill="#ffc064"/></g></g><path d="M573.116,308.9s-.3,3.27-.366,5.386c-.766,1.322-1.319,2.328-1.319,2.328A35.366,35.366,0,0,1,573.116,308.9Z" transform="translate(-273.038 -58.077)" fill="#2c1e56"/><path d="M623.643,332.193l1.724,6.607-.747,3.8Z" transform="translate(-261.061 -52.734)" fill="#2c1e56"/><g transform="translate(32.659)"><g transform="translate(108.419)"><path d="M444.845,104.876a7.555,7.555,0,0,0,4.31,3.184c-1.453,1.109-1.433,1.845-1.518,3.477a8.807,8.807,0,0,1-3.967-3.2A2.823,2.823,0,0,1,444.845,104.876Z" transform="translate(-443.467 -104.876)" fill="#f9d04e"/></g><g transform="translate(215.865 1.956)"><path d="M532.244,106.467a7.549,7.549,0,0,0,4.31,3.183c-1.453,1.109-1.433,1.845-1.517,3.478a8.819,8.819,0,0,1-3.968-3.2A2.823,2.823,0,0,1,532.244,106.467Z" transform="translate(-530.866 -106.467)" fill="#f9d04e"/></g><g transform="translate(38.463 29.951)"><path d="M387.129,129.239a7.556,7.556,0,0,0,5.19,1.333c-.929,1.572-.636,2.249-.1,3.793a8.82,8.82,0,0,1-4.879-1.478A2.823,2.823,0,0,1,387.129,129.239Z" transform="translate(-386.564 -129.239)" fill="#b0affd"/></g><g transform="translate(71.453 54.118)"><path d="M413.4,152.843a7.548,7.548,0,0,0,3.625-3.946c.947,1.563,1.682,1.623,3.295,1.88a8.817,8.817,0,0,1-3.606,3.6A2.823,2.823,0,0,1,413.4,152.843Z" transform="translate(-413.399 -148.897)" fill="#f9d04e"/></g><g transform="translate(124.779 36.683)"><path d="M456.84,135.379a7.549,7.549,0,0,0,5.317-.664c-.288,1.8.234,2.326,1.3,3.566a8.818,8.818,0,0,1-5.081.414A2.825,2.825,0,0,1,456.84,135.379Z" transform="translate(-456.775 -134.715)" fill="#b0affd"/></g><g transform="translate(212.458 37.833)"><path d="M529.6,135.65a7.552,7.552,0,0,0,4.134,3.408c-1.508,1.03-1.529,1.767-1.7,3.392a8.812,8.812,0,0,1-3.793-3.408A2.822,2.822,0,0,1,529.6,135.65Z" transform="translate(-528.095 -135.65)" fill="#b0affd"/></g><g transform="translate(316.712 101.43)"><path d="M614.4,187.381a7.553,7.553,0,0,0,4.136,3.408c-1.51,1.03-1.529,1.767-1.7,3.392a8.825,8.825,0,0,1-3.793-3.408A2.823,2.823,0,0,1,614.4,187.381Z" transform="translate(-612.897 -187.381)" fill="#b0affd"/></g><g transform="translate(300.861 64.555)"><path d="M601.51,157.386a7.548,7.548,0,0,0,4.134,3.408c-1.51,1.03-1.529,1.767-1.7,3.392a8.813,8.813,0,0,1-3.791-3.407A2.824,2.824,0,0,1,601.51,157.386Z" transform="translate(-600.004 -157.386)" fill="#f9d04e"/></g><g transform="translate(263.102 65.762)"><path d="M569.3,159.547a7.55,7.55,0,0,0,5.227-1.179c-.111,1.823.458,2.29,1.639,3.421a8.817,8.817,0,0,1-5.017.91A2.825,2.825,0,0,1,569.3,159.547Z" transform="translate(-569.29 -158.368)" fill="#f9d04e"/></g><g transform="translate(239.908 139.105)"><path d="M550.423,221.259a7.547,7.547,0,0,0,4.273-3.232c.653,1.706,1.365,1.9,2.906,2.439a8.817,8.817,0,0,1-4.193,2.9A2.825,2.825,0,0,1,550.423,221.259Z" transform="translate(-550.423 -218.027)" fill="#f9d04e"/></g><g transform="translate(270.181 15.752)"><path d="M575.287,117.689a7.552,7.552,0,0,0,5.353.226c-.583,1.732-.155,2.332.688,3.731a8.808,8.808,0,0,1-5.079-.433A2.822,2.822,0,0,1,575.287,117.689Z" transform="translate(-575.048 -117.689)" fill="#b0affd"/></g><g transform="translate(166.048 15.743)"><path d="M490.587,117.682a7.55,7.55,0,0,0,5.353.247c-.59,1.73-.164,2.331.675,3.734a8.824,8.824,0,0,1-5.079-.451A2.825,2.825,0,0,1,490.587,117.682Z" transform="translate(-490.344 -117.682)" fill="#f9d04e"/></g><g transform="translate(0 111.301)"><path d="M355.522,195.41a7.546,7.546,0,0,0,5.351.247c-.589,1.73-.163,2.331.675,3.734a8.825,8.825,0,0,1-5.079-.451A2.825,2.825,0,0,1,355.522,195.41Z" transform="translate(-355.278 -195.41)" fill="#f9d04e"/></g><g transform="translate(35.457 160.208)"><path d="M386.867,235.192a7.547,7.547,0,0,0,2.14,4.913c-1.813.234-2.165.881-3.054,2.252a8.807,8.807,0,0,1-1.834-4.756A2.823,2.823,0,0,1,386.867,235.192Z" transform="translate(-384.119 -235.192)" fill="#f9d04e"/></g><g transform="translate(28.212 81.928)"><path d="M378.226,175.162a7.547,7.547,0,0,0,3.928-3.644c.82,1.633,1.548,1.751,3.136,2.137a8.819,8.819,0,0,1-3.882,3.3A2.824,2.824,0,0,1,378.226,175.162Z" transform="translate(-378.226 -171.518)" fill="#b0affd"/></g><g transform="translate(289.557 150.646)"><path d="M590.809,230a7.554,7.554,0,0,0,4.694-2.585c.4,1.783,1.077,2.073,2.525,2.831a8.817,8.817,0,0,1-4.566,2.267A2.822,2.822,0,0,1,590.809,230Z" transform="translate(-590.809 -227.414)" fill="#b0affd"/></g></g><g transform="translate(0 179.813)"><path d="M401.859,397.638c.009,1.212-16.359,2.306-36.559,2.445s-36.579-.731-36.588-1.942,16.359-2.306,36.557-2.445S401.85,396.427,401.859,397.638Z" transform="translate(-328.712 -217.985)" fill="#b0affd" opacity="0.4" style="mix-blend-mode:multiply;isolation:isolate"/><g transform="translate(7.306)"><path d="M393.431,253.006c-.05-.443-.621-.224-.766.144a2.6,2.6,0,0,0-.079.317c.047-.731.076-1.329.059-1.474-.048-.42-.575-.261-.754.071.009-.294.011-.516,0-.611-.053-.54-.627-.311-.771.136a6.381,6.381,0,0,0-.124.747,3.9,3.9,0,0,0,0-.409c-.05-.443-.561-.326-.706.042a5.8,5.8,0,0,0-.148.862c-.064.446-.188.926-.245,1.374-.052.407-.527,2.325-1.479,2.529-1.458.312-.534-2.225-1.563-2.794-.322-.178-.665,1.789-.69,2.9a12.336,12.336,0,0,0,.074,2.326,15.479,15.479,0,0,1,.4,1.979,8.241,8.241,0,0,1-.829,1.952l3.684.838a14.923,14.923,0,0,1,1.317-2.5,8.411,8.411,0,0,0,2.23-3.946,16.228,16.228,0,0,0,.42-2.981S393.449,253.153,393.431,253.006Z" transform="translate(-322.919 -251.139)" fill="#feaf84"/><path d="M363.871,281.981s11.684-.1,18.028-7.213c5.061-7.091,9.951-14.937,10.316-15.665,1,.381,3.136,1.36,3.136,1.36s-6.685,14.96-9.29,18.377-7.728,9.014-18.556,11.791C362.317,284.675,363.871,281.981,363.871,281.981Z" transform="translate(-328.004 -249.313)" fill="#feaf84"/><g transform="translate(0 74.773)"><g transform="translate(39.59 95.448)"><path d="M370.742,391.536a7.649,7.649,0,0,1,.638,2.563c-.033,1.029-3.3,1.239-3.7.723s-.786-5.222-.786-5.222" transform="translate(-366.85 -389.6)" fill="#ffe1bd"/><path d="M366.86,395.1a21.922,21.922,0,0,0,.413,2.8l3.768-.155.159-.637a5.929,5.929,0,0,0,2.208.54l3.179-.132c2.328-.1,3.638-.446,3.68-.858.176-1.722-2.6-1.531-3.327-1.5-2.079.085-4.37-.8-4.9-1.831-.387-.751-.238-.952-.663-.79a1.078,1.078,0,0,0-.622.584,1.91,1.91,0,0,1-1.92,1.152,2.28,2.28,0,0,1-1.3-.561A1.374,1.374,0,0,0,366.86,395.1Z" transform="translate(-366.858 -388.938)" fill="#3a3a3a"/></g><g transform="translate(0 93.23)"><path d="M340.972,389.906a30.785,30.785,0,0,1-1,3.731c-.412.944-3.525-.07-3.707-.7s1.2-5.141,1.2-5.141" transform="translate(-334.289 -387.796)" fill="#ffe1bd"/><path d="M335.518,392.634c-.355,1.011-.863,2.962-.863,2.962l2.926,1.585.542-.446a5.574,5.574,0,0,0,1.567,1.508,12.227,12.227,0,0,0,2.876,1.055c2.633.489,4.636.118,4.828-.25.8-1.534-2.69-2.217-3.375-2.456a4.666,4.666,0,0,1-3.037-3.686c-.082-.841.132-.971-.323-.98a1.079,1.079,0,0,0-.794.312,1.909,1.909,0,0,1-2.21.359,2.273,2.273,0,0,1-1-1A1.374,1.374,0,0,0,335.518,392.634Z" transform="translate(-334.655 -386.925)" fill="#3a3a3a"/></g><g transform="translate(1.923)"><path d="M348.736,333.277s-5.624-12.048,2.938-21.316c0,0,7.76,3.1,13.878,3.258a30.168,30.168,0,0,0,7.236-.472,155.8,155.8,0,0,1,1.431,22.89Z" transform="translate(-333.764 -311.961)" fill="#3d38a0"/><path d="M367.542,401.741c.155,0,.309,0,.452-.007a25.858,25.858,0,0,0,4.973-.548l-.038-.915c-.755-14.026,0-37.033.033-44.295a8.049,8.049,0,0,0-.1-1.388c-.77-5.284-6.224-4.363-8.329.609a19.386,19.386,0,0,0-1.147,3.8,34.119,34.119,0,0,0-.632,5.331C362.181,376.489,366.231,392.733,367.542,401.741Z" transform="translate(-330.145 -303.001)" fill="#3d38a0"/><path d="M356.529,336.368c.028.141.068.3.107.449,1.477,6.337,6.126,23.441,8.232,28.968v.011a3.379,3.379,0,0,0,2.488,1.666c2.789.636,6.861-.559,6.988-6.079a13.3,13.3,0,0,0-.1-1.984c-.548-4.454-2.547-29.1-2.844-31.478s-.859-5.832-2.134-6.222C362.9,319.783,354.518,327.5,356.529,336.368Z" transform="translate(-331.63 -309.795)" fill="#3d38a0"/><path d="M362.089,354.053a30.86,30.86,0,0,1,.8,9.584c-.475,4.771,2.1-4.268,2.1-4.268l-1.7-3.153Z" transform="translate(-330.285 -302.306)" fill="#594a5f"/><path d="M369.4,408.374s-1.373-14.3-3.062-24.176a39.4,39.4,0,0,1,.94-16.89c.223-.783.381-1.21.381-1.21l-1.722-4.261c-1.952-5.556-2.537-18.682-2.537-18.682,3.811-9.418,3.917-21.081,3.917-21.081l-3.565.644-6.1,7.965-1.09,5.98c1.2,5.135,4.476,17.34,6.8,24.725h0a30.86,30.86,0,0,1,.8,9.584,4.873,4.873,0,0,0-.03,1.265c-.257,12,3.553,27.442,4.819,36.144C369.1,408.386,369.258,408.379,369.4,408.374Z" transform="translate(-331.553 -309.641)" fill="#272789"/><path d="M349.667,355.257c4.085-4.174,10.074-2.524,7.568,3.794-2.68,6.754-11.051,25.548-15.461,38.879l-.306.868a26.91,26.91,0,0,1-5.25-1.464c2-8.619,3.113-23.375,7.587-33.81A27.692,27.692,0,0,1,349.667,355.257Z" transform="translate(-336.219 -302.557)" fill="#3d38a0"/><g transform="translate(12.108 7.369)"><path d="M369.73,323.022c.419-9.9-11.613-2.842-17.377.659-2.427,1.474-3.223,4.256-3.45,6.853s-2.321,29.324-2.761,34.2c-.993,11,8.316,4.624,9.094,1.555C357.2,358.545,369.5,328.418,369.73,323.022Z" transform="translate(-346.068 -317.955)" fill="#3d38a0"/></g><path d="M347.392,350.465s-.175,5.251-4.305,11.886c0,0,7.058-3.618,7.387-4.121a27.075,27.075,0,0,0,1.216-6.157C351.528,351.541,347.392,350.465,347.392,350.465Z" transform="translate(-334.644 -303.129)" fill="#3d38a0"/></g></g><g transform="translate(16.158 8.065)"><path d="M367.31,273.9c.025.746.053,3.661-1.495,4.357s-2.542,1-2.5,1.243c.017.108.171.622.334,1.125a2.338,2.338,0,0,0,.9,1.405l.224,3.731-2.782,2.776-.91.9-1.366-1.25-4.453-4.056a4.544,4.544,0,0,0,.568-4.684c-.182-.342-2.21-2.589-3.83-4.852a12.157,12.157,0,0,1-1.956-3.6c-.58-2.592-1.07-5.32.418-6.946s11.673-8.317,13.714-.467a39.068,39.068,0,0,0,3.1,4.986,1.185,1.185,0,0,1-.109,2C366.494,270.957,367.285,273.157,367.31,273.9Z" transform="translate(-347.413 -257.208)" fill="#feaf84"/><path d="M364.336,283.465l-2.782,2.776-.847.409-1.429-.756-4.453-4.056a4.544,4.544,0,0,0,.568-4.684c-.182-.342-2.21-2.589-3.83-4.852l-.188-1.563s3.163-.872,3.293-.877a11.135,11.135,0,0,1,1.565,1.689c.017.1-.236,1.934-.236,1.934s.416,2.4.917,4.223a2.551,2.551,0,0,0,2.285,1.749,8.319,8.319,0,0,0,1.935-.055,3.645,3.645,0,0,0,2.08-1.074,2.338,2.338,0,0,0,.9,1.405Z" transform="translate(-346.978 -254.909)" fill="#f29d77"/><path d="M355.633,272.129s-.242,5.313,3.514,7.5,8.917-.236,9.557-.974,2.305-5.415-.514-6.967-5.511,1.12-5.511,1.12-1.566,1.764-2.2,1.776c-.616.014-2.394-1.575-2.644-4.9a.4.4,0,0,1,.307-.4c.717-.211,2.3-1.05,1.492-4.259a.478.478,0,0,1,.43-.573,35.748,35.748,0,0,1,3.666-.375,4.715,4.715,0,0,1,.7.058.368.368,0,0,1,.267.178c.166.3.545.975.637,1.136.119.208,1.008,1.715,1.008,1.715a1.074,1.074,0,0,0,.371-.976,15.7,15.7,0,0,1-.594-2.1c.061-.307.933-.668.939-1.357.013-1.56-.6-7.529-5.329-3.859a8.267,8.267,0,0,1-1.717,1.26c-.715.262-1.524-.245-3.083-.135-2.177.154-11.535,2.342-8.539,10.664s7.926,9.509,7.926,9.509S354.695,273.188,355.633,272.129Z" transform="translate(-347.798 -257.699)" fill="#2c1e56"/><path d="M354.664,269.641s-.463-1.43-1.66-1.018c-1.606.553-1.462,4.587,2.037,4.056A10.672,10.672,0,0,1,354.664,269.641Z" transform="translate(-346.83 -255.211)" fill="#f29d77"/></g><path d="M375.723,325.051a74.728,74.728,0,0,1-28.565.157,182.358,182.358,0,0,0,1.349-18.307l.022-.572c.127-3.579.192-6.133.272-6.239.16-.22-.407-11.64.531-16.115a3.108,3.108,0,0,1,.688-1.647,34.079,34.079,0,0,1,6.494-4.382s5.691,6.122,8.595-.653c3.2-.288,4.822.358,5.746,3.555C375.969,298.618,375.723,325.051,375.723,325.051Z" transform="translate(-331.787 -245.154)" fill="#7762ef"/><path d="M363.7,277.748a28.258,28.258,0,0,0,10.691-2.3c3.012,3.542,4.833,10,4.833,10s-7.283,4.63-12.606,5.075A74.546,74.546,0,0,0,363.7,277.748Z" transform="translate(-327.993 -245.564)" fill="#7762ef"/><path d="M364.532,278.224a25.6,25.6,0,0,1,4.359,11.208A32.435,32.435,0,0,0,379.03,284.8c-1.615.524-8.513,3.088-9.458.965A32.909,32.909,0,0,0,364.532,278.224Z" transform="translate(-327.802 -244.927)" fill="#5f52dd" opacity="0.5" style="mix-blend-mode:multiply;isolation:isolate"/><g transform="translate(33.608 37.262)"><path d="M363.754,281.459l23.239,2.414-4.24,9.352-20.078-9.315a.979.979,0,0,1-.578-1.342l.257-.481A1.408,1.408,0,0,1,363.754,281.459Z" transform="translate(-361.993 -281.449)" fill="#ffb127"/><path d="M363.754,281.459l23.239,2.414-4.24,9.352-20.078-9.315a.979.979,0,0,1-.578-1.342l.257-.481A1.408,1.408,0,0,1,363.754,281.459Z" transform="translate(-361.993 -281.449)" fill="#ffb127" opacity="0.5" style="mix-blend-mode:multiply;isolation:isolate"/><path d="M382.914,288.653c-1.238,2.557-3.049,4.379-4.045,4.068s-.8-2.636.441-5.194,3.049-4.38,4.045-4.069S384.153,286.094,382.914,288.653Z" transform="translate(-358.267 -280.997)" fill="#ffb127"/><path d="M382.914,288.653c-1.238,2.557-3.049,4.379-4.045,4.068s-.8-2.636.441-5.194,3.049-4.38,4.045-4.069S384.153,286.094,382.914,288.653Z" transform="translate(-358.267 -280.997)" fill="#ffb127" opacity="0.5" style="mix-blend-mode:multiply;isolation:isolate"/><path d="M382.914,288.653c-1.238,2.557-3.049,4.379-4.045,4.068s-.8-2.636.441-5.194,3.049-4.38,4.045-4.069S384.153,286.094,382.914,288.653Z" transform="translate(-358.267 -280.997)" fill="#ffb127" opacity="0.5" style="mix-blend-mode:multiply;isolation:isolate"/></g><g transform="translate(14.738 36.157)"><path d="M346.643,297.635s2.449,8.449,8.818,12.429a4.449,4.449,0,0,0,5.643-1.12c4.361-4.877,8.72-15.863,10.114-20.011-2.556-1.357-3.373-1.146-3.373-1.146s-6.184,8.586-9.732,14.331l-2.651-4.621" transform="translate(-346.643 -278.893)" fill="#feaf84"/><path d="M363.741,289.764a8.475,8.475,0,0,0,1.19-3.228c.054-1.393-.606-3.8.746-5.052a5.776,5.776,0,0,1,4.247-.851c2.949.488,3.75,1.357,3.591,1.981s-2.2.841-2.738,1.9-.236,1.722-.371,2.884c-.2,1.746-2.636,2.485-3.164,3.355C366.865,291.371,363.741,289.764,363.741,289.764Z" transform="translate(-342.721 -280.55)" fill="#feaf84"/></g><path d="M349.694,320.106c.735-2.544,1.088-11.491,1.165-13.712a11.719,11.719,0,0,0,8.082-5.267c-.831-1.426-2.9-6.363-6.746-10.558l-2.217-8.314s-.256.2-.648.569c-.938,4.475-.371,15.895-.531,16.115-.08.106-.145,2.66-.272,6.239l-.022.572h0a183.479,183.479,0,0,1-1.35,18.307,74.728,74.728,0,0,0,28.565-.157C359.848,325.266,348.871,323,349.694,320.106Z" transform="translate(-331.787 -244.002)" fill="#5f52dd" opacity="0.5" style="mix-blend-mode:multiply;isolation:isolate"/><g transform="translate(12.839 36.008)"><path d="M351.952,280.429s-6.564,4.3-6.844,11.619c-.218,5.66,3.525,13.918,3.525,13.918s6.494.715,9.9-4.592a40.495,40.495,0,0,0-3.833-7.911" transform="translate(-345.099 -280.429)" fill="#7762ef"/></g></g></g><g transform="translate(75.446 51.383)"><path d="M499.936,304.022l.424-74.44-16.619-.095-.385,67.6h-.016s.006.14.013.331l-.031,5.5c-.379,9.633-2.785,27.834-15.652,27.761l47.576.272C502.81,330.882,500.336,313.863,499.936,304.022Z" transform="translate(-372.283 -127.676)" fill="#ffb127"/><g transform="translate(0 21.512)"><path d="M437.862,168.28a32.644,32.644,0,0,1,9.719,7.877c6.972,8.426,8.287,19.048,3.458,28.439a16.405,16.405,0,0,1-14.2,8.958c-6.435.172-12.821-3.1-15.85-8.147a13.25,13.25,0,0,1,.116-13.746,6.18,6.18,0,1,1,10.691,6.2c-.434.747-.317.959-.187,1.226a6.014,6.014,0,0,0,4.836,2.09,3.864,3.864,0,0,0,3.592-2.25,2,2,0,0,0,.211-.449c2.777-5.772.621-10.595-1.435-13.454-.274-.349-.511-.677-.771-.971-5.015-6.052-13.678-8.934-20.58-6.889-7.957,2.386-13.2,11.106-14.7,24.525-2.919,25.885,15.3,43.5,26.419,51.667,12.095,8.874,24.1,13.458,32.234,15.126,4.664.991,8.021,1.033,9.424.419a6.141,6.141,0,0,1,8.11,3.18,6.079,6.079,0,0,1-.291,5.594,5.9,5.9,0,0,1-2.853,2.536,15.274,15.274,0,0,1-4.985,1.2c-12.155,1.331-32.508-5.95-48.975-18.122-22.9-16.854-34.024-39.217-31.385-62.976,2.856-25.206,15.917-32.775,23.437-34.986A31.735,31.735,0,0,1,437.862,168.28Z" transform="translate(-390.081 -164.17)" fill="#ffb127"/><path d="M465.642,252.64a6.079,6.079,0,0,1-.291,5.594,5.9,5.9,0,0,1-2.853,2.536,15.274,15.274,0,0,1-4.985,1.2,83.243,83.243,0,0,1-9.4-12.933c4.664.991,8.021,1.033,9.424.419A6.141,6.141,0,0,1,465.642,252.64Z" transform="translate(-376.771 -144.726)" fill="#edbf5a" opacity="0.5" style="mix-blend-mode:multiply;isolation:isolate"/><path d="M428.947,167.513a32.644,32.644,0,0,1,9.719,7.877c6.972,8.426,8.287,19.048,3.458,28.439a15.87,15.87,0,0,1-8.7,7.859c-.792-4.793-1.5-9.49-2.086-13.974,2.777-5.772.621-10.595-1.435-13.454C429.337,177.6,429.082,171.877,428.947,167.513Z" transform="translate(-381.166 -163.403)" fill="#edbf5a" opacity="0.5" style="mix-blend-mode:multiply;isolation:isolate"/></g><g transform="translate(144.644 21.885)"><path d="M552.548,168.122A32.635,32.635,0,0,0,542.6,175.7c-7.221,8.212-8.855,18.79-4.31,28.322a16.4,16.4,0,0,0,13.923,9.38c6.427.366,12.908-2.718,16.088-7.668a13.25,13.25,0,0,0,.3-13.742,6.18,6.18,0,0,0-10.873,5.878c.412.761.289.968.15,1.231a6.012,6.012,0,0,1-4.9,1.944,3.86,3.86,0,0,1-3.522-2.357,1.981,1.981,0,0,1-.2-.455c-2.6-5.852-.3-10.607,1.838-13.405.284-.341.532-.661.8-.947,5.194-5.9,13.94-8.52,20.778-6.269,7.882,2.624,12.865,11.5,13.96,24.955,2.14,25.96-16.6,43.021-27.959,50.85-12.355,8.507-24.5,12.73-32.673,14.153-4.693.851-8.049.792-9.433.136a6.143,6.143,0,0,0-8.2,2.935,6.079,6.079,0,0,0,.124,5.6,5.889,5.889,0,0,0,2.776,2.621,15.275,15.275,0,0,0,4.946,1.354c12.111,1.7,32.672-4.972,49.5-16.645,23.391-16.159,35.186-38.177,33.262-62.006-2.1-25.28-14.926-33.238-22.377-35.672A31.726,31.726,0,0,0,552.548,168.122Z" transform="translate(-507.737 -164.474)" fill="#ffb127"/><path d="M508.36,251.494a6.079,6.079,0,0,0,.124,5.6,5.889,5.889,0,0,0,2.776,2.621,15.275,15.275,0,0,0,4.946,1.354A83.261,83.261,0,0,0,526,248.423c-4.693.851-8.049.792-9.433.136A6.143,6.143,0,0,0,508.36,251.494Z" transform="translate(-507.737 -145.323)" fill="#edbf5a" opacity="0.5" style="mix-blend-mode:multiply;isolation:isolate"/><path d="M547.322,167.441a32.637,32.637,0,0,0-9.952,7.582c-7.221,8.212-8.855,18.79-4.31,28.322a15.864,15.864,0,0,0,8.462,8.116c.936-4.766,1.781-9.439,2.506-13.906-2.6-5.852-.3-10.607,1.838-13.405C546.629,177.51,547.055,171.8,547.322,167.441Z" transform="translate(-502.511 -163.793)" fill="#edbf5a" opacity="0.5" style="mix-blend-mode:multiply;isolation:isolate"/></g><path d="M561.866,161.988s.038,4.45-.342,11.755c-1.481,28.909-9.448,102.826-51.826,123.824l-2.065,1.754a13.858,13.858,0,0,1-9.392,3.22l-2.1-.075A13.777,13.777,0,0,1,488,299.414l-2.426-1.978c-41.6-21.228-49.05-93.61-50.344-123.319-.336-7.958-.253-12.863-.253-12.863.036-7.124,8.383-8.95,8.383-8.95l110.165.655S561.9,154.864,561.866,161.988Z" transform="translate(-379.784 -145.38)" fill="#ffd454"/><path d="M556.534,172.7l-114.022-.649A12.728,12.728,0,0,1,429.9,159.289h0a12.726,12.726,0,0,1,12.761-12.617l114.021.65A12.727,12.727,0,0,1,569.3,160.083h0A12.726,12.726,0,0,1,556.534,172.7Z" transform="translate(-380.948 -146.672)" fill="#f8bd36"/><path d="M561.866,161.988s.038,4.45-.342,11.755a12.279,12.279,0,0,1-7.076,2.182l-114.024-.655a12.78,12.78,0,0,1-5.189-1.153c-.336-7.958-.253-12.863-.253-12.863.036-7.124,8.383-8.95,8.383-8.95l110.165.655S561.9,154.864,561.866,161.988Z" transform="translate(-379.784 -145.38)" fill="#ffd454" opacity="0.4" style="mix-blend-mode:multiply;isolation:isolate"/><path d="M556.534,172.7l-114.022-.649A12.728,12.728,0,0,1,429.9,159.289h0a12.726,12.726,0,0,1,12.761-12.617l114.021.65A12.727,12.727,0,0,1,569.3,160.083h0A12.726,12.726,0,0,1,556.534,172.7Z" transform="translate(-380.948 -146.672)" fill="#ffb127"/><path d="M556.534,172.7l-114.022-.649A12.728,12.728,0,0,1,429.9,159.289h0a12.726,12.726,0,0,1,12.761-12.617l114.021.65A12.727,12.727,0,0,1,569.3,160.083h0A12.726,12.726,0,0,1,556.534,172.7Z" transform="translate(-380.948 -146.672)" fill="#ffb127"/><path d="M6.647,0H99.731a6.647,6.647,0,0,1,6.647,6.647V56.6a0,0,0,0,1,0,0H0a0,0,0,0,1,0,0V6.647A6.647,6.647,0,0,1,6.647,0Z" transform="translate(65.966 209.349) rotate(0.327)" fill="#ffb127"/><rect width="120.704" height="9.094" rx="1.056" transform="translate(58.532 256.813) rotate(0.326)" fill="#ffb127"/><rect width="120.704" height="9.094" rx="1.056" transform="translate(58.532 256.813) rotate(0.326)" fill="#ffb127" opacity="0.5" style="mix-blend-mode:multiply;isolation:isolate"/><rect width="66.476" height="27.174" rx="3.156" transform="translate(85.846 221.709) rotate(0.327)" fill="#ffd454"/><rect width="53.225" height="6.51" rx="0.756" transform="translate(92.547 202.991) rotate(0.327)" fill="#ffb127"/><rect width="53.225" height="6.51" rx="0.756" transform="translate(92.547 202.991) rotate(0.327)" fill="#ffb127" opacity="0.5" style="mix-blend-mode:multiply;isolation:isolate"/><path d="M461.141,183.156c-1.887,22.1-2.476,71.362,24.577,102.968a1.765,1.765,0,0,1-2.445,2.523c-14.912-11.951-35.057-35.239-40.85-76.305,0,0-2.008-16.284-.853-30.865a9.8,9.8,0,0,1,9.15-8.952h0A9.8,9.8,0,0,1,461.141,183.156Z" transform="translate(-378.353 -140.747)" fill="#ffd454" opacity="0.5" style="mix-blend-mode:screen;isolation:isolate"/><path d="M518.294,182.348c.714,22.169-1.308,71.393-30,101.521a1.765,1.765,0,0,0,2.308,2.649c15.526-11.146,36.875-33.332,44.837-74.034,0,0,2.867-16.155,2.486-30.776a9.793,9.793,0,0,0-8.662-9.424h0A9.805,9.805,0,0,0,518.294,182.348Z" transform="translate(-367.668 -140.813)" fill="#ffd454" opacity="0.4" style="mix-blend-mode:multiply;isolation:isolate"/><g transform="translate(92.12 228.234)"><path d="M474.884,337.112l5.17.937-3.889,3.534.706,5.207-4.562-2.607-4.734,2.281,1.069-5.145-3.632-3.8,5.223-.573,2.489-4.628Z" transform="translate(-465.013 -332.322)" fill="#ffb127"/><path d="M490.625,337.112l5.17.937-3.889,3.534.706,5.207-4.562-2.607-4.734,2.281,1.069-5.145-3.632-3.8,5.223-.573,2.489-4.628Z" transform="translate(-461.403 -332.322)" fill="#ffb127"/><path d="M506.365,337.112l5.17.937-3.889,3.534.706,5.207-4.562-2.607-4.734,2.281,1.069-5.145-3.632-3.8,5.223-.573,2.489-4.628Z" transform="translate(-457.792 -332.322)" fill="#ffb127"/></g><text transform="translate(99.642 102.883)" fill="#fff" font-size="63" font-family="Rubik-Bold, Rubik" font-weight="700"><tspan x="0" y="0">1</tspan></text></g><g transform="translate(65.096 185.888)"><path d="M459.024,372.535c0,1.212-16.381,2.14-36.583,2.075s-36.569-1.1-36.565-2.312,16.381-2.142,36.58-2.075S459.028,371.324,459.024,372.535Z" transform="translate(-380.696 -229.9)" fill="#b0affd" opacity="0.4" style="mix-blend-mode:multiply;isolation:isolate"/><path d="M414.609,266.233s.775-6.1,3.312-8.317c3.309-2.9,10.409-2.124,13.183.639,3.071,3.06,4.541,9.315,2.044,13.828,4.98,2.915,4.7,9.354.526,9.958l1.465,7.749c.911,4.817-2.458,9.44-7.637,10.484l-9.279,1.867s-15.87-1.5-17.083-9.333,6.012-11.482,6.012-11.482-3.468-6.586.173-11.229S414.609,266.233,414.609,266.233Z" transform="translate(-377.226 -256.081)" fill="#2c1e56"/><path d="M430.606,287.788s14.307,2.266,18.189,2.1c3.04.17,8.043-16.469,8.481-17.488a5.718,5.718,0,0,0,2.995-4.755c-.036-1.148-3.133-2.118-3.429-1.542.511-1.524.626-2,.765-2.524.288-1.083-.538-1.907-1.725,2.177a46.51,46.51,0,0,0-1.343,4.785c-1.914,3.677-6.853,12.259-7.188,13.559-6.4-.151-17.256-2.648-17.256-2.648Z" transform="translate(-370.553 -254.565)" fill="#ed9c80"/><path d="M419.833,284.338s-11.163,9.128-14.395,11.117c-2.338,1.8-16.942-9.188-17.953-9.767-2.932.1-4.154-.936-4.863-1.879s1.157-3.419,1.768-3.118c-1.394-.947-1.792-1.267-2.241-1.613-.928-.713-.794-1.829,2.789.808,3.537,2.6,3.018,2.131,4.16,3.115,3.908,1.912,13.406,6.114,14.513,6.976,5.054-3.627,12.182-11.58,12.182-11.58Z" transform="translate(-381.662 -251.002)" fill="#ed9c80"/><path d="M426.57,364.6a22.8,22.8,0,0,1,.588,4.79c-.293,1.473,0,1.907,0,1.907l6.06-.477s-2.679-1.213-2.491-6.978S426.57,364.6,426.57,364.6Z" transform="translate(-371.361 -231.91)" fill="#ed9c80"/><path d="M427.209,368.271a10.227,10.227,0,0,0,5.237.221,26.251,26.251,0,0,0,8,2.143c2.785.326,2.292,2.438-2.467,2.145a64.458,64.458,0,0,0-9.134.006c-1.057.1-2.749.227-2.82-.455S426.35,368.045,427.209,368.271Z" transform="translate(-371.488 -230.349)" fill="#2c1e56"/><path d="M430.71,304.4s3.9,35.064,4.132,39.629a56.316,56.316,0,0,1,0,8.931c-.231,2.778,1.763,26.191,1.763,26.191s-9.075,2.033-11.388.225c0,0,.377-25.526-.779-29.892s-5.676-26.493-5.676-26.493l5.211-22.627Z" transform="translate(-373.152 -245.924)" fill="#201d93"/><path d="M413.215,337.21s-.707,7.439-2.19,8.821c-.928,2.235-.928,2.235.524,3.126,2.21,1.356,6.675,3.965,7.784,2.863,4.157-4.127,4.311-5.583,5.3-10.921.329-1.221,6.121-36.558,6.121-36.558s-18.437-2.567-18.506,2.481S414.14,331.33,413.215,337.21Z" transform="translate(-375.074 -245.115)" fill="#2d24a3"/><g transform="translate(6.871 123.537)"><path d="M395.225,356.644a25.766,25.766,0,0,1-3.77,3.337c-1.447.68-1.642,1.159-1.642,1.159l4.088,4.153s-.579-2.7,4.5-6.06S395.225,356.644,395.225,356.644Z" transform="translate(-386.664 -356.568)" fill="#ed9c80"/><path d="M391.612,359.554a8.708,8.708,0,0,0,2.986,3.975,21.777,21.777,0,0,0,3.01,7.166c1.409,2.237-.711,3.158-3.346-.508a55.755,55.755,0,0,0-5.548-6.693c-.725-.716-1.864-1.877-1.318-2.343S391.285,358.787,391.612,359.554Z" transform="translate(-387.251 -355.924)" fill="#2c1e56"/></g><path d="M416.23,337.347c-8.043,10.038-21.654,17.589-25.5,23.5-.687,1.86,8.229,6.615,8.229,6.615s18.546-16.8,22.346-20.489a36.473,36.473,0,0,0,4.091-4.1C421.794,341.689,418.48,334.539,416.23,337.347Z" transform="translate(-379.591 -237.589)" fill="#2d24a3"/><path d="M428.941,290.26c-.543,1.269,3.6,18.873,4.293,22.927l-.254-.047c-1.8-.266-12.811-1.721-21.7,1.988l-.815-24.868-.033-.923s0-.938.085-2.378v-.016c.2-2.958.814-7.95,2.714-11.158a5.441,5.441,0,0,1,4.073-3.021c5.532-.548,5.5,1.721,10.639,2.989l8.331,2.065s-.933,6.464,0,8.388h-5.785S429.483,288.978,428.941,290.26Z" transform="translate(-375.064 -252.273)" fill="#ffc064"/><path d="M426.194,259.951s3.512,8.136.853,11.852a7.486,7.486,0,0,1-5.478,2.863v4.007a1.9,1.9,0,0,1-1.1.391c-1.215.064-4.452-1.883-4.452-1.883V261.4Z" transform="translate(-373.781 -255.193)" fill="#ed9c80"/><path d="M414.534,285.531c-1.9,1.893-3.207,3.254-4.073,4.177l-.033-.923s-.034-8.763,2.8-13.551a3.871,3.871,0,0,1,1.307-.141C418.962,275.421,418.708,281.383,414.534,285.531Z" transform="translate(-375.064 -251.722)" fill="#f4aa4a"/><path d="M433.079,284.816s-3.9-.156-4.361-.891-1.985-4.053-4.378-5.181c0,0,3.36,3.255,2.953,6.072Z" transform="translate(-371.873 -250.883)" fill="#f4aa4a"/><path d="M432.98,310.476c-1.8-.266-12.811-1.721-21.7,1.988l-.815-24.868-.033-.923s0-.938.085-2.378l2.121.641s.068,21.785,1.137,23.146c1.052,1.362,10.606.329,13.066.72A47.833,47.833,0,0,1,432.98,310.476Z" transform="translate(-375.064 -249.609)" fill="#f4aa4a"/><path d="M404.369,283.272s7.138-9.285,11.562-8.957,4.161,6.287,0,10.45-5.549,5.757-5.549,5.757S405.295,288.176,404.369,283.272Z" transform="translate(-376.454 -251.901)" fill="#ffc064"/><path d="M428.362,259.193s-1.654,7.285-5.468,9.206-.933,6.637-4.57,10.161c-1.076,1.041-2.685.868-3.909.5a5.055,5.055,0,0,0-5.015,1.126,2.758,2.758,0,0,0-.315.388c-4.723-3.12,7.235-20.453,7.235-20.453Z" transform="translate(-375.625 -255.367)" fill="#2c1e56"/></g></svg>