<svg xmlns="http://www.w3.org/2000/svg" width="40" height="40" viewBox="0 0 40 40"><g transform="translate(-79 -194)"><g transform="translate(-52.615 57.335)"><g transform="translate(135.615 137.372)"><path d="M190.463,162.714l-7.215-2.971-.425-2.512a9.145,9.145,0,0,0,3.595-7.108c2.36-5.073-.057-8.375-.609-9.03-.288-.727-1.772-3.721-6.689-3.721a14.78,14.78,0,0,0-2.681.265c-5.495,1.026-6.74,6.433-6.631,10.265a15.456,15.456,0,0,0,1.542,5.839,11.215,11.215,0,0,0,2.8,3.523l-.376,2.217-7.894,3.252c-.155.077-3.726,1.984-3.846,11.741.035.369.25,1.18,1.482,1.18H193.4a1.006,1.006,0,0,0,.95-1.12C194.249,164.726,190.663,162.811,190.463,162.714Zm-6.232-1.092-2.773,2.233-1.333-1.55a7.724,7.724,0,0,0,1.588-.794l.026-.016c.149-.1.29-.194.418-.287l.008-.006c.134-.1.254-.19.363-.276l0,0Zm-5.521,2.951h-1l-.666-1.083.8-.931a4.245,4.245,0,0,0,.645.058c.034,0,.066,0,.1-.005l.759.882Zm.167,3.267-1.436.724.46-2.627h.63Zm-1.729,2.4,1.984-1,.3,1.665-2.636,1.332Zm2.051-9.081c-.055.013-.11.032-.166.041a2.725,2.725,0,0,1-.992.013l-.032,0-.12-.023c-.111-.021-.219-.049-.327-.08a7.234,7.234,0,0,1-2.445-1.4l.264-1.557c.012.007.027.013.038.02a11.173,11.173,0,0,0,1.2.63.091.091,0,0,0,.014.007,11.889,11.889,0,0,0,1.351.507l.156.049.161-.028a11.072,11.072,0,0,0,3.275-1.254l.276,1.627c-.021.018-.04.036-.066.055s-.06.05-.092.075l-.184.144-.129.1c-.071.051-.147.1-.226.158l-.156.106c-.084.054-.175.109-.265.164-.056.034-.113.068-.172.1-.1.054-.2.106-.3.158-.062.03-.121.061-.183.088-.108.049-.22.093-.331.135-.061.023-.123.049-.186.07C179.45,161.1,179.324,161.13,179.2,161.159Zm-7.907-15.413c.318-2.721,1.523-6.043,5.4-6.766a13.294,13.294,0,0,1,2.43-.243c4.433,0,5.4,2.8,5.44,2.914l.049.152.106.113a5.866,5.866,0,0,1,1.322,3.286c.037,1.314-.544.117-.544.117v.026a5.257,5.257,0,0,0-1.233-1.682.629.629,0,0,1-.091-.078c-.079-.064-.166-.123-.25-.183a1.544,1.544,0,0,0-1.161-.018h0a15.627,15.627,0,0,1-5.176.915,12.485,12.485,0,0,1-3.5-.484l-.123-.036-.128.012A3.6,3.6,0,0,0,171.293,145.746Zm.078,3.694c.723-3.46,2.138-4.15,2.493-4.269a13.9,13.9,0,0,0,3.719.491,16.869,16.869,0,0,0,5.724-1.024c1.477,1.209,1.717,3.835,1.754,4.867a7.97,7.97,0,0,1-3.4,6.925l-.036.017a10.223,10.223,0,0,1-3.391,1.513,10.429,10.429,0,0,1-.993-.387q-.164-.072-.323-.151c-.207-.1-.4-.205-.593-.313-.108-.062-.22-.121-.327-.186q-.374-.234-.708-.486l-.148-.113A10.715,10.715,0,0,1,171.37,149.439Zm2.879,11.322.005.006a9.413,9.413,0,0,0,1.931,1.262.269.269,0,0,0,.033.016c.063.03.13.058.2.085l-1.485,1.726-2.771-2.232Zm-5.89,13.529V167.1a.682.682,0,1,0-1.365,0v7.188h-3.6c.147-8.589,3.056-10.315,3.046-10.315l4.274-1.76,3.59,2.893h0s.886.531,1.343,0l.458-.532.5.816-1.554,8.9h-6.7Zm8.1-.109.047-.271,3.184-1.608.341,1.878Zm12.933.109V167.1a.682.682,0,1,0-1.365,0v7.188h-6.589l-1.622-8.906.47-.8.461.535a.92.92,0,0,0,1.314,0l0,0,3.605-2.905,4.228,1.74c.029.015,2.943,1.716,3.09,10.336h-3.6Z" transform="translate(-162.034 -137.372)" fill="#fff"/></g></g><g transform="translate(79 194)" fill="#fff" stroke="#707070" stroke-width="1" opacity="0"><rect width="40" height="40" stroke="none"/><rect x="0.5" y="0.5" width="39" height="39" fill="none"/></g></g></svg>