<svg xmlns="http://www.w3.org/2000/svg" width="39.4" height="29.063" viewBox="0 0 39.4 29.063">
  <g id="noun_friends_2030031" transform="translate(-123.77 -142)">
    <g id="Grupo_3554" data-name="Grupo 3554" transform="translate(123.77 142)">
      <path id="Trazado_9921" data-name="Trazado 9921" d="M155.009,156.977a7.489,7.489,0,1,0-7.489-7.489A7.489,7.489,0,0,0,155.009,156.977Zm0-13.32a5.832,5.832,0,1,1-5.832,5.832A5.832,5.832,0,0,1,155.009,143.657Z" transform="translate(-144.493 -142)" fill="#37236a"/>
      <path id="Trazado_9922" data-name="Trazado 9922" d="M273.131,191.841a6.421,6.421,0,1,0-6.421-6.421A6.421,6.421,0,0,0,273.131,191.841Zm0-11.184a4.763,4.763,0,1,1-4.763,4.763A4.763,4.763,0,0,1,273.131,180.657Z" transform="translate(-248.49 -174.284)" fill="#37236a"/>
      <path id="Trazado_9923" data-name="Trazado 9923" d="M148.464,270.63a8.548,8.548,0,0,0-5.8,2.347,10.233,10.233,0,0,0-8.31-4.477c-5.834,0-10.58,5.261-10.58,11.727a.829.829,0,0,0,1.657,0c0-5.552,4-10.07,8.923-10.07s8.923,4.517,8.923,10.07a.829.829,0,0,0,1.657,0,12.649,12.649,0,0,0-1.387-5.8,6.835,6.835,0,0,1,4.922-2.14c4.057,0,7.359,3.734,7.359,8.322a.829.829,0,0,0,1.657,0C157.48,275.107,153.436,270.63,148.464,270.63Z" transform="translate(-123.77 -252.375)" fill="#37236a"/>
    </g>
    <path id="Icon_awesome-plus" data-name="Icon awesome-plus" d="M6.238,4.889H4.079V2.73a.48.48,0,0,0-.48-.48h-.48a.48.48,0,0,0-.48.48V4.889H.48a.48.48,0,0,0-.48.48v.48a.48.48,0,0,0,.48.48H2.639V8.488a.48.48,0,0,0,.48.48H3.6a.48.48,0,0,0,.48-.48V6.329H6.238a.48.48,0,0,0,.48-.48v-.48A.48.48,0,0,0,6.238,4.889Z" transform="translate(156.452 152.622)" fill="#37236a"/>
  </g>
</svg>
