<svg xmlns="http://www.w3.org/2000/svg" width="19.582" height="19.269" viewBox="0 0 19.582 19.269"><path d="M44.461,29.745H41.5V28.674A.7.7,0,0,0,40.817,28H29.925a.7.7,0,0,0-.681.674v1.071H26.281a.7.7,0,0,0-.681.674v4.52a3.384,3.384,0,0,0,3.4,3.37h1.161a.148.148,0,0,0,.12-.04,6.165,6.165,0,0,0,4.405,2.617v2.339H33.569a3.384,3.384,0,0,0-3.4,3.37.7.7,0,0,0,.681.674h9.09a.7.7,0,0,0,.681-.674,3.384,3.384,0,0,0-3.4-3.37H36.092V40.886A6.165,6.165,0,0,0,40.5,38.269c.04,0,.08.04.12.04h1.161a3.384,3.384,0,0,0,3.4-3.37v-4.52A.706.706,0,0,0,44.461,29.745ZM39.135,45.961H31.607a2.034,2.034,0,0,1,1.922-1.348h3.644A2.048,2.048,0,0,1,39.135,45.961ZM29,36.961a2.041,2.041,0,0,1-2.042-2.022V31.093h2.283v3.767a5.31,5.31,0,0,0,.4,2.1Zm6.367,2.617a4.753,4.753,0,0,1-4.765-4.718V29.348h9.571v5.511A4.788,4.788,0,0,1,35.371,39.577Zm8.41-4.639a2.041,2.041,0,0,1-2.042,2.022h-.6a5.95,5.95,0,0,0,.4-2.1V31.093h2.243Z" transform="translate(-25.6 -28)" fill="#efc67a"/></svg>