<svg xmlns="http://www.w3.org/2000/svg" width="23.008" height="29.127" viewBox="0 0 23.008 29.127"><g transform="translate(-14.453 -5)"><path d="M36.8,11.684,30.777,5.666A2.491,2.491,0,0,0,29.17,5H18.309a3.86,3.86,0,0,0-3.856,3.856V30.271a3.861,3.861,0,0,0,3.856,3.856h15.3a3.861,3.861,0,0,0,3.856-3.856V13.292A2.492,2.492,0,0,0,36.8,11.684ZM30.578,7.718l4.166,4.165H31.311a.734.734,0,0,1-.734-.733Zm5.291,22.553a2.266,2.266,0,0,1-2.263,2.264h-15.3a2.266,2.266,0,0,1-2.263-2.264V8.856a2.266,2.266,0,0,1,2.263-2.264H28.985V11.15a2.329,2.329,0,0,0,2.326,2.326h4.557v16.8Z" fill="#37236a"/><path d="M42.217,66.445H30.989a.8.8,0,1,0,0,1.593H42.217a.8.8,0,0,0,0-1.593Z" transform="translate(-10.646 -41.559)" fill="#37236a"/><path d="M30.193,50.7a.8.8,0,0,0,.8.8H42.217a.8.8,0,1,0,0-1.592H30.989A.8.8,0,0,0,30.193,50.7Z" transform="translate(-10.646 -30.371)" fill="#37236a"/><path d="M30.989,34.951h6.639a.8.8,0,0,0,0-1.592H30.989a.8.8,0,1,0,0,1.592Z" transform="translate(-10.646 -19.181)" fill="#37236a"/></g></svg>