<svg xmlns="http://www.w3.org/2000/svg" width="32.905" height="32.905" viewBox="0 0 32.905 32.905"><path d="M159.716,85A5.716,5.716,0,1,1,154,90.716,5.742,5.742,0,0,1,159.716,85Zm0,1.185a4.531,4.531,0,1,0,4.531,4.531A4.522,4.522,0,0,0,159.716,86.185Z" transform="translate(-143.264 -79.074)" fill="#37236a"/><path d="M109.481,258.665a.593.593,0,0,1,0,1.185A8.858,8.858,0,0,1,105.3,258.8a8.105,8.105,0,0,0-4.043,6.553h16.452a8.244,8.244,0,0,0-4.392-6.692c-.7-.418-.139-1.464.558-1.046a9.383,9.383,0,0,1,5.019,8.3.569.569,0,0,1-.558.627H100.627a.625.625,0,0,1-.627-.627,9.5,9.5,0,0,1,4.81-8.156c.279-.209.488-.349.837-.139A7.372,7.372,0,0,0,109.481,258.665Z" transform="translate(-93.029 -239.564)" fill="#37236a"/><path d="M16.452,0A16.452,16.452,0,1,1,0,16.452,16.483,16.483,0,0,1,16.452,0Zm0,1.185A15.267,15.267,0,1,0,31.72,16.452,15.263,15.263,0,0,0,16.452,1.185Z" fill="#37236a"/></svg>