<svg xmlns="http://www.w3.org/2000/svg" width="40" height="40" viewBox="0 0 40 40"><g transform="translate(-136 -105.408)"><g transform="translate(136 105.408)" fill="#fff" stroke="#707070" stroke-width="1" opacity="0"><rect width="40" height="40" stroke="none"/><rect x="0.5" y="0.5" width="39" height="39" fill="none"/></g><g transform="translate(134 106.803)"><g transform="translate(9)"><path d="M20.641,41.282a5.641,5.641,0,1,1,5.641-5.641A5.647,5.647,0,0,1,20.641,41.282Zm0-10.028a4.387,4.387,0,1,0,4.387,4.387A4.393,4.393,0,0,0,20.641,31.254Z" transform="translate(-11.239 -11.197)" fill="#fff"/><path d="M21.88,40.387a.625.625,0,0,1-.443-.184L20.184,38.95a.627.627,0,0,1,.886-.886l.81.81,2.691-2.691a.627.627,0,0,1,.886.886L22.323,40.2A.625.625,0,0,1,21.88,40.387Z" transform="translate(-13.105 -13.436)" fill="#fff"/><path d="M27.176,42.458H9.627A.626.626,0,0,1,9,41.831v-28.2A.626.626,0,0,1,9.627,13H27.176a.627.627,0,0,1,0,1.254H10.254V41.2H27.176a.627.627,0,1,1,0,1.254Z" transform="translate(-9 -4.852)" fill="#fff"/><path d="M37.627,42.458a.627.627,0,0,1-.348-1.148L41.039,38.8a.624.624,0,0,1,.7,0L44.52,40.66V14.254H40.133a.627.627,0,0,1,0-1.254h5.014a.626.626,0,0,1,.627.627v28.2a.626.626,0,0,1-.974.521l-3.413-2.275-3.413,2.275A.629.629,0,0,1,37.627,42.458Z" transform="translate(-19.45 -4.852)" fill="#fff"/><path d="M45.148,59.254H37.627a.627.627,0,1,1,0-1.254h7.521a.627.627,0,0,1,0,1.254Z" transform="translate(-19.451 -21.648)" fill="#fff"/><path d="M43.627,45.923A.626.626,0,0,1,43,45.3V29.627a.627.627,0,0,1,1.254,0V45.3A.626.626,0,0,1,43.627,45.923Z" transform="translate(-21.69 -10.824)" fill="#fff"/><path d="M24.148,13.162a.626.626,0,0,1-.627-.627V4.387a3.134,3.134,0,1,0-6.268,0v8.148a.627.627,0,0,1-1.254,0V4.387a4.387,4.387,0,0,1,8.775,0v8.148A.626.626,0,0,1,24.148,13.162Z" transform="translate(-11.613)" fill="#fff"/><path d="M41.148,9.4a.626.626,0,0,1-.627-.627V4.387a3.134,3.134,0,1,0-6.268,0V8.775a.627.627,0,0,1-1.254,0V4.387a4.387,4.387,0,0,1,8.775,0V8.775A.626.626,0,0,1,41.148,9.4Z" transform="translate(-17.958)" fill="#fff"/><path d="M43.627,25.134A.626.626,0,0,1,43,24.507v-1.88a.627.627,0,0,1,1.254,0v1.88A.626.626,0,0,1,43.627,25.134Z" transform="translate(-21.69 -8.211)" fill="#fff"/><path d="M37.627,38.7A.626.626,0,0,1,37,38.071V13.627a.627.627,0,1,1,1.254,0V38.071A.626.626,0,0,1,37.627,38.7Z" transform="translate(-19.451 -4.852)" fill="#fff"/></g></g></g></svg>