<svg xmlns="http://www.w3.org/2000/svg" width="36.42" height="28.616" viewBox="0 0 36.42 28.616"><g transform="translate(-1.058 -2.646)"><g transform="translate(1.058 2.646)"><path d="M9.988,284.829a3.533,3.533,0,0,0-2.832,1.6,6.594,6.594,0,0,0,0,7.2,3.538,3.538,0,0,0,2.832,1.6,3.529,3.529,0,0,0,2.827-1.6,6.57,6.57,0,0,0,0-7.2A3.524,3.524,0,0,0,9.988,284.829Zm0,1.3a2.21,2.21,0,0,1,1.771,1.061,5.29,5.29,0,0,1,0,5.69,2.2,2.2,0,0,1-1.771,1.056,2.2,2.2,0,0,1-1.771-1.056,5.29,5.29,0,0,1,0-5.69A2.21,2.21,0,0,1,9.988,286.126Z" transform="translate(6.271 -279.626)" fill="#37236a"/><path d="M1.644,282.713a.651.651,0,0,0-.586.648v19.51a.651.651,0,0,0,.654.653H18.618a.65.65,0,0,0,0-1.3H8.179A6.516,6.516,0,0,0,2.36,296.4v-6.57a6.518,6.518,0,0,0,5.819-5.819H26.457a6.517,6.517,0,0,0,5.824,5.819v3.394a.65.65,0,1,0,1.3,0v-9.866a.655.655,0,0,0-.653-.648H1.713c-.025,0-.048,0-.069,0Zm.716,1.3H6.866a5.171,5.171,0,0,1-4.506,4.509Zm25.409,0h4.507v4.509A5.172,5.172,0,0,1,27.769,284.014ZM2.36,297.711a5.172,5.172,0,0,1,4.506,4.512H2.36Z" transform="translate(-1.058 -282.713)" fill="#37236a"/><path d="M17.451,287.475a8.455,8.455,0,1,0,8.455,8.455A8.464,8.464,0,0,0,17.451,287.475Zm0,1.3A7.154,7.154,0,1,1,10.3,295.93,7.143,7.143,0,0,1,17.451,288.776Z" transform="translate(10.515 -275.768)" fill="#37236a"/><path d="M13.97,288.539a.651.651,0,0,0-.639.658v.709a2.606,2.606,0,0,0,.648,5.129,1.3,1.3,0,1,1,.01,2.592h-.02a1.288,1.288,0,0,1-1.291-1.291.651.651,0,1,0-1.3,0,2.6,2.6,0,0,0,1.954,2.514v.717a.651.651,0,1,0,1.3,0v-.717a2.6,2.6,0,0,0-.653-5.116,1.3,1.3,0,0,1-.01-2.608h.02a1.3,1.3,0,0,1,1.291,1.307.651.651,0,1,0,1.3,0,2.622,2.622,0,0,0-1.949-2.527V289.2A.65.65,0,0,0,13.97,288.539Z" transform="translate(13.987 -274.217)" fill="#37236a"/><path d="M7.8,283.771a.651.651,0,1,0,0,1.3H9.086a.651.651,0,1,0,0-1.3Z" transform="translate(7.809 -281.17)" fill="#37236a"/><path d="M5.147,283.771a.651.651,0,1,0,0,1.3h3.9a.651.651,0,1,0,0-1.3Z" transform="translate(3.951 -281.17)" fill="#37236a"/></g></g></svg>