<svg xmlns="http://www.w3.org/2000/svg" width="40" height="40" viewBox="0 0 40 40"><g transform="translate(-80 -191.82)"><g transform="translate(80 191.82)" fill="#fff" stroke="#707070" stroke-width="1" opacity="0"><rect width="40" height="40" stroke="none"/><rect x="0.5" y="0.5" width="39" height="39" fill="none"/></g><g transform="translate(82.946 193.455)"><g transform="translate(0 0)"><path d="M24.535,34.515A2.337,2.337,0,0,0,22.2,32.178H14.68l.508-4.019a.286.286,0,0,0,0-.07c0-3.236-2.29-4.089-3.5-4.089a.584.584,0,0,0-.584.426L8.762,32.54A4.481,4.481,0,0,1,7.01,34.392v-.461a.584.584,0,0,0-.584-.584H.584A.584.584,0,0,0,0,33.931V46.782a.584.584,0,0,0,.584.584H6.426a.584.584,0,0,0,.584-.584v-.391l3.347.976a.467.467,0,0,0,.158,0h9.931A2.337,2.337,0,0,0,22.2,43.523a2.337,2.337,0,0,0,.584-3.5,2.337,2.337,0,0,0,.584-3.5A2.337,2.337,0,0,0,24.535,34.515ZM5.842,46.2H1.168V34.515H5.842Zm14.6,0H10.6L7.01,45.176V35.613c1.752-.4,2.81-2.489,2.857-2.588a.782.782,0,0,0,.041-.105l2.2-7.7c.683.152,1.9.719,1.91,2.833l-.584,4.638a.583.583,0,0,0,.584.654H22.2a1.168,1.168,0,0,1,0,2.337H19.277a.584.584,0,1,0,0,1.168h2.337a1.168,1.168,0,1,1,0,2.337H18.693a.584.584,0,0,0,0,1.168H21.03a1.168,1.168,0,0,1,0,2.337H18.109a.584.584,0,1,0,0,1.168h2.337a1.168,1.168,0,0,1,0,2.337Z" transform="translate(0 -10.993)" fill="#fff" stroke="#fff" stroke-width="0.5"/><path d="M43.932,6.464a.472.472,0,0,0-.378-.321l-5.9-.906L35.394.281a.472.472,0,0,0-.859,0L32.279,5.237l-5.881.9a.472.472,0,0,0-.264.8l4.078,4.073L29.3,16.446a.472.472,0,0,0,.694.472l4.97-2.69,4.965,2.709a.478.478,0,0,0,.694-.505L39.717,11,43.8,6.931A.472.472,0,0,0,43.932,6.464ZM38.9,10.523a.472.472,0,0,0-.132.411l.788,4.72-4.342-2.36a.465.465,0,0,0-.477-.019L30.4,15.634l.788-4.72a.472.472,0,0,0-.132-.411L27.46,6.917l5.192-.8a.472.472,0,0,0,.359-.274l1.93-4.248,1.93,4.248a.472.472,0,0,0,.359.274l5.192.8Z" transform="translate(-9.697 -0.005)" fill="#fff" stroke="#fff" stroke-width="0.5"/><path d="M12.584,13.337h.584v.584a.584.584,0,0,0,1.168,0v-.584h.584a.584.584,0,1,0,0-1.168h-.584v-.584a.584.584,0,0,0-1.168,0v.584h-.584a.584.584,0,0,0,0,1.168Z" transform="translate(-4.503 -6.532)" fill="#fff"/><path d="M51.921,49.168h-.584v-.584a.584.584,0,0,0-1.168,0v.584h-.584a.584.584,0,1,0,0,1.168h.584v.584a.584.584,0,0,0,1.168,0v-.584h.584a.584.584,0,1,0,0-1.168Z" transform="translate(-18.319 -21.141)" fill="#fff"/></g></g></g></svg>