<svg xmlns="http://www.w3.org/2000/svg" width="40" height="40" viewBox="0 0 40 40"><g transform="translate(-135 -105.229)"><g transform="translate(135 105.229)" fill="#fff" stroke="#707070" stroke-width="1" opacity="0"><rect width="40" height="40" stroke="none"/><rect x="0.5" y="0.5" width="39" height="39" fill="none"/></g><g transform="translate(120 101.985)"><g transform="translate(22.188 3.996)"><path d="M48.91,80.157a.64.64,0,1,0-1.247.29l2.252,9.684-5.037-2.183a.64.64,0,0,0-.509,1.175l.389.168-2.2,2.581L40.834,85.5l.617-2.654a.64.64,0,1,0-1.247-.29l-2.158,9.279-2.162-2.54.389-.168a.64.64,0,0,0-.509-1.175l-5.037,2.183,2.252-9.684a.64.64,0,1,0-1.247-.29l-2.54,10.921s0,.009,0,.014a.624.624,0,0,0-.009.069c0,.019,0,.038-.005.056a.567.567,0,0,0,0,.061.6.6,0,0,0,.007.064c0,.018.01.035.014.052a.649.649,0,0,0,.022.069s0,.009,0,.013.008.012.011.018a.64.64,0,0,0,.078.125c.007.009.012.018.02.026a.63.63,0,0,0,.121.106c.01.007.021.012.032.019a.623.623,0,0,0,.12.055l.038.013.022.008a.655.655,0,0,0,.144.017h0a.636.636,0,0,0,.119-.012l.033-.008a.594.594,0,0,0,.085-.027l.018-.005,4.586-1.987,3.239,3.8a.64.64,0,0,0,1.111-.27l1.215-5.227,1.421,5.249a.64.64,0,0,0,.478.457.633.633,0,0,0,.14.015.64.64,0,0,0,.487-.225l3.239-3.8,4.586,1.987a.64.64,0,0,0,.878-.732Z" transform="translate(-26.94 -55.446)" fill="#fff"/><path d="M42.883,7.639a2.034,2.034,0,0,0,3.319-1.6.754.754,0,0,1,1.437-.327,2.034,2.034,0,0,0,3.684,0,.754.754,0,0,1,1.437.327,2.016,2.016,0,0,0,1.152,1.854,2.018,2.018,0,0,0,2.167-.256.64.64,0,1,0-.808-.993.754.754,0,0,1-1.231-.592,2.034,2.034,0,0,0-3.876-.884.754.754,0,0,1-1.366,0,2.034,2.034,0,0,0-3.876.884.754.754,0,0,1-1.231.592.64.64,0,0,0-.808.992Z" transform="translate(-36.099 -3.996)" fill="#fff"/><path d="M25.82,32.916a.754.754,0,0,1,.852,1.066.64.64,0,1,0,1.147.568,2.034,2.034,0,0,0-2.3-2.879.753.753,0,0,1-.64-1.326,2.033,2.033,0,0,0-.82-3.59.753.753,0,0,1,0-1.472,2.033,2.033,0,0,0,.819-3.59.753.753,0,0,1,.64-1.326,2.034,2.034,0,0,0,2.3-2.879.64.64,0,1,0-1.147.568.753.753,0,0,1-.852,1.066A2.033,2.033,0,0,0,24.095,22.7a.753.753,0,0,1-.3,1.329,2.033,2.033,0,0,0,0,3.974.753.753,0,0,1,.3,1.329,2.033,2.033,0,0,0,1.725,3.58Z" transform="translate(-22.188 -12.928)" fill="#fff"/><path d="M53.911,73.187a2.015,2.015,0,0,0-1.152,1.854.754.754,0,0,1-1.437.327,2.035,2.035,0,0,0-3.684,0,.754.754,0,0,1-1.437-.327,2.034,2.034,0,0,0-3.319-1.6.64.64,0,1,0,.808.993.754.754,0,0,1,1.23.592,2,2,0,0,0,1.582,2,2.134,2.134,0,0,0,.477.054A1.99,1.99,0,0,0,48.8,75.912a.754.754,0,0,1,1.366,0,2.034,2.034,0,0,0,3.876-.884.754.754,0,0,1,1.231-.592.64.64,0,1,0,.808-.993A2.016,2.016,0,0,0,53.911,73.187Z" transform="translate(-36.099 -50.904)" fill="#fff"/><path d="M91.788,28.006a2.033,2.033,0,0,0,0-3.974.753.753,0,0,1-.3-1.329,2.033,2.033,0,0,0-1.725-3.581.753.753,0,0,1-.852-1.066.64.64,0,0,0-1.147-.568,2.034,2.034,0,0,0,2.3,2.879.753.753,0,0,1,.64,1.326,2.033,2.033,0,0,0,.82,3.59.753.753,0,0,1,0,1.472,2.033,2.033,0,0,0-.819,3.59.753.753,0,0,1-.64,1.326,2.034,2.034,0,0,0-2.3,2.879.64.64,0,0,0,1.147-.568.753.753,0,0,1,.852-1.066,2.033,2.033,0,0,0,1.725-3.58.753.753,0,0,1,.3-1.329Z" transform="translate(-66.629 -12.929)" fill="#fff"/><path d="M45.345,17.487a8.773,8.773,0,1,0,8.78,8.773A8.787,8.787,0,0,0,45.345,17.487Zm0,16.266a7.493,7.493,0,1,1,7.5-7.493A7.505,7.505,0,0,1,45.345,33.753Z" transform="translate(-31.964 -13.169)" fill="#fff"/><path d="M58.724,48.8v-2a1.878,1.878,0,0,0-1.876-1.875H55.689a.64.64,0,0,0-.479.216l-1.134,1.282-1.135-1.282a.64.64,0,0,0-.479-.216H51.219A1.878,1.878,0,0,0,49.342,46.8v2.019c0,.017,0,.033.005.049a.649.649,0,0,0,.007.07c0,.02.011.039.016.059s.011.041.019.061a.588.588,0,0,0,.028.055.63.63,0,0,0,.03.056.637.637,0,0,0,.041.052c.011.014.02.029.033.042l.007.007,0,0a6.268,6.268,0,0,0,9.013-.01.583.583,0,0,0,.043-.055c.01-.012.02-.024.029-.037a.58.58,0,0,0,.039-.072c.006-.013.014-.025.019-.038a.616.616,0,0,0,.025-.082c0-.013.008-.025.011-.038a.66.66,0,0,0,.01-.1c0-.008,0-.015,0-.022v-.007A.062.062,0,0,0,58.724,48.8Zm-8.1-.261V46.8a.6.6,0,0,1,.6-.595h.955L53.6,47.808a.64.64,0,0,0,.479.216h0a.64.64,0,0,0,.479-.216L55.978,46.2h.869a.6.6,0,0,1,.6.595v1.743a4.966,4.966,0,0,1-6.821,0Z" transform="translate(-40.652 -31.823)" fill="#fff"/><path d="M58.4,30.46a2.7,2.7,0,1,0-2.7-2.7A2.7,2.7,0,0,0,58.4,30.46Zm0-4.112a1.416,1.416,0,1,1-1.418,1.416A1.419,1.419,0,0,1,58.4,26.348Z" transform="translate(-44.976 -18.324)" fill="#fff"/></g></g></g></svg>