<svg xmlns="http://www.w3.org/2000/svg" width="180.551" height="178.1" viewBox="0 0 180.551 178.1"><g transform="translate(-1043.168 -448.622)"><g transform="translate(1043.168 448.622)"><g transform="translate(60.725)"><path d="M444.239,104.876a4.231,4.231,0,0,0,2.414,1.783c-.814.621-.8,1.034-.85,1.947a4.933,4.933,0,0,1-2.222-1.793A1.581,1.581,0,0,1,444.239,104.876Z" transform="translate(-443.467 -104.876)" fill="#f9d04e"/></g><g transform="translate(120.906 1.096)"><path d="M531.638,106.467a4.228,4.228,0,0,0,2.414,1.783c-.814.621-.8,1.034-.85,1.948a4.939,4.939,0,0,1-2.223-1.793A1.581,1.581,0,0,1,531.638,106.467Z" transform="translate(-530.866 -106.467)" fill="#f9d04e"/></g><g transform="translate(21.543 16.776)"><path d="M386.881,129.239a4.232,4.232,0,0,0,2.907.746,1.99,1.99,0,0,0-.056,2.124,4.94,4.94,0,0,1-2.733-.828A1.581,1.581,0,0,1,386.881,129.239Z" transform="translate(-386.564 -129.239)" fill="#b0affd"/></g><g transform="translate(40.021 30.312)"><path d="M413.4,151.107a4.228,4.228,0,0,0,2.031-2.21c.53.875.942.909,1.845,1.053a4.938,4.938,0,0,1-2.02,2.019A1.581,1.581,0,0,1,413.4,151.107Z" transform="translate(-413.399 -148.897)" fill="#f9d04e"/></g><g transform="translate(69.889 20.546)"><path d="M456.812,135.087a4.228,4.228,0,0,0,2.978-.372c-.161,1.011.131,1.3.726,2a4.939,4.939,0,0,1-2.846.232A1.582,1.582,0,0,1,456.812,135.087Z" transform="translate(-456.775 -134.715)" fill="#b0affd"/></g><g transform="translate(118.998 21.19)"><path d="M528.939,135.65a4.23,4.23,0,0,0,2.316,1.909c-.845.577-.857.989-.952,1.9a4.936,4.936,0,0,1-2.124-1.909A1.581,1.581,0,0,1,528.939,135.65Z" transform="translate(-528.095 -135.65)" fill="#b0affd"/></g><g transform="translate(177.391 56.811)"><path d="M613.741,187.381a4.23,4.23,0,0,0,2.316,1.909c-.846.577-.857.99-.952,1.9a4.943,4.943,0,0,1-2.124-1.909A1.581,1.581,0,0,1,613.741,187.381Z" transform="translate(-612.897 -187.381)" fill="#b0affd"/></g><g transform="translate(168.513 36.157)"><path d="M600.848,157.386a4.228,4.228,0,0,0,2.316,1.909c-.846.577-.857.989-.952,1.9a4.936,4.936,0,0,1-2.124-1.908A1.582,1.582,0,0,1,600.848,157.386Z" transform="translate(-600.004 -157.386)" fill="#f9d04e"/></g><g transform="translate(147.364 36.833)"><path d="M569.3,159.028a4.229,4.229,0,0,0,2.928-.66c-.062,1.021.257,1.283.918,1.916a4.938,4.938,0,0,1-2.81.51A1.582,1.582,0,0,1,569.3,159.028Z" transform="translate(-569.29 -158.368)" fill="#f9d04e"/></g><g transform="translate(134.373 77.913)"><path d="M550.423,219.837a4.227,4.227,0,0,0,2.393-1.81c.366.956.764,1.062,1.628,1.366a4.938,4.938,0,0,1-2.349,1.624A1.582,1.582,0,0,1,550.423,219.837Z" transform="translate(-550.423 -218.027)" fill="#f9d04e"/></g><g transform="translate(151.329 8.823)"><path d="M575.182,117.689a4.23,4.23,0,0,0,3,.127,1.991,1.991,0,0,0,.386,2.09,4.933,4.933,0,0,1-2.844-.242A1.581,1.581,0,0,1,575.182,117.689Z" transform="translate(-575.048 -117.689)" fill="#b0affd"/></g><g transform="translate(93.003 8.818)"><path d="M490.48,117.682a4.229,4.229,0,0,0,3,.138,1.989,1.989,0,0,0,.378,2.091,4.942,4.942,0,0,1-2.845-.253A1.582,1.582,0,0,1,490.48,117.682Z" transform="translate(-490.344 -117.682)" fill="#f9d04e"/></g><g transform="translate(0 62.34)"><path d="M355.414,195.41a4.227,4.227,0,0,0,3,.138,1.991,1.991,0,0,0,.378,2.091,4.943,4.943,0,0,1-2.845-.253A1.582,1.582,0,0,1,355.414,195.41Z" transform="translate(-355.278 -195.41)" fill="#f9d04e"/></g><g transform="translate(19.86 89.733)"><path d="M385.658,235.192a4.227,4.227,0,0,0,1.2,2.752c-1.016.131-1.213.494-1.71,1.261a4.933,4.933,0,0,1-1.027-2.664A1.581,1.581,0,0,1,385.658,235.192Z" transform="translate(-384.119 -235.192)" fill="#f9d04e"/></g><g transform="translate(15.802 45.888)"><path d="M378.226,173.559a4.227,4.227,0,0,0,2.2-2.041c.459.914.867.981,1.757,1.2a4.94,4.94,0,0,1-2.175,1.851A1.582,1.582,0,0,1,378.226,173.559Z" transform="translate(-378.226 -171.518)" fill="#b0affd"/></g><g transform="translate(162.181 84.377)"><path d="M590.809,228.862a4.231,4.231,0,0,0,2.629-1.448c.224,1,.6,1.161,1.414,1.586a4.938,4.938,0,0,1-2.557,1.27A1.581,1.581,0,0,1,590.809,228.862Z" transform="translate(-590.809 -227.414)" fill="#b0affd"/></g></g><g transform="translate(1067.132 477.402)"><path d="M485.743,271.234l.238-41.694-9.308-.053-.216,37.863h-.009s0,.078.008.185l-.017,3.082c-.212,5.4-1.56,15.59-8.767,15.549l26.647.152C487.353,286.279,485.967,276.746,485.743,271.234Z" transform="translate(-414.244 -172.462)" fill="#ffb127"/><g transform="translate(0 12.049)"><path d="M416.843,166.472a18.284,18.284,0,0,1,5.444,4.412,14.193,14.193,0,0,1,1.937,15.929,9.189,9.189,0,0,1-7.952,5.018,10.216,10.216,0,0,1-8.878-4.563,7.421,7.421,0,0,1,.065-7.7,3.461,3.461,0,1,1,5.988,3.474c-.243.419-.178.537-.1.687a3.369,3.369,0,0,0,2.709,1.171,2.164,2.164,0,0,0,2.012-1.26,1.119,1.119,0,0,0,.118-.251,7.121,7.121,0,0,0-.8-7.536c-.154-.2-.286-.379-.432-.544-2.809-3.39-7.661-5-11.527-3.859-4.456,1.337-7.4,6.221-8.235,13.736-1.635,14.5,8.568,24.365,14.8,28.939a48.489,48.489,0,0,0,18.054,8.472c2.612.555,4.492.578,5.279.235a3.44,3.44,0,0,1,4.543,1.781,3.4,3.4,0,0,1-.163,3.133,3.3,3.3,0,0,1-1.6,1.421,8.555,8.555,0,0,1-2.792.674c-6.808.746-18.208-3.333-27.431-10.15-12.824-9.44-19.057-21.966-17.579-35.273,1.6-14.118,8.915-18.357,13.127-19.6A17.775,17.775,0,0,1,416.843,166.472Z" transform="translate(-390.081 -164.17)" fill="#ffb127"/><path d="M457.928,251.011a3.4,3.4,0,0,1-.163,3.133,3.3,3.3,0,0,1-1.6,1.421,8.555,8.555,0,0,1-2.792.674A46.625,46.625,0,0,1,448.107,249c2.612.555,4.492.578,5.279.235A3.44,3.44,0,0,1,457.928,251.011Z" transform="translate(-408.152 -190.569)" fill="#edbf5a" opacity="0.5" style="mix-blend-mode:multiply;isolation:isolate"/><path d="M428.947,167.513a18.285,18.285,0,0,1,5.444,4.412,14.193,14.193,0,0,1,1.937,15.929,8.889,8.889,0,0,1-4.874,4.4c-.443-2.685-.838-5.315-1.169-7.827a7.122,7.122,0,0,0-.8-7.536C429.165,173.161,429.023,169.957,428.947,167.513Z" transform="translate(-402.185 -165.211)" fill="#edbf5a" opacity="0.5" style="mix-blend-mode:multiply;isolation:isolate"/></g><g transform="translate(81.015 12.258)"><path d="M532.836,166.517a18.279,18.279,0,0,0-5.574,4.246,14.192,14.192,0,0,0-2.414,15.863,9.188,9.188,0,0,0,7.8,5.254,10.215,10.215,0,0,0,9.011-4.295,7.421,7.421,0,0,0,.167-7.7,3.461,3.461,0,0,0-6.09,3.292c.231.426.162.542.084.689a3.368,3.368,0,0,1-2.743,1.089,2.162,2.162,0,0,1-1.973-1.32,1.108,1.108,0,0,1-.112-.255,7.122,7.122,0,0,1,1.029-7.508c.159-.191.3-.37.448-.53,2.909-3.3,7.808-4.772,11.638-3.511,4.414,1.469,7.206,6.44,7.819,13.977,1.2,14.54-9.3,24.1-15.66,28.481a48.472,48.472,0,0,1-18.3,7.927c-2.628.477-4.508.443-5.283.076a3.44,3.44,0,0,0-4.594,1.644,3.405,3.405,0,0,0,.07,3.136,3.3,3.3,0,0,0,1.555,1.468,8.556,8.556,0,0,0,2.77.758c6.783.95,18.3-2.785,27.724-9.323,13.1-9.051,19.708-21.383,18.63-34.73-1.176-14.159-8.36-18.616-12.533-19.98A17.77,17.77,0,0,0,532.836,166.517Z" transform="translate(-507.737 -164.474)" fill="#ffb127"/><path d="M508.086,249.94a3.405,3.405,0,0,0,.07,3.136,3.3,3.3,0,0,0,1.555,1.468,8.555,8.555,0,0,0,2.77.758,46.636,46.636,0,0,0,5.483-7.083c-2.628.476-4.508.443-5.283.076A3.44,3.44,0,0,0,508.086,249.94Z" transform="translate(-507.737 -190.474)" fill="#edbf5a" opacity="0.5" style="mix-blend-mode:multiply;isolation:isolate"/><path d="M539.931,167.441a18.281,18.281,0,0,0-5.574,4.246,14.193,14.193,0,0,0-2.414,15.863,8.885,8.885,0,0,0,4.739,4.546c.524-2.67,1-5.287,1.4-7.789a7.122,7.122,0,0,1,1.029-7.508C539.544,173.08,539.782,169.882,539.931,167.441Z" transform="translate(-514.833 -165.398)" fill="#edbf5a" opacity="0.5" style="mix-blend-mode:multiply;isolation:isolate"/></g><path d="M506.046,157.728s.021,2.493-.191,6.584c-.83,16.192-5.292,57.593-29.028,69.354l-1.157.983a7.762,7.762,0,0,1-5.261,1.8l-1.177-.042a7.716,7.716,0,0,1-4.556-1.71l-1.359-1.108c-23.3-11.89-27.473-52.431-28.2-69.071-.188-4.457-.142-7.2-.142-7.2.02-3.99,4.7-5.013,4.7-5.013l61.7.367S506.066,153.738,506.046,157.728Z" transform="translate(-404.061 -148.426)" fill="#ffd454"/><path d="M500.826,161.25l-63.864-.364a7.129,7.129,0,0,1-7.066-7.147h0a7.128,7.128,0,0,1,7.147-7.067l63.863.364a7.128,7.128,0,0,1,7.067,7.147h0A7.128,7.128,0,0,1,500.826,161.25Z" transform="translate(-402.48 -146.672)" fill="#f8bd36"/><path d="M506.046,157.728s.021,2.493-.191,6.584a6.877,6.877,0,0,1-3.963,1.222l-63.865-.367a7.158,7.158,0,0,1-2.906-.646c-.188-4.457-.142-7.2-.142-7.2.02-3.99,4.7-5.013,4.7-5.013l61.7.367S506.066,153.738,506.046,157.728Z" transform="translate(-404.061 -148.426)" fill="#ffd454" opacity="0.4" style="mix-blend-mode:multiply;isolation:isolate"/><path d="M500.826,161.25l-63.864-.364a7.129,7.129,0,0,1-7.066-7.147h0a7.128,7.128,0,0,1,7.147-7.067l63.863.364a7.128,7.128,0,0,1,7.067,7.147h0A7.128,7.128,0,0,1,500.826,161.25Z" transform="translate(-402.48 -146.672)" fill="#ffb127"/><path d="M500.826,161.25l-63.864-.364a7.129,7.129,0,0,1-7.066-7.147h0a7.128,7.128,0,0,1,7.147-7.067l63.863.364a7.128,7.128,0,0,1,7.067,7.147h0A7.128,7.128,0,0,1,500.826,161.25Z" transform="translate(-402.48 -146.672)" fill="#ffb127"/><path d="M6.647,0H52.935a6.647,6.647,0,0,1,6.647,6.647V31.7a0,0,0,0,1,0,0H0a0,0,0,0,1,0,0V6.647A6.647,6.647,0,0,1,6.647,0Z" transform="translate(36.947 117.257) rotate(0.327)" fill="#ffb127"/><rect width="67.606" height="5.094" rx="1.056" transform="translate(32.784 143.841) rotate(0.326)" fill="#ffb127"/><rect width="67.606" height="5.094" rx="1.056" transform="translate(32.784 143.841) rotate(0.326)" fill="#ffb127" opacity="0.5" style="mix-blend-mode:multiply;isolation:isolate"/><rect width="37.233" height="15.22" rx="3.156" transform="translate(48.083 124.179) rotate(0.327)" fill="#ffd454"/><rect width="29.812" height="3.646" rx="0.756" transform="translate(51.836 113.695) rotate(0.327)" fill="#ffb127"/><rect width="29.812" height="3.646" rx="0.756" transform="translate(51.836 113.695) rotate(0.327)" fill="#ffb127" opacity="0.5" style="mix-blend-mode:multiply;isolation:isolate"/><path d="M452.374,178.469c-1.057,12.379-1.387,39.97,13.765,57.672a.989.989,0,0,1-1.37,1.413c-8.352-6.694-19.635-19.737-22.88-42.739a100.273,100.273,0,0,1-.478-17.287,5.486,5.486,0,0,1,5.125-5.014h0A5.491,5.491,0,0,1,452.374,178.469Z" transform="translate(-406.004 -154.716)" fill="#ffd454" opacity="0.5" style="mix-blend-mode:screen;isolation:isolate"/><path d="M504.877,177.889c.4,12.417-.733,39.987-16.8,56.862a.989.989,0,0,0,1.292,1.484c8.7-6.243,20.654-18.669,25.113-41.467a100.268,100.268,0,0,0,1.392-17.238,5.485,5.485,0,0,0-4.852-5.279h0A5.492,5.492,0,0,0,504.877,177.889Z" transform="translate(-420.511 -154.626)" fill="#ffd454" opacity="0.4" style="mix-blend-mode:multiply;isolation:isolate"/><g transform="translate(51.597 127.834)"><path d="M470.542,335l2.9.525-2.178,1.979.4,2.916-2.555-1.46-2.651,1.277.6-2.881-2.034-2.127,2.925-.321,1.394-2.592Z" transform="translate(-465.013 -332.322)" fill="#ffb127"/><path d="M486.283,335l2.9.525L487,337.509l.4,2.916-2.555-1.46-2.651,1.277.6-2.881-2.034-2.127,2.925-.321,1.394-2.592Z" transform="translate(-469.915 -332.322)" fill="#ffb127"/><path d="M502.023,335l2.9.525-2.178,1.979.4,2.916-2.555-1.46-2.651,1.277.6-2.881-2.034-2.127,2.925-.321,1.394-2.592Z" transform="translate(-474.817 -332.322)" fill="#ffb127"/></g><text transform="translate(55.809 55.579)" fill="#fff" font-size="33" font-family="Rubik-Bold, Rubik" font-weight="700"><tspan x="0" y="0">1</tspan></text></g></g></svg>