<svg xmlns="http://www.w3.org/2000/svg" width="43.308" height="78.3" viewBox="0 0 43.308 78.3"><path d="M4.417,0H22.185A4.417,4.417,0,0,1,26.6,4.417v0a4.416,4.416,0,0,1-4.416,4.416H4.417A4.417,4.417,0,0,1,0,4.417v0A4.417,4.417,0,0,1,4.417,0Z" transform="translate(8.353 30.712)" fill="#f9b233"/><g transform="translate(0)"><path d="M381.117,178.245h18.007l12.453-34.828H393.839Z" transform="translate(-368.269 -143.417)" fill="#66c7c2"/><path d="M384.648,178.245H366.641l-12.453-34.828h17.739Z" transform="translate(-354.188 -143.417)" fill="#8e7cbe"/></g><rect width="21.451" height="1.067" transform="translate(10.929 34.618)" fill="#f9b233"/><g transform="translate(4.14 38.588)"><path d="M398.978,229.773c0,3.025-2.778,5.477-6.206,5.477s-6.208-2.452-6.208-5.477,2.78-5.476,6.208-5.476S398.978,226.748,398.978,229.773Z" transform="translate(-375.257 -224.297)" fill="none" stroke="#fdc00f" stroke-miterlimit="10" stroke-width="5.5"/><g transform="translate(0 6.499)"><g transform="translate(-362.864 -237.918)" fill="#ffd633" stroke-linecap="round" stroke-linejoin="round"><path d="M 380.3790588378906 267.8312683105469 C 372.5408935546875 267.8312683105469 366.1640930175781 261.8619384765625 366.1640930175781 254.5246734619141 C 366.1640930175781 251.0036010742188 367.620361328125 247.6837310791016 370.2646484375 245.1766357421875 C 372.95703125 242.6239013671875 376.549072265625 241.2180480957031 380.3790588378906 241.2180480957031 C 388.2167358398438 241.2180480957031 394.5931701660156 247.1873779296875 394.5931701660156 254.5246734619141 C 394.5931701660156 261.8619384765625 388.2167358398438 267.8312683105469 380.3790588378906 267.8312683105469 Z" stroke="none"/><path d="M 380.3790588378906 264.53125 C 386.3970947265625 264.53125 391.2931518554688 260.0423278808594 391.2931518554688 254.5246734619141 C 391.2931518554688 249.0070037841797 386.3970947265625 244.5180511474609 380.3790588378906 244.5180511474609 C 374.3605346679688 244.5180511474609 369.464111328125 249.0070037841797 369.464111328125 254.5246734619141 C 369.464111328125 260.0423278808594 374.3605346679688 264.53125 380.3790588378906 264.53125 M 380.3790588378906 271.1312561035156 C 370.7058410644531 271.1312561035156 362.8641052246094 263.6960144042969 362.8641052246094 254.5246734619141 C 362.8641052246094 245.3527679443359 370.7058410644531 237.9180450439453 380.3790588378906 237.9180450439453 C 390.0514526367188 237.9180450439453 397.8931579589844 245.3527679443359 397.8931579589844 254.5246734619141 C 397.8931579589844 263.6960144042969 390.0514526367188 271.1312561035156 380.3790588378906 271.1312561035156 Z" stroke="none" fill="#fdc00f"/></g><g transform="translate(-370.801 -245.444)" fill="#fc0" stroke-linecap="round" stroke-linejoin="round"><path d="M 388.3161010742188 270.290771484375 C 383.4786071777344 270.290771484375 379.5429992675781 266.5942993164062 379.5429992675781 262.0506896972656 C 379.5429992675781 257.50732421875 383.4786071777344 253.81103515625 388.3161010742188 253.81103515625 C 393.15283203125 253.81103515625 397.0877685546875 257.50732421875 397.0877685546875 262.0506896972656 C 397.0877685546875 266.5942993164062 393.15283203125 270.290771484375 388.3161010742188 270.290771484375 Z" stroke="none"/><path d="M 388.3161010742188 255.31103515625 C 384.3056945800781 255.31103515625 381.0429992675781 258.3344421386719 381.0429992675781 262.0506896972656 C 381.0429992675781 265.7671813964844 384.3056945800781 268.790771484375 388.3161010742188 268.790771484375 C 392.3257141113281 268.790771484375 395.5877685546875 265.7671813964844 395.5877685546875 262.0506896972656 C 395.5877685546875 258.3344421386719 392.3257141113281 255.31103515625 388.3161010742188 255.31103515625 M 388.3161010742188 252.31103515625 C 393.9888916015625 252.31103515625 398.5877685546875 256.6708679199219 398.5877685546875 262.0506896972656 C 398.5877685546875 267.4295654296875 393.9888916015625 271.790771484375 388.3161010742188 271.790771484375 C 382.6428527832031 271.790771484375 378.0429992675781 267.4295654296875 378.0429992675781 262.0506896972656 C 378.0429992675781 256.6708679199219 382.6428527832031 252.31103515625 388.3161010742188 252.31103515625 Z" stroke="none" fill="#fdc00f"/></g><path d="M398.874,265.146a7.3,7.3,0,1,1-7.293-6.916A7.112,7.112,0,0,1,398.874,265.146Z" transform="translate(-374.066 -248.539)" fill="#f9b233"/><path d="M398.431,260.355c0,6.233-5.329,11.286-11.9,11.286s-11.9-5.054-11.9-11.286,5.329-11.286,11.9-11.286S398.431,254.123,398.431,260.355Z" transform="translate(-369.013 -243.749)" fill="none" stroke="#f9b233" stroke-linecap="round" stroke-linejoin="round" stroke-width="2.119" stroke-dasharray="2.119 4.237 2.119 4.237"/><path d="M6.7,4.688V3.6a5.79,5.79,0,0,0,2.148-.5,2.471,2.471,0,0,0,.908-1.662h1.121V12.694H9.359V4.688Z" transform="translate(7.867 9.964)" fill="#fc0"/></g></g></svg>