<svg xmlns="http://www.w3.org/2000/svg" xmlns:xlink="http://www.w3.org/1999/xlink" width="60" height="68" viewBox="0 0 60 68"><defs><linearGradient id="a" x1="0.763" y1="0.5" x2="0.16" y2="0.5" gradientUnits="objectBoundingBox"><stop offset="0" stop-color="#ffed14"/><stop offset="1" stop-color="#ffc400"/></linearGradient><filter id="b" x="0" y="0" width="60" height="68" filterUnits="userSpaceOnUse"><feOffset dy="3" input="SourceAlpha"/><feGaussianBlur stdDeviation="3" result="c"/><feFlood flood-opacity="0.161"/><feComposite operator="in" in2="c"/><feComposite in="SourceGraphic"/></filter><filter id="d" x="18.737" y="19.39" width="22.828" height="22.107" filterUnits="userSpaceOnUse"><feOffset dy="1" input="SourceAlpha"/><feGaussianBlur stdDeviation="1" result="e"/><feFlood flood-color="#9f7932" flood-opacity="0.161"/><feComposite operator="in" in2="e"/><feComposite in="SourceGraphic"/></filter></defs><g transform="translate(-147.663 -253.195)"><g transform="translate(156.179 258.875)"><g transform="matrix(1, 0, 0, 1, -8.52, -5.68)" filter="url(#b)"><g transform="translate(9 56) rotate(-90)" fill="url(#a)"><path d="M 36.64723205566406 40.5 L 13.35276699066162 40.5 L 1.745624542236328 21 L 13.35276699066162 1.5 L 36.64723205566406 1.5 L 48.25437545776367 21 L 36.64723205566406 40.5 Z" stroke="none"/><path d="M 14.20552825927734 3 L 3.491241455078125 21 L 14.20552825927734 39 L 35.79447174072266 39 L 46.50875854492188 21 L 35.79447174072266 3 L 14.20552825927734 3 M 12.5 0 L 37.5 0 L 50 21 L 37.5 42 L 12.5 42 L 0 21 L 12.5 0 Z" stroke="none" fill="#fff"/></g></g></g><g transform="matrix(1, 0, 0, 1, 147.66, 253.2)" filter="url(#d)"><path d="M8.953.559,6.9,4.724l-4.6.67a1.007,1.007,0,0,0-.557,1.717l3.325,3.24-.786,4.577a1.006,1.006,0,0,0,1.459,1.06l4.111-2.161,4.111,2.161a1.007,1.007,0,0,0,1.459-1.06l-.786-4.577,3.325-3.24a1.007,1.007,0,0,0-.557-1.717l-4.6-.67L10.758.559A1.007,1.007,0,0,0,8.953.559Z" transform="translate(20.3 21.39)" fill="#fff"/></g></g></svg>