<svg xmlns="http://www.w3.org/2000/svg" width="65" height="65" viewBox="0 0 65 65"><g transform="translate(2 267)"><rect width="65" height="65" transform="translate(-2 -267)" fill="#fff" opacity="0"/><g transform="translate(-6 -271.047)"><g transform="translate(14.997 14.987)"><path d="M28.705,38.676a5.361,5.361,0,1,0-5.361-5.361A5.361,5.361,0,0,0,28.705,38.676Zm0-9.446a4.086,4.086,0,1,1-4.086,4.086A4.086,4.086,0,0,1,28.705,29.229ZM54.379,46.294a21.031,21.031,0,1,0-37.372-1.309.609.609,0,0,0,.033.072,21.02,21.02,0,0,0,37.27,1.357.626.626,0,0,0,.059-.084C54.375,46.318,54.374,46.306,54.379,46.294ZM36.032,16.27A19.746,19.746,0,0,1,53.514,45.218a10.036,10.036,0,0,0-3.854-.848c-.959-.012-2-.019-3.112-.019s-2.147.007-3.108.019a9.955,9.955,0,0,0-3.247.605A10.827,10.827,0,0,0,31,39.852H25.834a10.839,10.839,0,0,0-8.092,3.64A19.749,19.749,0,0,1,36.032,16.27Zm-17.7,28.523a9.548,9.548,0,0,1,7.5-3.666H31a9.571,9.571,0,0,1,9.56,9.56v4.568A19.727,19.727,0,0,1,18.331,44.793ZM41.838,54.914V50.687A10.752,10.752,0,0,0,40.81,46.11a8.7,8.7,0,0,1,2.649-.464c.953-.012,1.989-.019,3.089-.019s2.142.007,3.093.019a8.766,8.766,0,0,1,3.242.686A19.849,19.849,0,0,1,41.838,54.914Zm4.713-11.777a5.361,5.361,0,1,0-5.361-5.361,5.361,5.361,0,0,0,5.361,5.361Zm0-9.446a4.086,4.086,0,1,1-4.086,4.086,4.086,4.086,0,0,1,4.086-4.086Z" transform="translate(-14.997 -14.987)" fill="#37236a" stroke="#37236a" stroke-width="0.5"/></g></g><g transform="translate(36 -261)" fill="#fff" stroke="#37236a" stroke-width="1.5"><circle cx="10" cy="10" r="10" stroke="none"/><circle cx="10" cy="10" r="9.25" fill="none"/></g><path d="M7.949,5.613H5.2V2.861a.612.612,0,0,0-.611-.611H3.974a.612.612,0,0,0-.611.611V5.613H.611A.612.612,0,0,0,0,6.224v.611a.612.612,0,0,0,.611.611H3.363V10.2a.612.612,0,0,0,.611.611h.611A.612.612,0,0,0,5.2,10.2V7.447H7.949a.612.612,0,0,0,.611-.611V6.224A.612.612,0,0,0,7.949,5.613Z" transform="translate(42 -257.31)" fill="#37236a"/></g></svg>