<svg xmlns="http://www.w3.org/2000/svg" width="27" height="27" viewBox="0 0 27 27"><defs><style>.a{fill:#f1f3f6;}.b{fill:#37236a;}.c{fill:none;}</style></defs><g transform="translate(-0.184)"><circle class="a" cx="13.5" cy="13.5" r="13.5" transform="translate(0.184)"/><g transform="translate(6.934 6.75)"><path class="b" d="M11.87,10.455a2.353,2.353,0,0,0-1.831.89L6.6,9.193a2.1,2.1,0,0,0,0-1.243L10.04,5.8a2.353,2.353,0,1,0-.522-1.464,2.254,2.254,0,0,0,.094.621L6.171,7.108a2.353,2.353,0,1,0,0,2.927l3.44,2.151a2.254,2.254,0,0,0-.094.621,2.353,2.353,0,1,0,2.353-2.353Zm0-7.53a1.412,1.412,0,1,1-1.412,1.412A1.412,1.412,0,0,1,11.87,2.924ZM4.34,9.984A1.412,1.412,0,1,1,5.752,8.572,1.412,1.412,0,0,1,4.34,9.984Zm7.53,4.236a1.412,1.412,0,1,1,1.412-1.412A1.412,1.412,0,0,1,11.87,14.22Z" transform="translate(-1.974 -1.764)"/><rect class="c" width="14.625" height="14.625" transform="translate(0 14.625) rotate(-90)"/></g></g></svg>