<svg xmlns="http://www.w3.org/2000/svg" width="73.698" height="76.82" viewBox="0 0 73.698 76.82">
  <g id="im_flecha_tut" transform="translate(145.145 50.676) rotate(163)">
    <path id="Path_976" data-name="Path 976" d="M67.795,14.019c-.048,3.531-1.512,6.711-2.664,10.008-1.053,3.012-1.864,6.023-3.2,8.946A52.219,52.219,0,0,1,50.313,48.5C45.76,52.882,40.26,56.224,34.7,59.29,29.741,62.028,24.044,63.2,19.052,65.8a51.5,51.5,0,0,1,3.522-4.455c1.868-2.429,2.629-5.468,4.582-7.855,1.643-2.006-1.287-4.861-2.949-2.833-2.187,2.672-3.266,5.874-5.235,8.666-1.748,2.479-4.431,4.738-4.892,7.841a2.036,2.036,0,0,0,.958,2.262A40.51,40.51,0,0,0,33.6,74.7c2.69.066,2.684-3.939,0-4.006a33.557,33.557,0,0,1-10.956-2.2c4.963-2.34,10.482-3.722,15.321-6.392A74.437,74.437,0,0,0,55.147,49.471,54.461,54.461,0,0,0,66.028,33.906a70.192,70.192,0,0,0,3.123-8.814c1.142-3.751,2.759-7.1,2.813-11.073C72,11.435,67.83,11.438,67.795,14.019Z" transform="translate(56.973 0)" fill="#ffaf51"/>
  </g>
</svg>
