<svg xmlns="http://www.w3.org/2000/svg" width="119.681" height="79.057" viewBox="0 0 119.681 79.057">
  <g id="Group_3226" data-name="Group 3226" transform="translate(-162.684 -1476)">
    <path id="Path_1183" data-name="Path 1183" d="M206.872,129.013h-19.6l-9.7-8.728a.993.993,0,0,0-1.411.075,1.029,1.029,0,0,0-.262.662v7.992H170.9a2.99,2.99,0,0,0-3,3v27.971a2.99,2.99,0,0,0,3,3H206.86a2.99,2.99,0,0,0,3-3h0V132.01A2.971,2.971,0,0,0,206.872,129.013ZM173.906,137h10.989a1,1,0,0,1,0,2H173.906a1,1,0,0,1,0-2Zm29.969,17.981H173.906a1,1,0,1,1,0-2h29.969a1,1,0,1,1,0,2Zm0-7.992H173.906a1,1,0,1,1,0-2h29.969a1,1,0,1,1,0,2Z" transform="translate(72.508 1389.087)" fill="#8d7eb7"/>
    <path id="Path_1237" data-name="Path 1237" d="M-3099.323-6045.429v54.231l-3.4,3.381-22.771-10.955-20.765-2.987v-32.53l20.765-4.243,21.278-9.64,4.9,1.919Z" transform="translate(3335 7527)" fill="#f3f1f6"/>
    <path id="Path_1238" data-name="Path 1238" d="M-3146.263-6035.172h-19l-4.87,5.349v22.5l5.463,6.125h18.4Z" transform="translate(3335 7527)" fill="#8d7eb7"/>
    <path id="Path_1239" data-name="Path 1239" d="M-3145.823-6001.194h-15.108l7.053,26.716,10.678.888,4.9-1.89-1.3-6.012Z" transform="translate(3335 7527)" fill="#635688"/>
    <path id="Path_1240" data-name="Path 1240" d="M-3099.323-6026.7v17.02l5.861-1.942,3.852-7.649-4.5-6.25Z" transform="translate(3335 7527)" fill="#f3f1f6"/>
    <path id="Path_1184" data-name="Path 1184" d="M91.979,80.372a10.411,10.411,0,0,0-9.331-10.334V53.522a5.6,5.6,0,0,0-8.584-4.759A70.062,70.062,0,0,1,34.71,61.64H17.331A9.328,9.328,0,0,0,8,70.971V89.633a9.328,9.328,0,0,0,9.331,9.331h.42L24.119,122.8a5.594,5.594,0,0,0,5.412,4.152h8.748a5.6,5.6,0,0,0,5.6-5.6,5.748,5.748,0,0,0-.28-1.773L36.739,99.057A71.91,71.91,0,0,1,74.063,111.77a5.6,5.6,0,0,0,8.584-4.712V90.682A10.355,10.355,0,0,0,91.979,80.372ZM11.732,89.7V71.041a5.585,5.585,0,0,1,5.6-5.6h14.93V95.3H17.331a5.585,5.585,0,0,1-5.6-5.6v0Zm26.547,33.591H29.531a1.878,1.878,0,0,1-1.866-1.376L21.623,99.01h11.2L40.075,120.8a1.851,1.851,0,0,1-1.166,2.356,1.965,1.965,0,0,1-.63.093ZM78.915,107.1a1.872,1.872,0,0,1-1.866,1.866,1.747,1.747,0,0,1-1-.3,73.07,73.07,0,0,0-40.053-13.39V65.419A74.437,74.437,0,0,0,76.046,51.936a1.881,1.881,0,0,1,2.589.56,1.941,1.941,0,0,1,.3,1V107.1Zm3.732-20.132V73.91a6.662,6.662,0,0,1,0,13.157Z" transform="translate(154.684 1428.1)" fill="#37236a"/>
  </g>
</svg>
