<svg xmlns="http://www.w3.org/2000/svg" width="160" height="153.959" viewBox="0 0 160 153.959">
  <g id="img_tutorial_clickear_fin" transform="translate(-608 -269.041)">
    <g id="Group_2994" data-name="Group 2994" transform="translate(140.31 -418.348)">
      <g id="Group_2994-2" data-name="Group 2994" transform="translate(477.69 709.002)">
        <g id="Path_917" data-name="Path 917" transform="translate(-595.034 -730.01)" fill="none" stroke-linecap="round">
          <path d="M725.8,730.92,673,760.633A6.6,6.6,0,0,0,676.4,773h27.348a6.837,6.837,0,0,1,5.884,3.311q6.836,11.549,13.676,23.1c3.476,5.863,12.682,3.46,12.682-3.324V736.659a6.8,6.8,0,0,0-10.19-5.739Z" stroke="none"/>
          <path d="M 729.1959228515625 730.0103149414062 C 729.146240234375 730.0103149414062 729.0966796875 730.0108032226562 729.0467529296875 730.0119018554688 C 727.9044189453125 730.0364379882812 726.7866821289062 730.3486328125 725.7968139648438 730.9200439453125 L 672.999267578125 760.63330078125 C 669.8145751953125 762.4078979492188 668.671875 766.4287109375 670.44677734375 769.6134643554688 C 671.6145629882812 771.7088623046875 673.82373046875 773.0013427734375 676.2128295898438 773.0013427734375 C 676.2744140625 773.0013427734375 676.3358764648438 773.00048828125 676.397705078125 772.998779296875 L 703.7452392578125 772.998779296875 C 703.75390625 772.998779296875 703.7626953125 772.9987182617188 703.7713623046875 772.9987182617188 C 706.1688842773438 772.9987182617188 708.39208984375 774.2548828125 709.6288452148438 776.3099975585938 C 714.1859741210938 784.009521484375 718.744873046875 791.7086791992188 723.3048095703125 799.4085693359375 C 724.661865234375 801.6976318359375 726.8931884765625 802.726806640625 729.1084594726562 802.726806640625 C 732.5669555664062 802.726806640625 735.9871826171875 800.2197875976562 735.9871826171875 796.0845336914062 L 735.9871826171875 736.6592407226562 C 735.9075317382812 732.9571533203125 732.8809814453125 730.0104370117188 729.1959228515625 730.0103149414062 M 729.1959228515625 727.01025390625 L 729.1959838867188 727.01025390625 L 729.196044921875 727.01025390625 C 731.7685546875 727.0103759765625 734.1992797851562 728.0015258789062 736.0404663085938 729.8010864257812 C 737.884765625 731.6036376953125 738.9309692382812 734.0162963867188 738.9864501953125 736.5946655273438 L 738.9871826171875 736.626953125 L 738.9871826171875 736.6592407226562 L 738.9871826171875 796.0845336914062 C 738.9871826171875 798.867919921875 737.8685302734375 801.3946533203125 735.8372192382812 803.19921875 C 734.029052734375 804.8055419921875 731.5764770507812 805.726806640625 729.1084594726562 805.726806640625 C 727.4708251953125 805.726806640625 725.8624267578125 805.324951171875 724.4572143554688 804.5646362304688 C 722.9323120117188 803.7395629882812 721.6414794921875 802.4856567382812 720.7242431640625 800.9384765625 C 716.98876953125 794.630859375 712.060791015625 786.308837890625 707.0540161132812 777.849609375 C 706.3633422851562 776.707763671875 705.1063232421875 775.9987182617188 703.7714233398438 775.9987182617188 L 703.7581787109375 775.998779296875 L 703.751708984375 775.998779296875 L 703.7452392578125 775.998779296875 L 676.435546875 775.998779296875 C 676.3614501953125 776.00048828125 676.2867431640625 776.0013427734375 676.2128295898438 776.0013427734375 C 672.7337036132812 776.0013427734375 669.5202026367188 774.11328125 667.8262939453125 771.0739135742188 C 666.5777587890625 768.8336791992188 666.2763061523438 766.2413330078125 666.9774780273438 763.7744140625 C 667.6781616210938 761.30908203125 669.2960815429688 759.26416015625 671.5338745117188 758.0155029296875 L 724.3119506835938 728.313232421875 C 725.7310180664062 727.4974975585938 727.3456420898438 727.0477294921875 728.9822998046875 727.0125732421875 C 729.0537109375 727.0110473632812 729.124755859375 727.01025390625 729.1959228515625 727.01025390625 Z" stroke="none" fill="#ffaf51"/>
        </g>
        <g id="Path_1015" data-name="Path 1015" transform="translate(-477.69 -863.138)" fill="none" stroke-linecap="round">
          <path d="M508.4,930.754,480.1,938a3.183,3.183,0,0,0,.034,6.183l12.736,3.415a3.3,3.3,0,0,1,2.323,2.277q1.742,6.232,3.486,12.465a3.293,3.293,0,0,0,6.323.036l7.421-27.68a3.278,3.278,0,0,0-4.02-3.94Z" stroke="none"/>
          <path d="M 509.2346496582031 930.646240234375 C 508.9541625976562 930.646240234375 508.6737670898438 930.6822509765625 508.4002990722656 930.7542114257812 L 480.0985412597656 937.9991455078125 C 478.3936157226562 938.4274291992188 477.358642578125 940.1566162109375 477.78662109375 941.861572265625 C 478.07568359375 943.0115966796875 478.9797668457031 943.9055786132812 480.1328430175781 944.1818237304688 L 492.8683776855469 947.5963745117188 C 493.9891662597656 947.8934936523438 494.8714294433594 948.7581787109375 495.1910705566406 949.8729858398438 C 496.3522338867188 954.0274047851562 497.5140686035156 958.182861328125 498.6765747070312 962.3383178710938 C 499.0894165039062 963.7852783203125 500.408203125 964.7286376953125 501.8417053222656 964.7286376953125 C 502.140869140625 964.7286376953125 502.4449157714844 964.6876220703125 502.7469177246094 964.6014404296875 C 503.8290100097656 964.2925415039062 504.6782836914062 963.4527587890625 504.9992980957031 962.3740234375 L 512.4207763671875 934.6943359375 C 512.84619140625 932.9348754882812 511.7647399902344 931.1633911132812 510.0053405761719 930.738037109375 C 509.7519226074219 930.6768188476562 509.4932250976562 930.646240234375 509.2346496582031 930.646240234375 M 509.2346496582031 927.646240234375 C 509.7307434082031 927.646240234375 510.2269592285156 927.705322265625 510.70947265625 927.8218383789062 C 512.3402099609375 928.216064453125 513.7190551757812 929.2213745117188 514.5928955078125 930.6526489257812 C 515.4666748046875 932.0838012695312 515.7308349609375 933.7695922851562 515.3367919921875 935.3993530273438 L 515.3280029296875 935.4354248046875 L 515.3184204101562 935.4712524414062 L 507.8969421386719 963.1509399414062 L 507.8863525390625 963.1904296875 L 507.8746948242188 963.2296752929688 C 507.2581176757812 965.3015747070312 505.6490478515625 966.892822265625 503.5704040527344 967.4862060546875 C 503.0062866210938 967.6471557617188 502.4248352050781 967.7286376953125 501.8417053222656 967.7286376953125 C 500.4999694824219 967.7286376953125 499.1663513183594 967.2864990234375 498.0864562988281 966.4835815429688 C 496.9680786132812 965.652099609375 496.174560546875 964.5032958984375 495.7916870117188 963.161376953125 L 495.7895812988281 963.1539916992188 L 495.7875061035156 963.1465454101562 C 494.6262817382812 958.9956665039062 493.4657592773438 954.8449096679688 492.3058471679688 950.695068359375 C 492.2762756347656 950.59814453125 492.1976928710938 950.522216796875 492.0996704101562 950.4962158203125 L 492.0955810546875 950.4951171875 L 492.0914916992188 950.4940185546875 L 479.3885192871094 947.0881958007812 C 477.1629638671875 946.53759765625 475.4367065429688 944.819091796875 474.8771362304688 942.5928955078125 C 474.0477294921875 939.2888793945312 476.0574340820312 935.9266357421875 479.3578796386719 935.0919799804688 L 507.6490173339844 927.8497924804688 C 508.1664733886719 927.7147216796875 508.6998901367188 927.646240234375 509.2346496582031 927.646240234375 Z" stroke="none" fill="#ffaf51"/>
        </g>
        <g id="Group_2849" data-name="Group 2849" transform="translate(12.739 31.15)">
          <g id="Group_2803" data-name="Group 2803" transform="translate(84.891 76.2)">
            <g id="Group_2796" data-name="Group 2796" transform="translate(4.535)">
              <g id="Group_2795" data-name="Group 2795">
                <rect id="Rectangle_543" data-name="Rectangle 543" width="1.39" height="3.443" fill="#8d7eb7"/>
              </g>
            </g>
            <g id="Group_2798" data-name="Group 2798" transform="translate(4.535 6.973)">
              <g id="Group_2797" data-name="Group 2797">
                <rect id="Rectangle_544" data-name="Rectangle 544" width="1.39" height="3.443" fill="#8d7eb7"/>
              </g>
            </g>
            <g id="Group_2800" data-name="Group 2800" transform="translate(0 4.491)">
              <g id="Group_2799" data-name="Group 2799">
                <rect id="Rectangle_545" data-name="Rectangle 545" width="3.443" height="1.39" fill="#8d7eb7"/>
              </g>
            </g>
            <g id="Group_2802" data-name="Group 2802" transform="translate(6.973 4.491)">
              <g id="Group_2801" data-name="Group 2801">
                <rect id="Rectangle_546" data-name="Rectangle 546" width="3.443" height="1.39" fill="#8d7eb7"/>
              </g>
            </g>
          </g>
          <g id="Group_2821" data-name="Group 2821" transform="translate(99.06 32.438)">
            <g id="Group_2814" data-name="Group 2814" transform="translate(4.535)">
              <g id="Group_2813" data-name="Group 2813">
                <rect id="Rectangle_551" data-name="Rectangle 551" width="1.39" height="3.443" fill="#de5656"/>
              </g>
            </g>
            <g id="Group_2816" data-name="Group 2816" transform="translate(4.535 6.973)">
              <g id="Group_2815" data-name="Group 2815">
                <rect id="Rectangle_552" data-name="Rectangle 552" width="1.39" height="3.443" fill="#de5656"/>
              </g>
            </g>
            <g id="Group_2818" data-name="Group 2818" transform="translate(0 4.491)">
              <g id="Group_2817" data-name="Group 2817">
                <rect id="Rectangle_553" data-name="Rectangle 553" width="3.443" height="1.39" fill="#de5656"/>
              </g>
            </g>
            <g id="Group_2820" data-name="Group 2820" transform="translate(6.973 4.491)">
              <g id="Group_2819" data-name="Group 2819">
                <rect id="Rectangle_554" data-name="Rectangle 554" width="3.443" height="1.39" fill="#de5656"/>
              </g>
            </g>
          </g>
          <g id="Group_2839" data-name="Group 2839" transform="translate(0 78.33)">
            <g id="Group_2832" data-name="Group 2832" transform="translate(4.535)">
              <g id="Group_2831" data-name="Group 2831">
                <rect id="Rectangle_559" data-name="Rectangle 559" width="1.39" height="3.443" fill="#de5656"/>
              </g>
            </g>
            <g id="Group_2834" data-name="Group 2834" transform="translate(4.535 6.973)">
              <g id="Group_2833" data-name="Group 2833">
                <rect id="Rectangle_560" data-name="Rectangle 560" width="1.39" height="3.443" fill="#de5656"/>
              </g>
            </g>
            <g id="Group_2836" data-name="Group 2836" transform="translate(0 4.491)">
              <g id="Group_2835" data-name="Group 2835">
                <rect id="Rectangle_561" data-name="Rectangle 561" width="3.443" height="1.39" fill="#de5656"/>
              </g>
            </g>
            <g id="Group_2838" data-name="Group 2838" transform="translate(6.973 4.491)">
              <g id="Group_2837" data-name="Group 2837">
                <rect id="Rectangle_562" data-name="Rectangle 562" width="3.443" height="1.39" fill="#de5656"/>
              </g>
            </g>
          </g>
          <g id="Group_2848" data-name="Group 2848" transform="translate(19.335)">
            <g id="Group_2841" data-name="Group 2841" transform="translate(4.535)">
              <g id="Group_2840" data-name="Group 2840">
                <rect id="Rectangle_563" data-name="Rectangle 563" width="1.39" height="3.443" fill="#8d7eb7"/>
              </g>
            </g>
            <g id="Group_2843" data-name="Group 2843" transform="translate(4.535 6.973)">
              <g id="Group_2842" data-name="Group 2842">
                <rect id="Rectangle_564" data-name="Rectangle 564" width="1.39" height="3.443" fill="#8d7eb7"/>
              </g>
            </g>
            <g id="Group_2845" data-name="Group 2845" transform="translate(0 4.491)">
              <g id="Group_2844" data-name="Group 2844">
                <rect id="Rectangle_565" data-name="Rectangle 565" width="3.443" height="1.39" fill="#8d7eb7"/>
              </g>
            </g>
            <g id="Group_2847" data-name="Group 2847" transform="translate(6.973 4.491)">
              <g id="Group_2846" data-name="Group 2846">
                <rect id="Rectangle_566" data-name="Rectangle 566" width="3.443" height="1.39" fill="#8d7eb7"/>
              </g>
            </g>
          </g>
        </g>
      </g>
      <g id="Group_3024" data-name="Group 3024" transform="translate(516.879 687.389)">
        <g id="Group_3010" data-name="Group 3010" transform="translate(0.477 12.515)">
          <g id="Group_2995" data-name="Group 2995">
            <rect id="Rectangle_599" data-name="Rectangle 599" width="44.351" height="69.493" transform="matrix(0.967, 0.256, -0.256, 0.967, 20.544, 4.279)" fill="#877db3"/>
            <path id="Path_1148" data-name="Path 1148" d="M656.677,811.366a.54.54,0,0,1-.137-.018l-42.877-11.336a.534.534,0,0,1-.38-.653l17.763-67.185a.535.535,0,0,1,.653-.38l42.877,11.336a.534.534,0,0,1,.38.653l-17.763,67.185A.535.535,0,0,1,656.677,811.366Zm-42.225-12.251L656.3,810.179l17.49-66.152-41.844-11.063Z" transform="translate(-613.265 -731.776)" fill="#352868"/>
          </g>
          <g id="Group_3000" data-name="Group 3000" transform="translate(14.491 3.583)">
            <g id="Group_2997" data-name="Group 2997">
              <g id="Group_2996" data-name="Group 2996">
                <path id="Path_1149" data-name="Path 1149" d="M652.842,751.509l.127-.481a12.4,12.4,0,0,0,15.144-8.811l.481.127A12.9,12.9,0,0,1,652.842,751.509Z" transform="translate(-652.515 -741.892)" fill="#6a79a8"/>
                <path id="Path_1150" data-name="Path 1150" d="M655.587,751.661a13.12,13.12,0,0,1-3.359-.438l-.258-.068.264-1,.258.068a12.135,12.135,0,0,0,14.817-8.62l.068-.258,1,.263-.068.258A13.178,13.178,0,0,1,655.587,751.661Z" transform="translate(-651.969 -741.346)" fill="#352868"/>
              </g>
            </g>
            <g id="Group_2999" data-name="Group 2999" transform="translate(33.219 4.843)">
              <g id="Group_2998" data-name="Group 2998">
                <path id="Path_1151" data-name="Path 1151" d="M751,770.906a12.9,12.9,0,0,1-9.164-15.752l.481.127a12.4,12.4,0,0,0,8.811,15.144Z" transform="translate(-741.142 -754.828)" fill="#6a79a8"/>
                <path id="Path_1152" data-name="Path 1152" d="M750.747,770.687l-.258-.068a13.168,13.168,0,0,1-9.354-16.079l.068-.258,1,.263-.069.258a12.136,12.136,0,0,0,8.621,14.818l.258.068Z" transform="translate(-740.696 -754.282)" fill="#352868"/>
              </g>
            </g>
          </g>
          <g id="Group_3005" data-name="Group 3005" transform="translate(3.227 54.996)">
            <g id="Group_3002" data-name="Group 3002">
              <g id="Group_3001" data-name="Group 3001">
                <path id="Path_1153" data-name="Path 1153" d="M632.048,895.292l-.481-.127a12.4,12.4,0,0,0-8.811-15.144l.127-.481A12.9,12.9,0,0,1,632.048,895.292Z" transform="translate(-622.431 -879.213)" fill="#6a79a8"/>
                <path id="Path_1154" data-name="Path 1154" d="M631.693,895.072l-1-.264.068-.258a12.136,12.136,0,0,0-8.62-14.818l-.258-.068.264-1,.258.068a13.168,13.168,0,0,1,9.354,16.079Z" transform="translate(-621.885 -878.667)" fill="#6a79a8"/>
              </g>
            </g>
            <g id="Group_3004" data-name="Group 3004" transform="translate(27.128 10.933)">
              <g id="Group_3003" data-name="Group 3003">
                <path id="Path_1155" data-name="Path 1155" d="M695.7,918.3l-.481-.127a12.9,12.9,0,0,1,15.752-9.164l-.127.481A12.4,12.4,0,0,0,695.7,918.3Z" transform="translate(-694.89 -908.316)" fill="#6a79a8"/>
                <path id="Path_1156" data-name="Path 1156" d="M695.341,918.185l-1-.264.068-.258a13.168,13.168,0,0,1,16.079-9.354l.258.068-.263,1-.258-.068a12.136,12.136,0,0,0-14.818,8.621Z" transform="translate(-694.344 -907.869)" fill="#6a79a8"/>
              </g>
            </g>
          </g>
          <g id="Group_3009" data-name="Group 3009" transform="translate(16.43 25.481)">
            <g id="Group_3007" data-name="Group 3007">
              <g id="Group_3006" data-name="Group 3006">
                <path id="Path_1157" data-name="Path 1157" d="M668.417,828.44a14.177,14.177,0,1,1,17.33-10.082A14.193,14.193,0,0,1,668.417,828.44Zm7.12-26.931a13.68,13.68,0,1,0,9.729,16.722A13.695,13.695,0,0,0,675.537,801.509Z" transform="translate(-657.595 -800.286)" fill="#6a79a8"/>
                <path id="Path_1158" data-name="Path 1158" d="M671.592,828.729a14.419,14.419,0,0,1-3.689-.481h0a14.438,14.438,0,1,1,3.69.481Zm.005-27.859a13.417,13.417,0,1,0,3.426.447A13.437,13.437,0,0,0,671.6,800.869Z" transform="translate(-657.149 -799.835)" fill="#352868"/>
              </g>
            </g>
            <g id="Group_3008" data-name="Group 3008" transform="translate(6.415 10.215)">
              <path id="Path_1159" data-name="Path 1159" d="M685.29,829.527a1.933,1.933,0,0,0-1.55.19,5.846,5.846,0,0,0-1.574,1.7,6.557,6.557,0,0,1-1.872,2.071,2.738,2.738,0,0,1-2.246.239,2.907,2.907,0,0,1-1.85-1.322,3.326,3.326,0,0,1-.343-2.357l-1.573-.416.21-.794,1.573.416a3.116,3.116,0,0,1,1.564-1.848,3.555,3.555,0,0,1,2.559-.1l.035.026-.233.88a2.859,2.859,0,0,0-2.033.129,2.243,2.243,0,0,0-1.183,1.545,2.454,2.454,0,0,0,.137,1.91,2.137,2.137,0,0,0,1.368,1,2.022,2.022,0,0,0,1.569-.152,5.476,5.476,0,0,0,1.579-1.765,6.866,6.866,0,0,1,1.879-2.049,2.686,2.686,0,0,1,2.217-.242,2.815,2.815,0,0,1,1.851,1.351,3.585,3.585,0,0,1,.312,2.411l1.479.391-.21.794-1.472-.389a3.923,3.923,0,0,1-1.518,2.1,3.113,3.113,0,0,1-2.694.25l-.041-.036.231-.872a2.434,2.434,0,0,0,2.194-.262,3.117,3.117,0,0,0,1.11-1.739,2.727,2.727,0,0,0-.121-1.986A2.032,2.032,0,0,0,685.29,829.527Z" transform="translate(-674.282 -827.118)" fill="#352868"/>
            </g>
          </g>
        </g>
        <g id="Group_3020" data-name="Group 3020" transform="translate(0 65.464)">
          <g id="Group_3011" data-name="Group 3011">
            <path id="Path_1160" data-name="Path 1160" d="M667.767,888.178v67.285l-.208.872-.23.682a3.386,3.386,0,0,1-.235.535l-.275.5a3.406,3.406,0,0,1-.325.488l-.514.644-.34.341-.568.455a3.858,3.858,0,0,1-.385.272l-.169.1a3.706,3.706,0,0,1-.471.247l-.578.253a3.524,3.524,0,0,1-.525.182l-.5.131a3.1,3.1,0,0,1-.513.089l-.944.084H620.264a.84.84,0,0,1-.134-.01l-1.6-.254a3.731,3.731,0,0,1-.9-.261l-.255-.111a4.87,4.87,0,0,1-.911-.517l-.353-.254a5.829,5.829,0,0,1-.966-.875l-.165-.188a6.1,6.1,0,0,1-.714-1,5.3,5.3,0,0,1-.406-.888l-.257-.736-.082-.388-.072-.506-.03-.626V880.51l.208-.872.23-.683a3.38,3.38,0,0,1,.235-.535l.275-.5a3.357,3.357,0,0,1,.325-.488l.514-.644.34-.341.568-.455a3.822,3.822,0,0,1,.385-.272l.169-.1a3.749,3.749,0,0,1,.471-.247l.578-.253a3.523,3.523,0,0,1,.525-.183l.5-.131a3.118,3.118,0,0,1,.513-.089l.944-.084h40.726a.834.834,0,0,1,.134.011l1.6.254a3.705,3.705,0,0,1,.9.261l.255.111a4.882,4.882,0,0,1,.911.517l.353.254a5.8,5.8,0,0,1,.965.875l.165.188a6.134,6.134,0,0,1,.714,1,5.314,5.314,0,0,1,.406.888l.257.735.082.389.071.506.03.625v6.939Z" transform="translate(-612.885 -874.093)" fill="#fff"/>
            <path id="Path_1161" data-name="Path 1161" d="M660.1,960.987H619.371a1.357,1.357,0,0,1-.218-.017l-1.6-.254a4.268,4.268,0,0,1-1.027-.3l-.255-.11a5.441,5.441,0,0,1-1.01-.574l-.353-.254a6.345,6.345,0,0,1-1.054-.956l-.165-.188a6.649,6.649,0,0,1-.776-1.083,5.854,5.854,0,0,1-.447-.978l-.257-.736a.528.528,0,0,1-.018-.066l-.082-.389c0-.012,0-.023-.006-.035l-.072-.506c0-.016,0-.033,0-.049l-.03-.625v-74.25a.556.556,0,0,1,.015-.124l.208-.871c0-.016.008-.032.014-.047l.23-.682a3.9,3.9,0,0,1,.273-.621l.274-.5a3.925,3.925,0,0,1,.376-.565l.514-.644a.583.583,0,0,1,.039-.044l.34-.341a.506.506,0,0,1,.044-.04l.568-.455a4.423,4.423,0,0,1,.438-.31l.169-.1a4.2,4.2,0,0,1,.537-.282l.577-.253a4.062,4.062,0,0,1,.6-.21l.5-.131a3.637,3.637,0,0,1,.6-.1l.944-.083.047,0h40.726a1.418,1.418,0,0,1,.218.017l1.6.254a4.266,4.266,0,0,1,1.027.3l.255.111a5.422,5.422,0,0,1,1.01.574l.353.255a6.376,6.376,0,0,1,1.054.956l.165.188a6.647,6.647,0,0,1,.776,1.084,5.866,5.866,0,0,1,.447.978l.257.735a.524.524,0,0,1,.018.066l.082.388c0,.012,0,.024.006.035l.072.506c0,.016,0,.033,0,.049l.03.626V954.57a.557.557,0,0,1-.015.124l-.208.871c0,.016-.008.031-.013.047l-.23.682a3.892,3.892,0,0,1-.273.621l-.274.5a3.944,3.944,0,0,1-.376.565l-.514.644c-.012.015-.026.03-.039.044l-.34.341a.517.517,0,0,1-.044.039l-.568.455a4.462,4.462,0,0,1-.438.31l-.168.1a4.347,4.347,0,0,1-.537.282l-.579.253a4.127,4.127,0,0,1-.6.21l-.5.131a3.616,3.616,0,0,1-.6.1l-.943.084Zm-46.872-5.77.246.7a4.774,4.774,0,0,0,.365.8,5.573,5.573,0,0,0,.651.91l.165.188a5.313,5.313,0,0,0,.877.794l.353.254a4.371,4.371,0,0,0,.811.461l.255.111a3.177,3.177,0,0,0,.769.223l1.6.255a.312.312,0,0,0,.05,0h40.7l.92-.082a2.548,2.548,0,0,0,.424-.074l.5-.131a3.033,3.033,0,0,0,.446-.155l.578-.253a3.272,3.272,0,0,0,.4-.212l.169-.1a3.347,3.347,0,0,0,.332-.235l.545-.437.3-.3.5-.621a2.861,2.861,0,0,0,.274-.412l.274-.5a2.835,2.835,0,0,0,.2-.45l.222-.659.188-.787V880.347l-.029-.575-.065-.464-.071-.337-.246-.7a4.791,4.791,0,0,0-.365-.8,5.587,5.587,0,0,0-.651-.91l-.165-.187a5.248,5.248,0,0,0-.877-.794l-.353-.255a4.369,4.369,0,0,0-.811-.461l-.255-.11a3.177,3.177,0,0,0-.77-.224l-1.6-.254a.327.327,0,0,0-.051,0h-40.7l-.92.082a2.551,2.551,0,0,0-.424.074l-.5.131a2.969,2.969,0,0,0-.446.155l-.578.253a3.267,3.267,0,0,0-.4.212l-.169.1a3.446,3.446,0,0,0-.332.235l-.544.436-.3.3-.5.621a2.905,2.905,0,0,0-.274.411l-.274.5a2.854,2.854,0,0,0-.2.45l-.222.659-.188.787v74.161l.029.574.065.464Zm53.649-.647h0Z" transform="translate(-611.991 -873.2)" fill="#6a79a8"/>
          </g>
          <g id="Group_3012" data-name="Group 3012">
            <path id="Path_1162" data-name="Path 1162" d="M667.737,880.614l-.071-.506-.082-.389-.257-.735a5.314,5.314,0,0,0-.406-.888,6.134,6.134,0,0,0-.714-1l-.165-.188a5.8,5.8,0,0,0-.965-.875l-.353-.254a4.882,4.882,0,0,0-.911-.517l-.255-.111a3.705,3.705,0,0,0-.9-.261l-1.6-.254a.834.834,0,0,0-.134-.011H620.2l-.944.084a3.087,3.087,0,0,0-.513.089l-.5.131a3.523,3.523,0,0,0-.525.183l-.578.253a3.749,3.749,0,0,0-.471.247l-.169.1a3.822,3.822,0,0,0-.385.272l-.568.455-.34.341-.514.644a3.37,3.37,0,0,0-.325.488l-.275.5a3.38,3.38,0,0,0-.235.535l-.23.683-.208.872v74.224l.03.626.072.506.082.388.257.736a5.3,5.3,0,0,0,.406.888,6.1,6.1,0,0,0,.714,1l.165.188a5.829,5.829,0,0,0,.966.875l.353.254a4.87,4.87,0,0,0,.911.517l.255.111a3.731,3.731,0,0,0,.9.261l1.6.254a.84.84,0,0,0,.134.01H660.99l.944-.084a3.1,3.1,0,0,0,.513-.089l.5-.131a3.524,3.524,0,0,0,.525-.182l.578-.253a3.673,3.673,0,0,0,.471-.247l.169-.1a3.858,3.858,0,0,0,.385-.272l.568-.455.34-.341.514-.644a3.406,3.406,0,0,0,.325-.488l.275-.5a3.386,3.386,0,0,0,.235-.535l.23-.682.208-.872V881.239Zm-2.969,69.261h-48.35V886.1h48.35Z" transform="translate(-612.885 -874.093)" fill="#f6e2c9"/>
            <path id="Path_1163" data-name="Path 1163" d="M660.1,960.987H619.371a1.357,1.357,0,0,1-.218-.017l-1.6-.254a4.268,4.268,0,0,1-1.027-.3l-.255-.11a5.441,5.441,0,0,1-1.01-.574l-.353-.254a6.345,6.345,0,0,1-1.054-.956l-.165-.188a6.649,6.649,0,0,1-.776-1.083,5.854,5.854,0,0,1-.447-.978l-.257-.736a.528.528,0,0,1-.018-.066l-.082-.389c0-.012,0-.023-.006-.035l-.072-.506c0-.016,0-.033,0-.049l-.03-.625v-74.25a.556.556,0,0,1,.015-.124l.208-.871c0-.016.008-.032.014-.047l.23-.682a3.9,3.9,0,0,1,.273-.621l.274-.5a3.925,3.925,0,0,1,.376-.565l.514-.644a.583.583,0,0,1,.039-.044l.34-.341a.506.506,0,0,1,.044-.04l.568-.455a4.423,4.423,0,0,1,.438-.31l.169-.1a4.291,4.291,0,0,1,.537-.282l.578-.253a4.062,4.062,0,0,1,.6-.21l.5-.131a3.637,3.637,0,0,1,.6-.1l.944-.083.047,0h40.726a1.418,1.418,0,0,1,.218.017l1.6.254a4.266,4.266,0,0,1,1.027.3l.255.111a5.422,5.422,0,0,1,1.01.574l.353.255a6.376,6.376,0,0,1,1.054.956l.165.188a6.647,6.647,0,0,1,.776,1.084,5.857,5.857,0,0,1,.447.978l.257.735a.524.524,0,0,1,.018.066l.082.388c0,.012,0,.024.006.035l.072.506c0,.016,0,.033,0,.049l.03.626V954.57a.557.557,0,0,1-.015.124l-.208.871c0,.016-.008.031-.013.047l-.23.682a3.892,3.892,0,0,1-.273.621l-.274.5a3.944,3.944,0,0,1-.376.565l-.514.644c-.012.015-.026.03-.039.044l-.34.341a.517.517,0,0,1-.044.039l-.568.455a4.462,4.462,0,0,1-.438.31l-.168.1a4.246,4.246,0,0,1-.538.282l-.578.253a4.147,4.147,0,0,1-.6.21l-.5.131a3.616,3.616,0,0,1-.6.1l-.943.084Zm-46.872-5.77.246.7a4.774,4.774,0,0,0,.365.8,5.573,5.573,0,0,0,.651.91l.165.188a5.313,5.313,0,0,0,.877.794l.353.254a4.371,4.371,0,0,0,.811.461l.255.111a3.177,3.177,0,0,0,.769.223l1.6.255a.312.312,0,0,0,.05,0h40.7l.92-.082a2.548,2.548,0,0,0,.424-.074l.5-.131a3.033,3.033,0,0,0,.446-.155l.578-.254a3.172,3.172,0,0,0,.4-.211l.169-.1a3.347,3.347,0,0,0,.332-.235l.545-.437.3-.3.5-.621a2.861,2.861,0,0,0,.274-.412l.274-.5a2.835,2.835,0,0,0,.2-.45l.222-.659.188-.787V880.347l-.029-.575-.065-.464-.071-.337-.246-.7a4.748,4.748,0,0,0-.365-.8,5.587,5.587,0,0,0-.651-.91l-.165-.187a5.248,5.248,0,0,0-.877-.794l-.353-.255a4.369,4.369,0,0,0-.811-.461l-.255-.11a3.177,3.177,0,0,0-.77-.224l-1.6-.254a.327.327,0,0,0-.051,0h-40.7l-.92.082a2.551,2.551,0,0,0-.424.074l-.5.131a2.969,2.969,0,0,0-.446.155l-.578.253a3.267,3.267,0,0,0-.4.212l-.169.1a3.446,3.446,0,0,0-.332.235l-.544.436-.3.3-.5.621a2.905,2.905,0,0,0-.274.411l-.274.5a2.854,2.854,0,0,0-.2.45l-.222.659-.188.787v74.161l.029.574.065.464Zm50.65-5.7h-48.35a.534.534,0,0,1-.534-.534V885.205a.534.534,0,0,1,.534-.534h48.35a.534.534,0,0,1,.534.534v63.777A.534.534,0,0,1,663.875,949.516Zm-47.816-1.069h47.281V885.74H616.059Z" transform="translate(-611.991 -873.2)" fill="#eaac58"/>
          </g>
          <g id="Group_3013" data-name="Group 3013" transform="translate(23.247 77.279)">
            <path id="Path_1164" data-name="Path 1164" d="M678.545,1088.532a4.461,4.461,0,1,1,4.461-4.461A4.466,4.466,0,0,1,678.545,1088.532Zm0-7.854a3.393,3.393,0,1,0,3.393,3.393A3.4,3.4,0,0,0,678.545,1080.678Z" transform="translate(-674.084 -1079.609)" fill="#eaac58"/>
          </g>
          <g id="Group_3014" data-name="Group 3014" transform="translate(21.812 5.615)">
            <path id="Path_1165" data-name="Path 1165" d="M681.509,889.266H670.783a.534.534,0,0,1,0-1.069h10.726a.534.534,0,1,1,0,1.069Z" transform="translate(-670.249 -888.197)" fill="#eaac58"/>
          </g>
          <g id="Group_3019" data-name="Group 3019" transform="translate(5.747 14.326)">
            <g id="Group_3015" data-name="Group 3015" transform="translate(4.783 0.327)">
              <path id="Path_1166" data-name="Path 1166" d="M640.65,920.024a.534.534,0,0,1-.378-.912l6.618-6.618a.534.534,0,0,1,.756.756l-6.618,6.618A.533.533,0,0,1,640.65,920.024Z" transform="translate(-640.116 -912.337)" fill="#eaac58"/>
            </g>
            <g id="Group_3016" data-name="Group 3016" transform="translate(0.019 8.848)">
              <path id="Path_1167" data-name="Path 1167" d="M627.927,939.026a.534.534,0,0,1-.378-.912l2.86-2.86a.534.534,0,0,1,.755.756l-2.86,2.86A.534.534,0,0,1,627.927,939.026Z" transform="translate(-627.393 -935.098)" fill="#eaac58"/>
            </g>
            <g id="Group_3017" data-name="Group 3017" transform="translate(0.131 1.263)">
              <path id="Path_1168" data-name="Path 1168" d="M628.224,931.654a.534.534,0,0,1-.378-.912l15.748-15.748a.534.534,0,0,1,.755.755L628.6,931.5A.534.534,0,0,1,628.224,931.654Z" transform="translate(-627.689 -914.837)" fill="#eaac58"/>
            </g>
            <g id="Group_3018" data-name="Group 3018">
              <path id="Path_1169" data-name="Path 1169" d="M627.875,918.537a.534.534,0,0,1-.377-.912l6-6a.534.534,0,0,1,.756.756l-6,6A.531.531,0,0,1,627.875,918.537Z" transform="translate(-627.34 -911.464)" fill="#eaac58"/>
            </g>
          </g>
        </g>
        <g id="Group_3023" data-name="Group 3023" transform="translate(43.225)">
          <g id="Group_3021" data-name="Group 3021">
            <path id="Path_1170" data-name="Path 1170" d="M727.78,708.242a.535.535,0,0,1-.18-.875c5.773-5.748,11.661-8.7,18-9.017a.534.534,0,0,1,.054,1.067c-6.064.306-11.723,3.154-17.3,8.707A.534.534,0,0,1,727.78,708.242Z" transform="translate(-727.443 -698.348)" fill="#8d7eb7"/>
          </g>
          <g id="Group_3022" data-name="Group 3022" transform="translate(3.529 6.783)">
            <path id="Path_1171" data-name="Path 1171" d="M737.207,726.357a.535.535,0,0,1-.18-.875c5.773-5.748,11.661-8.7,18-9.017a.534.534,0,0,1,.054,1.067c-6.064.306-11.723,3.154-17.3,8.707A.534.534,0,0,1,737.207,726.357Z" transform="translate(-736.869 -716.464)" fill="#8d7eb7"/>
          </g>
        </g>
        <g id="Group_2786" data-name="Group 2786" transform="translate(9.857 102.545)">
          <g id="Group_2780" data-name="Group 2780" transform="translate(6.257 0.014)">
            <path id="Path_1051" data-name="Path 1051" d="M656.477,975.389a1.6,1.6,0,0,1-1.078-.577h0a1.556,1.556,0,0,1,.18-2.19,1.5,1.5,0,0,1,1.137-.33,1.591,1.591,0,0,1,1.047.574,1.557,1.557,0,0,1-.179,2.191A1.5,1.5,0,0,1,656.477,975.389Z" transform="translate(-655.031 -972.279)" fill="#352868"/>
          </g>
          <g id="Group_2781" data-name="Group 2781" transform="translate(27.292)">
            <path id="Path_1052" data-name="Path 1052" d="M712.675,975.365a1.6,1.6,0,0,1-1.078-.578h0a1.532,1.532,0,0,1,2.3-2.027c.023.026.045.053.067.081a1.591,1.591,0,0,1,.363,1.137,1.5,1.5,0,0,1-1.595,1.391l-.054,0Z" transform="translate(-711.215 -972.242)" fill="#352868"/>
          </g>
          <g id="Group_2782" data-name="Group 2782" transform="translate(11.702 10.794)">
            <path id="Path_1053" data-name="Path 1053" d="M671.1,1001.208a1.543,1.543,0,0,0-1.522,1.564,1.523,1.523,0,0,0,.07.439,6.928,6.928,0,0,0,13.272-.171,1.545,1.545,0,0,0-1.508-1.968Z" transform="translate(-669.576 -1001.072)" fill="#eaac58"/>
          </g>
          <g id="Group_2785" data-name="Group 2785" transform="translate(0 7.418)">
            <g id="Group_2783" data-name="Group 2783" transform="translate(0 0)">
              <ellipse id="Ellipse_57" data-name="Ellipse 57" cx="2.883" cy="2.162" rx="2.883" ry="2.162" transform="translate(0 5.738) rotate(-84.465)" fill="#e8a2a2"/>
            </g>
            <g id="Group_2784" data-name="Group 2784" transform="translate(30.843 0)">
              <ellipse id="Ellipse_58" data-name="Ellipse 58" cx="2.883" cy="2.162" rx="2.883" ry="2.162" transform="translate(0 5.738) rotate(-84.466)" fill="#e8a2a2"/>
            </g>
          </g>
        </g>
      </g>
    </g>
    <rect id="Rectangle_600" data-name="Rectangle 600" width="160" height="149" transform="translate(608 274)" fill="none"/>
  </g>
</svg>
