<svg xmlns="http://www.w3.org/2000/svg" width="64" height="64" viewBox="0 0 64 64"><defs><style>.a{fill:none;}.b{fill:#37236a;}</style></defs><rect class="a" width="64" height="64"/><path class="b" d="M36.914,0H5.273A5.278,5.278,0,0,0,0,5.273V29a5.278,5.278,0,0,0,5.273,5.273h7.91V41.2a.986.986,0,0,0,.989.989.946.946,0,0,0,.585-.2l10.291-7.712H36.914A5.278,5.278,0,0,0,42.187,29V5.273A5.278,5.278,0,0,0,36.914,0Zm2.637,29a2.644,2.644,0,0,1-2.637,2.637H24.167l-.7.527L15.82,37.9V31.641H5.273A2.644,2.644,0,0,1,2.637,29V5.273A2.644,2.644,0,0,1,5.273,2.637H36.914a2.644,2.644,0,0,1,2.637,2.637ZM21.094,21.753a1.978,1.978,0,1,0,1.978,1.978A1.973,1.973,0,0,0,21.094,21.753Zm-.7-1.978h1.4a.665.665,0,0,0,.659-.618l.577-9.229a.661.661,0,0,0-.659-.7H19.817a.661.661,0,0,0-.659.7l.577,9.229A.665.665,0,0,0,20.393,19.775Z" transform="translate(11.049 11.049)"/></svg>