<svg xmlns="http://www.w3.org/2000/svg" width="65" height="65" viewBox="0 0 65 65"><g transform="translate(2 267)"><rect width="65" height="65" transform="translate(-2 -267)" fill="#fff" opacity="0"/><g transform="translate(8 -256.426)"><g transform="translate(1 1)"><path d="M40,10.58H39.32V1H5.106V9.211H6.474V7.843H37.951v4.106H40A2.055,2.055,0,0,1,42.057,14V33.846H14.847L12.11,32.477H2.369V14a2.055,2.055,0,0,1,2.053-2.053h.684v19.16H39.32V13.317H37.951V29.74H6.474V10.58H4.421A3.425,3.425,0,0,0,1,14V35.9A3.425,3.425,0,0,0,4.421,39.32h8.9v2.737H10.58v1.369H33.846V42.057H31.109V39.32H40A3.425,3.425,0,0,0,43.426,35.9V14A3.425,3.425,0,0,0,40,10.58ZM6.474,6.474V2.369H37.951V6.474ZM29.74,42.057H14.686V39.32H29.74ZM40,37.951H4.421A2.055,2.055,0,0,1,2.369,35.9V33.846h9.419l2.737,1.369H42.057V35.9A2.055,2.055,0,0,1,40,37.951Z" transform="translate(-1 -1)" fill="#37236a"/><rect width="2" height="2" transform="translate(7 2.426)" fill="#37236a"/><path d="M36.9,32.16V23.3a3.307,3.307,0,0,0,1.369-2.671v-.362a3.309,3.309,0,0,0-.17-1.049L36.022,13H17.244L15.17,19.221A3.309,3.309,0,0,0,15,20.27v.362A3.305,3.305,0,0,0,16.369,23.3V32.16ZM28,30.791H25.264V26.686H28Zm7.527,0H29.37V25.317H23.9v5.474H17.737v-6.9a3.224,3.224,0,0,0,3.311-1.4,3.311,3.311,0,0,0,5.585-.156,3.311,3.311,0,0,0,5.585.156,3.224,3.224,0,0,0,3.311,1.4Zm-.493-16.423L36.8,19.654a1.938,1.938,0,0,1,.1.616v.362a1.948,1.948,0,0,1-3.858.382l-.248-1.138v-.033h-.007l-1.192-5.474Zm-3.612,5.548v.715a1.948,1.948,0,0,1-3.858.382l-.248-1.239V14.369H30.19Zm-5.474-5.548v5.407L25.7,21.014a1.948,1.948,0,0,1-3.858-.383v-.609l1.233-5.654Zm-9.58,5.9a1.938,1.938,0,0,1,.1-.616l1.762-5.285h3.443l-1.186,5.34-.261,1.306a1.948,1.948,0,0,1-3.858-.383Z" transform="translate(-5.42 -4.789)" fill="#37236a"/></g></g></g></svg>