<svg xmlns="http://www.w3.org/2000/svg" width="65" height="65" viewBox="0 0 65 65"><g transform="translate(2 267)"><rect width="65" height="65" transform="translate(-2 -267)" fill="#fff" opacity="0"/><g transform="translate(6.36 -252.238)"><path d="M62.367,80H26.08a2.018,2.018,0,0,0-2.016,2.016v6.048H18.016A2.018,2.018,0,0,0,16,90.08v23.385a2.018,2.018,0,0,0,2.016,2.016H54.3a2.018,2.018,0,0,0,2.016-2.016v-6.048h6.048a2.018,2.018,0,0,0,2.016-2.016V82.016A2.018,2.018,0,0,0,62.367,80ZM26.08,81.613H62.367a.4.4,0,0,1,.4.4v2.822H25.677V82.016A.4.4,0,0,1,26.08,81.613Zm-.4,4.838H62.77v4.032H56.319v-.4A2.018,2.018,0,0,0,54.3,88.064H25.677Zm29.03,27.014a.4.4,0,0,1-.4.4H18.016a.4.4,0,0,1-.4-.4V90.08a.4.4,0,0,1,.4-.4H54.3a.4.4,0,0,1,.4.4Zm7.661-7.661H56.319v-2.419h1.613v-1.613H56.319v-1.613h4.838V98.547H56.319V92.1H62.77V105.4A.4.4,0,0,1,62.367,105.8Z" transform="translate(-16 -80)" fill="#37236a"/><path d="M65.677,192h-8.87a.806.806,0,0,0-.806.806v8.064a.806.806,0,0,0,.806.806h8.87a.806.806,0,0,0,.806-.806v-8.064A.806.806,0,0,0,65.677,192Zm-.806,1.613v.806H61.645a.806.806,0,0,0-.57.236L59.7,196.032H57.613v-2.419Zm0,2.419v1.613H61.979l-.806-.806.806-.806Zm-7.257,4.032v-2.419H59.7l1.377,1.377a.806.806,0,0,0,.57.236H64.87v.806Z" transform="translate(-51.968 -180.711)" fill="#37236a"/><rect width="3" height="1" transform="translate(17.64 13.238)" fill="#37236a"/><rect width="13" height="1" transform="translate(22.64 13.238)" fill="#37236a"/><rect width="11" height="1" transform="translate(17.64 16.238)" fill="#37236a"/><rect width="3" height="1" transform="translate(30.64 16.238)" fill="#37236a"/><rect width="4" height="1" transform="translate(4.64 26.238)" fill="#37236a"/><rect width="4" height="1" transform="translate(10.64 26.238)" fill="#37236a"/><rect width="4" height="1" transform="translate(15.64 26.238)" fill="#37236a"/><rect width="3" height="1" transform="translate(22.64 26.238)" fill="#37236a"/><path d="M294.42,328a3.217,3.217,0,0,0-1.614.434,3.226,3.226,0,1,0,0,5.584A3.225,3.225,0,1,0,294.42,328Zm-4.838,3.226a1.613,1.613,0,1,1,1.613,1.613A1.613,1.613,0,0,1,289.582,331.225Zm4.838,1.613a1.609,1.609,0,0,1-.4-.052,3.217,3.217,0,0,0,0-3.12,1.612,1.612,0,1,1,.4,3.173Z" transform="translate(-260.552 -303.002)" fill="#37236a"/><rect width="6" height="1" transform="translate(4.64 28.238)" fill="#37236a"/><rect width="2" height="1" transform="translate(11.64 28.238)" fill="#37236a"/><rect width="3" height="1" transform="translate(14.64 28.238)" fill="#37236a"/><rect width="1" height="1" transform="translate(43.64 22.238)" fill="#37236a"/></g></g></svg>