<svg xmlns="http://www.w3.org/2000/svg" width="65" height="65" viewBox="0 0 65 65"><g transform="translate(2 267)"><rect width="65" height="65" transform="translate(-2 -267)" fill="#fff" opacity="0"/><g transform="translate(197.625 -477.825)"><path d="M-161.415,239.555a1.007,1.007,0,0,1,0,1.438l-7.3,7.3a1.061,1.061,0,0,1-.69.288h-.173a1.176,1.176,0,0,1-.518-.288h0l-3.106-3.106a1.007,1.007,0,0,1,0-1.438,1.007,1.007,0,0,1,1.438,0l2.358,2.358,6.557-6.557A1.007,1.007,0,0,1-161.415,239.555Zm10.756-1.323v.288l-.058,5.234v.058a16.73,16.73,0,0,1-.058,1.726,13.4,13.4,0,0,1-2.876,7.535,25.063,25.063,0,0,1-8.628,7.132c-1.15.575-2.3,1.093-3.451,1.61-.288.115-.575.23-.805.345a2.309,2.309,0,0,1-.863.172,2.888,2.888,0,0,1-.69-.115,30.3,30.3,0,0,1-11.216-6.96,15.47,15.47,0,0,1-4.314-7.42,14.009,14.009,0,0,1-.4-3.394c-.058-3.163,0-6.327,0-9.433v-3.336a1.737,1.737,0,0,1,1.9-2.013c4.486-.288,8.743-1.956,13.459-5.177,1.093-.748,1.553-.748,2.7,0a28.28,28.28,0,0,0,10.066,4.716c.863.173,1.726.288,2.646.4.288.058.633.058.92.115a1.7,1.7,0,0,1,1.668,1.841v6.672Zm-2.013-1.841v-4.946c-.288-.058-.518-.058-.805-.115a27.065,27.065,0,0,1-2.876-.46,30.809,30.809,0,0,1-10.813-5c-.058-.058-.115-.115-.173-.115-.058.058-.115.115-.173.115-5.062,3.451-9.663,5.234-14.494,5.579h0v12.769a13.649,13.649,0,0,0,.345,2.991,13.643,13.643,0,0,0,3.8,6.5,27.988,27.988,0,0,0,10.468,6.5h.058c.288-.115.575-.23.805-.345,1.093-.46,2.243-.978,3.278-1.5a23.326,23.326,0,0,0,7.937-6.5,11.872,11.872,0,0,0,2.473-6.442c0-.518.058-1.035.058-1.668h0v-.173l.057-5.119v-.23h0v-1.841Z" transform="translate(0 0)" fill="#37236a"/></g></g></svg>