<svg xmlns="http://www.w3.org/2000/svg" width="30" height="30" viewBox="0 0 30 30"><g transform="translate(-56 -315)"><g transform="translate(56 315)" fill="#fff" stroke="#707070" stroke-width="1" opacity="0"><rect width="30" height="30" stroke="none"/><rect x="0.5" y="0.5" width="29" height="29" fill="none"/></g><g transform="translate(59.217 319.04)"><path d="M1311.5,177.876a.288.288,0,1,0,0-.576h-1.379a.418.418,0,0,0-.418.418v2.757a.418.418,0,0,0,.418.418h2.757a.418.418,0,0,0,.418-.418v-.932a.288.288,0,1,0-.576,0v.778h-2.445v-2.44h1.225Z" transform="translate(-1306.852 -170.177)" fill="#7d69f3"/><path d="M1336.2,172.58a.284.284,0,0,0-.4.038h0l-1.374,1.652-.442-.355a.287.287,0,0,0-.365.442l0,0,.529.428a.456.456,0,0,0,.61-.029l.01-.01,1.47-1.768a.284.284,0,0,0-.038-.4Z" transform="translate(-1329.521 -165.62)" fill="#7d69f3"/><path d="M1309.6,307.67a.418.418,0,0,0,.418.418h2.757a.418.418,0,0,0,.418-.418v-.932a.288.288,0,0,0-.577,0v.778h-2.445v-2.44h1.225a.288.288,0,0,0,0-.576h-1.379a.418.418,0,0,0-.418.418Z" transform="translate(-1306.756 -291.267)" fill="#7d69f3"/><path d="M1336.2,299.78a.284.284,0,0,0-.4.038h0l-1.374,1.652-.442-.355a.287.287,0,1,0-.365.442l0,0,.529.427a.456.456,0,0,0,.61-.029l.01-.01,1.47-1.768a.284.284,0,0,0-.038-.4Z" transform="translate(-1329.521 -286.71)" fill="#7d69f3"/><path d="M1272.51,29h-20.784a1.325,1.325,0,0,0-1.326,1.326V47.55a1.328,1.328,0,0,0,1.326,1.326l11.216.082,0-.576-11.216-.082a.75.75,0,0,1-.749-.749V33.818h22.287V47.55a.75.75,0,0,1-.749.749h-.014l-1.455.082.034.576,1.446-.077a1.33,1.33,0,0,0,1.321-1.326V30.326A1.347,1.347,0,0,0,1272.51,29Zm-21.538,4.241V30.326a.75.75,0,0,1,.749-.749H1272.5a.75.75,0,0,1,.749.749v2.916Z" transform="translate(-1250.4 -29)" fill="#7d69f3"/><path d="M1278.6,55.4a1.1,1.1,0,1,0,1.1,1.1h0A1.1,1.1,0,0,0,1278.6,55.4Zm0,1.633a.528.528,0,1,1,.528-.528h0A.527.527,0,0,1,1278.6,57.033Z" transform="translate(-1276.198 -54.132)" fill="#7d69f3"/><path d="M1339.2,55.4a1.1,1.1,0,1,0,1.1,1.1A1.1,1.1,0,0,0,1339.2,55.4Zm0,1.633a.528.528,0,1,1,.529-.528A.527.527,0,0,1,1339.2,57.033Z" transform="translate(-1333.888 -54.132)" fill="#7d69f3"/><path d="M1399.9,55.4a1.1,1.1,0,1,0,1.1,1.1A1.1,1.1,0,0,0,1399.9,55.4Zm0,1.633a.528.528,0,1,1,.529-.528A.527.527,0,0,1,1399.9,57.033Z" transform="translate(-1391.672 -54.132)" fill="#7d69f3"/><path d="M1514.95,71.3h-9.362a.288.288,0,1,0,0,.576h9.362a.289.289,0,0,0,.288-.288.286.286,0,0,0-.288-.288Z" transform="translate(-1493.056 -69.268)" fill="#7d69f3"/><path d="M1628.328,308.6h-2.339a.288.288,0,0,0,0,.576h2.339a.288.288,0,0,0,0-.576Z" transform="translate(-1607.674 -295.17)" fill="#7d69f3"/><path d="M1440.588,358.876h.985a.288.288,0,0,0,0-.576h-.985a.288.288,0,1,0,0,.576Z" transform="translate(-1431.179 -342.483)" fill="#7d69f3"/><path d="M1440.588,181.976h11.245a.288.288,0,0,0,0-.576h-11.245a.288.288,0,1,0,0,.576Z" transform="translate(-1431.179 -174.08)" fill="#7d69f3"/><path d="M1440.588,231.776h11.245a.288.288,0,0,0,0-.576h-11.245a.288.288,0,1,0,0,.576Z" transform="translate(-1431.179 -221.487)" fill="#7d69f3"/><path d="M1440.588,309.176h3.651a.288.288,0,0,0,0-.576h-3.651a.288.288,0,1,0,0,.576Z" transform="translate(-1431.179 -295.17)" fill="#7d69f3"/><path d="M7.262,12.138H3.231a2.055,2.055,0,0,1-1.973-1.474h0s0-.005,0-.01l-.61-2.4A9.8,9.8,0,0,0,.1,6.7L.052,6.585A.56.56,0,0,1,0,6.35a.577.577,0,0,1,.576-.576A2.475,2.475,0,0,1,2.613,6.84l.019.029V1.12A1.121,1.121,0,0,1,4.545.327a1.148,1.148,0,0,1,.34.792V4.981a.131.131,0,0,1,.038-.019.985.985,0,0,1,.4-.086,1.006,1.006,0,0,1,.916.6c.037-.021.078-.042.11-.057a1.039,1.039,0,0,1,1.374.519,1.043,1.043,0,0,1,1.6.884v3.252A2.072,2.072,0,0,1,7.262,12.138ZM.586,6.346h0l.048.11A10.509,10.509,0,0,1,1.205,8.1l.61,2.4a1.478,1.478,0,0,0,1.417,1.062h4.03a1.5,1.5,0,0,0,1.494-1.494V6.806a.473.473,0,0,0-.467-.466H8.28a.475.475,0,0,0-.333.143.46.46,0,0,0-.133.332V7.8a.288.288,0,0,1-.577,0V6.365A.47.47,0,0,0,6.769,5.9a.461.461,0,0,0-.449.363v1.23a.288.288,0,0,1-.288.288h-.01a.288.288,0,0,1-.288-.288V6.36a.841.841,0,0,1,.009-.154V5.879a.43.43,0,0,0-.859,0l.009,1.609a.288.288,0,0,1-.576,0V6.316A.217.217,0,0,1,4.3,6.235V1.119A.537.537,0,0,0,3.761.576a.544.544,0,0,0-.543.543V8.954a.288.288,0,0,1-.576,0V7.882l-.495-.716A1.9,1.9,0,0,0,.586,6.346Z" transform="translate(11.619 11.494)" fill="#7d69f3"/></g></g></svg>