<svg xmlns="http://www.w3.org/2000/svg" width="30" height="30" viewBox="0 0 30 30"><g transform="translate(-56 -315)"><g transform="translate(56 315)" fill="#fff" stroke="#707070" stroke-width="1" opacity="0"><rect width="30" height="30" stroke="none"/><rect x="0.5" y="0.5" width="29" height="29" fill="none"/></g><g transform="translate(58.369 317.287)"><g transform="translate(0 0)"><path d="M31.023,20.136a4.057,4.057,0,0,0,0-5.738l-.314-.314a4.057,4.057,0,0,0-5.738,0l-3.363,3.363a4.052,4.052,0,0,0-.552,5.048l-2.541,2.541a4.057,4.057,0,0,0,0,5.738l.314.314a4.057,4.057,0,0,0,5.738,0l3.363-3.363a4.052,4.052,0,0,0,.552-5.048Zm-9.589.179a3.022,3.022,0,0,1,.891-2.152L25.688,14.8a3.043,3.043,0,0,1,4.3,0l.314.314a3.043,3.043,0,0,1,0,4.3L27.835,21.89l-.218-.218a4.058,4.058,0,0,0-5.738,0l-.083.083A3.028,3.028,0,0,1,21.434,20.315Zm5.683,2.292-.174.174a3.044,3.044,0,0,1-4.3,0l-.218-.218.174-.174a3.044,3.044,0,0,1,4.3,0Zm.987,2.248a3.022,3.022,0,0,1-.891,2.152L23.85,30.37a3.043,3.043,0,0,1-4.3,0l-.314-.314a3.043,3.043,0,0,1,0-4.3L21.7,23.28l.218.218a4.058,4.058,0,0,0,5.738,0l.083-.083A3.028,3.028,0,0,1,28.1,24.855Z" transform="translate(-11.696 -9.512)" fill="#868ff8"/><path d="M16.045,16.762a.507.507,0,0,0,.717-.717l-2.477-2.477a.507.507,0,0,0-.717.717Z" transform="translate(-9.77 -9.771)" fill="#868ff8"/><path d="M10.236,25.05h-3.5a.507.507,0,0,0,0,1.014h3.5a.507.507,0,0,0,0-1.014Z" transform="translate(-6.225 -15.502)" fill="#868ff8"/><path d="M25.557,10.743a.507.507,0,0,0,.507-.507v-3.5a.507.507,0,0,0-1.014,0v3.5A.507.507,0,0,0,25.557,10.743Z" transform="translate(-15.501 -6.226)" fill="#868ff8"/><path d="M44.563,43.846a.507.507,0,0,0-.717.717l2.477,2.477a.507.507,0,1,0,.717-.717Z" transform="translate(-24.69 -24.691)" fill="#868ff8"/><path d="M37.458,48.868a.507.507,0,0,0-.507.507v3.5a.507.507,0,1,0,1.014,0v-3.5A.507.507,0,0,0,37.458,48.868Z" transform="translate(-21.366 -27.239)" fill="#868ff8"/><path d="M52.879,36.95h-3.5a.507.507,0,0,0,0,1.014h3.5a.507.507,0,0,0,0-1.014Z" transform="translate(-27.239 -21.366)" fill="#868ff8"/></g></g></g></svg>