<svg xmlns="http://www.w3.org/2000/svg" width="30" height="30" viewBox="0 0 30 30"><g transform="translate(-56 -315)"><g transform="translate(56 315)" fill="#fff" stroke="#707070" stroke-width="1" opacity="0"><rect width="30" height="30" stroke="none"/><rect x="0.5" y="0.5" width="29" height="29" fill="none"/></g><g transform="translate(58.209 320.414)"><path d="M28.938,14.5a.9.9,0,0,0-.722-.363h-5.5a4.482,4.482,0,0,0-8.552,0H8.043L7.473,12a1.345,1.345,0,0,0-1.3-1h-2v.9h2a.448.448,0,0,1,.448.332l3.3,12.451a.9.9,0,0,0,.87.663H25.353a.9.9,0,0,0,.861-.636l2.864-9.413A.9.9,0,0,0,28.938,14.5Zm-10.5-2.6a3.586,3.586,0,1,1-3.586,3.586A3.586,3.586,0,0,1,18.437,11.9Zm6.916,12.55H10.79L8.28,15.033h5.7c0,.148-.022.3-.022.448a4.482,4.482,0,1,0,8.964,0v-.448h5.3Z" transform="translate(-4.17 -10.998)" fill="#72c3cc"/><path d="M32.765,45.344a1.345,1.345,0,0,0-.973.448,13.177,13.177,0,0,0-13.272,0,1.345,1.345,0,1,0,.359.9v-.076a12.353,12.353,0,0,1,12.55,0c0,.027,0,.049,0,.076a1.345,1.345,0,1,0,1.345-1.345ZM17.526,47.137a.448.448,0,1,1,.448-.448.448.448,0,0,1-.448.448Zm15.239,0a.448.448,0,1,1,.448-.448A.448.448,0,0,1,32.765,47.137Z" transform="translate(-10.802 -29.208)" fill="#72c3cc"/><rect width="5.827" height="0.896" transform="translate(14.791 11.654)" fill="#72c3cc"/><rect width="0.896" height="0.896" transform="translate(12.998 11.654)" fill="#72c3cc"/><path d="M32.456,17.464v3.008h.9V17.464l1.519,1.183.547-.708L32.9,15.98,30.39,17.939l.547.708Z" transform="translate(-18.638 -13.747)" fill="#72c3cc"/></g></g></svg>