<svg xmlns="http://www.w3.org/2000/svg" width="65" height="65" viewBox="0 0 65 65"><g transform="translate(2 267)"><rect width="65" height="65" transform="translate(-2 -267)" fill="#fff" opacity="0"/><g transform="translate(7.201 -258.534)"><path d="M51.683,20.43a3.741,3.741,0,0,0,3.737-3.737V4.737A3.741,3.741,0,0,0,51.683,1H36.737A3.741,3.741,0,0,0,33,4.737V16.694a3.741,3.741,0,0,0,3.737,3.737h5.231v12a2.248,2.248,0,0,1-.228.985l-.627-3.133a4.83,4.83,0,0,0-4.724-3.873,1.894,1.894,0,0,0-1.576,2.945l.769,1.154a3.334,3.334,0,0,1,.532,1.43l.529,4.238a3.741,3.741,0,0,0,.718,1.778l1.617,2.155v1.246H37.484v5.979H55.419V41.355H53.925V40.037l1.1-2.2a3.758,3.758,0,0,0,.395-1.671v-9.01a2.235,2.235,0,0,0-3.076-2.078,2.223,2.223,0,0,0-2.989-1.495,2.2,2.2,0,0,0-2.9-1.522V20.43ZM36.737,18.935a2.245,2.245,0,0,1-2.242-2.242V4.737a2.245,2.245,0,0,1,2.242-2.242H51.683a2.245,2.245,0,0,1,2.242,2.242V16.694a2.245,2.245,0,0,1-2.242,2.242H46.452V17.377a3.02,3.02,0,0,0,.543.064,3.066,3.066,0,0,0,2.154-.892l1.04-1.04a2.551,2.551,0,0,0,0-3.608l-1.318-1.318a2.084,2.084,0,0,0-1.485-.615h-.1a2.088,2.088,0,0,0-1.877,1.161.6.6,0,0,1-.541.334h-.1a.6.6,0,0,1-.427-.177l-.7-.7a.6.6,0,0,1-.178-.428v-.1a.6.6,0,0,1,.334-.541,2.088,2.088,0,0,0,1.161-1.877v-.1a2.083,2.083,0,0,0-.615-1.484L43.024,4.737a2.612,2.612,0,0,0-3.608,0l-1.04,1.04A3.11,3.11,0,0,0,37.484,8a3.023,3.023,0,0,0,.247,1.2,14.933,14.933,0,0,0,4.761,6.07,2.222,2.222,0,0,0-.524,1.423v2.242Zm7.225-4.458A13.443,13.443,0,0,1,39.1,8.612a1.65,1.65,0,0,1-.126-.682,1.564,1.564,0,0,1,.454-1.1l1.04-1.04a1.1,1.1,0,0,1,1.495,0l1.318,1.318a.6.6,0,0,1,.177.428v.1a.6.6,0,0,1-.334.541,2.088,2.088,0,0,0-1.161,1.877v.1a2.083,2.083,0,0,0,.615,1.484l.7.7a2.082,2.082,0,0,0,1.485.616h.1A2.088,2.088,0,0,0,46.746,11.8a.6.6,0,0,1,.541-.334h.1a.6.6,0,0,1,.427.177l1.318,1.318a1.057,1.057,0,0,1,0,1.495l-1.04,1.04a1.59,1.59,0,0,1-1.791.291l-.064-.032a2.24,2.24,0,0,0-2.027-1.3A2.082,2.082,0,0,0,43.962,14.477Zm9.963,31.362H38.978V42.849H53.925ZM47.2,23.419a.749.749,0,0,1,.747.747v5.978h1.495V25.661a.747.747,0,1,1,1.495,0v4.484H52.43V27.156a.747.747,0,1,1,1.495,0v9.01a2.246,2.246,0,0,1-.237,1L52.43,39.684v1.671H40.473V39.611l-1.915-2.554a2.255,2.255,0,0,1-.431-1.067L37.6,31.753a4.84,4.84,0,0,0-.772-2.074l-.769-1.154a.4.4,0,0,1-.067-.222.4.4,0,0,1,.4-.4,3.332,3.332,0,0,1,3.258,2.671l.96,4.8H42.43l.638-1.276a3.758,3.758,0,0,0,.395-1.671V16.694a.747.747,0,1,1,1.495,0V30.145h1.495V24.167A.749.749,0,0,1,47.2,23.419Z" transform="translate(-9.086 -1)" fill="#37236a"/><path d="M19.683,33H4.737A3.741,3.741,0,0,0,1,36.737V48.694A3.741,3.741,0,0,0,4.737,52.43H19.683a3.741,3.741,0,0,0,3.737-3.737V36.737A3.741,3.741,0,0,0,19.683,33Zm2.242,15.694a2.245,2.245,0,0,1-2.242,2.242H4.737a2.245,2.245,0,0,1-2.242-2.242V36.737a2.245,2.245,0,0,1,2.242-2.242H19.683a2.245,2.245,0,0,1,2.242,2.242Z" transform="translate(-1 -9.086)" fill="#37236a"/><path d="M19.683,1H4.737A3.741,3.741,0,0,0,1,4.737V16.694A3.741,3.741,0,0,0,4.737,20.43H19.683a3.741,3.741,0,0,0,3.737-3.737V4.737A3.741,3.741,0,0,0,19.683,1Zm2.242,15.694a2.245,2.245,0,0,1-2.242,2.242H4.737a2.245,2.245,0,0,1-2.242-2.242V4.737A2.245,2.245,0,0,1,4.737,2.495H19.683a2.245,2.245,0,0,1,2.242,2.242Z" transform="translate(-1 -1)" fill="#37236a"/><path d="M13.978,5A5.985,5.985,0,0,0,8,10.978v1.495a5.985,5.985,0,0,0,5.978,5.979V16.957a4.488,4.488,0,0,1-4.484-4.484V10.978a4.484,4.484,0,0,1,8.968,0v3.737a.747.747,0,0,1-1.495,0V10.978a2.989,2.989,0,0,0-5.978,0v1.495a2.992,2.992,0,0,0,2.989,2.989,2.954,2.954,0,0,0,1.526-.433,2.237,2.237,0,0,0,4.452-.314V10.978A5.985,5.985,0,0,0,13.978,5Zm0,8.968a1.5,1.5,0,0,1-1.495-1.495V10.978a1.495,1.495,0,0,1,2.989,0v1.495A1.5,1.5,0,0,1,13.978,13.968Z" transform="translate(-2.769 -2.011)" fill="#37236a"/><path d="M5,49.462H21.441V39H5Zm5.729-3.775a4.341,4.341,0,0,0,4.983,0l2.851,2.281H7.878Zm6.1-1.019,3.116-3.116V47.16Zm-1.587-.527a2.931,2.931,0,0,1-4.046,0L7.551,40.495H18.89Zm-5.633.526L6.495,47.16V41.551Z" transform="translate(-2.011 -10.602)" fill="#37236a"/></g></g></svg>