<svg xmlns="http://www.w3.org/2000/svg" width="65" height="65" viewBox="0 0 65 65"><g transform="translate(2 267)"><rect width="65" height="65" transform="translate(-2 -267)" fill="#fff" opacity="0"/><g transform="translate(12.57 -252.711)"><path d="M11.251,34.936l.007.007.031.031a21.491,21.491,0,0,0,14.727,6.167,15.593,15.593,0,0,0,5.675-1.015,2,2,0,0,0,1.262-1.863V35.629a2.662,2.662,0,0,0-1.3-2.276l-4.735-2.81a1.665,1.665,0,0,0-2.271.551l-1.966,3.147c-.151.241-.511.157-.581.137a14.012,14.012,0,0,1-6.4-3.941,14.014,14.014,0,0,1-3.941-6.4c-.02-.07-.1-.43.137-.581.478-.3,1.119-.7,1.745-1.09l1.4-.875a1.666,1.666,0,0,0,.551-2.274l-2.809-4.735a2.661,2.661,0,0,0-2.275-1.294H7.878a2,2,0,0,0-1.862,1.26c-2.471,6.323-.308,14.89,5.144,20.395ZM7.362,14.974a.549.549,0,0,1,.515-.339h2.635a1.21,1.21,0,0,1,1.033.588l2.807,4.732a.229.229,0,0,1-.073.313l-1.4.875c-.626.391-1.269.791-1.747,1.092a1.909,1.909,0,0,0-.764,2.187,15.583,15.583,0,0,0,4.314,7.038,15.581,15.581,0,0,0,7.038,4.313,1.912,1.912,0,0,0,2.187-.764l1.967-3.148a.228.228,0,0,1,.31-.073l4.733,2.808a1.21,1.21,0,0,1,.589,1.034v2.635a.551.551,0,0,1-.341.516c-5.823,2.277-13.756.239-18.873-4.845l-.049-.052-.061-.058C7.117,28.707,5.089,20.79,7.362,14.974ZM40.419,5H21.069a.722.722,0,0,0-.723.723V20.174a.722.722,0,0,0,.723.723h.971L20.4,24.792a.723.723,0,0,0,1.009.916L30.348,20.9H40.419a.722.722,0,0,0,.723-.723V5.723A.722.722,0,0,0,40.419,5ZM39.7,19.452h-9.53a.724.724,0,0,0-.343.086l-7.295,3.928,1.266-3.011a.723.723,0,0,0-.666-1H21.792V6.445H39.7Zm-3.372-7.989H25.164V10.018h11.16Zm0,4.416H25.164V14.434h11.16Z" transform="translate(-5 -5)" fill="#37236a"/></g></g></svg>