<svg xmlns="http://www.w3.org/2000/svg" width="15.036" height="15.036" viewBox="0 0 15.036 15.036"><defs><style>.a{fill:#fff;stroke:#fff;stroke-width:0.5px;}</style></defs><g transform="translate(0.25 0.25)"><path class="a" d="M14.536,7.268a7.268,7.268,0,1,0-7.268,7.268A7.276,7.276,0,0,0,14.536,7.268Zm-13.809,0a6.542,6.542,0,1,1,6.542,6.542A6.549,6.549,0,0,1,.726,7.268Z"/><path class="a" d="M166.665,133.336l2.042-2.042a.363.363,0,1,0-.513-.513l-1.423,1.423v-5.439a.365.365,0,0,0-.729,0V132.2l-1.423-1.423a.363.363,0,0,0-.513.513l2.042,2.042a.369.369,0,0,0,.516,0Z" transform="translate(-159.139 -122.653)"/></g></svg>