<svg xmlns="http://www.w3.org/2000/svg" width="20" height="20" viewBox="0 0 20 20"><defs><style>.a{fill:none;}.b{fill:#f79e67;}</style></defs><rect class="a" width="20" height="20"/><path class="b" d="M14.5,2h-9A1.5,1.5,0,0,0,4,3.5v12A1.5,1.5,0,0,0,5.5,17h5.378a1.5,1.5,0,0,0,1.065-.442l3.615-3.615A1.5,1.5,0,0,0,16,11.877V3.5A1.5,1.5,0,0,0,14.5,2ZM6.25,5.375A.375.375,0,0,1,6.625,5h6.75a.375.375,0,0,1,.375.375v.75a.375.375,0,0,1-.375.375H6.625a.375.375,0,0,1-.375-.375ZM10.375,9.5H6.625a.375.375,0,0,1-.375-.375v-.75A.375.375,0,0,1,6.625,8h3.75a.375.375,0,0,1,.375.375v.75A.375.375,0,0,1,10.375,9.5Zm.375,6.135V12.5a.75.75,0,0,1,.75-.75h3.135Z" transform="translate(0 0.5)"/></svg>