<svg xmlns="http://www.w3.org/2000/svg" width="17.421" height="18.186" viewBox="0 0 17.421 18.186"><defs><style>.a{fill:#ff6f11;}</style></defs><path class="a" d="M20.98,5.326h-4.7v-.65A2.269,2.269,0,0,0,14,2.4H12.24A2.269,2.269,0,0,0,9.965,4.676v.65h-4.7a.861.861,0,1,0,0,1.721h.631V17.431a3.158,3.158,0,0,0,3.155,3.155h8.127a3.158,3.158,0,0,0,3.155-3.155V7.066h.631a.87.87,0,0,0,.019-1.74ZM11.7,4.695a.535.535,0,0,1,.535-.535H14a.535.535,0,0,1,.535.535v.65H11.7Zm6.9,12.736a1.432,1.432,0,0,1-1.434,1.434H9.047a1.432,1.432,0,0,1-1.434-1.434V7.066h11Z" transform="translate(-4.4 -2.4)"/><path class="a" d="M34.179,47.33a.877.877,0,0,0,1.224,0l1.587-1.587,1.587,1.587a.877.877,0,0,0,1.224,0,.854.854,0,0,0,0-1.224l-1.587-1.587L39.8,42.932a.865.865,0,0,0-1.224-1.224L37.009,43.3l-1.587-1.587A.865.865,0,0,0,34.2,42.932l1.587,1.587L34.2,46.106A.872.872,0,0,0,34.179,47.33Z" transform="translate(-28.289 -33.983)"/></svg>