<svg xmlns="http://www.w3.org/2000/svg" width="20" height="20" viewBox="0 0 20 20"><defs><style>.a{fill:none;}.b{fill:#37236a;}</style></defs><rect class="a" width="20" height="20"/><path class="b" d="M13.217,36.018l-.815-.844a.423.423,0,0,0-.262-.087.314.314,0,0,0-.233.087L4.25,42.859,1.427,40.035a.276.276,0,0,0-.233-.116.36.36,0,0,0-.262.116l-.815.815A.363.363,0,0,0,0,41.112a.277.277,0,0,0,.116.233l3.872,3.9a.424.424,0,0,0,.262.087.313.313,0,0,0,.233-.087l8.734-8.734a.363.363,0,0,0,.116-.262A.276.276,0,0,0,13.217,36.018ZM3.925,39.531a.428.428,0,0,0,.264.088.317.317,0,0,0,.235-.088l6.092-6.092a.367.367,0,0,0,.118-.264.28.28,0,0,0-.118-.235l-.822-.852A.429.429,0,0,0,9.43,32a.317.317,0,0,0-.235.088L4.189,37.123l-1.8-1.8a.278.278,0,0,0-.235-.118.363.363,0,0,0-.264.118l-.822.822a.367.367,0,0,0-.118.264.28.28,0,0,0,.118.235Z" transform="translate(3.333 -28.667)"/></svg>