<svg xmlns="http://www.w3.org/2000/svg" width="20" height="20" viewBox="0 0 20 20"><defs><style>.a,.b{fill:none;}.b{stroke:#fff;stroke-linecap:round;stroke-linejoin:round;stroke-width:1.3px;}</style></defs><rect class="a" width="20" height="20"/><g transform="translate(2.5 2.5)"><path class="b" d="M18.078,12.422a4,4,0,1,1-5.657,0,4,4,0,0,1,5.657,0" transform="translate(-4.25 -4.25)"/><path class="b" d="M17.25,18.25v-4" transform="translate(-6.25 -5.25)"/><path class="b" d="M16.5,14.25,15,15.75" transform="translate(-5.5 -5.25)"/><path class="b" d="M17.25,14.25l1.5,1.5" transform="translate(-6.25 -5.25)"/><path class="b" d="M5.75,13.75h-4a1,1,0,0,1-1-1h0v-11h0a1,1,0,0,1,1-1H8.836a1,1,0,0,1,.707.293l1.915,1.915h0a1,1,0,0,1,.293.707V5.75" transform="translate(-0.75 -0.75)"/><path class="b" d="M5.125,5.625h0a.25.25,0,1,1-.25.25h0a.25.25,0,0,1,.25-.25" transform="translate(-2.125 -2.375)"/><path class="b" d="M9.307,9.029,8.75,8.139h0a.5.5,0,0,0-.825-.009l-1.333,1.9L5.77,9.372h0a.5.5,0,0,0-.7.077q-.014.017-.026.035L3.75,12.139h3" transform="translate(-1.75 -3.139)"/></g></svg>