<svg xmlns="http://www.w3.org/2000/svg" width="16.05" height="18.3" viewBox="0 0 16.05 18.3"><defs><style>.a{fill:#f21905;stroke:#d0150f;stroke-width:0.3px;}</style></defs><path class="a" d="M10.406,15.188h.562a.281.281,0,0,0,.281-.281V5.344a.281.281,0,0,0-.281-.281h-.562a.281.281,0,0,0-.281.281v9.563A.281.281,0,0,0,10.406,15.188Zm-5.625,0h.562a.281.281,0,0,0,.281-.281V5.344a.281.281,0,0,0-.281-.281H4.781a.281.281,0,0,0-.281.281v9.563A.281.281,0,0,0,4.781,15.188ZM15.469,2.25H11.813L10.631.675A1.688,1.688,0,0,0,9.281,0H6.469a1.687,1.687,0,0,0-1.35.675L3.938,2.25H.281A.281.281,0,0,0,0,2.531v.563a.281.281,0,0,0,.281.281h.844V16.312A1.687,1.687,0,0,0,2.812,18H12.937a1.688,1.688,0,0,0,1.688-1.688V3.375h.844a.281.281,0,0,0,.281-.281V2.531A.281.281,0,0,0,15.469,2.25Zm-9.45-.9a.566.566,0,0,1,.45-.225H9.281a.566.566,0,0,1,.45.225l.675.9H5.344ZM13.5,16.312a.563.563,0,0,1-.562.563H2.813a.563.563,0,0,1-.562-.563V3.375H13.5ZM7.594,15.188h.562a.281.281,0,0,0,.281-.281V5.344a.281.281,0,0,0-.281-.281H7.594a.281.281,0,0,0-.281.281v9.563A.281.281,0,0,0,7.594,15.188Z" transform="translate(0.15 0.15)"/></svg>