<svg xmlns="http://www.w3.org/2000/svg" width="20" height="20" viewBox="0 0 20 20"><defs><style>.a{fill:none;}.b{fill:#fd5555;}</style></defs><rect class="a" width="20" height="20"/><path class="b" d="M15.5,8A7.5,7.5,0,1,0,23,15.5,7.5,7.5,0,0,0,15.5,8Zm0,3.327a1.27,1.27,0,1,1-1.27,1.27A1.27,1.27,0,0,1,15.5,11.327Zm1.694,7.681a.363.363,0,0,1-.363.363H14.169a.363.363,0,0,1-.363-.363v-.726a.363.363,0,0,1,.363-.363h.363V15.984h-.363a.363.363,0,0,1-.363-.363V14.9a.363.363,0,0,1,.363-.363H16.1a.363.363,0,0,1,.363.363v3.024h.363a.363.363,0,0,1,.363.363Z" transform="translate(-5.5 -5.5)"/></svg>