<svg xmlns="http://www.w3.org/2000/svg" width="29" height="29" viewBox="0 0 29 29"><defs><style>.a{fill:#f7f7f7;}.b,.c{fill:#707070;}.c{fill-rule:evenodd;}</style></defs><g transform="translate(-29 -390)"><rect class="a" width="29" height="29" rx="5" transform="translate(29 390)"/><g transform="translate(-41 -74)"><g transform="translate(77 469)"><g transform="translate(0)"><path class="b" d="M51,3.62V17.733a.691.691,0,0,0,.65.694H64.874a.691.691,0,0,0,.65-.694V3.62a.691.691,0,0,0-.65-.694H62.923V1.994a.691.691,0,0,0-.65-.694H60.083A2.366,2.366,0,0,0,58.262,0a2.257,2.257,0,0,0-1.778,1.3H54.36a.691.691,0,0,0-.65.694v.986c-.033-.011-.076-.054-.108-.054H51.65A.691.691,0,0,0,51,3.62ZM55.01,2.6h1.9a.636.636,0,0,0,.618-.423c.1-.271.412-.845.737-.845.347,0,.694.585.8.867a.638.638,0,0,0,.607.4h1.951V5.636H55.01ZM52.3,4.227h1.3c.033,0,.076.043.108.033V6.33a.617.617,0,0,0,.65.607h7.913a.617.617,0,0,0,.65-.607v-2.1h1.3v12.9H52.3Z" transform="translate(-51)"/></g></g><g transform="translate(80.569 477.784)"><path class="c" d="M2.076,6.174a.616.616,0,0,0,.91-.049L7.161,1A.616.616,0,1,0,6.207.225l-3.741,4.6-1.418-1.4A.616.616,0,0,0,.182,4.3L2.076,6.174" transform="translate(0.001 0.002)"/></g></g></g></svg>