<svg xmlns="http://www.w3.org/2000/svg" width="12.05" height="13.729" viewBox="0 0 12.05 13.729"><defs><style>.a{fill:#d2d0d4;stroke:#d2d0d4;stroke-width:0.3px;}</style></defs><path class="a" d="M7.763,11.33h.42a.21.21,0,0,0,.21-.21V3.987a.21.21,0,0,0-.21-.21h-.42a.21.21,0,0,0-.21.21v7.134A.21.21,0,0,0,7.763,11.33Zm-4.2,0h.42a.21.21,0,0,0,.21-.21V3.987a.21.21,0,0,0-.21-.21h-.42a.21.21,0,0,0-.21.21v7.134A.21.21,0,0,0,3.567,11.33ZM11.54,1.679H8.813L7.931.5A1.259,1.259,0,0,0,6.924,0h-2.1A1.259,1.259,0,0,0,3.819.5L2.938,1.679H.21a.21.21,0,0,0-.21.21v.42a.21.21,0,0,0,.21.21H.839V12.17A1.259,1.259,0,0,0,2.1,13.429H9.652a1.259,1.259,0,0,0,1.259-1.259V2.518h.629a.21.21,0,0,0,.21-.21v-.42A.21.21,0,0,0,11.54,1.679ZM4.49,1.007A.422.422,0,0,1,4.826.839h2.1a.422.422,0,0,1,.336.168l.5.671H3.987ZM10.071,12.17a.42.42,0,0,1-.42.42H2.1a.42.42,0,0,1-.42-.42V2.518h8.393ZM5.665,11.33h.42a.21.21,0,0,0,.21-.21V3.987a.21.21,0,0,0-.21-.21h-.42a.21.21,0,0,0-.21.21v7.134A.21.21,0,0,0,5.665,11.33Z" transform="translate(0.15 0.15)"/></svg>