<svg xmlns="http://www.w3.org/2000/svg" width="38.132" height="23.311" viewBox="0 0 38.132 23.311"><defs><style>.a,.b{fill:none;stroke:#00a9b3;stroke-miterlimit:10;}.b{stroke-linecap:round;}</style></defs><g transform="translate(-10.275 -25.44)"><ellipse class="a" cx="12.225" cy="5.842" rx="12.225" ry="5.842" transform="matrix(0.949, -0.314, 0.314, 0.949, 10.907, 33.753)"/><path class="a" d="M14.41,44.336l1.572,4.821c1.011,3.065,7.032,3.83,13.44,1.708s10.8-6.319,9.793-9.385L37.643,36.66" transform="translate(-1.667 -5.04)"/><path class="a" d="M57.206,44c6.052.241,10.736,1.944,10.736,4.008,0,2.227-5.47,4.035-12.225,4.035-.922,0-1.823-.031-2.688-.1" transform="translate(-20.051 -8.534)"/><path class="b" d="M61.37,51.6v4.768c0,2.227-5.47,4.035-12.225,4.035a25.663,25.663,0,0,1-9.956-1.687" transform="translate(-13.463 -12.152)"/><path class="a" d="M34.991,35.7s-7.273,1.205-6.157,4.077c.807,2.07,6.812-1.913,7.729,0,1.357,2.83-5.428,4.239-6.911,4.3" transform="translate(-8.478 -4.583)"/><line class="a" x2="2.269" y2="7.493" transform="translate(22.95 31.62)"/></g></svg>