<svg xmlns="http://www.w3.org/2000/svg" width="53.914" height="53.914" viewBox="0 0 53.914 53.914"><circle cx="26.957" cy="26.957" r="26.957" fill="#a396ff"/><g transform="translate(11.687 13.208)"><path d="M1312.014,178.042a.371.371,0,1,0,0-.742h-1.776a.539.539,0,0,0-.538.538v3.552a.539.539,0,0,0,.538.538h3.552a.539.539,0,0,0,.538-.538v-1.2a.371.371,0,1,0-.743,0v1h-3.149v-3.143h1.578Z" transform="translate(-1306.031 -168.124)" fill="#fff"/><path d="M1336.978,172.6a.366.366,0,0,0-.52.05h0l-1.769,2.128-.569-.458a.369.369,0,1,0-.47.569l.006.006.681.551a.588.588,0,0,0,.786-.037l.013-.012,1.893-2.277a.366.366,0,0,0-.049-.52Z" transform="translate(-1328.371 -163.633)" fill="#fff"/><path d="M1309.6,308.584a.539.539,0,0,0,.538.538h3.552a.539.539,0,0,0,.538-.538v-1.2a.371.371,0,0,0-.743,0v1h-3.149v-3.143h1.578a.371.371,0,0,0,0-.742h-1.776a.539.539,0,0,0-.538.538Z" transform="translate(-1305.937 -287.453)" fill="#fff"/><path d="M1336.978,299.8a.366.366,0,0,0-.52.049h0l-1.769,2.128-.569-.458a.369.369,0,1,0-.47.569l.006.006.681.551a.588.588,0,0,0,.786-.037l.013-.012,1.893-2.277a.366.366,0,0,0-.049-.52Z" transform="translate(-1328.371 -282.963)" fill="#fff"/><path d="M1278.881,29h-26.773a1.707,1.707,0,0,0-1.708,1.708V52.9a1.711,1.711,0,0,0,1.708,1.708l14.448.105.006-.743-14.448-.105a.966.966,0,0,1-.965-.965V35.206h28.71V52.9a.967.967,0,0,1-.965.965h-.019l-1.875.105.043.743,1.862-.1a1.714,1.714,0,0,0,1.7-1.708V30.708A1.735,1.735,0,0,0,1278.881,29Zm-27.745,5.464V30.708a.966.966,0,0,1,.965-.965h26.773a.966.966,0,0,1,.965.965v3.756Z" transform="translate(-1250.4 -29)" fill="#fff"/><path d="M1278.923,55.4a1.423,1.423,0,1,0,1.423,1.423h0A1.423,1.423,0,0,0,1278.923,55.4Zm0,2.1a.681.681,0,1,1,.681-.681h0A.679.679,0,0,1,1278.923,57.5Z" transform="translate(-1275.823 -53.767)" fill="#fff"/><path d="M1339.523,55.4a1.423,1.423,0,1,0,1.423,1.423A1.423,1.423,0,0,0,1339.523,55.4Zm0,2.1a.681.681,0,1,1,.681-.681A.679.679,0,0,1,1339.523,57.5Z" transform="translate(-1332.674 -53.767)" fill="#fff"/><path d="M1400.223,55.4a1.423,1.423,0,1,0,1.423,1.423A1.423,1.423,0,0,0,1400.223,55.4Zm0,2.1a.681.681,0,1,1,.681-.681A.679.679,0,0,1,1400.223,57.5Z" transform="translate(-1389.618 -53.767)" fill="#fff"/><path d="M1517.731,71.3h-12.06a.371.371,0,0,0,0,.743h12.06a.372.372,0,0,0,.371-.371.368.368,0,0,0-.371-.371Z" transform="translate(-1489.528 -68.683)" fill="#fff"/><path d="M1629.085,308.6h-3.013a.371.371,0,0,0,0,.743h3.013a.371.371,0,0,0,0-.743Z" transform="translate(-1602.479 -291.299)" fill="#fff"/><path d="M1440.671,359.042h1.268a.371.371,0,0,0,0-.743h-1.268a.371.371,0,1,0,0,.743Z" transform="translate(-1428.55 -337.925)" fill="#fff"/><path d="M1440.671,182.142h14.485a.371.371,0,0,0,0-.742h-14.485a.371.371,0,1,0,0,.742Z" transform="translate(-1428.55 -171.97)" fill="#fff"/><path d="M1440.671,231.943h14.485a.371.371,0,0,0,0-.742h-14.485a.371.371,0,1,0,0,.742Z" transform="translate(-1428.55 -218.688)" fill="#fff"/><path d="M1440.671,309.343h4.7a.371.371,0,0,0,0-.743h-4.7a.371.371,0,1,0,0,.743Z" transform="translate(-1428.55 -291.299)" fill="#fff"/><path d="M9.355,15.636H4.162a2.647,2.647,0,0,1-2.541-1.9h0c-.006,0-.006-.007-.006-.013L.829,10.631a12.631,12.631,0,0,0-.7-2.005L.068,8.483A.722.722,0,0,1,0,8.18a.743.743,0,0,1,.742-.742A3.189,3.189,0,0,1,3.366,8.811l.024.038V1.442A1.444,1.444,0,0,1,5.854.422a1.479,1.479,0,0,1,.438,1.021V6.417a.169.169,0,0,1,.049-.025,1.268,1.268,0,0,1,.521-.111,1.3,1.3,0,0,1,1.18.768c.047-.027.1-.054.142-.074a1.338,1.338,0,0,1,1.77.668,1.344,1.344,0,0,1,2.066,1.138v4.189A2.669,2.669,0,0,1,9.355,15.636ZM.755,8.174h0l.061.142a13.538,13.538,0,0,1,.737,2.122l.786,3.088a1.9,1.9,0,0,0,1.825,1.368H9.355a1.927,1.927,0,0,0,1.924-1.925v-4.2a.61.61,0,0,0-.6-.6h-.011a.611.611,0,0,0-.429.184.592.592,0,0,0-.171.428v1.262a.371.371,0,0,1-.743,0V8.2a.606.606,0,0,0-.6-.6.593.593,0,0,0-.578.468V9.653a.371.371,0,0,1-.371.371H7.759a.371.371,0,0,1-.371-.371V8.193a1.084,1.084,0,0,1,.012-.2V7.574a.553.553,0,0,0-1.107.006L6.3,9.653a.371.371,0,0,1-.742,0V8.137a.28.28,0,0,1-.019-.105V1.442a.691.691,0,0,0-.7-.7.7.7,0,0,0-.7.7V11.534a.371.371,0,0,1-.742,0v-1.38l-.637-.922A2.449,2.449,0,0,0,.755,8.174Z" transform="translate(14.968 14.806)" fill="#fff"/></g></svg>