<svg xmlns="http://www.w3.org/2000/svg" width="16.143" height="18.4" viewBox="0 0 16.143 18.4"><defs><style>.a{fill:#37236a;stroke:#37236a;stroke-width:0.4px;}</style></defs><g transform="translate(-8.81 -5.8)"><path class="a" d="M20.65,6H12.914c-.009,0-.017,0-.026.005a.378.378,0,0,0-.237.1h0L9.12,9.639h0a.371.371,0,0,0-.074.11c0,.011-.008.022-.012.033a.368.368,0,0,0-.02.1c0,.007,0,.014,0,.021V21.647a.375.375,0,0,0,.375.375h8.544a3.726,3.726,0,0,0,3.014-.118l1.741,1.74A1.213,1.213,0,1,0,24.4,21.93l-1.741-1.74a3.729,3.729,0,0,0-1.633-4.953V6.375A.375.375,0,0,0,20.65,6ZM12.539,7.281V9.53H10.29ZM9.76,21.272V10.28h3.154a.375.375,0,0,0,.375-.375V6.75h6.986v8.2a3.732,3.732,0,0,0-3.611,6.244c.028.028.059.052.088.079ZM23.868,22.46a.463.463,0,0,1-.655.655L21.6,21.5a3.384,3.384,0,0,0,.655-.655Zm-1.977-2.424a.373.373,0,0,0-.052.088,2.886,2.886,0,0,1-.962.962.373.373,0,0,0-.089.052,2.985,2.985,0,1,1,1.1-1.1Z" transform="translate(0)"/><path class="a" d="M14.048,21.372h6.729a.333.333,0,0,0,0-.667H14.048a.333.333,0,1,0,0,.667Z" transform="translate(-3.136 -9.164)"/><path class="a" d="M14.048,26.02h6.729a.333.333,0,0,0,0-.667H14.048a.333.333,0,0,0,0,.667Z" transform="translate(-3.136 -12.061)"/><path class="a" d="M18.749,30.335A.333.333,0,0,0,18.416,30H14.048a.333.333,0,0,0,0,.667h4.368A.333.333,0,0,0,18.749,30.335Z" transform="translate(-3.136 -14.957)"/></g></svg>