<svg xmlns="http://www.w3.org/2000/svg" width="29" height="29" viewBox="0 0 29 29"><defs><style>.a{fill:#f7f7f7;}.b{isolation:isolate;}.c{fill:#707070;}</style></defs><g transform="translate(-29 -270)"><rect class="a" width="29" height="29" rx="5" transform="translate(29 270)"/><g class="b" transform="translate(37 276)"><path class="c" d="M48.592,17.066a.723.723,0,0,0,.721.721H61.539a.723.723,0,0,0,.721-.721c0-3.987-1.8-7.41-4.336-8.779a4.522,4.522,0,1,0-4.984,0C50.394,9.656,48.592,13.079,48.592,17.066ZM55.426,1.441a3.075,3.075,0,1,1-3.075,3.075A3.08,3.08,0,0,1,55.426,1.441Zm0,7.626c2.81,0,5.116,3.207,5.368,7.278H50.057C50.309,12.274,52.615,9.068,55.426,9.068Z" transform="translate(-48.592)"/></g></g></svg>