<svg xmlns="http://www.w3.org/2000/svg" width="23.788" height="24.027" viewBox="0 0 23.788 24.027"><defs><style>.a{fill:#00a9b3;}</style></defs><g transform="translate(-8.157 -8)"><g transform="translate(8.157 8)"><path class="a" d="M19.978,23.587a5.647,5.647,0,0,0,2.778-4.881,5.706,5.706,0,0,0-11.413,0,5.647,5.647,0,0,0,2.778,4.881,8.57,8.57,0,0,0-5.932,6.232A2.117,2.117,0,0,0,9.24,32.072c2.1,1.126,5.556,1.2,7.809,1.2s5.706-.075,7.734-1.2a2.016,2.016,0,0,0,1.051-2.253A8.343,8.343,0,0,0,19.978,23.587Zm-7.133-4.881a4.2,4.2,0,1,1,4.2,4.2A4.2,4.2,0,0,1,12.845,18.706ZM24.107,30.8c-1.877.976-5.481.976-7.058.976s-5.181,0-7.058-.976a.606.606,0,0,1-.3-.676c.6-3.154,3.754-5.481,7.358-5.481s6.758,2.328,7.358,5.481A.653.653,0,0,1,24.107,30.8Z" transform="translate(-8.157 -9.246)"/><path class="a" d="M35.315,24.819a8.441,8.441,0,0,0-5.932-6.232,5.647,5.647,0,0,0,2.778-4.881,5.71,5.71,0,0,0-10.136-3.6h0a.682.682,0,0,0-.225.526.709.709,0,0,0,.751.751.682.682,0,0,0,.526-.225h0l.225-.225a4.2,4.2,0,0,1,7.283,2.853,4.282,4.282,0,0,1-3,4.055h-.225a.979.979,0,0,0,0,1.952,7.163,7.163,0,0,1,6.382,5.406.653.653,0,0,1-.3.676,7.954,7.954,0,0,1-2.853.751.741.741,0,0,0-.676.751.709.709,0,0,0,.751.751h.3a10.17,10.17,0,0,0,3.229-.9A2.445,2.445,0,0,0,35.315,24.819Z" transform="translate(-11.556 -8)"/></g></g></svg>