<svg xmlns="http://www.w3.org/2000/svg" width="53.914" height="53.914" viewBox="0 0 53.914 53.914"><circle cx="26.957" cy="26.957" r="26.957" fill="#fd7d7d"/><g transform="translate(10.461 12.163)"><path d="M31.284,27.356A14.872,14.872,0,0,0,19.059,4a15.117,15.117,0,0,0-1.591.087,14.883,14.883,0,1,0,.072,29.583v.02a15.135,15.135,0,0,0,1.519.077,14.873,14.873,0,0,0,12.2-6.378h.022Zm.293-14.321h-2.02a14.847,14.847,0,0,0-1.127-2.126h1.909a13.814,13.814,0,0,1,1.238,2.126Zm.447,1.063a13.686,13.686,0,0,1,.6,2.126H30.51A14.764,14.764,0,0,0,29.96,14.1Zm.855,4.784c0,.178-.007.355-.013.532H30.739c.006-.177.013-.353.013-.532a14.907,14.907,0,0,0-.087-1.595h2.118A13.981,13.981,0,0,1,32.879,18.882Zm-2.213,1.595h2.118a13.727,13.727,0,0,1-.578,2.658H30.13a14.753,14.753,0,0,0,.536-2.658Zm-.9,3.721h2.048A13.773,13.773,0,0,1,30.7,26.324H28.75A14.793,14.793,0,0,0,29.768,24.2ZM29.5,9.846H27.685a14.971,14.971,0,0,0-1.413-1.595h1.607A13.939,13.939,0,0,1,29.5,9.846ZM26.411,7.189H25.059a14.906,14.906,0,0,0-2.811-1.751,13.724,13.724,0,0,1,4.162,1.751ZM2.05,18.882A13.82,13.82,0,1,1,15.87,32.7,13.82,13.82,0,0,1,2.05,18.882Zm23.01,11.694h1.351a13.724,13.724,0,0,1-4.162,1.751A14.906,14.906,0,0,0,25.059,30.576Zm2.817-1.063H26.271a14.969,14.969,0,0,0,1.8-2.126H29.94a13.926,13.926,0,0,1-2.061,2.126Z" transform="translate(-0.972 -3.999)" fill="#fff"/><path d="M18.694,10A11.694,11.694,0,1,0,30.388,21.694,11.694,11.694,0,0,0,18.694,10Zm0,22.325A10.631,10.631,0,1,1,29.325,21.694,10.631,10.631,0,0,1,18.694,32.325Z" transform="translate(-3.796 -6.81)" fill="#fff"/><path d="M25.721,18.658a2.661,2.661,0,0,1,2.658,2.658.532.532,0,1,0,1.063,0,3.724,3.724,0,0,0-3.189-3.678V16.532a.532.532,0,1,0-1.063,0v1.106A3.724,3.724,0,0,0,22,21.315v.532a2.917,2.917,0,0,0,1.8,2.7l3.434,1.431a1.856,1.856,0,0,1,1.145,1.717,2.658,2.658,0,1,1-5.315,0,.532.532,0,0,0-1.063,0,3.724,3.724,0,0,0,3.189,3.678v1.106a.532.532,0,0,0,1.063,0V31.372a3.724,3.724,0,0,0,3.189-3.678,2.917,2.917,0,0,0-1.8-2.7l-3.434-1.431a1.856,1.856,0,0,1-1.145-1.717v-.532A2.661,2.661,0,0,1,25.721,18.658Z" transform="translate(-10.823 -9.621)" fill="#fff"/><path d="M13.595,29H12.532a.532.532,0,1,0,0,1.063h1.063a.532.532,0,1,0,0-1.063Z" transform="translate(-6.138 -15.711)" fill="#fff"/><path d="M13.595,33H12.532a.532.532,0,0,0,0,1.063h1.063a.532.532,0,0,0,0-1.063Z" transform="translate(-6.138 -17.585)" fill="#fff"/><path d="M42.532,30.063h1.063a.532.532,0,1,0,0-1.063H42.532a.532.532,0,0,0,0,1.063Z" transform="translate(-20.192 -15.711)" fill="#fff"/><path d="M43.595,33H42.532a.532.532,0,0,0,0,1.063h1.063a.532.532,0,1,0,0-1.063Z" transform="translate(-20.192 -17.585)" fill="#fff"/></g></svg>