<svg xmlns="http://www.w3.org/2000/svg" width="29" height="29" viewBox="0 0 29 29"><defs><style>.a{fill:#f7f7f7;}.b{fill:#707070;}</style></defs><g transform="translate(-29 -140)"><rect class="a" width="29" height="29" rx="5" transform="translate(29 140)"/><g transform="translate(35 147)"><g transform="translate(0 0)"><path class="b" d="M.588,35.387H1.973V40.93a.6.6,0,0,0,.594.594H6.625a.6.6,0,0,0,.594-.594V36.872H9.693V40.93a.6.6,0,0,0,.594.594h3.86a.6.6,0,0,0,.594-.594V35.387h1.683a.591.591,0,0,0,.416-1.01L9.1,26.529a.591.591,0,0,0-.831-.01L.182,34.368a.594.594,0,0,0-.139.653A.579.579,0,0,0,.588,35.387Zm8.076-7.6L15,34.2h-.851a.6.6,0,0,0-.594.594v5.542H10.881V36.278a.6.6,0,0,0-.594-.594H6.625a.6.6,0,0,0-.594.594v4.058H3.161V34.793a.6.6,0,0,0-.594-.594H2.052Z" transform="translate(0 -26.353)"/></g></g></g></svg>