<svg xmlns="http://www.w3.org/2000/svg" width="25.951" height="25.951" viewBox="0 0 25.951 25.951"><defs><style>.a{fill:#00a9b3;}</style></defs><g transform="translate(-9.797 -9.797)"><g transform="translate(9.797 9.797)"><path class="a" d="M11.59,977.646a6.132,6.132,0,1,0,8.672,8.672l4.564-4.564a6.14,6.14,0,0,0,0-8.672.968.968,0,1,0-1.369,1.369,4.165,4.165,0,0,1,0,5.934l-4.564,4.564a4.2,4.2,0,1,1-5.934-5.934l4.564-4.564a.968.968,0,1,0-1.369-1.369Zm9.129-9.129a6.14,6.14,0,0,0,0,8.672.968.968,0,0,0,1.369-1.369,4.165,4.165,0,0,1,0-5.933l4.564-4.564a4.2,4.2,0,1,1,5.934,5.934l-4.564,4.564a.968.968,0,1,0,1.369,1.369l4.564-4.564a6.132,6.132,0,1,0-8.672-8.672Z" transform="translate(-9.797 -962.159)"/></g></g></svg>