<svg xmlns="http://www.w3.org/2000/svg" width="54" height="54" viewBox="0 0 54 54"><circle cx="27" cy="27" r="27" fill="#6795ea"/><g transform="translate(11.764 12.187)"><path d="M10.922,51.256a.923.923,0,0,0-.922.922v8.85a.923.923,0,0,0,.922.922H13.5a.923.923,0,0,0,.922-.922v-8.85a.923.923,0,0,0-.922-.922Zm2.4,9.587H11.106V52.362h2.212Z" transform="translate(-9.631 -37.423)" fill="#fff"/><path d="M27.922,33.244a.923.923,0,0,0-.922.922V49.657a.923.923,0,0,0,.922.922H30.5a.923.923,0,0,0,.922-.922V34.166a.923.923,0,0,0-.922-.922Zm2.4,16.229H28.106V34.35h2.212Z" transform="translate(-20.363 -26.053)" fill="#fff"/><path d="M44.922,54.256a.923.923,0,0,0-.922.922v7.743a.923.923,0,0,0,.922.922H47.5a.923.923,0,0,0,.922-.922V55.178a.923.923,0,0,0-.922-.922Zm2.4,8.481H45.106V55.362h2.212Z" transform="translate(-31.094 -39.317)" fill="#fff"/><path d="M61.922,41.256a.923.923,0,0,0-.922.922V54.715a.923.923,0,0,0,.922.922H64.5a.923.923,0,0,0,.922-.922V42.178a.923.923,0,0,0-.922-.922Zm2.4,13.274H62.106V42.362h2.212Z" transform="translate(-41.826 -31.111)" fill="#fff"/><path d="M78.922,34.256a.923.923,0,0,0-.922.922V50.3a.923.923,0,0,0,.922.922H81.5a.923.923,0,0,0,.922-.922V35.178a.923.923,0,0,0-.922-.922Zm2.4,15.855H79.106V35.362h2.212Z" transform="translate(-52.557 -26.692)" fill="#fff"/><path d="M38.683,83.256H9.553a.553.553,0,0,0,0,1.106h29.13a.553.553,0,0,0,0-1.106Z" transform="translate(-9 -57.624)" fill="#fff"/><path d="M11.906,25.178a2.4,2.4,0,0,0,2-3.715l3.074-3.247a2.383,2.383,0,0,0,2.413-.015L22.6,22.354a2.4,2.4,0,1,0,4.1.729l2.546-2.1a2.394,2.394,0,0,0,3.864-1.893,2.48,2.48,0,0,0-.027-.345l1.937-.861a2.4,2.4,0,1,0-.435-1.375,2.48,2.48,0,0,0,.027.345l-1.937.861a2.394,2.394,0,0,0-4.123,2.406l-2.459,2.025a2.39,2.39,0,0,0-2.6-.46l-3.293-4.264a2.4,2.4,0,1,0-4.02.032L13.1,20.7a2.4,2.4,0,1,0-1.194,4.473ZM36.98,15.222a1.291,1.291,0,1,1-1.291,1.291A1.292,1.292,0,0,1,36.98,15.222ZM30.711,17.8a1.291,1.291,0,1,1-1.291,1.291A1.292,1.292,0,0,1,30.711,17.8Zm-4.978,6.084A1.291,1.291,0,1,1,24.443,22.6,1.292,1.292,0,0,1,25.734,23.887Zm-7.559-9.038a1.291,1.291,0,1,1-1.291,1.291A1.292,1.292,0,0,1,18.175,14.849Zm-6.268,6.642a1.291,1.291,0,1,1-1.291,1.291A1.292,1.292,0,0,1,11.906,21.491Z" transform="translate(-9.321 -13.742)" fill="#fff"/></g></svg>