<svg xmlns="http://www.w3.org/2000/svg" width="29" height="29" viewBox="0 0 29 29"><defs><style>.a{fill:#f7f7f7;}.b{fill:#707070;}</style></defs><g transform="translate(-29 -198)"><rect class="a" width="29" height="29" rx="5" transform="translate(29 198)"/><path class="b" d="M174.834,80.787h-.071c-.021-.013-.037-.029-.058-.04a14.472,14.472,0,0,1-2.993-2,11.283,11.283,0,0,1-3.047-3.979,8.346,8.346,0,0,1-.755-3.313c-.021-2.213,0-4.426-.015-6.64a1.039,1.039,0,0,1,.441-.894,4.958,4.958,0,0,1,1.464-.748,12.886,12.886,0,0,1,3.157-.608,4.568,4.568,0,0,0,.774-.069h2.132c.387.038.776.069,1.162.109a11.424,11.424,0,0,1,2.986.65,3.867,3.867,0,0,1,1.466.876.729.729,0,0,1,.216.527c0,2.194,0,4.391,0,6.585a8.7,8.7,0,0,1-.88,3.783,11.988,11.988,0,0,1-3.9,4.493,16.057,16.057,0,0,1-2.075,1.264Zm-.037-9.252,5.415,0c.451,0,.451,0,.451-.449q0-2.693,0-5.39a.581.581,0,0,0-.154-.4,3.108,3.108,0,0,0-1.306-.794,13.031,13.031,0,0,0-4.259-.644c-.135,0-.152.054-.152.169,0,.683,0,1.367,0,2.052l0,5.461q-2.851,0-5.7-.006c-.15,0-.141.069-.137.173a7.636,7.636,0,0,0,1.117,3.62,10.531,10.531,0,0,0,3.885,3.651,6,6,0,0,0,.828.414Z" transform="translate(-130.896 140.5)"/></g></svg>