<svg xmlns="http://www.w3.org/2000/svg" width="36.041" height="36.041" viewBox="0 0 36.041 36.041"><defs><style>.a{fill:none;stroke:#86888a;stroke-linecap:round;stroke-linejoin:round;}</style></defs><g transform="translate(0.5 0.5)"><path class="a" d="M27.2,13.987a9.344,9.344,0,1,1-13.215,0,9.344,9.344,0,0,1,13.215,0" transform="translate(5.103 5.103)"/><path class="a" d="M17.25,23.594V14.25" transform="translate(8.447 6.775)"/><path class="a" d="M18.5,14.25l-3.5,3.5" transform="translate(7.193 6.775)"/><path class="a" d="M17.25,14.25l3.5,3.5" transform="translate(8.447 6.775)"/><path class="a" d="M12.43,31.119H3.086A2.336,2.336,0,0,1,.75,28.783h0V3.086h0A2.336,2.336,0,0,1,3.086.75H19.64a2.336,2.336,0,0,1,1.651.684l4.473,4.473h0a2.336,2.336,0,0,1,.684,1.651V12.43" transform="translate(-0.75 -0.75)"/><path class="a" d="M5.459,5.625h0a.584.584,0,1,1-.584.584h0a.584.584,0,0,1,.584-.584" transform="translate(1.549 1.967)"/><path class="a" d="M16.731,10.517l-1.3-2.081h0A1.166,1.166,0,0,0,13.5,8.415l-3.115,4.44L8.469,11.318h0a1.168,1.168,0,0,0-1.642.181q-.032.04-.06.082l-3.017,6.2h7.008" transform="translate(0.922 3.244)"/></g></svg>