<svg xmlns="http://www.w3.org/2000/svg" width="53.914" height="53.914" viewBox="0 0 53.914 53.914"><circle cx="26.957" cy="26.957" r="26.957" fill="#8a95f8"/><g transform="translate(10.825 10.398)"><g transform="translate(0 0)"><path d="M34.943,22.208a5.219,5.219,0,0,0,0-7.381l-.4-.4a5.218,5.218,0,0,0-7.381,0l-4.325,4.325a5.212,5.212,0,0,0-.71,6.492l-3.268,3.268a5.219,5.219,0,0,0,0,7.381l.4.4a5.218,5.218,0,0,0,7.381,0l4.325-4.325a5.212,5.212,0,0,0,.71-6.492Zm-12.334.231a3.888,3.888,0,0,1,1.146-2.768l4.325-4.325a3.914,3.914,0,0,1,5.536,0l.4.4a3.914,3.914,0,0,1,0,5.536l-3.179,3.179-.281-.281a5.22,5.22,0,0,0-7.381,0l-.107.107A3.9,3.9,0,0,1,22.609,22.439Zm7.31,2.948-.224.224a3.915,3.915,0,0,1-5.536,0l-.281-.281.224-.224a3.915,3.915,0,0,1,5.536,0Zm1.27,2.891a3.888,3.888,0,0,1-1.146,2.768l-4.325,4.325a3.914,3.914,0,0,1-5.536,0l-.4-.4a3.914,3.914,0,0,1,0-5.536l3.179-3.179.281.281a5.22,5.22,0,0,0,7.381,0l.107-.107A3.9,3.9,0,0,1,31.189,28.279Z" transform="translate(-10.084 -8.544)" fill="#fff"/><path d="M16.8,17.719a.652.652,0,0,0,.923-.923l-3.186-3.185a.652.652,0,0,0-.923.923Z" transform="translate(-8.726 -8.726)" fill="#fff"/><path d="M11.383,25.05H6.877a.652.652,0,0,0,0,1.3h4.506a.652.652,0,0,0,0-1.3Z" transform="translate(-6.225 -12.769)" fill="#fff"/><path d="M25.7,12.036a.652.652,0,0,0,.652-.652V6.878a.652.652,0,0,0-1.3,0v4.506A.652.652,0,0,0,25.7,12.036Z" transform="translate(-12.769 -6.226)" fill="#fff"/><path d="M44.81,43.888a.652.652,0,1,0-.923.923L47.074,48A.652.652,0,0,0,48,47.074Z" transform="translate(-19.251 -19.251)" fill="#fff"/><path d="M37.6,48.868a.652.652,0,0,0-.652.652v4.506a.652.652,0,1,0,1.3,0V49.521A.652.652,0,0,0,37.6,48.868Z" transform="translate(-16.906 -21.049)" fill="#fff"/><path d="M54.026,36.95H49.521a.652.652,0,0,0,0,1.3h4.506a.652.652,0,0,0,0-1.3Z" transform="translate(-21.048 -16.906)" fill="#fff"/></g></g></svg>