<svg xmlns="http://www.w3.org/2000/svg" width="21.625" height="21.441" viewBox="0 0 21.625 21.441"><defs><style>.a{fill:#00a9b3;}</style></defs><g transform="translate(-9.7 -10.1)"><g transform="translate(9.7 10.1)"><path class="a" d="M33.89,42.314h4.651a2.882,2.882,0,0,0,2.89-2.89V33.59a2.882,2.882,0,0,0-2.89-2.89H33.89A2.882,2.882,0,0,0,31,33.59V39.4A2.9,2.9,0,0,0,33.89,42.314ZM32.366,33.59a1.525,1.525,0,0,1,1.524-1.524h4.651a1.525,1.525,0,0,1,1.524,1.524V39.4a1.525,1.525,0,0,1-1.524,1.524H33.89A1.525,1.525,0,0,1,32.366,39.4Z" transform="translate(-25.403 -25.287)"/><path class="a" d="M29.013,14.094a2.989,2.989,0,0,0,.263-1.182,2.812,2.812,0,1,0-2.812,2.812,2.563,2.563,0,0,0,1.34-.368,9.059,9.059,0,0,1-7.3,14.425A9.041,9.041,0,0,1,13.457,15.04h0a.848.848,0,0,0,.21-.552.875.875,0,0,0-.867-.867.834.834,0,0,0-.683.342h0a10.8,10.8,0,1,0,19.208,6.779A10.862,10.862,0,0,0,29.013,14.094Zm-2.549.026a1.182,1.182,0,1,1,1.182-1.182A1.177,1.177,0,0,1,26.464,14.12Z" transform="translate(-9.7 -10.1)"/><path class="a" d="M42.3,42.509h2.444a.6.6,0,1,0,0-1.209H42.3a.611.611,0,0,0-.6.6A.594.594,0,0,0,42.3,42.509Z" transform="translate(-33.287 -33.102)"/><path class="a" d="M42.3,51.309h3.626a.6.6,0,0,0,0-1.209H42.3a.611.611,0,0,0-.6.6A.594.594,0,0,0,42.3,51.309Z" transform="translate(-33.287 -39.59)"/><path class="a" d="M42.3,60.109h3.626a.6.6,0,0,0,0-1.209H42.3a.611.611,0,0,0-.6.6A.594.594,0,0,0,42.3,60.109Z" transform="translate(-33.287 -46.077)"/></g></g></svg>