<svg xmlns="http://www.w3.org/2000/svg" width="22.281" height="20.339" viewBox="0 0 22.281 20.339"><defs><style>.a{fill:#00a9b3;stroke:#00a9b3;stroke-width:0.2px;}</style></defs><g transform="translate(-1.947 -4.47)"><path class="a" d="M23.807,33.944a1.322,1.322,0,0,0-1.546-.477,1.314,1.314,0,0,0-2.056-.951l-.217.143a1.307,1.307,0,0,0-2.06-.911h0c-1.744,1.469-3.859,2.937-4.406,2.937a10.809,10.809,0,0,1-2.6-1.23,10.8,10.8,0,0,0-3.1-1.414c-1.274-.1-5.14,2.159-5.588,2.416A.372.372,0,1,0,2.6,35.1c1.579-.929,4.384-2.365,5.14-2.321a11.885,11.885,0,0,1,2.8,1.322,9.287,9.287,0,0,0,2.89,1.318.271.271,0,0,0,.077,0h2.57a.852.852,0,0,1,0,1.7h-.026a23.631,23.631,0,0,1-3.576,0,6.127,6.127,0,0,1-2.225-1.274.373.373,0,0,0-.5.554,6.705,6.705,0,0,0,2.6,1.469,9.832,9.832,0,0,0,1.505.084c1.068,0,2.174-.077,2.243-.081A1.6,1.6,0,0,0,16.06,34.7H15.2a33.32,33.32,0,0,0,3.158-2.346.573.573,0,0,1,.65.94h-.026l-.029.026-.022.026-.015.07v.411h0a.482.482,0,0,0,.04.044l.026.018.044.033h.026l.055.018h.217a.466.466,0,0,0,.084-.044l1.193-.738a.57.57,0,0,1,.657.933h0l-.386.257a.394.394,0,1,0,.452.646l.367-.257.712-.477a.575.575,0,1,1,.734.885l-.073.051c-4.083,2.842-8.7,5.8-9.378,5.812a8.387,8.387,0,0,1-2.6-1.252,9.5,9.5,0,0,0-2.9-1.384c-1.469-.2-3.756,1.505-4.01,1.711a.375.375,0,0,0,.455.595c.624-.481,2.46-1.7,3.455-1.568A10.359,10.359,0,0,1,10.706,40.4a7.918,7.918,0,0,0,2.985,1.355c1.241,0,8.372-4.964,9.8-5.959l.033-.029a1.318,1.318,0,0,0,.283-1.821Z" transform="translate(0 -17.044)"/><path class="a" d="M20.561,10.026A2.728,2.728,0,1,0,17.84,7.3h0a2.728,2.728,0,0,0,2.721,2.728Zm0-4.7A1.975,1.975,0,1,1,18.585,7.3a1.975,1.975,0,0,1,1.975-1.975Z" transform="translate(-9.994)"/><path class="a" d="M40,10.5a2.093,2.093,0,1,0-1.484-.613A2.093,2.093,0,0,0,40,10.5Zm0-3.44h0A1.344,1.344,0,1,1,38.649,8.4,1.344,1.344,0,0,1,40,7.055Z" transform="translate(-22.688 -1.101)"/><path class="a" d="M26.74,23.194a2.724,2.724,0,1,0,2.724-2.724A2.724,2.724,0,0,0,26.74,23.194Zm2.724-1.975a1.975,1.975,0,1,1-1.975,1.975A1.975,1.975,0,0,1,29.464,21.219Z" transform="translate(-15.626 -10.062)"/></g></svg>