<svg xmlns="http://www.w3.org/2000/svg" width="53.914" height="53.914" viewBox="0 0 53.914 53.914"><circle cx="26.957" cy="26.957" r="26.957" fill="#73c4cc"/><g transform="translate(10.943 16.973)"><path d="M33.575,15.155a1.064,1.064,0,0,0-.857-.431H26.184a5.321,5.321,0,0,0-10.153,0H8.768l-.676-2.538A1.6,1.6,0,0,0,6.549,11H4.17v1.064H6.549a.532.532,0,0,1,.532.394L11,27.24a1.064,1.064,0,0,0,1.032.788H29.318a1.064,1.064,0,0,0,1.022-.756L33.74,16.1A1.064,1.064,0,0,0,33.575,15.155ZM21.108,12.063a4.257,4.257,0,1,1-4.257,4.257A4.257,4.257,0,0,1,21.108,12.063Zm8.211,14.9H12.029L9.05,15.788h6.763c0,.176-.027.351-.027.532a5.321,5.321,0,0,0,10.642,0v-.532h6.3Z" transform="translate(-4.17 -10.998)" fill="#fff"/><path d="M35.868,45.6a1.6,1.6,0,0,0-1.155.532,15.644,15.644,0,0,0-15.756,0,1.6,1.6,0,1,0,.426,1.064V47.1a14.665,14.665,0,0,1,14.9,0c0,.032,0,.059,0,.09a1.6,1.6,0,1,0,1.6-1.6ZM17.776,47.725a.532.532,0,1,1,.532-.532.532.532,0,0,1-.532.532Zm18.092,0a.532.532,0,1,1,.532-.532A.532.532,0,0,1,35.868,47.725Z" transform="translate(-9.794 -26.438)" fill="#fff"/><rect width="6.918" height="1.064" transform="translate(17.56 13.836)" fill="#fff"/><rect width="1.064" height="1.064" transform="translate(15.432 13.836)" fill="#fff"/><path d="M32.843,17.741v3.571h1.064V17.741l1.8,1.4.649-.841L33.375,15.98,30.39,18.305l.649.841Z" transform="translate(-16.438 -13.329)" fill="#fff"/></g></svg>