<svg xmlns="http://www.w3.org/2000/svg" width="24" height="24" viewBox="0 0 24 24"><defs><style>.a{fill:none;}.b,.c{fill:#37236a;stroke:#352767;stroke-width:0.5px;}.b{fill-rule:evenodd;}</style></defs><rect class="a" width="24" height="24"/><g transform="translate(2.84 3.783)"><path class="b" d="M16.179,3.874a.476.476,0,0,0-.673,0L4.738,14.642a.476.476,0,0,0-.121.206L3.27,19.559a.476.476,0,0,0,.588.588L8.57,18.8a.476.476,0,0,0,.206-.121L19.544,7.912a.476.476,0,0,0,0-.673Zm-9.422,10.1,9.086-9.086,2.692,2.692L9.449,16.661Zm-.673.673,2.692,2.692-.586.586L4.421,19,5.5,15.228Z" transform="translate(-3.252 -3.734)"/><path class="c" d="M9.476,20a.476.476,0,1,0,0,.952h11.9a.476.476,0,1,0,0-.952Z" transform="translate(-3.529 -4.518)"/></g></svg>