<svg xmlns="http://www.w3.org/2000/svg" width="18.786" height="23.533" viewBox="0 0 18.786 23.533"><defs><style>.a{fill:#00a9b3;}</style></defs><g transform="translate(232.5 -362.5)"><path class="a" d="M-215.081,367.657a.593.593,0,0,0-.581-.547H-218.5a4.636,4.636,0,0,0-4.611-4.611,4.614,4.614,0,0,0-4.611,4.611h-2.835a.593.593,0,0,0-.581.547l-1.366,15.233v.068a3.3,3.3,0,0,0,3.484,3.074H-217.2a3.3,3.3,0,0,0,3.484-3.074v-.068Zm-8.027-3.962a3.426,3.426,0,0,1,3.416,3.416h-6.831A3.426,3.426,0,0,1-223.107,363.7Zm5.909,21.176h-11.818a2.181,2.181,0,0,1-2.323-1.879l1.3-14.687h2.323v2.049a.6.6,0,0,0,.581.581.6.6,0,0,0,.581-.581v-2.049h6.865v2.049a.6.6,0,0,0,.581.581.6.6,0,0,0,.581-.581v-2.049h2.323l1.3,14.687A2.123,2.123,0,0,1-217.2,384.872Zm-2.425-7.651a.6.6,0,0,1-.581.581h-2.323v2.323a.6.6,0,0,1-.581.581.6.6,0,0,1-.581-.581V377.8h-2.323a.6.6,0,0,1-.581-.581.6.6,0,0,1,.581-.581h2.323v-2.323a.6.6,0,0,1,.581-.581.6.6,0,0,1,.581.581v2.323h2.323A.576.576,0,0,1-219.623,377.221Z" transform="translate(0)"/></g></svg>