<svg xmlns="http://www.w3.org/2000/svg" width="30" height="30" viewBox="0 0 30 30"><defs><style>.a{fill:#37236a;}.b{fill:none;}</style></defs><g transform="translate(3.75 3.75)"><path class="a" d="M13.25,2A11.25,11.25,0,1,0,24.5,13.25,11.25,11.25,0,0,0,13.25,2ZM8.429,21.591V19.984a2.588,2.588,0,0,1,2.411-2.716h4.821a2.587,2.587,0,0,1,2.411,2.724V21.6a9.579,9.579,0,0,1-9.643,0Zm11.25-1.173v-.49a4.187,4.187,0,0,0-4.018-4.267H10.839a4.179,4.179,0,0,0-4.018,4.267h0V20.4a9.643,9.643,0,1,1,12.857,0Z" transform="translate(-2 -2)"/><path class="a" d="M15.018,7a4.018,4.018,0,1,0,4.018,4.018A4.018,4.018,0,0,0,15.018,7Zm0,6.429a2.411,2.411,0,1,1,2.411-2.411A2.411,2.411,0,0,1,15.018,13.429Z" transform="translate(-3.768 -2.714)"/></g><rect class="b" width="30" height="30"/></svg>