<svg xmlns="http://www.w3.org/2000/svg" width="27.253" height="33.215" viewBox="0 0 27.253 33.215"><defs><style>.a{fill:#00a9b3;stroke:#00a9b3;stroke-width:0.3px;}</style></defs><g transform="translate(-15.268 -7.617)"><g transform="translate(15.418 7.767)"><path class="a" d="M27.1,960.13a1.676,1.676,0,0,0-.451.1s-.008,0-.012,0a.371.371,0,0,0-.073.012.38.38,0,0,0-.073.012l-.024.012a1.678,1.678,0,0,0-.9.913l-2.253,5.443a.4.4,0,0,0,0,.3l3.117,7.38-5.748.012-.913-2.046a.39.39,0,0,0-.256-.219l-3.6-.865a.389.389,0,1,0-.183.755l3.41.816.913,2.046a.381.381,0,0,0,.024.061l2,4.457,3.994,8.963a.39.39,0,0,0,.365.231l13.334-.049a.39.39,0,0,0,0-.779l-13.091.049-1.778-3.97,15.112-.012a.39.39,0,0,0,.207-.061h.012a.392.392,0,0,0,.365-.317l1.766-8.633a.39.39,0,0,0-.377-.475l-3.678.012a1.588,1.588,0,0,0-.073-.256l-4.786-11.349a.394.394,0,0,0-.219-.219l-5.467-2.2a1.713,1.713,0,0,0-.658-.122Zm.012.779a.866.866,0,0,1,.353.061l5.334,2.155,4.688,11.154-10.217.024-3.178-7.538,2.192-5.3a.884.884,0,0,1,.463-.475l.024-.012a.962.962,0,0,1,.341-.073Zm1.279,3.665a.38.38,0,0,0-.073.012.408.408,0,0,0-.292.536l.061.134a2.031,2.031,0,0,0-1.072,2.521,1.573,1.573,0,0,0,1.157.913,2.677,2.677,0,0,0,1.279-.049l.828,2.034c-.611.15-1.234.034-1.449-.5a.393.393,0,1,0-.731.292,1.9,1.9,0,0,0,2.472.925l.037.1a.39.39,0,1,0,.718-.292l-.049-.122a2.037,2.037,0,0,0,1.084-2.533,1.554,1.554,0,0,0-1.145-.913,2.531,2.531,0,0,0-.816-.049,2.817,2.817,0,0,0-.487.11l-.828-2.034c.621-.159,1.255-.053,1.473.487a.39.39,0,1,0,.718-.292,1.753,1.753,0,0,0-2-1.023,3.008,3.008,0,0,0-.475.11l-.049-.11a.4.4,0,0,0-.365-.256Zm-.024,1.4.779,1.924a1.877,1.877,0,0,1-.8.024.765.765,0,0,1-.609-.438A1.241,1.241,0,0,1,28.368,965.975Zm2.423,2.387a1.469,1.469,0,0,1,.256.024.756.756,0,0,1,.6.451,1.265,1.265,0,0,1-.658,1.534l-.779-1.948a2.193,2.193,0,0,1,.585-.061Zm10.7,6.685-1.62,7.927-15.319.012-1.741-3.872a.386.386,0,0,0-.024-.061v-.012c0-.012-.008-.025-.012-.037s-.008-.025-.012-.037L21.037,975.1l20.458-.049ZM29.549,989.075a2,2,0,0,0-2,1.973,2.022,2.022,0,0,0,2,2,2,2,0,0,0,1.973-2A1.98,1.98,0,0,0,29.549,989.075Zm7.659,0a2,2,0,0,0-2,1.973,2.022,2.022,0,0,0,2,2,1.991,1.991,0,0,0,1.961-2A1.97,1.97,0,0,0,37.209,989.075Zm-7.659.792a1.168,1.168,0,0,1,1.181,1.181,1.189,1.189,0,0,1-1.181,1.206,1.21,1.21,0,0,1-1.206-1.206A1.189,1.189,0,0,1,29.549,989.866Zm7.659,0a1.158,1.158,0,0,1,1.169,1.181,1.179,1.179,0,0,1-1.169,1.206,1.22,1.22,0,0,1-1.218-1.206A1.2,1.2,0,0,1,37.209,989.866Z" transform="translate(-15.418 -960.13)"/></g></g></svg>