<svg xmlns="http://www.w3.org/2000/svg" width="53.914" height="53.914" viewBox="0 0 53.914 53.914"><circle cx="26.957" cy="26.957" r="26.957" fill="#feb664"/><g transform="translate(17.595 14.514)"><path d="M35.278,22.385a5.318,5.318,0,0,0,0-7.521l-.412-.412a5.317,5.317,0,0,0-7.521,0L22.938,18.86a5.311,5.311,0,0,0-.723,6.616l-3.33,3.33a5.318,5.318,0,0,0,0,7.521l.412.412a5.317,5.317,0,0,0,7.521,0l4.408-4.408a5.311,5.311,0,0,0,.723-6.616ZM22.71,22.62a3.961,3.961,0,0,1,1.168-2.82l4.408-4.408a3.988,3.988,0,0,1,5.641,0l.412.412a3.989,3.989,0,0,1,0,5.641L31.1,24.685l-.286-.286a5.319,5.319,0,0,0-7.521,0l-.109.109A3.969,3.969,0,0,1,22.71,22.62Zm7.449,3-.228.228a3.99,3.99,0,0,1-5.641,0L24,25.567l.228-.228a3.99,3.99,0,0,1,5.641,0Zm1.294,2.946a3.961,3.961,0,0,1-1.168,2.82L25.877,35.8a3.988,3.988,0,0,1-5.641,0l-.412-.412a3.989,3.989,0,0,1,0-5.641l3.239-3.239.286.286a5.319,5.319,0,0,0,7.521,0l.109-.109A3.969,3.969,0,0,1,31.453,28.571Z" transform="translate(-17.327 -12.895)" fill="#fff"/></g></svg>