<svg xmlns="http://www.w3.org/2000/svg" width="29" height="29" viewBox="0 0 29 29"><defs><style>.a{fill:#f7f7f7;}.b{fill:none;stroke:#707070;stroke-linecap:round;stroke-linejoin:round;stroke-miterlimit:10;}</style></defs><g transform="translate(-29 -330)"><rect class="a" width="29" height="29" rx="5" transform="translate(29 330)"/><g transform="translate(34.002 333.285)"><g transform="translate(1.998 4.715)"><path class="b" d="M16.979,12.929a.631.631,0,0,0-.631-.631H2.629A.631.631,0,0,0,2,12.929v9.308a.98.98,0,0,0,.98.98H16a.98.98,0,0,0,.98-.98Z" transform="translate(-1.998 -9.931)"/><path class="b" d="M23.251,7.082H18.687v-1.8a.566.566,0,0,1,.566-.566h3.433a.566.566,0,0,1,.566.566v1.8Z" transform="translate(-13.478 -4.715)"/></g><g transform="translate(4.455 9.205)"><path class="b" d="M42.122,27.9V19.1" transform="translate(-32.057 -19.102)"/><path class="b" d="M9.872,27.9V19.1" transform="translate(-9.872 -19.102)"/></g><path class="b" d="M30.272,17.075a15.861,15.861,0,0,0,6.158-2.753" transform="translate(-19.45 -6.609)"/><path class="b" d="M2,14.322a15.889,15.889,0,0,0,6.155,2.753" transform="translate(-0.003 -6.609)"/><path class="b" d="M24.353,22.076c0,.361-.612.651-1.364.651s-1.367-.29-1.367-.651a.3.3,0,0,1,.031-.138,1.514,1.514,0,0,1,1.336-.514,1.511,1.511,0,0,1,1.333.514A.3.3,0,0,1,24.353,22.076Z" transform="translate(-13.499 -11.495)"/></g></g></svg>