<svg xmlns="http://www.w3.org/2000/svg" width="12.693" height="16.368" viewBox="0 0 12.693 16.368"><defs><style>.a{isolation:isolate;}.b{fill:#00a9b3;stroke:#fff;stroke-width:0.5px;}</style></defs><g class="a" transform="translate(0.25 0.25)"><path class="b" d="M48.592,15.226a.645.645,0,0,0,.643.643H60.142a.645.645,0,0,0,.643-.643c0-3.557-1.607-6.611-3.868-7.832a4.034,4.034,0,1,0-4.447,0C50.2,8.615,48.592,11.668,48.592,15.226Zm6.1-13.94a2.743,2.743,0,1,1-2.743,2.743A2.748,2.748,0,0,1,54.689,1.286Zm0,6.8c2.507,0,4.564,2.861,4.789,6.493H49.9C50.124,10.95,52.181,8.09,54.689,8.09Z" transform="translate(-48.592)"/></g></svg>