<svg xmlns="http://www.w3.org/2000/svg" xmlns:xlink="http://www.w3.org/1999/xlink" width="15" height="15" viewBox="0 0 15 15"><defs><style>.a{fill:none;}.b{clip-path:url(#a);}.c{fill:#00a9b3;}</style><clipPath id="a"><rect class="a" width="15" height="15" transform="translate(23 287)"/></clipPath></defs><g class="b" transform="translate(-23 -287)"><g transform="translate(23.322 286.944)"><path class="c" d="M5.357,9.283h3.71v.927H5.357Zm0-2.319h5.565v.927H5.357Zm0,4.637H7.676v.927H5.357Z" transform="translate(-0.36 -0.792)"/><path class="c" d="M11.954,2.463H10.562V2a.927.927,0,0,0-.927-.927H5.925A.927.927,0,0,0,5,2v.464H3.606a.927.927,0,0,0-.927.927v9.739a.927.927,0,0,0,.927.927h8.347a.927.927,0,0,0,.927-.927V3.39A.927.927,0,0,0,11.954,2.463ZM5.925,2h3.71V3.854H5.925Zm6.029,11.13H3.606V3.39H5V4.781h5.565V3.39h1.391Z" transform="translate(0)"/></g></g></svg>