<svg xmlns="http://www.w3.org/2000/svg" width="24" height="24" viewBox="0 0 24 24"><defs><style>.a{fill:#d2d0d4;}.b{fill:#b7b5bc;}.c{fill:#878195;}.d{fill:#726d7e;}.e{fill:#ffe17d;}.f{fill:#ffd164;}.g{fill:#9c6846;}.h{fill:#7d5046;}.i{fill:#e6646e;}.j{fill:#dc4655;}</style></defs><circle class="a" cx="12" cy="12" r="12"/><path class="b" d="M13.742,76.945A12,12,0,0,1,4.431,57.376,12,12,0,1,0,21.311,74.255,11.948,11.948,0,0,1,13.742,76.945Z" transform="translate(0 -54.687)"/><path class="c" d="M122.078,306.215a28.629,28.629,0,0,1-6.183-.66.336.336,0,0,0-.385.435,6.821,6.821,0,0,0,13.135,0,.336.336,0,0,0-.385-.435A28.628,28.628,0,0,1,122.078,306.215Z" transform="translate(-110.08 -291.225)"/><path class="d" d="M122.081,307.871a34.825,34.825,0,0,0,5.993-.535,7.219,7.219,0,0,0,.571-1.345.336.336,0,0,0-.385-.435,29.3,29.3,0,0,1-12.365,0,.336.336,0,0,0-.385.435,7.223,7.223,0,0,0,.57,1.344A34.826,34.826,0,0,0,122.081,307.871Z" transform="translate(-110.08 -291.226)"/><path class="c" d="M90,137.538c.658-.827,2.216-3.048,1.327-4.558a1.761,1.761,0,0,0-2.952-.1.439.439,0,0,1-.5.165,1.761,1.761,0,0,0-2.324,1.823c.177,1.743,2.747,2.612,3.767,2.889A.656.656,0,0,0,90,137.538Z" transform="translate(-81.528 -125.936)"/><path class="d" d="M298.885,137.538c-.658-.827-2.216-3.048-1.327-4.558a1.761,1.761,0,0,1,2.952-.1.439.439,0,0,0,.5.165,1.761,1.761,0,0,1,2.324,1.823c-.177,1.743-2.747,2.612-3.767,2.889A.656.656,0,0,1,298.885,137.538Z" transform="translate(-283.355 -125.936)"/><path class="d" d="M90.336,155.915c-1.02-.278-3.59-1.147-3.767-2.889a1.709,1.709,0,0,1,.112-.79,1.842,1.842,0,0,0-.267.123,1.75,1.75,0,0,0-.867,1.678c.177,1.743,2.747,2.612,3.767,2.889A.656.656,0,0,0,90,156.7c.151-.19.351-.457.556-.769A.648.648,0,0,1,90.336,155.915Z" transform="translate(-81.528 -145.099)"/><g transform="translate(13.936 6.193)"><path class="c" d="M298.885,137.538c-.658-.827-2.216-3.048-1.327-4.558a1.761,1.761,0,0,1,2.952-.1.439.439,0,0,0,.5.165,1.761,1.761,0,0,1,2.324,1.823c-.177,1.743-2.747,2.612-3.767,2.889A.656.656,0,0,1,298.885,137.538Z" transform="translate(-297.291 -132.129)"/></g><path class="d" d="M300.184,137.3c-.658-.827-2.216-3.048-1.327-4.558a1.709,1.709,0,0,1,.552-.567c-.054-.011-.1-.029-.159-.036a1.75,1.75,0,0,0-1.692.84c-.888,1.51.669,3.731,1.327,4.558a.656.656,0,0,0,.685.224c.226-.061.529-.154.864-.276A.647.647,0,0,1,300.184,137.3Z" transform="translate(-283.354 -125.936)"/><circle class="e" cx="12" cy="12" r="12"/><path class="f" d="M13.742,76.945A12,12,0,0,1,4.431,57.376,12,12,0,1,0,21.311,74.255,11.948,11.948,0,0,1,13.742,76.945Z" transform="translate(0 -54.686)"/><path class="g" d="M122.078,306.215a28.629,28.629,0,0,1-6.183-.66.336.336,0,0,0-.385.435,6.821,6.821,0,0,0,13.135,0,.336.336,0,0,0-.385-.435A28.628,28.628,0,0,1,122.078,306.215Z" transform="translate(-110.08 -291.225)"/><path class="h" d="M122.081,307.871a34.825,34.825,0,0,0,5.993-.535,7.219,7.219,0,0,0,.571-1.345.336.336,0,0,0-.385-.435,29.3,29.3,0,0,1-12.365,0,.336.336,0,0,0-.385.435,7.223,7.223,0,0,0,.57,1.344A34.826,34.826,0,0,0,122.081,307.871Z" transform="translate(-110.08 -291.226)"/><path class="i" d="M90,137.538c.658-.827,2.216-3.048,1.327-4.558a1.761,1.761,0,0,0-2.952-.1.439.439,0,0,1-.5.165,1.761,1.761,0,0,0-2.324,1.823c.177,1.743,2.747,2.612,3.767,2.889A.656.656,0,0,0,90,137.538Z" transform="translate(-81.528 -125.936)"/><path class="i" d="M298.885,137.538c-.658-.827-2.216-3.048-1.327-4.558a1.761,1.761,0,0,1,2.952-.1.439.439,0,0,0,.5.165,1.761,1.761,0,0,1,2.324,1.823c-.177,1.743-2.747,2.612-3.767,2.889A.656.656,0,0,1,298.885,137.538Z" transform="translate(-283.355 -125.936)"/><path class="j" d="M90.336,155.915c-1.02-.278-3.59-1.147-3.767-2.889a1.709,1.709,0,0,1,.112-.79,1.842,1.842,0,0,0-.267.123,1.75,1.75,0,0,0-.867,1.678c.177,1.743,2.747,2.612,3.767,2.889A.656.656,0,0,0,90,156.7c.151-.19.351-.457.556-.769A.648.648,0,0,1,90.336,155.915Z" transform="translate(-81.528 -145.099)"/><g transform="translate(13.936 6.194)"><path class="i" d="M298.885,137.538c-.658-.827-2.216-3.048-1.327-4.558a1.761,1.761,0,0,1,2.952-.1.439.439,0,0,0,.5.165,1.761,1.761,0,0,1,2.324,1.823c-.177,1.743-2.747,2.612-3.767,2.889A.656.656,0,0,1,298.885,137.538Z" transform="translate(-297.291 -132.129)"/></g><path class="j" d="M300.184,137.3c-.658-.827-2.216-3.048-1.327-4.558a1.709,1.709,0,0,1,.552-.567c-.054-.011-.1-.029-.159-.036a1.75,1.75,0,0,0-1.692.84c-.888,1.51.669,3.731,1.327,4.558a.656.656,0,0,0,.685.224c.226-.061.529-.154.864-.276A.647.647,0,0,1,300.184,137.3Z" transform="translate(-283.354 -125.936)"/></svg>