<svg xmlns="http://www.w3.org/2000/svg" width="24" height="24" viewBox="0 0 24 24"><defs><style>.a{fill:#d2d0d4;}.b{fill:#b7b5bc;}.c{fill:#878195;}.d{fill:#726d7e;}.e{fill:#fff;}.f{fill:#ffe17d;}.g{fill:#ffd164;}.h{fill:#9c6846;}.i{fill:#7d5046;}</style></defs><circle class="a" cx="12" cy="12" r="12"/><path class="b" d="M13.742,76.945A12,12,0,0,1,4.431,57.376,12,12,0,1,0,21.311,74.255,11.948,11.948,0,0,1,13.742,76.945Z" transform="translate(0 -54.687)"/><path class="c" d="M114.323,289.795a28.163,28.163,0,0,1-6.544-.754.374.374,0,0,0-.407.5,7.091,7.091,0,0,0,13.9,0,.374.374,0,0,0-.407-.5A28.164,28.164,0,0,1,114.323,289.795Z" transform="translate(-102.323 -275.483)"/><g transform="translate(5.032 7.354)"><path class="d" d="M120.867,289.041a28.782,28.782,0,0,1-13.087,0,.374.374,0,0,0-.407.5,8.516,8.516,0,0,0,1.087,2.374,30.645,30.645,0,0,0,11.728,0,8.515,8.515,0,0,0,1.087-2.374A.374.374,0,0,0,120.867,289.041Z" transform="translate(-107.355 -282.839)"/><path class="d" d="M149.613,160.406h0a.968.968,0,0,1-.968-.968v-1.568a.968.968,0,0,1,.968-.968h0a.968.968,0,0,1,.968.968v1.568A.968.968,0,0,1,149.613,160.406Z" transform="translate(-146.71 -156.903)"/></g><path class="c" d="M165.355,156.9a.971.971,0,0,0-.194.02v2.129a.581.581,0,1,0,1.161,0v-1.181A.968.968,0,0,0,165.355,156.9Z" transform="translate(-157.419 -149.548)"/><path class="d" d="M323.033,160.406h0a.968.968,0,0,1-.968-.968v-1.568a.968.968,0,0,1,.968-.968h0a.968.968,0,0,1,.968.968v1.568A.968.968,0,0,1,323.033,160.406Z" transform="translate(-306.968 -149.548)"/><path class="c" d="M338.775,156.9a.972.972,0,0,0-.194.02v2.129a.581.581,0,1,0,1.161,0v-1.181A.968.968,0,0,0,338.775,156.9Z" transform="translate(-322.71 -149.548)"/><path class="e" d="M144.5,294.18a7.158,7.158,0,0,0,.531-1.143,28.934,28.934,0,0,1-11.476,0,7.149,7.149,0,0,0,.536,1.147,1.494,1.494,0,0,0,1.1.737,33.6,33.6,0,0,0,8.2,0A1.5,1.5,0,0,0,144.5,294.18Z" transform="translate(-127.292 -279.301)"/><circle class="f" cx="12" cy="12" r="12"/><path class="g" d="M13.742,76.945A12,12,0,0,1,4.431,57.376,12,12,0,1,0,21.311,74.255,11.948,11.948,0,0,1,13.742,76.945Z" transform="translate(0 -54.686)"/><path class="h" d="M114.323,289.795a28.163,28.163,0,0,1-6.544-.754.374.374,0,0,0-.407.5,7.091,7.091,0,0,0,13.9,0,.374.374,0,0,0-.407-.5A28.164,28.164,0,0,1,114.323,289.795Z" transform="translate(-102.323 -275.484)"/><g transform="translate(5.032 7.355)"><path class="i" d="M120.867,289.041a28.782,28.782,0,0,1-13.087,0,.374.374,0,0,0-.407.5,8.516,8.516,0,0,0,1.087,2.374,30.645,30.645,0,0,0,11.728,0,8.515,8.515,0,0,0,1.087-2.374A.374.374,0,0,0,120.867,289.041Z" transform="translate(-107.355 -282.839)"/><path class="i" d="M149.613,160.406h0a.968.968,0,0,1-.968-.968v-1.568a.968.968,0,0,1,.968-.968h0a.968.968,0,0,1,.968.968v1.568A.968.968,0,0,1,149.613,160.406Z" transform="translate(-146.71 -156.903)"/></g><path class="h" d="M165.355,156.9a.971.971,0,0,0-.194.02v2.129a.581.581,0,1,0,1.161,0v-1.181A.968.968,0,0,0,165.355,156.9Z" transform="translate(-157.419 -149.548)"/><path class="i" d="M323.033,160.406h0a.968.968,0,0,1-.968-.968v-1.568a.968.968,0,0,1,.968-.968h0a.968.968,0,0,1,.968.968v1.568A.968.968,0,0,1,323.033,160.406Z" transform="translate(-306.968 -149.548)"/><path class="h" d="M338.775,156.9a.972.972,0,0,0-.194.02v2.129a.581.581,0,1,0,1.161,0v-1.181A.968.968,0,0,0,338.775,156.9Z" transform="translate(-322.71 -149.548)"/><path class="e" d="M144.5,294.18a7.158,7.158,0,0,0,.531-1.143,28.934,28.934,0,0,1-11.476,0,7.149,7.149,0,0,0,.536,1.147,1.494,1.494,0,0,0,1.1.737,33.6,33.6,0,0,0,8.2,0A1.5,1.5,0,0,0,144.5,294.18Z" transform="translate(-127.292 -279.301)"/></svg>