<svg xmlns="http://www.w3.org/2000/svg" width="24" height="24" viewBox="0 0 24 24"><defs><style>.a{fill:#d2d0d4;}.b{fill:#b7b5bc;}.c{fill:#726d7e;}.d{fill:#fff;}.e{fill:#878195;}.f{fill:#a7a3b1;}.g{fill:#ffe17d;}.h{fill:#ffd164;}.i{fill:#aa7346;}.j{fill:#9c6846;}.k{fill:#7d5046;}.l{fill:#a5cdff;}.m{fill:#8cb4eb;}</style></defs><circle class="a" cx="12" cy="12" r="12"/><path class="b" d="M13.742,76.945A12,12,0,0,1,4.431,57.376,12,12,0,1,0,21.311,74.255,11.948,11.948,0,0,1,13.742,76.945Z" transform="translate(0 -54.687)"/><g transform="translate(4.935 7.645)"><path class="c" d="M105.772,165.617a.484.484,0,0,1-.217-.917l3.1-1.548a.484.484,0,1,1,.432.866l-3.1,1.548A.483.483,0,0,1,105.772,165.617Z" transform="translate(-105.288 -163.1)"/><path class="c" d="M323.577,165.6a.48.48,0,0,1-.216-.051l-3.1-1.548a.484.484,0,1,1,.432-.866l3.1,1.548a.484.484,0,0,1-.217.917Z" transform="translate(-309.932 -163.088)"/></g><path class="c" d="M216.586,302.352h0a1.935,1.935,0,0,1-1.935-1.935v-1.161a1.935,1.935,0,0,1,1.935-1.935h0a1.935,1.935,0,0,1,1.935,1.935v1.161A1.935,1.935,0,0,1,216.586,302.352Z" transform="translate(-204.589 -283.383)"/><path class="d" d="M215.486,298.867h3.793a1.936,1.936,0,0,0-1.9-1.547h0A1.936,1.936,0,0,0,215.486,298.867Z" transform="translate(-205.385 -283.383)"/><path class="e" d="M214.651,330.71v.773h3.871v-.773a1.943,1.943,0,0,0-.039-.388H214.69A1.94,1.94,0,0,0,214.651,330.71Z" transform="translate(-204.589 -314.838)"/><path class="f" d="M102.108,247.059c-.246,1.46-.931,1.49-1.113,3.16-.194,1.785.576,1.873.382,3.658-.179,1.654-.852,1.7-1.1,3.123a11.968,11.968,0,0,0,3.435,1.838c.064-1.737.768-1.827.768-3.728,0-1.99-.774-1.99-.774-3.981s.774-1.989.774-3.978Z" transform="translate(-95.574 -235.479)"/><path class="c" d="M123.808,230.906a2.478,2.478,0,0,1-1.925-.955.484.484,0,1,1,.754-.607,1.452,1.452,0,0,0,2.343,0,.484.484,0,0,1,.755.606A2.477,2.477,0,0,1,123.808,230.906Z" transform="translate(-116.068 -218.423)"/><path class="e" d="M104.266,410.241a12.018,12.018,0,0,1-3.022-2.007c-.267.975-.76,1.217-.968,2.386h0a11.966,11.966,0,0,0,3.435,1.838A6.285,6.285,0,0,1,104.266,410.241Z" transform="translate(-95.575 -389.098)"/><path class="f" d="M325.546,250.22c-.181-1.67-.867-1.7-1.113-3.16l-2.369.092c0,1.989.774,1.989.774,3.978s-.774,1.99-.774,3.981c0,1.9.7,1.991.768,3.728A11.967,11.967,0,0,0,326.268,257c-.252-1.418-.924-1.469-1.1-3.123C324.97,252.093,325.74,252.006,325.546,250.22Z" transform="translate(-306.968 -235.479)"/><path class="e" d="M334.216,449.665a11.968,11.968,0,0,0,3.435-1.838,3.87,3.87,0,0,0-.14-.556,11.91,11.91,0,0,1-3.5,1.137A4.5,4.5,0,0,1,334.216,449.665Z" transform="translate(-318.351 -426.305)"/><path class="c" d="M305.545,230.906a2.477,2.477,0,0,1-1.926-.955.484.484,0,0,1,.755-.606,1.453,1.453,0,0,0,2.343,0,.484.484,0,1,1,.754.606A2.477,2.477,0,0,1,305.545,230.906Z" transform="translate(-289.286 -218.422)"/><circle class="g" cx="12" cy="12" r="12"/><path class="h" d="M13.742,76.945A12,12,0,0,1,4.431,57.376,12,12,0,1,0,21.311,74.255,11.948,11.948,0,0,1,13.742,76.945Z" transform="translate(0 -54.686)"/><g transform="translate(4.935 7.645)"><path class="i" d="M105.772,165.617a.484.484,0,0,1-.217-.917l3.1-1.548a.484.484,0,1,1,.432.866l-3.1,1.548A.483.483,0,0,1,105.772,165.617Z" transform="translate(-105.288 -163.1)"/><path class="i" d="M323.577,165.6a.48.48,0,0,1-.216-.051l-3.1-1.548a.484.484,0,1,1,.432-.866l3.1,1.548a.484.484,0,0,1-.217.917Z" transform="translate(-309.932 -163.088)"/></g><path class="j" d="M216.586,302.352h0a1.935,1.935,0,0,1-1.935-1.935v-1.161a1.935,1.935,0,0,1,1.935-1.935h0a1.935,1.935,0,0,1,1.935,1.935v1.161A1.935,1.935,0,0,1,216.586,302.352Z" transform="translate(-204.589 -283.383)"/><path class="d" d="M215.486,298.867h3.793a1.936,1.936,0,0,0-1.9-1.547h0A1.936,1.936,0,0,0,215.486,298.867Z" transform="translate(-205.385 -283.383)"/><path class="k" d="M214.651,330.71v.773h3.871v-.773a1.943,1.943,0,0,0-.039-.388H214.69A1.94,1.94,0,0,0,214.651,330.71Z" transform="translate(-204.589 -314.838)"/><path class="l" d="M102.108,247.059c-.246,1.46-.931,1.49-1.113,3.16-.194,1.785.576,1.873.382,3.658-.179,1.654-.852,1.7-1.1,3.123a11.968,11.968,0,0,0,3.435,1.838c.064-1.737.768-1.827.768-3.728,0-1.99-.774-1.99-.774-3.981s.774-1.989.774-3.978Z" transform="translate(-95.574 -235.478)"/><path class="i" d="M123.808,230.906a2.478,2.478,0,0,1-1.925-.955.484.484,0,1,1,.754-.607,1.452,1.452,0,0,0,2.343,0,.484.484,0,0,1,.755.606A2.477,2.477,0,0,1,123.808,230.906Z" transform="translate(-116.068 -218.423)"/><path class="m" d="M104.266,410.241a12.018,12.018,0,0,1-3.022-2.007c-.267.975-.76,1.217-.968,2.386h0a11.966,11.966,0,0,0,3.435,1.838A6.285,6.285,0,0,1,104.266,410.241Z" transform="translate(-95.575 -389.098)"/><path class="l" d="M325.546,250.22c-.181-1.67-.867-1.7-1.113-3.16l-2.369.092c0,1.989.774,1.989.774,3.978s-.774,1.99-.774,3.981c0,1.9.7,1.991.768,3.728A11.967,11.967,0,0,0,326.268,257c-.252-1.418-.924-1.469-1.1-3.123C324.97,252.093,325.74,252.006,325.546,250.22Z" transform="translate(-306.968 -235.479)"/><path class="m" d="M334.216,449.665a11.968,11.968,0,0,0,3.435-1.838,3.87,3.87,0,0,0-.14-.556,11.91,11.91,0,0,1-3.5,1.137A4.5,4.5,0,0,1,334.216,449.665Z" transform="translate(-318.351 -426.305)"/><path class="i" d="M305.545,230.906a2.477,2.477,0,0,1-1.926-.955.484.484,0,0,1,.755-.606,1.453,1.453,0,0,0,2.343,0,.484.484,0,1,1,.754.606A2.477,2.477,0,0,1,305.545,230.906Z" transform="translate(-289.286 -218.422)"/></svg>