<svg xmlns="http://www.w3.org/2000/svg" width="24" height="24" viewBox="0 0 24 24"><defs><style>.a{fill:#d2d0d4;}.b{fill:#726d7e;}.c{fill:#878195;}.d{fill:#b7b5bc;}.e{fill:#ffe17d;}.f{fill:#7d5046;}.g{fill:#9c6846;}.h{fill:#aa7346;}.i{fill:#ffd164;}</style></defs><circle class="a" cx="12" cy="12" r="12"/><path class="b" d="M149.613,200.9h0a.968.968,0,0,1-.968-.968v-.774a.968.968,0,0,1,.968-.968h0a.968.968,0,0,1,.968.968v.774A.968.968,0,0,1,149.613,200.9Z" transform="translate(-141.677 -188.903)"/><path class="c" d="M165.355,198.194a.971.971,0,0,0-.194.02v1.335a.581.581,0,1,0,1.161,0v-.387A.968.968,0,0,0,165.355,198.194Z" transform="translate(-157.419 -188.903)"/><path class="b" d="M323.033,200.9h0a.968.968,0,0,1-.968-.968v-.774a.968.968,0,0,1,.968-.968h0a.968.968,0,0,1,.968.968v.774A.968.968,0,0,1,323.033,200.9Z" transform="translate(-306.968 -188.903)"/><path class="c" d="M338.775,198.194a.972.972,0,0,0-.194.02v1.335a.581.581,0,1,0,1.161,0v-.387A.968.968,0,0,0,338.775,198.194Z" transform="translate(-322.71 -188.903)"/><path class="c" d="M163.546,330.773a.484.484,0,0,1-.356-.812,6.093,6.093,0,0,1,8.454,0,.484.484,0,1,1-.712.655,5.133,5.133,0,0,0-7.03,0A.482.482,0,0,1,163.546,330.773Z" transform="translate(-155.418 -312.87)"/><path class="d" d="M13.742,76.945A12,12,0,0,1,4.431,57.376,12,12,0,1,0,21.311,74.255,11.948,11.948,0,0,1,13.742,76.945Z" transform="translate(0 -54.687)"/><circle class="e" cx="12" cy="12" r="12"/><path class="f" d="M149.613,200.9h0a.968.968,0,0,1-.968-.968v-.774a.968.968,0,0,1,.968-.968h0a.968.968,0,0,1,.968.968v.774A.968.968,0,0,1,149.613,200.9Z" transform="translate(-141.677 -188.904)"/><path class="g" d="M165.355,198.194a.971.971,0,0,0-.194.02v1.335a.581.581,0,1,0,1.161,0v-.387A.968.968,0,0,0,165.355,198.194Z" transform="translate(-157.419 -188.904)"/><path class="f" d="M323.033,200.9h0a.968.968,0,0,1-.968-.968v-.774a.968.968,0,0,1,.968-.968h0a.968.968,0,0,1,.968.968v.774A.968.968,0,0,1,323.033,200.9Z" transform="translate(-306.968 -188.904)"/><path class="g" d="M338.775,198.194a.972.972,0,0,0-.194.02v1.335a.581.581,0,1,0,1.161,0v-.387A.968.968,0,0,0,338.775,198.194Z" transform="translate(-322.71 -188.904)"/><path class="h" d="M163.546,330.773a.484.484,0,0,1-.356-.812,6.093,6.093,0,0,1,8.454,0,.484.484,0,1,1-.712.655,5.133,5.133,0,0,0-7.03,0A.482.482,0,0,1,163.546,330.773Z" transform="translate(-155.419 -312.87)"/><path class="i" d="M13.742,76.945A12,12,0,0,1,4.431,57.376,12,12,0,1,0,21.311,74.255,11.948,11.948,0,0,1,13.742,76.945Z" transform="translate(0 -54.686)"/></svg>