<svg xmlns="http://www.w3.org/2000/svg" width="153.524" height="124.812" viewBox="0 0 153.524 124.812">
  <g id="ilus_comparte" transform="translate(0 0)">
    <path id="Trazado_576" data-name="Trazado 576" d="M2105.6,254.977l-35.994-37.307a5.115,5.115,0,0,0-3.745-1.632h-10.477V216h-56.615v.039h-4.876a5.116,5.116,0,0,0-3.745,1.632l-35.994,37.307a3.7,3.7,0,0,0-.063,5.075l37.96,41.379a5.113,5.113,0,0,0,3.8,1.692h21.6a5.383,5.383,0,0,0,.758-.055h23.338a5.4,5.4,0,0,0,.758.055h21.6a5.115,5.115,0,0,0,3.8-1.692l37.96-41.379A3.7,3.7,0,0,0,2105.6,254.977Zm-50.1-16.245h-.113v-.123Z" transform="translate(-1953.114 -197.771)" fill="#ff6f11" opacity="0.25"/>
    <rect id="Rectángulo_178" data-name="Rectángulo 178" width="62.406" height="117.092" transform="translate(49.193 3.646)" fill="#fff"/>
    <g id="Grupo_431" data-name="Grupo 431" transform="translate(44.979)">
      <path id="Trazado_577" data-name="Trazado 577" d="M2271.881,164.26h20.8a2.08,2.08,0,0,0,0-4.16h-20.8a2.08,2.08,0,1,0,0,4.16Z" transform="translate(-2246.865 -153.859)" fill="#86888a"/>
      <path id="Trazado_578" data-name="Trazado 578" d="M2427.081,164.26h2.08a2.08,2.08,0,1,0,0-4.16h-2.08a2.08,2.08,0,0,0,0,4.16Z" transform="translate(-2368.782 -153.859)" fill="#86888a"/>
      <path id="Trazado_579" data-name="Trazado 579" d="M2226.113,131h-55.689a7.529,7.529,0,0,0-7.52,7.52v6.64a2.23,2.23,0,0,0-.054.48v90.644a2.229,2.229,0,0,0,.054.48v11.529a7.529,7.529,0,0,0,7.52,7.52h55.687a7.529,7.529,0,0,0,7.52-7.518V138.52A7.528,7.528,0,0,0,2226.113,131Zm-55.689,4.16h55.687a3.363,3.363,0,0,1,3.359,3.359v4.961h-62.406V138.52A3.363,3.363,0,0,1,2170.423,135.16Zm-3.359,12.637h62.352v86.327h-62.352Zm59.049,103.854h-55.689a3.363,3.363,0,0,1-3.359-3.357v-9.853h62.406v9.851h0A3.363,3.363,0,0,1,2226.113,251.651Z" transform="translate(-2162.85 -131)" fill="#86888a"/>
      <circle id="Elipse_10" data-name="Elipse 10" cx="4.396" cy="4.396" r="4.396" transform="translate(30.913 110.015)" fill="#86888a"/>
    </g>
    <path id="Trazado_580" data-name="Trazado 580" d="M2290.967,244.373H2250.85a1.451,1.451,0,0,1-1.451-1.451V229.1a1.451,1.451,0,0,1,1.451-1.451h34.584l3.188-3.646v3.646h2.345a1.451,1.451,0,0,1,1.451,1.451v13.825A1.451,1.451,0,0,1,2290.967,244.373Z" transform="translate(-2185.86 -204.056)" fill="#86888a"/>
    <path id="Trazado_581" data-name="Trazado 581" d="M2204.851,345.944h40.117a1.451,1.451,0,0,0,1.451-1.451V330.668a1.451,1.451,0,0,0-1.451-1.451h-34.584L2207.2,326v3.217h-2.345a1.452,1.452,0,0,0-1.452,1.451v13.825A1.452,1.452,0,0,0,2204.851,345.944Z" transform="translate(-2149.725 -284.182)" fill="#86888a"/>
    <path id="Trazado_582" data-name="Trazado 582" d="M2290.967,445.944H2250.85a1.451,1.451,0,0,1-1.451-1.451V430.668a1.451,1.451,0,0,1,1.451-1.451h34.584l3.188-3.217v3.217h2.345a1.451,1.451,0,0,1,1.451,1.451v13.825A1.451,1.451,0,0,1,2290.967,445.944Z" transform="translate(-2185.86 -362.736)" fill="#86888a"/>
    <path id="Trazado_583" data-name="Trazado 583" d="M2204.851,539.154h40.117a1.451,1.451,0,0,0,1.451-1.451v-7.82a1.451,1.451,0,0,0-1.451-1.451h-34.584L2207.2,525v3.431h-2.345a1.452,1.452,0,0,0-1.452,1.451v7.82A1.452,1.452,0,0,0,2204.851,539.154Z" transform="translate(-2149.725 -440.505)" fill="#86888a"/>
    <g id="Grupo_434" data-name="Grupo 434" transform="translate(96.694 63.264)">
      <g id="Elipse_11" data-name="Elipse 11" transform="translate(0 0)" fill="#ff6f11" stroke="#fff" stroke-miterlimit="10" stroke-width="2">
        <circle cx="17.371" cy="17.371" r="17.371" stroke="none"/>
        <circle cx="17.371" cy="17.371" r="18.371" fill="none"/>
      </g>
      <g id="Grupo_433" data-name="Grupo 433" transform="translate(7.731 7.034)">
        <g id="Grupo_432" data-name="Grupo 432">
          <g id="a">
            <path id="Trazado_584" data-name="Trazado 584" d="M2457.2,462.1a3.236,3.236,0,0,0-.547-1.844,4.272,4.272,0,0,0-.461-.515,3.066,3.066,0,0,0-2.284-.944,3.224,3.224,0,0,0-3.292,3.3,3.185,3.185,0,0,0,.171,1.051.161.161,0,0,0-.086.043l-5.094,3.388a.79.79,0,0,0-.118.1,3.044,3.044,0,0,0-2.145-.836,3.266,3.266,0,0,0-2.348.965,3.232,3.232,0,0,0-.943,2.327,3.161,3.161,0,0,0,.943,2.305,3.2,3.2,0,0,0,2.348,1.008,3,3,0,0,0,2.124-.836c.042.036.089.071.139.107l5.083,3.378c.021.014.047.032.075.054a3.544,3.544,0,0,0-.15,1.04,3.133,3.133,0,0,0,.944,2.284,3.219,3.219,0,0,0,2.348,1.008,2.972,2.972,0,0,0,2.284-1.008,3.167,3.167,0,0,0,.461-.472,3.119,3.119,0,0,0,.547-1.812,3.186,3.186,0,0,0-.547-1.834,3.7,3.7,0,0,0-2.745-1.458,3.284,3.284,0,0,0-2.177.8.211.211,0,0,0-.075-.064l-5.083-3.378c-.021-.021-.053-.05-.1-.086a3.344,3.344,0,0,0,.15-1.04,3.544,3.544,0,0,0-.15-1.04.839.839,0,0,1,.1-.043l5.1-3.388a.5.5,0,0,1,.1-.075,3.2,3.2,0,0,0,2.134.794,2.972,2.972,0,0,0,2.284-1.008,3.513,3.513,0,0,0,.461-.461A3.119,3.119,0,0,0,2457.2,462.1Z" transform="translate(-2440.05 -458.8)" fill="#fff"/>
          </g>
        </g>
      </g>
    </g>
  </g>
</svg>
