<svg xmlns="http://www.w3.org/2000/svg" width="153.524" height="124.812" viewBox="0 0 153.524 124.812">
  <g id="Ilus-crea" transform="translate(0 0)">
    <path id="Trazado_565" data-name="Trazado 565" d="M1173.6,254.977l-35.994-37.307a5.115,5.115,0,0,0-3.745-1.632h-10.477V216h-56.616v.039h-4.876a5.116,5.116,0,0,0-3.746,1.632l-35.994,37.307a3.7,3.7,0,0,0-.064,5.075l37.96,41.379a5.115,5.115,0,0,0,3.8,1.692h21.6a5.378,5.378,0,0,0,.758-.055h23.338a5.382,5.382,0,0,0,.758.055h21.6a5.114,5.114,0,0,0,3.8-1.692l37.96-41.379A3.7,3.7,0,0,0,1173.6,254.977Zm-50.1-16.245h-.113v-.123Z" transform="translate(-1021.114 -197.771)" fill="#ff6f11" opacity="0.25"/>
    <rect id="Rectángulo_167" data-name="Rectángulo 167" width="62.406" height="117.092" transform="translate(49.193 3.646)" fill="#fff"/>
    <g id="Grupo_425" data-name="Grupo 425" transform="translate(44.979 0)">
      <path id="Trazado_566" data-name="Trazado 566" d="M1339.881,164.26h20.8a2.08,2.08,0,1,0,0-4.16h-20.8a2.08,2.08,0,1,0,0,4.16Z" transform="translate(-1314.865 -153.859)" fill="#86888a"/>
      <path id="Trazado_567" data-name="Trazado 567" d="M1495.081,164.26h2.08a2.08,2.08,0,1,0,0-4.16h-2.08a2.08,2.08,0,0,0,0,4.16Z" transform="translate(-1436.782 -153.859)" fill="#86888a"/>
      <path id="Trazado_568" data-name="Trazado 568" d="M1294.113,131h-55.689a7.529,7.529,0,0,0-7.52,7.52v6.64a2.238,2.238,0,0,0-.053.48v90.644a2.236,2.236,0,0,0,.053.479v11.529a7.529,7.529,0,0,0,7.52,7.52h55.687a7.529,7.529,0,0,0,7.52-7.518V138.52A7.529,7.529,0,0,0,1294.113,131Zm-55.689,4.16h55.687a3.363,3.363,0,0,1,3.359,3.359v4.961h-62.406V138.52A3.363,3.363,0,0,1,1238.424,135.16Zm-3.359,12.637h62.352v86.327h-62.352Zm59.048,103.854h-55.689a3.363,3.363,0,0,1-3.359-3.357v-9.853h62.406v9.851h0A3.363,3.363,0,0,1,1294.113,251.651Z" transform="translate(-1230.851 -131)" fill="#86888a"/>
      <circle id="Elipse_8" data-name="Elipse 8" cx="4.396" cy="4.396" r="4.396" transform="translate(30.913 110.015)" fill="#86888a"/>
    </g>
    <g id="Grupo_426" data-name="Grupo 426" transform="translate(54.018 24.448)">
      <path id="Trazado_569" data-name="Trazado 569" d="M1289.134,263.657h-13.61a2.527,2.527,0,0,1-2.524-2.524v-13.61a2.527,2.527,0,0,1,2.524-2.524h13.61a2.526,2.526,0,0,1,2.524,2.524v13.61A2.526,2.526,0,0,1,1289.134,263.657Zm-13.61-16.513a.38.38,0,0,0-.379.379v13.61a.38.38,0,0,0,.379.379h13.61a.38.38,0,0,0,.379-.379v-13.61a.38.38,0,0,0-.379-.379Z" transform="translate(-1273 -245)" fill="#86888a"/>
    </g>
    <rect id="Rectángulo_168" data-name="Rectángulo 168" width="30.452" height="4.289" rx="2.145" transform="translate(75.678 25.305)" fill="#86888a"/>
    <rect id="Rectángulo_169" data-name="Rectángulo 169" width="24.448" height="1.911" rx="0.955" transform="translate(75.678 31.525)" fill="#86888a"/>
    <rect id="Rectángulo_170" data-name="Rectángulo 170" width="17.8" height="1.911" rx="0.955" transform="translate(75.678 34.118)" fill="#86888a"/>
    <g id="Grupo_427" data-name="Grupo 427" transform="translate(54.018 48.681)">
      <path id="Trazado_570" data-name="Trazado 570" d="M1289.134,376.657h-13.61a2.527,2.527,0,0,1-2.524-2.524v-13.61a2.527,2.527,0,0,1,2.524-2.524h13.61a2.526,2.526,0,0,1,2.524,2.524v13.61A2.526,2.526,0,0,1,1289.134,376.657Zm-13.61-16.513a.38.38,0,0,0-.379.379v13.61a.379.379,0,0,0,.379.379h13.61a.38.38,0,0,0,.379-.379v-13.61a.38.38,0,0,0-.379-.379Z" transform="translate(-1273 -358)" fill="#86888a"/>
    </g>
    <rect id="Rectángulo_171" data-name="Rectángulo 171" width="30.452" height="4.289" rx="2.145" transform="translate(75.678 49.539)" fill="#86888a"/>
    <rect id="Rectángulo_172" data-name="Rectángulo 172" width="24.448" height="1.911" rx="0.955" transform="translate(75.678 55.758)" fill="#86888a"/>
    <rect id="Rectángulo_173" data-name="Rectángulo 173" width="17.8" height="1.911" rx="0.955" transform="translate(75.678 58.351)" fill="#86888a"/>
    <g id="Grupo_428" data-name="Grupo 428" transform="translate(54.018 72.914)">
      <path id="Trazado_571" data-name="Trazado 571" d="M1289.134,489.657h-13.61a2.527,2.527,0,0,1-2.524-2.524v-13.61a2.527,2.527,0,0,1,2.524-2.524h13.61a2.526,2.526,0,0,1,2.524,2.524v13.61A2.526,2.526,0,0,1,1289.134,489.657Zm-13.61-16.513a.379.379,0,0,0-.379.379v13.61a.38.38,0,0,0,.379.379h13.61a.38.38,0,0,0,.379-.379v-13.61a.38.38,0,0,0-.379-.379Z" transform="translate(-1273 -471)" fill="#86888a"/>
    </g>
    <rect id="Rectángulo_174" data-name="Rectángulo 174" width="30.452" height="4.289" rx="2.145" transform="translate(75.678 73.772)" fill="#86888a"/>
    <rect id="Rectángulo_175" data-name="Rectángulo 175" width="24.448" height="1.911" rx="0.955" transform="translate(75.678 79.991)" fill="#86888a"/>
    <rect id="Rectángulo_176" data-name="Rectángulo 176" width="17.8" height="1.911" rx="0.955" transform="translate(75.678 82.584)" fill="#86888a"/>
    <g id="Grupo_430" data-name="Grupo 430" transform="translate(95.622 63.264)">
      <g id="Elipse_9" data-name="Elipse 9" transform="translate(0)" fill="#ff6f11" stroke="#fff" stroke-miterlimit="10" stroke-width="2">
        <circle cx="17.371" cy="17.371" r="17.371" stroke="none"/>
        <circle cx="17.371" cy="17.371" r="18.371" fill="none"/>
      </g>
      <g id="Grupo_429" data-name="Grupo 429" transform="translate(8.453 8.454)">
        <path id="Trazado_572" data-name="Trazado 572" d="M1522.867,473.5l-3.348,3.347a4.678,4.678,0,0,1-7.413-.955l1.556-1.555a1.111,1.111,0,0,1,.252-.168,2.329,2.329,0,0,0,.584,1,2.369,2.369,0,0,0,3.347,0l3.347-3.347a2.367,2.367,0,0,0-3.347-3.347l-1.19,1.191a5.938,5.938,0,0,0-3.019-.329l2.536-2.536a4.734,4.734,0,0,1,6.695,6.694Zm-8.851,5.5-1.191,1.191a2.367,2.367,0,0,1-3.348-3.348l3.348-3.347a2.368,2.368,0,0,1,3.347,0,2.339,2.339,0,0,1,.585,1,1.132,1.132,0,0,0,.252-.166l1.555-1.555a4.645,4.645,0,0,0-.719-.955,4.733,4.733,0,0,0-6.694,0l-3.347,3.347a4.734,4.734,0,0,0,6.694,6.694l2.537-2.537A5.934,5.934,0,0,1,1514.017,479Z" transform="translate(-1506.419 -465.419)" fill="#fff"/>
      </g>
    </g>
  </g>
</svg>
