<svg xmlns="http://www.w3.org/2000/svg" width="153.741" height="124.988" viewBox="0 0 153.741 124.988">
  <g id="ilus-registro" transform="translate(0 0)">
    <path id="Trazado_558" data-name="Trazado 558" d="M292.815,255.032l-36.045-37.36a5.122,5.122,0,0,0-3.751-1.634H242.528V216h-56.7v.039h-4.883a5.123,5.123,0,0,0-3.751,1.634l-36.045,37.36a3.709,3.709,0,0,0-.064,5.082L179.1,301.551a5.121,5.121,0,0,0,3.805,1.694H204.54a5.394,5.394,0,0,0,.759-.055H228.67a5.4,5.4,0,0,0,.759.055H251.06a5.122,5.122,0,0,0,3.805-1.694l38.014-41.437A3.708,3.708,0,0,0,292.815,255.032Zm-50.174-16.268h-.113v-.123Z" transform="translate(-140.114 -200.978)" fill="#ff6f11" opacity="0.25"/>
    <g id="Grupo_424" data-name="Grupo 424" transform="translate(42.022)">
      <rect id="Rectángulo_162" data-name="Rectángulo 162" width="62.494" height="117.257" transform="translate(4.22 3.651)" fill="#fff"/>
      <g id="Grupo_416" data-name="Grupo 416">
        <path id="Trazado_559" data-name="Trazado 559" d="M458.884,164.266h20.831a2.083,2.083,0,1,0,0-4.166H458.884a2.083,2.083,0,1,0,0,4.166Z" transform="translate(-433.833 -153.851)" fill="#86888a"/>
        <path id="Trazado_560" data-name="Trazado 560" d="M614.084,164.266h2.083a2.083,2.083,0,1,0,0-4.166h-2.083a2.083,2.083,0,0,0,0,4.166Z" transform="translate(-555.703 -153.851)" fill="#86888a"/>
        <path id="Trazado_561" data-name="Trazado 561" d="M413.2,131H357.435a7.54,7.54,0,0,0-7.53,7.53v6.649a2.237,2.237,0,0,0-.053.48v90.772a2.235,2.235,0,0,0,.053.48v11.546a7.54,7.54,0,0,0,7.53,7.53H413.2a7.539,7.539,0,0,0,7.53-7.528V138.53A7.539,7.539,0,0,0,413.2,131Zm-55.768,4.166H413.2a3.368,3.368,0,0,1,3.364,3.364V143.5H354.071V138.53A3.368,3.368,0,0,1,357.435,135.166Zm-3.364,12.655h62.44V234.27h-62.44Zm59.132,104H357.435a3.368,3.368,0,0,1-3.364-3.362v-9.867h62.494v9.865h0A3.368,3.368,0,0,1,413.2,251.822Z" transform="translate(-349.851 -131)" fill="#86888a"/>
        <circle id="Elipse_6" data-name="Elipse 6" cx="4.402" cy="4.402" r="4.402" transform="translate(30.957 110.17)" fill="#86888a"/>
      </g>
      <g id="Grupo_418" data-name="Grupo 418" transform="translate(30.463 21.046)">
        <g id="Grupo_417" data-name="Grupo 417" transform="translate(0 0)">
          <path id="Trazado_562" data-name="Trazado 562" d="M496.87,229a5.168,5.168,0,1,0,5.168,5.168A5.174,5.174,0,0,0,496.87,229Zm0,8.373a3.205,3.205,0,1,1,3.206-3.205A3.209,3.209,0,0,1,496.87,237.373Z" transform="translate(-491.702 -229)" fill="#86888a"/>
        </g>
      </g>
      <g id="Grupo_420" data-name="Grupo 420" transform="translate(27.323 32.888)">
        <g id="Grupo_419" data-name="Grupo 419" transform="translate(0 0)">
          <path id="Trazado_563" data-name="Trazado 563" d="M490.531,284.556a2.056,2.056,0,0,0-2.789.294,3.155,3.155,0,0,1-4.71,0,2.057,2.057,0,0,0-2.788-.294,8.258,8.258,0,0,0-3.165,6.517v3.14a.981.981,0,0,0,.981.981h14.653a.981.981,0,0,0,.981-.981v-3.14A8.257,8.257,0,0,0,490.531,284.556Zm1.2,8.676H479.043v-2.159a6.312,6.312,0,0,1,2.412-4.975.173.173,0,0,1,.12.065,5.117,5.117,0,0,0,7.626,0,.2.2,0,0,1,.114-.068h0a6.307,6.307,0,0,1,2.418,4.977v2.159Z" transform="translate(-477.08 -284.14)" fill="#86888a"/>
        </g>
      </g>
      <rect id="Rectángulo_163" data-name="Rectángulo 163" width="51.112" height="6.657" rx="3.329" transform="translate(10.34 51.756)" fill="#86888a"/>
      <rect id="Rectángulo_164" data-name="Rectángulo 164" width="51.112" height="6.657" rx="3.329" transform="translate(10.34 62.494)" fill="#86888a"/>
      <rect id="Rectángulo_165" data-name="Rectángulo 165" width="51.112" height="6.657" rx="3.329" transform="translate(10.34 73.232)" fill="#86888a"/>
      <rect id="Rectángulo_166" data-name="Rectángulo 166" width="51.112" height="6.657" rx="3.329" transform="translate(10.34 83.97)" fill="#86888a"/>
      <g id="Grupo_422" data-name="Grupo 422" transform="translate(51.359 63.353)">
        <g id="Elipse_7" data-name="Elipse 7" transform="translate(0 0)" fill="#ff6f11" stroke="#fff" stroke-miterlimit="10" stroke-width="2">
          <circle cx="17.395" cy="17.395" r="17.395" stroke="none"/>
          <circle cx="17.395" cy="17.395" r="18.395" fill="none"/>
        </g>
        <g id="Grupo_421" data-name="Grupo 421" transform="translate(5.479 9.568)">
          <path id="Trazado_564" data-name="Trazado 564" d="M621.96,486.6a1.1,1.1,0,0,0,1.555,0l12.676-12.611a1.1,1.1,0,0,0,0-1.555l-1.551-1.559a1.1,1.1,0,0,0-1.555,0l-10.338,10.284-4.8-4.826a1.1,1.1,0,0,0-1.555,0l-1.559,1.551a1.1,1.1,0,0,0,0,1.555Z" transform="translate(-614.513 -470.551)" fill="#fff" fill-rule="evenodd"/>
        </g>
      </g>
    </g>
  </g>
</svg>
