<svg xmlns="http://www.w3.org/2000/svg" width="20" height="20" viewBox="0 0 20 20"><g transform="translate(144 -470)"><g transform="translate(-144 470)" fill="#fff" stroke="#707070" stroke-width="1" opacity="0"><rect width="20" height="20" stroke="none"/><rect x="0.5" y="0.5" width="19" height="19" fill="none"/></g><g transform="translate(-140 472.631)"><path d="M99.752,3.8,96.28.31A1.056,1.056,0,0,0,95.536,0H88.829A1.05,1.05,0,0,0,87.78,1.049V13.773a1.05,1.05,0,0,0,1.049,1.049H99.008a1.05,1.05,0,0,0,1.053-1.049V4.541a1.043,1.043,0,0,0-.309-.739Zm-.227,9.971a.514.514,0,0,1-.513.513H88.833a.514.514,0,0,1-.513-.513V1.049a.514.514,0,0,1,.51-.513h6.706A.51.51,0,0,1,95.9.688L99.372,4.18a.511.511,0,0,1,.153.362Zm-3.694-3.706H90.418a.282.282,0,1,0,0,.564h5.417a.282.282,0,1,0,0-.564Zm0,1.905H90.418a.282.282,0,1,0,0,.564h5.417a.282.282,0,1,0,0-.564ZM90.418,8.726H92.99a.282.282,0,1,0,0-.564H90.418a.282.282,0,1,0,0,.564Zm5.651-7.365a.7.7,0,0,0-1.18.305l-.006.03L94.793,4.5a.554.554,0,0,0,.637.654l2.846.066h.011a.42.42,0,0,0,.128-.019A.7.7,0,0,0,98.7,4.044Zm2.267,3.206a.138.138,0,0,1-.073.089l-2.9-.065-.019,0V4.582l.089-2.792a.139.139,0,0,1,.225-.037l2.633,2.679a.136.136,0,0,1,.042.135Z" transform="translate(-87.78)" fill="#37236a" stroke="#37236a" stroke-width="0.2"/></g></g></svg>