<svg xmlns="http://www.w3.org/2000/svg" width="11.729" height="11.729" viewBox="0 0 11.729 11.729"><defs><style>.a,.b{fill:#f55;}.b{opacity:0;}</style></defs><path class="a" d="M7.864,2a5.864,5.864,0,1,0,5.864,5.864A5.828,5.828,0,0,0,7.864,2Zm2.262,8.8L7.864,8.534,5.6,10.8l-.67-.67L7.194,7.864,4.932,5.6l.67-.67L7.864,7.194l2.262-2.262.67.67L8.534,7.864,10.8,10.126Z" transform="translate(-2 -2)"/><path class="b" d="M11.262,11.932,9,9.67,9.67,9l2.262,2.262L14.194,9l.67.67L12.6,11.932l2.262,2.262-.67.67L11.932,12.6,9.67,14.864,9,14.194l2.262-2.262" transform="translate(-6.068 -6.068)"/></svg>