<svg xmlns="http://www.w3.org/2000/svg" width="15" height="15" viewBox="0 0 15 15"><defs><style>.a{fill:#ffaf51;}.b{fill:none;}</style></defs><g transform="translate(-23 -317)"><g transform="translate(24 318)"><path class="a" d="M14.412,24.206h-.841V22.944a2.106,2.106,0,0,0-2.1-2.1H8.944a2.106,2.106,0,0,0-2.1,2.1v1.262H6V22.944A2.948,2.948,0,0,1,8.944,20h2.524a2.948,2.948,0,0,1,2.944,2.944Z" transform="translate(-3.476 -11.588)"/><path class="a" d="M4.421,6A.421.421,0,0,0,4,6.421v3.786h.841V6.421A.421.421,0,0,0,4.421,6Z" transform="translate(-2.318 -3.476)"/><path class="a" d="M4,2v.841H6.1V5.786a2.944,2.944,0,0,0,5.889,0V2.841h2.1V2Zm2.944.841h4.206V4.1H6.944Zm2.1,5.047a2.1,2.1,0,0,1-2.1-2.1V4.944h4.206v.841A2.1,2.1,0,0,1,9.047,7.889Z" transform="translate(-2.318 -1.159)"/><rect class="b" width="13" height="13"/></g><rect class="b" width="15" height="15" transform="translate(23 317)"/></g></svg>