<svg xmlns="http://www.w3.org/2000/svg" width="20" height="20" viewBox="0 0 20 20"><g transform="translate(-958 -311)"><g transform="translate(956 306.895)"><g transform="translate(2.999 7.106)"><path d="M20.948,12.407,12.2,8.032a.312.312,0,0,0-.279,0L3.172,12.407a.312.312,0,0,0,0,.559L6.436,14.6V19.56c0,1.577,2.47,2.812,5.624,2.812s5.624-1.235,5.624-2.812V14.6l1.562-.781v4.239a.933.933,0,0,0-.351,1.541l-.562,1.41a.312.312,0,0,0,.289.428H20.5a.312.312,0,0,0,.29-.428l-.562-1.41a.933.933,0,0,0-.353-1.541V13.5l1.077-.537a.312.312,0,0,0,0-.559ZM17.059,19.56c0,1.056-2.009,2.187-5,2.187s-5-1.131-5-2.187V19.3a7.465,7.465,0,0,0,5,1.508,7.465,7.465,0,0,0,5-1.508Zm0-1.562c0,1.056-2.009,2.187-5,2.187s-5-1.131-5-2.187V14.91l4.859,2.431a.312.312,0,0,0,.279,0l4.859-2.431Zm2.5.625a.312.312,0,1,1-.312.312A.312.312,0,0,1,19.558,18.623Zm.476,2.187h-.952l.379-.947a.924.924,0,0,0,.1.01.95.95,0,0,0,.1-.01ZM19.5,12.991l-5.956-.6a1.635,1.635,0,0,0-1.483-.647c-.891,0-1.562.4-1.562.937s.671.937,1.562.937a1.694,1.694,0,0,0,1.462-.6l4.931.493-6.393,3.2L4.01,12.686l8.05-4.025,8.05,4.025Zm-6.5-.3c0,.078-.332.312-.937.312s-.937-.235-.937-.312.332-.312.937-.312S13,12.608,13,12.686Z" transform="translate(-2.999 -7.72)" fill="#37236a" stroke="#37236a" stroke-width="0.2"/><rect width="0.625" height="0.699" transform="matrix(0.447, -0.894, 0.894, 0.447, 16.107, 3.214)" fill="#37236a" stroke="#37236a" stroke-width="0.2"/><rect width="0.625" height="5.24" transform="matrix(0.447, -0.894, 0.894, 0.447, 10.796, 0.559)" fill="#37236a" stroke="#37236a" stroke-width="0.2"/></g></g><rect width="20" height="20" transform="translate(958 311)" fill="none"/></g></svg>