<svg xmlns="http://www.w3.org/2000/svg" width="20" height="20" viewBox="0 0 20 20"><g transform="translate(144 -470)"><g transform="translate(-144 470)" fill="#fff" stroke="#707070" stroke-width="1" opacity="0"><rect width="20" height="20" stroke="none"/><rect x="0.5" y="0.5" width="19" height="19" fill="none"/></g><g transform="translate(-146 468.365)"><g transform="translate(4.924 4.433)"><path d="M19.24,11.16,13.052,4.773a1.168,1.168,0,0,0-1.647,0L5.217,11.16a1.149,1.149,0,0,0,.812,1.915h.456v5.744a.383.383,0,0,0,.383.383H17.59a.383.383,0,0,0,.383-.383V13.075h.456a1.149,1.149,0,0,0,.812-1.915Zm-8.16,7.276V15.372h2.3v3.063Zm7.685-6.353a.36.36,0,0,1-.337.226H17.59a.383.383,0,0,0-.383.383v5.744H14.144V14.99a.383.383,0,0,0-.383-.383H10.7a.383.383,0,0,0-.383.383v3.446H7.251V12.692a.383.383,0,0,0-.383-.383H6.029a.383.383,0,0,1-.264-.624l6.188-6.38a.383.383,0,0,1,.551,0l6.188,6.38A.356.356,0,0,1,18.766,12.083Z" transform="translate(-4.924 -4.433)" fill="#37236a"/></g></g></g></svg>