<svg xmlns="http://www.w3.org/2000/svg" width="20" height="20" viewBox="0 0 20 20"><g transform="translate(-22 -338.408)"><rect width="20" height="20" transform="translate(22 338.408)" fill="none"/><g transform="translate(24.094 340.154)"><path d="M16.29,19.988a2.847,2.847,0,0,1-2.014-4.861l.766.765a1.766,1.766,0,0,0,2.5,2.5L20.8,15.127a1.766,1.766,0,1,0-2.5-2.5l-.765-.765a2.848,2.848,0,0,1,4.028,4.028L18.3,19.155A2.839,2.839,0,0,1,16.29,19.988Z" transform="translate(-7.245 -5.639)" fill="#37236a"/><path d="M7.848,22.4a2.847,2.847,0,0,1-2.014-4.861L9.1,14.276A2.848,2.848,0,1,1,13.125,18.3l-.765-.765a1.766,1.766,0,1,0-2.5-2.5L6.6,18.3a1.766,1.766,0,1,0,2.5,2.5l.765.765A2.838,2.838,0,0,1,7.848,22.4Z" transform="translate(-3.371 -6.746)" fill="#37236a"/><rect width="4" height="1" transform="translate(-0.094 4.253)" fill="#37236a"/><rect width="7" height="1" transform="translate(-0.094 2.253)" fill="#37236a"/><rect width="7" height="1" transform="translate(-0.094 0.253)" fill="#37236a"/></g></g></svg>