<svg xmlns="http://www.w3.org/2000/svg" width="15" height="15" viewBox="0 0 15 15"><defs><style>.a{fill:none;}.b{fill:#00a9b3;}</style></defs><g transform="translate(-24 -340)"><g transform="translate(1 23)"><rect class="a" width="15" height="15" transform="translate(23 317)"/></g><g transform="translate(25 341.485)"><path class="b" d="M15.886,18.717a2.443,2.443,0,0,1-1.728-4.171l.657.657a1.515,1.515,0,0,0,2.143,2.143l2.8-2.8A1.516,1.516,0,1,0,17.613,12.4l-.657-.657A2.444,2.444,0,0,1,20.413,15.2l-2.8,2.8A2.436,2.436,0,0,1,15.886,18.717Z" transform="translate(-8.129 -6.87)"/><path class="b" d="M7.444,21.129a2.443,2.443,0,0,1-1.728-4.171l2.8-2.8a2.444,2.444,0,1,1,3.456,3.456l-.657-.657a1.515,1.515,0,1,0-2.143-2.143l-2.8,2.8a1.516,1.516,0,1,0,2.143,2.143l.657.657A2.435,2.435,0,0,1,7.444,21.129Z" transform="translate(-3.607 -8.162)"/><rect class="b" width="4" height="1" transform="translate(0 3.516)"/><rect class="b" width="6" height="1" transform="translate(0 1.516)"/><rect class="b" width="6" height="1" transform="translate(0 -0.484)"/></g></g></svg>