<svg xmlns="http://www.w3.org/2000/svg" width="20" height="20" viewBox="0 0 20 20"><g transform="translate(144 -470)"><g transform="translate(-142.185 471.261)"><g transform="translate(0 0)"><path d="M26.1,17.53a2.6,2.6,0,0,0,0-3.674l-.2-.2a2.6,2.6,0,0,0-3.674,0l-2.153,2.153a2.594,2.594,0,0,0-.353,3.231l-1.627,1.627a2.6,2.6,0,0,0,0,3.674l.2.2a2.6,2.6,0,0,0,3.674,0l2.153-2.153a2.594,2.594,0,0,0,.353-3.231Zm-6.139.115a1.935,1.935,0,0,1,.571-1.378l2.153-2.153a1.948,1.948,0,0,1,2.755,0l.2.2a1.948,1.948,0,0,1,0,2.755l-1.582,1.582-.14-.14a2.6,2.6,0,0,0-3.674,0l-.053.053A1.939,1.939,0,0,1,19.956,17.645Zm3.639,1.467-.111.111a1.949,1.949,0,0,1-2.755,0l-.14-.14.111-.111a1.949,1.949,0,0,1,2.755,0Zm.632,1.439a1.935,1.935,0,0,1-.571,1.378L21.5,24.082a1.948,1.948,0,0,1-2.755,0l-.2-.2a1.948,1.948,0,0,1,0-2.755l1.582-1.582.14.14a2.6,2.6,0,0,0,3.674,0L24,19.63A1.939,1.939,0,0,1,24.227,20.552Z" transform="translate(-13.722 -10.729)" fill="#37236a"/><path d="M15.1,15.56a.325.325,0,0,0,.459-.459l-1.586-1.586a.325.325,0,1,0-.459.459Z" transform="translate(-11.083 -11.084)" fill="#37236a"/><path d="M8.793,25.05H6.55a.325.325,0,1,0,0,.649H8.793a.325.325,0,1,0,0-.649Z" transform="translate(-6.225 -18.937)" fill="#37236a"/><path d="M25.374,9.118a.325.325,0,0,0,.325-.325V6.55a.325.325,0,0,0-.649,0V8.793A.325.325,0,0,0,25.374,9.118Z" transform="translate(-18.937 -6.226)" fill="#37236a"/><path d="M44.251,43.792a.325.325,0,1,0-.459.459l1.586,1.586a.325.325,0,0,0,.459-.459Z" transform="translate(-31.529 -31.529)" fill="#37236a"/><path d="M37.275,48.868a.325.325,0,0,0-.325.325v2.243a.325.325,0,1,0,.649,0V49.193A.325.325,0,0,0,37.275,48.868Z" transform="translate(-26.973 -35.021)" fill="#37236a"/><path d="M51.436,36.95H49.193a.325.325,0,1,0,0,.649h2.243a.325.325,0,1,0,0-.649Z" transform="translate(-35.021 -26.973)" fill="#37236a"/></g></g><g transform="translate(-144 470)" fill="#fff" stroke="#707070" stroke-width="1" opacity="0"><rect width="20" height="20" stroke="none"/><rect x="0.5" y="0.5" width="19" height="19" fill="none"/></g></g></svg>