<svg xmlns="http://www.w3.org/2000/svg" width="24" height="24" viewBox="0 0 24 24"><defs><style>.a,.b{fill:none;}.b{stroke:#352767;stroke-linecap:round;stroke-linejoin:round;stroke-width:1.3px;}</style></defs><rect class="a" width="24" height="24"/><g transform="translate(3 3)"><path class="b" d="M19.444,12.656a4.8,4.8,0,1,1-6.788,0,4.8,4.8,0,0,1,6.788,0" transform="translate(29.25 29.25) rotate(180)"/><path class="b" d="M17.25,19.05v-4.8" transform="translate(30.45 29.85) rotate(180)"/><path class="b" d="M16.8,14.25,15,16.05" transform="translate(30 29.85) rotate(180)"/><path class="b" d="M17.25,14.25l1.8,1.8" transform="translate(30.45 29.85) rotate(180)"/><path class="b" d="M6.75,16.35H1.95a1.2,1.2,0,0,1-1.2-1.2h0V1.95h0A1.2,1.2,0,0,1,1.95.75h8.5A1.2,1.2,0,0,1,11.3,1.1l2.3,2.3h0a1.2,1.2,0,0,1,.351.848v2.5" transform="translate(-0.75 -0.75)"/><path class="b" d="M5.175,5.625h0a.3.3,0,1,1-.3.3h0a.3.3,0,0,1,.3-.3" transform="translate(-1.575 -1.725)"/><path class="b" d="M10.418,9.252,9.75,8.183h0a.6.6,0,0,0-.99-.011l-1.6,2.281-.986-.79h0a.6.6,0,0,0-.843.093q-.016.02-.031.042L3.75,12.983h3.6" transform="translate(-1.35 -2.183)"/></g></svg>