<svg xmlns="http://www.w3.org/2000/svg" width="15" height="15" viewBox="0 0 15 15"><defs><style>.a{fill:#00a9b3;}.b{fill:none;}</style></defs><g transform="translate(-195 -194)"><path class="a" d="M8.578,2.1a.485.485,0,0,0-.6,0L1,7.541l.6.767.854-.67v6.01a.971.971,0,0,0,.971.971h9.71a.971.971,0,0,0,.971-.971V7.643l.854.665.6-.762Zm.675,11.549H7.311V9.765H9.253Zm.971,0h0V9.765a.971.971,0,0,0-.971-.971H7.311a.971.971,0,0,0-.971.971v3.884H3.427V6.881L8.282,3.1l4.855,3.787v6.763Z" transform="translate(194.23 193.337)"/><rect class="b" width="15" height="15" transform="translate(195 194)"/></g></svg>