<svg xmlns="http://www.w3.org/2000/svg" width="15" height="15" viewBox="0 0 15 15"><defs><style>.a{fill:none;}.b{fill:#00a9b3;}</style></defs><g transform="translate(-23 -256)"><rect class="a" width="15" height="15" transform="translate(23 256)"/><g transform="translate(4.5 233)"><path class="b" d="M8.564,2a6.564,6.564,0,1,0,6.564,6.564A6.564,6.564,0,0,0,8.564,2ZM5.751,13.431v-.938a1.51,1.51,0,0,1,1.407-1.585H9.971A1.51,1.51,0,0,1,11.377,12.5v.938a5.589,5.589,0,0,1-5.626,0Zm6.564-.685V12.46a2.443,2.443,0,0,0-2.344-2.49H7.157a2.438,2.438,0,0,0-2.344,2.49h0v.277a5.626,5.626,0,1,1,7.5,0Z" transform="translate(17.5 22)"/><path class="b" d="M13.344,7a2.344,2.344,0,1,0,2.344,2.344A2.344,2.344,0,0,0,13.344,7Zm0,3.751a1.407,1.407,0,1,1,1.407-1.407A1.407,1.407,0,0,1,13.344,10.751Z" transform="translate(12.72 19.501)"/></g></g></svg>