<svg xmlns="http://www.w3.org/2000/svg" width="20" height="20" viewBox="0 0 20 20"><g transform="translate(-22 -254.534)"><rect width="20" height="20" transform="translate(22 254.534)" fill="none"/><g transform="translate(25.091 258.091)"><path d="M8.751,2A6.751,6.751,0,1,0,15.5,8.751,6.751,6.751,0,0,0,8.751,2ZM5.858,13.756v-.964A1.553,1.553,0,0,1,7.3,11.162H10.2A1.553,1.553,0,0,1,11.644,12.8v.964a5.748,5.748,0,0,1-5.787,0Zm6.751-.7v-.294A2.512,2.512,0,0,0,10.2,10.2H7.3a2.507,2.507,0,0,0-2.411,2.561h0v.285a5.787,5.787,0,1,1,7.715,0Z" transform="translate(-2 -2)" fill="#37236a"/><path d="M13.411,7a2.411,2.411,0,1,0,2.411,2.411A2.411,2.411,0,0,0,13.411,7Zm0,3.858a1.447,1.447,0,1,1,1.447-1.447A1.447,1.447,0,0,1,13.411,10.858Z" transform="translate(-6.66 -4.428)" fill="#37236a"/></g></g></svg>