<svg xmlns="http://www.w3.org/2000/svg" width="20" height="20" viewBox="0 0 20 20"><g transform="translate(144 -470)"><g transform="translate(-144 470)" fill="#fff" stroke="#707070" stroke-width="1" opacity="0"><rect width="20" height="20" stroke="none"/><rect x="0.5" y="0.5" width="19" height="19" fill="none"/></g><g transform="translate(-142 467.251)"><g transform="translate(0 6)"><path d="M15.322,12.936H.625V11.693h14.7Zm-.778,6.442H6.433v-3.2a1.845,1.845,0,1,0-3.69,0v3.2H1.413V13.563h13.13Zm-11.175,0v-3.2a1.219,1.219,0,1,1,2.439,0v3.2ZM2.079,8.185h11.76l1.31,2.881H.795Zm.11-.627h11.6V6.627H2.189ZM15.947,11.37s0-.009,0-.013,0-.017,0-.025l0-.01a.311.311,0,0,0-.022-.07v0l-1.51-3.32a.311.311,0,0,0,.006-.058V6.313A.313.313,0,0,0,14.1,6H1.876a.313.313,0,0,0-.313.313V7.805L.027,11.252v0a.309.309,0,0,0-.013.035v0a.3.3,0,0,0-.008.033l0,.011q0,.012,0,.025s0,.009,0,.013,0,.006,0,.008v1.87a.313.313,0,0,0,.313.313H.788v6.128A.313.313,0,0,0,1.1,20H14.856a.313.313,0,0,0,.313-.313V13.563h.465a.313.313,0,0,0,.313-.313V11.38s0-.006,0-.009Zm-7.66,6.209H12.77V14.956H8.286Zm-.313.626h5.11a.313.313,0,0,0,.313-.313V14.643a.313.313,0,0,0-.313-.313H7.974a.313.313,0,0,0-.313.313v3.249a.313.313,0,0,0,.313.313Z" transform="translate(0 -6)" fill="#37236a" fill-rule="evenodd"/></g></g></g></svg>