<svg xmlns="http://www.w3.org/2000/svg" width="24" height="24" viewBox="0 0 24 24"><defs><style>.a{fill:none;}.b{fill:#37236a;stroke:#37236a;stroke-width:0.4px;}</style></defs><rect class="a" width="24" height="24"/><path class="b" d="M15.75,0H2.25A2.252,2.252,0,0,0,0,2.25V12.375a2.252,2.252,0,0,0,2.25,2.25H5.625v2.953A.421.421,0,0,0,6.047,18a.4.4,0,0,0,.25-.084l4.391-3.291H15.75A2.252,2.252,0,0,0,18,12.375V2.25A2.252,2.252,0,0,0,15.75,0Zm1.125,12.375A1.128,1.128,0,0,1,15.75,13.5H10.311l-.3.225L6.75,16.172V13.5H2.25a1.128,1.128,0,0,1-1.125-1.125V2.25A1.128,1.128,0,0,1,2.25,1.125h13.5A1.128,1.128,0,0,1,16.875,2.25ZM9,9.281a.844.844,0,1,0,.844.844A.842.842,0,0,0,9,9.281Zm-.3-.844h.6a.284.284,0,0,0,.281-.264l.246-3.937a.282.282,0,0,0-.281-.3H8.455a.282.282,0,0,0-.281.3L8.42,8.174A.284.284,0,0,0,8.7,8.438Z" transform="translate(3 3)"/></svg>