<svg xmlns="http://www.w3.org/2000/svg" width="20" height="20" viewBox="0 0 20 20"><g transform="translate(-959 -371)"><g transform="translate(959 371.001)"><rect width="8.383" height="0.583" transform="translate(3.783 4.2)" fill="#37236a" stroke="#37236a" stroke-width="0.3"/><rect width="8.383" height="0.583" transform="translate(3.783 5.8)" fill="#37236a" stroke="#37236a" stroke-width="0.3"/><rect width="4.183" height="0.583" transform="translate(3.783 7.433)" fill="#37236a" stroke="#37236a" stroke-width="0.3"/><rect width="3.033" height="0.583" transform="translate(3.783 9.05)" fill="#37236a" stroke="#37236a" stroke-width="0.3"/><path d="M13.833,7.25V2H2.1V18H12.583A5.447,5.447,0,0,0,13.833,7.25ZM2.683,17.416V2.583H13.249V7.15a4.488,4.488,0,0,0-.667-.05,5.444,5.444,0,0,0-2.467,10.3Zm9.9,0a4.866,4.866,0,1,1,4.866-4.866A4.872,4.872,0,0,1,12.583,17.416Z" fill="#37236a" stroke="#37236a" stroke-width="0.3"/><circle cx="0.45" cy="0.45" r="0.45" transform="translate(12.133 14.749)" fill="#37236a" stroke="#37236a" stroke-width="0.3"/><path d="M55.667,51.533a.316.316,0,0,0,.317-.317v-.6H56a1.873,1.873,0,1,0-2.2-1.85.316.316,0,0,0,.317.317.328.328,0,0,0,.317-.317A1.233,1.233,0,1,1,55.667,50a.316.316,0,0,0-.317.317v.9A.306.306,0,0,0,55.667,51.533Z" transform="translate(-43.084 -37.417)" fill="#37236a" stroke="#37236a" stroke-width="0.3"/></g><rect width="20" height="20" transform="translate(959 371)" fill="none"/></g></svg>