<svg xmlns="http://www.w3.org/2000/svg" width="15" height="15" viewBox="0 0 15 15"><defs><style>.a{fill:none;}.b{fill:#00a9b3;}</style></defs><g transform="translate(-23 -304)"><rect class="a" width="15" height="15" transform="translate(23 304)"/><g transform="translate(21.916 301.847)"><path class="b" d="M13.994,4.923v9.226H2.923V4.923H13.994m0-.923H2.923A.923.923,0,0,0,2,4.923v9.226a.923.923,0,0,0,.923.923H13.994a.923.923,0,0,0,.923-.923V4.923A.923.923,0,0,0,13.994,4Z"/><path class="b" d="M6,8h4.613v.923H6ZM6,9.845h4.613v.923H6ZM6,11.69H8.768v.923H6Z" transform="translate(-2.155 -2.155)"/></g></g></svg>