<svg id="ico_24_user_group_add" data-name="ico / 24 / user / group_add" xmlns="http://www.w3.org/2000/svg" width="15" height="15" viewBox="0 0 15 15">
  <rect id="Bounding_box" data-name="Bounding box" width="15" height="15" fill="rgba(255,255,255,0)"/>
  <path id="Icon_color" data-name="Icon color" d="M10,8.125H8.636a1.883,1.883,0,0,0-.081-1.469L7.961,5.475A3.075,3.075,0,0,0,7.661,5h.625A1.867,1.867,0,0,1,9.961,6.031l.593,1.187A.625.625,0,0,1,10,8.125Zm-3.125,0H.624a.625.625,0,0,1-.556-.907L.692,6.031A1.868,1.868,0,0,1,2.336,5H5.161A1.865,1.865,0,0,1,6.836,6.031L7.43,7.219a.626.626,0,0,1-.556.907ZM12.811,6.25h-.625a.313.313,0,0,1-.312-.312V4.375H10.311A.313.313,0,0,1,10,4.062V3.437a.313.313,0,0,1,.313-.312h1.563V1.563a.313.313,0,0,1,.312-.313h.625a.313.313,0,0,1,.313.313V3.125h1.563A.313.313,0,0,1,15,3.437v.625a.313.313,0,0,1-.312.313H13.123V5.938A.313.313,0,0,1,12.811,6.25ZM6.876,3.75h0a1.856,1.856,0,0,1-.563-.088,3.137,3.137,0,0,0,0-3.575A1.875,1.875,0,1,1,6.876,3.75Zm-3.128,0A1.875,1.875,0,1,1,5.624,1.875,1.877,1.877,0,0,1,3.748,3.75Z" transform="translate(0.002 3.125)" fill="#ffaf51"/>
</svg>
