<svg xmlns="http://www.w3.org/2000/svg" width="20" height="20" viewBox="0 0 20 20"><g transform="translate(144 -470)"><g transform="translate(-144 470)" fill="#fff" stroke="#707070" stroke-width="1" opacity="0"><rect width="20" height="20" stroke="none"/><rect x="0.5" y="0.5" width="19" height="19" fill="none"/></g><g transform="translate(-149.683 467.552)"><g transform="translate(6.819 5)"><path d="M34.552,8.924a3.924,3.924,0,1,0-3.924,3.924A3.929,3.929,0,0,0,34.552,8.924Zm-7.312,0a3.388,3.388,0,1,1,3.388,3.388A3.392,3.392,0,0,1,27.24,8.924Z" transform="translate(-23.354 -5)" fill="#37236a" stroke="#37236a" stroke-width="0.2"/><path d="M6.819,64.56a1.72,1.72,0,0,0,1.749,1.723H19.617a1.72,1.72,0,0,0,1.749-1.723c0-1.139-1.307-4.095-7.274-4.095S6.819,63.421,6.819,64.56ZM14.093,61c5.5,0,6.737,2.635,6.737,3.558a1.176,1.176,0,0,1-1.212,1.186H8.568A1.176,1.176,0,0,1,7.356,64.56C7.356,63.637,8.593,61,14.093,61Z" transform="translate(-6.819 -51.122)" fill="#37236a" stroke="#37236a" stroke-width="0.2"/></g></g><g transform="translate(-131 477)" fill="none" stroke="#37236a" stroke-width="0.6"><circle cx="3" cy="3" r="3" stroke="none"/><circle cx="3" cy="3" r="2.7" fill="none"/></g><path d="M3.52-2.437v-.613H2.327V-4.264H1.713v1.213H.52v.613H1.713v1.213h.613V-2.437Z" transform="translate(-130 482.608)" fill="#37236a"/></g></svg>