<svg xmlns="http://www.w3.org/2000/svg" width="20" height="20" viewBox="0 0 20 20"><g transform="translate(-957 -282)"><g transform="translate(951 278)"><path d="M19.357,6H12.481c-.008,0-.015,0-.023,0a.336.336,0,0,0-.211.092h0L9.108,9.235h0a.329.329,0,0,0-.065.1c0,.01-.007.019-.01.029a.328.328,0,0,0-.018.09c0,.006,0,.012,0,.018V19.909a.333.333,0,0,0,.333.333h7.594a3.312,3.312,0,0,0,2.679-.1l1.547,1.547a1.078,1.078,0,0,0,1.525-1.525l-1.547-1.547a3.315,3.315,0,0,0-1.452-4.4V6.334A.333.333,0,0,0,19.357,6Zm-7.21,1.138v2h-2ZM9.677,19.576V9.8h2.8a.333.333,0,0,0,.333-.333v-2.8h6.21v7.288a3.317,3.317,0,0,0-3.21,5.55c.025.025.052.046.078.071Zm12.541,1.056a.412.412,0,1,1-.582.582L20.2,19.776a3.008,3.008,0,0,0,.582-.582ZM20.46,18.477a.332.332,0,0,0-.046.078,2.566,2.566,0,0,1-.855.855.332.332,0,0,0-.079.047,2.653,2.653,0,1,1,.98-.979Z" transform="translate(0)" fill="#37236a" stroke="#37236a" stroke-width="0.2"/><path d="M14.048,21.372h6.729a.333.333,0,0,0,0-.667H14.048a.333.333,0,1,0,0,.667Z" transform="translate(-3.136 -9.803)" fill="#37236a" stroke="#37236a" stroke-width="0.2"/><path d="M14.048,26.02h6.729a.333.333,0,0,0,0-.667H14.048a.333.333,0,0,0,0,.667Z" transform="translate(-3.136 -12.902)" fill="#37236a" stroke="#37236a" stroke-width="0.2"/><path d="M18.749,30.335A.333.333,0,0,0,18.416,30H14.048a.333.333,0,0,0,0,.667h4.368A.333.333,0,0,0,18.749,30.335Z" transform="translate(-3.136 -16.001)" fill="#37236a" stroke="#37236a" stroke-width="0.2"/></g><rect width="20" height="20" transform="translate(957 282)" fill="none"/></g></svg>