<svg xmlns="http://www.w3.org/2000/svg" width="20" height="20" viewBox="0 0 20 20"><g transform="translate(2 267.412)"><rect width="20" height="20" transform="translate(-2 -267.412)" fill="#fff" opacity="0"/><g transform="translate(-0.832 -265.423)"><path d="M16.446,15.923A7.592,7.592,0,0,0,10.205,4a7.717,7.717,0,0,0-.812.045,7.6,7.6,0,1,0,.037,15.1v.01a7.725,7.725,0,0,0,.776.039,7.593,7.593,0,0,0,6.23-3.256h.011Zm.15-7.311H15.565a7.58,7.58,0,0,0-.576-1.085h.975A7.052,7.052,0,0,1,16.6,8.612Zm.228.543a6.987,6.987,0,0,1,.3,1.085H16.051a7.537,7.537,0,0,0-.281-1.085ZM17.26,11.6c0,.091,0,.181-.007.271H16.168c0-.09.007-.18.007-.271a7.61,7.61,0,0,0-.044-.814h1.081A7.137,7.137,0,0,1,17.26,11.6Zm-1.13.814h1.081a7.008,7.008,0,0,1-.295,1.357h-1.06a7.532,7.532,0,0,0,.274-1.357Zm-.459,1.9h1.046a7.031,7.031,0,0,1-.57,1.085h-1A7.552,7.552,0,0,0,15.672,14.31Zm-.136-7.327h-.928a7.643,7.643,0,0,0-.722-.814h.821a7.116,7.116,0,0,1,.829.814ZM13.958,5.627h-.69a7.61,7.61,0,0,0-1.435-.894,7.006,7.006,0,0,1,2.125.894ZM1.522,11.6a7.055,7.055,0,1,1,7.055,7.055A7.055,7.055,0,0,1,1.522,11.6Zm11.747,5.97h.69a7.006,7.006,0,0,1-2.125.894A7.61,7.61,0,0,0,13.269,17.567Zm1.438-.543h-.819a7.642,7.642,0,0,0,.92-1.085h.953a7.109,7.109,0,0,1-1.052,1.085Z" transform="translate(-0.972 -3.999)" fill="#37236a" stroke="#37236a" stroke-width="0.2"/><path d="M12.97,10a5.97,5.97,0,1,0,5.97,5.97A5.97,5.97,0,0,0,12.97,10Zm0,11.4A5.427,5.427,0,1,1,18.4,15.97,5.427,5.427,0,0,1,12.97,21.4Z" transform="translate(-5.364 -8.371)" fill="#37236a" stroke="#37236a" stroke-width="0.2"/><path d="M23.9,17.357a1.358,1.358,0,0,1,1.357,1.357.271.271,0,1,0,.543,0,1.9,1.9,0,0,0-1.628-1.878v-.564a.271.271,0,1,0-.543,0v.564A1.9,1.9,0,0,0,22,18.714v.271a1.489,1.489,0,0,0,.919,1.378l1.753.73a.948.948,0,0,1,.584.877,1.357,1.357,0,1,1-2.714,0,.271.271,0,0,0-.543,0,1.9,1.9,0,0,0,1.628,1.878v.564a.271.271,0,0,0,.543,0v-.564A1.9,1.9,0,0,0,25.8,21.97a1.489,1.489,0,0,0-.919-1.378l-1.753-.73a.948.948,0,0,1-.584-.877v-.271A1.358,1.358,0,0,1,23.9,17.357Z" transform="translate(-16.294 -12.743)" fill="#37236a" stroke="#37236a" stroke-width="0.2"/><path d="M12.814,29h-.543a.271.271,0,0,0,0,.543h.543a.271.271,0,0,0,0-.543Z" transform="translate(-9.007 -22.216)" fill="#37236a" stroke="#37236a" stroke-width="0.2"/><path d="M12.814,33h-.543a.271.271,0,1,0,0,.543h.543a.271.271,0,1,0,0-.543Z" transform="translate(-9.007 -25.13)" fill="#37236a" stroke="#37236a" stroke-width="0.2"/><path d="M42.271,29.543h.543a.271.271,0,0,0,0-.543h-.543a.271.271,0,0,0,0,.543Z" transform="translate(-30.867 -22.216)" fill="#37236a" stroke="#37236a" stroke-width="0.2"/><path d="M42.814,33h-.543a.271.271,0,0,0,0,.543h.543a.271.271,0,1,0,0-.543Z" transform="translate(-30.867 -25.13)" fill="#37236a" stroke="#37236a" stroke-width="0.2"/></g></g></svg>