<svg xmlns="http://www.w3.org/2000/svg" width="15" height="15" viewBox="0 0 15 15"><defs><style>.a{fill:none;}.b{fill:#ffaf51;}</style></defs><g transform="translate(-21 -323)"><g transform="translate(-2 6)"><rect class="a" width="15" height="15" transform="translate(23 317)"/></g><g transform="translate(22 325.001)"><path class="b" d="M8,14h5.185v.943H8Zm0,2.357h6.127V17.3H8Z" transform="translate(-5.172 -9.287)"/><path class="b" d="M14.255,4H2.943A.943.943,0,0,0,2,4.943v9.427a.943.943,0,0,0,.943.943H14.255a.943.943,0,0,0,.943-.943V4.943A.943.943,0,0,0,14.255,4Zm0,.943v.943H2.943V4.943ZM2.943,14.369V6.828H14.255v7.541Z" transform="translate(-2 -4)"/></g></g></svg>