<svg xmlns="http://www.w3.org/2000/svg" width="20" height="20" viewBox="0 0 20 20"><g transform="translate(-23 -402.78)"><g transform="translate(26.238 406.237)"><g transform="translate(0 0)"><path d="M24.622,975.37a.294.294,0,0,0-.062.013,2.156,2.156,0,0,0-1.327.985,2.22,2.22,0,0,0-.169,1.5,6.732,6.732,0,0,0,1.883,3.163,6.634,6.634,0,0,0,3.139,1.938,2.1,2.1,0,0,0,2.6-1.495.283.283,0,0,0-.116-.333l-2.03-1.269,0,0-.031-.018a.285.285,0,0,0-.1-.04h-.009l-.022,0h0a.288.288,0,0,0-.138.027.269.269,0,0,0-.045.027l-.027.018-.009.013a.275.275,0,0,0-.031.031l-.445.448a5.013,5.013,0,0,1-1.986-2l.41-.4.022-.022.018-.018s0,0,0,0l.018-.018s0,0,0,0l.009-.013.009-.009.009-.022s0,0,0,0l0-.009.009-.018c0-.007,0-.015,0-.022s0,0,0,0,0-.018,0-.027,0,0,0,0,0-.015,0-.022,0,0,0,0,0-.015,0-.022,0-.006,0-.009,0-.015,0-.022,0,0,0,0a.282.282,0,0,0-.018-.049s0,0,0,0a.289.289,0,0,0-.018-.035l0-.009,0,0-1.269-2.076a.285.285,0,0,0-.236-.137h-.027Zm-.1.625,1.037,1.708-.432.426a.283.283,0,0,0-.045.342,5.608,5.608,0,0,0,2.533,2.5.286.286,0,0,0,.316-.058l.459-.457,1.674,1.042a1.579,1.579,0,0,1-.7.807,1.715,1.715,0,0,1-1.158.106,6.234,6.234,0,0,1-2.849-1.779,6.324,6.324,0,0,1-1.732-2.87,1.661,1.661,0,0,1,.116-1.127A1.44,1.44,0,0,1,24.519,976Z" transform="translate(-20.425 -972.788)" fill="#37236a" stroke="#37236a" stroke-linecap="round" stroke-linejoin="round" stroke-width="0.3" fill-rule="evenodd"/><path d="M12.428,958.362a6.409,6.409,0,0,0-5.372,9.933l-.719,2.393a.292.292,0,0,0,.375.359l2.348-.809a6.418,6.418,0,1,0,3.368-11.876Zm0,.583a5.83,5.83,0,1,1-3.172,10.728A.293.293,0,0,0,9,969.642l-1.942.669.595-1.98a.291.291,0,0,0-.038-.248,5.827,5.827,0,0,1,4.812-9.138Z" transform="translate(-6 -958.362)" fill="#37236a" stroke="#37236a" stroke-linecap="round" stroke-linejoin="round" stroke-width="0.3" fill-rule="evenodd"/></g></g><rect width="20" height="20" transform="translate(23 402.78)" fill="none"/></g></svg>