<svg xmlns="http://www.w3.org/2000/svg" width="15" height="15" viewBox="0 0 15 15"><defs><style>.a{fill:#ffaf51;stroke:#ffaf51;stroke-linecap:round;stroke-linejoin:round;stroke-width:0.3px;fill-rule:evenodd;}.b{fill:none;}</style></defs><g transform="translate(-23 -403)"><g transform="translate(19 399)"><g transform="translate(6 6)"><path class="a" d="M24.45,975.37a.256.256,0,0,0-.056.012,1.927,1.927,0,0,0-1.186.88,1.984,1.984,0,0,0-.151,1.344,6.018,6.018,0,0,0,1.684,2.827,5.93,5.93,0,0,0,2.806,1.733,1.873,1.873,0,0,0,2.32-1.336.253.253,0,0,0-.1-.3L27.949,979.4l0,0-.028-.016a.256.256,0,0,0-.088-.036h-.008l-.02,0h0a.256.256,0,0,0-.123.024.244.244,0,0,0-.04.024l-.024.016-.008.012a.246.246,0,0,0-.028.028l-.4.4a4.481,4.481,0,0,1-1.775-1.788l.366-.361.02-.02.016-.016s0,0,0,0l.016-.016s0,0,0,0l.008-.012.008-.008.008-.02s0,0,0,0l0-.008.008-.016c0-.007,0-.013,0-.02s0,0,0,0,0-.016,0-.024,0,0,0,0,0-.013,0-.02,0,0,0,0,0-.013,0-.02,0-.005,0-.008,0-.013,0-.02,0,0,0,0a.252.252,0,0,0-.016-.044s0,0,0,0a.253.253,0,0,0-.016-.032l0-.008,0,0-1.134-1.856a.255.255,0,0,0-.211-.123H24.45Zm-.092.559.927,1.527-.386.381a.253.253,0,0,0-.04.305,5.013,5.013,0,0,0,2.265,2.236.256.256,0,0,0,.283-.052l.41-.408,1.5.932a1.412,1.412,0,0,1-.629.722,1.533,1.533,0,0,1-1.035.1,5.574,5.574,0,0,1-2.547-1.59,5.653,5.653,0,0,1-1.548-2.565,1.485,1.485,0,0,1,.1-1.007A1.287,1.287,0,0,1,24.359,975.929Z" transform="translate(-20.699 -973.062)"/><path class="a" d="M11.746,958.362a5.729,5.729,0,0,0-4.8,8.879L6.3,969.381a.261.261,0,0,0,.335.321l2.1-.723a5.737,5.737,0,1,0,3.011-10.616Zm0,.521a5.212,5.212,0,1,1-2.835,9.59.262.262,0,0,0-.227-.028l-1.736.6.531-1.77a.26.26,0,0,0-.034-.221,5.209,5.209,0,0,1,4.3-8.168Z" transform="translate(-6 -958.362)"/></g></g><rect class="b" width="15" height="15" transform="translate(23 403)"/></g></svg>