<svg xmlns="http://www.w3.org/2000/svg" width="65" height="65" viewBox="0 0 65 65"><g transform="translate(2 267)"><rect width="65" height="65" transform="translate(-2 -267)" fill="#fff" opacity="0"/><g transform="translate(2.338 -262.162)"><g transform="translate(9.5 9.5)"><path d="M46.514,42.858a3.656,3.656,0,0,1-3.656,3.656h-29.7A3.656,3.656,0,0,1,9.5,42.858v-29.7A3.656,3.656,0,0,1,13.156,9.5h29.7a3.656,3.656,0,0,1,3.656,3.656Z" transform="translate(-9.5 -9.5)" fill="none" stroke="#37236a" stroke-linecap="round" stroke-linejoin="round" stroke-miterlimit="10" stroke-width="1.3"/><line x2="36" transform="translate(1.162 7.662)" stroke-width="1.3" stroke="#37236a" stroke-linecap="round" stroke-linejoin="round" stroke-miterlimit="10" fill="none"/><line x2="6" transform="translate(4.162 3.662)" stroke-width="1.3" stroke="#37236a" stroke-linecap="round" stroke-linejoin="round" stroke-miterlimit="10" fill="none"/><circle cx="1.113" cy="1.113" r="1.113" transform="translate(22.534 2.543)" fill="#37236a"/><circle cx="1.113" cy="1.113" r="1.113" transform="translate(27.104 2.543)" fill="#37236a"/><circle cx="1.113" cy="1.113" r="1.113" transform="translate(31.674 2.543)" fill="#37236a"/></g><g transform="translate(19.907 23.348)"><g transform="translate(0 0)"><circle cx="3.8" cy="3.8" r="3.8" transform="translate(4.3)" fill="none" stroke="#37236a" stroke-linecap="round" stroke-linejoin="round" stroke-miterlimit="10" stroke-width="1.3"/><path d="M32.274,69.795c0-3.2,3.626-6.484,8.1-6.484s8.1,3.285,8.1,6.484Z" transform="translate(-32.274 -52.57)" fill="none" stroke="#37236a" stroke-linecap="round" stroke-linejoin="round" stroke-miterlimit="10" stroke-width="1.3"/></g></g></g></g></svg>