<svg xmlns="http://www.w3.org/2000/svg" width="65" height="65" viewBox="0 0 65 65"><g transform="translate(2 267)"><rect width="65" height="65" transform="translate(-2 -267)" fill="#fff" opacity="0"/><g transform="translate(1 -262.148)"><path d="M48.5,15a.546.546,0,1,0,0,1.092A2.217,2.217,0,0,1,50.687,18.3V40.12H8.092V18.3a2.217,2.217,0,0,1,2.184-2.212.546.546,0,0,0,0-1.092h0A3.32,3.32,0,0,0,7,18.3V43.4a3.3,3.3,0,0,0,3.3,3.277H22.755l-.945,6.586a3.823,3.823,0,0,0-3.342,3.79v.546H40.311v-.546a3.823,3.823,0,0,0-3.342-3.79l-.945-6.586H48.5A3.3,3.3,0,0,0,51.779,43.4V18.3A3.32,3.32,0,0,0,48.5,15ZM39.165,56.5H19.615a2.73,2.73,0,0,1,2.676-2.184h14.2A2.731,2.731,0,0,1,39.165,56.5Zm-3.3-3.277H22.918l.939-6.553H34.922ZM50.687,43.4A2.217,2.217,0,0,1,48.5,45.581H10.3A2.217,2.217,0,0,1,8.092,43.4V41.212H50.687Z" transform="translate(0 -5.447)" fill="#37236a"/><path d="M15.546,33.581a.546.546,0,0,0,.546-.546V7.369H49.95V33.035a.546.546,0,0,0,1.092,0V3H15V33.035A.546.546,0,0,0,15.546,33.581Zm.546-28.943V4.092H49.95V6.277H16.092Z" transform="translate(-3.631)" fill="#37236a"/><rect width="1" height="2" transform="translate(14 4.148)" fill="#37236a"/><rect width="1" height="2" transform="translate(16 4.148)" fill="#37236a"/><rect width="1" height="2" transform="translate(18 4.148)" fill="#37236a"/><path d="M19.546,14.312h4.369a.546.546,0,1,0,0-1.092H19.546a.546.546,0,1,0,0,1.092Z" transform="translate(-5.447 -4.639)" fill="#37236a"/><path d="M19.546,17.872h4.369a.546.546,0,0,0,0-1.092H19.546a.546.546,0,0,0,0,1.092Z" transform="translate(-5.447 -6.255)" fill="#37236a"/><path d="M49.39,42.21H27.546a.546.546,0,0,0-.546.546v4.369a.546.546,0,0,0,.546.546H49.39a.546.546,0,0,0,.546-.546V42.756A.546.546,0,0,0,49.39,42.21Zm-.546,4.369H28.092V43.3H48.844Z" transform="translate(-9.078 -17.798)" fill="#37236a"/><path d="M40,28.608v1.638a.546.546,0,0,0,.546.546h7.645a.546.546,0,0,0,.546-.546V28.608a4.369,4.369,0,0,0-2.67-4.025,2.73,2.73,0,1,0-3.4,0A4.369,4.369,0,0,0,40,28.608Zm4.369-7.782a1.627,1.627,0,1,0,0,.022Zm0,4.505a3.277,3.277,0,0,1,3.277,3.277V29.7H41.092V28.608A3.277,3.277,0,0,1,44.369,25.332Z" transform="translate(-14.979 -7.587)" fill="#37236a"/><circle cx="0.819" cy="0.819" r="0.819" transform="translate(22.017 26.433)" fill="#37236a"/><circle cx="0.273" cy="0.273" r="0.273" transform="translate(22.564 26.979)" fill="#37236a"/><circle cx="0.819" cy="0.819" r="0.819" transform="translate(25.294 26.433)" fill="#37236a"/><circle cx="0.819" cy="0.819" r="0.819" transform="translate(28.571 26.433)" fill="#37236a"/><circle cx="0.819" cy="0.819" r="0.819" transform="translate(31.847 26.433)" fill="#37236a"/><circle cx="0.819" cy="0.819" r="0.819" transform="translate(35.124 26.433)" fill="#37236a"/></g></g></svg>