<svg xmlns="http://www.w3.org/2000/svg" width="1395.02" height="807.325" viewBox="0 0 1395.02 807.325">
  <g id="Group_3926" data-name="Group 3926" transform="translate(38.232 10.404)">
    <path id="Path_9799" data-name="Path 9799" d="M13.114.21.8,7.143a1.541,1.541,0,0,0,.793,2.885H7.969a1.6,1.6,0,0,1,1.373.771l3.191,5.389a1.593,1.593,0,0,0,2.959-.776V1.548A1.585,1.585,0,0,0,13.114.21Z" transform="translate(173.768 237.562)" fill="#37236a" opacity="0.2"/>
    <path id="Path_9852" data-name="Path 9852" d="M13.114.21.8,7.143a1.541,1.541,0,0,0,.793,2.885H7.969a1.6,1.6,0,0,1,1.373.771l3.191,5.389a1.593,1.593,0,0,0,2.959-.776V1.548A1.585,1.585,0,0,0,13.114.21Z" transform="translate(255.803 737.457)" fill="#37236a" opacity="0.1"/>
    <path id="Path_9884" data-name="Path 9884" d="M13.114.21.8,7.143a1.541,1.541,0,0,0,.793,2.885H7.969a1.6,1.6,0,0,1,1.373.771l3.191,5.389a1.593,1.593,0,0,0,2.959-.776V1.548A1.585,1.585,0,0,0,13.114.21Z" transform="translate(1115.803 219.242)" fill="#37236a" opacity="0.2"/>
    <path id="Path_9821" data-name="Path 9821" d="M13.114.21.8,7.143a1.541,1.541,0,0,0,.793,2.885H7.969a1.6,1.6,0,0,1,1.373.771l3.191,5.389a1.593,1.593,0,0,0,2.959-.776V1.548A1.585,1.585,0,0,0,13.114.21Z" transform="translate(89.394 330.288)" fill="#37236a" opacity="0.2"/>
    <path id="Path_9813" data-name="Path 9813" d="M13.114.21.8,7.143a1.541,1.541,0,0,0,.793,2.885H7.969a1.6,1.6,0,0,1,1.373.771l3.191,5.389a1.593,1.593,0,0,0,2.959-.776V1.548A1.585,1.585,0,0,0,13.114.21Z" transform="translate(538.669 119.774)" fill="#37236a" opacity="0.2"/>
    <path id="Path_9844" data-name="Path 9844" d="M13.114.21.8,7.143a1.541,1.541,0,0,0,.793,2.885H7.969a1.6,1.6,0,0,1,1.373.771l3.191,5.389a1.593,1.593,0,0,0,2.959-.776V1.548A1.585,1.585,0,0,0,13.114.21Z" transform="translate(620.703 619.67)" fill="#37236a" opacity="0.2"/>
    <path id="Path_9911" data-name="Path 9911" d="M13.114.21.8,7.143a1.541,1.541,0,0,0,.793,2.885H7.969a1.6,1.6,0,0,1,1.373.771l3.191,5.389a1.593,1.593,0,0,0,2.959-.776V1.548A1.585,1.585,0,0,0,13.114.21Z" transform="translate(8.012 529.684)" fill="#37236a" opacity="0.1"/>
    <path id="Path_9804" data-name="Path 9804" d="M25.868.414,1.569,14.089a3.04,3.04,0,0,0,1.564,5.692H15.72A3.149,3.149,0,0,1,18.429,21.3q3.146,5.317,6.294,10.631A3.142,3.142,0,0,0,30.56,30.4V3.053A3.127,3.127,0,0,0,25.868.414Z" transform="translate(244.661 351.785)" fill="#37236a" opacity="0.2"/>
    <path id="Path_9820" data-name="Path 9820" d="M25.868.414,1.569,14.089a3.04,3.04,0,0,0,1.564,5.692H15.72A3.149,3.149,0,0,1,18.429,21.3q3.146,5.317,6.294,10.631A3.142,3.142,0,0,0,30.56,30.4V3.053A3.127,3.127,0,0,0,25.868.414Z" transform="translate(368.698 190.619)" fill="#37236a" opacity="0.2"/>
    <path id="Path_9833" data-name="Path 9833" d="M25.868.414,1.569,14.089a3.04,3.04,0,0,0,1.564,5.692H15.72A3.149,3.149,0,0,1,18.429,21.3q3.146,5.317,6.294,10.631A3.142,3.142,0,0,0,30.56,30.4V3.053A3.127,3.127,0,0,0,25.868.414Z" transform="translate(450.732 690.517)" fill="#37236a" opacity="0.1"/>
    <path id="Path_9912" data-name="Path 9912" d="M25.868.414,1.569,14.089a3.04,3.04,0,0,0,1.564,5.692H15.72A3.149,3.149,0,0,1,18.429,21.3q3.146,5.317,6.294,10.631A3.142,3.142,0,0,0,30.56,30.4V3.053A3.127,3.127,0,0,0,25.868.414Z" transform="translate(3.372 385.305)" fill="#37236a" opacity="0.1"/>
    <path id="Path_9865" data-name="Path 9865" d="M25.868.414,1.569,14.089a3.04,3.04,0,0,0,1.564,5.692H15.72A3.149,3.149,0,0,1,18.429,21.3q3.146,5.317,6.294,10.631A3.142,3.142,0,0,0,30.56,30.4V3.053A3.127,3.127,0,0,0,25.868.414Z" transform="translate(1310.732 172.301)" fill="#37236a" opacity="0.1"/>
    <path id="Path_9823" data-name="Path 9823" d="M25.868.414,1.569,14.089a3.04,3.04,0,0,0,1.564,5.692H15.72A3.149,3.149,0,0,1,18.429,21.3q3.146,5.317,6.294,10.631A3.142,3.142,0,0,0,30.56,30.4V3.053A3.127,3.127,0,0,0,25.868.414Z" transform="translate(81.86 162.025)" fill="#37236a" opacity="0.1"/>
    <path id="Path_9860" data-name="Path 9860" d="M25.868.414,1.569,14.089a3.04,3.04,0,0,0,1.564,5.692H15.72A3.149,3.149,0,0,1,18.429,21.3q3.146,5.317,6.294,10.631A3.142,3.142,0,0,0,30.56,30.4V3.053A3.127,3.127,0,0,0,25.868.414Z" transform="translate(163.894 661.922)" fill="#37236a" opacity="0.1"/>
    <path id="Path_9892" data-name="Path 9892" d="M25.868.414,1.569,14.089a3.04,3.04,0,0,0,1.564,5.692H15.72A3.149,3.149,0,0,1,18.429,21.3q3.146,5.317,6.294,10.631A3.142,3.142,0,0,0,30.56,30.4V3.053A3.127,3.127,0,0,0,25.868.414Z" transform="translate(1023.894 143.705)" fill="#37236a" opacity="0.1"/>
    <path id="Path_9814" data-name="Path 9814" d="M25.868.414,1.569,14.089a3.04,3.04,0,0,0,1.564,5.692H15.72A3.149,3.149,0,0,1,18.429,21.3q3.146,5.317,6.294,10.631A3.142,3.142,0,0,0,30.56,30.4V3.053A3.127,3.127,0,0,0,25.868.414Z" transform="translate(348.77 480.3)" fill="#37236a" opacity="0.2"/>
    <path id="Path_9825" data-name="Path 9825" d="M25.868.414,1.569,14.089a3.04,3.04,0,0,0,1.564,5.692H15.72A3.149,3.149,0,0,1,18.429,21.3q3.146,5.317,6.294,10.631A3.142,3.142,0,0,0,30.56,30.4V3.053A3.127,3.127,0,0,0,25.868.414Z" transform="translate(451.363 429.084)" fill="#37236a" opacity="0.2"/>
    <path id="Path_9800" data-name="Path 9800" d="M27.727.444,1.682,15.1a3.258,3.258,0,0,0,1.676,6.1H16.85a3.375,3.375,0,0,1,2.9,1.631q3.373,5.7,6.746,11.394a3.368,3.368,0,0,0,6.256-1.641V3.273A3.352,3.352,0,0,0,27.727.444Z" transform="translate(116.432 459.358)" fill="#37236a" opacity="0.2"/>
    <path id="Path_9810" data-name="Path 9810" d="M27.727.444,1.682,15.1a3.258,3.258,0,0,0,1.676,6.1H16.85a3.375,3.375,0,0,1,2.9,1.631q3.373,5.7,6.746,11.394a3.368,3.368,0,0,0,6.256-1.641V3.273A3.352,3.352,0,0,0,27.727.444Z" transform="translate(742.321 293.494)" fill="#37236a" opacity="0.2"/>
    <path id="Path_9805" data-name="Path 9805" d="M54.693.875,3.317,29.789A6.426,6.426,0,0,0,6.624,41.823H33.238a6.658,6.658,0,0,1,5.727,3.218q6.653,11.242,13.308,22.475c3.383,5.708,12.34,3.37,12.34-3.237V6.455A6.612,6.612,0,0,0,54.693.875Z" transform="translate(563.874 368.706)" fill="#37236a" opacity="0.2"/>
    <path id="Path_9824" data-name="Path 9824" d="M54.693.875,3.317,29.789A6.426,6.426,0,0,0,6.624,41.823H33.238a6.658,6.658,0,0,1,5.727,3.218q6.653,11.242,13.308,22.475c3.383,5.708,12.34,3.37,12.34-3.237V6.455A6.612,6.612,0,0,0,54.693.875Z" transform="translate(119.227 37.003)" fill="#37236a" opacity="0.1"/>
    <path id="Path_9854" data-name="Path 9854" d="M54.693.875,3.317,29.789A6.426,6.426,0,0,0,6.624,41.823H33.238a6.658,6.658,0,0,1,5.727,3.218q6.653,11.242,13.308,22.475c3.383,5.708,12.34,3.37,12.34-3.237V6.455A6.612,6.612,0,0,0,54.693.875Z" transform="translate(201.261 536.9)" fill="#37236a" opacity="0.2"/>
    <path id="Path_9886" data-name="Path 9886" d="M54.693.875,3.317,29.789A6.426,6.426,0,0,0,6.624,41.823H33.238a6.658,6.658,0,0,1,5.727,3.218q6.653,11.242,13.308,22.475c3.383,5.708,12.34,3.37,12.34-3.237V6.455A6.612,6.612,0,0,0,54.693.875Z" transform="translate(1061.261 18.685)" fill="#37236a" opacity="0.1"/>
    <path id="Path_9809" data-name="Path 9809" d="M54.693.875,3.317,29.789A6.426,6.426,0,0,0,6.624,41.823H33.238a6.658,6.658,0,0,1,5.727,3.218q6.653,11.242,13.308,22.475c3.383,5.708,12.34,3.37,12.34-3.237V6.455A6.612,6.612,0,0,0,54.693.875Z" transform="translate(897.765 322.554)" fill="#37236a" opacity="0.2"/>
    <path id="Path_9901" data-name="Path 9901" d="M54.693.875,3.317,29.789A6.426,6.426,0,0,0,6.624,41.823H33.238a6.658,6.658,0,0,1,5.727,3.218q6.653,11.242,13.308,22.475c3.383,5.708,12.34,3.37,12.34-3.237V6.455A6.612,6.612,0,0,0,54.693.875Z" transform="translate(1095.147 579.569)" fill="#37236a" opacity="0.1"/>
    <path id="Path_9801" data-name="Path 9801" d="M18.641.3,1.131,10.153a2.19,2.19,0,0,0,1.127,4.1h9.071a2.269,2.269,0,0,1,1.952,1.1q2.268,3.832,4.536,7.66a2.264,2.264,0,0,0,4.206-1.1V2.2A2.254,2.254,0,0,0,18.641.3Z" transform="translate(334.387 114.053)" fill="#37236a" opacity="0.2"/>
    <path id="Path_9847" data-name="Path 9847" d="M18.641.3,1.131,10.153a2.19,2.19,0,0,0,1.127,4.1h9.071a2.269,2.269,0,0,1,1.952,1.1q2.268,3.832,4.536,7.66a2.264,2.264,0,0,0,4.206-1.1V2.2A2.254,2.254,0,0,0,18.641.3Z" transform="translate(416.422 613.949)" fill="#37236a" opacity="0.2"/>
    <path id="Path_9879" data-name="Path 9879" d="M18.641.3,1.131,10.153a2.19,2.19,0,0,0,1.127,4.1h9.071a2.269,2.269,0,0,1,1.952,1.1q2.268,3.832,4.536,7.66a2.264,2.264,0,0,0,4.206-1.1V2.2A2.254,2.254,0,0,0,18.641.3Z" transform="translate(1276.422 95.733)" fill="#37236a" opacity="0.1"/>
    <path id="Path_9815" data-name="Path 9815" d="M18.641.3,1.131,10.153a2.19,2.19,0,0,0,1.127,4.1h9.071a2.269,2.269,0,0,1,1.952,1.1q2.268,3.832,4.536,7.66a2.264,2.264,0,0,0,4.206-1.1V2.2A2.254,2.254,0,0,0,18.641.3Z" transform="translate(786.546 74.695)" fill="#37236a" opacity="0.1"/>
    <path id="Path_9855" data-name="Path 9855" d="M18.641.3,1.131,10.153a2.19,2.19,0,0,0,1.127,4.1h9.071a2.269,2.269,0,0,1,1.952,1.1q2.268,3.832,4.536,7.66a2.264,2.264,0,0,0,4.206-1.1V2.2A2.254,2.254,0,0,0,18.641.3Z" transform="translate(868.581 574.591)" fill="#37236a" opacity="0.2"/>
    <path id="Path_9806" data-name="Path 9806" d="M36.772.588,2.23,20.028A4.321,4.321,0,0,0,4.453,28.12H22.347a4.476,4.476,0,0,1,3.85,2.163q4.473,7.558,8.947,15.11c2.274,3.838,8.3,2.266,8.3-2.175V4.34A4.446,4.446,0,0,0,36.772.588Z" transform="translate(500.324 249.459)" fill="#37236a" opacity="0.2"/>
    <path id="Path_9838" data-name="Path 9838" d="M36.772.588,2.23,20.028A4.321,4.321,0,0,0,4.453,28.12H22.347a4.476,4.476,0,0,1,3.85,2.163q4.473,7.558,8.947,15.11c2.274,3.838,8.3,2.266,8.3-2.175V4.34A4.446,4.446,0,0,0,36.772.588Z" transform="translate(582.359 749.355)" fill="#37236a" opacity="0.1"/>
    <path id="Path_9908" data-name="Path 9908" d="M36.772.588,2.23,20.028A4.321,4.321,0,0,0,4.453,28.12H22.347a4.476,4.476,0,0,1,3.85,2.163q4.473,7.558,8.947,15.11c2.274,3.838,8.3,2.266,8.3-2.175V4.34A4.446,4.446,0,0,0,36.772.588Z" transform="translate(-30.332 659.368)" fill="#37236a" opacity="0.1"/>
    <path id="Path_9830" data-name="Path 9830" d="M36.772.588,2.23,20.028A4.321,4.321,0,0,0,4.453,28.12H22.347a4.476,4.476,0,0,1,3.85,2.163q4.473,7.558,8.947,15.11c2.274,3.838,8.3,2.266,8.3-2.175V4.34A4.446,4.446,0,0,0,36.772.588Z" transform="translate(646.516 106.059)" fill="#37236a" opacity="0.1"/>
    <path id="Path_9848" data-name="Path 9848" d="M36.772.588,2.23,20.028A4.321,4.321,0,0,0,4.453,28.12H22.347a4.476,4.476,0,0,1,3.85,2.163q4.473,7.558,8.947,15.11c2.274,3.838,8.3,2.266,8.3-2.175V4.34A4.446,4.446,0,0,0,36.772.588Z" transform="translate(728.55 605.955)" fill="#37236a" opacity="0.2"/>
    <path id="Path_9819" data-name="Path 9819" d="M36.772.588,2.23,20.028A4.321,4.321,0,0,0,4.453,28.12H22.347a4.476,4.476,0,0,1,3.85,2.163q4.473,7.558,8.947,15.11c2.274,3.838,8.3,2.266,8.3-2.175V4.34A4.446,4.446,0,0,0,36.772.588Z" transform="translate(756.971 424.914)" fill="#37236a" opacity="0.2"/>
    <path id="Path_9811" data-name="Path 9811" d="M36.772.588,2.23,20.028A4.321,4.321,0,0,0,4.453,28.12H22.347a4.476,4.476,0,0,1,3.85,2.163q4.473,7.558,8.947,15.11c2.274,3.838,8.3,2.266,8.3-2.175V4.34A4.446,4.446,0,0,0,36.772.588Z" transform="translate(834.215 203.305)" fill="#37236a" opacity="0.2"/>
    <path id="Path_9839" data-name="Path 9839" d="M36.772.588,2.23,20.028A4.321,4.321,0,0,0,4.453,28.12H22.347a4.476,4.476,0,0,1,3.85,2.163q4.473,7.558,8.947,15.11c2.274,3.838,8.3,2.266,8.3-2.175V4.34A4.446,4.446,0,0,0,36.772.588Z" transform="translate(916.25 703.202)" fill="#37236a" opacity="0.1"/>
    <path id="Path_9822" data-name="Path 9822" d="M36.772.588,2.23,20.028A4.321,4.321,0,0,0,4.453,28.12H22.347a4.476,4.476,0,0,1,3.85,2.163q4.473,7.558,8.947,15.11c2.274,3.838,8.3,2.266,8.3-2.175V4.34A4.446,4.446,0,0,0,36.772.588Z" transform="translate(899.84 65.281)" fill="#37236a" opacity="0.2"/>
    <path id="Path_9856" data-name="Path 9856" d="M36.772.588,2.23,20.028A4.321,4.321,0,0,0,4.453,28.12H22.347a4.476,4.476,0,0,1,3.85,2.163q4.473,7.558,8.947,15.11c2.274,3.838,8.3,2.266,8.3-2.175V4.34A4.446,4.446,0,0,0,36.772.588Z" transform="translate(981.875 565.177)" fill="#37236a" opacity="0.2"/>
    <path id="Path_9802" data-name="Path 9802" d="M6.666.107.4,3.63A.783.783,0,0,0,.807,5.1H4.051a.812.812,0,0,1,.7.392L6.371,8.229a.81.81,0,0,0,1.5-.395V.787A.806.806,0,0,0,6.666.107Z" transform="translate(268.205 109.036)" fill="#37236a" opacity="0.2"/>
    <path id="Path_9857" data-name="Path 9857" d="M6.666.107.4,3.63A.783.783,0,0,0,.807,5.1H4.051a.812.812,0,0,1,.7.392L6.371,8.229a.81.81,0,0,0,1.5-.395V.787A.806.806,0,0,0,6.666.107Z" transform="translate(350.24 608.933)" fill="#37236a" opacity="0.2"/>
    <path id="Path_9889" data-name="Path 9889" d="M6.666.107.4,3.63A.783.783,0,0,0,.807,5.1H4.051a.812.812,0,0,1,.7.392L6.371,8.229a.81.81,0,0,0,1.5-.395V.787A.806.806,0,0,0,6.666.107Z" transform="translate(1210.24 90.717)" fill="#37236a" opacity="0.1"/>
    <path id="Path_9817" data-name="Path 9817" d="M6.666.107.4,3.63A.783.783,0,0,0,.807,5.1H4.051a.812.812,0,0,1,.7.392L6.371,8.229a.81.81,0,0,0,1.5-.395V.787A.806.806,0,0,0,6.666.107Z" transform="translate(602.096 62.883)" fill="#37236a" opacity="0.1"/>
    <path id="Path_9861" data-name="Path 9861" d="M6.666.107.4,3.63A.783.783,0,0,0,.807,5.1H4.051a.812.812,0,0,1,.7.392L6.371,8.229a.81.81,0,0,0,1.5-.395V.787A.806.806,0,0,0,6.666.107Z" transform="translate(684.131 562.779)" fill="#37236a" opacity="0.2"/>
    <path id="Path_9807" data-name="Path 9807" d="M13.149.21.8,7.161a1.545,1.545,0,0,0,.795,2.894h6.4a1.6,1.6,0,0,1,1.377.773q1.6,2.7,3.2,5.4a1.6,1.6,0,0,0,2.967-.778V1.551A1.589,1.589,0,0,0,13.149.21Z" transform="translate(399.219 324.081)" fill="#37236a" opacity="0.2"/>
    <path id="Path_9812" data-name="Path 9812" d="M13.149.21.8,7.161a1.545,1.545,0,0,0,.795,2.894h6.4a1.6,1.6,0,0,1,1.377.773q1.6,2.7,3.2,5.4a1.6,1.6,0,0,0,2.967-.778V1.551A1.589,1.589,0,0,0,13.149.21Z" transform="translate(703.667 193.41)" fill="#37236a" opacity="0.2"/>
    <path id="Path_9841" data-name="Path 9841" d="M13.149.21.8,7.161a1.545,1.545,0,0,0,.795,2.894h6.4a1.6,1.6,0,0,1,1.377.773q1.6,2.7,3.2,5.4a1.6,1.6,0,0,0,2.967-.778V1.551A1.589,1.589,0,0,0,13.149.21Z" transform="translate(785.701 693.307)" fill="#37236a" opacity="0.1"/>
    <path id="Path_9803" data-name="Path 9803" d="M6.666.107.4,3.63A.783.783,0,0,0,.807,5.1H4.051a.812.812,0,0,1,.7.392L6.371,8.229a.81.81,0,0,0,1.5-.395V.787A.806.806,0,0,0,6.666.107Z" transform="translate(191.952 154.705)" fill="#37236a" opacity="0.2"/>
    <path id="Path_9858" data-name="Path 9858" d="M6.666.107.4,3.63A.783.783,0,0,0,.807,5.1H4.051a.812.812,0,0,1,.7.392L6.371,8.229a.81.81,0,0,0,1.5-.395V.787A.806.806,0,0,0,6.666.107Z" transform="translate(273.986 654.602)" fill="#37236a" opacity="0.2"/>
    <path id="Path_9890" data-name="Path 9890" d="M6.666.107.4,3.63A.783.783,0,0,0,.807,5.1H4.051a.812.812,0,0,1,.7.392L6.371,8.229a.81.81,0,0,0,1.5-.395V.787A.806.806,0,0,0,6.666.107Z" transform="translate(1133.986 136.386)" fill="#37236a" opacity="0.1"/>
    <path id="Path_9818" data-name="Path 9818" d="M6.666.107.4,3.63A.783.783,0,0,0,.807,5.1H4.051a.812.812,0,0,1,.7.392L6.371,8.229a.81.81,0,0,0,1.5-.395V.787A.806.806,0,0,0,6.666.107Z" transform="translate(486.053 68.065)" fill="#37236a" opacity="0.1"/>
    <path id="Path_9862" data-name="Path 9862" d="M6.666.107.4,3.63A.783.783,0,0,0,.807,5.1H4.051a.812.812,0,0,1,.7.392L6.371,8.229a.81.81,0,0,0,1.5-.395V.787A.806.806,0,0,0,6.666.107Z" transform="translate(568.088 567.962)" fill="#37236a" opacity="0.2"/>
    <path id="Path_9808" data-name="Path 9808" d="M13.149.21.8,7.161a1.545,1.545,0,0,0,.795,2.894h6.4a1.6,1.6,0,0,1,1.377.773q1.6,2.7,3.2,5.4a1.6,1.6,0,0,0,2.967-.778V1.551A1.589,1.589,0,0,0,13.149.21Z" transform="translate(262.396 257.77)" fill="#37236a" opacity="0.2"/>
    <path id="Path_9849" data-name="Path 9849" d="M13.149.21.8,7.161a1.545,1.545,0,0,0,.795,2.894h6.4a1.6,1.6,0,0,1,1.377.773q1.6,2.7,3.2,5.4a1.6,1.6,0,0,0,2.967-.778V1.551A1.589,1.589,0,0,0,13.149.21Z" transform="translate(344.431 757.667)" fill="#37236a" opacity="0.1"/>
    <path id="Path_9881" data-name="Path 9881" d="M13.149.21.8,7.161a1.545,1.545,0,0,0,.795,2.894h6.4a1.6,1.6,0,0,1,1.377.773q1.6,2.7,3.2,5.4a1.6,1.6,0,0,0,2.967-.778V1.551A1.589,1.589,0,0,0,13.149.21Z" transform="translate(1204.431 239.451)" fill="#37236a" opacity="0.2"/>
    <path id="Path_9826" data-name="Path 9826" d="M13.149.21.8,7.161a1.545,1.545,0,0,0,.795,2.894h6.4a1.6,1.6,0,0,1,1.377.773q1.6,2.7,3.2,5.4a1.6,1.6,0,0,0,2.967-.778V1.551A1.589,1.589,0,0,0,13.149.21Z" transform="translate(314.172 411.598)" fill="#37236a" opacity="0.2"/>
    <path id="Path_9816" data-name="Path 9816" d="M13.149.21.8,7.161a1.545,1.545,0,0,0,.795,2.894h6.4a1.6,1.6,0,0,1,1.377.773q1.6,2.7,3.2,5.4a1.6,1.6,0,0,0,2.967-.778V1.551A1.589,1.589,0,0,0,13.149.21Z" transform="translate(596.287 211.617)" fill="#37236a" opacity="0.2"/>
    <path id="Path_9842" data-name="Path 9842" d="M13.149.21.8,7.161a1.545,1.545,0,0,0,.795,2.894h6.4a1.6,1.6,0,0,1,1.377.773q1.6,2.7,3.2,5.4a1.6,1.6,0,0,0,2.967-.778V1.551A1.589,1.589,0,0,0,13.149.21Z" transform="translate(678.322 711.513)" fill="#37236a" opacity="0.1"/>
    <path id="Path_9909" data-name="Path 9909" d="M13.149.21.8,7.161a1.545,1.545,0,0,0,.795,2.894h6.4a1.6,1.6,0,0,1,1.377.773q1.6,2.7,3.2,5.4a1.6,1.6,0,0,0,2.967-.778V1.551A1.589,1.589,0,0,0,13.149.21Z" transform="translate(65.631 621.526)" fill="#37236a" opacity="0.1"/>
    <path id="Path_9829" data-name="Path 9829" d="M13.149.21.8,7.161a1.545,1.545,0,0,0,.795,2.894h6.4a1.6,1.6,0,0,1,1.377.773q1.6,2.7,3.2,5.4a1.6,1.6,0,0,0,2.967-.778V1.551A1.589,1.589,0,0,0,13.149.21Z" transform="translate(660.47 478.302)" fill="#37236a" opacity="0.2"/>
    <path id="Path_9828" data-name="Path 9828" d="M13.149.21.8,7.161a1.545,1.545,0,0,0,.795,2.894h6.4a1.6,1.6,0,0,1,1.377.773q1.6,2.7,3.2,5.4a1.6,1.6,0,0,0,2.967-.778V1.551A1.589,1.589,0,0,0,13.149.21Z" transform="translate(875.306 470.645)" fill="#37236a" opacity="0.2"/>
    <path id="Path_9903" data-name="Path 9903" d="M13.149.21.8,7.161a1.545,1.545,0,0,0,.795,2.894h6.4a1.6,1.6,0,0,1,1.377.773q1.6,2.7,3.2,5.4a1.6,1.6,0,0,0,2.967-.778V1.551A1.589,1.589,0,0,0,13.149.21Z" transform="translate(1072.686 727.663)" fill="#37236a" opacity="0.1"/>
    <path id="Path_9827" data-name="Path 9827" d="M13.149.21.8,7.161a1.545,1.545,0,0,0,.795,2.894h6.4a1.6,1.6,0,0,1,1.377.773q1.6,2.7,3.2,5.4a1.6,1.6,0,0,0,2.967-.778V1.551A1.589,1.589,0,0,0,13.149.21Z" transform="translate(449.174 140.288)" fill="#37236a" opacity="0.2"/>
    <path id="Path_9851" data-name="Path 9851" d="M13.149.21.8,7.161a1.545,1.545,0,0,0,.795,2.894h6.4a1.6,1.6,0,0,1,1.377.773q1.6,2.7,3.2,5.4a1.6,1.6,0,0,0,2.967-.778V1.551A1.589,1.589,0,0,0,13.149.21Z" transform="translate(531.208 640.184)" fill="#37236a" opacity="0.2"/>
    <path id="Path_9891" data-name="Path 9891" d="M13.114.21.8,7.143a1.541,1.541,0,0,0,.793,2.885H7.969a1.6,1.6,0,0,1,1.373.771l3.191,5.389a1.593,1.593,0,0,0,2.959-.776V1.548A1.585,1.585,0,0,0,13.114.21Z" transform="translate(1031.428 311.97)" fill="#37236a" opacity="0.2"/>
    <path id="Path_9904" data-name="Path 9904" d="M13.114.21.8,7.143a1.541,1.541,0,0,0,.793,2.885H7.969a1.6,1.6,0,0,1,1.373.771l3.191,5.389a1.593,1.593,0,0,0,2.959-.776V1.548A1.585,1.585,0,0,0,13.114.21Z" transform="translate(1228.81 568.987)" fill="#37236a" opacity="0.2"/>
    <path id="Path_9877" data-name="Path 9877" d="M25.868.414,1.569,14.089a3.04,3.04,0,0,0,1.564,5.692H15.72A3.149,3.149,0,0,1,18.429,21.3q3.146,5.317,6.294,10.631A3.142,3.142,0,0,0,30.56,30.4V3.053A3.127,3.127,0,0,0,25.868.414Z" transform="translate(1186.695 333.467)" fill="#37236a" opacity="0.1"/>
    <path id="Path_9878" data-name="Path 9878" d="M25.868.414,1.569,14.089a3.04,3.04,0,0,0,1.564,5.692H15.72A3.149,3.149,0,0,1,18.429,21.3q3.146,5.317,6.294,10.631A3.142,3.142,0,0,0,30.56,30.4V3.053A3.127,3.127,0,0,0,25.868.414Z" transform="translate(1290.805 461.98)" fill="#37236a" opacity="0.1"/>
    <path id="Path_9885" data-name="Path 9885" d="M27.727.444,1.682,15.1a3.258,3.258,0,0,0,1.676,6.1H16.85a3.375,3.375,0,0,1,2.9,1.631q3.373,5.7,6.746,11.394a3.368,3.368,0,0,0,6.256-1.641V3.273A3.352,3.352,0,0,0,27.727.444Z" transform="translate(1058.467 441.039)" fill="#37236a" opacity="0.2"/>
    <path id="Path_9897" data-name="Path 9897" d="M27.727.444,1.682,15.1a3.258,3.258,0,0,0,1.676,6.1H16.85a3.375,3.375,0,0,1,2.9,1.631q3.373,5.7,6.746,11.394a3.368,3.368,0,0,0,6.256-1.641V3.273A3.352,3.352,0,0,0,27.727.444Z" transform="translate(1255.848 698.057)" fill="#37236a" opacity="0.1"/>
    <path id="Path_9872" data-name="Path 9872" d="M13.149.21.8,7.161a1.545,1.545,0,0,0,.795,2.894h6.4a1.6,1.6,0,0,1,1.377.773q1.6,2.7,3.2,5.4a1.6,1.6,0,0,0,2.967-.778V1.551A1.589,1.589,0,0,0,13.149.21Z" transform="translate(1341.254 305.762)" fill="#37236a" opacity="0.1"/>
    <path id="Path_9882" data-name="Path 9882" d="M13.149.21.8,7.161a1.545,1.545,0,0,0,.795,2.894h6.4a1.6,1.6,0,0,1,1.377.773q1.6,2.7,3.2,5.4a1.6,1.6,0,0,0,2.967-.778V1.551A1.589,1.589,0,0,0,13.149.21Z" transform="translate(1256.206 393.279)" fill="#37236a" opacity="0.1"/>
    <path id="Path_9913" data-name="Path 9913" d="M54.693.875,3.317,29.789A6.426,6.426,0,0,0,6.624,41.823H33.238a6.658,6.658,0,0,1,5.727,3.218q6.653,11.242,13.308,22.475c3.383,5.708,12.34,3.37,12.34-3.237V6.455A6.612,6.612,0,0,0,54.693.875Z" transform="translate(-32.307 220.765)" fill="#37236a" opacity="0.1"/>
    <path id="Path_9914" data-name="Path 9914" d="M54.693.875,3.317,29.789A6.426,6.426,0,0,0,6.624,41.823H33.238a6.658,6.658,0,0,1,5.727,3.218q6.653,11.242,13.308,22.475c3.383,5.708,12.34,3.37,12.34-3.237V6.455A6.612,6.612,0,0,0,54.693.875Z" transform="translate(-38.232 18.684)" fill="#37236a" opacity="0.1"/>
    <path id="Path_9915" data-name="Path 9915" d="M25.868.414,1.569,14.089a3.04,3.04,0,0,0,1.564,5.692H15.72A3.149,3.149,0,0,1,18.429,21.3q3.146,5.317,6.294,10.631A3.142,3.142,0,0,0,30.56,30.4V3.053A3.127,3.127,0,0,0,25.868.414Z" transform="translate(308.044 22.771)" fill="#37236a" opacity="0.1"/>
    <path id="Path_9919" data-name="Path 9919" d="M36.772.588,2.23,20.028A4.321,4.321,0,0,0,4.453,28.12H22.347a4.476,4.476,0,0,1,3.85,2.163q4.473,7.558,8.947,15.11c2.274,3.838,8.3,2.266,8.3-2.175V4.34A4.446,4.446,0,0,0,36.772.588Z" transform="translate(497.578 -10.404)" fill="#37236a" opacity="0.1"/>
    <path id="Path_9916" data-name="Path 9916" d="M13.149.21.8,7.161a1.545,1.545,0,0,0,.795,2.894h6.4a1.6,1.6,0,0,1,1.377.773q1.6,2.7,3.2,5.4a1.6,1.6,0,0,0,2.967-.778V1.551A1.589,1.589,0,0,0,13.149.21Z" transform="translate(615.913 35.328)" fill="#37236a" opacity="0.1"/>
  </g>
</svg>
