<svg xmlns="http://www.w3.org/2000/svg" width="197.27" height="58" viewBox="0 0 197.27 58">
  <g id="Group_3745" data-name="Group 3745" transform="translate(-165 -2843)">
    <text id="by_Grupo_Éxito" data-name="by Grupo Éxito" transform="translate(225.506 2898)" fill="#fff" font-size="13" font-family="GalanoGrotesque-Medium" font-weight="500" letter-spacing="-0.02em"><tspan x="0" y="0">by Grupo Éxito</tspan></text>
    <g id="logo_clickam-white" transform="translate(165 2843)">
      <g id="Group_2545" data-name="Group 2545" transform="translate(63.755 7.716)">
        <g id="Group_2544" data-name="Group 2544" transform="translate(0 0)">
          <path id="Path_908" data-name="Path 908" d="M1700.8,5444.13a8.323,8.323,0,0,1,6.7,3.179.845.845,0,0,1-.226,1.255l-2.083,1.969c-.407.356-.816.132-1.132-.134a4.278,4.278,0,0,0-3.125-1.432,4.515,4.515,0,0,0-4.438,4.565,4.449,4.449,0,0,0,4.393,4.563,4.708,4.708,0,0,0,3.623-1.7.853.853,0,0,1,1.132-.133l1.948,1.657c.453.356.634.807.316,1.253a8.1,8.1,0,0,1-7.154,3.76,9.5,9.5,0,0,1-9.6-9.4A9.633,9.633,0,0,1,1700.8,5444.13Z" transform="translate(-1691.154 -5431.148)" fill="#fff"/>
          <path id="Path_909" data-name="Path 909" d="M2068.891,5205.279a.885.885,0,0,1,.859-.851h3.8a.884.884,0,0,1,.859.851v29.633a.883.883,0,0,1-.859.85h-3.8a.884.884,0,0,1-.859-.85Z" transform="translate(-2048.195 -5204.429)" fill="#fff"/>
          <path id="Path_910" data-name="Path 910" d="M2268.916,5453.25a.854.854,0,0,1,.859-.851h3.759a.855.855,0,0,1,.862.851v16.205a.885.885,0,0,1-.862.849h-3.759a.883.883,0,0,1-.859-.849Z" transform="translate(-2237.262 -5438.969)" fill="#fff"/>
          <path id="Path_911" data-name="Path 911" d="M2452.125,5444.13a8.321,8.321,0,0,1,6.7,3.179.846.846,0,0,1-.225,1.255l-2.084,1.969c-.408.356-.815.132-1.132-.134a4.278,4.278,0,0,0-3.125-1.432,4.515,4.515,0,0,0-4.438,4.565,4.449,4.449,0,0,0,4.393,4.563,4.7,4.7,0,0,0,3.623-1.7.854.854,0,0,1,1.132-.133l1.949,1.657c.452.356.633.807.315,1.253a8.094,8.094,0,0,1-7.154,3.76,9.5,9.5,0,0,1-9.6-9.4A9.633,9.633,0,0,1,2452.125,5444.13Z" transform="translate(-2401.315 -5431.148)" fill="#fff"/>
          <path id="Path_912" data-name="Path 912" d="M2820.217,5205.279a.885.885,0,0,1,.86-.851h3.849a.885.885,0,0,1,.86.851v19.382l6.251-6.267a1.69,1.69,0,0,1,1.131-.538h4.121a.761.761,0,0,1,.589,1.3l-6.748,6.8,8.061,8.55a.732.732,0,0,1-.588,1.252h-4.892a1.121,1.121,0,0,1-.769-.358l-7.156-8.055v7.563a.885.885,0,0,1-.86.85h-3.849a.885.885,0,0,1-.86-.85Z" transform="translate(-2758.357 -5204.429)" fill="#fff"/>
          <path id="Path_913" data-name="Path 913" d="M3204.366,5451.16a11.744,11.744,0,0,1,3.305.493c.047-2.284-.678-3.088-2.354-3.088a22.1,22.1,0,0,0-5.072.67c-.634.181-.95-.224-1.041-.807l-.408-2.325a.88.88,0,0,1,.633-1.12,24.4,24.4,0,0,1,6.16-.853c5.66,0,6.973,2.91,6.973,7.791v9.714a.884.884,0,0,1-.861.85h-1.63c-.316,0-.543-.135-.77-.627l-.543-1.207a7.831,7.831,0,0,1-5.525,2.282,5.743,5.743,0,0,1-6.113-6.133C3197.122,5453.621,3199.748,5451.16,3204.366,5451.16Zm.091,7.969a4.19,4.19,0,0,0,3.124-1.746v-2.462a7.16,7.16,0,0,0-2.535-.537c-1.766,0-2.944.985-2.944,2.416A2.247,2.247,0,0,0,3204.458,5459.128Z" transform="translate(-3114.612 -5431.148)" fill="#fff"/>
          <path id="Path_914" data-name="Path 914" d="M3574.037,5445.43a.856.856,0,0,1,.861-.851h1.675a.769.769,0,0,1,.771.492l.635,1.7a8.281,8.281,0,0,1,6.068-2.644,7.171,7.171,0,0,1,5.887,2.775,9.282,9.282,0,0,1,6.387-2.775c5.795,0,7.924,4.255,7.924,8.954v8.55a.854.854,0,0,1-.86.85h-3.668a.854.854,0,0,1-.86-.85v-8.863c0-2.327-1.132-3.8-3.4-3.8a4.568,4.568,0,0,0-3.8,1.879s.045.893.045,1.7v9.087a.885.885,0,0,1-.861.85h-3.4a.853.853,0,0,1-.859-.85v-8.863c0-2.327-1.042-3.8-3.352-3.8a3.991,3.991,0,0,0-3.8,2.818v9.849a.886.886,0,0,1-.861.85H3574.9a.886.886,0,0,1-.861-.85Z" transform="translate(-3470.876 -5431.148)" fill="#fff"/>
          <path id="Path_915" data-name="Path 915" d="M2257.178,5259.826l-5.395,3.079a.684.684,0,0,0,.347,1.278h2.794a.7.7,0,0,1,.6.345l1.4,2.391a.7.7,0,0,0,1.3-.34v-6.16A.694.694,0,0,0,2257.178,5259.826Z" transform="translate(-2220.738 -5256.738)" fill="#f21905"/>
        </g>
      </g>
      <g id="Group_2547" data-name="Group 2547" transform="translate(0 0)">
        <g id="Group_2546" data-name="Group 2546" transform="translate(0 2.338)">
          <path id="Path_916" data-name="Path 916" d="M550.688,5146.41v-12.266q-1.442-2.407-2.883-4.81a1.443,1.443,0,0,0-1.242-.692h-5.772a1.375,1.375,0,0,1-.717-2.579l10.614-5.905v-10.938a4.306,4.306,0,0,0-6.455-3.592l-33.425,18.6a4.125,4.125,0,0,0,2.152,7.737h17.315a4.332,4.332,0,0,1,3.727,2.073l8.657,14.451C544.859,5152.157,550.688,5150.652,550.688,5146.41Z" transform="translate(-508.649 -5105.065)" fill="#fff"/>
          <path id="Path_917" data-name="Path 917" d="M1276.118,5356.856l-11.142,6.2a1.376,1.376,0,0,0,.718,2.58h5.771a1.448,1.448,0,0,1,1.242.689l2.886,4.818a1.444,1.444,0,0,0,2.676-.693v-12.4A1.434,1.434,0,0,0,1276.118,5356.856Z" transform="translate(-1222.858 -5343.043)" fill="#f21905"/>
        </g>
        <rect id="Rectangle_506" data-name="Rectangle 506" width="197.098" height="49.71" transform="translate(0)" fill="none"/>
      </g>
    </g>
  </g>
</svg>
